<?xml version="1.0" encoding="utf-8"?>
<!-- Generator: Adobe Illustrator 28.2.0, SVG Export Plug-In . SVG Version: 6.00 Build 0)  -->
<svg version="1.1" id="_레이어_1" xmlns="http://www.w3.org/2000/svg" xmlns:xlink="http://www.w3.org/1999/xlink" x="0px"
	 y="0px" viewBox="0 0 119.2 146" style="enable-background:new 0 0 119.2 146;" xml:space="preserve">
<style type="text/css">
	.st0{fill:#00C2FF;}
	.st1{fill:#FFFFFF;}
</style>
<path class="st0" d="M61,141c-4.5-0.1-8.9-0.7-13.2-1.8c-4.3-1.1-8.6-2.8-12.6-4.9c-4.1-2.2-7.8-5-11.1-8.3
	c-4.1-3.9-7.5-8.6-10.1-13.8c-2.6-5-4.6-10.4-6-16c-1.4-5.5-2.3-11.1-2.7-16.6c-0.4-5.5-0.4-10.8,0-15.8c0.4-4.8,1.3-9.9,2.8-15.2
	c1.5-5.4,3.7-10.7,6.5-15.7c2.8-5,6.4-9.7,10.5-13.8c4.3-4.3,9.3-7.5,15-9.7C47.7,6.5,55,5,61.5,5c0.8,0,1.6,0,2.4,0.1
	c7.3,0.4,13.9,2.3,19.8,5.6c5.7,3.3,10.7,7.7,14.8,13.1c3.9,5.3,7.2,11.3,9.6,17.8c1.9,4.7,3.3,9.9,4.4,15.2
	c1,5.3,1.6,10.6,1.8,15.8c0.2,5.2,0,10.4-0.6,15.4c-0.6,5-1.5,9.8-2.8,14.1c-0.8,2.9-1.7,5.7-2.7,8.2c-1,2.5-2.3,5-3.7,7.4
	c-3.4,5.8-7.8,10.6-13.1,14.2c-5.2,3.6-11,6.1-17.2,7.6c-3.9,1-8.1,1.5-12.3,1.5C61.5,141,61.2,141,61,141L61,141z M60.8,37.7
	c-2.8,0-6.1,0.9-9.9,2.7c-2,1-3.6,2.3-5.1,4.1c-1.5,1.9-2.8,4-3.7,6.4c-1,2.6-1.9,5.4-2.5,8.2c-0.6,2.8-1,5.6-1.1,8.2v0.2
	c-0.2,2.9-0.3,6-0.2,9.2c0.1,3.1,0.5,6.3,1.1,9.5c0.6,3.1,1.5,6.1,2.5,8.8c1,2.5,2.3,4.8,4,6.8c2.5,2.9,5.4,4.9,8.7,6
	c1.9,0.6,3.8,1,5.7,1l0,0c1.3,0,2.6-0.2,3.9-0.5c5.1-1.1,8.9-4.5,11.8-10.4l0.1-0.1l0.1-0.1c1.2-2.2,2.1-4.8,2.7-7.7l0-0.2
	c1.3-5.2,1.9-11.1,1.7-17.7c-0.2-6.6-1.3-12.8-3.2-18.6c-1.2-3.3-2.6-6.4-4.3-8.9c-1.5-2.3-3.3-4-5.4-5.2
	C65.8,38.3,63.6,37.8,60.8,37.7L60.8,37.7z"/>
<path class="st1" d="M61.5,10c0.7,0,1.4,0,2.1,0.1c6.5,0.4,12.4,2,17.6,4.9s9.6,6.9,13.2,11.8c3.7,4.9,6.6,10.4,8.9,16.6
	c1.8,4.6,3.2,9.4,4.1,14.4s1.5,10.1,1.7,15c0.2,5,0,9.9-0.5,14.7c-0.5,4.8-1.4,9.2-2.6,13.3c-0.7,2.8-1.6,5.3-2.5,7.6
	s-2.1,4.6-3.4,6.8c-3,5.2-6.9,9.4-11.6,12.6s-9.9,5.5-15.6,6.8c-3.6,0.9-7.3,1.4-11.2,1.4c-0.2,0-0.5,0-0.7,0
	c-4.1-0.1-8.1-0.6-12.1-1.6c-4-1-7.8-2.5-11.4-4.5c-3.7-2-7-4.5-10-7.5c-3.7-3.6-6.8-7.8-9.2-12.5c-2.4-4.7-4.3-9.7-5.6-14.9
	s-2.2-10.5-2.5-15.8c-0.4-5.3-0.4-10.3,0-15.1c0.4-4.4,1.2-9.2,2.6-14.2s3.4-9.9,6-14.6s5.9-8.9,9.6-12.7s8.2-6.6,13.2-8.6
	C49,11.3,55.5,10,61.5,10 M60.5,113.8c1.7,0,3.4-0.2,5-0.6c6.6-1.4,11.6-5.8,15.1-13.1c1.4-2.6,2.5-5.6,3.2-9c1.4-5.6,2-12,1.8-19.1
	s-1.4-13.7-3.4-20c-1.3-3.8-3-7.2-4.9-10.2c-2-2.9-4.3-5.2-7-6.8s-5.8-2.3-9.5-2.3s-7.6,1.1-12.1,3.2c-2.6,1.3-4.9,3.1-6.8,5.4
	c-1.9,2.3-3.4,4.9-4.5,7.7c-1.1,2.9-2,5.9-2.7,9s-1,6.1-1.2,9c-0.2,3.1-0.3,6.4-0.2,9.8s0.5,6.8,1.2,10.3s1.6,6.7,2.8,9.7
	s2.8,5.8,4.9,8.2c3.1,3.6,6.8,6.1,10.9,7.5C55.6,113.4,58.1,113.8,60.5,113.8 M61.5,0v10V0L61.5,0c-7.2,0-15,1.6-23.2,4.7h0l0,0
	c-6.3,2.4-12,6.1-16.7,10.8c-4.4,4.4-8.2,9.4-11.3,14.9c-3,5.4-5.4,11.1-7,16.9c-1.5,5.6-2.5,11-2.9,16v0v0
	c-0.4,5.2-0.4,10.8,0,16.6c0.4,5.9,1.3,11.8,2.8,17.5c1.5,5.9,3.6,11.6,6.4,17c2.9,5.7,6.6,10.8,11.1,15.1c3.7,3.6,7.8,6.7,12.2,9.1
	c4.3,2.4,9,4.2,13.7,5.4c4.7,1.2,9.6,1.9,14.4,1.9c0.3,0,0.6,0,0.9,0c4.6,0,9.2-0.6,13.5-1.6c6.8-1.6,13.1-4.4,18.9-8.3
	c6-4.1,10.9-9.4,14.6-15.8c1.5-2.6,2.9-5.3,4-8c1.1-2.7,2.1-5.6,2.9-8.8c1.3-4.6,2.3-9.6,2.9-14.9c0.6-5.3,0.8-10.7,0.6-16.2
	c-0.2-5.5-0.8-11-1.9-16.5c-1.1-5.6-2.6-11-4.6-16.1c-2.6-6.9-6-13.3-10.2-18.9c-4.5-6-10-10.9-16.3-14.5
	c-6.5-3.7-13.9-5.8-21.9-6.2C63.3,0,62.4,0,61.5,0L61.5,0L61.5,0z M53.2,44.9c3-1.4,5.6-2.2,7.6-2.2c1.8,0,3.3,0.3,4.5,1
	c1.4,0.8,2.6,2,3.7,3.7c1.5,2.2,2.7,4.8,3.8,7.8c1.7,5.3,2.7,11.1,2.9,17.1c0.2,6.1-0.3,11.6-1.5,16.3l-0.1,0.2l0,0.2
	c-0.5,2.4-1.3,4.5-2.2,6.3l-0.1,0.2l-0.1,0.2c-2.8,5.9-6,7.2-8.2,7.7l-0.1,0l-0.1,0c-0.9,0.2-1.8,0.3-2.7,0.3
	c-1.3,0-2.7-0.2-4.1-0.7c-2.4-0.8-4.5-2.3-6.5-4.5c-1.3-1.6-2.3-3.3-3.1-5.3c-1-2.5-1.7-5.2-2.3-8c-0.6-2.9-0.9-5.8-1-8.7
	c-0.1-3.1-0.1-6,0.2-8.7v-0.2l0-0.2c0.1-2.3,0.4-4.8,1-7.3c0.5-2.6,1.3-5,2.2-7.4c0.8-1.9,1.7-3.6,3-5.1
	C50.8,46.6,51.9,45.7,53.2,44.9L53.2,44.9L53.2,44.9z"/>
</svg>
