<?xml version="1.0" encoding="UTF-8"?><svg id="_레이어_1" xmlns="http://www.w3.org/2000/svg" viewBox="0 0 166.8 90.91"><defs><style>.cls-1{fill:#fb8700;}.cls-1,.cls-2{stroke-width:0px;}.cls-2{fill:#fff;}</style></defs><path class="cls-1" d="M72.98,88.42c-.62,0-1.25-.05-1.86-.14l-.11-.02c-1.44-.29-2.68-.89-3.68-1.79-.9-.8-1.58-1.83-2.03-3.06-.34-.96-.61-1.9-.8-2.79-.2-.96-.3-2.11-.3-3.5V13.7c0-1.05.08-2.11.22-3.15.15-1.05.36-2.04.63-2.93.35-1.16.91-2.13,1.67-2.89,1.1-1.1,2.33-1.77,3.65-2,.94-.16,1.95-.23,3.01-.23,1.61,0,3.11.44,4.45,1.3,1.38.88,2.37,2.12,2.97,3.67.7,1.66,1.1,3.4,1.18,5.17l.2,4.55c.13,5.36.17,10.78.1,16.14-.07,5.22-.1,10.29-.1,15.07v25c0,1.6-.09,3.25-.26,4.91-.19,1.73-.58,3.53-1.16,5.35l-.05.14c-.54,1.4-1.53,2.52-2.94,3.34-1.04.65-2.18,1.05-3.4,1.19-.47.05-.94.08-1.4.08ZM33.28,86.92c-.21,0-.43,0-.66-.02-.95-.09-1.82-.25-2.64-.5-.97-.29-1.87-.76-2.66-1.4-.85-.69-1.52-1.61-2.02-2.75-.48-1.09-.71-2.42-.71-4.05l-.25-13.37c-1.69-.05-3.35-.11-4.96-.18l-7.9-.35c-1.2-.08-2.34-.31-3.46-.67-1.33-.43-2.55-1.23-3.64-2.4-1.26-1.28-1.9-3.04-1.9-5.23,0-2.01.61-3.73,1.8-5.13.75-.86,1.67-1.5,2.76-1.91.82-.31,1.65-.55,2.44-.71.84-.17,1.58-.25,2.25-.25h30.95c-.25-.29-.49-.61-.71-.95-.71-1.19-1.19-2.1-1.5-2.84-.33-.79-.57-1.58-.71-2.33-.14-.78-.17-1.65-.08-2.57,0,0,0,0,0-.01H12.8c-.83,0-1.52-.08-2.11-.24-.58-.16-1.17-.41-1.76-.76-.78-.45-1.42-1.12-1.91-1.97l-.06-.12c-.58-1.16-.87-2.54-.87-4.22s.37-3.2,1.09-4.34c.81-1.27,1.79-2.07,2.91-2.37.52-.14,1.04-.27,1.59-.41l.3-.08h.2l.1-.03c.68-.17,1.39-.28,2.1-.32.53-.03,1.07-.08,1.62-.14h.1c.96-.08,2.22-.13,3.72-.17l4.61-.1c1.62-.03,3.2-.05,4.75-.05h8.35c.76,0,1.52,0,2.25.02v-1.27c0-.46-.01-.94-.03-1.43-1.5-.05-3.14-.11-4.91-.18-2.7-.1-5.11-.18-7.24-.25h-.02c-2.39,0-4.95.08-7.6.25-.95.06-1.9.09-2.82.09-1.85,0-3.67-.12-5.42-.36-1.15-.13-3.32-.83-4.54-3.91-.68-1.71-1.02-3.59-1.02-5.57v-.11c.13-2.93,1.58-4.53,2.78-5.35,1.28-.88,2.63-1.53,4.01-1.94,1.61-.46,3.18-.71,4.69-.75,1.29-.03,2.65-.08,4.1-.15h.11c.95,0,2.04.01,3.27.05,1.18.03,2.22.05,3.13.05h8c.33,0,.66-.01.99-.04.21-.02.41-.03.61-.03.33,0,.66.02.99.07h2.62c.64,0,1.29.02,1.94.05.56.03,1.08.05,1.56.05h1.8c.63,0,1.28.03,1.93.1h.77c.59,0,1.17.13,1.73.38.39.13.76.27,1.09.4l.15.06.14.08c.7.39,1.36.82,1.98,1.28.81.61,1.48,1.38,1.99,2.29.73,1.21,1.22,2.59,1.44,4.05.18,1.26.28,2.52.28,3.76,0,1.52.02,3.22.05,5.1l.1,5.8c.03,1.98.05,3.93.05,5.84s-.03,3.68-.1,5.26c-.08,1.1-.07,1.65-.05,1.93.04.7.02,1.37-.07,2.01-.09.63-.25,1.27-.47,1.89-.22.63-.6,1.38-1.15,2.32-.48.84-1.09,1.59-1.81,2.24.49.03.98.07,1.48.11,2.03.19,3.77.95,5.18,2.26.92.92,1.54,1.88,1.9,2.9.33.94.49,1.96.49,3.03,0,1.42-.34,2.76-1.02,3.97-.75,1.33-1.9,2.31-3.35,2.85-1.43.62-2.92,1-4.44,1.12-1.29.1-2.58.19-3.87.25-1.95.07-3.42.13-4.47.2-1.08.07-1.98.12-2.69.15-.74.04-1.44.05-2.12.05h-.17l-.08,12.52c0,2.52-.81,4.75-2.4,6.61-1.56,1.82-3.64,2.79-6.02,2.79Z"/><path class="cls-2" d="M73.4,5c1.13,0,2.17.3,3.1.9.93.6,1.6,1.43,2,2.5.6,1.4.93,2.85,1,4.35.07,1.5.13,3.02.2,4.55.13,5.33.17,10.67.1,16-.07,5.33-.1,10.37-.1,15.1v25c0,1.53-.08,3.08-.25,4.65-.17,1.57-.52,3.18-1.05,4.85-.33.87-.97,1.57-1.9,2.1-.73.47-1.53.75-2.4.85-.37.04-.74.06-1.11.06-.5,0-.99-.04-1.48-.11-1-.2-1.83-.6-2.5-1.2-.6-.53-1.05-1.22-1.35-2.05-.3-.83-.53-1.65-.7-2.45-.17-.8-.25-1.8-.25-3V13.7c0-.93.07-1.87.2-2.8.13-.93.32-1.78.55-2.55.23-.77.58-1.38,1.05-1.85.73-.73,1.5-1.17,2.3-1.3.8-.13,1.67-.2,2.6-.2M21.9,5.6c.93,0,2,.02,3.2.05,1.2.03,2.27.05,3.2.05h8c.4,0,.8-.02,1.2-.05.13-.01.26-.02.4-.02.27,0,.54.02.8.07h2.8c.6,0,1.2.02,1.8.05.6.03,1.17.05,1.7.05h1.8c.6,0,1.2.03,1.8.1h.9c.27,0,.53.07.8.2.4.13.77.27,1.1.4.6.33,1.17.7,1.7,1.1.53.4.97.9,1.3,1.5.6,1,.98,2.07,1.15,3.2.17,1.13.25,2.27.25,3.4,0,1.53.02,3.25.05,5.15.03,1.9.07,3.83.1,5.8.03,1.97.05,3.9.05,5.8s-.03,3.62-.1,5.15c-.07.94-.08,1.67-.05,2.2.03.53.02,1.03-.05,1.5-.07.47-.18.93-.35,1.4-.17.47-.48,1.1-.95,1.9-.53.93-1.27,1.7-2.2,2.3-.93.6-1.92.97-2.95,1.1-.28.04-.55.05-.82.05-.74,0-1.45-.13-2.13-.4-.93-.37-1.7-1.02-2.3-1.95-.6-1-1.03-1.82-1.3-2.45-.27-.63-.45-1.23-.55-1.8-.1-.57-.12-1.2-.05-1.9.07-.7.1-1.62.1-2.75H12.8c-.6,0-1.08-.05-1.45-.15-.37-.1-.75-.27-1.15-.5-.4-.23-.73-.58-1-1.05-.4-.8-.6-1.83-.6-3.1s.23-2.27.7-3c.47-.73.95-1.17,1.45-1.3.5-.13,1.02-.27,1.55-.4.27,0,.47-.03.6-.1.53-.13,1.08-.22,1.65-.25.57-.03,1.15-.08,1.75-.15.93-.07,2.13-.12,3.6-.15,1.47-.03,3-.07,4.6-.1,1.6-.03,3.17-.05,4.7-.05h8.35c1.7,0,3.28.03,4.75.1v-3.85c0-1.23-.07-2.52-.2-3.85-2.07-.07-4.45-.15-7.15-.25-2.7-.1-5.12-.18-7.25-.25h-.1c-2.47,0-5.05.08-7.75.25-.9.06-1.79.08-2.66.08-1.75,0-3.44-.11-5.09-.33-1.13-.13-1.98-.92-2.55-2.35-.57-1.43-.85-2.98-.85-4.65.07-1.53.63-2.67,1.7-3.4,1.07-.73,2.17-1.27,3.3-1.6,1.4-.4,2.75-.62,4.05-.65,1.3-.03,2.68-.08,4.15-.15M51.9,50.5c1.33,0,2.73.07,4.2.2,1.47.13,2.7.67,3.7,1.6.6.6,1.02,1.23,1.25,1.9.23.67.35,1.4.35,2.2,0,1-.23,1.92-.7,2.75-.47.83-1.17,1.42-2.1,1.75-1.2.53-2.43.85-3.7.95-1.27.1-2.53.18-3.8.25-1.93.07-3.43.13-4.5.2-1.07.07-1.95.12-2.65.15-.7.03-1.37.05-2,.05h-2.65l-.1,15c0,1.93-.6,3.6-1.8,5-1.1,1.28-2.47,1.92-4.12,1.92-.16,0-.32,0-.48-.02-.73-.07-1.43-.2-2.1-.4-.67-.2-1.27-.52-1.8-.95-.53-.43-.97-1.04-1.3-1.8-.33-.77-.5-1.78-.5-3.05l-.3-15.8c-2.6-.07-5.03-.15-7.3-.25-2.27-.1-4.9-.22-7.9-.35-.93-.07-1.87-.25-2.8-.55-.93-.3-1.8-.88-2.6-1.75-.8-.8-1.2-1.96-1.2-3.5,0-1.4.4-2.57,1.2-3.5.46-.53,1.05-.93,1.75-1.2.7-.27,1.38-.47,2.05-.6.67-.13,1.25-.2,1.75-.2h40.15M73.4,0c-1.2,0-2.35.09-3.42.27-1.85.31-3.54,1.22-5.02,2.7-1.05,1.05-1.83,2.37-2.3,3.93-.31,1-.55,2.11-.72,3.3-.17,1.15-.25,2.33-.25,3.5v33.77c-.75-.49-1.56-.88-2.42-1.17.38-.71.67-1.34.87-1.91.28-.8.48-1.59.59-2.37.12-.82.15-1.66.09-2.52,0-.15-.02-.57.05-1.54v-.07s0-.07,0-.07c.07-1.61.11-3.42.11-5.37s-.02-3.84-.05-5.88l-.06-3.52-.04-2.29c-.03-1.81-.05-3.51-.05-5.06,0-1.36-.1-2.75-.3-4.12-.26-1.77-.86-3.44-1.77-4.98-.67-1.18-1.55-2.19-2.63-2.99-.71-.53-1.47-1.03-2.27-1.47l-.28-.16-.3-.12c-.35-.14-.72-.27-1.11-.41-.85-.36-1.73-.54-2.64-.54h-.64c-.69-.07-1.38-.1-2.06-.1h-1.8c-.46,0-.93-.01-1.41-.04-.71-.04-1.41-.06-2.09-.06h-2.46c-.38-.04-.76-.07-1.14-.07-.27,0-.54.01-.81.03-.26.02-.51.03-.79.03h-8c-.92,0-1.94-.02-3.06-.05-1.27-.04-2.37-.05-3.34-.05h-.23c-1.42.07-2.78.12-4.05.15-1.73.05-3.51.33-5.3.84-1.67.49-3.26,1.26-4.76,2.29-2.36,1.63-3.73,4.22-3.86,7.31v.11s0,.11,0,.11c0,2.29.4,4.48,1.2,6.49.94,2.39,2.58,4.12,4.62,4.96-.02,0-.04,0-.05.01-1.76.47-3.23,1.63-4.39,3.45-.98,1.55-1.48,3.46-1.48,5.68,0,2.05.38,3.84,1.13,5.34l.06.12.07.11c.71,1.24,1.66,2.22,2.83,2.9.76.45,1.55.79,2.35,1,.81.22,1.71.33,2.77.33h24.45c.02.18.05.35.08.53.16.93.46,1.9.87,2.87.04.1.08.2.13.3H11.75c-.84,0-1.73.1-2.73.3-.94.19-1.9.47-2.85.83-1.48.56-2.73,1.43-3.74,2.58-1.6,1.87-2.43,4.21-2.43,6.79,0,3.54,1.39,5.73,2.59,6.96,1.37,1.47,2.95,2.5,4.69,3.05,1.3.42,2.64.68,3.97.78h.07s.07,0,.07,0c3,.13,5.64.25,7.9.35.86.04,1.73.07,2.61.11l.21,11c0,1.96.3,3.59.92,5,.65,1.5,1.57,2.74,2.73,3.68,1.05.85,2.23,1.48,3.53,1.86.97.29,2,.49,3.07.59h.05s.05,0,.05,0c.28.02.56.03.83.03,3.13,0,5.87-1.27,7.92-3.67,1.96-2.29,3-5.14,3-8.25l.07-10.06c.7-.03,1.58-.08,2.64-.15,1-.06,2.47-.13,4.36-.19h.04s.04,0,.04,0c1.25-.06,2.57-.15,3.93-.26,1.78-.14,3.52-.58,5.18-1.3.43-.16.84-.35,1.22-.57v12.14c0,1.57.12,2.88.36,4.03.21,1,.51,2.05.89,3.11.59,1.63,1.51,3.01,2.73,4.1,1.31,1.18,2.95,1.99,4.84,2.37l.11.02.11.02c.74.11,1.5.17,2.24.17.56,0,1.13-.03,1.69-.1,1.58-.18,3.07-.7,4.41-1.54,1.87-1.1,3.25-2.68,3.98-4.58l.05-.14.04-.14c.63-1.98,1.06-3.94,1.26-5.84.19-1.76.28-3.5.28-5.18v-25c0-4.77.03-9.83.1-15.04.07-5.4.03-10.84-.1-16.19v-.05s0-.05,0-.05l-.07-1.69-.13-2.85c-.09-2.07-.55-4.09-1.36-6-.78-2.01-2.14-3.68-3.93-4.83-1.75-1.13-3.7-1.69-5.8-1.69h0Z"/><path class="cls-1" d="M102.57,81.63c-2.73,0-5.15-.04-7.18-.14-1.24-.08-2.43-.25-3.59-.51-1.25-.28-2.39-.7-3.39-1.24-1.18-.64-2.15-1.56-2.88-2.72-.75-1.2-1.13-2.72-1.13-4.53,0-1.95.64-3.68,1.91-5.14l.06-.07.06-.06c.81-.81,1.81-1.41,2.98-1.8.91-.3,1.8-.53,2.64-.69.9-.16,1.68-.24,2.4-.24l56.66.1c1.75,0,3.35.02,4.8.05,2,.05,3.81.73,5.38,2.02l.09.08c1.91,1.73,2.92,3.86,2.92,6.15,0,1.53-.46,2.94-1.37,4.21-.9,1.24-2.09,2.13-3.57,2.64-1.5.59-3.07,1.01-4.67,1.23-1.5.21-3,.35-4.47.42-3.68.15-7.46.23-11.25.23-1.26,0-2.53,0-3.8-.02-5.01-.07-9.81-.1-14.27-.1-4.79,0-9.5.03-14.01.1-1.53.02-2.96.03-4.32.03ZM99.91,61.01c-.16,0-.31,0-.47,0-2.36-.1-4.43-1.35-6.16-3.72l-.08-.11c-1.19-1.83-1.69-3.63-1.49-5.36.18-1.55.74-2.98,1.65-4.26.81-1.13,1.83-2.18,3.06-3.12,1.07-.83,2.15-1.61,3.19-2.3,2.49-1.66,4.99-3.63,7.46-5.87,2.53-2.3,4.94-4.59,7.16-6.82.47-.47.57-.76.57-.83v-5.2h-13.25c-.35.01-.69.02-1.03.02-1.44,0-2.79-.12-4.01-.37-1.54-.36-2.92-1-4.19-1.94-1.1-.81-2.47-2.36-2.71-5.2-.28-3.05.5-5.36,2.3-6.85,1.51-1.25,3.37-1.97,5.52-2.16.6-.08,1.43-.11,2.62-.11h2.55l45.09-.2c1.3,0,2.55.07,3.72.22,1.35.17,2.56.52,3.61,1.04,1.19.59,2.15,1.43,2.86,2.5.75,1.12,1.12,2.51,1.12,4.14.08,2.06-.23,3.74-.96,5.06-.77,1.38-1.87,2.4-3.27,3.02-1.19.53-2.54.82-3.99.86-.4.01-.81.02-1.21.02-.77,0-1.54-.02-2.32-.07l-12.38.17.03,1.27c0,.67-.04,1.36-.11,2.19-.05.6,0,.92.03,1.06.07.25.19.46.38.64.59.55,1.15,1.13,1.67,1.73,1.81,2.12,3.92,4.03,6.31,5.7,2.62,1.84,5.27,3.91,7.85,6.16l.12.1.1.12c.58.65,1.23,1.35,1.94,2.09.86.9,1.62,1.89,2.25,2.95.68,1.16,1.14,2.36,1.36,3.59.26,1.45.04,2.93-.64,4.4-.84,1.68-2.03,2.82-3.56,3.46-1.13.47-2.32.7-3.55.7-.2,0-.41,0-.62-.02-1.27-.08-2.58-.34-3.88-.77-1.3-.43-2.46-.99-3.45-1.64-3.25-2.1-6.33-4.39-9.14-6.78-2.26-1.93-4.54-3.95-6.8-6.01-.92.73-1.99,1.58-3.21,2.56-1.33,1.06-2.71,2.18-4.13,3.34-1.45,1.18-2.64,2.14-3.58,2.88-1.07.8-2.31,1.8-3.74,3-1.61,1.35-3.32,2.49-5.09,3.37-1.82.91-3.67,1.37-5.5,1.37Z"/><path class="cls-2" d="M147.7,9.1c1.2,0,2.33.07,3.4.2,1.07.13,2,.4,2.8.8.8.4,1.43.95,1.9,1.65.46.7.7,1.62.7,2.75.07,1.67-.15,2.95-.65,3.85-.5.9-1.2,1.55-2.1,1.95-.9.4-1.92.62-3.05.65-.38.01-.76.02-1.14.02-.75,0-1.51-.02-2.26-.07l-15,.2.1,3.8c0,.53-.03,1.17-.1,1.9-.07.73-.04,1.37.1,1.9.2.73.57,1.35,1.1,1.85.53.5,1.03,1.02,1.5,1.55,1.93,2.27,4.18,4.3,6.75,6.1s5.12,3.8,7.65,6c.6.67,1.27,1.38,2,2.15.73.77,1.37,1.6,1.9,2.5.53.9.88,1.82,1.05,2.75.17.93.02,1.9-.45,2.9-.53,1.07-1.28,1.8-2.25,2.2-.83.34-1.69.51-2.59.51-.15,0-.3,0-.46-.01-1.07-.07-2.15-.28-3.25-.65-1.1-.37-2.05-.82-2.85-1.35-3.2-2.07-6.17-4.27-8.9-6.6-2.73-2.33-5.47-4.77-8.2-7.3,0,0-.01,0-.02,0-.13,0-.64.35-1.53,1.06-.97.77-2.12,1.68-3.45,2.75-1.33,1.07-2.72,2.18-4.15,3.35-1.43,1.17-2.62,2.12-3.55,2.85-1.07.8-2.33,1.82-3.8,3.05-1.47,1.23-3,2.25-4.6,3.05-1.48.74-2.94,1.11-4.39,1.11-.12,0-.24,0-.36,0-1.57-.07-2.98-.96-4.25-2.7-.87-1.33-1.23-2.57-1.1-3.7.13-1.13.53-2.17,1.2-3.1.67-.93,1.52-1.8,2.55-2.6,1.03-.8,2.05-1.53,3.05-2.2,2.6-1.73,5.18-3.77,7.75-6.1,2.57-2.33,4.98-4.63,7.25-6.9.87-.87,1.3-1.73,1.3-2.6v-7.7h-15.8c-.33.01-.66.02-.98.02-1.28,0-2.45-.11-3.52-.32-1.13-.27-2.2-.77-3.2-1.5-1-.73-1.57-1.87-1.7-3.4-.2-2.2.27-3.77,1.4-4.7,1.13-.93,2.53-1.47,4.2-1.6.47-.07,1.25-.1,2.35-.1h2.55l45.1-.2M95.4,67l55.7.1c1.73,0,3.32.02,4.75.05,1.43.03,2.72.52,3.85,1.45,1.4,1.27,2.1,2.7,2.1,4.3,0,1-.3,1.92-.9,2.75-.6.83-1.4,1.42-2.4,1.75-1.33.53-2.72.9-4.15,1.1-1.43.2-2.85.33-4.25.4-3.65.15-7.37.22-11.13.22-1.25,0-2.5,0-3.77-.02-5.07-.07-9.83-.1-14.3-.1-4.8,0-9.48.03-14.05.1-1.51.02-2.94.03-4.28.03-2.71,0-5.06-.04-7.07-.13-1.07-.07-2.12-.22-3.15-.45-1.03-.23-1.95-.57-2.75-1-.8-.43-1.45-1.05-1.95-1.85-.5-.8-.75-1.87-.75-3.2s.43-2.5,1.3-3.5c.53-.53,1.2-.93,2-1.2.8-.27,1.57-.47,2.3-.6.73-.13,1.38-.2,1.95-.2h.95M147.7,4.1h-.02s-45.1.2-45.1.2h-2.53c-1.26,0-2.19.04-2.89.13-2.64.24-4.94,1.15-6.84,2.71-1.71,1.41-3.65,4.11-3.2,9.01.32,3.75,2.2,5.87,3.72,6.98,1.54,1.13,3.23,1.92,5.01,2.34l.08.02.08.02c1.38.28,2.9.42,4.5.42.35,0,.71,0,1.08-.02h10.7v1.93c-2.15,2.15-4.48,4.36-6.91,6.57-2.37,2.16-4.78,4.05-7.16,5.64-1.1.73-2.22,1.54-3.34,2.41-1.41,1.09-2.61,2.32-3.56,3.65-1.16,1.63-1.87,3.45-2.1,5.42-.27,2.32.36,4.68,1.88,7.01l.07.11.08.11c1.09,1.49,2.24,2.53,3.38,3.25h-.19c-.87,0-1.8.09-2.84.28-.97.18-1.97.44-2.98.78-1.54.51-2.87,1.32-3.96,2.41l-.13.13-.12.14c-1.65,1.9-2.52,4.25-2.52,6.78,0,2.28.51,4.25,1.51,5.85.96,1.53,2.24,2.74,3.8,3.59,1.2.65,2.56,1.15,4.03,1.48,1.3.29,2.62.48,3.94.56h.04s.04,0,.04,0c2.07.09,4.52.14,7.29.14,1.36,0,2.81-.01,4.35-.03,4.5-.07,9.2-.1,13.98-.1,4.45,0,9.24.03,14.23.1,1.29.02,2.56.02,3.83.02,3.83,0,7.65-.08,11.34-.23,1.58-.08,3.17-.23,4.74-.44,1.78-.25,3.52-.71,5.19-1.36,1.92-.67,3.55-1.89,4.72-3.52,1.21-1.68,1.84-3.64,1.84-5.67s-.65-5.21-3.75-8.01l-.09-.08-.09-.07c-1.98-1.63-4.37-2.53-6.91-2.59-1.47-.03-3.11-.05-4.87-.05h-.39c.98-.14,1.93-.4,2.86-.78,2.07-.86,3.74-2.44,4.81-4.58l.03-.06.03-.06c.9-1.94,1.19-3.92.84-5.88-.27-1.53-.84-3.02-1.67-4.43-.73-1.23-1.6-2.37-2.59-3.41-.68-.71-1.31-1.39-1.9-2.04l-.21-.23-.23-.2c-2.65-2.3-5.36-4.43-8.06-6.32-2.21-1.55-4.17-3.32-5.82-5.25l-.02-.03-.02-.03c-.47-.53-.96-1.05-1.48-1.56.04-.44.07-.84.09-1.21l9.82-.13c.79.04,1.59.07,2.37.07.43,0,.86,0,1.29-.02,1.77-.05,3.44-.41,4.93-1.08,1.88-.84,3.42-2.25,4.44-4.09.95-1.71,1.37-3.8,1.28-6.38-.02-2.08-.53-3.9-1.53-5.41-.96-1.44-2.25-2.57-3.83-3.36-1.3-.65-2.78-1.08-4.41-1.29-1.28-.16-2.63-.24-4.03-.24h0ZM106.23,62.02c.1-.05.2-.1.3-.15,1.95-.97,3.83-2.22,5.58-3.7,1.39-1.17,2.59-2.13,3.58-2.87l.05-.03.05-.04c.96-.76,2.18-1.73,3.62-2.9,1.42-1.15,2.79-2.26,4.12-3.32.55-.44,1.06-.85,1.54-1.23,1.76,1.58,3.53,3.13,5.29,4.63,2.88,2.46,6.04,4.81,9.41,6.98,1.16.77,2.51,1.41,4.01,1.91,1.16.39,2.32.65,3.48.8l-41.02-.07h0Z"/></svg>