<?xml version="1.0" encoding="UTF-8"?><svg id="_레이어_1" xmlns="http://www.w3.org/2000/svg" viewBox="0 0 1280 720"><defs><style>.cls-1{fill:#ffca49;}.cls-1,.cls-2,.cls-3,.cls-4,.cls-5{stroke-width:0px;}.cls-2{fill:#fcba30;}.cls-3{fill:#fff8b5;}.cls-4{fill:#ffd962;}.cls-5{fill:#1c3849;}</style></defs><path class="cls-2" d="M391.53-41.51c-2.08-2.79-7.59-2.33-15.41-1.53-6.05-8.46-10.82-12.48-14.2-11.96-5.34.81-8.6,9.31-10.41,16.56-12.53,3.36-17.63,6.63-17.05,10.86.52,3.74,4.55,9.5,14.16,13.66.06,6.57.92,14.32,4.52,16.11.88.44,1.95.53,3.17.26,3.89-.84,9.16-5.28,13.11-9.09,6.22,1.8,16.4,4.4,20.68,3.47.59-.13,1.07-.32,1.47-.58,4.04-2.7.17-12.51-4-20.59,3.94-6.12,6.61-13.62,3.96-17.17ZM384.59-23.74c6.71,12.78,6.1,17.07,5.36,17.56-.02.01-.14.09-.47.16-2.72.59-10.41-.81-20.06-3.66-.24-.07-.49-.08-.72-.03-.26.06-.51.19-.71.38-5.19,5.1-9.68,8.35-12.3,8.91-.55.12-.98.11-1.25-.02-1.09-.54-2.93-4.2-2.9-14.46,0-.6-.36-1.13-.91-1.36-9.75-3.97-12.94-9.25-13.28-11.74-.19-1.35,1.61-4.16,15.74-7.86.52-.14.92-.55,1.05-1.07,2.11-8.86,5.13-14.53,8.22-15.2,0,0,0,0,0,0,1.58-.24,5.64,2.61,11.86,11.46.3.43,1.01.65,1.53.59,5.75-.59,12.27-1.25,13.43.31,1.32,1.77-.03,7.83-4.52,14.52-.3.44-.33,1.02-.08,1.49Z"/><path class="cls-4" d="M1025.65,17.38c.25-1.88-4.73-5.85-9.12-9.35-.4-.32-.74-.95-.66-1.45,1.7-10.38.82-15.12-.44-16.02,0,0,0,0,0,0-2.6-1.64-8.55.25-16.05,4.96-.44.28-1,.29-1.46.03-12.33-7.04-15.49-6.31-16.28-5.25-1.45,1.96-2.83,7.79,1.24,17.18.23.53.11,1.15-.29,1.56-7,7.11-8.21,10.89-7.82,12.01.1.28.39.58.85.87,2.21,1.39,7.53,2.18,14.61,2.18.27,0,.54.08.76.22.2.12.36.3.48.51,4.76,8.54,9.15,14.74,11.44,16.19.27.17.41.2.43.21.85.16,4.19-2.4,8.23-15.84.15-.5.56-.88,1.07-.98,7.67-1.59,12.73-4.88,13.02-7.01Z"/><path class="cls-2" d="M1028.46,17.76c.45-3.35-3.69-6.78-9.66-11.55,1.55-9.99.98-16.03-1.72-17.97-4.26-3.08-12.3.61-18.5,4.41-10.99-6.19-16.76-7.39-19.23-4.06-2.19,2.95-3.3,9.69.54,19.12-4.43,4.6-9.1,10.57-7.82,14.26.32.91,1,1.69,2.02,2.34,3.27,2.06,9.95,2.57,15.29,2.61,3.09,5.49,8.4,14.21,12,16.48.5.31.96.51,1.42.59,4.64.88,8.63-8.58,11.23-17.01,6.9-1.57,13.85-4.96,14.43-9.23ZM1011.56,25.37c-4.03,13.44-7.38,16-8.23,15.84-.02,0-.16-.04-.43-.21-2.29-1.44-6.68-7.65-11.44-16.19-.12-.21-.29-.38-.48-.51-.22-.14-.48-.22-.76-.22-7.07,0-12.4-.79-14.61-2.18-.46-.29-.76-.59-.85-.87-.39-1.12.82-4.91,7.82-12.01.41-.41.52-1.03.29-1.56-4.07-9.4-2.69-15.22-1.24-17.18.79-1.06,3.95-1.79,16.28,5.25.45.26,1.02.25,1.46-.03,7.5-4.71,13.45-6.6,16.05-4.96h0c1.27.91,2.14,5.65.44,16.03-.08.51.26,1.13.66,1.45,4.39,3.5,9.37,7.48,9.12,9.35-.29,2.13-5.35,5.42-13.02,7.01-.51.11-.92.48-1.07.98Z"/><path class="cls-1" d="M1009.25,32.15c-3.27-2.11-6.36-4.45-9.08-7.23-3.55-3.62-6.38-7.88-9.19-12.1-1.32-1.99-2.65-4-3.54-6.22-1.01-2.54-1.39-5.27-1.75-7.98-.38-2.92-.72-5.89-.59-8.81-2.17-.44-3.1-.02-3.47.48-1.45,1.96-2.83,7.79,1.24,17.18.23.53.11,1.15-.29,1.56-7,7.11-8.21,10.89-7.82,12.01.1.28.39.58.85.87,2.21,1.39,7.53,2.18,14.61,2.18.27,0,.54.08.76.22.2.12.36.3.48.51,4.76,8.54,9.15,14.74,11.44,16.19.27.17.41.2.43.21.68.13,2.96-1.51,5.92-9.06Z"/><path class="cls-1" d="M1002.31,22.55c-1.93-3.74-4.43-7.13-6.36-10.88-.29-.56-1.24-.23-1.05.38,1.33,4.14,3.01,8.27,6.11,11.4.63.64,1.72-.09,1.3-.91Z"/><path class="cls-1" d="M1006.76,27.93c-.47-.56-.95-1.22-1.29-1.86-.44-.84-1.91-.36-1.6.59.39,1.19,1.02,1.95,2.26,2.27.58.15,1.02-.53.62-.99Z"/><path class="cls-4" d="M1206.53,157.73c-.6-1.79-6.82-3.16-12.31-4.36-.5-.11-1.09-.52-1.24-1.01-3.06-10.06-5.94-13.93-7.47-14.18,0,0,0,0,0,0-3.06-.32-7.56,4-12.21,11.54-.28.45-.77.7-1.3.67-14.17-.87-16.69,1.18-16.92,2.48-.44,2.4.9,8.24,8.7,14.87.44.37.61.98.43,1.53-3.14,9.47-2.56,13.4-1.72,14.23.21.21.61.34,1.15.4,2.59.27,7.72-1.37,14.06-4.5.25-.12.51-.17.78-.14.23.02.46.11.66.24,8.05,5.56,14.72,9.19,17.41,9.47.32.03.46,0,.48,0,.84-.23,2.7-4.01.39-17.85-.09-.51.12-1.03.53-1.35,6.18-4.81,9.27-10,8.58-12.04Z"/><path class="cls-2" d="M1209.22,156.83c-1.07-3.21-6.31-4.45-13.77-6.1-3.02-9.65-6.2-14.81-9.48-15.36-5.18-.88-10.77,5.98-14.64,12.13-12.59-.7-18.3.76-19.05,4.85-.66,3.61,1.32,10.15,8.93,16.92-1.94,6.09-3.5,13.51-.72,16.25.68.67,1.64,1.08,2.85,1.2,3.85.4,10.06-2.09,14.87-4.41,5.2,3.56,13.81,9.04,18.05,9.49.59.06,1.09.03,1.54-.09,4.55-1.26,3.96-11.51,2.56-20.22,5.5-4.46,10.24-10.57,8.87-14.65ZM1197.42,171.13c2.32,13.84.45,17.62-.39,17.85-.02,0-.16.04-.48,0-2.7-.28-9.37-3.91-17.41-9.47-.2-.14-.43-.22-.66-.24-.26-.03-.53.02-.78.14-6.34,3.13-11.47,4.77-14.06,4.5-.54-.06-.94-.2-1.15-.4-.84-.83-1.43-4.76,1.72-14.23.18-.55.01-1.15-.43-1.53-7.8-6.63-9.14-12.47-8.7-14.87.24-1.3,2.75-3.35,16.92-2.48.52.03,1.02-.23,1.3-.67,4.64-7.54,9.15-11.86,12.21-11.54,0,0,0,0,0,0,1.54.26,4.42,4.12,7.47,14.18.15.49.73.9,1.24,1.01,5.49,1.2,11.71,2.57,12.31,4.36.68,2.04-2.4,7.22-8.58,12.04-.41.32-.61.84-.53,1.35Z"/><path class="cls-1" d="M1198.34,178.23c-3.86-.45-7.67-1.19-11.34-2.48-4.79-1.68-9.2-4.25-13.59-6.8-2.07-1.2-4.15-2.42-5.92-4.02-2.02-1.83-3.58-4.11-5.09-6.38-1.63-2.45-3.25-4.96-4.42-7.65-2.14.56-2.79,1.35-2.9,1.97-.44,2.4.9,8.24,8.7,14.87.44.37.61.98.43,1.53-3.14,9.47-2.56,13.4-1.72,14.23.21.21.61.34,1.15.4,2.59.27,7.72-1.37,14.06-4.5.25-.12.51-.17.78-.14.23.02.46.11.66.24,8.05,5.56,14.72,9.19,17.41,9.47.32.03.46,0,.48,0,.67-.18,1.99-2.66,1.31-10.74Z"/><path class="cls-1" d="M1187.87,172.68c-3.38-2.5-7.12-4.44-10.51-6.95-.5-.37-1.22.34-.77.81,3.02,3.13,6.35,6.09,10.51,7.53.85.29,1.51-.84.76-1.39Z"/><path class="cls-1" d="M1194.24,175.55c-.67-.29-1.39-.67-1.98-1.1-.77-.56-1.87.52-1.17,1.23.88.9,1.77,1.3,3.03,1.03.59-.12.68-.92.12-1.16Z"/><path class="cls-1" d="M1166.41,157.37c-.69-1.51-1.2-3.36-2.33-4.61-.36-.4-1.24-.29-1.23.36.02,1.89,1.25,3.57,2.41,4.96.49.59,1.48,0,1.15-.71Z"/><path class="cls-4" d="M1187.75,558.4c-1.32-1.36-7.52.09-12.99,1.37-.5.12-1.21,0-1.55-.38-7.1-7.76-11.36-10.01-12.86-9.57,0,0,0,0,0,0-2.9,1.03-5.1,6.87-6.04,15.67-.06.52-.39.97-.88,1.17-13.16,5.32-14.55,8.26-14.2,9.53.64,2.36,4.36,7.05,14.26,9.67.56.15.97.62,1.04,1.2,1.24,9.9,3.47,13.19,4.59,13.58.28.1.7.05,1.21-.13,2.46-.87,6.38-4.56,10.75-10.12.17-.21.39-.37.64-.46.22-.08.46-.1.7-.06,9.66,1.55,17.24,1.94,19.79,1.04.3-.11.41-.2.43-.21.65-.57.71-4.78-7.35-16.27-.3-.43-.34-.98-.11-1.45,3.5-7.01,4.05-13.02,2.56-14.56Z"/><path class="cls-2" d="M1189.79,556.43c-2.35-2.43-7.61-1.3-15.05.43-6.88-7.41-11.98-10.69-15.17-9.77-5.05,1.44-7.13,10.04-7.99,17.26-11.66,4.8-16.18,8.58-15.09,12.59.96,3.55,5.56,8.59,15.35,11.41.87,6.33,2.67,13.7,6.35,14.97.91.31,1.94.27,3.09-.14,3.64-1.29,8.18-6.22,11.51-10.39,6.22.97,16.36,2.21,20.37.78.56-.2,1-.44,1.35-.75,3.57-3.1-1.39-12.09-6.41-19.35,3.04-6.39,4.68-13.95,1.69-17.05ZM1185.3,574.41c8.06,11.49,8,15.7,7.35,16.27-.02.02-.13.1-.43.21-2.55.91-10.14.51-19.79-1.04-.24-.04-.48-.01-.7.06-.25.09-.47.25-.64.46-4.37,5.56-8.29,9.25-10.75,10.12-.51.18-.93.23-1.21.13-1.12-.39-3.34-3.68-4.59-13.58-.07-.57-.49-1.05-1.04-1.2-9.9-2.62-13.62-7.31-14.26-9.67-.35-1.28,1.04-4.21,14.2-9.53.49-.2.82-.64.88-1.17.94-8.8,3.14-14.65,6.04-15.67,0,0,0,0,0,0,1.5-.43,5.76,1.82,12.86,9.57.35.38,1.05.5,1.55.38,5.47-1.28,11.67-2.73,12.99-1.37,1.5,1.55.95,7.55-2.56,14.56-.23.47-.19,1.02.11,1.45Z"/><path class="cls-1" d="M1189.2,580.43c-3.68,1.26-7.43,2.24-11.3,2.65-5.04.54-10.14.13-15.19-.28-2.38-.19-4.78-.39-7.07-1.07-2.62-.78-5-2.17-7.35-3.56-2.53-1.51-5.07-3.08-7.28-5-1.69,1.43-1.94,2.42-1.77,3.02.64,2.36,4.36,7.05,14.26,9.67.56.15.97.62,1.04,1.2,1.24,9.9,3.47,13.19,4.59,13.58.28.1.7.05,1.21-.13,2.46-.87,6.38-4.56,10.75-10.12.17-.21.39-.37.64-.46.22-.08.46-.1.7-.06,9.66,1.55,17.24,1.94,19.79,1.04.3-.11.41-.2.43-.21.52-.46.65-3.26-3.45-10.26Z"/><path class="cls-1" d="M1177.35,579.93c-4.13-.8-8.34-.93-12.48-1.74-.61-.12-.96.83-.35,1.06,4.08,1.52,8.36,2.76,12.73,2.26.89-.1,1-1.4.09-1.58Z"/><path class="cls-1" d="M1184.34,579.77c-.73.03-1.54,0-2.26-.14-.93-.17-1.47,1.28-.53,1.62,1.18.43,2.16.41,3.18-.38.48-.37.22-1.12-.39-1.1Z"/><path class="cls-1" d="M1151.39,575.37c-1.28-1.06-2.53-2.52-4.09-3.16-.5-.21-1.24.27-.95.86.83,1.69,2.67,2.68,4.31,3.43.7.32,1.33-.63.73-1.13Z"/><path class="cls-4" d="M1078.96,324.91c-1.01-1.26-6.4-.53-11.16.11-.43.06-1.02-.1-1.29-.45-5.41-7.17-8.85-9.43-10.16-9.19h0c-2.55.64-4.9,5.43-6.41,12.84-.09.44-.41.79-.84.92-11.63,3.46-13.04,5.84-12.85,6.96.35,2.06,3.14,6.35,11.34,9.38.46.17.78.61.79,1.1.25,8.52,1.88,11.5,2.8,11.92.23.1.59.1,1.04-.01,2.16-.54,5.8-3.36,9.97-7.74.16-.17.36-.28.58-.34.19-.05.4-.05.6,0,8.09,2.1,14.51,3.05,16.75,2.49.27-.07.37-.13.39-.15.6-.43.99-4.01-4.93-14.43-.22-.39-.21-.86.03-1.24,3.55-5.68,4.5-10.74,3.36-12.18Z"/><path class="cls-2" d="M1080.85,323.39c-1.8-2.26-6.37-1.72-12.84-.85-5.25-6.86-9.33-10.07-12.11-9.54-4.41.81-6.88,7.96-8.19,14.03-10.31,3.13-14.46,5.98-13.86,9.48.53,3.09,4.03,7.76,12.13,10.95.23,5.45,1.16,11.87,4.19,13.25.75.34,1.63.38,2.64.13,3.2-.8,7.46-4.63,10.64-7.9,5.21,1.33,13.73,3.2,17.26,2.32.49-.12.88-.29,1.2-.52,3.28-2.35-.2-10.39-3.88-16.98,3.1-5.19,5.11-11.48,2.82-14.36ZM1075.57,338.33c5.92,10.43,5.53,14,4.93,14.43-.02.01-.12.08-.39.15-2.25.56-8.66-.39-16.75-2.49-.2-.05-.41-.05-.6,0-.22.05-.42.17-.58.34-4.17,4.37-7.8,7.19-9.97,7.74-.45.11-.81.12-1.04.01-.92-.42-2.55-3.4-2.8-11.92-.01-.49-.33-.93-.79-1.1-8.2-3.03-10.99-7.32-11.34-9.38-.19-1.11,1.22-3.5,12.85-6.96.43-.13.75-.48.84-.92,1.51-7.41,3.86-12.2,6.41-12.84h0c1.31-.25,4.75,2.01,10.16,9.19.26.35.85.51,1.29.45,4.76-.64,10.15-1.37,11.16-.11,1.15,1.44.19,6.5-3.36,12.18-.24.38-.25.85-.03,1.24Z"/><path class="cls-1" d="M1078.4,343.76c-3.23.77-6.51,1.3-9.83,1.34-4.33.05-8.63-.71-12.9-1.47-2.01-.36-4.04-.72-5.93-1.49-2.16-.88-4.08-2.25-5.96-3.63-2.03-1.49-4.06-3.03-5.79-4.84-1.56,1.08-1.84,1.9-1.75,2.43.35,2.06,3.14,6.35,11.34,9.38.46.17.78.61.79,1.1.25,8.52,1.88,11.5,2.8,11.92.23.1.59.1,1.04-.01,2.16-.54,5.8-3.36,9.97-7.74.16-.17.36-.28.58-.34.19-.05.4-.05.6,0,8.09,2.1,14.51,3.05,16.75,2.49.27-.07.37-.13.39-.15.48-.34.82-2.72-2.1-9Z"/><path class="cls-1" d="M1068.37,342.37c-3.44-1.02-7.02-1.47-10.47-2.5-.51-.15-.88.63-.38.87,3.34,1.62,6.88,3.02,10.65,2.96.77-.01.96-1.11.21-1.34Z"/><path class="cls-1" d="M1074.32,342.8c-.62-.04-1.31-.13-1.91-.3-.78-.22-1.35.97-.58,1.33.97.46,1.8.52,2.74-.06.44-.27.28-.94-.24-.97Z"/><path class="cls-1" d="M1046.65,336.39c-1-1-1.95-2.35-3.22-3.02-.41-.22-1.08.13-.88.65.57,1.51,2.05,2.49,3.39,3.27.57.33,1.19-.43.71-.91Z"/><path class="cls-2" d="M1326.15,424.6c-1.8-2.26-6.37-1.72-12.84-.85-5.25-6.86-9.33-10.07-12.11-9.54-4.41.81-6.88,7.96-8.19,14.03-10.31,3.13-14.46,5.98-13.86,9.48.53,3.09,4.03,7.76,12.13,10.95.23,5.45,1.16,11.87,4.19,13.25.75.34,1.63.38,2.64.13,3.2-.8,7.46-4.63,10.64-7.9,5.21,1.33,13.73,3.2,17.26,2.32.49-.12.88-.29,1.2-.52,3.28-2.35-.2-10.39-3.88-16.98,3.1-5.19,5.11-11.48,2.82-14.36ZM1320.88,439.53c5.92,10.43,5.53,14,4.93,14.43-.02.01-.12.08-.39.15-2.25.56-8.66-.39-16.75-2.49-.2-.05-.41-.05-.6,0-.22.05-.42.17-.58.34-4.17,4.37-7.8,7.19-9.97,7.74-.45.11-.81.12-1.04.01-.92-.42-2.55-3.4-2.8-11.92-.01-.49-.33-.93-.79-1.1-8.2-3.03-10.99-7.32-11.34-9.38-.19-1.11,1.22-3.5,12.85-6.96.43-.13.75-.48.84-.92,1.51-7.41,3.86-12.2,6.41-12.84h0c1.31-.25,4.75,2.01,10.16,9.19.26.35.85.51,1.29.45,4.76-.64,10.15-1.37,11.16-.11,1.15,1.44.19,6.5-3.36,12.18-.24.38-.25.85-.03,1.24Z"/><path class="cls-4" d="M62.92,157.73c.6-1.79,6.82-3.16,12.31-4.36.5-.11,1.09-.52,1.24-1.01,3.06-10.06,5.94-13.93,7.47-14.18,0,0,0,0,0,0,3.06-.32,7.56,4,12.21,11.54.28.45.77.7,1.3.67,14.17-.87,16.69,1.18,16.92,2.48.44,2.4-.9,8.24-8.7,14.87-.44.37-.61.98-.43,1.53,3.14,9.47,2.56,13.4,1.72,14.23-.21.21-.61.34-1.15.4-2.59.27-7.72-1.37-14.06-4.5-.25-.12-.51-.17-.78-.14-.23.02-.46.11-.66.24-8.05,5.56-14.72,9.19-17.41,9.47-.32.03-.46,0-.48,0-.84-.23-2.7-4.01-.39-17.85.09-.51-.12-1.03-.53-1.35-6.18-4.81-9.27-10-8.58-12.04Z"/><path class="cls-2" d="M69.1,171.48c-1.39,8.72-1.99,18.96,2.56,20.22.45.12.95.15,1.54.09,4.24-.44,12.85-5.93,18.05-9.49,4.8,2.32,11.02,4.81,14.87,4.41,1.21-.13,2.16-.53,2.85-1.2,2.78-2.74,1.22-10.16-.72-16.25,7.62-6.76,9.59-13.3,8.93-16.92-.75-4.09-6.46-5.55-19.05-4.85-3.88-6.14-9.46-13.01-14.64-12.13-3.27.55-6.46,5.71-9.48,15.36-7.46,1.64-12.69,2.89-13.77,6.1-1.37,4.09,3.37,10.19,8.87,14.65ZM71.51,169.77c-6.18-4.81-9.27-10-8.58-12.04.6-1.79,6.82-3.16,12.31-4.36.5-.11,1.09-.52,1.24-1.01,3.06-10.06,5.94-13.93,7.47-14.18,0,0,0,0,0,0,3.06-.32,7.56,4,12.21,11.54.28.45.77.7,1.3.67,14.17-.87,16.69,1.18,16.92,2.48.44,2.4-.9,8.24-8.7,14.87-.44.37-.61.98-.43,1.53,3.14,9.47,2.56,13.4,1.72,14.23-.21.21-.61.34-1.15.4-2.59.27-7.72-1.37-14.06-4.5-.25-.12-.51-.17-.78-.14-.23.02-.46.11-.66.24-8.05,5.56-14.72,9.19-17.41,9.47-.32.03-.46,0-.48,0-.84-.23-2.7-4.01-.39-17.85.09-.51-.12-1.03-.53-1.35Z"/><path class="cls-1" d="M71.11,178.23c3.86-.45,7.67-1.19,11.34-2.48,4.79-1.68,9.2-4.25,13.59-6.8,2.07-1.2,4.15-2.42,5.92-4.02,2.02-1.83,3.58-4.11,5.09-6.38,1.63-2.45,3.25-4.96,4.42-7.65,2.14.56,2.79,1.35,2.9,1.97.44,2.4-.9,8.24-8.7,14.87-.44.37-.61.98-.43,1.53,3.14,9.47,2.56,13.4,1.72,14.23-.21.21-.61.34-1.15.4-2.59.27-7.72-1.37-14.06-4.5-.25-.12-.51-.17-.78-.14-.23.02-.46.11-.66.24-8.05,5.56-14.72,9.19-17.41,9.47-.32.03-.46,0-.48,0-.67-.18-1.99-2.66-1.31-10.74Z"/><path class="cls-1" d="M81.58,172.68c3.38-2.5,7.12-4.44,10.51-6.95.5-.37,1.22.34.77.81-3.02,3.13-6.35,6.09-10.51,7.53-.85.29-1.51-.84-.76-1.39Z"/><path class="cls-1" d="M75.21,175.55c.67-.29,1.39-.67,1.98-1.1.77-.56,1.87.52,1.17,1.23-.88.9-1.77,1.3-3.03,1.03-.59-.12-.68-.92-.12-1.16Z"/><path class="cls-1" d="M103.04,157.37c.7-1.51,1.2-3.36,2.33-4.61.36-.4,1.24-.29,1.23.36-.02,1.89-1.25,3.57-2.41,4.96-.49.59-1.48,0-1.15-.71Z"/><path class="cls-4" d="M81.7,558.4c1.32-1.36,7.52.09,12.99,1.37.5.12,1.2,0,1.55-.38,7.1-7.76,11.36-10.01,12.86-9.57,0,0,0,0,0,0,2.9,1.03,5.1,6.87,6.04,15.67.06.52.39.97.88,1.17,13.16,5.32,14.55,8.26,14.2,9.53-.64,2.36-4.36,7.05-14.26,9.67-.56.15-.97.62-1.04,1.2-1.24,9.9-3.47,13.19-4.59,13.58-.28.1-.7.05-1.21-.13-2.46-.87-6.38-4.56-10.75-10.12-.17-.21-.39-.37-.64-.46-.22-.08-.46-.1-.7-.06-9.66,1.55-17.24,1.94-19.79,1.04-.3-.11-.41-.2-.43-.21-.65-.57-.71-4.78,7.35-16.27.3-.43.34-.98.11-1.45-3.5-7.01-4.05-13.02-2.56-14.56Z"/><path class="cls-2" d="M81.35,573.47c-5.02,7.27-9.97,16.25-6.41,19.35.35.3.79.55,1.35.75,4.02,1.43,14.15.19,20.37-.78,3.33,4.16,7.87,9.09,11.51,10.39,1.14.41,2.18.45,3.09.14,3.68-1.27,5.48-8.64,6.35-14.97,9.79-2.82,14.39-7.87,15.35-11.41,1.09-4.01-3.43-7.79-15.09-12.59-.85-7.22-2.93-15.82-7.99-17.26-3.19-.92-8.29,2.37-15.17,9.77-7.44-1.74-12.7-2.86-15.05-.43-3,3.1-1.35,10.65,1.69,17.05ZM84.26,572.96c-3.5-7.01-4.05-13.02-2.56-14.56,1.32-1.36,7.52.09,12.99,1.37.5.12,1.2,0,1.55-.38,7.1-7.76,11.36-10.01,12.86-9.57h0c2.9,1.03,5.1,6.87,6.04,15.68.06.52.39.97.88,1.17,13.16,5.32,14.55,8.26,14.2,9.53-.64,2.36-4.36,7.05-14.26,9.67-.56.15-.97.62-1.04,1.2-1.24,9.9-3.47,13.19-4.59,13.58-.28.1-.7.05-1.21-.13-2.46-.87-6.38-4.56-10.75-10.12-.17-.21-.39-.37-.64-.46-.22-.08-.46-.1-.7-.06-9.66,1.55-17.24,1.94-19.79,1.04-.3-.11-.41-.2-.43-.21-.65-.57-.71-4.78,7.35-16.27.3-.43.34-.98.11-1.45Z"/><path class="cls-1" d="M80.26,580.43c3.68,1.26,7.43,2.24,11.3,2.65,5.04.54,10.14.13,15.19-.28,2.38-.19,4.78-.39,7.07-1.07,2.62-.78,5-2.17,7.35-3.56,2.53-1.51,5.07-3.08,7.28-5,1.69,1.43,1.94,2.42,1.77,3.02-.64,2.36-4.36,7.05-14.26,9.67-.56.15-.97.62-1.04,1.2-1.24,9.9-3.47,13.19-4.59,13.58-.28.1-.7.05-1.21-.13-2.46-.87-6.38-4.56-10.75-10.12-.17-.21-.39-.37-.64-.46-.22-.08-.46-.1-.7-.06-9.66,1.55-17.24,1.94-19.79,1.04-.3-.11-.41-.2-.43-.21-.52-.46-.65-3.26,3.45-10.26Z"/><path class="cls-1" d="M92.1,579.93c4.13-.8,8.34-.93,12.48-1.74.61-.12.96.83.35,1.06-4.08,1.52-8.36,2.76-12.73,2.26-.89-.1-1-1.4-.09-1.58Z"/><path class="cls-1" d="M85.11,579.77c.73.03,1.54,0,2.26-.14.93-.17,1.47,1.28.53,1.62-1.18.43-2.16.41-3.18-.38-.48-.37-.22-1.12.39-1.1Z"/><path class="cls-1" d="M118.06,575.37c1.28-1.06,2.53-2.52,4.09-3.16.5-.21,1.24.27.95.86-.83,1.69-2.67,2.68-4.31,3.43-.7.32-1.33-.63-.73-1.13Z"/><path class="cls-4" d="M963.57,671.93c-.15-1.89-5.87-4.71-10.91-7.19-.46-.23-.93-.77-.96-1.28-.56-10.5-2.42-14.94-3.85-15.56,0,0,0,0,0,0-2.89-1.05-8.3,2.07-14.62,8.27-.37.37-.92.5-1.42.34-13.55-4.25-16.48-2.86-17.02-1.65-1,2.23-1.1,8.21,4.88,16.52.34.47.36,1.1.05,1.59-5.32,8.44-5.7,12.4-5.08,13.41.15.25.51.48,1.02.67,2.45.89,7.82.53,14.73-.99.27-.06.54-.04.79.05.22.08.42.21.58.39,6.48,7.33,12.08,12.45,14.63,13.37.3.11.44.11.47.11.87-.02,3.58-3.24,4.66-17.23.04-.52.36-.98.84-1.19,7.16-3.19,11.4-7.48,11.22-9.63Z"/><path class="cls-2" d="M966.4,671.69c-.27-3.37-5.05-5.84-11.9-9.22-.61-10.09-2.47-15.87-5.52-17.19-4.82-2.1-11.89,3.23-17.13,8.26-12.05-3.7-17.95-3.65-19.65.14-1.51,3.35-1.16,10.17,4.61,18.56-3.35,5.44-6.64,12.27-4.6,15.6.5.82,1.33,1.44,2.47,1.85,3.64,1.31,10.27.39,15.49-.71,4.19,4.7,11.23,12.09,15.24,13.54.55.2,1.05.29,1.51.28,4.72-.13,6.6-10.22,7.34-19.02,6.41-3.01,12.48-7.8,12.13-12.1ZM951.51,682.74c-1.07,13.99-3.79,17.21-4.66,17.23-.02,0-.17,0-.47-.11-2.55-.92-8.16-6.04-14.63-13.37-.16-.18-.36-.32-.58-.39-.25-.09-.52-.11-.79-.05-6.91,1.52-12.28,1.88-14.73.99-.51-.19-.87-.42-1.02-.67-.62-1.01-.24-4.97,5.08-13.41.31-.49.29-1.12-.05-1.59-5.98-8.31-5.88-14.3-4.88-16.52.54-1.21,3.48-2.6,17.02,1.65.5.16,1.04.03,1.42-.34,6.32-6.21,11.73-9.32,14.62-8.27,0,0,0,0,0,0,1.43.62,3.3,5.06,3.85,15.56.03.51.5,1.05.96,1.28,5.04,2.49,10.75,5.3,10.91,7.19.17,2.14-4.07,6.44-11.22,9.63-.48.21-.8.67-.84,1.19Z"/><path class="cls-1" d="M950.7,689.86c-3.64-1.37-7.16-2.99-10.42-5.13-4.24-2.78-7.91-6.33-11.56-9.86-1.72-1.66-3.45-3.34-4.78-5.32-1.53-2.26-2.49-4.85-3.41-7.42-1-2.77-1.96-5.6-2.45-8.48-2.22.03-3.03.64-3.29,1.21-1,2.23-1.1,8.21,4.88,16.52.34.47.36,1.1.05,1.59-5.32,8.44-5.7,12.4-5.08,13.41.15.25.51.48,1.02.67,2.45.89,7.82.53,14.73-.99.27-.06.54-.04.79.05.22.08.42.21.58.39,6.48,7.33,12.08,12.45,14.63,13.37.3.11.44.11.47.11.69-.02,2.57-2.1,3.85-10.11Z"/><path class="cls-1" d="M941.87,681.95c-2.68-3.24-5.85-6.02-8.53-9.27-.4-.48-1.27.04-.94.6,2.18,3.76,4.7,7.44,8.4,9.83.75.49,1.66-.45,1.07-1.16Z"/><path class="cls-1" d="M947.37,686.27c-.58-.44-1.19-.99-1.66-1.54-.61-.72-1.94.06-1.43.91.64,1.08,1.41,1.68,2.7,1.73.6.02.88-.73.4-1.1Z"/><path class="cls-1" d="M924.7,661.95c-.31-1.63-.36-3.55-1.16-5.04-.25-.48-1.13-.58-1.28.06-.43,1.84.36,3.76,1.15,5.39.34.69,1.43.36,1.28-.41Z"/><path class="cls-4" d="M413.51,682.28c-1.05-1.3-6.6-.51-11.5.19-.45.06-1.06-.1-1.33-.46-5.62-7.36-9.19-9.66-10.53-9.4,0,0,0,0,0,0-2.62.68-5.01,5.63-6.52,13.28-.09.45-.42.82-.86.95-11.96,3.64-13.41,6.11-13.2,7.26.38,2.12,3.28,6.52,11.76,9.59.48.17.8.62.82,1.13.32,8.78,2.02,11.85,2.97,12.27.24.11.61.1,1.07-.02,2.22-.57,5.95-3.51,10.22-8.04.16-.18.37-.3.6-.35.2-.05.41-.05.62,0,8.35,2.11,14.97,3.05,17.29,2.45.27-.07.38-.14.4-.15.62-.45.99-4.14-5.18-14.85-.23-.4-.22-.89.02-1.28,3.62-5.88,4.57-11.11,3.38-12.58Z"/><path class="cls-2" d="M415.45,680.7c-1.87-2.31-6.58-1.73-13.24-.79-5.46-7.03-9.68-10.31-12.55-9.75-4.55.87-7.04,8.25-8.35,14.52-10.6,3.3-14.86,6.27-14.22,9.87.57,3.19,4.21,7.97,12.58,11.21.27,5.62,1.27,12.22,4.41,13.63.77.34,1.69.38,2.72.12,3.3-.85,7.66-4.82,10.91-8.22,5.39,1.33,14.18,3.21,17.81,2.27.5-.13.91-.31,1.24-.55,3.37-2.44-.28-10.71-4.11-17.48,3.16-5.37,5.19-11.87,2.8-14.82ZM410.12,696.13c6.17,10.71,5.8,14.4,5.18,14.85-.02.01-.12.08-.4.15-2.31.6-8.93-.34-17.29-2.45-.21-.05-.42-.05-.62,0-.22.06-.43.18-.6.35-4.27,4.54-8,7.47-10.22,8.04-.46.12-.84.13-1.07.02-.95-.43-2.65-3.49-2.97-12.27-.02-.51-.34-.96-.82-1.13-8.48-3.07-11.38-7.47-11.76-9.59-.21-1.15,1.24-3.61,13.2-7.26.44-.13.77-.5.86-.95,1.51-7.65,3.9-12.6,6.52-13.28h0c1.35-.26,4.91,2.04,10.54,9.4.27.36.88.52,1.33.46,4.9-.7,10.45-1.49,11.5-.19,1.19,1.47.24,6.7-3.38,12.58-.24.39-.25.88-.02,1.28Z"/><path class="cls-1" d="M413.07,701.71c-3.33.82-6.7,1.38-10.12,1.45-4.47.08-8.9-.67-13.31-1.43-2.07-.36-4.17-.72-6.12-1.49-2.23-.89-4.22-2.29-6.17-3.7-2.1-1.52-4.21-3.09-6-4.95-1.6,1.13-1.89,1.97-1.79,2.52.38,2.12,3.28,6.52,11.76,9.59.48.17.8.62.82,1.13.32,8.78,2.02,11.85,2.97,12.27.24.11.61.1,1.07-.02,2.22-.57,5.95-3.51,10.22-8.04.16-.18.37-.3.6-.35.2-.05.41-.05.62,0,8.35,2.11,14.97,3.05,17.29,2.45.27-.07.38-.14.4-.15.49-.36.83-2.81-2.23-9.27Z"/><path class="cls-1" d="M402.72,700.35c-3.56-1.02-7.25-1.47-10.81-2.5-.53-.15-.9.66-.39.9,3.46,1.65,7.12,3.07,10.99,2.98.79-.02.98-1.15.2-1.38Z"/><path class="cls-1" d="M408.86,700.76c-.64-.03-1.35-.13-1.97-.3-.81-.22-1.38,1.01-.59,1.38,1,.47,1.86.52,2.82-.08.45-.28.28-.97-.26-1Z"/><path class="cls-1" d="M380.29,694.34c-1.04-1.03-2.03-2.4-3.34-3.09-.42-.22-1.11.14-.9.68.6,1.55,2.13,2.56,3.52,3.35.59.34,1.22-.45.73-.94Z"/><path class="cls-4" d="M278.6,455.41c-.85-1.69-7.2-2.17-12.8-2.59-.51-.04-1.15-.36-1.37-.83-4.44-9.53-7.84-12.95-9.39-12.99h0c-3.07.11-6.93,5.02-10.46,13.14-.21.48-.67.81-1.19.85-14.15,1.13-16.35,3.52-16.41,4.84-.1,2.44,2.05,8.03,10.71,13.5.49.31.74.88.64,1.45-1.78,9.82-.65,13.63.3,14.33.24.17.65.26,1.19.24,2.61-.1,7.45-2.44,13.29-6.43.23-.15.49-.24.75-.25.23,0,.47.04.69.15,8.75,4.37,15.86,7.02,18.57,6.93.32-.01.45-.06.48-.07.79-.35,2.11-4.35-2.13-17.72-.16-.5-.03-1.04.33-1.41,5.44-5.64,7.77-11.2,6.81-13.13Z"/><path class="cls-2" d="M281.14,454.13c-1.51-3.02-6.87-3.52-14.49-4.1-4.34-9.13-8.23-13.79-11.54-13.87-5.25-.14-9.82,7.44-12.79,14.07-12.56,1.08-18.01,3.33-18.17,7.49-.14,3.67,2.73,9.87,11.22,15.49-1.07,6.3-1.56,13.87,1.57,16.19.77.57,1.77.84,2.99.79,3.86-.14,9.67-3.49,14.1-6.46,5.65,2.79,14.94,7.01,19.2,6.85.59-.02,1.08-.12,1.51-.31,4.33-1.89,2.3-11.95-.31-20.38,4.82-5.19,8.65-11.9,6.72-15.76ZM271.47,469.95c4.24,13.38,2.92,17.38,2.13,17.72-.02.01-.15.06-.48.07-2.71.1-9.82-2.55-18.57-6.93-.22-.11-.45-.16-.69-.15-.26,0-.52.09-.75.25-5.84,3.99-10.69,6.34-13.29,6.43-.54.02-.96-.06-1.19-.24-.95-.7-2.09-4.52-.3-14.33.1-.57-.15-1.14-.64-1.45-8.65-5.47-10.8-11.06-10.71-13.5.05-1.32,2.25-3.71,16.41-4.84.52-.04.98-.37,1.19-.85,3.54-8.12,7.39-13.03,10.46-13.14h0c1.56.04,4.95,3.46,9.4,12.99.22.47.85.79,1.37.83,5.6.42,11.96.9,12.8,2.59.96,1.92-1.36,7.49-6.81,13.13-.36.37-.49.92-.33,1.41Z"/><path class="cls-1" d="M273.38,476.85c-3.89.09-7.76-.1-11.58-.86-4.97-.99-9.71-2.91-14.41-4.82-2.21-.9-4.45-1.81-6.43-3.15-2.26-1.53-4.12-3.57-5.94-5.6-1.96-2.19-3.91-4.46-5.45-6.95-2.04.86-2.57,1.73-2.6,2.35-.1,2.44,2.05,8.03,10.71,13.5.49.31.74.88.64,1.45-1.78,9.82-.65,13.63.3,14.33.24.17.65.26,1.19.24,2.61-.1,7.45-2.44,13.29-6.43.23-.15.49-.24.75-.25.23,0,.47.04.69.15,8.75,4.37,15.86,7.02,18.57,6.93.32-.01.45-.06.48-.07.64-.28,1.6-2.91-.22-10.82Z"/><path class="cls-1" d="M262.23,472.83c-3.7-2-7.68-3.39-11.38-5.4-.55-.3-1.16.51-.65.91,3.43,2.67,7.14,5.14,11.47,5.98.88.17,1.37-1.04.56-1.48Z"/><path class="cls-1" d="M268.94,474.77c-.7-.19-1.47-.47-2.12-.81-.84-.44-1.78.78-.99,1.38,1,.76,1.94,1.03,3.15.6.57-.21.54-1.01-.04-1.17Z"/><path class="cls-1" d="M238.83,460.7c-.9-1.39-1.66-3.16-2.96-4.24-.41-.35-1.27-.11-1.17.53.29,1.86,1.74,3.35,3.09,4.57.57.52,1.46-.21,1.04-.86Z"/><path class="cls-4" d="M261.36,188.82c-1.15-1.06-6.21.43-10.67,1.75-.41.12-1,.06-1.3-.24-6.23-6.07-9.86-7.73-11.08-7.3,0,0,0,0,0,0-2.35.99-3.89,5.92-4.24,13.24-.02.43-.28.82-.67,1-10.62,5.02-11.63,7.52-11.28,8.55.64,1.92,3.94,5.61,12.24,7.31.47.1.83.47.92.94,1.5,8.12,3.49,10.74,4.44,11,.23.07.58,0,.99-.17,1.99-.84,5.05-4.07,8.4-8.88.13-.19.31-.33.51-.41.18-.08.38-.11.57-.09,8.05.82,14.34.79,16.41-.09.25-.1.33-.18.35-.2.51-.5.36-3.98-6.85-13.09-.27-.34-.33-.8-.16-1.19,2.56-5.96,2.73-10.95,1.42-12.16Z"/><path class="cls-2" d="M262.95,187.09c-2.06-1.9-6.35-.71-12.42,1.08-6.04-5.79-10.41-8.26-13-7.35-4.11,1.43-5.42,8.64-5.78,14.64-9.41,4.52-12.96,7.86-11.87,11.12.97,2.88,5.01,6.84,13.23,8.7,1.02,5.19,2.86,11.19,5.96,12.07.76.22,1.62.13,2.54-.26,2.95-1.24,6.46-5.53,9.02-9.13,5.19.5,13.62,1.04,16.87-.33.45-.19.8-.41,1.08-.68,2.8-2.73-1.72-9.92-6.22-15.69,2.21-5.43,3.2-11.75.58-14.16ZM260.09,202.17c7.2,9.11,7.36,12.59,6.85,13.09-.01.01-.1.09-.35.2-2.07.87-8.35.9-16.41.09-.2-.02-.4.01-.57.09-.2.08-.38.22-.51.41-3.35,4.8-6.41,8.04-8.4,8.88-.42.18-.76.23-.99.17-.94-.27-2.94-2.88-4.44-11-.09-.47-.45-.84-.92-.94-8.3-1.7-11.6-5.39-12.24-7.31-.35-1.04.66-3.53,11.28-8.55.39-.19.65-.57.67-1,.36-7.32,1.9-12.25,4.24-13.24,0,0,0,0,0,0,1.22-.43,4.85,1.23,11.08,7.3.3.3.89.36,1.3.24,4.46-1.32,9.52-2.81,10.67-1.75,1.31,1.21,1.14,6.2-1.42,12.16-.17.4-.11.85.16,1.19Z"/><path class="cls-1" d="M263.6,206.95c-2.98,1.21-6.04,2.2-9.21,2.73-4.14.69-8.37.59-12.57.49-1.98-.05-3.97-.1-5.9-.55-2.2-.52-4.24-1.55-6.24-2.6-2.16-1.12-4.34-2.3-6.25-3.78-1.33,1.26-1.48,2.09-1.32,2.58.64,1.92,3.94,5.61,12.24,7.31.47.1.83.47.92.94,1.5,8.12,3.49,10.74,4.44,11,.23.07.58,0,.99-.17,1.99-.84,5.05-4.07,8.4-8.88.13-.19.31-.33.51-.41.18-.08.38-.11.57-.09,8.05.82,14.34.79,16.41-.09.25-.1.33-.18.35-.2.41-.4.38-2.72-3.34-8.31Z"/><path class="cls-1" d="M253.79,207.1c-3.45-.47-6.94-.37-10.39-.85-.51-.07-.75.73-.24.89,3.44,1.06,7.04,1.88,10.63,1.26.73-.13.76-1.21,0-1.31Z"/><path class="cls-1" d="M259.56,206.64c-.6.06-1.28.07-1.88,0-.78-.1-1.15,1.12-.36,1.36,1,.3,1.8.23,2.61-.46.38-.33.13-.94-.38-.89Z"/><path class="cls-1" d="M232.12,204.58c-1.1-.81-2.21-1.96-3.53-2.41-.42-.15-1.01.28-.75.76.77,1.36,2.33,2.08,3.73,2.63.59.23,1.07-.59.55-.97Z"/><path class="cls-3" d="M211.28,28.92c-3.61,0-3.61,5.6,0,5.6s3.61-5.6,0-5.6Z"/><path class="cls-3" d="M405.94,37.12c-.34-.84-.59-1.77-1.43-2.26-1.37-.8-3.16-.99-4.55-.17-2.64,1.55-2.64,5.49,0,7.04,1.26.74,2.86.74,4.11,0,1.44-.84,2.55-2.94,1.87-4.6Z"/><path class="cls-3" d="M977.48,134.64c-1.3,1.25-1.3,3.11,0,4.35,1.92,2.64,6.5,1.28,6.5-2.18s-4.58-4.82-6.5-2.18Z"/><path class="cls-3" d="M1072.82,132.09c-2.75,0-2.75,4.26,0,4.26s2.75-4.26,0-4.26Z"/><path class="cls-3" d="M1193.56,335.33c-2.75,0-2.75,4.26,0,4.26s2.75-4.26,0-4.26Z"/><path class="cls-3" d="M1028.7,278.21c-5.06,0-5.06,7.85,0,7.85s5.06-7.85,0-7.85Z"/><path class="cls-3" d="M1093.37,410.79c-.23-.2-.46-.4-.7-.6-1.54-1.33-4.1-.51-4.1,1.7s2.56,3.03,4.1,1.7c.23-.2.46-.4.7-.6.61-.53.61-1.67,0-2.19Z"/><path class="cls-3" d="M965.79,534.04c-.73-.26-.9-.33-1.48-.64-2.33-1.25-5.31.3-5.31,3.05s2.98,4.3,5.31,3.05c.57-.31.75-.38,1.48-.64,2.37-.83,2.37-3.98,0-4.81Z"/><path class="cls-3" d="M1054.97,683.98c-.34.16-.68.32-1.02.47-.92.42-.92,1.99,0,2.42.34.16.68.32,1.02.47,1.3.6,2.93-.1,2.93-1.68s-1.63-2.28-2.93-1.68Z"/><path class="cls-3" d="M773.12,683.04c-1.35-1.35-3.86-.39-3.82,1.58-.03-.2-.1-.13-.22.21-.9,1.36.89,3.15,2.25,2.25.34-.12.41-.19.21-.22,1.97.05,2.93-2.46,1.58-3.82Z"/><path class="cls-3" d="M410.82,626.63c-.51-2.41-4.23-2.17-4.72-.06-1.2.04-2.21,1.57-1.52,2.73.48.8,1.19,1.24,2.03,1.43,1.07.58,2.12.32,3.03-.4,1.13-.9,1.47-2.33,1.18-3.7Z"/><path class="cls-3" d="M223.29,676.7c-.32-.68-.63-1.36-.95-2.04-1.15-2.49-5.41-2.49-6.56,0-.32.68-.63,1.36-.95,2.04-.75,1.63-.95,3.32,0,4.94.87,1.49,2.5,2.42,4.23,2.42s3.36-.94,4.23-2.42c.95-1.62.75-3.31,0-4.94Z"/><path class="cls-3" d="M316.17,510.83c-.21-1.08-.78-2.08-1.83-2.57-1.55-.72-2.67,1.25-1.32,2.26.06.05.1.14.13.23-.04.04-.08.09-.12.13.27-.21.16-.12-.32.25-.15.14-.28.3-.43.45-.69.66-.81,1.77-.33,2.58.64,1.08,1.85,1.23,2.91.76,1.2-.53,1.7-1.73,1.69-2.98,0-.38-.14-.78-.37-1.11Z"/><path class="cls-3" d="M216.41,370.72c-.48-1.02-.96-2.03-1.44-3.05-.86-1.81-3.92-1.81-4.78,0-.48,1.02-.96,2.03-1.44,3.05-.7,1.47-.86,3.02,0,4.48.79,1.35,2.27,2.2,3.83,2.2s3.04-.85,3.83-2.2c.86-1.46.7-3.01,0-4.48Z"/><path class="cls-3" d="M307.75,240.13c-.41-1.75-3.11-1.75-3.52,0-.24,1.02-.19,1.7.32,2.63.59,1.09,2.3,1.09,2.89,0,.51-.93.56-1.6.32-2.63Z"/><path class="cls-3" d="M534.04,667.65c-.77.26-1.46.56-2.28.46-1.54-.18-2.4,1.8-1.71,2.97.75,1.27,2.67,1.29,3.41,0,.33-.58.95-.9,1.49-1.27,1.05-.73.43-2.62-.91-2.17Z"/><path class="cls-3" d="M1094.87,33.02c-5.8,0-5.8,9,0,9s5.8-9,0-9Z"/><path class="cls-3" d="M1283.09,235.51c-5.8,0-5.8,9,0,9s5.8-9,0-9Z"/><path class="cls-3" d="M1240.27,476.84c-5.8,0-5.8,9,0,9s5.8-9,0-9Z"/><path class="cls-3" d="M1172.8,692.23c-5.8,0-5.8,9,0,9s5.8-9,0-9Z"/><path class="cls-3" d="M177.54,145.27c-4.16,0-4.16,6.45,0,6.45s4.16-6.45,0-6.45Z"/><path class="cls-3" d="M184.51,536.72l-1.98,1.05c-1.94,1.03-1.94,4.12,0,5.15l1.98,1.05c2.78,1.47,6.31-.34,6.31-3.62s-3.54-5.1-6.31-3.62Z"/><path class="cls-3" d="M684.98,678.34c-.15-.26-.33-.48-.56-.67-.89-.72-2.33-.86-3.1.08-.99.69-.99,2.16,0,2.84.77.95,2.21.8,3.1.08.24-.19.41-.41.56-.67.3-.5.3-1.16,0-1.66Z"/><circle class="cls-3" cx="1077.36" cy="536.45" r="3.5"/><path class="cls-3" d="M302.1,604.93c-2.04,0-2.04,3.16,0,3.16s2.04-3.16,0-3.16Z"/><path class="cls-3" d="M922.31,48.06c-2.35,0-2.35,3.65,0,3.65s2.35-3.65,0-3.65Z"/><path class="cls-3" d="M308.15,77.57c-.49-.47-1.24-.47-1.72,0-.78.75-.62,1.55-.28,2.47.41,1.13,1.88,1.13,2.29,0,.33-.92.5-1.72-.28-2.47Z"/><path class="cls-3" d="M1280.49,84.92c-.5-.81-.95-1.5-1.75-2.04-1.45-.98-3.39.96-2.41,2.41.54.8,1.23,1.24,2.04,1.75,1.31.82,2.94-.81,2.12-2.12Z"/><path class="cls-3" d="M76.42,335.33c2.75,0,2.75,4.26,0,4.26s-2.75-4.26,0-4.26Z"/><path class="cls-3" d="M29.71,476.84c5.8,0,5.8,9,0,9s-5.8-9,0-9Z"/><path class="cls-3" d="M97.18,692.23c5.8,0,5.8,9,0,9s-5.8-9,0-9Z"/><path class="cls-5" d="M369.43,89.95c-15.72,16.73-31.28,33.61-46.86,50.46-.37.4.22.99.59.59,15.63-16.81,31.3-33.59,46.8-50.52.32-.35-.2-.88-.53-.53Z"/><path class="cls-5" d="M9.37-5.41C-6.35,11.31-21.91,28.2-37.49,45.05c-.37.4.22.99.59.59C-21.27,28.83-5.6,12.05,9.9-4.88c.32-.35-.2-.88-.53-.53Z"/><path class="cls-5" d="M41.48,96.77c-15.72,16.73-31.28,33.61-46.86,50.46-.37.4.22.99.59.59,15.63-16.81,31.3-33.59,46.8-50.52.32-.35-.2-.88-.53-.53Z"/><path class="cls-5" d="M304.86,5.96c-29.39,27.68-58.39,55.77-87.51,83.74-.41.39.21,1.02.62.62,29.2-27.88,58.52-55.64,87.45-83.8.37-.36-.19-.91-.56-.56Z"/><path class="cls-5" d="M103.74-11.27C82.91,5.86,63.43,24.51,45.3,44.48c-.27.3.17.74.44.44C63.86,24.96,83.36,6.32,104.02-10.99c.2-.16-.08-.44-.28-.28Z"/><path class="cls-5" d="M55.21,377.77c-10.9,9.42-21.73,18.92-32.52,28.47-.54.48.25,1.27.8.8,10.79-9.53,21.54-19.11,32.22-28.77.34-.3-.16-.79-.49-.49Z"/><path class="cls-5" d="M911.82-17.79c-23.04,15.85-45.87,31.98-68.66,48.17-.36.26-.02.86.35.6,23.01-15.88,45.97-31.82,68.73-48.05.43-.31.03-1.03-.42-.72Z"/><path class="cls-5" d="M113.17,469.37c-28.71,18.78-57.21,37.89-85.64,57.09-.25.17-.02.57.24.41,28.69-18.81,57.32-37.71,85.73-56.93.35-.23.03-.8-.33-.56Z"/><path class="cls-5" d="M1288.05,28.87c-28.71,18.78-57.21,37.89-85.64,57.09-.25.17-.02.57.24.41,28.69-18.81,57.32-37.71,85.73-56.93.35-.23.03-.8-.33-.56Z"/><path class="cls-5" d="M1247.83,223.49c-28.71,18.78-57.21,37.89-85.64,57.09-.25.17-.02.57.24.41,28.69-18.81,57.32-37.71,85.73-56.93.35-.23.03-.8-.33-.56Z"/><path class="cls-5" d="M1033.65,141.64c-13.02,9.45-26.02,18.92-38.93,28.53-.3.22-.01.74.3.51,13.03-9.44,25.97-19,38.89-28.59.26-.2.01-.64-.26-.45Z"/><path class="cls-5" d="M1176.38,40.43c-13.02,9.45-26.02,18.92-38.93,28.53-.3.22-.01.74.3.51,13.03-9.44,25.97-19,38.89-28.59.26-.2.01-.64-.26-.45Z"/><path class="cls-5" d="M248.46,271.06c-26.03,18.06-51.73,36.61-77.46,55.09-.18.13,0,.43.18.3,25.99-18.09,52.03-36.12,77.73-54.63.46-.33.03-1.09-.45-.76Z"/><path class="cls-5" d="M165.74,234.08c-26.03,18.06-51.73,36.61-77.46,55.09-.18.13,0,.43.18.3,25.99-18.09,52.03-36.12,77.73-54.63.46-.33.03-1.09-.45-.76Z"/><path class="cls-5" d="M270.78,289.6c-10.1,7.14-19.95,14.65-29.86,22.04-.36.27-.01.87.35.6,10.01-7.26,20.12-14.41,29.94-21.91.43-.33.03-1.06-.43-.74Z"/><path class="cls-5" d="M311.53,533.02c-36.27,24.55-72.01,49.89-107.82,75.11-.04.03,0,.09.04.07,36.15-24.69,72.4-49.29,108.08-74.65.32-.22.02-.75-.31-.53Z"/><path class="cls-5" d="M354.09,602.77c-13.07,7.6-26.26,15.06-39.06,23.13-.1.06-.01.21.09.16,13.26-7.28,26.18-15.2,39.16-22.95.22-.13.02-.47-.2-.34Z"/><path class="cls-5" d="M58.05,234.06c-38.43,36.04-77.97,70.79-118.01,105.02-.29.25.13.66.42.42,40.6-33.53,79.77-68.83,118.01-105.02.28-.26-.14-.68-.42-.42Z"/><path class="cls-5" d="M900.11,621.41c-1.25.09-2.51.19-3.76.28-.49.04-.5.79,0,.78,4.09-.12.4,1.23-1.12,2.35-2.57,1.88-5.13,3.78-7.67,5.69-5.09,3.83-10.18,7.67-15.26,11.52-10.16,7.7-20.28,15.44-30.38,23.23-19.7,15.18-39.3,30.48-58.68,46.07-.08.07.03.18.12.12,38.8-30.03,78.38-59.09,117.08-89.23.32-.25.05-.83-.33-.8Z"/><path class="cls-5" d="M464.15,650.39c-7.35,4.7-14.92,9.29-21.86,14.58-.08.06-.01.18.08.13,7.61-4.26,14.82-9.39,22.05-14.27.27-.18.02-.63-.26-.45Z"/><path class="cls-5" d="M49.6,652.34c-7.35,4.7-14.92,9.29-21.86,14.58-.08.06-.01.18.08.13,7.61-4.26,14.82-9.39,22.05-14.27.27-.18.02-.63-.26-.45Z"/><path class="cls-5" d="M1036.01,572.08c-15.13,11.25-30.1,22.71-45.08,34.16-.39.3,0,.97.39.67,15.08-11.37,30.17-22.73,45.09-34.31.3-.23-.1-.75-.41-.53Z"/><path class="cls-5" d="M1137.49,542.6c-10.07,7.18-20.02,14.53-30.01,21.83-.29.21-.01.7.28.49,10.03-7.24,20.09-14.43,30.04-21.79.31-.23.01-.75-.31-.53Z"/><path class="cls-5" d="M1289.29,708.68c-10.07,7.18-20.02,14.53-30.01,21.83-.29.21-.01.7.28.49,10.03-7.24,20.09-14.43,30.04-21.79.31-.23.01-.75-.31-.53Z"/><path class="cls-5" d="M1047.55,409.92c-20.02,16.49-40.65,32.14-61.66,47.35-.33.24-.02.78.32.55,21.52-14.54,42.14-30.49,61.91-47.33.4-.34-.17-.9-.57-.57Z"/><path class="cls-5" d="M1329.11,315.2c-20.02,16.49-40.65,32.14-61.66,47.35-.33.24-.02.78.32.55,21.52-14.54,42.14-30.49,61.91-47.33.4-.34-.17-.9-.57-.57Z"/><path class="cls-5" d="M1199.36,417.7c-20.02,16.49-40.65,32.14-61.66,47.35-.33.24-.02.78.32.55,21.52-14.54,42.14-30.49,61.91-47.33.4-.34-.17-.9-.57-.57Z"/><path class="cls-5" d="M1268.13,572.1c-20.02,16.49-40.65,32.14-61.66,47.35-.33.24-.02.78.32.55,21.52-14.54,42.14-30.49,61.91-47.33.4-.34-.17-.9-.57-.57Z"/><path class="cls-5" d="M1094.82,244.39c-7.48,5.01-14.8,10.23-22.16,15.41-.4.28-.02.94.38.66,7.4-5.13,14.82-10.22,22.09-15.53.32-.23.02-.77-.31-.54Z"/><path class="cls-5" d="M1144.12,292.4c-7.48,5.01-14.8,10.23-22.16,15.41-.4.28-.02.94.38.66,7.4-5.13,14.82-10.22,22.09-15.53.32-.23.02-.77-.31-.54Z"/><path class="cls-5" d="M1020.62,226.05c-8.46,6.94-17.47,13.03-27.16,18.1-.49.25-.06.99.43.74,9.79-5.06,18.94-11.09,27.31-18.26.41-.35-.18-.91-.58-.58Z"/><path class="cls-5" d="M972.85,79.6c-7.37,5.16-14.71,10.37-21.98,15.67-.3.22-.02.71.29.5,7.38-5.15,14.69-10.4,21.97-15.69.29-.21.02-.7-.28-.49Z"/><path class="cls-5" d="M211.08,415.45c-11.78,8.06-23.57,16.12-35.2,24.4-.4.29-.03.95.39.67,11.82-8.01,23.49-16.25,35.16-24.48.36-.25.02-.84-.35-.59Z"/></svg>