<?xml version="1.0" encoding="UTF-8"?>
<svg id="_레이어_1" data-name="레이어 1" xmlns="http://www.w3.org/2000/svg" viewBox="0 0 563.39 121.64">
  <defs>
    <style>
      .cls-1 {
        fill: #e94e72;
      }

      .cls-1, .cls-2 {
        stroke-width: 0px;
      }

      .cls-2 {
        fill: #fff;
      }
    </style>
  </defs>
  <g>
    <path class="cls-1" d="M23.69,113.88h-.37c-.89-.08-1.89-.12-2.97-.12-2.02,0-3.93-.54-5.55-1.57-.41-.22-.83-.5-1.24-.88-1.6-1.35-2.67-3.19-3.19-5.47-.35-1.54-.53-2.9-.54-4.12-.08-1.35-.17-2.71-.28-4.06-.13-1.57-.2-3.12-.2-4.62v-6.12c0-2.33.23-4.68.7-6.98.37-1.96,1.07-3.67,2.08-5.04.86-1.17,2.01-2.14,3.44-2.9-.68-.03-1.47-.13-2.44-.33l-.28-.07c-3.63-.95-5.4-3.04-6.26-4.63-.98-1.79-1.34-3.91-1.02-6.08.24-1.7.75-3.27,1.52-4.68l.07-.12c.7-1.21,1.5-2.34,2.37-3.36.66-.77,1.34-1.59,2.04-2.45l.15-.17c1.98-2.21,3.95-4.57,5.84-6.99,1.55-2,3.23-3.98,5-5.91-.17,0-.34,0-.52,0-.74,0-1.63.04-2.65.11-.49.04-.98.05-1.47.05-.98,0-1.96-.07-2.92-.22-1.71-.25-3.32-.81-4.75-1.66-1.81-1.07-3.19-2.72-4.09-4.91-.62-1.39-.99-2.94-1.11-4.62-.12-1.6,0-3.16.36-4.61.59-2.65,2.27-4.7,4.71-5.78,1.36-.6,2.68-1.01,3.94-1.24,1.06-.21,2.08-.32,3.06-.32.49,0,.99.04,1.49.12h5.5c.18-.66.38-1.3.62-1.94,1.11-3.04,3.37-5.25,6.53-6.4,1.48-.52,2.92-.78,4.3-.78.75,0,1.49.07,2.2.22,1.96.41,3.71,1.23,5.21,2.47,1.42,1.16,2.59,2.64,3.47,4.39.33.67.62,1.35.85,2.04h2.84c3.18,0,5.72.21,7.77.65,2.9.62,5.41,2.34,7.25,4.96l.07.11c.69,1.05,1.17,2.29,1.46,3.8.26,1.39.3,2.79.1,4.17-.18,1.28-.53,2.51-1.04,3.65-.72,1.61-1.73,2.85-3.01,3.7l-1.01.52c-.65.24-1.36.51-2.12.79-1.22.45-2.43.69-3.59.72-.71.06-1.39.08-2.02.08-.37,0-.73,0-1.07-.03-.67-.03-1.45-.05-2.31-.05-.37,0-.71,0-1.03,0,.17.23.33.48.51.74.46.69.89,1.24,1.29,1.64.68.68,1.39,1.41,2.14,2.2.72.76,1.48,1.58,2.27,2.45.64.65,1.18,1.24,1.66,1.81.31.37.61.7.89.98l.28.31c1.39,1.64,2.81,3.39,4.22,5.21,1.76,2.28,2.98,4.64,3.63,7.03l.08.33c.28,1.42.29,2.9.02,4.4-.36,1.98-1.37,3.75-2.92,5.12l-.34.26h14.13c-.09-.13-.18-.26-.27-.39-.66-.99-1.2-2-1.61-2.97-.43-1.04-.75-2.26-.98-3.72l-.06-.76V22.6c-.09-.84-.04-1.88.15-3.55.22-2.02.71-3.79,1.46-5.28.85-1.8,3.17-5.03,8.69-5.61.78-.1,1.54-.15,2.27-.15,4.47,0,7.16,1.94,8.63,3.57l.29.35c.8,1.06,1.39,2.16,1.76,3.27.23.7.44,1.41.62,2.13.33,1.15.53,2.36.59,3.6.05,1.03.03,2.07-.05,3.09v7.1c.96.04,1.88.11,2.76.19,1.08.1,1.85.2,2.44.31,2.57.51,4.46,1.38,5.81,2.63,1.36,1.28,2.28,2.92,2.66,4.75.32,1.26.49,2.66.49,4.18,0,2.08-.48,3.93-1.43,5.51-1.75,2.93-4.63,4.74-8.09,5.1-1.44.15-2.99.27-4.63.35v6.01l-.02.45c-.09,1.01-.23,2.06-.41,3.11-.25,1.44-.74,2.83-1.46,4.16-.8,1.56-1.91,2.9-3.32,3.97,2.64,1.22,4.52,3.25,5.46,5.91.65,1.85,1.08,3.79,1.28,5.78l.02.22c.08,1.43.14,3.08.19,4.91.04,1.9.02,3.85-.06,5.79-.08,1.9-.21,3.81-.37,5.69-.19,2.1-.52,4.04-1,5.76-.31,1.13-.69,2.19-1.13,3.13-.64,1.35-1.98,3.14-4.8,4.1-1.27.45-2.58.74-3.91.86-1.09.09-2.14.14-3.14.14l-62.54-.24ZM27.77,66.76c-1.14,1.21-2.33,2.2-3.58,2.96.44-.03.88-.04,1.32-.04h23.24c-1.26-.71-2.33-1.42-3.24-2.17l-.14-.12c-1.5-1.32-2.89-2.69-4.13-4.06-1.1-1.21-2.2-2.42-3.3-3.6-.62-.67-1.27-1.34-1.96-2l-8.2,9.03Z"/>
    <path class="cls-2" d="M35.54,10c.41,0,.81.04,1.19.12,1.16.24,2.18.72,3.06,1.44.88.72,1.6,1.64,2.16,2.76.56,1.12.92,2.28,1.08,3.48.08.24.14.46.18.66.04.2.06.42.06.66h6.84c2.8,0,5.04.18,6.72.54,1.68.36,3.08,1.34,4.2,2.94.32.48.56,1.14.72,1.98.16.84.18,1.68.06,2.52-.12.84-.34,1.62-.66,2.34-.32.72-.72,1.24-1.2,1.56-.64.24-1.34.5-2.1.78-.76.28-1.46.42-2.1.42-.64.05-1.23.08-1.78.08-.28,0-.54,0-.8-.02-.76-.04-1.62-.06-2.58-.06-1.44,0-2.56.02-3.36.06-.27.01-.55.02-.86.02-.6,0-1.28-.03-2.02-.08v6.6c.4.32.92.96,1.56,1.92.64.96,1.28,1.76,1.92,2.4.64.64,1.32,1.34,2.04,2.1.72.76,1.48,1.58,2.28,2.46.56.56,1.04,1.08,1.44,1.56.4.48.8.92,1.2,1.32,1.36,1.6,2.72,3.28,4.08,5.04,1.36,1.76,2.28,3.52,2.76,5.28.16.8.16,1.64,0,2.52-.16.88-.6,1.64-1.32,2.28-1.2.8-2.48,1.2-3.84,1.2-1.52,0-2.98-.36-4.38-1.08-1.4-.72-2.54-1.44-3.42-2.16-1.36-1.2-2.6-2.42-3.72-3.66-1.12-1.24-2.24-2.46-3.36-3.66-.88-.96-1.84-1.92-2.88-2.88-1.04-.96-1.96-2-2.76-3.12l-11.88,13.08c-1.28,1.36-2.64,2.3-4.08,2.82-1.44.52-2.8.78-4.08.78-.4,0-1-.08-1.8-.24-1.52-.4-2.56-1.12-3.12-2.16-.48-.88-.64-1.88-.48-3,.16-1.12.48-2.12.96-3,.56-.96,1.18-1.84,1.86-2.64.68-.8,1.38-1.64,2.1-2.52,2.08-2.32,4.1-4.74,6.06-7.26,1.96-2.52,4.1-4.98,6.42-7.38v-6.6c-.43.05-.92.08-1.49.08-.29,0-.59,0-.91-.02-.96-.04-2.12-.06-3.48-.06-.88,0-1.88.04-3,.12-.38.03-.75.04-1.12.04-.74,0-1.46-.05-2.18-.16-1.08-.16-2.06-.5-2.94-1.02-.88-.52-1.56-1.38-2.04-2.58-.4-.88-.64-1.88-.72-3-.08-1.12,0-2.16.24-3.12.24-1.12.86-1.9,1.86-2.34,1-.44,1.94-.74,2.82-.9.8-.16,1.52-.24,2.16-.24.24,0,.48.02.72.06.24.04.48.06.72.06h9.72c.16-1.84.54-3.58,1.14-5.22.6-1.64,1.78-2.78,3.54-3.42.91-.32,1.77-.48,2.59-.48M87.07,13c2.12,0,3.76.64,4.92,1.92.48.64.82,1.26,1.02,1.86.2.6.38,1.22.54,1.86.24.8.38,1.64.42,2.52.04.88.02,1.76-.06,2.64v9.36c0,.4-.02.82-.06,1.26-.04.44-.02.94.06,1.5.32,0,.92.02,1.8.06.88.04,1.8.08,2.76.12.96.04,1.88.1,2.76.18.88.08,1.52.16,1.92.24,1.6.32,2.72.78,3.36,1.38.64.6,1.04,1.34,1.2,2.22.24.88.36,1.9.36,3.06s-.24,2.14-.72,2.94c-.96,1.6-2.4,2.5-4.32,2.7-1.92.2-4.04.34-6.36.42h-2.76v10.92c-.08.88-.2,1.78-.36,2.7-.16.92-.48,1.82-.96,2.7-.48.96-1.16,1.76-2.04,2.4-1.12.8-2.44,1.2-3.96,1.2-1.36,0-2.48-.28-3.36-.84-.8-.48-1.44-1.08-1.92-1.8-.48-.72-.86-1.42-1.14-2.1-.28-.68-.5-1.54-.66-2.58V22.24c-.08-.32-.04-1.2.12-2.64.16-1.44.48-2.64.96-3.6.8-1.68,2.4-2.64,4.8-2.88.59-.08,1.15-.12,1.68-.12M82.03,74.68c1.52.08,3.08.2,4.68.36,1.6.16,3.12.56,4.56,1.2,1.6.64,2.66,1.7,3.18,3.18.52,1.48.86,3.02,1.02,4.62.08,1.36.14,2.94.18,4.74.04,1.8.02,3.62-.06,5.46-.08,1.84-.2,3.66-.36,5.46-.16,1.8-.44,3.42-.84,4.86-.24.88-.52,1.66-.84,2.34-.32.68-.96,1.18-1.92,1.5-.88.32-1.78.52-2.7.6-.92.08-1.82.12-2.7.12l-62.52-.24c-1.04-.08-2.16-.12-3.36-.12s-2.24-.32-3.12-.96c-.08,0-.2-.08-.36-.24-.8-.64-1.34-1.58-1.62-2.82-.28-1.24-.42-2.3-.42-3.18-.08-1.44-.18-2.88-.3-4.32s-.18-2.84-.18-4.2v-6.12c0-2,.2-4,.6-6,.24-1.28.64-2.3,1.2-3.06.56-.76,1.44-1.38,2.64-1.86,2.24-.88,4.48-1.32,6.72-1.32h56.52M31.03,96.04c.4,0,.88-.04,1.44-.12h37.56c1.12.08,2.2.16,3.24.24.88.08,1.8.12,2.76.12s1.84-.08,2.64-.24c.8-.08,1.28-.3,1.44-.66.16-.36.28-.9.36-1.62.08-.64.12-1.38.12-2.22s-.24-1.58-.72-2.22c-.56-.64-1.34-.98-2.34-1.02-.33-.01-.65-.02-.96-.02-.63,0-1.21.03-1.74.08h-33.36c-1.41-.13-2.8-.19-4.16-.19-.33,0-.67,0-1,.01-1.68.04-3.4.1-5.16.18-.64,0-1.14.02-1.5.06-.36.04-.62.42-.78,1.14-.16.56-.24,1.1-.24,1.62v1.5c.08.16.1.32.06.48-.04.16-.06.36-.06.6,0,.4.02.78.06,1.14.04.36.18.62.42.78.16.16.42.26.78.3.36.04.74.06,1.14.06M35.54,0c-1.95,0-3.94.35-5.92,1.05l-.09.03c-4.05,1.47-7.18,4.3-8.95,8.04h-1.63c-.61-.08-1.23-.12-1.85-.12-1.29,0-2.61.14-4.04.42-1.61.3-3.28.83-4.96,1.56-3.88,1.71-6.63,5.06-7.58,9.22-.47,1.95-.63,4.01-.48,6.12.16,2.21.66,4.3,1.5,6.21,1.31,3.15,3.44,5.66,6.16,7.26,1.41.84,2.95,1.47,4.58,1.9-1.41,1.75-2.85,3.45-4.31,5.07l-.3.34c-.68.83-1.34,1.62-1.98,2.38-1.06,1.25-2.03,2.62-2.88,4.09l-.14.24c-1.05,1.93-1.75,4.08-2.08,6.38-.47,3.22.08,6.4,1.59,9.17.84,1.55,2.23,3.41,4.48,4.91-.7,1.43-1.22,3.01-1.55,4.73-.52,2.61-.78,5.27-.78,7.91v6.12c0,1.63.07,3.33.21,5.03.1,1.26.2,2.54.27,3.82.03,1.55.25,3.21.66,5.06.74,3.27,2.38,6.07,4.76,8.11.66.59,1.33,1.06,1.99,1.43,2.4,1.49,5.18,2.27,8.11,2.27.95,0,1.82.03,2.58.09l.74.03,62.52.24c1.18,0,2.37-.05,3.58-.15,1.77-.16,3.5-.53,5.15-1.12,3.48-1.2,6.2-3.56,7.66-6.67.57-1.22,1.05-2.55,1.44-3.97.55-1.98.94-4.21,1.15-6.61.17-1.96.3-3.94.39-5.92.09-2.06.11-4.11.07-6.11-.04-1.9-.11-3.61-.19-5.1l-.03-.43c-.24-2.38-.76-4.71-1.53-6.92-.66-1.88-1.66-3.56-2.94-5.01.18-.3.34-.6.5-.9.95-1.79,1.61-3.67,1.95-5.62.21-1.19.36-2.37.47-3.52l.04-.9v-1.38c.05,0,.11-.01.16-.02,5.06-.52,9.27-3.19,11.86-7.5,1.42-2.36,2.14-5.09,2.14-8.08,0-1.9-.21-3.68-.61-5.32-.6-2.8-2.02-5.3-4.1-7.25-2.06-1.93-4.75-3.2-8.24-3.9-.37-.07-.76-.14-1.2-.2v-2.31c.08-1.16.1-2.33.05-3.49-.08-1.64-.33-3.22-.76-4.72-.21-.8-.44-1.6-.69-2.36-.55-1.65-1.4-3.23-2.51-4.72l-.57-.69c-2.15-2.39-6.03-5.23-12.35-5.23h0c-.92,0-1.88.06-2.86.19-5.74.63-10.32,3.69-12.61,8.42-.89,1.8-1.5,3.86-1.82,6.14-.13-.23-.27-.46-.42-.68l-.15-.21c-2.58-3.67-6.13-6.09-10.29-6.98-2.3-.49-5.06-.74-8.42-.76-1.15-2.08-2.62-3.86-4.39-5.3-2.14-1.75-4.61-2.92-7.36-3.49-1.06-.22-2.14-.33-3.22-.33h0ZM60.13,41.55c.39-.12.79-.25,1.18-.39.77-.28,1.48-.55,2.14-.79l2.03-1.04c1.64-1.09,2.99-2.53,4.03-4.31v18.72c-.75-1.45-1.66-2.87-2.73-4.25-1.46-1.89-2.93-3.7-4.37-5.4l-.57-.62c-.17-.17-.36-.38-.57-.63-.35-.42-.73-.85-1.14-1.29h0Z"/>
  </g>
  <g>
    <path class="cls-1" d="M333.88,114.52c-1.97,0-3.9-.59-5.72-1.74-3.22-1.91-6.05-4.41-8.4-7.42-1.56-2-3.08-3.96-4.55-5.86-.43.55-.88,1.11-1.35,1.66-.68.81-1.4,1.82-2.16,2.99-1.59,2.43-3.41,4.6-5.41,6.47-2.62,2.43-5.62,3.73-8.92,3.86h-.55c-.75,0-1.5-.08-2.21-.23-.62-.14-1.24-.33-1.87-.58-1.85-.7-3.31-1.66-4.36-2.86-2.33-1.81-4.43-3.98-6.26-6.45-1.23-1.67-2.47-3.3-3.7-4.86-.38.52-.77,1.05-1.16,1.61-.76,1.06-1.56,2.25-2.39,3.53l-.17.25c-.95,1.3-1.94,2.54-2.92,3.7-1.22,1.43-2.58,2.65-4.03,3.62-1.67,1.11-3.47,1.83-5.37,2.15-.63.1-1.27.16-1.9.16-1.45,0-2.93-.27-4.42-.79-4.16-1.39-5.63-4.04-6.13-6.02-.53-2.11-.37-4.32.47-6.57.64-1.71,1.54-3.36,2.69-4.92.81-1.1,1.47-2.06,1.98-2.85,1.35-2.18,2.74-4.49,4.08-6.83,1.44-2.49,3.02-4.95,4.7-7.31.67-.92,1.37-1.88,2.13-2.93.93-1.27,1.96-2.45,3.04-3.48.04-.04.09-.09.13-.13-3.19-.28-6.29-1.03-9.26-2.25-4.71-1.92-8.71-4.94-11.88-8.98-3.34-4.25-5.03-9.32-5.03-15.09,0-3.15.45-6.12,1.33-8.81.12-.38.25-.75.39-1.11-.53-.34-1.04-.72-1.52-1.14-2.41-2.11-3.68-4.93-3.68-8.14s1.25-5.99,3.62-8.14c2.23-2.03,5.04-3.1,8.1-3.1h8.01c.28-2.62,1.6-4.97,3.79-6.68,2.18-1.7,4.79-2.56,7.76-2.56s5.55.85,7.76,2.51c2.26,1.72,3.62,4.08,3.91,6.73h8.73c1.92,0,3.73.42,5.36,1.22.24-.96.56-1.85.97-2.66.86-1.8,3.21-5.05,8.86-5.62.62-.07,1.23-.11,1.81-.11,1.38,0,2.65.21,3.78.62,1.67.61,3.12,1.6,4.31,2.94.42.49.79.98,1.1,1.48.4-.57.85-1.12,1.35-1.67,2.02-2.43,4.86-3.72,8.23-3.72.59,0,1.2.04,1.83.12l.12.02c3.7.57,6.56,2.67,8.07,5.91.74,1.5,1.2,3.25,1.37,5.19.13,1.53.16,2.52.08,3.31v39.85c0,.12-.02.53-.08,1.25-.08.95-.31,1.92-.69,3-.35.99-.84,2.01-1.46,3.03-.86,1.4-2.03,2.56-3.5,3.45-1.68,1.05-3.49,1.59-5.39,1.59-.09,0-.18,0-.27,0,.21.29.42.59.63.89.67.99,1.27,1.86,1.82,2.64,2,2.91,3.9,5.9,5.67,8.91,1.68,2.86,3.45,5.73,5.25,8.55.41.62.86,1.28,1.29,1.9.61.89,1.13,1.82,1.54,2.74.56,1.28.84,2.62.84,3.99,0,1.69-.57,3.38-1.69,5.01-1.6,2.44-3.85,4.02-6.5,4.57-.66.14-1.33.2-2,.2ZM284.83,69.86c1.26.78,2.4,1.73,3.4,2.84.91,1,1.78,2.11,2.59,3.3.67.99,1.27,1.86,1.82,2.64l.11.17c1.38,2.14,2.74,4.29,4.07,6.43,1.18-2.01,2.46-4.01,3.81-5.97,1.12-1.61,2.41-3.28,3.83-4.97-.79-.26-1.57-.61-2.33-1.05-1.52-.91-2.7-2.03-3.6-3.37-.7-1.04-1.22-2.05-1.6-3.06-.36-.97-.64-2.12-.86-3.51l-.06-.76v-3.12c-1.75,3-4.05,5.58-6.86,7.71-1.39,1.05-2.84,1.96-4.33,2.72ZM271.05,41.63c-1.13,0-2.12.38-3.14,1.19-.28.22-1.12.9-1.12,3.54,0,1.45.25,2.15.4,2.44.27.53.52.72.69.82.48.28,1.03.46,1.69.54.35.04.71.06,1.07.06.52,0,1.06-.04,1.61-.13,1.3-.29,2.31-.77,3.02-1.42.17-.15.47-.83.47-2.31,0-2.34-.84-3.04-1.15-3.31-1.11-.92-2.18-1.38-3.38-1.42h-.16Z"/>
    <path class="cls-2" d="M270.79,11.68c1.84,0,3.42.5,4.74,1.5,1.32,1,1.98,2.26,1.98,3.78v3.96h13.68c1.84,0,3.42.6,4.74,1.8,1.32,1.2,1.98,2.68,1.98,4.44s-.66,3.22-1.98,4.38c-1.32,1.16-2.9,1.74-4.74,1.74h-.96c1.36,1.68,2.42,3.62,3.18,5.82.76,2.2,1.14,4.62,1.14,7.26,0,3.36-.74,6.5-2.22,9.42-1.48,2.92-3.54,5.38-6.18,7.38-3.6,2.72-7.58,4.24-11.94,4.56-.73.05-1.45.08-2.17.08-3.57,0-6.99-.67-10.25-2-3.92-1.6-7.2-4.08-9.84-7.44-2.64-3.36-3.96-7.36-3.96-12,0-2.64.36-5.06,1.08-7.26.72-2.2,1.76-4.14,3.12-5.82h-.96c-1.84,0-3.42-.58-4.74-1.74-1.32-1.16-1.98-2.62-1.98-4.38s.66-3.24,1.98-4.44c1.32-1.2,2.9-1.8,4.74-1.8h12.96v-3.96c0-1.52.64-2.78,1.92-3.78,1.28-1,2.84-1.5,4.68-1.5M270.64,55.22c.84,0,1.69-.07,2.55-.22,2.24-.48,4.06-1.36,5.46-2.64,1.4-1.28,2.1-3.28,2.1-6,0-3.12-.98-5.5-2.94-7.14-1.96-1.64-4.1-2.5-6.42-2.58-.11,0-.22,0-.34,0-2.27,0-4.36.76-6.26,2.29-2,1.6-3,4.08-3,7.44,0,1.92.32,3.5.96,4.74.64,1.24,1.5,2.18,2.58,2.82,1.08.64,2.3,1.04,3.66,1.2.54.06,1.09.1,1.65.1M326.96,13.4c.38,0,.78.03,1.19.08,2.08.32,3.52,1.36,4.32,3.12.48.96.78,2.12.9,3.48.12,1.36.14,2.2.06,2.52v40.2c0,.08-.02.36-.06.84-.04.48-.18,1.06-.42,1.74-.24.68-.58,1.38-1.02,2.1-.44.72-1.06,1.32-1.86,1.8-.88.56-1.8.84-2.76.84-1.6,0-2.92-.4-3.96-1.2-.88-.64-1.56-1.44-2.04-2.4-1.2-2.24-1.76-4.7-1.68-7.38.08-2.68.16-5.26.24-7.74v-1.68c-.88.08-1.74.14-2.58.18-.84.04-1.66.06-2.46.06h-.36v10.92c-.08.88-.2,1.78-.36,2.7-.16.92-.48,1.82-.96,2.7-.56,1.04-1.24,1.8-2.04,2.28-.56.4-1.04.72-1.44.96-.4.24-.96.36-1.68.36-1.12,0-2.24-.32-3.36-.96-.8-.48-1.44-1.08-1.92-1.8-.48-.72-.84-1.4-1.08-2.04-.24-.64-.44-1.48-.6-2.52V22.96c-.08-.4-.06-1.3.06-2.7.12-1.4.42-2.58.9-3.54.8-1.68,2.44-2.64,4.92-2.88.45-.05.88-.08,1.28-.08.8,0,1.5.11,2.08.32.88.32,1.64.84,2.28,1.56.56.64.92,1.26,1.08,1.86.16.6.32,1.22.48,1.86.24.8.38,1.64.42,2.52.04.88.06,1.76.06,2.64-.08.32-.12.8-.12,1.44v10.56c.4.08,1.14.14,2.22.18,1.08.04,2.18.1,3.3.18v-12.72c-.08-.88-.1-1.74-.06-2.58.04-.84.18-1.7.42-2.58.32-1.2,1.04-2.4,2.16-3.6,1.07-1.33,2.55-2,4.45-2M315.99,73.23c1.03,0,1.96.24,2.8.73.96.56,1.82,1.26,2.58,2.1.76.84,1.48,1.76,2.16,2.76.68,1,1.3,1.9,1.86,2.7,1.92,2.8,3.74,5.66,5.46,8.58,1.72,2.92,3.5,5.82,5.34,8.7.48.72.94,1.4,1.38,2.04.44.64.8,1.28,1.08,1.92.28.64.42,1.3.42,1.98s-.28,1.42-.84,2.22c-.88,1.36-2,2.18-3.36,2.46-.33.07-.66.1-.98.1-1.03,0-2.06-.33-3.1-1-2.72-1.6-5.08-3.68-7.08-6.24-2-2.56-3.92-5.04-5.76-7.44-1.14-1.44-2.08-2.17-2.83-2.17-.04,0-.08,0-.11,0-.76.08-1.66.88-2.7,2.4-.72.96-1.48,1.92-2.28,2.88-.8.96-1.64,2.12-2.52,3.48-1.36,2.08-2.9,3.92-4.62,5.52-1.72,1.6-3.62,2.44-5.7,2.52h-.36c-.4,0-.78-.04-1.14-.12-.36-.08-.74-.2-1.14-.36-1.28-.48-2.16-1.08-2.64-1.8-2.16-1.6-4.08-3.54-5.76-5.82-1.68-2.28-3.36-4.46-5.04-6.54-1.14-1.44-2.07-2.17-2.77-2.17-.04,0-.07,0-.11,0-.72.08-1.64.88-2.76,2.4-.72.96-1.48,2-2.28,3.12-.8,1.12-1.64,2.36-2.52,3.72-.88,1.2-1.78,2.34-2.7,3.42-.92,1.08-1.92,1.98-3,2.7-1.08.72-2.22,1.18-3.42,1.38-.35.06-.71.09-1.08.09-.88,0-1.8-.17-2.76-.51-1.68-.56-2.66-1.4-2.94-2.52-.28-1.12-.18-2.32.3-3.6.48-1.28,1.16-2.52,2.04-3.72.88-1.2,1.6-2.24,2.16-3.12,1.44-2.32,2.84-4.66,4.2-7.02,1.36-2.36,2.84-4.66,4.44-6.9.64-.88,1.34-1.84,2.1-2.88.76-1.04,1.58-1.98,2.46-2.82.88-.84,1.84-1.56,2.88-2.16,1.04-.6,2.16-.94,3.36-1.02.15,0,.29-.01.44-.01,1.03,0,1.96.24,2.8.73.96.56,1.82,1.26,2.58,2.1.76.84,1.48,1.76,2.16,2.76.68,1,1.3,1.9,1.86,2.7,2.88,4.48,5.64,8.92,8.28,13.32,1.36-2.08,2.66-4.2,3.9-6.36,1.24-2.16,2.58-4.28,4.02-6.36,1.28-1.84,2.78-3.74,4.5-5.7,1.72-1.96,3.82-3.02,6.3-3.18.15,0,.29-.01.44-.01M270.79,1.68c-4.06,0-7.8,1.25-10.84,3.62-1.99,1.56-3.51,3.47-4.48,5.62h-4.24c-4.33,0-8.3,1.52-11.47,4.4-3.39,3.08-5.25,7.29-5.25,11.84,0,4.18,1.57,8.04,4.44,11-.64,2.59-.96,5.34-.96,8.2,0,6.91,2.05,13.03,6.1,18.18,3.72,4.73,8.4,8.27,13.93,10.52.69.28,1.39.54,2.1.78-.1.13-.19.26-.29.39l-.05.07c-1.78,2.49-3.45,5.09-4.97,7.72-1.31,2.27-2.65,4.52-4,6.68-.44.69-1.04,1.54-1.76,2.53-1.41,1.93-2.54,3.99-3.34,6.12-1.19,3.17-1.41,6.47-.64,9.54.65,2.59,2.73,7.29,9.39,9.54,2,.7,4.02,1.05,6.01,1.05.91,0,1.82-.07,2.71-.22,2.62-.44,5.08-1.42,7.34-2.92,1.85-1.23,3.55-2.76,5.06-4.53,1.03-1.21,2.05-2.49,3.04-3.83,1.88,2.44,4.01,4.61,6.34,6.47,1.55,1.64,3.55,2.93,5.98,3.86.86.34,1.72.6,2.57.79,1.1.24,2.2.36,3.32.36h.74c4.46-.18,8.65-1.97,12.12-5.19,2.07-1.93,3.95-4.12,5.61-6.52.17.22.35.45.52.67,2.72,3.49,5.99,6.38,9.73,8.61,2.62,1.65,5.42,2.48,8.33,2.48,1,0,2.01-.1,2.99-.3,3.98-.82,7.3-3.13,9.65-6.68,1.69-2.47,2.54-5.09,2.54-7.8,0-2.06-.42-4.07-1.26-5.98-.54-1.23-1.21-2.43-2-3.58-.4-.58-.81-1.19-1.25-1.84-1.75-2.74-3.46-5.53-5.1-8.3-1.41-2.39-2.89-4.76-4.42-7.07.09-.06.19-.11.28-.17,2.14-1.31,3.87-3.02,5.13-5.09.82-1.34,1.46-2.68,1.92-4,.52-1.46.83-2.84.95-4.18v-.06c.07-.79.1-1.19.1-1.65V23.2c.1-1.18.04-2.45-.1-3.99-.23-2.55-.84-4.87-1.84-6.92-2.21-4.71-6.51-7.87-11.82-8.69l-.25-.03c-.83-.11-1.66-.16-2.46-.16-3.64,0-6.96,1.11-9.64,3.17-1.11-.78-2.32-1.42-3.62-1.89-1.71-.62-3.55-.92-5.51-.92-.75,0-1.54.05-2.34.14-6.91.7-10.44,4.37-12.16,7.2-.81-.11-1.65-.17-2.49-.17h-4.97c-1-2.19-2.57-4.14-4.64-5.71-3.05-2.31-6.78-3.53-10.78-3.53h0ZM292.96,70.53s.08-.06.12-.1c.12.24.25.48.38.72-.17-.21-.33-.42-.5-.62h0ZM296.86,75.96l-.12-.18c-.25-.36-.52-.74-.79-1.14.35.37.71.73,1.09,1.07-.06.08-.12.17-.18.25h0Z"/>
  </g>
  <g>
    <path class="cls-1" d="M419.23,114.84c-3.34,0-6.2-1.23-8.27-3.57-1.65-1.79-2.69-3.76-3.11-5.85-.27-1.32-.49-2.75-.66-4.24l-.03-.51c-.07-.41-.11-.83-.12-1.3-.16-1.39-.25-2.87-.25-4.42,0-1.3-.04-2.63-.11-3.96-.09-.98-.13-1.97-.13-2.94v-8.52c0-1.28-.02-2.61-.06-4-.04-1.48-.06-2.89-.06-4.22v-1.19c-1.86-.04-3.38-.15-4.62-.32-1.99-.14-3.63-.59-4.98-1.23-.12,1.75-.28,3.48-.47,5.2-.42,3.88-1.02,7.85-1.81,11.77-.88,4.42-2.52,8.46-4.87,12.03-2.04,3.11-4.62,5.71-7.66,7.72-3,1.99-6.22,3.34-9.55,4.03-1.85.36-3.69.53-5.52.53-1.21,0-2.45-.08-3.67-.23-3.23-.4-6.33-1.47-9.23-3.17-2.72-1.61-5.03-3.65-6.89-6.06-1.72-2.23-3.24-4.84-4.52-7.77-1.83-4.39-2.88-8.9-3.16-13.5-.32-3.41-.55-6.87-.67-10.29-.12-3.39-.18-6.85-.18-10.26,0-2.35.02-4.64.06-6.87.04-2.33.19-4.71.45-7.1.16-1.81.37-3.72.62-5.59.25-1.88.55-3.76.88-5.57l.04-.18c.32-1.44.58-2.73.81-3.92.32-1.7.89-3.44,1.71-5.17.73-1.55,1.54-3.02,2.4-4.39.97-1.53,2.13-2.94,3.46-4.17,2.17-2.15,4.63-3.85,7.31-5.04,2.56-1.14,5.25-1.91,8.01-2.3.73-.12,1.49-.18,2.24-.18.25,0,.47-.02.67-.05l.83-.07c1.16,0,2.3.05,3.41.14,1.11.09,2.21.23,3.29.41,4.05.64,7.68,2.52,10.75,5.59l.14.15c2.26,2.45,4.15,5.29,5.6,8.43,1.37,2.97,2.47,6.13,3.26,9.38.77,3.16,1.33,6.43,1.67,9.72.14,1.31.26,2.62.37,3.91,1.32-.78,2.68-1.33,4.05-1.62l.43-.07c1.05-.13,2.24-.2,3.53-.2.6,0,1.23.01,1.89.04-.05-.6-.08-1.44-.08-2.68,0-2.05-.02-4.08-.06-6.08-.04-2.06-.02-4.17.06-6.25v-1.58c0-1.09.02-2.29.06-3.59.04-1.39.16-2.8.34-4.19.21-1.61.58-3.15,1.11-4.58.65-1.75,1.6-3.26,2.83-4.49l.26-.24c2.1-1.82,4.56-2.78,7.11-2.78h.45c3.13.14,5.76,1.17,7.82,3.08,1.71,1.59,3.01,3.52,3.88,5.73.77,1.94,1.26,3.99,1.47,6.09.18,1.81.26,3.45.26,4.87v73.14c0,.96-.1,2.03-.31,3.28-.2,1.22-.51,2.44-.91,3.64-.59,1.76-1.56,3.26-2.88,4.47-1.13,1.08-2.59,1.91-4.35,2.45-1.52.47-2.98.7-4.35.7ZM363.15,58.12c.08,1.77.06,3.52-.08,5.19-.1,1.22-.08,2.5.05,3.78v.12c.17,2.03.38,4.23.65,6.52.25,2.1.65,4.09,1.2,5.91.44,1.44,1.03,2.61,1.77,3.47.15.18.3.36,1,.36.19,0,.74,0,1.61-.56.48-.35.79-.78,1-1.37.47-1.36.89-2.89,1.25-4.57.58-3.38.92-7.06.99-10.92.08-4.04.04-7.97-.12-11.7v-.21c0-1.41-.04-2.97-.12-4.63-.07-1.58-.21-3.18-.39-4.74-.17-1.45-.44-2.87-.78-4.21-.28-1.08-.66-2.03-1.12-2.81-.42-.71-.85-1.2-1.3-1.49-.14-.09-.18-.09-.21-.09h-.07c-.55.07-1,.24-1.44.55-.37.27-.76.83-1.1,1.58l-.94,2.2c-.36,1.19-.64,2.45-.83,3.74-.23,1.58-.42,3.14-.57,4.63-.15,1.51-.27,3.08-.34,4.66-.07,1.55-.11,3.09-.11,4.57Z"/>
    <path class="cls-2" d="M418.39,12.4c1.92.08,3.46.66,4.62,1.74,1.16,1.08,2.04,2.38,2.64,3.9.6,1.52.98,3.1,1.14,4.74.16,1.64.24,3.1.24,4.38v73.14c0,.68-.08,1.5-.24,2.46-.16.96-.4,1.92-.72,2.88-.32.96-.84,1.76-1.56,2.4-.56.56-1.36,1-2.4,1.32-1.04.32-2,.48-2.88.48-1.92,0-3.44-.64-4.56-1.92-1.04-1.12-1.68-2.28-1.92-3.48-.24-1.2-.44-2.48-.6-3.84,0-.24-.02-.48-.06-.72-.04-.24-.06-.52-.06-.84-.16-1.28-.24-2.64-.24-4.08s-.04-2.88-.12-4.32c-.08-.88-.12-1.74-.12-2.58v-8.52c0-1.32-.02-2.7-.06-4.14-.04-1.44-.06-2.8-.06-4.08v-4.56c0-.48-.08-.92-.24-1.32-1.12-.16-2.6-.26-4.44-.3-1.84-.04-3.32-.14-4.44-.3-2.8-.16-4.8-1.2-6-3.12s-1.36-4.4-.48-7.44c.16-.64.5-1.32,1.02-2.04.52-.72,1.02-1.28,1.5-1.68,1.12-.8,2.24-1.32,3.36-1.56.85-.11,1.82-.16,2.91-.16.54,0,1.11.01,1.71.04.6.03,1.18.04,1.73.04,1.1,0,2.1-.05,3.01-.16h.36v-.48c0-.96.02-1.68.06-2.16.04-.48.06-.92.06-1.32s-.02-.84-.06-1.32c-.04-.48-.06-1.24-.06-2.28,0-2.08-.02-4.14-.06-6.18-.04-2.04-.02-4.06.06-6.06v-1.68c0-1.04.02-2.18.06-3.42.04-1.24.14-2.48.3-3.72.16-1.24.44-2.4.84-3.48.4-1.08.96-1.98,1.68-2.7,1.2-1.04,2.48-1.56,3.84-1.56h.24M368.11,13c1.04,0,2.04.04,3,.12.96.08,1.92.2,2.88.36,3.04.48,5.72,1.88,8.04,4.2,1.92,2.08,3.5,4.46,4.74,7.14,1.24,2.68,2.22,5.5,2.94,8.46.72,2.96,1.24,5.98,1.56,9.06.32,3.08.56,6.06.72,8.94.16,3.68.2,7.36.12,11.04-.08,3.68-.32,7.32-.72,10.92-.4,3.76-.98,7.54-1.74,11.34-.76,3.8-2.14,7.22-4.14,10.26-1.68,2.56-3.76,4.66-6.24,6.3-2.48,1.64-5.08,2.74-7.8,3.3-1.49.29-2.99.43-4.51.43-1.01,0-2.03-.06-3.05-.19-2.56-.32-5-1.16-7.32-2.52-2.16-1.28-3.98-2.88-5.46-4.8-1.48-1.92-2.78-4.16-3.9-6.72-1.6-3.84-2.52-7.8-2.76-11.88-.32-3.36-.54-6.72-.66-10.08-.12-3.36-.18-6.72-.18-10.08,0-2.32.02-4.58.06-6.78.04-2.2.18-4.42.42-6.66.16-1.84.36-3.66.6-5.46.24-1.8.52-3.58.84-5.34.32-1.44.6-2.8.84-4.08.24-1.28.68-2.6,1.32-3.96.64-1.36,1.34-2.64,2.1-3.84.76-1.2,1.66-2.28,2.7-3.24,1.76-1.76,3.72-3.12,5.88-4.08s4.4-1.6,6.72-1.92c.48-.08.98-.12,1.5-.12s1.02-.04,1.5-.12M367.75,88.48c1.52,0,3-.48,4.44-1.44,1.36-.96,2.32-2.24,2.88-3.84.56-1.6,1.04-3.36,1.44-5.28.64-3.68,1-7.6,1.08-11.76.08-4.16.04-8.16-.12-12,0-1.52-.04-3.14-.12-4.86-.08-1.72-.22-3.42-.42-5.1-.2-1.68-.5-3.3-.9-4.86-.4-1.56-.96-2.94-1.68-4.14-.8-1.36-1.76-2.4-2.88-3.12-.92-.59-1.89-.88-2.91-.88-.23,0-.46.01-.69.04-1.36.16-2.6.64-3.72,1.44-1.12.8-2.04,2-2.76,3.6l-1.08,2.52c-.48,1.52-.84,3.1-1.08,4.74-.24,1.64-.44,3.26-.6,4.86-.16,1.6-.28,3.24-.36,4.92-.08,1.68-.12,3.32-.12,4.92.08,1.6.06,3.16-.06,4.68-.12,1.52-.1,3.08.06,4.68.16,2.08.38,4.32.66,6.72.28,2.4.74,4.66,1.38,6.78.64,2.12,1.56,3.88,2.76,5.28,1.2,1.4,2.8,2.1,4.8,2.1M418.39,2.4h-.24c-3.77,0-7.36,1.38-10.39,4l-.53.49c-1.74,1.74-3.09,3.87-3.99,6.3-.66,1.77-1.12,3.68-1.38,5.67-.2,1.54-.33,3.12-.38,4.68-.04,1.28-.07,2.54-.07,3.74v1.48c-.08,2.15-.1,4.32-.06,6.46.02,1.24.04,2.5.05,3.75-.16.01-.32.03-.48.05-.37-2.74-.87-5.46-1.52-8.1-.87-3.57-2.07-7.03-3.58-10.29-1.68-3.62-3.85-6.89-6.47-9.72l-.28-.29c-3.83-3.82-8.37-6.18-13.5-7-1.2-.2-2.43-.35-3.65-.45-1.26-.1-2.55-.16-3.84-.16l-1.66.14c.1-.02.16-.02.16-.02-1,0-2.01.08-2.98.23-3.2.45-6.33,1.35-9.3,2.67-3.22,1.43-6.16,3.45-8.75,6.01-1.61,1.51-3.03,3.23-4.22,5.1-.97,1.53-1.88,3.19-2.7,4.93-1,2.11-1.7,4.26-2.1,6.37-.21,1.15-.47,2.38-.78,3.77l-.07.37c-.34,1.9-.65,3.85-.91,5.81-.26,1.91-.47,3.87-.64,5.82-.26,2.5-.42,5-.46,7.44-.04,2.18-.06,4.52-.06,6.96,0,3.47.06,6.98.19,10.44.12,3.49.35,7.02.68,10.5.32,5.12,1.5,10.15,3.5,14.95l.07.16c1.44,3.3,3.17,6.27,5.15,8.82,2.25,2.91,5.03,5.37,8.28,7.29,3.53,2.07,7.28,3.35,11.18,3.84,1.43.18,2.88.27,4.29.27,2.15,0,4.3-.21,6.41-.61l.12-.02c3.96-.82,7.76-2.41,11.29-4.75,3.61-2.39,6.67-5.47,9.09-9.16,2.69-4.1,4.57-8.74,5.58-13.78.78-3.9,1.39-7.85,1.82-11.75,0,0,.01,0,.02,0,.06,0,.12.01.18.02,0,.29.01.58.02.88.04,1.35.06,2.65.06,3.85v8.52c0,1.08.05,2.19.14,3.29.06,1.21.1,2.43.1,3.61,0,1.67.09,3.27.25,4.79.02.54.07,1.05.15,1.55l.03.47c.19,1.62.44,3.18.73,4.63.6,2.99,2.05,5.76,4.31,8.22,3.01,3.36,7.25,5.21,11.98,5.21,1.87,0,3.82-.31,5.82-.92,2.51-.77,4.62-1.98,6.31-3.59,1.94-1.78,3.35-3.97,4.2-6.52.49-1.47.85-2.94,1.1-4.4.26-1.54.38-2.88.38-4.12V27.16c0-1.61-.09-3.36-.29-5.35-.25-2.57-.86-5.07-1.79-7.45-1.15-2.91-2.87-5.44-5.12-7.54-2.91-2.71-6.72-4.23-11.02-4.41h-.42Z"/>
  </g>
  <g>
    <path class="cls-1" d="M445.27,107.57c-1.19,0-2.43-.04-3.68-.12-2.99-.19-5.61-1.19-7.79-2.99l-.18-.15c-3.44-3.12-4.16-6.54-4.16-8.87,0-2.06.58-4.14,1.72-6.17,1.27-2.26,3.13-3.93,5.38-4.83,2.19-.87,4.49-1.32,6.84-1.32,1.65,0,3.33-.04,4.99-.11h.23s.6,0,.6,0c1.01,0,2.18-.01,3.52-.04v-7.92c0-1.13.17-2.26.5-3.38-1.19-.53-2.36-1.13-3.49-1.79-3.2-1.87-6-4.52-8.32-7.89-2.23-3.02-3.74-6.31-4.48-9.78-.67-3.13-1.01-6.43-1.01-9.81,0-7.37,2.04-13.68,6.06-18.76,3.93-4.97,9.32-8.58,16.02-10.72,4.13-1.38,8.45-2.28,12.77-2.68,2.23-.2,4.5-.31,6.75-.31,2,0,4.03.08,6.04.24,3.3.24,6.7.57,10.05.98,3.76.46,7.43,1.48,10.92,3.04l.09.04c1.59.75,3.16,1.65,4.66,2.68,1.58,1.09,3.07,2.37,4.42,3.83,3.33,3.62,5.65,7.6,6.9,11.84,1.21,4.1,1.64,8.5,1.27,13.09-.56,7.28-2.82,13.27-6.71,17.8-2.34,2.72-5.06,4.99-8.13,6.79.24.79.39,1.62.45,2.49.09,1.42.15,3.5.19,6.23.02,1.27.03,2.61.04,4.02h.1c.49.03.99.04,1.51.04.81,0,1.68-.03,2.6-.1.85-.06,1.67-.09,2.44-.09,1.07,0,2.09.06,3.02.17.28-.03.56-.04.83-.04l.59.03c1.66.2,3.23.52,4.67.97,1.85.57,3.62,1.63,5.27,3.15,1.55,1.35,3.35,3.79,3.35,7.81,0,1.33-.2,2.73-.6,4.16-.49,1.73-1.19,3.12-2.16,4.25l-.27.29c-1.17,1.17-2.59,2.05-4.22,2.62-1.25.43-2.51.73-3.76.9-1.15.15-2.14.22-3.05.22h-67.02c-.34,0-.85.02-1.54.05-.85.04-1.49.06-1.94.07-.75.03-1.5.05-2.27.05ZM482.75,83v-7.51c-1.36,0-2.77.03-4.21.05-.31,0-.61,0-.92.01.03.99.05,2.14.07,3.43.02,1.27.03,2.61.04,4.02h5.02ZM462.46,41.16c-.17,1.42-.16,2.79.04,4.05.15.94.48,1.73,1.01,2.43.59.77,1.48,1.47,2.66,2.09,1.24.65,2.98,1.07,5.18,1.25l.15.02c2.73.31,5.56.59,8.42.82.74.06,1.48.09,2.2.09h0c1.68,0,3.36-.17,4.99-.49l.11-.02c1.15-.2,2.33-.49,3.51-.87,1.02-.32,1.97-.74,2.83-1.26.7-.42,1.3-.94,1.82-1.57.42-.51.73-1.12.95-1.85.1-.49.14-.94.1-1.36v-.21c-.17-4.02-1.64-5.25-2.12-5.66-1.7-1.42-3.94-2.29-6.83-2.65-2.07-.22-4.75-.47-8.09-.76-1.06-.09-2.13-.14-3.17-.14-1.79,0-3.57.13-5.31.4-2.48.38-4.65,1.13-6.47,2.25-.75.46-1.65,1.27-1.99,3.45Z"/>
    <path class="cls-2" d="M477.55,14.93c1.88,0,3.75.08,5.64.23,3.28.24,6.56.56,9.84.96,3.28.4,6.44,1.28,9.48,2.64,1.36.64,2.68,1.4,3.96,2.28,1.28.88,2.48,1.92,3.6,3.12,2.8,3.04,4.72,6.32,5.76,9.84,1.04,3.52,1.4,7.28,1.08,11.28-.48,6.24-2.32,11.22-5.52,14.94-3.2,3.72-7.2,6.42-12,8.1.88.48,1.6,1.12,2.16,1.92.56.8.88,1.76.96,2.88.08,1.28.14,3.26.18,5.94.04,2.68.06,5.66.06,8.94h4.8c.58.03,1.17.05,1.79.05.93,0,1.91-.04,2.95-.11.74-.05,1.43-.08,2.09-.08.88,0,1.68.05,2.41.14.16.05.32.08.48.08.08,0,.16,0,.24-.02.24-.04.48-.06.72-.06,1.36.16,2.62.42,3.78.78,1.16.36,2.3,1.06,3.42,2.1,1.12.96,1.68,2.32,1.68,4.08,0,.88-.14,1.82-.42,2.82-.28,1-.66,1.78-1.14,2.34-.64.64-1.42,1.12-2.34,1.44-.92.32-1.84.54-2.76.66-.92.12-1.72.18-2.4.18h-67.02c-.4,0-1,.02-1.8.06-.8.04-1.4.06-1.8.06-.7.03-1.42.05-2.15.05-1.09,0-2.22-.04-3.37-.11-1.92-.12-3.56-.74-4.92-1.86-1.68-1.52-2.52-3.24-2.52-5.16,0-1.2.36-2.44,1.08-3.72.72-1.28,1.68-2.16,2.88-2.64,1.6-.64,3.26-.96,4.98-.96s3.46-.04,5.22-.12h.6c1.2,0,2.62-.02,4.26-.06,1.64-.04,3.1-.06,4.38-.06-.08-.32-.12-.72-.12-1.2v-11.64c0-.72.12-1.44.36-2.16.16-.64.44-1.3.84-1.98.4-.68.96-1.34,1.68-1.98-2.96-.72-5.74-1.84-8.34-3.36-2.6-1.52-4.86-3.68-6.78-6.48-1.84-2.48-3.06-5.12-3.66-7.92-.6-2.8-.9-5.72-.9-8.76,0-6.24,1.66-11.46,4.98-15.66,3.32-4.2,7.86-7.22,13.62-9.06,3.84-1.28,7.74-2.1,11.7-2.46,2.09-.19,4.19-.29,6.3-.29M482.14,56.91c2.02,0,4.01-.2,5.97-.59,1.36-.24,2.74-.58,4.14-1.02,1.4-.44,2.7-1.02,3.9-1.74,1.2-.72,2.24-1.62,3.12-2.7.88-1.08,1.52-2.34,1.92-3.78.24-1.04.32-2.04.24-3-.16-4.16-1.46-7.26-3.9-9.3-2.44-2.04-5.58-3.3-9.42-3.78-2.24-.24-5-.5-8.28-.78-1.21-.1-2.41-.15-3.6-.15-2.04,0-4.06.15-6.06.45-3.16.48-5.94,1.46-8.34,2.94-2.4,1.48-3.84,3.82-4.32,7.02-.24,1.92-.22,3.76.06,5.52.28,1.76.94,3.32,1.98,4.68,1.04,1.36,2.48,2.52,4.32,3.48,1.84.96,4.2,1.56,7.08,1.8,2.8.32,5.66.6,8.58.84.88.07,1.75.11,2.61.11M489.31,70.36c-.72.08-1.44.12-2.16.12h-2.16c-2.08,0-4.26.02-6.54.06-.46,0-.93.01-1.39.01-1.82,0-3.66-.06-5.51-.19.56.96.88,1.88.96,2.76.08,1.28.14,3.26.18,5.94.04,2.68.06,5.66.06,8.94h15.12c-.08-.32-.12-.76-.12-1.32v-11.64c0-.48.08-1,.24-1.56.16-.4.32-.88.48-1.44.16-.56.44-1.12.84-1.68M477.55,4.93c-2.4,0-4.82.11-7.21.33-4.68.43-9.36,1.41-13.9,2.91-7.64,2.45-13.82,6.61-18.36,12.37-4.73,5.99-7.13,13.34-7.13,21.86,0,3.73.38,7.38,1.12,10.86.89,4.14,2.67,8.05,5.3,11.63,2.73,3.94,6.05,7.07,9.88,9.31.17.1.34.2.51.3,0,.18,0,.37,0,.55v2.99c-1.44.06-2.9.09-4.34.09-2.99,0-5.91.56-8.69,1.67-3.32,1.33-6.04,3.76-7.88,7.02-1.57,2.79-2.37,5.69-2.37,8.62,0,3.34,1.01,8.23,5.81,12.57l.35.31c2.97,2.45,6.65,3.87,10.65,4.12,1.36.08,2.7.13,3.99.13.81,0,1.61-.02,2.4-.05.52,0,1.17-.03,2.04-.07.88-.05,1.25-.05,1.31-.05h67.02c1.12,0,2.33-.09,3.69-.26,1.58-.21,3.17-.59,4.74-1.13,2.37-.83,4.42-2.1,6.13-3.81l.54-.58c1.43-1.67,2.49-3.73,3.17-6.13.53-1.89.79-3.75.79-5.53,0-4.59-1.78-8.68-5.01-11.53-2.19-2-4.59-3.41-7.13-4.2-1.74-.54-3.61-.93-5.57-1.16l-1.18-.07c-.24,0-.48,0-.72.02-.99-.1-2.04-.16-3.14-.16-.55,0-1.12.01-1.71.04-.04-2.24-.1-3.95-.17-5.22,2.37-1.71,4.53-3.69,6.47-5.94,4.61-5.36,7.27-12.32,7.91-20.7.41-5.18-.08-10.19-1.46-14.88-1.47-4.98-4.16-9.62-7.99-13.78l-.05-.05c-1.6-1.72-3.36-3.24-5.23-4.53-1.73-1.19-3.53-2.22-5.37-3.09l-.19-.09c-3.94-1.76-8.09-2.92-12.35-3.44-3.43-.42-6.89-.76-10.29-1.01-2.13-.17-4.28-.25-6.4-.25h0ZM467.43,41.76c1.18-.66,2.57-1.1,4.24-1.36,1.49-.23,3.03-.34,4.56-.34.9,0,1.83.04,2.75.12,3.25.28,5.86.52,7.97.75,1.82.24,3.2.73,4.12,1.48.06.13.31.7.37,2.05v.16c-.12.14-.26.26-.43.36-.52.31-1.11.57-1.75.77-.98.31-1.95.55-2.89.71l-.22.04c-1.31.26-2.65.39-4.01.39-.59,0-1.19-.03-1.79-.07-2.81-.23-5.59-.5-8.26-.81l-.31-.03c-2.15-.18-3.06-.58-3.29-.7-.77-.4-.99-.68-.99-.68-.02-.02-.04-.07-.06-.18-.13-.79-.14-1.65-.03-2.57,0-.04.01-.07.02-.1h0ZM467.51,41.49h0Z"/>
  </g>
  <g>
    <path class="cls-1" d="M545.05,112.47c-1.24,0-2.46-.13-3.64-.38-1.72-.37-3.35-1.06-4.84-2.04-1.84-1.23-3.16-2.87-3.94-4.89l-.04-.11c-.58-1.62-.9-3.45-.95-5.45-.06-2.09.22-4.02.83-5.72l.06-.17c.98-2.44,2.7-4.25,4.97-5.21.78-.33,1.6-.58,2.43-.76-.82-.23-1.62-.52-2.41-.87-2.64-1.18-4.6-3.08-5.66-5.5l-.16-.42c-.35-1.06-.61-2.28-.77-3.73-.12-1.12-.23-2.13-.31-3.05v-.15c-.1-1.5-.12-3.08-.08-4.69.04-1.43.06-2.89.06-4.36V24.76c0-1.23.14-2.7.42-4.5.34-2.17,1.02-4.09,2-5.68,1.19-1.93,2.85-3.36,4.93-4.25,1.74-.75,3.49-1.12,5.21-1.12.96,0,1.9.02,2.82.07,1.1.05,2.17.19,3.2.39l.4.1c3.13.89,5.48,2.96,6.8,5.98.93,2.12,1.53,4.54,1.78,7.18.22,2.37.27,4.74.13,7.06-.11,1.97-.17,3.57-.17,4.75v40.2c0,2.21-.4,4.35-1.18,6.37l-.04.1c-1.06,2.58-3.07,4.55-5.8,5.7-.66.28-1.34.51-2.03.7,2.1.46,4,1.49,5.54,3.03l.76.97c.27.45.51.87.74,1.27.36.65.66,1.35.92,2.11l.08.27c.32,1.17.53,2.4.64,3.66.13,1.52,0,3.03-.38,4.49-.39,1.49-1.04,2.9-1.94,4.18-1.1,1.57-2.58,2.75-4.38,3.52-1.41.63-3.02,1.01-4.78,1.12-.41.03-.82.04-1.22.04Z"/>
    <path class="cls-2" d="M543.19,14.2c.88,0,1.74.02,2.58.06.84.04,1.66.14,2.46.3,1.68.48,2.88,1.54,3.6,3.18.72,1.64,1.18,3.52,1.38,5.64.2,2.12.24,4.22.12,6.3-.12,2.08-.18,3.76-.18,5.04v40.2c0,1.6-.28,3.12-.84,4.56-.56,1.36-1.6,2.36-3.12,3-1.43.6-2.93.9-4.5.9-.1,0-.2,0-.3,0-1.68-.04-3.28-.4-4.8-1.08-1.52-.68-2.56-1.66-3.12-2.94-.24-.72-.42-1.62-.54-2.7s-.22-2.06-.3-2.94c-.08-1.36-.1-2.78-.06-4.26.04-1.48.06-2.98.06-4.5V24.76c0-.96.12-2.2.36-3.72.24-1.52.68-2.8,1.32-3.84.64-1.04,1.52-1.8,2.64-2.28,1.12-.48,2.2-.72,3.24-.72M544.33,92.4c1.01,0,2,.05,2.99.16,1.48.16,2.74.76,3.78,1.8.24.4.46.78.66,1.14.2.36.38.78.54,1.26.24.88.4,1.8.48,2.76.08.96,0,1.9-.24,2.82-.24.92-.64,1.78-1.2,2.58-.56.8-1.32,1.4-2.28,1.8-.88.4-1.92.64-3.12.72-.3.02-.6.03-.89.03-.89,0-1.75-.09-2.59-.27-1.12-.24-2.16-.68-3.12-1.32-.96-.64-1.64-1.48-2.04-2.52-.4-1.12-.62-2.42-.66-3.9-.04-1.48.14-2.78.54-3.9.48-1.2,1.24-2.02,2.28-2.46,1.04-.44,2.16-.66,3.36-.66.51-.03,1.01-.04,1.51-.04M543.19,4.2c-2.4,0-4.81.51-7.18,1.53-3,1.28-5.5,3.44-7.21,6.23-1.33,2.16-2.24,4.69-2.68,7.52-.33,2.06-.48,3.78-.48,5.28v40.2c0,1.4-.02,2.83-.06,4.24-.05,1.74-.02,3.46.07,5.11l.02.31c.08.89.19,1.92.32,3.15.2,1.8.52,3.36.99,4.76l.32.83c.73,1.67,1.73,3.17,2.99,4.46-.98,1.18-1.79,2.54-2.39,4.03l-.13.33c-.82,2.29-1.2,4.83-1.12,7.55.07,2.52.48,4.88,1.24,6.99l.08.22c1.14,2.96,3.15,5.46,5.82,7.25,2.03,1.35,4.24,2.28,6.59,2.79,1.51.32,3.09.49,4.67.49.51,0,1.03-.02,1.55-.05,2.35-.16,4.52-.67,6.46-1.53,2.63-1.13,4.86-2.93,6.47-5.22,1.25-1.79,2.15-3.74,2.69-5.79.52-2.02.7-4.09.53-6.17-.13-1.58-.4-3.11-.8-4.57l-.17-.55c-.35-1.04-.77-2.02-1.26-2.9l-.03-.05c-.25-.44-.52-.91-.81-1.4l-1.06-1.36c1.23-1.32,2.22-2.86,2.93-4.58l.08-.19c1.01-2.59,1.52-5.35,1.52-8.18v-40.2c0-1.09.05-2.59.16-4.46.15-2.56.1-5.19-.15-7.81-.3-3.18-1.03-6.12-2.18-8.73-1.92-4.36-5.47-7.48-10.01-8.77l-.79-.19c-1.27-.25-2.59-.42-3.92-.48-1.03-.05-2.05-.07-3.07-.07h0Z"/>
  </g>
  <g>
    <path class="cls-1" d="M154.33,116.64c-1.77,0-3.6-.04-5.44-.12-2.93-.14-5.52-1.27-7.51-3.26-1.95-1.95-3.08-4.46-3.36-7.46-.17-1.48-.28-3.13-.33-4.89-.04-1.69-.06-3.11-.06-4.26v-.87c-.09-1.13-.06-2.39.08-3.82.22-2.19,1.02-4.14,2.37-5.79l.21-.24c.42-.45.87-.86,1.35-1.23-.84-.59-1.58-1.37-2.17-2.32-1.76-2.7-2.27-5.86-1.43-9.07l.16-.5c.5-1.32,1.25-2.43,2.24-3.32-.23-.06-.47-.13-.71-.22-3.64-.92-5.44-2.86-6.32-4.41-1.16-1.91-1.56-4.12-1.15-6.42.29-1.63.81-3.15,1.55-4.51l.35-.55c.77-1.06,1.64-2.1,2.58-3.09.77-.81,1.54-1.64,2.32-2.49.79-.88,2-2.09,3.68-3.68,1.55-1.47,3.11-2.97,4.69-4.52,1.62-1.58,3.12-3.02,4.5-4.32.35-.33.67-.63.95-.89v-1.39h-2.68c-.92,0-1.99.02-3.21.06-.31,0-.62.02-.93.02-1.22,0-2.45-.08-3.65-.23-1.79-.23-3.48-.74-5.02-1.51-2.09-1.04-3.69-2.8-4.63-5.08-.6-1.34-.98-2.83-1.16-4.44-.18-1.7-.08-3.33.3-4.86l.04-.15c.75-2.62,2.57-4.62,5.14-5.63,1.46-.57,2.9-.97,4.3-1.19l.75-.06,39.84-.12c3.54,0,6.48.22,9.01.68,3.36.61,6.13,2.19,8.25,4.68,1.03,1.23,1.66,2.71,1.92,4.42.19,1.28.19,2.59,0,3.91-.2,1.37-.6,2.67-1.2,3.87-.84,1.69-2.14,3-3.74,3.8l-.48.21c-.73.27-1.58.56-2.52.86-1.18.38-2.22.62-3.18.74l-.25.02c-.86.06-1.75.09-2.62.09-.44,0-.89,0-1.33-.02-1.1-.04-2.18-.06-3.24-.06h-3.03c0,.44.02.86.03,1.26.17.15,3.11,2.76,3.11,2.76.85.69,1.72,1.43,2.59,2.21.9.82,1.83,1.7,2.76,2.63.61.62,1.18,1.2,1.7,1.76.43.47.82.88,1.17,1.23,1.61,1.61,3.23,3.36,4.82,5.19,1.96,2.27,3.34,4.68,4.1,7.16.49,1.5.58,3.12.27,4.81-.21,1.16-.76,2.72-2.12,4.18h8.82c-.87-1.05-1.51-2.23-1.92-3.52-.61-1.95-.89-3.36-.89-4.56V22.6c-.09-.84-.04-1.89.15-3.56.22-1.99.7-3.76,1.44-5.23.91-1.89,3.24-5.07,8.71-5.65.78-.1,1.54-.15,2.27-.15,4.48,0,7.17,1.94,8.63,3.58l.28.35c.8,1.06,1.39,2.16,1.76,3.27.22.67.42,1.36.61,2.07.36,1.17.55,2.55.61,4.35.04,1.46.02,2.65-.06,3.62v4.69c.95.04,1.88.11,2.76.19,1.08.1,1.85.2,2.44.31,2.58.52,4.47,1.38,5.81,2.63,1.36,1.28,2.28,2.92,2.66,4.75.32,1.26.49,2.66.49,4.18,0,2.07-.48,3.93-1.43,5.51-1.76,2.93-4.63,4.74-8.09,5.1-1.44.15-2.99.27-4.63.35v4.81c0,3.2-.95,6.06-2.84,8.51-.6.78-1.42,1.62-2.5,2.35.06.04.13.07.19.11,3.71,2.13,5.75,5.82,5.75,10.4v9.36c0,1.85-.4,3.64-1.18,5.34-.7,1.52-1.8,2.88-3.28,4.03,1.47.85,3.29,2.46,4.23,5.46,1.66,5.43-.66,10.07-6.04,12.14-1.42.58-2.89.94-4.38,1.06-1.15.09-2.23.14-3.22.14h-60.78ZM154.99,66.08c.59,0,1.16.03,1.68.1.08,0,.2.02.48.02h21.5c-.44-.28-.84-.55-1.22-.84-1.67-1.23-3.25-2.56-4.68-3.95-1.3-1.25-2.6-2.53-3.9-3.83-.79-.79-1.69-1.7-2.68-2.73-.55.55-1.11,1.08-1.66,1.59-.42.39-.81.8-1.17,1.22l-.13.14c-1.06,1.15-2.17,2.31-3.31,3.49-1.33,1.37-2.84,2.68-4.51,3.88-.43.32-.87.62-1.3.9h.9Z"/>
    <path class="cls-2" d="M216.55,13c2.13,0,3.76.64,4.92,1.92.48.64.82,1.26,1.02,1.86.2.6.38,1.22.54,1.86.24.72.38,1.76.42,3.12.04,1.36.02,2.44-.06,3.24v9.72c.32,0,.92.02,1.8.06.88.04,1.8.08,2.76.12.96.04,1.88.1,2.76.18.88.08,1.52.16,1.92.24,1.6.32,2.72.78,3.36,1.38.64.6,1.04,1.34,1.2,2.22.24.88.36,1.9.36,3.06s-.24,2.14-.72,2.94c-.96,1.6-2.4,2.5-4.32,2.7-1.92.2-4.04.34-6.36.42h-2.76v9.72c0,2.08-.6,3.9-1.8,5.46s-3.04,2.34-5.52,2.34c-1.36,0-2.48-.28-3.36-.84-1.6-.96-2.62-2.14-3.06-3.54-.44-1.4-.66-2.42-.66-3.06V22.24c-.08-.32-.04-1.2.12-2.64.16-1.44.48-2.64.96-3.6.8-1.68,2.4-2.64,4.8-2.88.59-.08,1.15-.12,1.68-.12M181.99,14.8c3.2,0,5.9.2,8.1.6,2.2.4,3.98,1.4,5.34,3,.4.48.66,1.12.78,1.92.12.8.12,1.62,0,2.46s-.36,1.62-.72,2.34c-.36.72-.86,1.24-1.5,1.56-.64.24-1.4.5-2.28.78-.88.28-1.64.46-2.28.54-.75.05-1.5.08-2.26.08-.38,0-.77,0-1.16-.02-1.16-.04-2.3-.06-3.42-.06h-7.92c-.08,1.6-.12,2.92-.12,3.96s.02,2.02.06,2.94c.04.92.06,1.46.06,1.62.4.4,1.12,1.06,2.16,1.98,1.04.92,1.92,1.7,2.64,2.34.8.64,1.62,1.34,2.46,2.1.84.76,1.7,1.58,2.58,2.46.56.56,1.08,1.1,1.56,1.62.48.52.92.98,1.32,1.38,1.52,1.52,3.04,3.16,4.56,4.92,1.52,1.76,2.56,3.56,3.12,5.4.24.72.28,1.52.12,2.4-.16.88-.68,1.64-1.56,2.28-1.36.8-2.8,1.2-4.32,1.2-1.76,0-3.44-.36-5.04-1.08-1.6-.72-2.88-1.44-3.84-2.16-1.52-1.12-2.92-2.3-4.2-3.54-1.28-1.24-2.56-2.5-3.84-3.78-.88-.88-1.88-1.9-3-3.06-1.12-1.16-2.24-2.18-3.36-3.06l-3.24,3.24c-.56.56-1.12,1.1-1.68,1.62-.56.52-1.08,1.06-1.56,1.62-1.04,1.12-2.12,2.26-3.24,3.42-1.12,1.16-2.4,2.26-3.84,3.3-3.28,2.4-6.36,3.6-9.24,3.6h-1.02c-.28,0-.62-.08-1.02-.24-1.76-.4-2.92-1.12-3.48-2.16-.56-.88-.74-1.88-.54-3,.2-1.12.54-2.12,1.02-3,.64-.88,1.36-1.74,2.16-2.58.8-.84,1.6-1.7,2.4-2.58.72-.8,1.86-1.94,3.42-3.42,1.56-1.48,3.14-3,4.74-4.56,1.6-1.56,3.08-2.98,4.44-4.26,1.36-1.28,2.2-2.08,2.52-2.4v-8.52h-7.68c-.96,0-2.08.02-3.36.06-.26,0-.52.01-.78.01-1.01,0-2.02-.06-3-.19-1.24-.16-2.38-.5-3.42-1.02-1.04-.52-1.8-1.38-2.28-2.58-.4-.88-.66-1.88-.78-3-.12-1.12-.06-2.16.18-3.12.32-1.12,1.04-1.9,2.16-2.34,1.12-.44,2.2-.74,3.24-.9l39.84-.12M154.99,71.08c.4,0,.76.02,1.08.06.32.04.68.06,1.08.06h54.24c4.08,0,7.2.62,9.36,1.86,2.16,1.24,3.24,3.26,3.24,6.06v9.36c0,1.12-.24,2.2-.72,3.24-.48,1.04-1.36,1.96-2.64,2.76-1.12.64-2.2.98-3.24,1.02-1.04.04-2.04.06-3,.06h-57v5.64h61.2c1.2.08,2.3.38,3.3.9,1,.52,1.7,1.42,2.1,2.7.88,2.88-.16,4.88-3.12,6-.96.4-1.94.64-2.94.72-1,.08-1.94.12-2.82.12h-60.78c-1.72,0-3.46-.04-5.22-.12-1.68-.08-3.08-.68-4.2-1.8-1.12-1.12-1.76-2.6-1.92-4.44-.16-1.36-.26-2.86-.3-4.5-.04-1.64-.06-3.02-.06-4.14v-1.08c-.08-.88-.06-1.92.06-3.12.12-1.2.54-2.24,1.26-3.12,1.04-1.12,2.5-1.84,4.38-2.16,1.88-.32,3.7-.48,5.46-.48h2.52c.32,0,.62.02.9.06.28.04.54.06.78.06h52.2v-5.16h-53.4c-.4,0-.84-.02-1.32-.06-.16-.01-.31-.02-.46-.02-.3,0-.59.03-.86.08h-5.16c-.64,0-1.28-.08-1.92-.24-.64-.16-1.26-.32-1.86-.48-.6-.16-1.1-.56-1.5-1.2-1.04-1.6-1.32-3.32-.84-5.16.24-.64.6-1.14,1.08-1.5.48-.36,1.04-.66,1.68-.9.64-.24,1.26-.42,1.86-.54.6-.12,1.14-.22,1.62-.3.64-.08,1.26-.14,1.86-.18.6-.04,1.26-.06,1.98-.06h2.04M216.55,3c-.92,0-1.88.06-2.86.19-5.27.58-9.56,3.2-12.01,7.3-2.67-2.54-6.02-4.23-9.81-4.92-2.83-.51-6.06-.76-9.89-.76h-.03s-39.84.12-39.84.12l-1.5.12c-1.76.27-3.56.77-5.36,1.47-4,1.57-6.96,4.82-8.13,8.91l-.08.31c-.53,2.1-.67,4.33-.42,6.61.22,2.1.74,4.08,1.53,5.87,1.41,3.38,3.83,6,7.01,7.59,2.02,1.02,4.25,1.69,6.61,1.99.09.01.19.02.28.04-.95.92-1.87,1.79-2.77,2.65-1.8,1.71-3.06,2.97-3.97,3.98-.69.76-1.42,1.55-2.22,2.38-1.09,1.14-2.1,2.35-3,3.59l-.7,1.1c-1,1.83-1.7,3.86-2.08,6.03-.62,3.48-.01,6.87,1.77,9.82.83,1.44,2.13,3.07,4.16,4.44l-.06.2c-1.13,4.35-.49,8.81,1.82,12.63-1.25,2.03-2.03,4.34-2.27,6.77-.16,1.65-.2,3.13-.11,4.5v.7c0,1.25.02,2.73.06,4.39.05,1.89.16,3.67.35,5.29.39,4.11,2.05,7.73,4.8,10.47,2.88,2.88,6.62,4.52,10.79,4.72,1.95.09,3.86.13,5.7.13h60.78c1.12,0,2.34-.05,3.61-.15,2.01-.16,3.97-.63,5.85-1.4,7.79-3.03,11.4-10.32,8.99-18.21l-.02-.07c-.49-1.55-1.19-2.98-2.08-4.24.33-.54.63-1.09.9-1.67,1.09-2.35,1.64-4.85,1.64-7.42v-9.36c0-4.18-1.31-7.94-3.7-10.88,2.03-3.07,3.1-6.67,3.1-10.48v-.18c.05,0,.11-.01.16-.02,5.06-.52,9.27-3.19,11.86-7.5,1.42-2.37,2.14-5.09,2.14-8.08,0-1.9-.21-3.68-.61-5.32-.61-2.8-2.02-5.3-4.1-7.25-2.06-1.93-4.75-3.2-8.24-3.9-.37-.07-.76-.14-1.2-.2.08-1.09.09-2.36.05-3.85-.07-2.22-.32-4-.79-5.57-.2-.77-.43-1.53-.67-2.26-.55-1.65-1.4-3.23-2.51-4.72l-.57-.69c-2.15-2.39-6.03-5.23-12.35-5.23h0ZM191.11,37.86c1.14-.17,2.33-.46,3.64-.88,1.01-.32,1.93-.64,2.74-.94l.96-.42c.18-.09.36-.18.53-.28v10.83c-1.5-1.71-3.02-3.33-4.52-4.84-.31-.31-.65-.66-1.04-1.09-.57-.62-1.16-1.23-1.84-1.91-.16-.16-.32-.32-.48-.48h0Z"/>
  </g>
</svg>