<?xml version="1.0" encoding="UTF-8"?>
<svg id="_레이어_1" data-name="레이어 1" xmlns="http://www.w3.org/2000/svg" viewBox="0 0 716.43 95.23">
  <defs>
    <style>
      .cls-1 {
        fill: #fff;
        stroke-width: 0px;
      }
    </style>
  </defs>
  <path class="cls-1" d="M43.75,6.95c1.03,0,1.98.05,2.85.15,1.6.07,3.05.15,4.35.25s2.62.28,3.95.55c1.13.27,2.38.58,3.75.95,1.37.37,2.71.82,4.05,1.35.6.27,1.23.57,1.9.9.67.33,1.37.73,2.1,1.2,1.87,1.13,3.17,2.2,3.9,3.2.6.8,1.15,1.58,1.65,2.35.5.77.92,1.52,1.25,2.25.4.67.73,1.4,1,2.2.27.8.47,1.57.6,2.3.13.73.25,1.43.35,2.1.1.67.08,1.4-.05,2.2,0,.73-.02,1.42-.05,2.05-.03.63-.12,1.32-.25,2.05-.33,2.53-1.12,4.8-2.35,6.8-1.23,2-3.08,3.7-5.55,5.1-2.27,1.33-5,2.37-8.2,3.1-3.2.73-6.8,1.1-10.8,1.1h-10.55c-1.23,0-2.48-.07-3.75-.2-1.33-.07-2.62-.2-3.85-.4-1.23-.2-2.45-.43-3.65-.7-1.13-.2-2.23-.48-3.3-.85-1.07-.37-2.1-.82-3.1-1.35-1.73-1.13-3.22-2.32-4.45-3.55-1.23-1.23-2.15-2.65-2.75-4.25-.73-1.53-1.27-3.1-1.6-4.7-.33-1.6-.5-3.3-.5-5.1s.17-3.37.5-4.9c.33-1.53.87-2.9,1.6-4.1.73-1.33,1.7-2.58,2.9-3.75,1.2-1.17,2.6-2.28,4.2-3.35.73-.53,1.55-.97,2.45-1.3.9-.33,1.95-.67,3.15-1,2.2-.6,4.63-1.17,7.3-1.7,1.33-.27,2.62-.45,3.85-.55,1.23-.1,2.48-.18,3.75-.25,1.2-.1,2.32-.15,3.35-.15M43.4,37.8h7.2c2.4-.27,4.6-.6,6.6-1,2.07-.87,3.53-1.83,4.4-2.9.27-.73.43-1.42.5-2.05.07-.63.17-1.32.3-2.05,0-1.53-.27-2.83-.8-3.9-.33-.67-.75-1.27-1.25-1.8-.5-.53-1.12-1-1.85-1.4-.73-.53-1.67-.92-2.8-1.15-1.13-.23-2.3-.35-3.5-.35-2-.27-4.5-.47-7.5-.6-.98-.09-1.94-.13-2.89-.13-.47,0-.94.01-1.41.03-1.4.07-2.8.13-4.2.2-1.4.13-2.72.33-3.95.6-1.23.27-2.38.7-3.45,1.3-2.27.87-3.57,2.37-3.9,4.5-.33,1.4-.33,2.57,0,3.5.13.67.33,1.27.6,1.8.27.53.7,1.03,1.3,1.5.87.87,2.13,1.57,3.8,2.1,1.47.8,3.57,1.2,6.3,1.2,1,.13,2.02.23,3.05.3,1.03.07,2.18.17,3.45.3M72.9,55.9c.67,0,1.25.05,1.75.15s1.05.25,1.65.45c1.07.4,1.97,1.03,2.7,1.9.4.47.65.95.75,1.45.1.5.15,1.12.15,1.85,0,1.87-.54,3.1-1.6,3.7-.53.53-1.15.95-1.85,1.25-.7.3-1.42.52-2.15.65-1.4.47-3,.7-4.8.7h-19.6c.07.27.1.63.1,1.1v10.3c0,.53-.07.96-.2,1.3-.13.73-.27,1.4-.4,2-.13.6-.37,1.23-.7,1.9-.47,1.13-1.27,2.13-2.4,3-.53.33-1.08.55-1.65.65-.57.1-1.18.18-1.85.25-.73,0-1.38-.07-1.95-.2-.57-.13-1.12-.3-1.65-.5-.93-.6-1.63-1.37-2.1-2.3-.2-.53-.35-1.07-.45-1.6-.1-.54-.18-1-.25-1.4,0-.4-.04-.83-.1-1.3-.07-.47-.1-.87-.1-1.2.13-.4.2-.82.2-1.25v-1.05c-.13-.8-.2-1.88-.2-3.25v-6.45H14.8c-1.53,0-3-.23-4.4-.7-1.33-.13-2.4-.93-3.2-2.4-.47-.53-.78-1.1-.95-1.7-.17-.6-.25-1.2-.25-1.8,0-1.33.53-2.53,1.6-3.6.2-.2.47-.4.8-.6.33-.2.73-.33,1.2-.4.33-.27.68-.42,1.05-.45.37-.03.78-.12,1.25-.25.33-.13.63-.2.9-.2h60.1M43.75.95c-1.17,0-2.43.05-3.76.16-1.32.07-2.6.16-3.83.26-1.45.12-2.97.33-4.54.65-2.81.56-5.4,1.17-7.71,1.8-1.41.39-2.59.77-3.65,1.16-1.38.51-2.65,1.18-3.79,2-1.85,1.24-3.52,2.58-4.96,3.97-1.59,1.55-2.9,3.24-3.91,5.04-1.04,1.74-1.81,3.7-2.27,5.84-.42,1.93-.64,4.01-.64,6.17s.21,4.34.63,6.33c.41,1.98,1.07,3.95,1.95,5.83.9,2.3,2.26,4.36,4.03,6.13,1.25,1.25,2.71,2.46,4.34,3.6h-2.85c-.89,0-1.8.16-2.71.47-.01,0-.02,0-.03,0-.96.1-1.88.37-2.74.79-.72.22-1.4.51-2.02.89-.75.45-1.39.94-1.95,1.5-2.2,2.2-3.36,4.91-3.36,7.84,0,1.14.16,2.29.47,3.41.35,1.26.95,2.44,1.78,3.52,1.62,2.65,4,4.34,6.8,4.84,1.84.55,3.77.83,5.75.83h15.4v.45c0,1.45.07,2.67.2,3.69v.29l-.2.6v.97c0,.63.05,1.3.16,2.06.04.25.04.39.04.44v.49l.08.48c.07.44.16.95.27,1.54.16.86.4,1.73.72,2.59l.11.3.14.29c.95,1.91,2.38,3.48,4.23,4.67l.53.34.59.22c.76.29,1.56.53,2.38.72,1.02.24,2.14.36,3.33.36h.3l.3-.03c.81-.08,1.58-.19,2.28-.31,1.32-.23,2.6-.73,3.79-1.47l.24-.15.23-.18c1.91-1.46,3.33-3.24,4.21-5.27.5-1.03.87-2.07,1.1-3.08.13-.57.25-1.17.37-1.83.25-.86.37-1.77.37-2.79v-5.4h13.5c2.28,0,4.4-.3,6.3-.88,1.02-.22,2.04-.54,3.01-.95,1.18-.51,2.26-1.19,3.21-2.03,1.71-1.22,3.88-3.71,3.88-8.43,0-1.14-.09-2.12-.27-3.02-.3-1.52-1-2.93-2.08-4.18-1.38-1.63-3.12-2.85-5.14-3.61l-.11-.04-.11-.04c-.83-.28-1.63-.49-2.37-.64-.9-.18-1.85-.27-2.93-.27h-2.36c3.16-1.86,5.62-4.2,7.32-6.95,1.65-2.68,2.72-5.71,3.17-9.02.16-.92.27-1.81.31-2.65.03-.62.05-1.26.06-1.93.16-1.23.15-2.41-.01-3.53-.11-.73-.24-1.49-.38-2.28-.18-1.01-.46-2.06-.81-3.12-.37-1.11-.83-2.14-1.37-3.09-.43-.91-.95-1.83-1.55-2.74-.57-.88-1.2-1.77-1.86-2.66-1.21-1.63-3.02-3.17-5.55-4.71-.88-.56-1.75-1.05-2.57-1.47-.77-.38-1.48-.72-2.15-1.02l-.11-.05-.11-.04c-1.55-.62-3.13-1.15-4.72-1.57-1.44-.38-2.76-.72-3.93-1l-.1-.02-.1-.02c-1.57-.31-3.14-.53-4.66-.65-1.3-.1-2.73-.18-4.35-.25-1.03-.11-2.14-.16-3.31-.16h0ZM36.63,26.69c1.33-.06,2.67-.13,4-.19h.06c.36-.02.74-.03,1.12-.03.77,0,1.56.04,2.35.11h.14s.14.02.14.02c2.81.13,5.16.31,6.98.55l.39.05h.4c.79,0,1.56.08,2.29.23.32.07.47.13.52.15l.28.2.34.18c.25.14.34.23.35.24.1.11.18.23.26.38.01.02.11.24.15.78-.07.43-.13.85-.18,1.26-.21.12-.47.26-.8.41-1.58.3-3.3.55-5.14.76h-6.55c-1.22-.12-2.35-.22-3.37-.29-.9-.06-1.78-.14-2.64-.26l-.4-.05h-.4c-2.5,0-3.34-.42-3.43-.47l-.5-.27-.55-.17c-1.05-.34-1.39-.63-1.39-.63l-.26-.26-.08-.4-.04-.1c.01-.09.03-.22.07-.39l.05-.23s.09-.04.15-.06l.41-.16.39-.22c.54-.31,1.12-.52,1.77-.66.96-.21,2-.37,3.11-.48h0Z"/>
  <path class="cls-1" d="M144.78,8.48c1.11,0,2.18.11,3.23.32,1.3.27,2.46.77,3.5,1.5,1.03.73,1.71,1.9,2.05,3.5.4,1.87.12,3.28-.85,4.25-.97.97-2.2,1.67-3.7,2.1-1.5.43-3.08.67-4.75.7-.56.01-1.08.02-1.57.02-.98,0-1.82-.02-2.53-.07-1.07-.07-2.18-.12-3.35-.15-1.17-.03-2.28-.05-3.35-.05-1.2,0-2.4.03-3.6.1v8.1c.93.53,1.8,1,2.6,1.4.4.2.78.42,1.15.65.37.23.75.48,1.15.75.67.33,1.32.67,1.95,1,.63.33,1.28.7,1.95,1.1,1.27.73,2.52,1.47,3.75,2.2,1.23.73,2.48,1.47,3.75,2.2,1.27.67,2.5,1.45,3.7,2.35,1.2.9,2.33,1.85,3.4,2.85.53.53.9,1.2,1.1,2,.2.8.22,1.6.05,2.4-.17.8-.5,1.52-1,2.15-.5.63-1.15,1.05-1.95,1.25-1,.25-2.03.38-3.07.38-1.17,0-2.37-.16-3.58-.48-2.3-.6-4.42-1.37-6.35-2.3-1.8-.93-3.47-1.82-5-2.65-1.53-.83-3.07-1.72-4.6-2.65-.47-.33-1.08-.72-1.85-1.15-.77-.43-1.52-.88-2.25-1.35-.87-.53-1.8-1.07-2.8-1.6-1.13.6-2.23,1.17-3.3,1.7-.93.47-1.85.92-2.75,1.35-.9.43-1.62.82-2.15,1.15-1.73,1-3.33,1.87-4.8,2.6-1.47.73-3.07,1.57-4.8,2.5-1.33.67-2.68,1.38-4.05,2.15-1.16.65-2.39.98-3.67.98-.22,0-.45,0-.68-.03-1.2-.13-2.37-.5-3.5-1.1-1.13-.6-1.83-1.63-2.1-3.1-.13-.8-.07-1.67.2-2.6.27-1.13.72-2.07,1.35-2.8.63-.73,1.42-1.4,2.35-2l6.9-3.9c1.13-.67,2.13-1.22,3-1.65.87-.43,1.9-.98,3.1-1.65,1.13-.67,2.45-1.42,3.95-2.25,1.5-.83,2.92-1.52,4.25-2.05v-8.1h-10.6c-1.07,0-1.98.02-2.75.05-.16,0-.32.01-.48.01-.65,0-1.37-.05-2.17-.16-.73-.13-1.54-.2-2.4-.2s-1.67-.2-2.4-.6c-.73-.4-1.33-1.1-1.8-2.1-.4-.73-.63-1.6-.7-2.6s.07-1.9.4-2.7c.53-1.2,1.4-2.1,2.6-2.7,1.2-.6,2.43-.9,3.7-.9h2.3c.71.04,1.29.07,1.75.07.23,0,.43,0,.6-.02.5-.03,1.28-.05,2.35-.05h34.6c1.07,0,2.3-.03,3.7-.1.28-.01.55-.02.82-.02M150.72,57.35c.58,0,1.17.02,1.79.05,1.23.07,2.38.28,3.45.65,1.07.37,1.97.97,2.7,1.8.73.83,1.1,1.98,1.1,3.45,0,1.67-.57,2.92-1.7,3.75-1.13.83-2.48,1.43-4.05,1.8-1.57.37-3.18.57-4.85.6-1.67.03-3.03.05-4.1.05h-3.9c-.89.04-1.76.07-2.62.07-.43,0-.86,0-1.28-.02-1.27-.03-2.57-.05-3.9-.05h-3.8c.07,1.87.13,3.83.2,5.9.07,2.07-.04,3.9-.3,5.5-.13,1.27-.45,2.48-.95,3.65-.5,1.17-1.32,2.12-2.45,2.85-1,.67-2.17,1.02-3.5,1.05-.07,0-.14,0-.2,0-1.25,0-2.38-.28-3.4-.85-.87-.53-1.52-1.3-1.95-2.3-.43-1-.72-1.97-.85-2.9-.13-.73-.18-1.54-.15-2.4.03-.87.05-1.67.05-2.4-.07-1.2-.1-2.52-.1-3.95v-4.25h-2.5c-1.87,0-3.55.02-5.05.05-1.5.03-2.95.07-4.35.1-1.4.03-2.85.05-4.35.05h-5.05c-1.53-.07-2.98-.28-4.35-.65-1.37-.37-2.48-1.22-3.35-2.55-.73-1.13-1.08-2.35-1.05-3.65.03-1.3.52-2.42,1.45-3.35.53-.53,1.2-.93,2-1.2.8-.27,1.57-.47,2.3-.6.73-.13,1.38-.2,1.95-.2h55.45c.53-.03,1.09-.05,1.66-.05M144.78,2.48c-.37,0-.73,0-1.1.03-1.29.06-2.44.09-3.42.09h-34.6c-1.21,0-2.1.02-2.75.06-.06,0-.13,0-.2,0-.23,0-.65,0-1.38-.06h-.19s-.19-.01-.19-.01h-2.3c-2.2,0-4.35.52-6.38,1.53-2.44,1.22-4.31,3.17-5.4,5.63l-.03.06-.03.06c-.69,1.66-.98,3.48-.85,5.41.12,1.8.57,3.44,1.33,4.9,1.01,2.1,2.46,3.67,4.29,4.67,1.62.88,3.39,1.33,5.27,1.33.5,0,.95.04,1.33.1l.13.02.14.02c1.06.14,2.05.21,2.97.21.26,0,.51,0,.75-.02.68-.03,1.52-.04,2.48-.04h1.49c-.75.42-1.44.82-2.06,1.19-1.08.6-2.03,1.1-2.81,1.49-.98.49-2.07,1.09-3.31,1.82l-6.86,3.88-.15.08-.14.09c-1.41.91-2.64,1.96-3.65,3.13-1.24,1.44-2.12,3.19-2.62,5.21-.48,1.75-.58,3.46-.31,5.1v.04s.01.04.01.04c.31,1.69.95,3.2,1.88,4.47-1.14.54-2.15,1.25-3.02,2.12-2.02,2.02-3.13,4.6-3.21,7.44-.07,2.52.61,4.9,2.01,7.07,1.67,2.58,4.04,4.33,6.83,5.08,1.78.48,3.68.76,5.64.85h.13s.13,0,.13,0h5.05c1.58,0,3.09-.02,4.5-.05l4.34-.1c.46-.01.94-.02,1.43-.03.02.82.04,1.6.08,2.33,0,.6-.02,1.26-.05,2.02-.05,1.24.02,2.45.22,3.58.21,1.43.64,2.88,1.27,4.33.91,2.11,2.4,3.84,4.31,5.02l.1.06.1.06c1.91,1.08,4.05,1.63,6.34,1.63.12,0,.23,0,.35,0,2.47-.06,4.7-.75,6.65-2.03,2.13-1.39,3.7-3.24,4.67-5.5.71-1.66,1.17-3.41,1.38-5.2.29-1.85.42-3.94.36-6.19.45,0,.89.02,1.34.03.47.01.95.02,1.44.02.9,0,1.83-.02,2.77-.07h3.75c1.15,0,2.57-.02,4.22-.05,2.07-.04,4.13-.3,6.1-.76,2.35-.55,4.45-1.49,6.24-2.81,2.67-1.97,4.15-5.01,4.15-8.58s-1.41-6.06-2.59-7.41c-1.24-1.4-2.72-2.47-4.42-3.19.74-1.14,1.26-2.41,1.54-3.77.35-1.7.32-3.41-.1-5.08-.47-1.86-1.36-3.47-2.67-4.78l-.07-.07-.08-.07c-1.23-1.15-2.54-2.25-3.9-3.27-1.41-1.06-2.88-2-4.39-2.8-1.21-.7-2.41-1.4-3.59-2.11-1.25-.74-2.5-1.48-3.77-2.21-.73-.44-1.47-.85-2.19-1.24-.37-.2-.75-.39-1.12-.58.48.02.95.05,1.4.08.83.05,1.8.08,2.9.08.53,0,1.1,0,1.7-.02,2.18-.04,4.3-.36,6.29-.93,2.48-.71,4.59-1.93,6.28-3.62,1.4-1.4,3.59-4.53,2.47-9.75-.81-3.86-2.86-6.01-4.44-7.13-1.72-1.22-3.66-2.05-5.77-2.49-1.44-.29-2.93-.44-4.43-.44h0ZM111.77,51.4c1.52-.77,3.2-1.67,4.98-2.7l.09-.05.09-.06c.19-.12.65-.39,1.58-.84.92-.44,1.86-.9,2.82-1.39.15-.08.31-.15.47-.23.74.46,1.5.92,2.26,1.34.72.41,1.11.67,1.31.81l.18.13.19.11c1.61.98,3.25,1.92,4.86,2.8.05.03.09.05.14.08h-18.96Z"/>
  <path class="cls-1" d="M209.3,6c1.53,0,2.85.42,3.95,1.25,1.1.83,1.65,1.88,1.65,3.15v3.3h11.4c1.53,0,2.85.5,3.95,1.5,1.1,1,1.65,2.23,1.65,3.7s-.55,2.68-1.65,3.65c-1.1.97-2.42,1.45-3.95,1.45h-.8c1.13,1.4,2.02,3.02,2.65,4.85.63,1.83.95,3.85.95,6.05,0,2.8-.62,5.42-1.85,7.85-1.23,2.43-2.95,4.48-5.15,6.15-3,2.27-6.32,3.53-9.95,3.8-.61.04-1.21.07-1.8.07-2.98,0-5.82-.56-8.55-1.67-3.27-1.33-6-3.4-8.2-6.2-2.2-2.8-3.3-6.13-3.3-10,0-2.2.3-4.22.9-6.05.6-1.83,1.46-3.45,2.6-4.85h-.8c-1.53,0-2.85-.48-3.95-1.45-1.1-.97-1.65-2.18-1.65-3.65s.55-2.7,1.65-3.7c1.1-1,2.42-1.5,3.95-1.5h10.8v-3.3c0-1.27.53-2.32,1.6-3.15,1.07-.83,2.37-1.25,3.9-1.25M209.17,42.28c.7,0,1.4-.06,2.13-.18,1.87-.4,3.38-1.13,4.55-2.2,1.17-1.07,1.75-2.73,1.75-5,0-2.6-.82-4.58-2.45-5.95-1.63-1.37-3.42-2.08-5.35-2.15-.09,0-.19,0-.28,0-1.89,0-3.63.63-5.22,1.9-1.67,1.33-2.5,3.4-2.5,6.2,0,1.6.27,2.92.8,3.95.53,1.03,1.25,1.82,2.15,2.35.9.53,1.92.87,3.05,1,.45.05.91.08,1.37.08M256.11,7.43c.32,0,.65.02.99.07,1.73.27,2.93,1.13,3.6,2.6.4.8.65,1.77.75,2.9.1,1.13.12,1.83.05,2.1v33.5c0,.07-.02.3-.05.7-.04.4-.15.88-.35,1.45-.2.57-.48,1.15-.85,1.75-.37.6-.88,1.1-1.55,1.5-.73.47-1.5.7-2.3.7-1.33,0-2.43-.33-3.3-1-.73-.53-1.3-1.2-1.7-2-1-1.87-1.47-3.92-1.4-6.15.07-2.23.13-4.38.2-6.45v-1.4c-.73.07-1.45.12-2.15.15-.7.03-1.38.05-2.05.05h-.3v9.1c-.07.73-.17,1.48-.3,2.25-.13.77-.4,1.52-.8,2.25-.47.87-1.03,1.5-1.7,1.9-.47.33-.87.6-1.2.8-.33.2-.8.3-1.4.3-.93,0-1.87-.27-2.8-.8-.67-.4-1.2-.9-1.6-1.5-.4-.6-.7-1.17-.9-1.7-.2-.53-.37-1.23-.5-2.1V15.4c-.07-.33-.05-1.08.05-2.25.1-1.17.35-2.15.75-2.95.67-1.4,2.03-2.2,4.1-2.4.38-.04.73-.07,1.06-.07.67,0,1.25.09,1.74.27.73.27,1.37.7,1.9,1.3.47.53.77,1.05.9,1.55.13.5.27,1.02.4,1.55.2.67.32,1.37.35,2.1.03.73.05,1.47.05,2.2-.07.27-.1.67-.1,1.2v8.8c.33.07.95.12,1.85.15.9.03,1.82.08,2.75.15v-10.6c-.07-.73-.08-1.45-.05-2.15.03-.7.15-1.42.35-2.15.27-1,.87-2,1.8-3,.89-1.11,2.13-1.67,3.71-1.67M228.9,56.9c4.6,0,8.93.17,13,.5,4.07.33,7.6,1.05,10.6,2.15s5.38,2.65,7.15,4.65c1.77,2,2.65,4.7,2.65,8.1s-.88,6-2.65,8c-1.77,2-4.15,3.55-7.15,4.65-3,1.1-6.53,1.83-10.6,2.2-4.07.37-8.4.55-13,.55s-8.93-.18-13-.55c-4.07-.37-7.6-1.1-10.6-2.2-3-1.1-5.38-2.65-7.15-4.65-1.77-2-2.65-4.67-2.65-8,0-3,.88-5.5,2.65-7.5,1.77-2,4.15-3.58,7.15-4.75,3-1.17,6.53-1.98,10.6-2.45,4.07-.47,8.4-.7,13-.7M228.9,77.2h7.05c2.37,0,4.5-.13,6.4-.4,1.9-.27,3.45-.75,4.65-1.45,1.2-.7,1.8-1.71,1.8-3.05,0-1.13-.6-2.03-1.8-2.7-1.2-.67-2.75-1.17-4.65-1.5-1.9-.33-4.03-.55-6.4-.65-2.37-.1-4.72-.15-7.05-.15s-4.65.05-6.95.15c-2.3.1-4.37.32-6.2.65-1.83.33-3.32.83-4.45,1.5-1.13.67-1.7,1.57-1.7,2.7,0,1,.57,1.83,1.7,2.5,1.13.67,2.62,1.17,4.45,1.5,1.83.33,3.9.57,6.2.7,2.3.13,4.62.2,6.95.2M209.3,0c-2.85,0-5.48.87-7.59,2.52-1.77,1.38-2.97,3.17-3.54,5.18h-5.17c-3.02,0-5.79,1.06-7.99,3.06-2.36,2.15-3.61,4.96-3.61,8.14s1.31,6.07,3.69,8.16c.1.09.2.17.3.26-.72,2.34-1.09,4.89-1.09,7.59,0,5.23,1.54,9.84,4.58,13.71,2.73,3.47,6.14,6.1,10.14,7.83-2.08,1.23-3.88,2.7-5.37,4.39-2.75,3.12-4.15,6.98-4.15,11.47,0,4.82,1.4,8.85,4.15,11.97,2.42,2.74,5.65,4.87,9.58,6.31,3.48,1.28,7.56,2.13,12.13,2.54,4.24.38,8.8.57,13.54.57s9.3-.19,13.54-.57c4.57-.41,8.65-1.27,12.13-2.54,3.93-1.44,7.16-3.57,9.58-6.31,2.76-3.12,4.15-7.15,4.15-11.97s-1.4-8.95-4.15-12.07c-.49-.56-1.02-1.09-1.58-1.6,1.14-.82,2.08-1.83,2.8-3,.59-.97,1.05-1.93,1.39-2.89.37-1.04.59-2,.67-2.92.05-.68.07-.93.07-1.23V15.49c.07-.77.04-1.68-.07-3.02-.16-1.84-.6-3.51-1.31-4.96-1.52-3.26-4.4-5.37-8.1-5.95h-.08s-.08-.02-.08-.02c-.59-.08-1.19-.12-1.75-.12h0c-3.16,0-5.96,1.21-7.97,3.41-1.11-1.11-2.41-1.94-3.89-2.48-1.16-.42-2.43-.63-3.79-.63-.55,0-1.12.03-1.7.1-5.54.56-7.92,3.8-8.85,5.73-.1.19-.19.39-.27.59-1.06-.3-2.18-.46-3.34-.46h-5.77c-.58-2.04-1.83-3.85-3.65-5.23-2.14-1.62-4.76-2.47-7.58-2.47h0ZM207.93,36.1s-.13-.33-.13-1.2c0-1.15.24-1.51.24-1.51.66-.52,1.1-.6,1.48-.6h.08c.38.01.93.11,1.7.76.27.23.3,1.02.3,1.35,0,.37-.03.61-.05.77-.41.27-.93.43-1.37.54-.34.05-.68.08-1,.08-.23,0-.45-.01-.67-.04-.28-.03-.46-.09-.57-.14,0,0,0,0,0,0h0ZM228.81,50.9s.03-.04.05-.05c0,.02,0,.04.01.05-.02,0-.04,0-.06,0h0Z"/>
  <path class="cls-1" d="M333.39,6.63c.36,0,.73.02,1.1.07,1,.13,1.9.42,2.7.85.8.43,1.37.98,1.7,1.65.4.8.65,1.78.75,2.95.1,1.17.15,1.88.15,2.15v32.4h0c-.11.28-.13.3-.2.7-.07.4-.2.88-.4,1.45-.2.57-.5,1.15-.9,1.75s-.93,1.1-1.6,1.5c-.93.53-1.97.8-3.1.8s-2.23-.37-3.3-1.1c-.8-.53-1.37-1.2-1.7-2-.4-.73-.67-1.47-.8-2.2-.13-.73-.23-1.47-.3-2.2v-11.9h-5.4c-1.93-.13-3.67-.25-5.2-.35-1.53-.1-2.73-.82-3.6-2.15-.4-.67-.6-1.53-.6-2.6s.07-1.97.2-2.7c.2-.73.57-1.35,1.1-1.85.53-.5,1.47-.92,2.8-1.25.27-.07.92-.12,1.95-.15,1.03-.03,2.15-.07,3.35-.1,1.2-.03,2.33-.07,3.4-.1,1.07-.03,1.73-.05,2-.05v-6.5c-.07-.73-.08-1.47-.05-2.2.03-.73.15-1.47.35-2.2.13-.53.27-1.03.4-1.5.13-.47.43-.97.9-1.5.53-.67,1.28-1.13,2.25-1.4.64-.18,1.33-.27,2.05-.27M293.6,8.2c1.07,0,2.1.12,3.1.35,1,.23,1.73.88,2.2,1.95.47,1.2.62,2.52.45,3.95-.17,1.43-.05,2.78.35,4.05.33,1.13.9,2.12,1.7,2.95.8.83,1.47,1.72,2,2.65,1.13,2.07,2.47,3.9,4,5.5,1.53,1.6,2.97,3.33,4.3,5.2,1.07,1.4,2.08,2.85,3.05,4.35.97,1.5,1.62,3.12,1.95,4.85.33,1.47.18,2.72-.45,3.75-.63,1.03-1.48,1.78-2.55,2.25-.79.34-1.63.52-2.52.52-.32,0-.65-.02-.98-.07-1.27-.17-2.37-.72-3.3-1.65-2.47-2.53-4.72-5.15-6.75-7.85-2.03-2.7-4.12-5.45-6.25-8.25-1.2,1.27-2.27,2.38-3.2,3.35-.93.97-1.93,2.03-3,3.2-1.07,1.17-2.07,2.28-3,3.35-.93,1.07-1.77,1.98-2.5,2.75-.73.77-1.17,1.25-1.3,1.45-.73.87-1.5,1.63-2.3,2.3-.8.67-1.77,1.13-2.9,1.4-.73.13-1.48.2-2.25.2s-1.48-.17-2.15-.5c-.93-.4-1.6-1.17-2-2.3-.53-1.33-.62-2.67-.25-4,.37-1.33.95-2.6,1.75-3.8.8-1.2,1.72-2.33,2.75-3.4,1.03-1.07,1.92-2.07,2.65-3,1.13-1.4,2.27-2.8,3.4-4.2,1.13-1.4,2.27-2.83,3.4-4.3.4-.53.87-1.1,1.4-1.7.53-.6,1.05-1.23,1.55-1.9.5-.67.92-1.33,1.25-2,.33-.67.53-1.37.6-2.1.07-1.13.13-2.25.2-3.35.07-1.1.27-2.1.6-3,.33-.9.88-1.62,1.65-2.15.77-.53,1.88-.8,3.35-.8M307.5,56.9c4.6,0,8.93.17,13,.5,4.07.33,7.6,1.05,10.6,2.15s5.38,2.65,7.15,4.65c1.77,2,2.65,4.7,2.65,8.1s-.88,6-2.65,8c-1.77,2-4.15,3.55-7.15,4.65-3,1.1-6.53,1.83-10.6,2.2-4.07.37-8.4.55-13,.55s-8.93-.18-13-.55c-4.07-.37-7.6-1.1-10.6-2.2-3-1.1-5.38-2.65-7.15-4.65-1.77-2-2.65-4.67-2.65-8,0-3,.88-5.5,2.65-7.5,1.77-2,4.15-3.58,7.15-4.75,3-1.17,6.53-1.98,10.6-2.45,4.07-.47,8.4-.7,13-.7M307.5,77.2h7.05c2.37,0,4.5-.13,6.4-.4,1.9-.27,3.45-.75,4.65-1.45,1.2-.7,1.8-1.71,1.8-3.05,0-1.13-.6-2.03-1.8-2.7-1.2-.67-2.75-1.17-4.65-1.5-1.9-.33-4.04-.55-6.4-.65-2.37-.1-4.72-.15-7.05-.15s-4.65.05-6.95.15-4.37.32-6.2.65c-1.83.33-3.32.83-4.45,1.5-1.13.67-1.7,1.57-1.7,2.7,0,1,.57,1.83,1.7,2.5,1.13.67,2.62,1.17,4.45,1.5,1.83.33,3.9.57,6.2.7,2.3.13,4.62.2,6.95.2M333.39.63c-1.25,0-2.48.16-3.64.48-2.13.59-3.94,1.74-5.25,3.33-1.01,1.18-1.71,2.43-2.08,3.71-.14.5-.29,1.05-.44,1.64-.31,1.14-.49,2.3-.54,3.44-.04.88-.03,1.8.04,2.72v.41c-1.05.03-2.03.06-2.94.09-1.6.05-2.46.14-3.2.32-2.42.61-4.15,1.46-5.47,2.7-.51.47-.95.99-1.34,1.54-.77-1.32-1.72-2.57-2.82-3.73-.11-.12-.2-.24-.27-.48l-.02-.06-.02-.06c-.14-.45-.18-.96-.11-1.55.28-2.41,0-4.7-.82-6.81l-.05-.12-.05-.12c-1.23-2.8-3.47-4.72-6.33-5.38-1.45-.34-2.95-.51-4.47-.51-2.71,0-4.99.63-6.78,1.87-1.77,1.23-3.1,2.96-3.85,4.99-.54,1.45-.86,3.04-.96,4.72-.06,1.03-.13,2.09-.19,3.16-.16.31-.39.67-.67,1.04-.4.53-.81,1.04-1.24,1.52-.62.7-1.19,1.39-1.69,2.05-1.1,1.42-2.2,2.82-3.29,4.16l-3.26,4.03-.14.17-.03.03-.03.03c-.61.77-1.36,1.62-2.24,2.53-1.28,1.32-2.44,2.75-3.44,4.25-1.16,1.73-2.01,3.6-2.54,5.54-.7,2.54-.55,5.2.42,7.7,1.19,3.26,3.38,4.85,5.08,5.62,1.46.7,3.04,1.06,4.69,1.06,1.13,0,2.25-.1,3.33-.3l.14-.03.14-.03c.52-.12,1.03-.27,1.52-.45-2.5,1.34-4.62,2.99-6.34,4.93-2.75,3.12-4.15,6.98-4.15,11.47,0,4.83,1.4,8.85,4.15,11.97,2.42,2.74,5.65,4.87,9.58,6.31,3.48,1.28,7.56,2.13,12.13,2.54,4.24.38,8.8.57,13.54.57s9.3-.19,13.54-.57c4.57-.41,8.65-1.27,12.13-2.54,3.93-1.44,7.16-3.57,9.58-6.31,2.76-3.12,4.15-7.15,4.15-11.97s-1.4-8.95-4.15-12.07c-.93-1.05-1.98-2.01-3.14-2.88.02-.01.05-.03.07-.04l.06-.03.06-.03c1.43-.86,2.61-1.97,3.5-3.31.27-.41.52-.82.74-1.23l.62-1.42c.17-.38.3-.78.39-1.19l.21-.93c.37-1.64.55-3.31.55-4.99V14.3c0-.32-.01-.82-.17-2.67-.16-1.92-.62-3.64-1.36-5.12-.88-1.76-2.34-3.22-4.2-4.24-1.44-.78-3.04-1.29-4.76-1.52h-.05s-.05-.01-.05-.01c-.61-.07-1.21-.11-1.8-.11h0ZM285.75,50.33c.11-.12.34-.37.78-.83.8-.83,1.67-1.79,2.68-2.95.91-1.04,1.89-2.13,2.91-3.25.43-.47.85-.92,1.25-1.36.66.88,1.32,1.75,1.98,2.62,1.67,2.21,3.49,4.4,5.43,6.51-2.4.12-4.73.31-6.97.57-4.56.52-8.62,1.47-12.09,2.82-.26.1-.51.2-.76.31.52-.32,1.01-.67,1.48-1.06,1.05-.88,2.07-1.9,3.03-3.03l.23-.27.05-.08h0ZM321.01,51.42c.12-.17.24-.35.35-.54.24-.4.49-.86.71-1.39.18.7.42,1.41.73,2.1-.59-.07-1.18-.12-1.78-.17h0Z"/>
  <path class="cls-1" d="M438.5,7c1.13,0,2.17.3,3.1.9.93.6,1.6,1.43,2,2.5.6,1.4.93,2.85,1,4.35.07,1.5.13,3.02.2,4.55.13,5.33.17,10.67.1,16-.07,5.33-.1,10.37-.1,15.1v25c0,1.53-.08,3.08-.25,4.65-.17,1.57-.52,3.18-1.05,4.85-.33.87-.97,1.57-1.9,2.1-.73.47-1.53.75-2.4.85-.37.04-.74.06-1.11.06-.5,0-.99-.04-1.49-.11-1-.2-1.83-.6-2.5-1.2-.6-.53-1.05-1.22-1.35-2.05-.3-.83-.53-1.65-.7-2.45-.17-.8-.25-1.8-.25-3V15.7c0-.93.07-1.87.2-2.8.13-.93.32-1.78.55-2.55.23-.77.58-1.38,1.05-1.85.73-.73,1.5-1.17,2.3-1.3.8-.13,1.67-.2,2.6-.2M387,7.6c.93,0,2,.02,3.2.05,1.2.03,2.27.05,3.2.05h8c.4,0,.8-.02,1.2-.05.13-.01.26-.02.4-.02.27,0,.54.02.8.07h2.8c.6,0,1.2.02,1.8.05.6.03,1.17.05,1.7.05h1.8c.6,0,1.2.03,1.8.1h.9c.27,0,.53.07.8.2.4.13.77.27,1.1.4.6.33,1.17.7,1.7,1.1.53.4.97.9,1.3,1.5.6,1,.98,2.07,1.15,3.2.17,1.13.25,2.27.25,3.4,0,1.53.02,3.25.05,5.15.03,1.9.07,3.83.1,5.8.03,1.97.05,3.9.05,5.8s-.03,3.62-.1,5.15c-.07.93-.08,1.67-.05,2.2.03.53.02,1.03-.05,1.5-.07.47-.18.93-.35,1.4-.17.47-.48,1.1-.95,1.9-.53.93-1.27,1.7-2.2,2.3-.93.6-1.92.97-2.95,1.1-.28.04-.55.05-.82.05-.74,0-1.45-.13-2.13-.4-.93-.37-1.7-1.02-2.3-1.95-.6-1-1.03-1.82-1.3-2.45-.27-.63-.45-1.23-.55-1.8-.1-.57-.12-1.2-.05-1.9.07-.7.1-1.62.1-2.75h-29.5c-.6,0-1.08-.05-1.45-.15-.37-.1-.75-.27-1.15-.5-.4-.23-.73-.58-1-1.05-.4-.8-.6-1.83-.6-3.1s.23-2.27.7-3c.47-.73.95-1.17,1.45-1.3.5-.13,1.02-.27,1.55-.4.27,0,.47-.03.6-.1.53-.13,1.08-.22,1.65-.25.57-.03,1.15-.08,1.75-.15.93-.07,2.13-.12,3.6-.15,1.47-.03,3-.07,4.6-.1,1.6-.03,3.17-.05,4.7-.05h8.35c1.7,0,3.28.03,4.75.1v-3.85c0-1.23-.07-2.52-.2-3.85-2.07-.07-4.45-.15-7.15-.25-2.7-.1-5.12-.18-7.25-.25h-.1c-2.47,0-5.05.08-7.75.25-.9.06-1.79.08-2.66.08-1.75,0-3.44-.11-5.09-.33-1.13-.13-1.98-.92-2.55-2.35-.57-1.43-.85-2.98-.85-4.65.07-1.53.63-2.67,1.7-3.4,1.07-.73,2.17-1.27,3.3-1.6,1.4-.4,2.75-.62,4.05-.65,1.3-.03,2.68-.08,4.15-.15M417,52.5c1.33,0,2.73.07,4.2.2,1.47.13,2.7.67,3.7,1.6.6.6,1.02,1.23,1.25,1.9.23.67.35,1.4.35,2.2,0,1-.23,1.92-.7,2.75-.47.83-1.17,1.42-2.1,1.75-1.2.53-2.43.85-3.7.95-1.27.1-2.53.18-3.8.25-1.93.07-3.43.13-4.5.2-1.07.07-1.95.12-2.65.15-.7.03-1.37.05-2,.05h-2.65l-.1,15c0,1.93-.6,3.6-1.8,5-1.1,1.28-2.47,1.92-4.12,1.92-.16,0-.32,0-.48-.02-.73-.07-1.43-.2-2.1-.4-.67-.2-1.27-.52-1.8-.95-.53-.43-.97-1.03-1.3-1.8-.33-.77-.5-1.78-.5-3.05l-.3-15.8c-2.6-.07-5.03-.15-7.3-.25-2.27-.1-4.9-.22-7.9-.35-.93-.07-1.87-.25-2.8-.55-.93-.3-1.8-.88-2.6-1.75-.8-.8-1.2-1.97-1.2-3.5,0-1.4.4-2.57,1.2-3.5.46-.53,1.05-.93,1.75-1.2.7-.27,1.38-.47,2.05-.6.67-.13,1.25-.2,1.75-.2h40.15M438.5,1c-1.25,0-2.46.09-3.58.28-2.06.35-3.93,1.35-5.56,2.98-1.17,1.17-2.03,2.63-2.55,4.35-.27.88-.49,1.83-.66,2.84-.34-1.17-.83-2.29-1.46-3.36-.74-1.3-1.71-2.41-2.89-3.29-.75-.56-1.55-1.08-2.38-1.54l-.34-.19-.36-.14c-.36-.14-.72-.28-1.12-.42-.96-.4-1.97-.61-3-.61h-.6c-.7-.07-1.41-.1-2.1-.1h-1.8c-.44,0-.89-.01-1.35-.04-.73-.04-1.45-.06-2.15-.06h-2.41c-.4-.04-.8-.07-1.2-.07-.3,0-.6.01-.89.04-.23.02-.46.03-.7.03h-8c-.91,0-1.93-.02-3.03-.05-1.28-.04-2.39-.05-3.37-.05h-.28c-1.41.07-2.77.12-4.03.15-1.81.05-3.68.34-5.55.88-1.78.52-3.46,1.33-5.05,2.42-2.63,1.81-4.15,4.68-4.3,8.09v.13s0,.13,0,.13c0,2.42.43,4.73,1.27,6.86.74,1.89,1.88,3.4,3.3,4.46-1.17.7-2.18,1.72-3.03,3.06-1.09,1.71-1.64,3.8-1.64,6.22,0,2.2.42,4.15,1.24,5.79l.07.14.08.14c.79,1.4,1.87,2.5,3.2,3.27.83.49,1.71.86,2.59,1.1.89.24,1.88.36,3.03.36h23.6c.11.56.27,1.13.46,1.7h-25.11c-.9,0-1.86.1-2.93.32-.99.2-2,.49-3.01.87-1.63.62-3.03,1.59-4.14,2.86l-.02.02-.02.02c-1.73,2.02-2.64,4.58-2.64,7.4,0,3.86,1.53,6.28,2.86,7.65,1.49,1.59,3.21,2.71,5.1,3.32,1.38.45,2.8.72,4.21.82h.08s.08,0,.08,0l6.71.3,1.19.05c.55.02,1.11.05,1.67.07l.19,10.05c0,2.09.33,3.85,1,5.38.72,1.65,1.73,3.02,3.02,4.06,1.15.93,2.45,1.62,3.86,2.04,1.04.31,2.14.52,3.27.63h.06s.06,0,.06,0c.31.02.61.03.9.03,3.43,0,6.43-1.39,8.68-4.02,2.12-2.48,3.24-5.55,3.24-8.9l.06-9.11c.51-.03,1.08-.06,1.71-.1,1.01-.06,2.47-.13,4.33-.19h.05s.05,0,.05,0c1.28-.07,2.61-.15,3.96-.26,1.82-.14,3.61-.58,5.33-1.3v10.57c0,1.64.12,3.02.38,4.23.21,1.04.53,2.14.92,3.25.65,1.79,1.66,3.3,3.01,4.5,1.44,1.3,3.24,2.19,5.31,2.6l.13.03.13.02c.79.12,1.6.18,2.4.18.6,0,1.21-.04,1.8-.1,1.72-.2,3.34-.76,4.81-1.67,2.06-1.21,3.58-2.97,4.4-5.08l.06-.17.05-.17c.65-2.04,1.09-4.07,1.3-6.04.19-1.8.28-3.57.28-5.29v-25c0-4.76.03-9.82.1-15.02.07-5.41.03-10.87-.1-16.23v-.06s0-.06,0-.06l-.07-1.69-.13-2.86c-.1-2.18-.58-4.31-1.43-6.34-.86-2.2-2.35-4.03-4.32-5.3-1.92-1.23-4.05-1.85-6.35-1.85h0ZM425.76,47.77s.02-.05.03-.07v.09s-.02-.01-.03-.02h0Z"/>
  <path class="cls-1" d="M512.79,11.1c1.2,0,2.33.07,3.4.2,1.07.13,2,.4,2.8.8s1.43.95,1.9,1.65c.46.7.7,1.62.7,2.75.07,1.67-.15,2.95-.65,3.85s-1.2,1.55-2.1,1.95c-.9.4-1.92.62-3.05.65-.38.01-.76.02-1.14.02-.75,0-1.51-.02-2.26-.07l-15,.2.1,3.8c0,.53-.03,1.17-.1,1.9-.07.73-.04,1.37.1,1.9.2.73.57,1.35,1.1,1.85.53.5,1.03,1.02,1.5,1.55,1.93,2.27,4.18,4.3,6.75,6.1s5.12,3.8,7.65,6c.6.67,1.27,1.38,2,2.15.73.77,1.37,1.6,1.9,2.5.53.9.88,1.82,1.05,2.75.17.93.02,1.9-.45,2.9-.53,1.07-1.28,1.8-2.25,2.2-.83.34-1.69.51-2.59.51-.15,0-.3,0-.46-.01-1.07-.07-2.15-.28-3.25-.65-1.1-.37-2.05-.82-2.85-1.35-3.2-2.07-6.17-4.27-8.9-6.6-2.73-2.33-5.47-4.77-8.2-7.3,0,0-.01,0-.02,0-.13,0-.64.35-1.53,1.06-.97.77-2.12,1.68-3.45,2.75-1.33,1.07-2.72,2.18-4.15,3.35-1.43,1.17-2.62,2.12-3.55,2.85-1.07.8-2.33,1.82-3.8,3.05-1.47,1.23-3,2.25-4.6,3.05-1.48.74-2.94,1.11-4.39,1.11-.12,0-.24,0-.36,0-1.57-.07-2.98-.97-4.25-2.7-.87-1.33-1.23-2.57-1.1-3.7.13-1.13.53-2.17,1.2-3.1.67-.93,1.52-1.8,2.55-2.6,1.03-.8,2.05-1.53,3.05-2.2,2.6-1.73,5.18-3.77,7.75-6.1,2.57-2.33,4.98-4.63,7.25-6.9.87-.87,1.3-1.73,1.3-2.6v-7.7h-15.8c-.33.01-.66.02-.98.02-1.28,0-2.45-.11-3.52-.32-1.13-.27-2.2-.77-3.2-1.5-1-.73-1.57-1.87-1.7-3.4-.2-2.2.27-3.77,1.4-4.7,1.13-.93,2.53-1.47,4.2-1.6.47-.07,1.25-.1,2.35-.1h2.55l45.1-.2M460.49,69l55.7.1c1.73,0,3.32.02,4.75.05,1.43.03,2.72.52,3.85,1.45,1.4,1.27,2.1,2.7,2.1,4.3,0,1-.3,1.92-.9,2.75-.6.83-1.4,1.42-2.4,1.75-1.33.53-2.72.9-4.15,1.1-1.43.2-2.85.33-4.25.4-3.65.15-7.36.22-11.12.22-1.25,0-2.51,0-3.78-.02-5.07-.07-9.83-.1-14.3-.1-4.8,0-9.48.03-14.05.1-1.52.02-2.96.03-4.31.03-2.7,0-5.04-.04-7.04-.13-1.07-.07-2.12-.22-3.15-.45-1.03-.23-1.95-.57-2.75-1-.8-.43-1.45-1.05-1.95-1.85s-.75-1.87-.75-3.2.43-2.5,1.3-3.5c.53-.53,1.2-.93,2-1.2.8-.27,1.57-.47,2.3-.6.73-.13,1.38-.2,1.95-.2h.95M512.79,5.1h-.03s-45.1.2-45.1.2h-2.52c-1.31,0-2.25.04-3,.13-2.84.26-5.32,1.24-7.37,2.93-1.89,1.56-4.05,4.54-3.56,9.88.36,4.12,2.44,6.46,4.13,7.7,1.65,1.21,3.46,2.05,5.38,2.5l.09.02.1.02c1.45.29,3.03.44,4.7.44.36,0,.72,0,1.1-.02h9.69v.51c-2.08,2.07-4.28,4.16-6.59,6.25-2.33,2.12-4.7,3.99-7.04,5.55-1.12.75-2.26,1.57-3.4,2.45-1.49,1.15-2.75,2.45-3.76,3.86-1.26,1.77-2.03,3.75-2.28,5.89-.3,2.55.38,5.14,2.03,7.67l.09.13.09.13c.52.71,1.05,1.32,1.59,1.86-.2.03-.4.06-.61.1-1.01.18-2.06.46-3.12.81-1.7.57-3.16,1.46-4.35,2.65l-.15.15-.14.16c-1.81,2.09-2.77,4.66-2.77,7.43,0,2.47.56,4.62,1.66,6.38,1.05,1.68,2.46,3.01,4.17,3.94,1.29.7,2.73,1.23,4.29,1.58,1.34.3,2.71.5,4.1.59h.06s.06,0,.06,0c2.08.09,4.54.14,7.31.14,1.38,0,2.84-.01,4.39-.03,4.51-.07,9.21-.1,13.96-.1,4.42,0,9.2.03,14.22.1,1.29.02,2.58.03,3.86.03,3.83,0,7.65-.08,11.37-.23,1.62-.08,3.23-.23,4.83-.45,1.85-.26,3.67-.73,5.4-1.41,2.1-.74,3.89-2.08,5.18-3.87,1.33-1.85,2.03-4.02,2.03-6.26s-.71-5.7-4.07-8.75l-.1-.09-.11-.09c-2.16-1.78-4.76-2.75-7.52-2.81-.02,0-.05,0-.07,0,1.39-.99,2.52-2.33,3.34-3.97l.04-.08.04-.08c.99-2.13,1.3-4.31.92-6.48-.3-1.65-.9-3.25-1.79-4.76-.77-1.3-1.69-2.5-2.73-3.59-.68-.71-1.3-1.38-1.88-2.02l-.25-.28-.28-.24c-2.68-2.33-5.42-4.47-8.14-6.38-2.14-1.5-4.03-3.21-5.63-5.08l-.03-.03-.03-.03c-.33-.38-.68-.76-1.05-1.13l8.7-.12c.8.04,1.6.06,2.39.06.44,0,.88,0,1.32-.02,1.9-.05,3.69-.45,5.31-1.16,2.08-.92,3.78-2.49,4.91-4.52,1.04-1.87,1.5-4.13,1.4-6.89-.02-2.27-.59-4.27-1.7-5.94-1.06-1.59-2.48-2.83-4.22-3.7-1.4-.7-2.99-1.17-4.73-1.39-1.32-.16-2.72-.25-4.15-.25h0ZM475.08,63.03c.95-.63,1.88-1.33,2.78-2.09,1.38-1.16,2.57-2.11,3.53-2.84l.06-.04.05-.04c.96-.75,2.18-1.73,3.63-2.91,1.42-1.15,2.79-2.26,4.11-3.32.3-.24.6-.48.88-.71,1.56,1.4,3.12,2.76,4.68,4.09,2.91,2.48,6.11,4.86,9.51,7.05.46.31.95.59,1.47.86l-30.7-.06h0Z"/>
  <path class="cls-1" d="M585.19,6.4c3.8,0,7.68.02,11.65.05,3.97.03,7.85.05,11.65.05h9.8c1.33,0,2.82.08,4.45.25,1.63.17,2.95.78,3.95,1.85.93,1.07,1.4,2.42,1.4,4.05s-.6,2.92-1.8,3.85c-.27.27-.67.5-1.2.7-1.01.43-2.1.64-3.26.64-.29,0-.59-.01-.89-.04-.5-.04-.99-.07-1.47-.07-.96,0-1.89.09-2.78.27,0,.07.02.43.05,1.1.03.67.08,1.37.15,2.1.07.93.1,1.97.1,3.1,0-.04.14-.07.43-.07.14,0,.31,0,.52.02.63.03,1.33.08,2.1.15.77.07,1.48.15,2.15.25.67.1,1.07.15,1.2.15,1.67.27,2.92.65,3.75,1.15.83.5,1.15,1.75.95,3.75-.13,1.67-.48,2.88-1.05,3.65-.57.77-1.29,1.3-2.15,1.6-.78.27-1.68.41-2.7.41-.12,0-.23,0-.35,0-1.17-.03-2.42-.05-3.75-.05-1.15.04-2.3.07-3.44.07-.57,0-1.14,0-1.71-.02-1.7-.03-3.42-.05-5.15-.05h-12.8c-2.53,0-4.98.02-7.35.05-2.37.03-4.18.05-5.45.05h-5.85c-2.1,0-4.05-.03-5.85-.1-.87,0-1.82-.07-2.85-.2-1.03-.13-2.02-.4-2.95-.8-.93-.4-1.73-.95-2.4-1.65-.67-.7-1.07-1.62-1.2-2.75-.2-1.53.12-2.67.95-3.4.83-.73,1.87-1.23,3.1-1.5,1.1-.24,2.26-.36,3.49-.36.15,0,.31,0,.46,0,.28,0,.56.01.83.01,1.05,0,1.97-.05,2.77-.16l-.2-6.5c-1-.07-2.03-.1-3.1-.1s-2.08-.1-3.05-.3c-.97-.2-1.87-.55-2.7-1.05-.83-.5-1.52-1.28-2.05-2.35-.8-1.53-.82-2.95-.05-4.25.77-1.3,1.92-2.22,3.45-2.75,1.53-.53,3.23-.8,5.1-.8h15.1M584.79,24.3h19.9l-.2-6.3h-19.2c-.27.27-.43.63-.5,1.1v5.2M624.49,39.6c1,0,1.97.03,2.9.1.93.07,1.85.18,2.75.35.9.17,1.72.58,2.45,1.25.73.53,1.15,1.15,1.25,1.85.1.7.15,1.45.15,2.25,0,1-.28,1.77-.85,2.3-.57.53-1.35.97-2.35,1.3-1.33.53-2.82.82-4.45.85-1.63.03-3.12.08-4.45.15-3.33.13-6.55.23-9.65.3-3.1.07-6.35.1-9.75.1.07.93.07,1.88,0,2.85-.07.97-.1,1.92-.1,2.85h15.4c3.4,0,6,.52,7.8,1.55,1.8,1.03,2.7,2.72,2.7,5.05v7.1c0,.93-.22,1.85-.65,2.75-.43.9-1.18,1.65-2.25,2.25-.87.53-1.73.82-2.6.85-.87.03-1.73.05-2.6.05h-47.4v3.6h50.9c1.07.13,2,.4,2.8.8.8.4,1.37,1.13,1.7,2.2.8,2.4-.07,4.1-2.6,5.1-.8.33-1.6.53-2.4.6-.8.07-1.57.1-2.3.1h-46.5c-1.33,0-2.72-.02-4.15-.05-1.43-.03-2.88-.08-4.35-.15-1.4-.07-2.57-.57-3.5-1.5s-1.47-2.17-1.6-3.7l-.3-7c-.07-.73-.07-1.6,0-2.6s.4-1.83,1-2.5c.93-1,2.18-1.63,3.75-1.9,1.57-.27,3.08-.4,4.55-.4h4.65c2.17,0,5.12.02,8.85.05,3.73.03,8.35.05,13.85.05h19.65v-3.6h-51c-.54,0-1.07-.07-1.6-.2-.6-.13-1.13-.27-1.6-.4-.47-.13-.87-.47-1.2-1-.93-1.4-1.17-2.83-.7-4.3.2-.53.5-.95.9-1.25.4-.3.87-.55,1.4-.75.53-.2,1.05-.33,1.55-.4.5-.07.95-.13,1.35-.2,1-.2,2.03-.3,3.1-.3h3.05c1.1,0,2.42.02,3.95.05,1.53.03,3.32.05,5.35.05h7.15c0-.93.03-1.85.1-2.75.07-.9.1-1.88.1-2.95h-7.45c-1.1,0-2.22-.02-3.35-.05-1.13-.03-2.4-.08-3.8-.15-.6,0-1.47-.03-2.6-.1-1.13-.07-2.33-.12-3.6-.15-1.27-.03-2.45-.07-3.55-.1-1.1-.03-1.88-.05-2.35-.05-1.07-.13-1.92-.27-2.55-.4-.63-.13-1.38-.6-2.25-1.4-.47-.4-.8-.82-1-1.25-.2-.43-.3-1.02-.3-1.75,0-1.47.43-2.63,1.3-3.5.47-.53,1.1-.93,1.9-1.2.8-.27,1.57-.45,2.3-.55.73-.1,1.38-.15,1.95-.15h61.15M585.19.4h-15.1c-2.53,0-4.91.38-7.07,1.13-2.87,1-5.17,2.86-6.65,5.37-1.82,3.09-1.87,6.65-.13,10.02.83,1.64,1.91,2.99,3.22,4.02-.49.32-.95.67-1.39,1.05-1.36,1.19-3.55,3.91-2.94,8.64.19,1.54.65,2.97,1.37,4.22-1.46.59-2.7,1.44-3.7,2.54-1.36,1.42-2.92,3.86-2.92,7.6,0,1.63.28,3.03.85,4.27.54,1.18,1.37,2.26,2.45,3.21,1.02.93,2.04,1.64,3.06,2.13-.48.66-.88,1.39-1.18,2.19l-.05.14-.05.15c-1.01,3.17-.52,6.49,1.38,9.38.11.18.23.35.35.51-1.3,1.6-2.06,3.57-2.2,5.73-.08,1.26-.08,2.37,0,3.38l.3,6.87v.13s.02.13.02.13c.25,2.93,1.41,5.5,3.33,7.42,1.99,1.99,4.57,3.11,7.45,3.25,1.52.07,3.03.12,4.5.15,1.48.03,2.92.05,4.29.05h46.5c.88,0,1.82-.04,2.79-.12,1.41-.12,2.81-.46,4.16-1.02,5.46-2.18,7.84-7.08,6.06-12.5-.48-1.5-1.17-2.65-1.93-3.54.41-.55.77-1.14,1.07-1.76.83-1.72,1.25-3.52,1.25-5.36v-7.1c0-3-.9-5.62-2.6-7.66.4-.12.78-.26,1.17-.4,1.75-.61,3.23-1.47,4.4-2.57,1.25-1.18,2.74-3.29,2.74-6.67,0-1.08-.07-2.12-.21-3.1-.23-1.57-1-3.8-3.39-5.65-1-.87-2.11-1.53-3.29-1.98.51-1.27.82-2.74.97-4.43.53-5.43-1.67-8.07-3.68-9.34,2.39-2.05,3.71-4.96,3.71-8.25,0-3.07-1-5.84-2.88-8l-.07-.08-.07-.08c-1.99-2.11-4.65-3.4-7.71-3.71-1.84-.19-3.55-.28-5.06-.28h-9.8c-3.88,0-7.78-.02-11.6-.05-4.03-.03-7.96-.05-11.7-.05h0Z"/>
  <path class="cls-1" d="M703.89,6.9c1.13,0,2.18.32,3.15.95.97.63,1.65,1.52,2.05,2.65.6,1.4.93,2.87,1,4.4.07,1.53.13,3.07.2,4.6v.5c.13,5.13.17,10.4.1,15.8-.07,5.4-.1,10.5-.1,15.3v25.3c0,.6.02,1.2.05,1.8.03.6.02,1.2-.05,1.8-.13.8-.23,1.58-.3,2.35-.07.77-.23,1.55-.5,2.35-.13.27-.23.5-.3.7-.07.2-.17.43-.3.7-.47.93-1.07,1.67-1.8,2.2-1.02.62-2.12.93-3.29.93-.58,0-1.19-.08-1.81-.23-1.07-.2-1.93-.6-2.6-1.2-.6-.53-1.05-1.22-1.35-2.05-.3-.83-.53-1.65-.7-2.45-.17-.8-.25-1.5-.25-2.1V15.8c0-.93.07-1.87.2-2.8.13-.93.33-1.8.6-2.6.27-.8.63-1.43,1.1-1.9.73-.73,1.5-1.18,2.3-1.35.8-.17,1.67-.25,2.6-.25M666.99,10.3c.87.13,1.78.25,2.75.35.97.1,1.85.32,2.65.65.53.2,1.05.47,1.55.8.5.33.92.73,1.25,1.2.6.93.95,1.87,1.05,2.8.1.93.22,1.97.35,3.1.13,1.87.2,3.72.2,5.55v38.35c0,.07.02.58.05,1.55.03.97.05,2.1.05,3.4v4.1c0,1.43-.04,2.68-.1,3.75-.07.67-.17,1.37-.3,2.1-.13.73-.35,1.43-.65,2.1-.3.67-.72,1.27-1.25,1.8-.53.53-1.23.96-2.1,1.3-1.13.47-2.27.7-3.4.7-.87,0-1.73-.18-2.6-.55-.87-.37-1.47-.92-1.8-1.65-1.07-2.13-1.6-4.5-1.6-7.1v-4.4c-.07-.8-.1-1.6-.1-2.4V30.4c0-1.07-.07-2.17-.2-3.3-.07-.33-.15-.8-.25-1.4-.1-.6-.32-.97-.65-1.1-.29-.17-.61-.26-.97-.26-.06,0-.12,0-.18,0-.15.01-.29.02-.43.02-.28,0-.55-.02-.82-.07-.23-.03-.46-.05-.69-.05s-.45.02-.66.05c-.22.03-.44.05-.66.05s-.45-.02-.69-.05h-4.7c-.57.03-1.13.05-1.7.05s-1.13-.02-1.7-.05c-.57-.03-1.13-.05-1.7-.05s-1.13.02-1.7.05c-.36.04-.69.07-1,.07-.16,0-.31,0-.45-.02-.43-.03-.92-.05-1.45-.05-.73,0-1.5-.03-2.3-.1-.8-.07-1.53-.33-2.2-.8-.93-.67-1.57-1.5-1.9-2.5-.33-1-.5-2.03-.5-3.1-.07-1.27.2-2.53.8-3.8.33-.8.77-1.37,1.3-1.7.33-.33.82-.62,1.45-.85.63-.23,1.18-.42,1.65-.55,1.4-.33,2.87-.52,4.4-.55,1.53-.03,3.03-.05,4.5-.05h17.4M703.89.9c-1.34,0-2.62.13-3.82.38-1.97.41-3.75,1.41-5.32,2.98-1.13,1.13-1.99,2.56-2.55,4.25-.38,1.13-.66,2.36-.85,3.64-.17,1.2-.26,2.43-.26,3.65v65.4c0,1.02.12,2.11.38,3.33.22,1.06.53,2.15.93,3.25.64,1.78,1.65,3.3,3.01,4.5,1.42,1.28,3.21,2.16,5.3,2.58,1.04.25,2.08.37,3.09.37,2.28,0,4.44-.61,6.41-1.81l.21-.13.2-.15c1.51-1.1,2.73-2.57,3.63-4.36.25-.49.44-.94.59-1.38l.18-.36.16-.45c.41-1.24.67-2.49.78-3.72.05-.61.13-1.24.24-1.89l.03-.17.02-.17c.1-.93.13-1.86.08-2.78-.03-.48-.04-.97-.04-1.47v-25.3c0-4.78.03-9.9.1-15.22.07-5.43.03-10.8-.1-15.95v-.69s-.21-4.6-.21-4.6c-.1-2.19-.57-4.32-1.41-6.34-.85-2.27-2.34-4.16-4.34-5.47-1.96-1.29-4.13-1.93-6.44-1.93h0ZM667.46,4.3h-17.86c-1.48,0-3.04.02-4.63.05-1.96.04-3.86.28-5.66.71l-.13.03-.13.04c-.62.18-1.3.4-2.07.69-1.21.45-2.25,1.04-3.11,1.77-1.3.96-2.33,2.3-3.05,3.97-.96,2.08-1.41,4.23-1.32,6.4.02,1.66.29,3.29.81,4.85.73,2.19,2.15,4.09,4.11,5.49,1.58,1.11,3.32,1.74,5.19,1.89.94.08,1.89.12,2.79.12.37,0,.71.01,1,.03.28.02.59.03.9.03.48,0,.99-.03,1.51-.09.39-.02.79-.03,1.19-.03.45,0,.9.01,1.35.04.68.04,1.37.06,2.05.06.62,0,1.25-.02,1.87-.05h4.19c.18.02.36.03.55.04,0,.02,0,.04,0,.06v37.4c0,.88.03,1.76.1,2.64v4.16c0,3.49.74,6.76,2.19,9.7.97,2.05,2.65,3.63,4.87,4.57,1.61.68,3.27,1.03,4.94,1.03,1.89,0,3.78-.38,5.63-1.13,1.62-.63,3-1.52,4.11-2.62,1.06-1.06,1.89-2.27,2.49-3.59.49-1.09.86-2.26,1.08-3.48.16-.9.29-1.76.37-2.58v-.12s.02-.12.02-.12c.07-1.21.11-2.59.11-4.12v-4.1c0-1.34-.02-2.56-.05-3.61-.03-.76-.04-1.23-.05-1.4V24.75c0-1.96-.07-3.97-.22-5.98v-.14s-.03-.14-.03-.14c-.13-1.11-.24-2.12-.34-3.03-.2-1.86-.86-3.68-1.97-5.4l-.09-.13-.09-.13c-.76-1.05-1.69-1.95-2.79-2.68-.86-.57-1.76-1.04-2.68-1.39-1.31-.53-2.74-.88-4.24-1.04-.88-.09-1.71-.2-2.45-.31l-.46-.07h0Z"/>
</svg>