<?xml version="1.0" encoding="UTF-8"?><svg id="OBJECTS" xmlns="http://www.w3.org/2000/svg" xmlns:xlink="http://www.w3.org/1999/xlink" viewBox="0 0 247.72 59.29"><defs><style>.cls-1{fill:url(#linear-gradient);stroke-width:0px;}</style><linearGradient id="linear-gradient" x1="-878.01" y1="29.64" x2="-630.3" y2="29.64" gradientTransform="translate(-630.3) rotate(-180) scale(1 -1)" gradientUnits="userSpaceOnUse"><stop offset="0" stop-color="#26112d"/><stop offset="1" stop-color="#b56ed8"/></linearGradient></defs><path class="cls-1" d="M0,29.64h0c0,16.37,13.27,29.64,29.64,29.64h218.07s0-59.29,0-59.29H29.64C13.27,0,0,13.27,0,29.64ZM4.02,31.71C2.78,16.03,15.77,3.05,31.45,4.28c12.33.97,22.32,10.96,23.3,23.3,1.24,15.68-11.75,28.66-27.43,27.43-12.33-.97-22.32-10.96-23.3-23.3ZM21.97,40.67v-20.66c0-1.85,2.1-2.9,3.58-1.8l13.85,10.33c1.2.9,1.2,2.7,0,3.6l-13.85,10.33c-1.48,1.1-3.58.05-3.58-1.8Z"/></svg>