<?xml version="1.0" encoding="UTF-8"?><svg id="_레이어_1" xmlns="http://www.w3.org/2000/svg" viewBox="0 0 569.26 567.89"><defs><style>.cls-1{fill:#ffc242;}.cls-1,.cls-2,.cls-3,.cls-4{stroke-width:0px;}.cls-2{fill:#fffa6e;}.cls-3{fill:#ffd756;}.cls-4{fill:#dea51a;}</style></defs><path class="cls-1" d="M54.72,356.36c-1.44,0-2.81.45-4.08,1.35-4.63,3.25-6,9.62-3.66,17.03,2.5,7.92,9.31,15.94,17.49,15.94h0c1.65,0,3.31-.33,4.94-1,4.43-1.8,3.98-7.74,3.32-11.12-1.97-10.06-10.44-22.21-18.01-22.21Z"/><path class="cls-3" d="M75.85,165.14c-6.91,0-15.8,4.05-18.66,8.49-.93,1.44-1.11,2.78-.56,3.99,1.3,2.86,5.17,4.56,10.35,4.56,5.87,0,11.76-2.23,14.67-5.56,1.64-1.87,2.31-4.01,2-6.34-.57-4.25-4.55-5.15-7.8-5.15Z"/><path class="cls-3" d="M66.98,183.02h0c-5.52,0-9.68-1.89-11.12-5.05-.47-1.02-.73-2.69.62-4.79,2.99-4.64,12.22-8.87,19.37-8.87,5.06,0,8.13,2.09,8.63,5.87.35,2.58-.39,4.94-2.2,7-3.06,3.49-9.21,5.84-15.3,5.84ZM75.85,165.98c-6.55,0-15.28,3.94-17.96,8.1-.77,1.2-.94,2.24-.5,3.19,1.16,2.55,4.74,4.07,9.59,4.07,5.64,0,11.28-2.12,14.04-5.27,1.47-1.68,2.08-3.59,1.8-5.68-.39-2.93-2.73-4.42-6.97-4.42Z"/><path class="cls-1" d="M214.29,510.92c-8.65,0-15.81,1.99-18.68,5.21-1.15,1.28-1.61,2.71-1.43,4.36.89,8,12.74,12.77,23.68,12.77h0c8.7,0,18.58-3.14,20.18-11.97.25-1.39-.12-2.65-1.14-3.87-3.2-3.83-12.5-6.5-22.62-6.5Z"/><path class="cls-3" d="M138.38,237.26c-7.75,0-15.72,3.21-20.31,8.17-3.16,3.42-4.64,7.56-4.29,11.95.71,8.86,9.46,12.01,17.41,12.01h0c8.89,0,17.76-3.65,22.09-9.09,2.69-3.39,3.57-7.24,2.59-11.46-1.67-7.26-8.22-11.59-17.49-11.59Z"/><path class="cls-3" d="M131.2,270.23h0c-8.32,0-17.49-3.36-18.24-12.79-.37-4.63,1.19-8.99,4.51-12.59,4.73-5.13,12.94-8.44,20.92-8.44,9.7,0,16.55,4.58,18.31,12.24,1.04,4.48.11,8.57-2.75,12.17-4.47,5.62-13.61,9.4-22.74,9.4ZM138.38,238.09c-7.53,0-15.26,3.1-19.69,7.9-3,3.25-4.41,7.16-4.07,11.32.66,8.29,8.99,11.24,16.57,11.24h0c8.64,0,17.26-3.52,21.43-8.77,2.53-3.18,3.35-6.79,2.43-10.75-1.58-6.85-7.81-10.94-16.68-10.94Z"/><path class="cls-1" d="M56.89,402.32c-.34,0-.69.03-1.03.1-2.99.54-3.11,4.22-2.92,6.37.63,7.02,5.62,15.02,9.37,15.02.54,0,1.04-.16,1.54-.5,3.48-2.32,3.33-7.7,2.15-11.6-1.37-4.52-4.8-9.39-9.11-9.39Z"/><path class="cls-1" d="M250.37,203.07c4.76-7.11,5.54-14.68,2.31-22.52-6.52-15.83-23.96-18.19-33.78-18.19-20.93,0-43.29,9.9-53.16,23.55-5.16,7.13-6.51,14.58-4.02,22.15,3.88,11.77,16.47,18.52,34.55,18.52,21.87,0,45.13-10.1,54.1-23.51Z"/><path class="cls-1" d="M269.69,111.87h0c9.49,0,19.02-3.39,23.17-8.25,1.87-2.19,2.62-4.58,2.22-7.11-1.63-10.32-12.61-11.44-17.26-11.44-10.16,0-21.35,4.63-25.47,10.54-1.71,2.45-2.11,4.93-1.2,7.4,2.04,5.55,8.97,8.86,18.54,8.86Z"/><path class="cls-1" d="M511.99,170.75c1.52,0,2.74-.45,3.63-1.34,1.89-1.89,2.32-3.98,1.32-6.4-2.46-5.93-12.64-11.51-18.73-11.51-1.33,0-3.05.27-3.78,1.57-1.17,2.11.14,4.95,1.02,6.46,3.45,5.87,11.33,11.22,16.53,11.22Z"/><path class="cls-1" d="M350.22,269.59c4.97,0,10.42-2.22,10.81-8.45.13-2.14-.48-3.95-1.83-5.38-2.01-2.14-5.73-3.42-9.93-3.42-4.53,0-8.84,1.49-10.97,3.79-1.11,1.2-1.62,2.58-1.5,4.11.45,5.86,7.18,9.36,13.42,9.36Z"/><path class="cls-1" d="M270.53,294.85c5.68,7,19.79,12.08,33.55,12.09h0c7.38,0,13.66-1.48,18.16-4.28,5.03-3.14,7.59-7.78,7.59-13.8,0-16.34-15.4-24.89-30.61-24.89-12.16,0-27.59,5.89-31.08,22.47-.61,2.88.2,5.71,2.39,8.41Z"/><path class="cls-1" d="M307.12,434.74c-24.16,0-53.54,7.37-56.79,28.14-.75,4.8.99,9.72,5.19,14.62,11.92,13.93,40.53,24.44,66.56,24.44h0c14.18,0,39.15-3.3,47.05-25.42,2.73-7.65,1.92-14.65-2.42-20.8-8.85-12.55-32.79-20.98-59.6-20.98Z"/><path class="cls-1" d="M173.92,66.67c10.35,0,24.79-6.95,30.28-14.57,1.88-2.61,2.48-5,1.79-7.09-1.17-3.5-4.38-5.28-9.54-5.28-10.99,0-26.85,8.24-31.43,16.32-1.42,2.51-1.57,4.74-.43,6.63,1.98,3.3,6.17,3.99,9.34,3.99Z"/><path class="cls-1" d="M322.51,83.68c5.25,0,9.71-1.5,11.95-4.02,1.33-1.49,1.87-3.35,1.62-5.5-.79-6.7-6.99-9.09-12.53-9.09-7,0-14.73,3.79-15.27,10.82-.1,1.32.36,2.54,1.37,3.63,2.34,2.52,7.39,4.16,12.87,4.16Z"/><path class="cls-1" d="M495.79,326.19c-9.87,0-16.32,5.75-17.26,15.38-.32,3.35.8,6.48,3.34,9.27,4.41,4.86,12.82,8.12,20.93,8.12h0c3.74,0,15.99-.89,16.91-12.27.36-4.46-1.21-8.72-4.54-12.32-4.59-4.97-12.2-8.19-19.38-8.19Z"/><path class="cls-1" d="M528.92,194.43c-4.31,3.69-3.45,8.32-2.55,10.75,1.47,3.96,4.91,7.19,7.67,7.19.53,0,1.02-.13,1.45-.37,1.74-1,2.13-4.64.95-9.06-1.33-5-4.13-9.06-6.25-9.06-.43,0-.85.18-1.29.55Z"/><path class="cls-1" d="M440.36,360.2c-7.09,0-14.9,3.36-15.31,10.74-.13,2.35.62,4.4,2.24,6.11,2.75,2.9,8.04,4.71,13.81,4.71s10.71-1.71,13.3-4.46c1.45-1.54,2.13-3.38,2.01-5.47-.47-7.99-8.65-11.63-16.06-11.63Z"/><path class="cls-2" d="M268.34,2.52c-101.38,0-182.74,46.45-229.08,130.81-51.56,93.85-48.64,216.05,7.29,304.06,50.15,78.94,142.55,127.98,241.12,127.99h.02c97.98,0,183.78-47.3,235.43-129.77,54.66-87.28,57.92-196.93,8.52-286.16C479.93,56.07,383.97,2.52,268.34,2.52ZM491.88,151.3c.73-1.31,2.35-2.87,5.98-2.87,7.04,0,18.14,6.03,21.06,13.06,1.39,3.36.75,6.52-1.87,9.14-1.38,1.38-3.2,2.08-5.41,2.08-6.7,0-15.23-6.57-18.7-12.46-2.03-3.45-2.39-6.54-1.05-8.95ZM360.69,253.48c1.82,1.93,2.68,4.45,2.51,7.26-.41,6.56-5.64,10.81-13.32,10.81-7.29,0-15.35-4.09-15.93-11.68-.17-2.22.58-4.3,2.16-6.01,2.63-2.84,7.54-4.6,12.82-4.6,4.96,0,9.25,1.54,11.76,4.21ZM323.2,62.01c8.32,0,14.22,4.44,15.03,11.31.34,2.86-.44,5.44-2.24,7.47-2.74,3.09-7.79,4.86-13.83,4.86s-11.88-1.9-14.71-4.96c-1.48-1.6-2.19-3.51-2.03-5.53.66-8.54,9.65-13.14,17.78-13.14ZM332,288.3c0,6.84-3.03,12.35-8.77,15.93-4.89,3.05-11.63,4.67-19.49,4.67h0c-14.45,0-29.39-5.48-35.5-13.02-2.66-3.27-3.66-6.91-2.9-10.51,3.8-18.06,20.45-24.47,33.55-24.47,16.46,0,33.13,9.41,33.13,27.4ZM249.94,93.61c4.62-6.62,16.45-11.62,27.54-11.62s18.38,4.94,19.74,13.56c.51,3.24-.46,6.4-2.79,9.14-4.67,5.46-14.75,9.13-25.08,9.13h0c-10.66,0-18.48-3.93-20.9-10.51-1.19-3.23-.67-6.59,1.5-9.7ZM162.48,54.25c5.03-8.88,21.68-17.6,33.62-17.6,6.28,0,10.4,2.42,11.93,7,.95,2.86.22,6.1-2.13,9.36-5.89,8.17-21.3,15.62-32.32,15.62h0c-5.48,0-9.45-1.8-11.49-5.21-1.61-2.69-1.47-5.85.4-9.17ZM64.9,424.84c-.91.61-1.9.92-2.93.92h0c-5.98,0-11.25-10.34-11.87-17.31-.46-5.11,1.35-8.41,4.97-9.07.49-.09.99-.13,1.48-.13,5.62,0,9.83,5.61,11.51,11.17,1.89,6.23.65,11.89-3.16,14.42ZM70.01,391.46c-1.93.78-3.91,1.18-5.88,1.18h0c-9.39,0-17.11-8.91-19.89-17.7-2.65-8.39-.88-16,4.61-19.85,1.7-1.2,3.56-1.8,5.53-1.8,8.87,0,18.29,13.03,20.48,24.24,1.38,7.05-.39,12.13-4.84,13.94ZM83.35,177.9c-3.41,3.9-9.91,6.41-16.56,6.41-6.2,0-10.93-2.26-12.64-6.04-.92-2.01-.66-4.22.74-6.4,3.31-5.14,13.02-9.64,20.78-9.64,5.92,0,9.67,2.67,10.29,7.33.41,3.04-.49,5.92-2.6,8.33ZM155.06,261.49c-4.85,6.1-14.29,10.04-24.06,10.04h0c-11.58,0-19.21-5.49-19.91-14.33-.41-5.11,1.3-9.91,4.95-13.86,5.11-5.54,13.6-8.98,22.15-8.98,10.53,0,17.99,5.06,19.95,13.54,1.14,4.93.07,9.63-3.08,13.59ZM158.99,208.29c-2.72-8.26-1.21-16.7,4.37-24.41,10.31-14.25,33.52-24.59,55.19-24.59,17.78,0,30.94,7.2,36.11,19.75,3.52,8.53,2.64,17.14-2.54,24.87-9.55,14.27-33.18,24.62-56.19,24.62h0c-19.24,0-32.7-7.38-36.94-20.25ZM240.16,521.19c-1.88,10.35-12.94,14.03-22.66,14.03h0c-11.88,0-25.1-5.26-26.18-15.01-.26-2.37.43-4.49,2.06-6.31,3.39-3.79,11.07-6.05,20.56-6.05s20.28,2.29,24.55,7.41c1.48,1.78,2.06,3.83,1.68,5.93ZM371.15,476.81c-6.24,17.47-23.79,27.09-49.41,27.09h0c-26.69,0-56.13-10.89-68.48-25.32-4.69-5.49-6.63-11.09-5.76-16.64,3.5-22.34,34.12-30.26,59.28-30.26,28.01,0,52.21,8.66,61.65,22.05,4.83,6.86,5.75,14.63,2.73,23.09ZM448.15,479.64c-3.41,6.82-12.16,12.57-19.11,12.57h0c-2.63,0-4.86-.85-6.47-2.46-2.25-2.25-2.62-5.59-1.04-9.41,2.87-6.93,12.07-14.99,19.62-14.99,2.71,0,4.95,1.09,6.49,3.15,2.35,3.14,2.54,7.09.51,11.14ZM455.89,378.47c-3.1,3.29-8.75,5.25-15.13,5.25h0c-6.54,0-12.38-2.05-15.64-5.49-2.08-2.2-3.1-4.96-2.93-7.98.5-9.01,9.59-13.11,17.82-13.11s18,4.38,18.57,14c.16,2.76-.77,5.3-2.69,7.34ZM454.1,212.36h0c-12.76,0-26.42-5.81-33.99-14.46-4.7-5.36-6.74-11.46-5.92-17.63,1.1-8.27,7.81-12.82,18.89-12.82,15.75,0,36.37,9.39,43.26,19.71,2.65,3.97,3.26,7.97,1.77,11.59-3.58,8.65-12.33,13.61-24,13.61ZM521.87,346.34c-.72,8.99-8.16,14.58-19.41,14.58h0c-8.91,0-17.86-3.51-22.79-8.94-3-3.3-4.37-7.18-3.98-11.21,1.26-13.02,11.03-17.65,19.76-17.65,7.97,0,16.11,3.45,21.23,9,3.81,4.13,5.61,9.05,5.2,14.23ZM538.53,201.73c1.54,5.8.74,10.24-2.14,11.89-.82.47-1.73.71-2.7.71-3.86,0-8.17-3.8-10.03-8.83-1.92-5.18-.73-10.11,3.27-13.53.9-.77,1.88-1.16,2.92-1.16,3.97,0,7.28,5.67,8.68,10.93Z"/><path class="cls-1" d="M433.42,170.52c-6.83,0-15.22,1.85-16.39,10.64-.72,5.43,1.12,10.84,5.32,15.64,7.12,8.13,20.02,13.6,32.1,13.6h0c6.23,0,17.34-1.57,21.68-12.06,1.18-2.84.66-5.95-1.53-9.23-6.5-9.73-26.13-18.59-41.17-18.59Z"/><path class="cls-1" d="M441.49,468.43c-5.81,0-14.54,6.78-17.29,13.44-.83,1.99-1.41,4.77.49,6.67,1.14,1.14,2.72,1.72,4.69,1.72h0c5.9,0,13.94-5.33,16.86-11.18,1.11-2.23,1.97-5.51-.27-8.5-1.07-1.42-2.57-2.14-4.48-2.14Z"/><path class="cls-4" d="M533.84,148.23c-24.34-43.95-60.16-80.69-103.59-106.24C382.88,14.13,328.4,0,268.34,0,166,0,83.86,46.92,37.06,132.11c-51.99,94.63-49.03,217.86,7.37,306.63,50.61,79.66,143.82,129.15,243.24,129.16h.02c98.86,0,185.45-47.73,237.56-130.95,27.86-44.49,43.06-95.22,43.97-146.7.87-49.53-11.36-98.64-35.38-142.01ZM523.12,435.61c-51.64,82.47-137.45,129.77-235.43,129.77h-.02c-98.57,0-190.97-49.05-241.12-127.99-55.92-88.02-58.85-210.21-7.29-304.06C85.6,48.97,166.96,2.52,268.34,2.52c115.62,0,211.59,53.56,263.29,146.93,49.4,89.23,46.14,198.88-8.52,286.16Z"/><path class="cls-3" d="M195.98,229.13c23.01-.05,46.61-10.46,56.13-24.75,5.16-7.75,6.02-16.35,2.49-24.88-5.2-12.54-18.38-19.71-36.15-19.66-21.68.05-44.86,10.44-55.14,24.71-5.56,7.72-7.05,16.17-4.31,24.42,4.27,12.86,17.75,20.21,36.98,20.16h0ZM161.38,208.18c-2.51-7.56-1.17-15.01,3.97-22.16,9.84-13.67,32.17-23.62,53.1-23.67,9.82-.02,27.26,2.3,33.82,18.11,3.25,7.83,2.49,15.4-2.26,22.52-8.94,13.42-32.18,23.58-54.05,23.63-18.08.04-30.69-6.68-34.59-18.44Z"/><path class="cls-3" d="M195.81,229.97c-19.53,0-33.24-7.56-37.61-20.74-2.83-8.52-1.3-17.22,4.43-25.17,10.42-14.47,33.9-25.01,55.82-25.06,18.21,0,31.61,7.36,36.93,20.18,3.65,8.8,2.76,17.67-2.56,25.67-9.66,14.5-33.56,25.07-56.83,25.13h-.18ZM218.6,160.68c-21.57.05-44.48,10.3-54.61,24.37-5.4,7.5-6.85,15.68-4.2,23.66,4.13,12.45,17.26,19.59,36.02,19.59h.17c22.75-.05,46.06-10.31,55.44-24.38,5-7.5,5.83-15.84,2.41-24.09-5.04-12.17-17.88-19.15-35.23-19.15ZM195.98,227.46c-18.54,0-31.38-6.93-35.39-19.01-2.6-7.83-1.23-15.54,4.08-22.91,9.99-13.87,32.6-23.97,53.78-24.02h.14c9.98,0,27.73,2.42,34.46,18.63,3.36,8.1,2.57,15.94-2.33,23.31-9.08,13.63-32.62,23.95-54.74,24.01ZM218.6,162.35l-.14.84c-20.68.05-42.73,9.86-52.42,23.32-4.98,6.91-6.27,14.11-3.85,21.4,3.77,11.35,16.03,17.87,33.63,17.87,21.78-.05,44.71-10.05,53.51-23.26,4.58-6.87,5.31-14.18,2.18-21.74-6.35-15.31-23.34-17.59-32.91-17.59v-.84Z"/><path class="cls-3" d="M269.13,114.25h0c10.34-.02,20.4-3.72,25.06-9.19,2.33-2.74,3.29-5.9,2.77-9.14-1.38-8.61-8.59-13.54-19.77-13.51-11.08.03-22.91,5.05-27.51,11.68-2.17,3.12-2.68,6.48-1.48,9.71,2.44,6.57,10.26,10.48,20.92,10.46ZM251.76,95.52c4.11-5.92,15.28-10.57,25.45-10.6,4.65-.01,15.63,1.08,17.28,11.4.41,2.53-.34,4.92-2.2,7.11-4.14,4.87-13.66,8.28-23.15,8.31h0c-9.56.02-16.5-3.28-18.56-8.82-.91-2.46-.51-4.95,1.19-7.4Z"/><path class="cls-3" d="M269.03,115.09c-10.97,0-19.05-4.11-21.61-11.01-1.3-3.5-.75-7.12,1.57-10.48,4.74-6.84,16.87-12.01,28.2-12.04,11.68,0,19.15,5.18,20.6,14.22.56,3.49-.47,6.88-2.96,9.82-4.81,5.65-15.13,9.46-25.7,9.49h-.1ZM277.28,83.25c-10.92.02-22.45,4.89-26.91,11.32-2,2.89-2.48,5.98-1.38,8.94,2.3,6.21,9.79,9.91,20.04,9.91v.84l.1-.84c10.1-.02,19.92-3.6,24.43-8.9,2.17-2.55,3.06-5.48,2.58-8.47-1.3-8.14-8.18-12.81-18.86-12.81ZM269.13,112.58c-9.98,0-17.17-3.5-19.35-9.37-1.01-2.73-.58-5.48,1.28-8.17,4.25-6.12,15.73-10.93,26.14-10.96h.07c4.84,0,16.29,1.18,18.04,12.1.44,2.78-.36,5.4-2.39,7.79-4.29,5.04-14.07,8.58-23.79,8.6ZM277.27,84.92l-.07.84c-9.92.02-20.79,4.52-24.76,10.24-1.53,2.21-1.9,4.44-1.09,6.63,1.92,5.18,8.53,8.27,17.68,8.27,9.36-.02,18.62-3.31,22.61-8.01,1.7-2,2.38-4.17,2.01-6.44-1.54-9.65-11.97-10.69-16.38-10.69v-.84Z"/><path class="cls-3" d="M476.29,187.11c-6.92-10.3-27.56-19.65-43.31-19.61-11.08.03-17.77,4.59-18.86,12.86-.81,6.17,1.25,12.26,5.96,17.61,7.59,8.63,21.27,14.41,34.03,14.38h0c11.67-.03,20.41-5.01,23.97-13.67,1.49-3.62.87-7.62-1.79-11.58ZM475.76,197.74c-4.32,10.5-15.42,12.09-21.65,12.11h0c-12.08.03-24.99-5.41-32.13-13.53-4.22-4.79-6.07-10.19-5.36-15.63,1.15-8.79,9.54-10.66,16.37-10.67,15.04-.03,34.69,8.78,41.22,18.5,2.2,3.28,2.72,6.38,1.55,9.22Z"/><path class="cls-3" d="M454.02,213.2c-12.96,0-26.84-5.89-34.56-14.67-4.87-5.54-7-11.86-6.16-18.28,1.14-8.74,8.14-13.57,19.69-13.59,16.05,0,36.98,9.52,44.01,19.98,2.83,4.2,3.47,8.48,1.88,12.37-3.69,8.99-12.71,14.16-24.75,14.19h-.1ZM433.08,168.34c-10.69.02-17.1,4.33-18.12,12.13-.78,5.93,1.22,11.79,5.76,16.95,7.42,8.43,20.8,14.1,33.3,14.1v.84l.09-.84c11.32-.03,19.78-4.82,23.2-13.15,1.38-3.35.78-7.08-1.71-10.8-6.76-10.07-27.03-19.24-42.52-19.24ZM454.11,210.68c-12.37,0-25.5-5.55-32.77-13.81-4.38-4.98-6.3-10.61-5.56-16.29.98-7.44,6.92-11.38,17.2-11.4h.09c15.26,0,35.19,8.99,41.82,18.87,2.37,3.52,2.92,6.89,1.64,10.01-4.5,10.95-15.98,12.61-22.42,12.63ZM433.08,170.02l-.09.84c-6.5.01-14.46,1.75-15.54,9.94-.68,5.18,1.1,10.36,5.15,14.96,6.97,7.92,19.59,13.24,31.41,13.24,6.11-.01,16.84-1.54,20.97-11.59,1.06-2.57.56-5.41-1.48-8.44-6.37-9.49-25.64-18.13-40.43-18.13v-.84Z"/><path class="cls-3" d="M511.57,172.58c2.21,0,4.03-.71,5.41-2.09,2.61-2.62,3.25-5.78,1.85-9.14-2.93-7.03-14.04-13.03-21.09-13.01-3.62,0-5.25,1.57-5.97,2.88-1.33,2.41-.96,5.51,1.07,8.95,3.48,5.88,12.03,12.43,18.73,12.42ZM493.96,152.43c.72-1.3,2.45-1.58,3.77-1.58,6.1-.01,16.29,5.54,18.76,11.46,1,2.41.58,4.5-1.31,6.4-.89.89-2.11,1.35-3.63,1.35-5.2.01-13.09-5.32-16.56-11.18-.89-1.5-2.2-4.34-1.04-6.45Z"/><path class="cls-3" d="M511.54,173.42c-6.98,0-15.84-6.76-19.43-12.83-2.19-3.71-2.57-7.09-1.08-9.78.83-1.51,2.67-3.31,6.7-3.31,7.36,0,18.74,6.03,21.86,13.53,1.54,3.7.84,7.17-2.03,10.05-1.54,1.55-3.56,2.34-6,2.34h-.02ZM497.76,149.17c-2.57,0-4.38.85-5.27,2.45-1.18,2.14-.82,4.95,1.06,8.12,3.36,5.68,11.57,12,17.98,12v.84l.02-.84c1.98,0,3.6-.63,4.81-1.85,2.38-2.39,2.94-5.16,1.67-8.23-2.81-6.73-13.5-12.5-20.28-12.5ZM511.56,170.9c-5.56,0-13.63-5.42-17.28-11.59-.98-1.66-2.42-4.81-1.05-7.28.73-1.31,2.29-2.01,4.51-2.02h.02c6.4,0,16.87,5.64,19.51,11.98,1.13,2.72.63,5.18-1.49,7.31-1.05,1.06-2.47,1.6-4.22,1.6ZM497.76,150.85l-.02.84c-1.1,0-2.52.2-3.04,1.15-1,1.81.38,4.53,1.03,5.62,3.33,5.64,10.87,10.77,15.82,10.77,1.3,0,2.33-.38,3.05-1.11,1.64-1.65,2-3.39,1.13-5.48-2.31-5.54-12.24-10.95-17.96-10.95v-.84Z"/><path class="cls-3" d="M75.57,163.12c-7.76.02-17.46,4.55-20.76,9.69-1.39,2.18-1.64,4.39-.72,6.4,1.73,3.77,6.46,6.02,12.66,6.01,6.65-.02,13.15-2.55,16.55-6.45,2.1-2.41,2.99-5.3,2.58-8.34-.63-4.66-4.39-7.32-10.31-7.31ZM81.4,177.11c-2.9,3.33-8.79,5.58-14.66,5.59-5.19.01-9.06-1.68-10.36-4.54-.55-1.21-.37-2.55.55-3.99,2.85-4.45,11.74-8.52,18.64-8.53,3.25,0,7.23.88,7.81,5.13.32,2.33-.35,4.47-1.99,6.35Z"/><path class="cls-3" d="M66.69,186.05c-6.51,0-11.5-2.43-13.36-6.5-1.04-2.28-.77-4.77.78-7.2,3.43-5.35,13.45-10.06,21.46-10.08,6.41,0,10.45,2.93,11.14,8.03.45,3.29-.51,6.4-2.78,9-3.56,4.08-10.3,6.72-17.18,6.74h-.06ZM75.61,163.96c-7.56.02-16.93,4.37-20.09,9.3-1.23,1.92-1.46,3.86-.67,5.6,1.58,3.45,6,5.52,11.84,5.52v.84l.06-.84c6.42-.01,12.67-2.44,15.92-6.17,1.94-2.22,2.76-4.88,2.38-7.67-.58-4.24-3.93-6.58-9.44-6.58ZM66.74,183.54c-5.55,0-9.69-1.88-11.13-5.03-.47-1.02-.74-2.68.61-4.79,2.98-4.65,12.2-8.9,19.35-8.92h.04c5.03,0,8.09,2.08,8.6,5.85.35,2.59-.38,4.94-2.18,7.01-3.05,3.5-9.2,5.86-15.29,5.88ZM75.61,165.64l-.04.84c-6.55.02-15.27,3.97-17.94,8.15-.77,1.2-.93,2.24-.5,3.19,1.16,2.54,4.73,4.05,9.55,4.05,5.69-.01,11.33-2.14,14.08-5.3,1.47-1.69,2.07-3.6,1.79-5.68-.4-2.92-2.73-4.4-6.94-4.4v-.84Z"/><path class="cls-3" d="M307.3,432.01c-25.16.06-55.76,8.05-59.21,30.4-.86,5.56,1.09,11.15,5.8,16.63,12.38,14.41,41.84,25.22,68.53,25.16h0c25.62-.06,43.15-9.72,49.35-27.2,3-8.47,2.07-16.24-2.78-23.09-9.47-13.37-33.69-21.97-61.7-21.91ZM369.41,476.17c-7.85,22.13-32.8,25.49-46.99,25.52h0c-26.03.06-54.67-10.38-66.62-24.29-4.21-4.89-5.96-9.81-5.22-14.61,3.21-20.78,32.57-28.21,56.73-28.27,26.8-.06,50.77,8.32,59.65,20.85,4.35,6.14,5.18,13.14,2.46,20.79Z"/><path class="cls-3" d="M322.2,505.05c-26.84,0-56.48-10.94-68.95-25.45-4.88-5.67-6.89-11.5-5.99-17.31,3.53-22.87,34.55-31.05,60.04-31.11h.31c28.13,0,52.5,8.74,62.08,22.26,5.02,7.08,5.99,15.11,2.89,23.85-6.32,17.84-24.13,27.7-50.14,27.76h-.23ZM307.61,432.85h-.31c-24.83.06-55.01,7.87-58.38,29.69-.82,5.3,1.07,10.67,5.61,15.96,12.19,14.18,41.28,24.87,67.68,24.87h.22c25.26-.06,42.5-9.52,48.57-26.64,2.91-8.2,2.01-15.71-2.67-22.32-9.27-13.09-33.1-21.56-60.71-21.56ZM322.2,502.53c-26.18,0-55-10.57-67.04-24.58-4.37-5.09-6.2-10.23-5.41-15.28,3.29-21.3,33.06-28.93,57.56-28.98h.3c26.93,0,51.05,8.52,60.03,21.2,4.52,6.38,5.38,13.63,2.57,21.56-8.02,22.62-33.37,26.05-47.78,26.08h-.23ZM307.6,435.36h-.29c-23.83.06-52.77,7.31-55.9,27.56-.7,4.54.99,9.23,5.03,13.93,11.76,13.68,40.03,24,65.77,24h.22c13.97-.03,38.53-3.32,46.21-24.96,2.62-7.38,1.82-14.12-2.36-20.03-8.68-12.26-32.26-20.49-58.67-20.49Z"/><path class="cls-3" d="M495.72,323.03c-8.73.02-18.49,4.68-19.72,17.7-.38,4.03,1,7.91,4.01,11.2,4.94,5.42,13.9,8.91,22.81,8.89h0c11.25-.03,18.68-5.63,19.38-14.63.4-5.18-1.41-10.09-5.23-14.21-5.14-5.54-13.28-8.97-21.25-8.95ZM519.69,345.99c-.88,11.38-13.14,12.3-16.88,12.31h0c-8.11.02-16.52-3.23-20.94-8.07-2.55-2.79-3.68-5.91-3.36-9.27.91-9.63,7.35-15.4,17.22-15.42,7.18-.02,14.8,3.18,19.4,8.14,3.33,3.59,4.91,7.85,4.57,12.31Z"/><path class="cls-3" d="M502.75,361.65c-9.11,0-18.28-3.6-23.36-9.17-3.17-3.47-4.63-7.57-4.22-11.84,1.28-13.58,11.46-18.44,20.55-18.46,8.24,0,16.59,3.53,21.87,9.22,3.99,4.3,5.87,9.43,5.45,14.85-.74,9.47-8.48,15.38-20.22,15.4h-.07ZM495.78,323.86c-8.42.02-17.77,4.48-18.94,16.94-.36,3.79.95,7.44,3.79,10.56,4.77,5.24,13.46,8.62,22.12,8.62v.84l.07-.84c10.78-.02,17.89-5.33,18.55-13.86.38-4.94-1.35-9.63-5.01-13.58-4.97-5.35-12.85-8.68-20.57-8.68ZM502.82,359.14c-8.37,0-17.02-3.35-21.57-8.35-2.71-2.97-3.92-6.31-3.58-9.91.96-10.11,7.7-16.16,18.05-16.18h.06c7.38,0,15.22,3.3,19.96,8.41,3.5,3.77,5.15,8.25,4.79,12.94-.94,12.1-13.79,13.07-17.71,13.08ZM495.78,325.54l-.05.84c-9.39.02-15.52,5.5-16.39,14.66-.29,3.11.76,6.01,3.15,8.62,4.25,4.66,12.4,7.8,20.27,7.8,3.61,0,15.28-.87,16.1-11.53.33-4.22-1.17-8.25-4.35-11.67-4.44-4.78-11.79-7.87-18.73-7.87v-.84Z"/><path class="cls-3" d="M440.37,357.16c-8.23.02-17.31,4.14-17.79,13.15-.16,3.02.86,5.78,2.95,7.98,3.26,3.43,9.11,5.47,15.65,5.46h0c6.37-.01,12.03-1.99,15.12-5.28,1.92-2.04,2.84-4.58,2.67-7.35-.59-9.62-10.06-13.98-18.6-13.96ZM454.46,376.75c-2.59,2.75-7.68,4.47-13.29,4.49-5.77.01-11.07-1.78-13.82-4.68-1.62-1.71-2.38-3.76-2.26-6.11.39-7.38,8.2-10.75,15.28-10.77,7.4-.02,15.6,3.6,16.08,11.59.13,2.08-.54,3.93-2,5.47Z"/><path class="cls-3" d="M441.11,384.59c-6.73,0-12.78-2.14-16.19-5.72-2.25-2.37-3.35-5.34-3.18-8.6.51-9.55,10.01-13.92,18.62-13.95,8.96,0,18.82,4.61,19.44,14.75.18,3-.82,5.76-2.9,7.97-3.24,3.46-9.12,5.53-15.72,5.55h-.07ZM440.43,358c-7.9.02-16.55,3.89-17.01,12.36-.15,2.79.79,5.33,2.72,7.35,3.09,3.26,8.69,5.2,14.97,5.2v.84l.07-.84c6.15-.01,11.57-1.89,14.51-5.02,1.76-1.87,2.6-4.19,2.45-6.72-.56-9.05-9.57-13.17-17.71-13.17ZM441.17,382.07c-6.03,0-11.54-1.89-14.43-4.94-1.79-1.88-2.63-4.15-2.49-6.73.42-7.92,8.65-11.55,16.12-11.57h.06c7.76,0,16.35,3.88,16.86,12.38.14,2.32-.6,4.37-2.22,6.1-2.74,2.92-8.07,4.74-13.9,4.75ZM440.43,359.68l-.05.84c-6.7.01-14.08,3.14-14.45,9.98-.11,2.11.57,3.95,2.03,5.49,2.59,2.72,7.63,4.42,13.15,4.42,5.45-.01,10.31-1.63,12.74-4.22,1.29-1.37,1.88-3.01,1.77-4.85-.45-7.42-8.19-10.81-15.19-10.81v-.84Z"/><path class="cls-3" d="M138.27,235.09c-8.55.02-17.03,3.48-22.13,9.03-3.64,3.96-5.34,8.76-4.92,13.87.73,8.84,8.37,14.31,19.95,14.28h0c9.76-.02,19.2-3.98,24.03-10.09,3.14-3.97,4.19-8.67,3.05-13.6-1.98-8.47-9.45-13.52-19.98-13.49ZM153.23,260.63c-4.31,5.45-13.18,9.12-22.07,9.14h0c-7.95.02-16.71-3.12-17.43-11.97-.36-4.4,1.11-8.53,4.26-11.96,4.57-4.97,12.53-8.2,20.29-8.22,9.28-.02,15.83,4.3,17.52,11.55.98,4.22.12,8.07-2.57,11.47Z"/><path class="cls-3" d="M131.08,273.12c-12,0-19.94-5.77-20.7-15.05-.44-5.35,1.33-10.37,5.14-14.51,5.25-5.72,13.97-9.28,22.75-9.3,10.98,0,18.73,5.29,20.8,14.14,1.21,5.19.1,10.13-3.21,14.31-4.99,6.3-14.68,10.39-24.69,10.41h-.09ZM138.34,235.93c-8.4.02-16.65,3.38-21.59,8.76-3.48,3.78-5.1,8.36-4.7,13.23.69,8.33,7.98,13.51,19.03,13.51v.84l.08-.84c9.52-.02,18.7-3.86,23.38-9.77,2.98-3.76,3.97-8.22,2.88-12.89-1.88-8.04-9.01-12.85-19.08-12.85ZM131.16,270.6c-8.37,0-17.5-3.35-18.27-12.74-.38-4.64,1.17-8.99,4.48-12.6,4.72-5.14,12.93-8.47,20.9-8.49h.07c9.66,0,16.49,4.56,18.27,12.2,1.04,4.48.13,8.57-2.73,12.18-4.46,5.63-13.59,9.43-22.72,9.45ZM138.34,237.61l-.07.84c-7.53.02-15.25,3.14-19.67,7.94-2.99,3.25-4.39,7.17-4.05,11.33.68,8.26,8.98,11.2,16.53,11.2,8.71-.02,17.32-3.56,21.48-8.82,2.52-3.18,3.33-6.8,2.41-10.75-1.59-6.83-7.81-10.9-16.63-10.9v-.84Z"/><path class="cls-3" d="M321.89,85.95c6.04-.01,11.08-1.8,13.82-4.89,1.8-2.03,2.57-4.61,2.22-7.47-.83-6.87-6.73-11.29-15.06-11.27-8.13.02-17.12,4.65-17.75,13.18-.15,2.02.56,3.93,2.04,5.53,2.84,3.05,8.48,4.94,14.72,4.93ZM322.88,64.83c5.54-.01,11.75,2.36,12.55,9.06.26,2.15-.28,4.01-1.61,5.5-2.23,2.52-6.69,4.03-11.94,4.04-5.48.01-10.53-1.61-12.88-4.13-1.01-1.09-1.47-2.31-1.38-3.62.52-7.03,8.25-10.84,15.25-10.86Z"/><path class="cls-3" d="M321.82,86.79c-6.43,0-12.29-1.99-15.27-5.19-1.65-1.77-2.43-3.9-2.27-6.16.67-9.04,10.08-13.94,18.59-13.96,8.8,0,15.01,4.72,15.89,12.01.37,3.1-.47,5.91-2.43,8.13-2.89,3.27-8.16,5.16-14.44,5.17h-.07ZM322.93,63.15c-7.81.02-16.37,4.37-16.97,12.41-.13,1.78.5,3.47,1.82,4.89,2.67,2.87,8.05,4.66,14.04,4.66v.84l.07-.84c5.81-.01,10.61-1.69,13.19-4.61,1.63-1.85,2.33-4.2,2.02-6.82-.77-6.4-6.33-10.54-14.17-10.54ZM321.89,84.27c-5.74,0-11.01-1.72-13.49-4.39-1.18-1.27-1.72-2.7-1.6-4.26.56-7.53,8.71-11.61,16.08-11.63h.04c5.88,0,12.48,2.57,13.34,9.8.29,2.4-.32,4.48-1.81,6.16-2.39,2.7-7.09,4.31-12.57,4.33ZM322.92,64.83l-.04.84c-6.62.02-13.93,3.55-14.41,10.08-.08,1.09.29,2.07,1.15,2.99,2.18,2.34,6.97,3.86,12.2,3.86,5.07-.01,9.3-1.42,11.38-3.76,1.16-1.31,1.63-2.94,1.4-4.85-.74-6.13-6.52-8.32-11.68-8.32v-.84Z"/><path class="cls-3" d="M54.72,354.21c-1.96,0-3.82.61-5.52,1.81-5.48,3.87-7.23,11.48-4.56,19.86,2.8,8.79,10.54,17.68,19.93,17.66h0c1.98,0,3.96-.41,5.88-1.19,4.45-1.82,6.2-6.9,4.81-13.95-2.22-11.2-11.67-24.21-20.54-24.19ZM69.49,390.02c-1.62.67-3.28,1-4.93,1.01h0c-8.18.02-15.01-7.99-17.53-15.9-2.36-7.41-1.01-13.78,3.62-17.04,1.27-.9,2.64-1.35,4.08-1.36,7.57-.02,16.07,12.11,18.06,22.16.67,3.38,1.13,9.32-3.29,11.13Z"/><path class="cls-3" d="M64.53,394.38c-9.78,0-17.82-9.18-20.7-18.24-2.78-8.75-.91-16.72,4.88-20.8,1.85-1.3,3.87-1.96,6-1.97,9.27,0,19.09,13.37,21.36,24.87,1.48,7.47-.46,12.9-5.31,14.89-2.03.83-4.11,1.25-6.2,1.26h-.03ZM54.74,355.05c-1.8,0-3.5.56-5.06,1.66-5.18,3.65-6.8,10.9-4.25,18.92,2.7,8.48,10.13,17.07,19.1,17.07v.84l.03-.84c1.87,0,3.74-.39,5.57-1.13,4.04-1.65,5.61-6.39,4.3-13.01-2.15-10.87-11.23-23.52-19.7-23.52ZM64.56,391.87c-8.6,0-15.73-8.29-18.33-16.49-2.48-7.78-1.01-14.5,3.93-17.98,1.41-1,2.95-1.51,4.56-1.51h.02c8.08,0,16.78,12.28,18.87,22.84,1.24,6.27-.11,10.56-3.8,12.07-1.72.7-3.49,1.06-5.25,1.07ZM54.74,356.72v.84c-1.27,0-2.48.41-3.61,1.2-4.31,3.04-5.54,9.06-3.3,16.1,2.42,7.61,8.94,15.32,16.71,15.32,1.57,0,3.12-.32,4.64-.95,3.87-1.58,3.41-7.07,2.79-10.19-1.91-9.67-10.24-21.49-17.23-21.49v-.84Z"/><path class="cls-3" d="M214.64,508.41c-9.48.02-17.16,2.3-20.55,6.09-1.62,1.82-2.31,3.95-2.04,6.32,1.11,9.75,14.33,14.98,26.22,14.95h0c9.72-.02,20.77-3.74,22.62-14.09.38-2.11-.21-4.16-1.69-5.93-4.28-5.11-15.42-7.37-24.57-7.35ZM238.42,521.24c-1.58,8.83-11.45,11.99-20.15,12.01h0c-10.94.02-22.81-4.73-23.71-12.72-.19-1.65.28-3.08,1.42-4.36,2.87-3.22,10.02-5.23,18.67-5.25,10.12-.02,19.43,2.63,22.63,6.45,1.02,1.21,1.39,2.48,1.14,3.87Z"/><path class="cls-3" d="M218.19,536.61c-12.21,0-25.81-5.5-26.96-15.69-.3-2.62.46-4.96,2.25-6.97,3.54-3.97,11.45-6.35,21.17-6.38,9.42,0,20.78,2.36,25.21,7.65,1.65,1.97,2.3,4.25,1.88,6.61-1.95,10.86-13.39,14.75-23.45,14.78h-.09ZM214.76,509.24c-9.37.02-16.81,2.2-20.04,5.81-1.46,1.64-2.08,3.54-1.83,5.67,1.05,9.23,13.81,14.21,25.3,14.21v.84l.09-.84c9.38-.02,20.03-3.55,21.8-13.4.33-1.85-.19-3.67-1.51-5.24-4.08-4.87-14.9-7.05-23.8-7.05ZM218.27,534.09c-11.36,0-23.6-5.04-24.55-13.46-.21-1.88.33-3.56,1.63-5.01,3.02-3.39,10.41-5.51,19.3-5.53h.13c10.46,0,19.76,2.71,23.14,6.75,1.17,1.4,1.62,2.93,1.33,4.56-1.68,9.34-11.93,12.68-20.98,12.7ZM214.78,510.92l-.13.84c-8.42.02-15.33,1.93-18.05,4.97-.99,1.11-1.37,2.29-1.21,3.71.85,7.5,12.26,11.98,22.79,11.98,8.45-.02,17.92-3,19.41-11.32.2-1.14-.1-2.16-.96-3.18-3.04-3.62-12.02-6.15-21.86-6.15v-.84Z"/><path class="cls-3" d="M441.75,465.39c-7.55.02-16.73,8.1-19.58,15.04-1.57,3.82-1.2,7.16,1.06,9.4,1.61,1.6,3.85,2.45,6.47,2.44h0c6.95-.02,15.69-5.79,19.08-12.62,2.01-4.05,1.82-8.01-.54-11.14-1.55-2.05-3.8-3.14-6.5-3.13ZM446.53,478.54c-2.91,5.86-10.94,11.21-16.84,11.22h0c-1.97,0-3.55-.57-4.69-1.71-1.91-1.9-1.33-4.67-.51-6.67,2.74-6.66,11.45-13.47,17.26-13.48,1.91,0,3.42.71,4.49,2.13,2.25,2.99,1.4,6.27.29,8.5Z"/><path class="cls-3" d="M429.67,493.11c-2.84,0-5.27-.93-7.04-2.69-2.51-2.5-2.95-6.16-1.25-10.32,2.96-7.18,12.49-15.54,20.36-15.56,2.99,0,5.47,1.2,7.17,3.47,2.56,3.4,2.78,7.67.62,12.01-3.51,7.07-12.6,13.07-19.83,13.08h-.03ZM441.77,466.23c-7.26.02-16.07,7.82-18.83,14.52-1.43,3.49-1.12,6.5.88,8.49,1.44,1.44,3.47,2.2,5.85,2.2v.84l.03-.84c6.67-.02,15.07-5.58,18.34-12.15,1.86-3.75,1.7-7.39-.46-10.26-1.38-1.83-3.39-2.8-5.81-2.8ZM429.7,490.6c-2.22,0-3.99-.66-5.29-1.95-1.77-1.76-2.01-4.38-.69-7.58,2.9-7.05,11.83-13.99,18.03-14h.02c2.18,0,3.9.83,5.14,2.46,2.51,3.33,1.59,6.94.37,9.38-3.03,6.1-11.42,11.67-17.58,11.69ZM441.77,467.91l-.02.84c-5.43.01-13.9,6.67-16.49,12.96-.72,1.76-1.26,4.18.32,5.75.98.97,2.35,1.46,4.08,1.46,5.65-.01,13.32-5.14,16.11-10.76,1-2.02,1.78-4.98-.21-7.62-.91-1.21-2.15-1.8-3.8-1.8v-.84Z"/><path class="cls-3" d="M526.9,191.79c-3.98,3.43-5.16,8.37-3.24,13.54,1.87,5.03,6.2,8.82,10.05,8.81.97,0,1.88-.24,2.7-.71,2.87-1.65,3.66-6.1,2.11-11.89-1.41-5.26-4.74-10.92-8.7-10.91-1.04,0-2.03.39-2.92,1.16ZM536.1,202.19c1.18,4.42.81,8.06-.93,9.06-.44.25-.92.38-1.45.38-2.76,0-6.21-3.21-7.69-7.17-.9-2.43-1.78-7.05,2.52-10.76.43-.37.85-.55,1.28-.55,2.12,0,4.93,4.05,6.27,9.04Z"/><path class="cls-3" d="M533.71,214.98c-4.19,0-8.84-4.02-10.83-9.35-2.06-5.52-.79-10.79,3.48-14.47,1.05-.9,2.22-1.36,3.47-1.37,4.44,0,7.98,5.79,9.52,11.53,1.66,6.19.72,10.98-2.5,12.84-.95.54-2,.82-3.12.82h-.01ZM529.83,191.47c-.85,0-1.65.33-2.38.96-3.7,3.19-4.8,7.79-3,12.61,1.75,4.71,5.73,8.26,9.25,8.26v.84-.84c.84,0,1.6-.2,2.3-.6,2.52-1.45,3.16-5.54,1.71-10.95-1.37-5.11-4.52-10.29-7.88-10.29ZM533.71,212.47c-3.14,0-6.86-3.39-8.48-7.72-.98-2.63-1.92-7.65,2.76-11.68.58-.5,1.2-.75,1.83-.76h0c2.91,0,5.82,4.98,7.08,9.67,1.3,4.87.78,8.79-1.32,10-.57.32-1.19.49-1.87.49ZM529.83,193.15v.84c-.08,0-.33,0-.74.35-3.92,3.37-3.11,7.6-2.28,9.83,1.34,3.59,4.5,6.62,6.9,6.62.39,0,.74-.09,1.04-.27,1.17-.67,1.73-3.67.54-8.11-1.29-4.82-3.95-8.42-5.46-8.42v-.84Z"/><path class="cls-3" d="M173.26,69.28h0c11.03-.03,26.42-7.5,32.29-15.69,2.34-3.27,3.07-6.5,2.11-9.36-1.54-4.57-5.67-6.99-11.94-6.97-11.94.03-28.57,8.78-33.58,17.68-1.87,3.32-2,6.48-.38,9.17,2.05,3.4,6.03,5.2,11.51,5.18ZM164.32,56.16c4.56-8.09,20.4-16.37,31.39-16.39,5.16-.01,8.38,1.76,9.55,5.26.7,2.09.11,4.48-1.77,7.1-5.48,7.64-19.9,14.62-30.25,14.64-3.17,0-7.36-.68-9.35-3.97-1.14-1.89-1-4.12.42-6.63Z"/><path class="cls-3" d="M173.21,70.12c-5.76,0-9.97-1.93-12.17-5.59-1.78-2.95-1.66-6.42.37-10.01,5.13-9.11,22.12-18.07,34.31-18.1,6.7,0,11.08,2.61,12.74,7.54,1.05,3.13.28,6.63-2.22,10.12-6,8.37-21.72,16.01-32.97,16.04h-.06ZM195.77,38.09c-11.75.03-28.02,8.57-32.91,17.25-1.71,3.04-1.84,5.91-.39,8.32,1.89,3.13,5.6,4.78,10.74,4.78v.84l.05-.84c10.8-.03,25.87-7.34,31.61-15.34,2.18-3.04,2.87-6.01,2-8.61-1.78-5.29-7.01-6.4-11.09-6.4ZM173.25,67.6c-3.41,0-7.89-.76-10.07-4.37-1.31-2.16-1.17-4.68.41-7.48,4.68-8.31,20.89-16.79,32.12-16.82h.06c5.53,0,8.99,1.96,10.29,5.83.79,2.36.16,5-1.88,7.85-5.61,7.82-20.35,14.97-30.93,14.99ZM195.77,39.77l-.05.84c-10.75.02-26.23,8.08-30.67,15.97-1.26,2.23-1.4,4.18-.43,5.79,1.78,2.94,5.65,3.56,8.59,3.56,10.17-.02,24.26-6.84,29.61-14.29,1.71-2.39,2.27-4.52,1.66-6.34-1.04-3.11-3.97-4.68-8.7-4.68v-.84Z"/><path class="cls-3" d="M57,400.17c-.49,0-.99.05-1.48.14-3.62.67-5.42,3.98-4.95,9.08.65,6.97,5.93,17.29,11.91,17.28h0c1.03,0,2.02-.31,2.93-.93,3.8-2.54,5.02-8.21,3.12-14.43-1.7-5.56-5.92-11.16-11.54-11.15ZM64.02,423.66c-.5.34-1,.5-1.54.5-3.74,0-8.75-7.98-9.4-15-.2-2.15-.09-5.83,2.9-6.38.34-.06.69-.1,1.03-.1,4.3,0,7.75,4.85,9.13,9.37,1.19,3.9,1.35,9.28-2.12,11.61Z"/><path class="cls-3" d="M62.47,427.51c-6.65,0-12.07-10.86-12.74-18.04-.51-5.51,1.6-9.24,5.63-9.98,6.82-1.23,12.04,5.23,13.98,11.59,2.01,6.58.65,12.62-3.46,15.37-1.05.71-2.19,1.07-3.4,1.07h-.01ZM57.02,401.01c-.45,0-.9.04-1.35.12-4.3.79-4.52,5.47-4.26,8.18.6,6.5,5.62,16.52,11.07,16.52v.84-.84c.88,0,1.7-.27,2.48-.78,3.48-2.33,4.58-7.63,2.79-13.49-1.6-5.25-5.54-10.55-10.72-10.55ZM62.48,424.99c-4.53,0-9.6-8.88-10.24-15.76-.39-4.2.89-6.78,3.59-7.28.39-.07.79-.11,1.18-.11h.02c4.73,0,8.45,5.16,9.92,9.96,1.28,4.18,1.4,9.97-2.45,12.55-.64.43-1.3.64-2,.64ZM57.02,402.68v.84c-.3,0-.6.03-.89.08-2.33.43-2.39,3.61-2.22,5.48.64,6.87,5.57,14.24,8.56,14.24.37,0,.71-.11,1.08-.36,3.09-2.07,2.89-7.04,1.78-10.67-1.29-4.23-4.44-8.77-8.31-8.77v-.84Z"/><path class="cls-3" d="M265.52,285.8c-.75,3.6.26,7.24,2.92,10.5,6.14,7.53,21.08,12.97,35.53,12.93h0c7.86-.02,14.59-1.65,19.48-4.71,5.73-3.59,8.75-9.11,8.74-15.95-.04-17.99-16.73-27.37-33.19-27.33-13.1.03-29.73,6.48-33.49,24.55ZM299.01,263.77c15.21-.04,30.63,8.48,30.67,24.82.01,6.01-2.53,10.66-7.56,13.81-4.49,2.81-10.77,4.31-18.15,4.33h0c-13.76.03-27.88-5.02-33.58-12.01-2.2-2.7-3.01-5.53-2.41-8.4,3.45-16.6,18.88-22.52,31.03-22.55Z"/><path class="cls-3" d="M303.85,310.08c-14.64,0-29.8-5.57-36.06-13.24-2.83-3.47-3.9-7.34-3.1-11.21,3.86-18.56,20.89-25.19,34.31-25.22,16.93,0,33.99,9.67,34.03,28.17.02,7.15-3.14,12.91-9.13,16.66-5.02,3.15-11.91,4.82-19.92,4.84h-.13ZM299.11,262.09c-12.88.03-29.11,6.3-32.77,23.88-.7,3.35.26,6.74,2.75,9.8,5.96,7.32,20.58,12.62,34.76,12.62v.84l.12-.84c7.7-.02,14.29-1.6,19.04-4.58,5.48-3.43,8.36-8.7,8.34-15.24-.04-17.39-16.26-26.49-32.25-26.49ZM303.98,307.57c-14.07,0-28.42-5.18-34.23-12.32-2.37-2.9-3.23-5.97-2.58-9.1,3.56-17.09,19.38-23.18,31.85-23.21h.09c15.58,0,31.38,8.81,31.41,25.66.01,6.32-2.66,11.21-7.95,14.52-4.62,2.9-11.05,4.44-18.59,4.45ZM299.11,263.77l-.09.84c-11.84.03-26.86,5.77-30.21,21.88-.55,2.62.21,5.21,2.24,7.7,5.53,6.78,19.32,11.7,32.81,11.7,7.35-.02,13.47-1.47,17.83-4.2,4.77-2.99,7.18-7.39,7.16-13.1-.04-15.74-14.99-23.98-29.74-23.98v-.84Z"/><path class="cls-3" d="M334.08,260.15c.6,7.58,8.67,11.66,15.96,11.64,7.68-.02,12.9-4.27,13.3-10.84.17-2.82-.71-5.33-2.53-7.26-2.52-2.67-6.81-4.2-11.77-4.19-5.28.01-10.19,1.79-12.81,4.63-1.58,1.72-2.32,3.8-2.15,6.01ZM338.08,255.84c2.13-2.31,6.43-3.81,10.96-3.82,4.2,0,7.92,1.26,9.94,3.4,1.35,1.43,1.97,3.24,1.84,5.38-.37,6.23-5.82,8.46-10.79,8.47-6.24.01-12.98-3.47-13.44-9.32-.12-1.52.38-2.91,1.49-4.11Z"/><path class="cls-3" d="M349.99,272.63c-7.64,0-16.11-4.35-16.75-12.41-.2-2.46.62-4.75,2.37-6.65,2.77-3.01,7.92-4.88,13.42-4.9,5.22,0,9.72,1.62,12.38,4.45,1.98,2.1,2.94,4.83,2.75,7.88-.43,7.04-5.97,11.61-14.13,11.62h-.05ZM349.09,250.35c-5.11.01-9.78,1.68-12.25,4.36-1.42,1.54-2.09,3.4-1.93,5.38.56,7.06,8.19,10.87,15.08,10.87v.84l.04-.84c7.2-.02,12.1-3.96,12.46-10.05.15-2.58-.64-4.87-2.3-6.63-2.35-2.49-6.4-3.92-11.11-3.92ZM350.03,270.11c-6.65,0-13.78-3.78-14.28-10.1-.14-1.76.43-3.36,1.71-4.74,2.28-2.47,6.82-4.08,11.58-4.09h.05c4.41,0,8.33,1.37,10.5,3.66,1.52,1.61,2.21,3.63,2.07,6.01-.41,6.81-6.27,9.25-11.63,9.26ZM349.09,252.02l-.05.84c-4.31,0-8.37,1.4-10.35,3.55-.94,1.03-1.37,2.2-1.27,3.48.43,5.35,6.72,8.55,12.57,8.55,4.63-.01,9.65-2.03,9.99-7.68.11-1.9-.43-3.5-1.61-4.75-1.85-1.96-5.32-3.14-9.28-3.14v-.84Z"/><path class="cls-3" d="M515.45,428.67c-5.79,4.57-11.92,9.29-19.19,10.56-8,1.39-16.3-1.63-24.27-.07-9.55,1.86-16.64,9.81-25.45,13.94-8.75,4.1-18.77,4.26-28.43,4.34-15.87.13-31.76.26-47.62-.2,3.11,6.06,3.42,12.75.85,19.95-6.24,17.47-23.79,27.09-49.41,27.09h0c-26.69,0-56.13-10.89-68.48-25.32-4.69-5.49-6.63-11.09-5.76-16.64,1.34-8.55,6.66-14.98,14.12-19.67-4.94-1.03-9.88-2.06-14.82-3.1-13.18-2.78-26.54-5.62-38.5-11.82-13.83-7.17-25.03-18.44-35.94-29.56-36.53-37.25-72.61-74.94-108.23-113.07-8.87-9.49-17.82-19.16-23.85-30.67-7.38-14.09-10-30.2-10.95-46.07-1.3-21.78.4-43.73,4.93-65.07C-11.84,235.74-7.3,352.71,46.74,437.76c50.15,78.94,142.55,127.98,241.12,127.99h.02c97.98,0,183.78-47.3,235.43-129.77,4.94-7.89,9.45-15.98,13.55-24.2-7.14,5.63-14.27,11.26-21.41,16.89ZM65.09,425.22c-.91.61-1.9.92-2.93.92h0c-5.98,0-11.25-10.34-11.87-17.31-.46-5.11,1.35-8.41,4.97-9.07.49-.09.99-.13,1.48-.13,5.62,0,9.83,5.61,11.51,11.17,1.89,6.23.65,11.89-3.16,14.42ZM70.2,391.84c-1.93.78-3.91,1.18-5.88,1.18h0c-9.39,0-17.11-8.91-19.89-17.7-2.65-8.39-.88-16,4.61-19.85,1.7-1.2,3.56-1.8,5.53-1.8,8.87,0,18.29,13.03,20.48,24.24,1.38,7.05-.39,12.13-4.84,13.94ZM240.35,521.57c-1.88,10.35-12.94,14.03-22.66,14.03h0c-11.88,0-25.1-5.26-26.18-15.01-.26-2.37.43-4.49,2.06-6.31,3.39-3.79,11.07-6.05,20.56-6.05s20.28,2.29,24.55,7.41c1.48,1.78,2.06,3.83,1.68,5.93ZM448.34,480.02c-3.41,6.82-12.16,12.57-19.11,12.57h0c-2.63,0-4.86-.85-6.47-2.46-2.25-2.25-2.62-5.59-1.04-9.41,2.87-6.93,12.07-14.99,19.62-14.99,2.71,0,4.95,1.09,6.49,3.15,2.35,3.14,2.54,7.09.51,11.14Z"/><path class="cls-3" d="M287.89,566.59s0,0,0,0h-.02c-98.86,0-191.52-49.2-241.83-128.38C19.48,396.42,4.3,346.32,2.13,293.33-.03,240.49,10.88,188.47,33.7,142.89l2.93-5.85-1.36,6.4c-4.55,21.46-6.21,43.28-4.92,64.85,1.15,19.27,4.6,33.8,10.86,45.73,6.09,11.62,15.45,21.64,23.72,30.49,35.44,37.94,71.85,75.98,108.22,113.06,10.18,10.38,21.72,22.14,35.73,29.4,11.94,6.19,25.33,9.01,38.28,11.74,4.93,1.04,9.87,2.08,14.82,3.1l2.04.42-1.76,1.11c-7.91,4.97-12.53,11.4-13.74,19.09-.83,5.3,1.04,10.68,5.57,15.97,12.2,14.27,41.37,25.03,67.84,25.03,25.25,0,42.52-9.42,48.63-26.53,2.48-6.94,2.2-13.43-.81-19.29l-.65-1.26,1.42.04c7.6.22,15.65.33,25.33.33,7.42,0,14.84-.06,22.26-.12,9.07-.08,19.34-.16,28.08-4.26,3.39-1.59,6.59-3.8,9.68-5.94,4.91-3.39,9.98-6.9,15.96-8.06,1.63-.32,3.39-.47,5.36-.47,2.41,0,4.86.23,7.22.46,4.03.38,8.35.67,11.7.09,7.24-1.26,13.39-6.11,18.81-10.39l24.35-19.21-1.67,3.35c-4.16,8.36-8.74,16.52-13.59,24.28-51.8,82.71-137.87,130.16-236.13,130.16ZM287.88,565.75v-.84c97.68,0,183.23-47.15,234.71-129.37,4.17-6.65,8.13-13.62,11.8-20.74l-18.42,14.53c-5.58,4.4-11.91,9.4-19.56,10.72-3.54.62-8.01.33-12.15-.07-2.33-.22-4.73-.45-7.07-.45-1.87,0-3.51.14-5.04.44-5.64,1.1-10.35,4.35-15.33,7.8-3.15,2.18-6.41,4.43-9.93,6.08-9.08,4.25-19.54,4.34-28.78,4.42-7.42.06-14.85.12-22.28.12-9.11,0-16.78-.09-24-.29,2.65,5.95,2.75,12.46.29,19.36-6.37,17.83-24.2,27.64-50.2,27.64-26.92,0-56.64-11.01-69.12-25.61-4.86-5.68-6.86-11.51-5.95-17.32,1.2-7.62,5.5-14.05,12.81-19.13-4.29-.89-8.57-1.79-12.85-2.69-13.06-2.75-26.57-5.6-38.71-11.89-14.25-7.39-25.88-19.25-36.15-29.72-36.38-37.09-72.79-75.14-108.24-113.09-8.34-8.92-17.78-19.04-23.98-30.86-6.37-12.15-9.88-26.9-11.04-46.41-1.17-19.59.07-39.37,3.68-58.92C-11.25,241.64-5.54,353.92,47.45,437.31c50,78.7,142.12,127.59,240.41,127.6l.02.84ZM217.7,536.44c-12.25,0-25.88-5.52-27.02-15.76-.29-2.62.47-4.96,2.27-6.96,3.55-3.96,11.46-6.33,21.18-6.33s20.75,2.38,25.19,7.71c1.65,1.97,2.29,4.26,1.86,6.62-1.98,10.85-13.42,14.72-23.48,14.72ZM214.13,509.07c-9.25,0-16.7,2.16-19.93,5.77-1.46,1.64-2.08,3.54-1.85,5.66,1.03,9.26,13.83,14.27,25.35,14.27,9.38,0,20.04-3.51,21.83-13.35.34-1.85-.18-3.67-1.5-5.24-4.1-4.91-14.96-7.1-23.9-7.1ZM429.22,493.43c-2.85,0-5.3-.94-7.06-2.7-2.5-2.5-2.94-6.17-1.22-10.32,2.97-7.17,12.52-15.51,20.39-15.51,2.98,0,5.46,1.2,7.16,3.48,2.55,3.4,2.77,7.67.59,12.02-3.53,7.07-12.63,13.04-19.86,13.04ZM441.33,466.58c-7.24,0-16.07,7.78-18.84,14.48-1.44,3.48-1.14,6.5.85,8.49,1.45,1.45,3.48,2.21,5.88,2.21,6.67,0,15.08-5.55,18.36-12.11,1.87-3.75,1.72-7.39-.43-10.26-1.38-1.84-3.39-2.81-5.82-2.81ZM62.16,426.98c-6.66,0-12.06-10.88-12.71-18.07-.5-5.51,1.62-9.24,5.66-9.97.54-.1,1.09-.15,1.63-.15,6.05,0,10.54,5.91,12.32,11.77,1.99,6.59.62,12.62-3.5,15.36-1.05.7-2.2,1.06-3.4,1.06ZM56.74,400.46c-.44,0-.89.04-1.33.12-4.3.78-4.53,5.46-4.29,8.17.59,6.51,5.59,16.54,11.04,16.55.86,0,1.7-.26,2.47-.78,3.49-2.33,4.6-7.62,2.82-13.48-1.59-5.26-5.52-10.58-10.71-10.58ZM64.32,393.86c-9.8,0-17.82-9.2-20.69-18.29-2.76-8.75-.88-16.72,4.93-20.79,1.85-1.3,3.87-1.95,6.01-1.95,9.26,0,19.05,13.39,21.3,24.92,1.46,7.48-.49,12.9-5.35,14.87-2.03.83-4.11,1.24-6.2,1.24ZM54.56,354.5c-1.79,0-3.48.56-5.04,1.65-5.18,3.64-6.83,10.88-4.29,18.91,2.68,8.51,10.1,17.11,19.09,17.12,1.87,0,3.74-.38,5.57-1.12,4.05-1.64,5.63-6.38,4.34-13-2.13-10.9-11.18-23.56-19.66-23.56Z"/><path class="cls-3" d="M439.93,433.13c-7.4-2.27-15.27-2.99-22.96-2.1-3.7.43-7.43,1.26-10.59,3.22-3.16,1.96-5.7,5.2-6.05,8.91,8.48,3.86,18.26,3.33,27.47,1.97,5.76-.85,12.56-2.96,14.01-8.6.23-.89.26-1.93-.36-2.61-.39-.43-.97-.62-1.52-.79Z"/><path class="cls-3" d="M415.83,446.98h0c-6.15,0-11.33-1-15.86-3.06l-.55-.25.06-.6c.36-3.69,2.77-7.26,6.45-9.54,2.81-1.74,6.28-2.8,10.94-3.34,7.79-.91,15.81-.17,23.3,2.13.67.21,1.37.46,1.89,1.03.72.78.91,1.99.55,3.38-1.25,4.86-6.19,7.97-14.7,9.22-4.7.69-8.54,1.02-12.09,1.02ZM401.24,442.65c4.17,1.79,8.95,2.66,14.6,2.66h0c3.46,0,7.22-.32,11.84-1,7.78-1.15,12.26-3.83,13.32-7.98.1-.39.28-1.34-.16-1.83-.24-.26-.68-.41-1.15-.56-7.27-2.24-15.05-2.95-22.61-2.07-4.4.51-7.66,1.5-10.25,3.1-3.04,1.88-5.09,4.72-5.58,7.68Z"/><path class="cls-3" d="M200.07,402.03c2.47-1.16,3.91-3.9,4.15-6.61.24-2.71-.56-5.41-1.57-7.94-2.33-5.85-5.81-11.17-9.73-16.1-4.6-5.79-10.73-11.49-18.13-11.38-1.67.03-3.44.41-4.61,1.6-2.59,2.6-.89,6.97.92,10.16,2.39,4.2,4.8,8.4,7.21,12.6,3.25,5.66,6.65,11.47,11.82,15.44,2.84,2.18,6.7,3.75,9.94,2.23Z"/><path class="cls-3" d="M197.27,403.47h0c-3.26,0-6.2-1.89-7.66-3.01-5.42-4.16-8.94-10.28-12.04-15.69-2.41-4.19-4.81-8.4-7.21-12.6-3.58-6.29-2.41-9.55-.79-11.17,1.16-1.17,2.96-1.81,5.19-1.85h.24c6.24,0,12.31,3.82,18.57,11.69,4.53,5.7,7.75,11.04,9.85,16.31.9,2.25,1.89,5.23,1.62,8.32-.29,3.3-2.06,6.09-4.63,7.3-.96.45-2.02.68-3.15.68ZM175.01,360.84h-.21c-1.25.02-2.96.27-4.03,1.35-2.18,2.2-.63,6.19,1.06,9.16,2.39,4.2,4.8,8.4,7.2,12.59,3.02,5.27,6.45,11.24,11.61,15.19,1.29.99,3.88,2.66,6.64,2.66h0c.87,0,1.7-.18,2.44-.52,2-.93,3.44-3.26,3.67-5.92.24-2.74-.68-5.48-1.51-7.56-2.04-5.12-5.18-10.32-9.61-15.89-5.91-7.44-11.56-11.06-17.25-11.06Z"/><path class="cls-3" d="M216.2,413.47c2.6,1.47,4.18,4.37,6.85,5.7,4.2,2.09,10.01-1.4,10.13-6.09.12-4.7-4.23-8.13-8.13-10.75-1.6-1.07-3.23-2.16-5.09-2.67-5.03-1.37-11,3.23-10.16,8.38.15.92.5,1.83,1.1,2.54,1.31,1.54,3.52,1.89,5.29,2.89Z"/><path class="cls-3" d="M225.76,420.63h0c-1.1,0-2.14-.24-3.08-.71-1.52-.76-2.68-1.95-3.81-3.1-1-1.02-1.94-1.98-3.08-2.63-.57-.32-1.19-.57-1.85-.84-1.31-.53-2.67-1.07-3.66-2.23-.66-.77-1.1-1.79-1.29-2.95-.35-2.14.31-4.32,1.87-6.15,2.29-2.7,6.16-4.04,9.34-3.17,2.01.55,3.78,1.74,5.34,2.78,4.28,2.87,8.63,6.47,8.5,11.46-.1,4.01-3.97,7.53-8.27,7.53ZM218.11,400.26c-2.19,0-4.48,1.09-5.97,2.86-1.23,1.45-1.76,3.15-1.49,4.79.14.86.46,1.59.91,2.13.72.85,1.83,1.29,3.01,1.77.68.28,1.39.56,2.05.94,1.34.76,2.41,1.85,3.45,2.91,1.08,1.1,2.1,2.14,3.37,2.77.71.35,1.49.53,2.33.53,3.04,0,6.5-2.52,6.59-5.89.11-4.18-3.86-7.41-7.76-10.03-1.52-1.02-3.1-2.08-4.85-2.56-.52-.14-1.08-.22-1.64-.22Z"/><path class="cls-3" d="M80.29,267.28c.71-8.43-6.78-15.2-9.1-23.33-.96-3.35-1.03-6.98-2.53-10.13-2.71-5.67-9.33-8.34-15.55-9.22-1.6-.23-3.44-.3-4.63.8-1.01.93-1.23,2.43-1.33,3.8-1.31,18.73,10.68,37.64,28.18,44.43,1.04.4,2.33.72,3.15-.03.42-.39.6-.96.75-1.51.45-1.58.9-3.17,1.04-4.8Z"/><path class="cls-3" d="M77.2,274.89h0c-.62,0-1.33-.16-2.16-.48-17.99-6.98-30.07-26.02-28.72-45.27.11-1.52.38-3.23,1.6-4.36.84-.78,1.98-1.16,3.49-1.16.54,0,1.12.05,1.83.15,4.63.66,12.89,2.79,16.19,9.69.98,2.05,1.38,4.28,1.77,6.44.23,1.27.46,2.58.81,3.82.89,3.11,2.6,6.09,4.25,8.98,2.62,4.56,5.33,9.28,4.87,14.65-.15,1.74-.62,3.38-1.07,4.96-.16.57-.38,1.34-.99,1.9-.49.45-1.11.67-1.86.67ZM51.4,225.3c-1.06,0-1.83.23-2.35.71-.78.72-.97,1.98-1.06,3.24-1.28,18.24,10.61,36.97,27.65,43.59,1.13.44,1.89.49,2.28.14.24-.22.37-.62.51-1.12.43-1.51.88-3.07,1.01-4.64.41-4.84-2.05-9.13-4.66-13.67-1.71-2.97-3.47-6.05-4.41-9.35-.38-1.32-.62-2.67-.85-3.98-.38-2.14-.75-4.16-1.63-6.01-2.96-6.2-10.61-8.15-14.91-8.75-.63-.09-1.13-.13-1.59-.13Z"/><path class="cls-3" d="M69.96,209.12c-.81,9.72,7.85,19.16,17.6,19.19,2.11-3.6,1.82-8.22.25-12.09-1.58-3.87-4.28-7.15-6.95-10.37-1.43-1.72-3.14-3.59-5.38-3.65-3.26-.09-5.25,3.67-5.52,6.92Z"/><path class="cls-3" d="M88.04,229.15h-.48c-4.88-.02-9.75-2.29-13.37-6.24-3.62-3.95-5.47-9-5.06-13.87.31-3.73,2.6-7.69,6.24-7.69,2.71.07,4.58,2.08,6.14,3.96,2.68,3.23,5.44,6.56,7.08,10.59,1.86,4.56,1.75,9.35-.3,12.84l-.24.42ZM75.46,203.04c-2.63,0-4.41,3.13-4.66,6.15-.37,4.4,1.32,8.99,4.63,12.59,3.18,3.47,7.4,5.52,11.65,5.68,1.55-3,1.54-7.04-.04-10.93-1.54-3.79-4.23-7.02-6.82-10.15-1.38-1.67-2.89-3.3-4.75-3.35h0Z"/><path class="cls-3" d="M354.35,345.04c-5.22-4.67-12.21-6.74-18.94-8.68-7.33-2.11-15.26-4.2-22.41-1.55-8.69,3.23-13.77,13.93-10.77,22.71,9.28,9.47,23.29,14.05,36.37,11.9,2.34-.39,4.67-.98,6.8-2.04,2.18-1.08,4.09-2.63,5.98-4.16,3.53-2.85,7.4-6.44,7.12-10.97-.17-2.84-2.02-5.33-4.14-7.22Z"/><path class="cls-3" d="M332.13,370.79h0c-11.49,0-22.61-4.62-30.51-12.68l-.19-.31c-3.17-9.26,2.1-20.36,11.27-23.77,2.35-.87,4.87-1.3,7.7-1.3,4.99,0,10.05,1.34,15.23,2.83,6.47,1.86,13.8,3.97,19.27,8.86,2.73,2.44,4.26,5.14,4.42,7.8.29,4.74-3.4,8.41-7.43,11.67-1.9,1.54-3.87,3.13-6.13,4.25-1.96.98-4.2,1.65-7.04,2.12-2.16.36-4.37.53-6.6.53ZM302.95,357.07c7.47,7.54,18.36,12.04,29.18,12.04,2.13,0,4.26-.17,6.32-.51,2.67-.44,4.76-1.06,6.56-1.96,2.1-1.05,4-2.58,5.83-4.06,3.68-2.98,7.06-6.28,6.81-10.26-.17-2.79-2.2-5.16-3.87-6.65-5.18-4.64-12.32-6.69-18.62-8.5-5.06-1.45-10-2.76-14.77-2.76-2.63,0-4.96.39-7.12,1.19-8.15,3.02-13.03,13.22-10.33,21.47Z"/><path class="cls-3" d="M398.56,324.37c-2.85-6.76-10.91-10.86-18.05-9.17-7.14,1.68-12.52,8.95-12.04,16.27.12,1.78.57,3.6,1.67,5,1.31,1.66,3.37,2.56,5.42,3.07,8.22,2.06,17.55-1.46,22.36-8.44.56-.82,1.08-1.7,1.27-2.67.28-1.36-.09-2.78-.63-4.06Z"/><path class="cls-3" d="M380.37,340.97h0c-1.71,0-3.4-.21-5.02-.61-2.7-.68-4.63-1.78-5.87-3.37-1.08-1.37-1.7-3.21-1.85-5.47-.5-7.68,5.19-15.38,12.68-17.14,1.13-.27,2.3-.4,3.49-.4,6.64,0,13.03,4.14,15.52,10.07.73,1.73.95,3.22.68,4.55-.24,1.18-.88,2.21-1.4,2.98-3.99,5.8-10.98,9.4-18.24,9.4ZM383.81,315.65c-1.06,0-2.1.12-3.1.36-6.73,1.59-11.85,8.5-11.4,15.4.12,1.91.63,3.44,1.49,4.54,1.01,1.28,2.63,2.19,4.96,2.77,1.48.37,3.03.56,4.61.56,6.72,0,13.18-3.32,16.86-8.67.47-.67.96-1.48,1.14-2.36.2-.99,0-2.16-.59-3.57-2.24-5.32-7.99-9.04-13.98-9.04Z"/><path class="cls-3" d="M380.1,122.63c-6.48-5.82-14.31-10.13-22.68-12.52-4.15-1.18-8.55-1.9-12.78-1.02-4.23.87-8.26,3.56-9.85,7.57-1.73,4.37-.24,9.52,2.71,13.19s7.14,6.1,11.37,8.16c6.9,3.36,14.17,5.97,21.68,7.57,5.04,1.08,11.01,1.43,14.63-2.24,2.8-2.84,3.25-7.42,1.95-11.19-1.3-3.77-4.06-6.86-7.03-9.52Z"/><path class="cls-3" d="M376.72,147.15h0c-1.9,0-3.98-.25-6.35-.75-7.32-1.56-14.67-4.13-21.87-7.64-4-1.95-8.51-4.47-11.65-8.38-3.41-4.24-4.52-9.74-2.84-14.02,1.57-3.98,5.58-7.08,10.46-8.09,3.74-.77,7.95-.45,13.18,1.04,8.49,2.42,16.45,6.81,23.01,12.7,2.4,2.15,5.76,5.52,7.26,9.87,1.53,4.45.69,9.18-2.14,12.05-2.11,2.14-5.15,3.22-9.05,3.22ZM348.58,109.54c-1.32,0-2.59.12-3.78.37-4.33.89-7.87,3.6-9.24,7.06-1.47,3.72-.45,8.57,2.58,12.35,2.94,3.66,7.25,6.06,11.08,7.93,7.08,3.45,14.3,5.97,21.49,7.51,2.26.48,4.22.72,6,.72h0c3.43,0,6.08-.92,7.86-2.72,2.72-2.75,2.84-7.17,1.75-10.33-1.37-3.99-4.53-7.14-6.79-9.17-6.38-5.72-14.11-9.99-22.35-12.34-3.26-.93-6.07-1.38-8.61-1.38Z"/><path class="cls-3" d="M433.64,127.73c-8.24-6.3-18.35-10.13-28.7-10.88-1.92-.14-4.03-.11-5.49,1.14-2.17,1.85-1.75,5.31-.68,7.95,2.77,6.82,8.77,12.24,15.83,14.32,4.4,1.29,9.37,1.26,13.36-1s6.69-7.05,5.67-11.53Z"/><path class="cls-3" d="M420.43,141.95h0c-1.99,0-4.03-.3-6.06-.89-7.26-2.13-13.53-7.8-16.37-14.81-.58-1.42-2.21-6.24.91-8.91,1.12-.95,2.59-1.39,4.65-1.39.49,0,.97.02,1.45.06,10.46.76,20.81,4.68,29.15,11.05l.24.19.07.3c1.05,4.62-1.5,9.85-6.07,12.44-2.31,1.31-4.98,1.97-7.95,1.97ZM403.55,117.62c-1.64,0-2.77.32-3.56.99-1.8,1.54-1.41,4.62-.44,7,2.66,6.54,8.52,11.84,15.29,13.83,4.61,1.35,9.26,1.04,12.71-.92,3.78-2.14,6.03-6.53,5.32-10.32-8.03-6.06-17.96-9.8-28-10.53-.44-.03-.88-.05-1.33-.05Z"/><path class="cls-3" d="M205.1,110.88c3.95,1.06,8.17,1.69,12.1.59,3.94-1.1,7.51-4.31,7.97-8.37.29-2.59-.67-5.15-1.61-7.58-1.01-2.6-2.09-5.31-4.2-7.14-1.85-1.6-4.27-2.33-6.61-3.01-4.6-1.35-9.21-2.7-13.81-4.05-5.45-1.6-11.96-2.99-16.28.68-3.65,3.1-4.05,8.88-1.98,13.2,2.07,4.32,6.06,7.39,10.21,9.79,4.46,2.58,9.25,4.56,14.22,5.89Z"/><path class="cls-3" d="M212.77,112.88h0c-2.33,0-4.83-.38-7.88-1.2-5.05-1.35-9.9-3.36-14.43-5.97-5.36-3.1-8.71-6.33-10.54-10.16-2.08-4.36-2-10.64,2.2-14.2,2-1.7,4.52-2.52,7.7-2.52s6.53.85,9.36,1.68l13.81,4.05c2.3.67,4.91,1.44,6.93,3.18,2.32,2,3.49,5.03,4.43,7.47.93,2.4,1.99,5.12,1.66,7.98-.54,4.77-4.7,8-8.58,9.08-1.44.4-3.01.61-4.66.61ZM189.82,80.51c-2.77,0-4.93.7-6.62,2.13-3.51,2.98-3.53,8.51-1.77,12.2,1.68,3.51,4.81,6.51,9.87,9.43,4.4,2.54,9.11,4.49,14.02,5.81,2.9.78,5.27,1.14,7.45,1.14h0c1.5,0,2.92-.18,4.21-.55,3.95-1.1,6.98-4.25,7.36-7.66.28-2.45-.7-4.96-1.56-7.18-.92-2.38-1.97-5.08-3.97-6.81-1.74-1.51-4.16-2.22-6.3-2.84l-13.81-4.05c-2.72-.8-5.9-1.61-8.89-1.61Z"/><path class="cls-3" d="M233.57,143.57c3.93.83,8.79,1.34,11.22-1.86,2.87-3.78-.33-9.22-4.06-12.15-3.35-2.64-7.22-4.61-11.32-5.78-3.39-.97-7.38-1.27-10.12.94-3.87,3.13-2.86,9.71.7,13.18,3.57,3.47,8.71,4.64,13.58,5.67Z"/><path class="cls-3" d="M238.63,145.03h0c-1.49,0-3.16-.2-5.23-.64-4.52-.95-10.14-2.14-13.99-5.89-2.25-2.19-3.56-5.49-3.42-8.61.11-2.4,1.1-4.47,2.77-5.83,2.51-2.03,6.32-2.4,10.88-1.1,4.18,1.19,8.19,3.25,11.6,5.93,4.35,3.42,7.3,9.25,4.21,13.32-1.42,1.87-3.71,2.82-6.82,2.82ZM224.65,123.87c-1.99,0-3.62.5-4.84,1.49-1.67,1.35-2.09,3.25-2.15,4.6-.12,2.62,1.02,5.49,2.91,7.33,3.5,3.41,8.86,4.54,13.17,5.45,1.96.41,3.51.61,4.89.61h0c2.59,0,4.39-.7,5.49-2.15,2.59-3.42-.72-8.48-3.91-10.99-3.24-2.55-7.06-4.5-11.03-5.64-1.63-.47-3.15-.7-4.53-.7Z"/><path class="cls-3" d="M497.67,296.68c7.1,1.32,14.25,2.36,21.43,3.12,3.71.39,7.81.61,10.78-1.64,1.77-1.34,2.88-3.42,3.37-5.58,1.24-5.45-1.29-11.24-5.25-15.19-3.96-3.95-9.17-6.37-14.36-8.45-6.19-2.48-12.89-4.63-19.44-3.39-6.56,1.24-12.71,6.97-12.16,13.62.23,2.84,1.61,5.45,2.95,7.96,1.39,2.6,2.87,5.31,5.29,7.01,2.15,1.51,4.81,2.06,7.39,2.54Z"/><path class="cls-3" d="M523,300.89h0c-1.41,0-2.81-.13-3.99-.25-7.18-.76-14.41-1.81-21.49-3.13-2.8-.52-5.5-1.12-7.72-2.68-2.63-1.85-4.18-4.74-5.55-7.3-1.31-2.45-2.8-5.23-3.05-8.29-.6-7.35,6.2-13.26,12.84-14.51,1.32-.25,2.71-.38,4.12-.38,5.53,0,11.09,1.93,15.79,3.81,5.2,2.08,10.57,4.57,14.64,8.63,4.58,4.57,6.68,10.69,5.47,15.97-.58,2.55-1.89,4.7-3.68,6.06-1.86,1.41-4.2,2.06-7.38,2.06ZM498.16,266.03c-1.31,0-2.59.12-3.81.35-5.93,1.12-12.01,6.3-11.48,12.73.22,2.72,1.62,5.33,2.86,7.64,1.28,2.39,2.73,5.09,5.03,6.71,1.95,1.37,4.35,1.9,7.06,2.4,7.04,1.31,14.23,2.35,21.36,3.11,1.14.12,2.49.24,3.82.24,2.8,0,4.82-.55,6.37-1.72,1.48-1.12,2.56-2.93,3.06-5.1,1.08-4.72-.85-10.24-5.02-14.41-3.86-3.85-9.05-6.25-14.08-8.26-4.56-1.82-9.92-3.69-15.17-3.69Z"/><path class="cls-3" d="M535.61,261.55c-2.1,3.17-.47,7.78,2.68,9.91s7.26,2.24,10.99,1.54c3.19-.59,6.79-2.31,7.2-5.53.5-3.89-3.88-6.45-7.6-7.69-4.57-1.52-10.61-2.25-13.27,1.76Z"/><path class="cls-3" d="M545.36,274.22h0c-2.97,0-5.51-.7-7.54-2.07-3.34-2.26-5.36-7.36-2.91-11.07,1.47-2.22,3.94-3.35,7.32-3.35,2.59,0,5.19.68,6.91,1.25,5.57,1.85,8.62,5.06,8.17,8.59-.58,4.54-6.18,5.93-7.88,6.24-1.41.26-2.79.4-4.08.4ZM542.23,259.42c-2.79,0-4.78.87-5.92,2.6-1.86,2.81-.24,6.93,2.45,8.75,1.75,1.18,3.96,1.78,6.6,1.78h0c1.19,0,2.46-.12,3.77-.37,2.92-.54,6.17-2.09,6.52-4.81.51-3.96-5.25-6.19-7.03-6.78-1.61-.53-4.02-1.17-6.38-1.17Z"/><path class="cls-3" d="M93.56,114.01c3.11.98,6.34,1.86,9.58,1.57,3.25-.29,6.55-2,7.9-4.96,2.3-5.05-2-10.82-6.92-13.4-3.79-1.99-8.1-2.98-12.38-2.83-4.17.14-8.84,1.84-10.26,5.76-1.18,3.24.37,6.97,2.91,9.3,2.54,2.33,5.89,3.53,9.18,4.56Z"/><path class="cls-3" d="M101.85,116.47h0c-2.99,0-5.98-.86-8.54-1.66-3.32-1.04-6.8-2.27-9.5-4.75-2.55-2.34-4.51-6.41-3.13-10.21,1.61-4.43,6.75-6.16,11.02-6.31,4.42-.15,8.88.87,12.8,2.92,5.51,2.89,9.74,9.1,7.29,14.49-1.37,3.01-4.66,5.1-8.58,5.45-.46.04-.91.06-1.37.06ZM92.58,95.21c-.27,0-.54,0-.81.01-3.73.13-8.18,1.56-9.5,5.21-1.12,3.07.54,6.43,2.68,8.4,2.45,2.24,5.72,3.4,8.86,4.38,2.44.77,5.28,1.59,8.04,1.59h0c.4,0,.81-.02,1.22-.05,3.28-.3,6.11-2.05,7.21-4.47,2.01-4.43-1.83-9.84-6.54-12.31-3.42-1.8-7.28-2.75-11.16-2.75Z"/><path class="cls-1" d="M223.34,491.27c6.11-8.53,4.7-21.56-3.08-28.6-9.06-8.19-22.87-7.32-34.97-5.64-1.18,6.99,1.33,14.22,5.48,19.97s9.8,10.22,15.58,14.32c3.92,2.79,8.97,5.54,13.28,3.4,1.53-.76,2.72-2.06,3.71-3.44Z"/><path class="cls-1" d="M169.92,497.33c5.32.48,10.44-3.87,11.41-9.13.97-5.26-1.85-10.82-6.33-13.73-4.48-2.91-10.33-3.31-15.43-1.72-1.57,4.19-1.85,8.84-.81,13.19,1.33,5.52,5.5,10.89,11.16,11.4Z"/><path class="cls-1" d="M103.76,348.14c-7.67-12.46-21.49-20.91-36.07-22.06-2.27,5.11.68,10.98,4.11,15.4,4.28,5.52,9.4,10.32,14.57,15,2.76,2.5,5.68,5.05,9.26,6.08,3.58,1.03,8.02.08,9.88-3.15,2-3.46.35-7.86-1.74-11.26Z"/><path class="cls-2" d="M410.67,507.43c-.46-2.52-2.32-4.61-4.55-5.86-3.27-1.84-7.2-2.05-10.96-1.92-4.42.15-8.92.73-12.85,2.76-3.93,2.02-7.21,5.71-7.79,10.09,5.88,7.02,16.35,8.65,25.24,6.48,5.68-1.39,11.96-5.79,10.91-11.54Z"/><path class="cls-3" d="M514.01,422.91c-6.61,1.49-12.79,6.45-17.95,10.76-1,.84.27,2.17,1.3,1.69,6.07-2.84,13.1-5.51,18.1-9.95,1.18-1.05-.08-2.81-1.45-2.5Z"/><path class="cls-3" d="M496.9,436.3c-.84,0-1.66-.56-1.94-1.34-.26-.7-.05-1.42.56-1.93,5.65-4.72,11.72-9.45,18.3-10.93,1.14-.26,2.38.44,2.8,1.55.33.87.1,1.77-.6,2.39-4.18,3.71-9.63,6.16-14.89,8.53-1.16.52-2.3,1.04-3.41,1.55-.26.12-.53.18-.82.18ZM514.33,423.72c-6.36,1.42-12.24,6.01-17.74,10.6-.07.16.21.39.41.29,1.12-.52,2.27-1.04,3.43-1.56,5.16-2.32,10.49-4.72,14.47-8.25.19-.16.23-.33.15-.54-.1-.25-.38-.52-.72-.52Z"/><path class="cls-3" d="M526.34,412.33c-.82.38-1.68.6-2.52.97-.41.18-.82.68-1.15.97-.41.36-.79.78-1.18,1.17-1.37,1.38.38,3.63,2.06,2.68.77-.44,1.53-.89,2.28-1.38.91-.6,1.32-1.67,2-2.48.92-1.09-.21-2.53-1.49-1.93Z"/><path class="cls-3" d="M522.72,419.19c-1.01,0-1.96-.66-2.37-1.63-.4-.95-.19-1.96.54-2.7l.33-.34c.29-.3.58-.6.89-.87.09-.08.18-.17.28-.26.31-.31.66-.66,1.09-.85.42-.19.85-.34,1.29-.5.41-.15.82-.29,1.22-.47,1.07-.5,2.35-.04,2.83.97.35.75.22,1.59-.34,2.26-.22.26-.4.55-.59.84-.4.62-.85,1.32-1.59,1.8-.76.5-1.53.96-2.33,1.41-.4.23-.82.34-1.25.34ZM526.94,413.03c-.08,0-.16.02-.25.06-.45.2-.9.37-1.36.53-.39.14-.78.28-1.16.45-.15.07-.41.32-.59.51-.12.12-.24.23-.35.33-.27.24-.53.51-.79.77l-.35.36c-.32.32-.28.66-.18.88.21.5.75.75,1.24.48.76-.43,1.5-.87,2.23-1.35.44-.29.76-.79,1.11-1.32.22-.35.45-.69.71-1,.14-.16.17-.33.1-.47-.05-.11-.17-.22-.35-.22Z"/><path class="cls-3" d="M134.71,341.23c-4.36-6.25-10.84-11.07-16.15-16.54-7.02-7.22-13.38-15.16-18.97-23.53-1.12-1.67-3.71-.2-2.72,1.59,4.18,7.55,8.62,14.96,13.93,21.79,5.63,7.25,11.91,16.07,20.21,20.38,2.22,1.15,5.34-1.32,3.69-3.69Z"/><path class="cls-3" d="M132.24,346.06h0c-.57,0-1.11-.13-1.6-.39-7.69-3.99-13.65-11.73-18.9-18.56l-1.59-2.05c-5.73-7.38-10.3-15.21-14-21.9-.43-.78-.44-1.63-.01-2.35.44-.74,1.28-1.22,2.16-1.22.8,0,1.54.4,2.01,1.11,5.65,8.46,12,16.34,18.88,23.41,1.77,1.83,3.72,3.62,5.61,5.36,3.78,3.48,7.68,7.07,10.62,11.29.72,1.03.81,2.22.26,3.27-.63,1.21-2.01,2.03-3.42,2.03ZM98.29,301.27c-.28,0-.57.16-.71.39-.12.2-.11.42.04.68,3.67,6.63,8.19,14.4,13.86,21.68l1.59,2.06c5.15,6.69,10.98,14.27,18.34,18.09.92.47,2.29-.03,2.77-.93.26-.5.21-1.02-.15-1.54-2.83-4.07-6.67-7.6-10.38-11.01-1.9-1.75-3.87-3.56-5.68-5.42-6.94-7.15-13.36-15.1-19.07-23.65-.16-.24-.37-.36-.61-.36Z"/><path class="cls-3" d="M149.04,353.48c-.86-.79-1.7-1.76-2.75-2.3-1.23-.63-2.4-1.3-3.74-1.65-1.69-.44-3.05,1.72-1.73,2.98.9.85,1.9,1.44,2.96,2.08,1.2.72,2.47,1.01,3.81,1.39,1.41.39,2.57-1.47,1.45-2.5Z"/><path class="cls-3" d="M147.97,356.87c-.2,0-.41-.03-.61-.09l-.5-.14c-1.17-.32-2.37-.65-3.51-1.34-1.18-.71-2.18-1.31-3.11-2.19-.76-.73-.99-1.79-.6-2.77.49-1.24,1.85-1.96,3.12-1.63,1.24.32,2.32.89,3.37,1.44l.54.28c.91.47,1.63,1.17,2.33,1.85.2.19.4.39.6.57.69.63.9,1.57.56,2.46-.36.93-1.24,1.55-2.19,1.55ZM142.11,350.31c-.44,0-.78.34-.91.66-.1.24-.14.6.2.93.8.76,1.71,1.31,2.68,1.89,1.07.65,2.12.93,3.22,1.24l.67.16c.3,0,.54-.25.63-.48.09-.24.05-.45-.13-.61-.21-.2-.42-.4-.63-.61-.61-.59-1.24-1.21-1.93-1.56l-.55-.28c-1.01-.53-1.97-1.03-3.02-1.31-.08-.02-.16-.03-.23-.03Z"/><path class="cls-2" d="M34.73,260.68c-1.65-4.88-3.71-9.59-5.25-14.51-1.77-5.67-2.49-11.43-3.64-17.23-.36-1.82-3-1.28-3.09.42-.56,10.84,2.51,23.71,8.49,32.8,1.14,1.74,4.22.67,3.5-1.47Z"/><path class="cls-2" d="M47.39,284.03c-.95-1.43-1.84-2.92-2.97-4.22-1.17-1.36-2.46-2.55-3.8-3.75-1.25-1.12-3.48.37-2.43,1.87.99,1.42,1.98,2.83,3.14,4.12,1.2,1.33,2.59,2.44,3.95,3.6,1.09.93,2.99-.28,2.1-1.62Z"/><path class="cls-2" d="M231.93,444.43c-4.86-1.89-9.89-2.75-14.99-3.76-2.07-.41-2.93,2.56-.88,3.18,5.13,1.55,10.1,3.14,15.44,3.77,1.96.23,2-2.58.43-3.19Z"/><path class="cls-2" d="M407.67,461.86c-7.31-.72-14.48-.44-21.8-.05-1.92.1-1.92,2.89,0,2.99,7.33.39,14.49.67,21.8-.05,1.85-.18,1.85-2.7,0-2.88Z"/></svg>