<?xml version="1.0" encoding="UTF-8"?><svg id="_레이어_1" xmlns="http://www.w3.org/2000/svg" viewBox="0 0 118.79 149.08"><defs><style>.cls-1{fill:#d21b17;}.cls-1,.cls-2{stroke-width:0px;}.cls-2{fill:#fff;}</style></defs><path class="cls-1" d="M97.3,144.08c-1,0-1.96-.11-2.86-.32-2.43-.5-4.54-1.37-6.28-2.58l-.18-.12-.17-.14c-.77-.64-1.48-1.25-2.12-1.83-.56-.5-1.08-.94-1.57-1.34l-.22-.18-1.82-1.82c-.86-.86-1.54-1.78-2.01-2.73l-.46-.46-20.07-28.97-19.93,28.99-.75.74s-.07.09-.13.17c-.39.69-.87,1.37-1.44,2.01-.39.44-.79.92-1.21,1.45l-.36.45-.45.36c-.63.5-1.33,1.04-2.09,1.62-.54.4-1.02.82-1.44,1.24l-.36.36-.42.28c-1.11.74-2.3,1.31-3.54,1.69-.76.23-1.46.46-2.14.68l-.23.08-.24.05c-.95.22-1.93.33-2.93.33-1.49,0-3.02-.25-4.57-.74-6.32-1.5-9.38-5.12-10.83-7.91-1.17-2.33-1.64-4.75-1.45-7.28.15-2.11.66-4.27,1.5-6.41.74-1.89,1.64-3.75,2.66-5.53.98-1.69,1.97-3.29,2.96-4.78l.12-.18.13-.17c.53-.67,1.03-1.26,1.5-1.8.37-.42.75-.88,1.17-1.4,1.5-1.97,2.96-3.97,4.31-5.96,1.45-2.11,3.02-4.37,4.71-6.79l14.76-21.43-22.7-32.8-2.21-3.13c-.39-.58-.79-1.13-1.2-1.65-.56-.7-1.12-1.52-1.67-2.45-.5-.64-.99-1.32-1.46-2.03-.64-.95-1.2-2.06-1.68-3.27-.35-.7-.67-1.38-.96-2.03-.42-.92-.79-2-1.1-3.28-.5-1.99-.66-3.9-.48-5.66l.03-.32.07-.31c.57-2.44,1.77-4.56,3.58-6.28.84-.97,1.83-1.77,2.96-2.38.59-.32,1.17-.65,1.71-.98l.34-.21.37-.15c1.42-.57,2.69-.99,3.87-1.29,1.36-.34,2.8-.51,4.28-.51h.28c3.1.18,6.03,1.27,8.7,3.24,2.75,1.8,5.25,4.04,7.44,6.64l.22.26.18.29c.76,1.2,1.54,2.34,2.32,3.4.34.47.69.96,1.04,1.46.5.72,1.01,1.46,1.51,2.07l.46.57.24.6c2.89,3.84,5.56,7.58,7.95,11.12,1.97,2.94,4.15,6.06,6.5,9.3,2.24-3.29,4.42-6.44,6.5-9.39,2.48-3.52,5.17-7.27,7.99-11.15l.41-.82.33-.41c.95-1.19,1.87-2.35,2.77-3.48.79-1,1.57-2.1,2.32-3.28l.18-.28.21-.26c2.18-2.58,4.66-4.8,7.38-6.6,2.58-2,5.53-3.1,8.78-3.27h.13s.13,0,.13,0c2.61,0,5.35.63,8.15,1.87l.25.11.24.14c1.73,1.01,3.09,2.05,4.14,3.17,2.14,1.74,3.57,3.98,4.15,6.51l.07.31.03.32c.17,1.77.01,3.67-.48,5.66-.32,1.27-.68,2.34-1.11,3.28-.4.87-.9,1.71-1.55,2.56-.75,1.77-1.58,3.32-2.46,4.62-.57.98-1.17,1.86-1.76,2.61-.27.33-.49.69-.69,1.09l-.17.34-2.38,3.37-22.84,32.77,14.77,21.45,9.79,13.78.1.17c1.05,1.76,2.12,3.47,3.16,5.09,1.13,1.76,2.27,3.66,3.39,5.65,1.84,3.34,2.61,6.44,2.33,9.25-.19,1.94-.43,3.61-.7,4.98l-.03.17-.05.17c-.68,2.49-2.3,4.64-4.7,6.2-1.8,1.17-3.8,2.07-5.95,2.69-1.82.5-3.49.76-5,.76Z"/><path class="cls-2" d="M96.61,10c1.92,0,3.96.48,6.12,1.44,1.44.84,2.52,1.68,3.24,2.52,1.44,1.08,2.34,2.4,2.7,3.96.12,1.2,0,2.52-.36,3.96-.24.96-.51,1.77-.81,2.43-.3.66-.75,1.35-1.35,2.07-.72,1.8-1.5,3.3-2.34,4.5-.48.84-.96,1.56-1.44,2.16-.48.6-.9,1.26-1.26,1.98l-2.16,3.06-24.84,35.64,16.74,24.3,9.72,13.68c1.08,1.8,2.16,3.54,3.24,5.22,1.08,1.68,2.16,3.48,3.24,5.4,1.32,2.4,1.89,4.5,1.71,6.3-.18,1.8-.39,3.3-.63,4.5-.36,1.32-1.23,2.43-2.61,3.33-1.38.9-2.91,1.59-4.59,2.07-1.35.37-2.56.56-3.63.56-.64,0-1.23-.07-1.77-.2-1.8-.36-3.3-.96-4.5-1.8-.72-.6-1.38-1.17-1.98-1.71-.6-.54-1.2-1.05-1.8-1.53-.6-.6-1.14-1.14-1.62-1.62-.48-.48-.84-.96-1.08-1.44-.24-.48-.45-.81-.63-.99-.18-.18-.33-.33-.45-.45l-23.94-34.56-23.76,34.56c-.12.12-.27.27-.45.45-.18.18-.45.51-.81.99-.24.48-.57.96-.99,1.44-.42.48-.87,1.02-1.35,1.62-.6.48-1.26.99-1.98,1.53-.72.54-1.38,1.11-1.98,1.71-.72.48-1.47.84-2.25,1.08-.78.24-1.53.48-2.25.72-.58.13-1.19.2-1.8.2-1.03,0-2.11-.19-3.24-.56-3.72-.84-6.3-2.64-7.74-5.4-.72-1.44-1.02-2.97-.9-4.59.12-1.62.51-3.27,1.17-4.95.66-1.68,1.44-3.3,2.34-4.86.9-1.56,1.83-3.06,2.79-4.5.48-.6.93-1.14,1.35-1.62.42-.48.87-1.02,1.35-1.62,1.56-2.04,3.06-4.11,4.5-6.21,1.44-2.1,3-4.35,4.68-6.75l16.74-24.3-24.66-35.64-2.16-3.06c-.48-.72-.96-1.38-1.44-1.98-.48-.6-.96-1.32-1.44-2.16-.48-.6-.96-1.26-1.44-1.98-.48-.72-.9-1.56-1.26-2.52-.36-.72-.69-1.41-.99-2.07-.3-.66-.57-1.47-.81-2.43-.36-1.44-.48-2.76-.36-3.96.36-1.56,1.14-2.88,2.34-3.96.48-.6,1.05-1.08,1.71-1.44.66-.36,1.29-.72,1.89-1.08,1.2-.48,2.28-.84,3.24-1.08.96-.24,1.98-.36,3.06-.36,2.16.12,4.2.9,6.12,2.34,2.4,1.56,4.56,3.48,6.48,5.76.84,1.32,1.68,2.55,2.52,3.69.84,1.14,1.7,2.5,2.67,3.7l.21.53c3,3.96,5.73,7.77,8.19,11.43,2.46,3.66,5.19,7.53,8.19,11.61.48.6.9,1.2,1.26,1.8.36.6.78,1.2,1.26,1.8.48-.6.9-1.2,1.26-1.8.36-.6.78-1.2,1.26-1.8,2.76-4.08,5.43-7.95,8.01-11.61,2.58-3.66,5.31-7.47,8.19-11.43l.36-.72c.96-1.2,1.89-2.37,2.79-3.51.9-1.14,1.77-2.37,2.61-3.69,1.92-2.28,4.08-4.2,6.48-5.76,1.8-1.44,3.84-2.22,6.12-2.34M96.61,0h-.53c-4.16.23-8.1,1.68-11.42,4.2-3.07,2.05-5.86,4.55-8.3,7.46l-.43.51-.36.56c-.66,1.03-1.33,1.99-2.02,2.86-.89,1.13-1.81,2.28-2.75,3.46l-.66.83-.47.93c-2.75,3.78-5.36,7.44-7.79,10.88-.81,1.15-1.64,2.33-2.48,3.54-.79-1.14-1.55-2.26-2.29-3.35-2.33-3.47-4.92-7.1-7.71-10.82l-.27-.68-.92-1.15c-.39-.48-.83-1.12-1.3-1.8-.37-.54-.74-1.07-1.1-1.56-.72-.98-1.44-2.03-2.14-3.13l-.36-.57-.44-.52c-2.48-2.94-5.3-5.47-8.41-7.52C31.02,1.63,27.23.24,23.18.02l-.28-.02h-.28c-1.89,0-3.73.22-5.48.66-1.42.36-2.9.84-4.53,1.49l-.74.3-.69.41c-.49.29-1.01.59-1.56.89-1.57.85-2.97,1.97-4.17,3.32C3.06,9.42,1.4,12.38.64,15.67l-.14.62-.06.64c-.23,2.34-.03,4.83.61,7.38.39,1.56.85,2.91,1.41,4.14.27.61.58,1.26.94,1.98.59,1.47,1.3,2.83,2.1,4.04.47.7.96,1.4,1.47,2.06.61,1.01,1.25,1.94,1.91,2.76.32.4.63.84.94,1.3l.07.11.08.11,2.13,3.02,20.7,29.92-12.8,18.58c-1.62,2.31-3.2,4.6-4.71,6.8-1.3,1.9-2.69,3.82-4.13,5.7-.37.46-.7.86-.99,1.19-.52.6-1.06,1.24-1.65,1.97l-.27.33-.24.35c-1.05,1.58-2.11,3.27-3.13,5.05-1.15,2-2.16,4.09-2.99,6.21-1.02,2.6-1.64,5.25-1.83,7.87-.26,3.42.39,6.72,1.93,9.79l.04.08.04.08c1.93,3.69,5.9,8.46,13.94,10.42,1.98.61,3.96.92,5.9.92,1.37,0,2.73-.15,4.05-.46l.47-.11.46-.16c.64-.21,1.3-.43,1.99-.64,1.73-.54,3.35-1.31,4.86-2.31l.84-.56.71-.72c.25-.25.55-.51.89-.76.73-.55,1.45-1.11,2.21-1.71l.9-.71.71-.9c.37-.46.71-.88,1.02-1.23l.02-.02.02-.02c.64-.74,1.21-1.5,1.7-2.3l.69-.68.56-.81,15.55-22.62,15.69,22.65.51.74.27.27c.67,1.14,1.51,2.23,2.52,3.24l.53.53,1.09,1.09.4.4.44.35c.42.33.86.71,1.35,1.15.65.58,1.39,1.22,2.24,1.94l.33.28.35.25c2.29,1.6,5,2.73,8.07,3.37,1.25.29,2.57.44,3.93.44,1.99,0,4.06-.3,6.3-.93h.04s.04-.02.04-.02c2.63-.75,5.09-1.87,7.3-3.31,3.44-2.25,5.79-5.39,6.8-9.08l.09-.34.07-.34c.31-1.54.56-3.33.77-5.46.39-3.84-.59-7.92-2.9-12.11l-.02-.04-.02-.04c-1.17-2.07-2.36-4.06-3.54-5.89-1.02-1.58-2.05-3.25-3.08-4.96l-.2-.33-.22-.32-9.68-13.62-12.77-18.53,20.86-29.93,2.14-3.04.44-.62.34-.68c.04-.08.08-.15.12-.2.73-.92,1.42-1.92,2.09-3.06.95-1.41,1.81-2.99,2.6-4.79.69-.98,1.27-1.96,1.73-2.98.56-1.23,1.02-2.58,1.41-4.13.64-2.56.84-5.04.61-7.38l-.06-.64-.14-.63c-.81-3.53-2.75-6.64-5.62-9.05-1.34-1.37-3-2.63-5.02-3.81l-.48-.28-.51-.23c-3.44-1.53-6.86-2.3-10.18-2.3h0Z"/></svg>