<?xml version="1.0" encoding="UTF-8"?>
<svg id="_레이어_2" data-name="레이어 2" xmlns="http://www.w3.org/2000/svg" viewBox="0 0 410.73 233.63">
  <defs>
    <style>
      .cls-1 {
        fill: #8093e8;
      }

      .cls-1, .cls-2 {
        stroke-width: 0px;
      }

      .cls-2 {
        fill: #fff;
      }
    </style>
  </defs>
  <g id="OBJECTS">
    <g>
      <g>
        <path class="cls-1" d="M187.68,107.63c-.22,0-.44,0-.67-.01-1.16-.04-2.17-.05-3.04-.05h-48.91c-1.64,0-3.22-.02-4.74-.06-1.51-.04-3.19-.1-5.04-.17h-.13s-.13-.02-.13-.02c-3.24-.3-5.92-1.94-7.53-4.63-1.08-1.8-1.83-3.66-2.25-5.54l-.03-.13c-.45-2.32-.65-4.64-.6-6.92.04-1.9.06-3.83.06-5.77,0-1.29-.05-2.6-.15-3.87-.13-1.62-.15-3.29-.07-4.94.08-1.4.21-2.81.37-4.2.26-2.21,1.11-4.24,2.52-6.04l.1-.13.11-.12c2.99-3.32,7.11-5.08,11.92-5.08h3.01s.54.11.57.11h23.22c3.97,0,7.93.02,11.9.06.79,0,1.58.01,2.37.01,1.57,0,3.16-.02,4.76-.05-.61-.86-1.08-1.81-1.4-2.82-.59-1.88-.85-3.24-.85-4.4V19.13c-.08-.81-.03-1.82.14-3.41.22-1.95.69-3.66,1.41-5.1.83-1.75,3.09-4.9,8.45-5.47.75-.1,1.49-.15,2.18-.15,4.35,0,6.96,1.89,8.39,3.48l.15.17.13.18c.78,1.04,1.36,2.11,1.71,3.19.21.63.4,1.29.58,1.96.35,1.13.54,2.47.59,4.19.04,1.38.02,2.52-.05,3.45v4.21c.83.04,1.63.1,2.4.17,1.03.1,1.77.19,2.34.3,2.5.5,4.33,1.34,5.65,2.57,1.33,1.25,2.23,2.85,2.6,4.64.31,1.21.47,2.57.47,4.03,0,2.02-.47,3.83-1.4,5.37-1.71,2.85-4.5,4.61-7.87,4.96-1.3.14-2.7.25-4.18.33v4.33c0,3.09-.92,5.87-2.75,8.23-.13.17-.27.34-.42.51,2.13.87,3.8,2.33,4.84,4.28,1.42,2.69,1.51,5.65.26,8.38-.4.87-.89,1.65-1.46,2.31l.11.11c1.66,1.67,2.64,3.88,2.92,6.56.37,3.67-.95,6.01-2.14,7.34-.31.36-.64.68-1,.98,1.81,1.82,2.69,4.4,2.46,7.39-.2,3.34-1.8,5.32-3.11,6.37-1.37,1.1-2.99,1.85-4.81,2.24-1.26.27-2.58.4-3.96.4ZM127.32,59.8c-2.87,0-5.22-.33-7.21-1.01-2.4-.82-4.51-2.42-6.26-4.75-2.09-2.75-3.16-5.91-3.16-9.38,0-3.15-.04-6.19-.11-9.05-.08-2.98-.04-6.19.12-9.54.07-1.84.09-3.84.05-5.89-.05-3.04.63-5.86,2.05-8.37.94-1.73,2.3-3.16,4.05-4.26,1.63-1.02,3.37-1.67,5.17-1.92.52-.07,1.04-.11,1.56-.11,1.44,0,2.85.28,4.2.83,2,.81,3.66,2.24,4.82,4.11,1.88,3.13,2.79,6.46,2.74,9.94-.04,2.53-.06,5.1-.06,7.74,0,1.78.02,3.49.06,5.13.02,1.11.1,2.3.22,3.55h1.25s24,.68,24,.68c2.17.02,4.13.75,5.68,2.1,1.26,1.11,2.19,2.46,2.79,4.02.47,1.24.76,2.53.88,3.86.11,1.29.06,2.51-.17,3.63-.51,3.42-2.49,6.02-5.6,7.33-2.13.91-4.59,1.37-7.31,1.37h-29.75Z"/>
        <path class="cls-2" d="M185.24,10c2.02,0,3.58.61,4.67,1.82.46.61.78,1.2.97,1.77.19.57.36,1.16.51,1.77.23.68.36,1.67.4,2.96.04,1.29.02,2.32-.06,3.08v9.23c.3,0,.87.02,1.71.06.83.04,1.71.08,2.62.11.91.04,1.79.1,2.62.17.83.08,1.44.15,1.82.23,1.52.3,2.58.74,3.19,1.31.61.57.99,1.27,1.14,2.11.23.84.34,1.81.34,2.91s-.23,2.03-.68,2.79c-.91,1.52-2.28,2.38-4.1,2.56-1.82.19-3.84.32-6.04.4h-2.62v9.23c0,1.98-.57,3.71-1.71,5.19s-2.89,2.22-5.24,2.22c-1.29,0-2.36-.27-3.19-.8-1.52-.91-2.49-2.03-2.91-3.36-.42-1.33-.63-2.3-.63-2.91V18.78c-.08-.3-.04-1.14.11-2.51.15-1.37.46-2.51.91-3.42.76-1.6,2.28-2.51,4.56-2.74.56-.08,1.09-.11,1.6-.11M123.58,10.51c.79,0,1.57.15,2.32.46,1.03.42,1.84,1.12,2.45,2.11,1.37,2.28,2.03,4.69,2,7.24-.04,2.55-.06,5.15-.06,7.81,0,1.82.02,3.57.06,5.24.04,1.67.17,3.46.4,5.36.08.91.3,1.58.68,2,.38.42.83.7,1.37.85.53.15,1.14.23,1.82.23h2.05l24.05.68c.99,0,1.8.28,2.45.86.64.57,1.12,1.25,1.42,2.05.3.8.49,1.64.57,2.51.08.87.04,1.65-.11,2.34-.23,1.75-1.1,2.95-2.62,3.59-1.52.65-3.31.97-5.36.97h-29.75c-2.28,0-4.14-.25-5.59-.74-1.44-.49-2.74-1.5-3.88-3.02-1.45-1.9-2.17-4.03-2.17-6.38,0-3.27-.04-6.33-.12-9.18-.08-2.85-.04-5.91.12-9.18.07-1.98.09-4.05.06-6.21-.04-2.17.44-4.12,1.42-5.87.53-.99,1.31-1.8,2.34-2.45,1.03-.64,2.09-1.04,3.19-1.2.29-.04.58-.06.87-.06M184.89,64.8c.91,0,1.83.05,2.74.15,1.37.15,2.64.44,3.82.86,1.18.42,2.03,1.12,2.57,2.11.68,1.29.72,2.6.11,3.93-.61,1.33-1.52,2.07-2.74,2.22-1.93.35-3.8.52-5.6.52-.19,0-.37,0-.55,0-1.98-.04-4.03-.06-6.16-.06h-41.04c-.61,0-1.18-.04-1.71-.11-.27-.04-.54-.06-.83-.06s-.58.02-.88.06c-.68.08-1.08.17-1.2.29-.11.11-.17.48-.17,1.08v2.74c.24.36.6.55,1.06.55.12,0,.24-.01.37-.03.64-.11,1.23-.17,1.77-.17.97-.12,1.86-.18,2.67-.18.2,0,.39,0,.58.01.95.04,2.07.06,3.36.06,2.2,0,4.41.02,6.61.06,2.2.04,4.41.06,6.61.06h31.92c.83,0,1.78.02,2.85.06,1.06.04,1.97.36,2.74.97.83.84,1.33,2.01,1.48,3.53.15,1.52-.15,2.7-.91,3.53-.46.53-1.01.89-1.65,1.08-.65.19-1.39.32-2.22.4-1.48.17-2.98.26-4.48.26-.5,0-1,0-1.5-.03-2.02-.08-3.82-.11-5.42-.11h-44.35c-.38,0-.76.08-1.14.23l-.23,3.65c.38.15.8.25,1.25.29.46.04.87.09,1.25.17.61.08,1.01.11,1.2.11h51.13c1.6,0,3.1.38,4.5,1.14,1.41.76,2.03,2.13,1.88,4.1-.08,1.29-.49,2.24-1.25,2.85-.76.61-1.67,1.03-2.74,1.25-.91.2-1.88.29-2.91.29-.17,0-.34,0-.51,0-1.22-.04-2.28-.06-3.19-.06h-48.91c-1.6,0-3.13-.02-4.62-.06-1.48-.04-3.13-.1-4.96-.17-1.67-.15-2.91-.89-3.71-2.22-.8-1.33-1.35-2.68-1.65-4.05-.38-1.98-.55-3.93-.51-5.87.04-1.94.06-3.89.06-5.87,0-1.44-.06-2.87-.17-4.27-.11-1.41-.13-2.83-.06-4.27.07-1.29.19-2.58.34-3.88.15-1.29.64-2.47,1.48-3.53,2.05-2.28,4.79-3.42,8.21-3.42h2.51c.38.08.68.11.91.11h23.37c3.95,0,7.9.02,11.86.06.8,0,1.61.01,2.41.01,3.16,0,6.35-.06,9.56-.18.91,0,2.05-.04,3.42-.11.45-.02.91-.04,1.36-.04M185.24,0c-.9,0-1.83.06-2.77.18-5.62.62-10.12,3.63-12.37,8.29-.96,1.95-1.58,4.2-1.86,6.69-.18,1.61-.27,2.93-.17,4.18v15.21c-2.1-1.32-4.54-2.02-7.15-2.05l-20.59-.59c-.02-1.19-.03-2.46-.03-3.78,0-2.68.02-5.25.06-7.66.06-4.43-1.09-8.65-3.42-12.54l-.03-.05-.03-.05c-1.72-2.79-4.2-4.9-7.18-6.11-1.96-.8-4.01-1.2-6.1-1.2-.74,0-1.49.05-2.24.15-2.52.35-4.92,1.24-7.15,2.64-2.48,1.56-4.41,3.6-5.77,6.08-1.84,3.29-2.74,6.96-2.67,10.89.03,1.94.02,3.83-.05,5.61-.16,3.46-.2,6.78-.12,9.87.07,2.81.11,5.81.11,8.91,0,4.51,1.45,8.8,4.18,12.41,1.28,1.7,2.72,3.12,4.31,4.25-.11.12-.23.24-.34.37l-.22.24-.2.26c-1.99,2.53-3.19,5.41-3.56,8.55-.18,1.48-.31,2.99-.39,4.47-.1,1.92-.08,3.81.07,5.66.09,1.14.14,2.3.14,3.46,0,1.88-.02,3.79-.06,5.67-.05,2.62.18,5.3.69,7.96l.03.14.03.13c.53,2.41,1.49,4.77,2.84,7.02,2.47,4.1,6.5,6.6,11.37,7.04l.25.02h.25c1.84.09,3.56.14,5.1.19,1.6.04,3.24.06,4.88.06h48.91c.83,0,1.8.02,2.87.05.29,0,.56.01.83.01,1.72,0,3.4-.17,5-.51,2.6-.56,4.91-1.64,6.89-3.22,2.96-2.37,4.72-5.91,4.99-9.98.19-2.67-.25-5.17-1.24-7.35,1.57-2.62,2.24-5.78,1.9-9.14-.27-2.67-1.05-4.8-1.98-6.46,1.89-4.17,1.75-8.69-.39-12.73l-.02-.03-.02-.03c-.68-1.26-1.53-2.39-2.52-3.38.92-2.18,1.41-4.53,1.44-6.98,4.83-.59,8.86-3.18,11.35-7.33,1.4-2.32,2.11-4.99,2.11-7.94,0-1.84-.2-3.57-.6-5.16-.6-2.76-1.99-5.22-4.04-7.15-2.02-1.89-4.66-3.14-8.07-3.82-.23-.04-.46-.09-.71-.12.05-.95.05-2.02.02-3.25-.06-2.14-.31-3.87-.77-5.41-.2-.75-.41-1.48-.65-2.19-.53-1.59-1.36-3.14-2.46-4.62l-.27-.36-.3-.33C195.23,2.79,191.42,0,185.24,0h0Z"/>
      </g>
      <g>
        <path class="cls-1" d="M228.05,107.68c-1.68,0-3.43-.04-5.18-.12-2.84-.14-5.37-1.23-7.3-3.17-1.87-1.87-3-4.37-3.26-7.24-.17-1.42-.27-2.99-.31-4.67-.04-1.6-.06-2.96-.06-4.05v-.82c-.08-1.09-.05-2.29.08-3.66.21-2.13.99-4.02,2.3-5.63l.1-.12.11-.12c.33-.36.68-.69,1.05-.99-.71-.55-1.34-1.25-1.86-2.08-1.71-2.62-2.21-5.69-1.39-8.81l.06-.25.09-.24c.56-1.49,1.5-2.76,2.71-3.67.5-.38,1.05-.72,1.64-1.01-.69-.22-1.36-.47-2-.76-1.83-.84-3.33-2.13-4.46-3.82-1.04-1.51-1.8-3.44-2.19-5.67-.29-1.66-.5-3.29-.63-4.85-.13-1.62-.17-3.02-.13-4.29.03-.92.05-1.45.06-1.6v-5.28c0-1.11.04-2.35.11-3.68,0-1.41.02-2.62.06-3.69.04-.99.05-1.88.05-2.67v-3.76c0-.78.05-1.63.14-2.52.09-.9.24-1.8.43-2.69.28-1.32.75-2.51,1.42-3.5,1.01-1.57,2.15-2.8,3.44-3.69,1.27-.87,2.84-1.5,4.64-1.86.64-.13,1.41-.21,2.43-.26.66-.03,1.29-.08,1.87-.15h.11c.99-.1,2.02-.15,3.07-.15h25.76c1.89,0,3.91.15,6,.45,2.54.36,4.85,1.19,6.88,2.46,2.03,1.23,3.49,2.88,4.37,4.91.64,1.49,1.07,3.09,1.28,4.76.19,1.52.24,3.08.14,4.63-.07,1.14-.1,2.21-.1,3.18,0,1.82-.04,2.51-.08,2.91h0s-.01.39.07,1.68v.16s0,6.93,0,6.93l-.07.36c.05.61.07,1.19.07,1.76v.39l-.06.38c-.09.59-.12,1.18-.07,1.74.09,1.1.13,2.25.13,3.42,0,1.03-.07,2.13-.21,3.28-.16,1.31-.47,2.64-.94,3.95-.51,1.41-1.21,2.72-2.07,3.87-.55.73-1.19,1.38-1.92,1.92h11.12c-.36-.63-.65-1.3-.87-2-.59-1.87-.85-3.23-.85-4.4V19.13c-.08-.82-.03-1.82.14-3.42.21-1.94.69-3.66,1.41-5.1.83-1.75,3.09-4.9,8.45-5.47.75-.1,1.49-.15,2.18-.15,4.34,0,6.96,1.89,8.39,3.48l.15.17.14.18c.78,1.03,1.35,2.1,1.71,3.18.21.62.4,1.28.58,1.97.35,1.13.54,2.47.59,4.19.04,1.39.02,2.52-.05,3.45v3.07c.83.04,1.63.1,2.4.17,1.03.09,1.77.19,2.34.3,2.49.5,4.33,1.34,5.64,2.56,1.33,1.25,2.23,2.85,2.6,4.64.31,1.21.47,2.57.47,4.03,0,2.02-.47,3.83-1.4,5.37-1.71,2.85-4.51,4.61-7.87,4.96-1.3.14-2.7.25-4.18.33v5.47c0,3.1-.92,5.87-2.75,8.24-.37.49-.83,1-1.4,1.49,3.05,2.13,4.72,5.48,4.72,9.54v8.89c0,1.79-.39,3.53-1.15,5.18-.64,1.39-1.62,2.62-2.91,3.69,1.38.87,2.97,2.42,3.82,5.14,1.62,5.3-.64,9.82-5.89,11.84-1.37.56-2.8.91-4.24,1.02-1.09.09-2.13.13-3.08.13h-56.6ZM238.11,39.01c.56,0,1.07,0,1.54.02,1.21.04,2.81.05,4.87.05.34,0,.69,0,1.04.02.15-.95.23-2.03.23-3.22,0-1.42.02-2.33.08-2.93,0-.01.02-.39-.06-1.63-.03-.24-.05-.47-.06-.71l-12.82-.21h-1.53v2.5l-.04.31c-.05.39-.07.74-.07,1.02v2.68c0,.82.02,1.48.05,1.96,0,.04,0,.07,0,.11,1.05.07,2.11.11,3.15.11h.02c1.34-.05,2.56-.08,3.6-.08Z"/>
        <path class="cls-2" d="M286.02,10c2.02,0,3.58.61,4.67,1.82.46.61.78,1.2.97,1.77.19.57.36,1.16.51,1.77.23.68.36,1.67.4,2.96.04,1.29.02,2.32-.06,3.08v8.09c.3,0,.87.02,1.71.06.84.04,1.71.08,2.62.11.91.04,1.79.1,2.62.17.84.08,1.44.15,1.82.23,1.52.3,2.58.74,3.19,1.31.61.57.99,1.27,1.14,2.11.23.84.34,1.81.34,2.91s-.23,2.03-.68,2.79c-.91,1.52-2.28,2.38-4.1,2.56-1.82.19-3.84.32-6.04.4h-2.62v10.37c0,1.98-.57,3.71-1.71,5.19-1.14,1.48-2.89,2.22-5.24,2.22-1.29,0-2.36-.27-3.19-.8-1.52-.91-2.49-2.03-2.91-3.36-.42-1.33-.63-2.3-.63-2.91V18.78c-.08-.3-.04-1.14.11-2.51.15-1.37.46-2.51.91-3.42.76-1.6,2.28-2.51,4.56-2.74.56-.08,1.09-.11,1.6-.11M251.02,11.14c1.67,0,3.44.13,5.3.4,1.86.27,3.51.85,4.96,1.77,1.14.68,1.94,1.56,2.39,2.62.46,1.06.76,2.21.91,3.42.15,1.22.19,2.45.11,3.71-.08,1.25-.11,2.41-.11,3.48,0,1.22-.02,2.03-.06,2.45-.04.42-.02,1.24.06,2.45v6.27c-.08.38-.1.8-.06,1.25.04.46.06.91.06,1.37-.15.99-.19,1.96-.12,2.91.08.95.12,1.96.12,3.02,0,.84-.06,1.73-.17,2.68-.11.95-.34,1.9-.68,2.85-.34.95-.8,1.81-1.37,2.56-.57.76-1.31,1.29-2.22,1.6-1.89.8-3.86,1.2-5.92,1.2-.1,0-.19,0-.29,0-2.17-.04-4.27-.06-6.33-.06-.53.08-1.73.11-3.59.11s-3.86-.02-5.98-.06c-2.13-.04-4.14-.06-6.04-.06h-3.88c-1.37,0-2.72-.02-4.05-.06-1.33-.04-2.6-.15-3.82-.34-1.22-.19-2.32-.51-3.31-.97-.99-.46-1.79-1.14-2.39-2.05-.68-.99-1.16-2.24-1.42-3.76-.27-1.52-.46-2.98-.57-4.39-.12-1.41-.15-2.64-.12-3.71.04-1.06.06-1.63.06-1.71v-5.36c0-1.06.04-2.24.11-3.53,0-1.37.02-2.58.06-3.65.04-1.06.06-2.01.06-2.85v-3.76c0-.61.04-1.27.11-2,.08-.72.19-1.44.34-2.17.15-.72.38-1.31.68-1.77.68-1.06,1.39-1.84,2.11-2.34.72-.49,1.65-.85,2.79-1.08.38-.07.95-.13,1.71-.17.76-.04,1.48-.09,2.17-.17.84-.07,1.71-.11,2.62-.11h25.76M234.49,44.09h.11c1.32-.05,2.49-.08,3.51-.08.5,0,.97,0,1.4.02,1.29.04,2.96.06,5.02.06.61,0,1.23.02,1.88.06.13,0,.26.01.39.01.51,0,1-.06,1.49-.18.61-.07,1.03-.27,1.25-.57.23-.3.42-.68.57-1.14.15-.61.23-1.1.23-1.48.3-1.44.46-3.08.46-4.9,0-1.21.02-2.05.06-2.51.04-.46.02-1.29-.06-2.51-.08-.61-.1-1.21-.06-1.82.04-.61-.02-1.21-.17-1.82-.3-.83-.8-1.31-1.48-1.42-.68-.11-1.37-.17-2.05-.17l-14.02-.23h-1.88c-.57,0-1.08.08-1.54.23-1.07.08-1.94.53-2.62,1.37-.3.38-.47.95-.51,1.71-.04.76-.06,1.22-.06,1.37v2.51c-.08.61-.11,1.16-.11,1.65v2.68c0,.91.02,1.67.06,2.28.04.61.13,1.22.29,1.82.15.61.42,1.14.8,1.6.61.76,1.6,1.2,2.96,1.31,1.37.11,2.74.17,4.1.17M228.68,64.15c.38,0,.72.02,1.03.06.3.04.64.06,1.03.06h50.39c3.88,0,6.84.59,8.89,1.77,2.05,1.18,3.08,3.1,3.08,5.76v8.89c0,1.06-.23,2.09-.68,3.08-.46.99-1.29,1.86-2.51,2.62-1.06.61-2.09.93-3.08.97-.99.04-1.94.06-2.85.06h-53.01v5.36h57c1.14.07,2.18.36,3.13.85.95.49,1.61,1.35,2,2.56.83,2.74-.15,4.63-2.96,5.7-.91.38-1.84.61-2.79.68-.95.08-1.84.11-2.68.11h-56.6c-1.64,0-3.29-.04-4.96-.11-1.6-.08-2.93-.65-3.99-1.71-1.07-1.06-1.67-2.47-1.82-4.22-.15-1.29-.25-2.72-.29-4.27-.04-1.56-.06-2.87-.06-3.93v-1.03c-.08-.84-.06-1.82.06-2.96.11-1.14.51-2.13,1.2-2.96.99-1.06,2.37-1.75,4.16-2.05,1.79-.3,3.52-.46,5.19-.46h2.39c.3,0,.59.02.85.06.27.04.51.06.74.06h48.45v-4.9h-49.59c-.38,0-.8-.02-1.25-.06-.15-.01-.3-.02-.44-.02-.29,0-.56.03-.82.08h-4.9c-.61,0-1.22-.07-1.82-.23-.61-.15-1.2-.3-1.77-.46-.57-.15-1.05-.53-1.43-1.14-.99-1.52-1.25-3.15-.8-4.9.23-.61.57-1.08,1.03-1.42.46-.34.99-.63,1.6-.85.61-.23,1.2-.4,1.77-.51.57-.11,1.08-.21,1.54-.29.61-.07,1.2-.13,1.77-.17.57-.04,1.2-.06,1.88-.06h1.94M286.02,0c-.9,0-1.83.06-2.77.18-5.62.62-10.12,3.62-12.37,8.28-.02.04-.04.07-.05.11-1.17-1.48-2.62-2.75-4.3-3.78-2.61-1.63-5.57-2.69-8.78-3.15-2.34-.33-4.59-.5-6.72-.5h-25.76c-1.19,0-2.37.05-3.51.15h-.11s-.11.02-.11.02c-.47.05-.99.09-1.55.12-1.29.07-2.28.18-3.15.35-2.49.5-4.67,1.39-6.51,2.64-1.83,1.25-3.42,2.93-4.83,5.12-.99,1.51-1.69,3.25-2.1,5.19-.22,1.01-.39,2.09-.5,3.17-.11,1.05-.17,2.08-.17,3.03v3.76c0,.7-.02,1.54-.05,2.5-.04,1.07-.06,2.29-.06,3.71-.08,1.37-.11,2.65-.11,3.82v5.24c0,.22-.02.71-.05,1.47-.05,1.46,0,3.06.14,4.88.14,1.7.37,3.49.69,5.3.51,2.91,1.52,5.49,3,7.65.69,1.03,1.5,1.96,2.4,2.79-.33.6-.62,1.22-.87,1.88l-.18.48-.13.5c-1.09,4.16-.5,8.43,1.63,12.13-1.14,1.93-1.84,4.1-2.07,6.39-.16,1.59-.19,3.01-.11,4.34v.65c0,1.19.02,2.6.06,4.18.04,1.8.16,3.5.34,5.06.39,4.02,2.01,7.56,4.7,10.25,2.83,2.83,6.49,4.43,10.58,4.63,1.86.08,3.68.13,5.44.13h56.6c1.08,0,2.25-.05,3.47-.15,1.95-.16,3.87-.61,5.7-1.36,7.65-2.98,11.2-10.16,8.83-17.91v-.04s-.02-.04-.02-.04c-.44-1.41-1.07-2.72-1.86-3.89.26-.44.5-.89.71-1.35,1.06-2.3,1.6-4.75,1.6-7.27v-8.89c0-3.75-1.07-7.15-3.06-9.91,1.63-2.8,2.49-5.99,2.49-9.36v-.86c4.83-.59,8.85-3.18,11.34-7.33,1.4-2.32,2.11-5,2.11-7.94,0-1.84-.2-3.57-.6-5.16-.6-2.75-1.99-5.22-4.04-7.15-2.03-1.9-4.66-3.14-8.07-3.83-.21-.04-.44-.08-.67-.12.01-.65,0-1.35-.02-2.1-.06-2.14-.31-3.88-.77-5.42-.2-.76-.42-1.49-.65-2.18-.53-1.6-1.36-3.14-2.45-4.61l-.27-.36-.3-.34c-2.11-2.34-5.92-5.13-12.1-5.13h0Z"/>
      </g>
      <g>
        <path class="cls-1" d="M22.42,228.02c-1.28,0-2.55-.16-3.79-.48-1.63-.39-3.16-1.11-4.56-2.14-1.81-1.34-2.99-3.12-3.43-5.16-.31-1.1-.37-2.24-.2-3.39.11-.72.28-1.43.52-2.08.62-2.2,1.93-4.08,3.79-5.45,1.19-.88,2.46-1.69,3.77-2.39,1.34-.79,2.75-1.55,4.2-2.28l2.27-1.14c-1.54-.2-2.97-.5-4.27-.91l-.18-.06c-1.42-.51-2.78-1.17-4.04-1.98-2.08-1.33-3.45-3.29-3.96-5.67l-.06-.27-.03-.27c-.25-2.47.23-4.92,1.42-7.3.14-.29.3-.56.46-.83-.43-.05-.9-.13-1.42-.24l-.14-.03-.14-.04c-3.53-.93-5.27-2.97-6.1-4.52-.95-1.74-1.3-3.8-1-5.92.24-1.65.73-3.17,1.47-4.53l.07-.13c.67-1.16,1.44-2.24,2.28-3.23.62-.73,1.27-1.51,1.93-2.32l.15-.18c1.88-2.09,3.74-4.32,5.53-6.63,1.37-1.76,2.83-3.5,4.38-5.21-.68,0-1.5.04-2.43.1-.47.03-.94.05-1.41.05-.94,0-1.89-.07-2.81-.21-1.66-.25-3.21-.79-4.6-1.61-1.77-1.04-3.11-2.65-3.99-4.79-.6-1.35-.96-2.85-1.07-4.47-.11-1.54,0-3.04.35-4.45.58-2.6,2.22-4.61,4.62-5.67,1.3-.57,2.58-.98,3.8-1.2,1.01-.2,2-.31,2.95-.31.48,0,.96.04,1.44.11h5.01c.16-.57.34-1.13.54-1.68,1.08-2.96,3.28-5.11,6.35-6.23,1.44-.51,2.83-.76,4.17-.76.73,0,1.45.07,2.15.22,1.89.39,3.59,1.2,5.06,2.39,1.38,1.13,2.51,2.56,3.36,4.26.29.59.55,1.19.76,1.8h2.52c3.04,0,5.47.2,7.43.62,2.82.6,5.25,2.27,7.04,4.81l.07.1c.68,1.03,1.15,2.24,1.43,3.71.26,1.34.29,2.7.1,4.04-.18,1.24-.52,2.44-1,3.54-.7,1.57-1.69,2.79-2.94,3.62l-.48.32s-1.83.68-2.56.95c-1.18.44-2.35.67-3.48.7-.68.05-1.33.08-1.93.08-.36,0-.71,0-1.04-.03-.63-.03-1.36-.05-2.18-.05-.18,0-.34,0-.5,0,.07.1.14.21.21.31.43.64.83,1.15,1.2,1.52.64.64,1.32,1.34,2.04,2.09.69.73,1.4,1.5,2.16,2.33.6.6,1.13,1.18,1.58,1.73.29.35.57.65.83.92l.15.15.13.16c1.32,1.56,2.67,3.23,4.02,4.96,1.69,2.19,2.87,4.46,3.49,6.76l.05.17.03.17c.27,1.38.28,2.81.02,4.26-.19,1.03-.56,2-1.08,2.89h11.66c-.35-.38-.67-.79-.96-1.23-.64-.97-1.16-1.93-1.55-2.87-.42-1.01-.73-2.2-.95-3.6l-.06-.37v-34.46c-.08-.81-.03-1.82.14-3.41.22-1.98.68-3.65,1.41-5.1.83-1.75,3.09-4.9,8.45-5.47.75-.1,1.49-.15,2.18-.15,4.34,0,6.96,1.89,8.39,3.48l.15.17.13.18c.78,1.03,1.35,2.1,1.71,3.18.22.65.42,1.33.59,2.03.32,1.11.51,2.28.57,3.48.04.98.03,1.97-.05,2.95v6.5c.83.04,1.63.1,2.4.17,1.03.09,1.77.19,2.34.3,2.5.5,4.34,1.34,5.65,2.57,1.33,1.25,2.22,2.84,2.59,4.63.31,1.21.47,2.57.47,4.03,0,2.02-.47,3.83-1.4,5.37-1.71,2.85-4.51,4.61-7.87,4.96-1.3.14-2.7.25-4.18.33v2.51l-.02.23c-.09.95-.22,1.95-.39,2.96-.25,1.4-.72,2.75-1.41,4.03-.81,1.59-1.96,2.94-3.43,4-.26.19-.53.36-.8.53.78.45,1.5.99,2.16,1.61,1.6,1.52,2.62,3.54,3.03,5.99l.11.63-.06.64c-.25,2.69-1.09,4.92-2.5,6.62-1.31,1.57-2.91,2.73-4.75,3.45-1.31.52-2.75.85-4.28,1.01.12.06.77.38.92.45h.22l.98.44c1.7.76,3.25,1.56,4.61,2.37,1.47.87,2.95,1.96,4.38,3.21,1.46,1.3,2.43,2.88,2.91,4.72.43,1.65.46,3.31.1,4.93-.37,1.62-1.1,3.09-2.18,4.38-1.26,1.51-3.01,2.56-5.05,3.04-1.6.34-3.13.5-4.66.5-1.74,0-3.5-.21-5.25-.62-2.93-.69-5.69-1.66-8.21-2.87-.54-.27-1.35-.69-2.47-1.29-1.08-.58-2.32-1.26-3.71-2.03-1.38-.77-2.81-1.57-4.3-2.41-1.47-.83-2.89-1.62-4.25-2.38-1.31-.73-2.48-1.36-3.54-1.91-.15.09-.31.19-.48.29-1.61.96-3.38,2-5.29,3.11-1.88,1.09-3.61,2.11-5.2,3.05-1.41.84-2.25,1.34-2.52,1.52l-.19.12-.25.14c-1.33.7-2.7,1.4-4.08,2.07-1.46.71-2.95,1.36-4.42,1.93-1.68.65-3.45,1.14-5.28,1.46-.91.16-1.83.24-2.72.24ZM43.2,181.66c-1.35-1.2-2.6-2.44-3.72-3.68-1.04-1.15-2.09-2.29-3.13-3.41-.53-.58-1.08-1.15-1.67-1.71l-7.62,8.39c-.13.14-.27.28-.4.42h16.54Z"/>
        <path class="cls-2" d="M34.26,127.15c.39,0,.77.04,1.13.11,1.1.23,2.07.68,2.91,1.37.84.68,1.52,1.56,2.05,2.62.53,1.07.87,2.17,1.03,3.31.07.23.13.44.17.63.04.19.06.4.06.63h6.5c2.66,0,4.79.17,6.38.51,1.6.34,2.93,1.27,3.99,2.79.3.46.53,1.08.68,1.88.15.8.17,1.6.06,2.39-.11.8-.32,1.54-.63,2.22-.3.68-.68,1.18-1.14,1.48-.61.23-1.27.48-2,.74-.72.27-1.39.4-1.99.4-.61.05-1.17.08-1.69.08-.26,0-.52,0-.76-.02-.72-.04-1.54-.06-2.45-.06-1.37,0-2.43.02-3.19.06-.26.01-.53.02-.82.02-.57,0-1.21-.03-1.92-.08v6.27c.38.3.87.91,1.48,1.82.61.91,1.21,1.67,1.82,2.28.61.61,1.25,1.27,1.94,1.99.68.72,1.41,1.5,2.17,2.34.53.53.99,1.03,1.37,1.48.38.46.76.87,1.14,1.25,1.29,1.52,2.58,3.12,3.88,4.79,1.29,1.67,2.17,3.35,2.62,5.02.15.76.15,1.56,0,2.39-.15.84-.57,1.56-1.25,2.17-1.14.76-2.36,1.14-3.65,1.14-1.44,0-2.83-.34-4.16-1.03-1.33-.68-2.41-1.37-3.25-2.05-1.29-1.14-2.47-2.3-3.53-3.48-1.07-1.18-2.13-2.34-3.19-3.48-.84-.91-1.75-1.82-2.74-2.74-.99-.91-1.86-1.9-2.62-2.96l-11.29,12.43c-1.22,1.29-2.51,2.19-3.88,2.68-1.37.5-2.66.74-3.88.74-.38,0-.95-.08-1.71-.23-1.44-.38-2.43-1.06-2.96-2.05-.46-.84-.61-1.78-.46-2.85.15-1.06.46-2.01.91-2.85.53-.91,1.12-1.75,1.77-2.51.64-.76,1.31-1.56,1.99-2.39,1.98-2.2,3.89-4.5,5.76-6.9,1.86-2.39,3.89-4.73,6.1-7.01v-6.27c-.4.05-.87.08-1.41.08-.27,0-.56,0-.87-.02-.91-.04-2.01-.06-3.31-.06-.84,0-1.79.04-2.85.11-.36.03-.71.04-1.06.04-.7,0-1.39-.05-2.07-.15-1.03-.15-1.96-.47-2.79-.97-.84-.49-1.48-1.31-1.94-2.45-.38-.84-.61-1.79-.68-2.85-.08-1.06,0-2.05.23-2.96.23-1.06.82-1.8,1.77-2.22.95-.42,1.84-.7,2.68-.86.76-.15,1.44-.23,2.05-.23.23,0,.46.02.68.06.23.04.46.06.68.06h9.23c.15-1.75.51-3.4,1.08-4.96.57-1.56,1.69-2.64,3.36-3.25.86-.3,1.68-.46,2.46-.46M83.22,130c2.02,0,3.58.61,4.67,1.82.46.61.78,1.2.97,1.77.19.57.36,1.16.51,1.77.23.76.36,1.56.4,2.39.04.84.02,1.67-.06,2.51v8.89c0,.38-.02.78-.06,1.2-.04.42-.02.89.06,1.42.3,0,.87.02,1.71.06.83.04,1.71.08,2.62.11.91.04,1.79.1,2.62.17.83.08,1.44.15,1.82.23,1.52.3,2.58.74,3.19,1.31.61.57.99,1.27,1.14,2.11.23.84.34,1.81.34,2.91s-.23,2.03-.68,2.79c-.91,1.52-2.28,2.38-4.1,2.57-1.82.19-3.84.32-6.04.4h-2.62v7.18c-.08.84-.19,1.69-.34,2.57-.15.87-.46,1.73-.91,2.56-.46.91-1.1,1.67-1.94,2.28-1.07.76-2.32,1.14-3.76,1.14-1.29,0-2.36-.27-3.19-.8-.76-.46-1.37-1.03-1.82-1.71-.46-.68-.82-1.35-1.08-2-.27-.65-.48-1.46-.63-2.45v-34.43c-.08-.3-.04-1.14.11-2.51.15-1.37.46-2.51.91-3.42.76-1.6,2.28-2.51,4.56-2.74.56-.08,1.09-.11,1.6-.11M76.6,186.66c1.37,0,2.74.02,4.1.06,1.37.04,2.62.21,3.76.51,1.14.3,2.11.84,2.91,1.6.8.76,1.31,1.82,1.54,3.19-.15,1.67-.61,2.96-1.37,3.88-.76.91-1.67,1.58-2.74,2-1.06.42-2.26.67-3.59.74-.67.04-1.32.06-1.95.06s-1.26-.02-1.87-.06h-15.16c.15.08.74.4,1.77.97,1.03.57,2.24,1.24,3.65,2,1.4.76,2.92,1.56,4.56,2.39,1.63.84,3.15,1.62,4.56,2.34,1.41.72,2.64,1.35,3.71,1.88,1.06.53,1.71.8,1.94.8,1.52.68,2.89,1.39,4.1,2.11,1.21.72,2.43,1.61,3.65,2.68.68.61,1.14,1.35,1.37,2.22.23.87.25,1.73.06,2.56-.19.84-.57,1.6-1.14,2.28-.57.68-1.35,1.14-2.34,1.37-1.17.25-2.35.37-3.54.37-1.36,0-2.72-.16-4.1-.49-2.58-.61-4.98-1.44-7.18-2.51-.46-.23-1.22-.63-2.28-1.2-1.07-.57-2.28-1.24-3.65-2-1.37-.76-2.79-1.56-4.28-2.39-1.48-.84-2.91-1.64-4.28-2.39-1.37-.76-2.6-1.42-3.71-2-1.1-.57-1.92-.97-2.45-1.2-.3.15-1.25.7-2.85,1.65-1.6.95-3.34,1.98-5.24,3.08-1.9,1.1-3.65,2.13-5.24,3.08-1.6.95-2.51,1.5-2.74,1.65-1.29.68-2.6,1.35-3.93,2-1.33.64-2.68,1.23-4.05,1.77-1.37.53-2.81.93-4.33,1.2-.63.11-1.25.16-1.86.16-.88,0-1.74-.11-2.59-.33-.99-.23-1.92-.67-2.79-1.31-.87-.65-1.39-1.42-1.54-2.34-.15-.46-.19-.93-.11-1.43.07-.5.19-.93.34-1.31.3-1.22.97-2.21,2-2.96,1.03-.76,2.11-1.44,3.25-2.05,1.29-.76,2.62-1.48,3.99-2.17,1.37-.68,2.74-1.37,4.1-2.05,1.44-.76,2.85-1.48,4.22-2.17,1.37-.68,2.74-1.41,4.1-2.17.07-.07.49-.3,1.25-.68.76-.38,1.58-.8,2.45-1.25.87-.46,1.69-.89,2.45-1.31.76-.42,1.14-.7,1.14-.85h-18.35c-1.52-.15-2.89-.42-4.1-.8-1.06-.38-2.07-.87-3.02-1.48-.95-.61-1.54-1.44-1.77-2.51-.15-1.52.15-3.04.91-4.56.76-1.52,2.05-2.35,3.88-2.51.53-.07,1.08-.11,1.65-.11h52.72M34.26,117.15c-1.91,0-3.86.35-5.79,1.03l-.05.02-.05.02c-3.87,1.41-6.88,4.08-8.64,7.6h-1.2c-.59-.08-1.19-.11-1.79-.11-1.25,0-2.54.13-3.93.41-1.57.29-3.19.81-4.82,1.52-3.83,1.68-6.55,5-7.48,9.1-.46,1.9-.61,3.9-.46,5.96.15,2.14.64,4.19,1.46,6.06,1.29,3.09,3.38,5.56,6.06,7.14,1.17.69,2.42,1.24,3.74,1.65-1.18,1.45-2.39,2.86-3.6,4.21l-.16.17-.15.18c-.64.78-1.27,1.53-1.87,2.24-1.03,1.21-1.96,2.54-2.79,3.95l-.07.13-.07.13c-1.02,1.88-1.71,3.97-2.03,6.21-.46,3.19.08,6.3,1.56,9.02.97,1.8,2.68,4,5.65,5.59-.39,1.8-.49,3.64-.3,5.48l.06.55.11.54c.73,3.41,2.67,6.36,5.5,8.39-.47.31-.93.64-1.38.98-2.71,2.01-4.63,4.74-5.57,7.95-.31.91-.55,1.88-.7,2.88-.28,1.78-.18,3.58.29,5.33.72,3.14,2.58,5.94,5.3,7.95,1.94,1.43,4.07,2.43,6.34,2.98,1.63.42,3.31.63,4.99.63,1.18,0,2.39-.11,3.58-.31,2.16-.38,4.26-.96,6.23-1.72,1.61-.63,3.22-1.33,4.79-2.09,1.45-.7,2.87-1.43,4.25-2.15l.47-.25.36-.24c.15-.09.67-.41,2.34-1.41,1.61-.96,3.34-1.97,5.14-3.02,1.22-.71,2.35-1.37,3.41-1.99.32.17.64.35.97.54,1.36.75,2.76,1.54,4.22,2.36,1.51.85,2.95,1.66,4.33,2.43,1.42.79,2.68,1.48,3.79,2.07,1.14.61,1.97,1.05,2.53,1.32l.06.03.06.03c2.84,1.37,5.95,2.46,9.23,3.24,2.13.5,4.28.75,6.4.75,1.88,0,3.76-.2,5.61-.59l.09-.02.09-.02c3.12-.72,5.8-2.35,7.77-4.71,1.58-1.89,2.66-4.07,3.2-6.45.55-2.43.5-4.88-.13-7.31-.73-2.78-2.25-5.26-4.4-7.17l-.03-.03-.03-.02c-.99-.87-2-1.66-3.02-2.39.53-.49,1.02-1.02,1.49-1.58,2.08-2.5,3.31-5.66,3.65-9.37l.12-1.28-.21-1.27c-.43-2.57-1.38-4.89-2.79-6.83.5-.68.94-1.4,1.34-2.17.93-1.74,1.57-3.58,1.9-5.47.11-.66.21-1.31.29-1.94,4.92-.54,9.02-3.15,11.54-7.36,1.4-2.32,2.11-5,2.11-7.93,0-1.84-.2-3.57-.6-5.16-.6-2.76-1.99-5.22-4.04-7.15-2.01-1.89-4.65-3.14-8.07-3.82-.24-.05-.48-.09-.74-.13v-1.75c.08-1.12.1-2.24.05-3.35-.07-1.59-.32-3.12-.74-4.59-.2-.78-.43-1.55-.67-2.29-.53-1.6-1.36-3.14-2.45-4.61l-.27-.36-.3-.33c-2.11-2.34-5.92-5.14-12.1-5.14-.9,0-1.83.06-2.77.18-5.62.62-10.12,3.62-12.37,8.28-.7,1.41-1.22,2.99-1.56,4.71-2.51-3.48-5.94-5.76-9.93-6.62-2.15-.46-4.71-.7-7.8-.73-1.1-1.92-2.49-3.57-4.15-4.93-2.1-1.71-4.52-2.86-7.21-3.42-1.03-.21-2.1-.32-3.16-.32h0ZM58.52,157.36c.13-.05.27-.09.4-.14.73-.27,1.41-.52,2.03-.76l1.08-.4.96-.64c1.17-.78,2.18-1.73,3.04-2.86v14.24c-.51-.83-1.07-1.64-1.69-2.45-1.4-1.81-2.8-3.53-4.17-5.15l-.27-.32-.3-.29c-.16-.16-.33-.35-.51-.57-.18-.22-.37-.44-.57-.66h0Z"/>
      </g>
      <g>
        <path class="cls-1" d="M177.88,227.11l-.42-.21c-2.5-.3-4.63-1.23-6.34-2.77-1.68-1.51-2.97-3.37-3.82-5.54-.74-1.87-1.21-3.84-1.41-5.85-.17-1.7-.25-3.26-.25-4.64v-68.8c0-.95.1-1.98.3-3.14.2-1.14.52-2.34.96-3.56.6-1.65,1.47-3.05,2.6-4.18,1.17-1.17,2.72-2.01,4.61-2.5,1.46-.38,2.78-.56,4.05-.56,3,0,5.68,1.1,7.75,3.18,1.82,1.82,2.92,3.87,3.28,6.1.19,1.17.36,2.41.52,3.69.1.55.16,1.15.17,1.87.15,1.34.25,2.73.29,4.16.04,1.33.09,2.65.17,3.97v.14s0,.14,0,.14c0,.75.02,1.49.05,2.21.04.89.06,1.78.06,2.7v.41l-.07.41c.04.62.07,1.17.07,1.68v4.02c.54.03,1.08.1,1.6.22h.5l.5.1c.19.04.42.07.67.09.61.05,1.19.12,1.77.22,1.39.25,2.68.69,3.93,1.31,1.76.88,3.13,2.24,3.99,3.97.93,1.58,1.4,3.38,1.4,5.35,0,.71-.02,1.4-.07,2.03-.06.79-.2,1.63-.42,2.49-.16.64-.34,1.32-.54,2.04-.51,1.81-1.54,3.3-3,4.34-1.6,1.14-3.23,1.91-4.86,2.29l-.25.06-.25.03c-1.01.13-2.16.19-3.4.19-.5,0-1.02-.01-1.57-.03v9.94c.15,4,.15,7.97,0,11.82v1.5c0,1.03-.02,2.17-.06,3.41-.04,1.35-.15,2.68-.33,3.98-.2,1.51-.56,2.96-1.07,4.33-.61,1.64-1.49,3.06-2.62,4.23-1.86,2.09-4.39,3.19-7.31,3.19h-1.18ZM131.8,222.28c-1.16,0-2.35-.07-3.52-.22-3.1-.39-6.08-1.41-8.86-3.04-2.69-1.6-4.89-3.63-6.55-6.04-1.43-2.08-2.76-4.51-3.94-7.21-1.75-4.19-2.76-8.51-3.03-12.9-.31-3.23-.52-6.52-.64-9.78-.11-3.24-.17-6.52-.17-9.76,0-4.4.24-8.86.71-13.25.15-1.74.3-3.45.45-5.15.16-1.84.42-3.7.75-5.52l.04-.18c.29-1.31.55-2.55.76-3.71.31-1.63.86-3.3,1.64-4.97.7-1.48,1.47-2.89,2.3-4.2.93-1.47,2.04-2.81,3.32-4,3.94-3.91,8.73-6.28,14.24-7.04.71-.11,1.43-.17,2.16-.17.22,0,.42-.02.6-.04l.41-.07h.42c1.11,0,2.21.04,3.26.13,1.05.09,2.11.22,3.14.39,3.9.62,7.4,2.43,10.35,5.39l.14.15c2.18,2.37,3.98,5.1,5.33,8.13,1.27,2.83,2.27,5.85,2.99,8.96.7,3.05,1.18,6.19,1.42,9.34.23,2.92.42,5.82.58,8.6.16,3.62.22,7.24.18,10.82-.04,3.65-.26,7.3-.66,10.87-.4,3.7-.98,7.48-1.72,11.2-.85,4.23-2.41,8.1-4.66,11.51-1.94,2.95-4.32,5.42-7.08,7.34-2.79,1.94-5.85,3.26-9.08,3.93-1.78.34-3.54.51-5.29.51ZM128.32,172.86c.08,1.7.05,3.37-.07,4.96-.09,1.14-.07,2.34.05,3.55v.12c.16,1.9.36,3.98.62,6.19.23,1.95.62,3.8,1.16,5.49.44,1.37,1.01,2.47,1.71,3.29.12.14.21.25.76.25.16,0,.63,0,1.39-.49.41-.3.67-.66.85-1.18.45-1.28.84-2.73,1.17-4.3.55-3.2.87-6.68.94-10.33.07-3.83.04-7.56-.11-11.09v-.21c0-1.33-.04-2.81-.11-4.39-.07-1.49-.2-3-.37-4.48-.16-1.36-.41-2.7-.73-3.96-.26-1-.61-1.88-1.04-2.6-.38-.64-.76-1.08-1.16-1.33-.03-.02-.06-.03-.07-.04h-.02c-.51.06-.94.23-1.37.53-.33.23-.66.69-.96,1.35l-.89,2.07c-.34,1.12-.6,2.29-.78,3.5-.22,1.48-.4,2.96-.54,4.39-.15,1.44-.25,2.92-.32,4.41-.07,1.46-.11,2.91-.11,4.32Z"/>
        <path class="cls-2" d="M132.89,130c.99,0,1.94.04,2.85.11.91.08,1.82.19,2.74.34,2.89.46,5.43,1.79,7.64,3.99,1.82,1.98,3.31,4.24,4.45,6.78,1.14,2.55,2.03,5.23,2.68,8.04.64,2.81,1.08,5.68,1.31,8.61.23,2.93.42,5.76.57,8.49.15,3.5.21,6.99.17,10.49-.04,3.5-.25,6.95-.63,10.37-.38,3.57-.93,7.16-1.65,10.77-.72,3.61-2.03,6.86-3.93,9.75-1.6,2.43-3.52,4.43-5.76,5.98-2.24,1.56-4.66,2.6-7.24,3.14-1.41.27-2.84.41-4.28.41-.96,0-1.93-.06-2.9-.18-2.43-.3-4.75-1.1-6.95-2.39-2.05-1.22-3.71-2.74-4.96-4.56-1.25-1.82-2.41-3.95-3.48-6.38-1.52-3.65-2.39-7.41-2.62-11.29-.3-3.19-.51-6.38-.63-9.58-.11-3.19-.17-6.38-.17-9.58,0-4.26.23-8.51.68-12.77.15-1.75.3-3.48.46-5.19.15-1.71.38-3.4.68-5.07.3-1.37.57-2.66.8-3.88.23-1.21.65-2.47,1.25-3.76.61-1.29,1.27-2.51,2-3.65.72-1.14,1.58-2.17,2.56-3.08,3.19-3.19,7.03-5.09,11.51-5.7.46-.07.93-.11,1.43-.11s.97-.04,1.42-.11M132.55,201.71c1.44,0,2.85-.46,4.22-1.37,1.29-.91,2.2-2.13,2.74-3.65.53-1.52.99-3.19,1.37-5.02.61-3.5.95-7.22,1.03-11.17.08-3.95.04-7.75-.11-11.4,0-1.44-.04-2.98-.11-4.62-.08-1.63-.21-3.25-.4-4.84-.19-1.6-.48-3.14-.85-4.62-.38-1.48-.91-2.79-1.6-3.93-.76-1.29-1.67-2.28-2.74-2.96-.87-.56-1.79-.84-2.77-.84-.22,0-.43.01-.65.04-1.29.15-2.49.61-3.59,1.37-1.1.76-2,1.9-2.68,3.42l-1.03,2.39c-.46,1.44-.8,2.95-1.03,4.5-.23,1.56-.42,3.1-.57,4.62-.15,1.52-.27,3.08-.34,4.67-.08,1.6-.11,3.15-.11,4.67.08,1.52.06,3-.06,4.45-.11,1.44-.1,2.93.06,4.45.15,1.98.36,4.1.63,6.38.27,2.28.72,4.43,1.37,6.44.64,2.01,1.54,3.69,2.68,5.02,1.14,1.33,2.66,2,4.56,2M178.15,130.34c1.67,0,3.08.57,4.22,1.71,1.06,1.06,1.69,2.19,1.88,3.36.19,1.18.36,2.41.51,3.71.07.3.11.76.11,1.37.15,1.29.25,2.62.29,3.99.04,1.37.09,2.74.17,4.1,0,.84.02,1.65.06,2.45.04.8.06,1.62.06,2.45-.08.46-.1.89-.06,1.31.04.42.06.82.06,1.2v7.52c0,.46.07.87.23,1.25,0,.08.38.11,1.14.11h1.25c.46.1.84.15,1.16.15.16,0,.31-.01.43-.04h.23c.38,0,.74.04,1.08.11.34.08.7.11,1.08.11.38.08.8.13,1.25.17.46.04.91.1,1.37.17.83.15,1.67.44,2.51.86.84.42,1.44,1.05,1.82,1.88.53.84.8,1.82.8,2.96,0,.61-.02,1.16-.06,1.65-.04.5-.13,1.05-.29,1.65-.15.61-.32,1.25-.51,1.94-.19.68-.55,1.22-1.08,1.6-1.06.76-2.09,1.25-3.08,1.48-.81.1-1.74.15-2.78.15-.53,0-1.08-.01-1.67-.04-.88-.04-1.68-.06-2.42-.06s-1.42.02-2.02.06c-.08,0-.15.04-.23.11h-.11l-.11.11v14.82c.15,3.95.15,7.83,0,11.63v1.6c0,.99-.02,2.07-.06,3.25-.04,1.18-.13,2.34-.29,3.48-.15,1.14-.42,2.22-.8,3.25-.38,1.03-.91,1.88-1.6,2.56-.91,1.06-2.13,1.6-3.65,1.6l-.23-.11c-1.82-.08-3.29-.61-4.39-1.6-1.1-.99-1.94-2.21-2.51-3.65-.57-1.44-.93-2.95-1.08-4.5-.15-1.56-.23-2.95-.23-4.16v-68.8c0-.64.08-1.41.23-2.28.15-.87.4-1.79.74-2.74.34-.95.82-1.73,1.43-2.34.53-.53,1.31-.93,2.34-1.2,1.03-.27,1.96-.4,2.79-.4M132.89,120h-.83l-.68.11c-.94,0-1.88.08-2.8.22-6.57.92-12.28,3.74-16.98,8.38-1.56,1.47-2.94,3.13-4.08,4.94-.93,1.47-1.81,3.07-2.59,4.74-.96,2.05-1.65,4.12-2.03,6.17-.2,1.08-.45,2.28-.73,3.56l-.04.18-.03.19c-.36,1.97-.63,3.98-.81,5.98-.15,1.68-.3,3.38-.45,5.11-.48,4.55-.73,9.17-.73,13.73,0,3.29.06,6.64.18,9.93.12,3.34.34,6.7.65,10,.31,4.92,1.44,9.75,3.36,14.36l.03.08.03.08c1.31,2.99,2.79,5.7,4.4,8.05,2.07,3.02,4.8,5.54,8.1,7.5h.02s.02.03.02.03c3.37,1.98,6.99,3.22,10.77,3.69,1.38.17,2.78.26,4.14.26,2.07,0,4.15-.2,6.18-.59h.06s.06-.02.06-.02c3.9-.8,7.58-2.39,10.92-4.72,3.29-2.29,6.12-5.22,8.41-8.71,1.24-1.89,2.31-3.9,3.19-6.02v.88c0,1.55.09,3.27.28,5.14.24,2.47.82,4.89,1.73,7.2,1.14,2.89,2.87,5.39,5.13,7.42,2.25,2.01,5.03,3.33,8.15,3.88l.78.39h2.37c4.3,0,8.18-1.7,10.98-4.79,1.58-1.65,2.8-3.63,3.64-5.89.64-1.72,1.08-3.53,1.33-5.4.2-1.47.32-2.97.37-4.48.04-1.33.06-2.5.06-3.58v-1.4c.15-3.91.15-7.95,0-12.01v-4.98c.2-.02.4-.04.59-.07l.51-.06.5-.11c2.27-.52,4.51-1.56,6.64-3.09,2.4-1.71,4.09-4.14,4.9-7.04v-.03s.01-.03.01-.03c.21-.76.4-1.48.57-2.15.28-1.13.47-2.24.55-3.29.06-.79.09-1.6.09-2.44,0-2.78-.69-5.43-2-7.73-1.36-2.63-3.47-4.71-6.15-6.05-1.69-.84-3.43-1.43-5.18-1.75l-.1-.02-.1-.02c-.28-.05-.57-.09-.85-.13,0-.32-.02-.65-.04-.99l.05-.27v-.83c0-.97-.02-1.95-.07-2.92-.03-.64-.05-1.28-.05-1.99v-.28l-.02-.28c-.07-1.28-.13-2.56-.16-3.81-.04-1.49-.14-2.95-.29-4.36-.02-.83-.1-1.59-.22-2.3-.16-1.29-.33-2.54-.52-3.73-.53-3.25-2.14-6.3-4.68-8.84-3.04-3.04-6.94-4.64-11.29-4.64-1.68,0-3.46.24-5.3.72-2.78.72-5.1,2-6.9,3.8-1.65,1.65-2.92,3.68-3.76,6.01-.54,1.51-.94,2.99-1.19,4.42-.25,1.44-.38,2.75-.38,3.99v.08c-.3-.75-.61-1.5-.94-2.23-1.58-3.52-3.67-6.71-6.23-9.48l-.14-.15-.14-.14c-3.71-3.71-8.12-5.99-13.1-6.79-1.16-.19-2.34-.34-3.5-.44-1.21-.1-2.44-.15-3.69-.15h0Z"/>
      </g>
      <g>
        <path class="cls-1" d="M269.62,228.25c-4.83,0-9.45-.18-13.75-.53-4.51-.37-8.55-1.09-11.99-2.14-3.86-1.18-7.03-2.93-9.41-5.22-2.8-2.68-4.28-6.3-4.28-10.45,0-1.57.24-3.4.99-5.26-.46-.22-.91-.47-1.35-.74-2.28-1.4-3.72-3.72-4.05-6.53-.28-2.33.22-4.69,1.44-6.79,1.47-2.52,3.94-4.09,6.97-4.44.68-.1,1.36-.16,2.03-.16h22.53c.15-.72.36-1.41.61-2.08.24-.63.53-1.24.88-1.82h-20.03c-2.87,0-5.22-.33-7.21-1.01-2.4-.82-4.51-2.42-6.26-4.75-2.09-2.75-3.16-5.91-3.16-9.38,0-3.19-.04-6.62-.11-10.21-.08-3.72-.04-7.31.12-10.66.07-1.84.09-3.84.05-5.89-.05-3.04.63-5.86,2.05-8.37.94-1.73,2.3-3.16,4.05-4.26,1.63-1.02,3.37-1.67,5.17-1.92.52-.07,1.04-.11,1.56-.11,1.44,0,2.85.28,4.2.83,2,.82,3.67,2.24,4.83,4.12,1.88,3.13,2.79,6.46,2.74,9.94-.04,2.53-.06,5.1-.06,7.74,0,1.8.02,3.9.06,6.3.03,1.69.1,3.25.23,4.66h1.24s20.43.58,20.43.58c-.18-.28-.34-.56-.49-.85-.97-1.86-1.25-4.03-.83-6.43.36-2.02.97-3.65,1.88-4.98,1-1.46,2.28-2.57,3.82-3.29,1.26-.6,2.69-.96,4.24-1.09,1.1-.09,2.29-.13,3.54-.13,1.04,0,2.51-.02,4.4-.06.25,0,.5,0,.74-.02v-3.59c0-.1-.02-.39-.05-.83-.04-.69-.07-1.45-.07-2.31,0-.98.08-1.97.23-2.95.19-1.24.51-2.29.98-3.22l.1-.2c.78-1.4,1.9-2.58,3.35-3.53,1.38-.89,2.97-1.47,4.76-1.73l.13-.02c.62-.07,1.24-.11,1.84-.11,1.26,0,2.49.16,3.66.48,2.03.56,3.68,1.55,4.93,2.93,1.59,1.72,2.66,3.6,3.18,5.58.34,1.19.52,2.62.58,4.49.04,1.53.02,2.76-.06,3.76v19.23c0,4.25-.04,8.48-.12,12.58v.18s-.02.18-.02.18c-.08.9-.18,1.82-.31,2.77-.19,1.47-.67,2.93-1.42,4.31-.89,1.65-2.06,2.97-3.48,3.88-.56.42-1.15.77-1.78,1.07,1.73.22,3.31.72,4.71,1.47,1.55.84,3.59,2.57,4.52,6.09l.05.2c.58,2.64.29,4.97-.86,6.93-.98,1.65-2.38,2.96-4.17,3.89-.05.03-.1.05-.15.08.64,1.68.96,3.5.96,5.46,0,4.13-1.45,7.73-4.18,10.41-2.36,2.31-5.52,4.08-9.39,5.26-3.45,1.05-7.48,1.77-12,2.14-4.3.35-8.92.53-13.75.53ZM294.71,185.99c-.48-.21-.96-.45-1.42-.73-1.94-1.12-3.44-2.81-4.48-5.02-.92-1.95-1.39-3.85-1.39-5.66v-8.95l-5.45-.18c.07.15.13.3.18.45.47,1.23.76,2.52.88,3.85.11,1.3.06,2.52-.17,3.64-.45,2.98-2.01,5.34-4.46,6.77.73.73,1.37,1.57,1.92,2.5.63,1.09,1.1,2.21,1.4,3.34h12.98Z"/>
        <path class="cls-2" d="M298.69,129.35c.82,0,1.6.1,2.33.3,1.1.3,1.96.8,2.57,1.48,1.06,1.14,1.75,2.32,2.05,3.53.23.76.36,1.86.4,3.31.04,1.44.02,2.58-.06,3.42v19.44c0,4.29-.04,8.46-.11,12.48-.08.84-.17,1.69-.29,2.56-.11.87-.4,1.73-.85,2.56-.53.99-1.18,1.71-1.94,2.17-1.06.84-2.32,1.25-3.76,1.25-1.14,0-2.21-.3-3.19-.91-1.07-.61-1.9-1.56-2.51-2.85-.61-1.29-.91-2.47-.91-3.53v-13.79l-10.49-.34c-1.07,0-2.13-.15-3.19-.46-1.07-.3-2-.74-2.79-1.31-.8-.57-1.42-1.29-1.88-2.17-.46-.87-.57-1.96-.34-3.25.23-1.29.59-2.3,1.08-3.02.49-.72,1.1-1.25,1.82-1.6.72-.34,1.56-.55,2.51-.63.95-.07,1.99-.11,3.13-.11,1.06,0,2.56-.02,4.5-.06,1.94-.04,3.82-.09,5.64-.17v-8.44c0-.15-.02-.53-.06-1.14-.04-.61-.06-1.27-.06-2s.06-1.44.17-2.17c.11-.72.29-1.31.51-1.77.38-.68.95-1.27,1.71-1.77.76-.49,1.67-.82,2.74-.97.43-.05.85-.08,1.26-.08M236.46,130.51c.79,0,1.57.15,2.32.46,1.03.42,1.84,1.12,2.45,2.11,1.37,2.28,2.03,4.69,2,7.24-.04,2.55-.06,5.15-.06,7.81,0,1.82.02,3.95.06,6.38.04,2.43.17,4.6.4,6.5.08.91.3,1.58.68,1.99.38.42.83.7,1.37.85.53.15,1.14.23,1.82.23h2.05l24.05.68c.99,0,1.8.29,2.45.85.64.57,1.12,1.25,1.42,2.05.3.8.49,1.64.57,2.51.08.87.04,1.65-.11,2.34-.23,1.75-1.1,2.95-2.62,3.59-1.52.65-3.31.97-5.36.97h-29.75c-2.28,0-4.14-.25-5.59-.74-1.44-.49-2.74-1.5-3.88-3.02-1.45-1.9-2.17-4.03-2.17-6.38,0-3.27-.04-6.71-.12-10.32-.08-3.61-.04-7.05.12-10.32.07-1.98.09-4.05.06-6.21-.04-2.17.44-4.12,1.42-5.87.53-.99,1.31-1.8,2.34-2.45,1.03-.65,2.09-1.04,3.19-1.2.29-.04.58-.06.87-.06M270.04,181.64c.38,0,.75.04,1.12.11,1.1.23,2.05.63,2.85,1.2.8.57,1.46,1.31,2,2.22.53.91.87,1.82,1.03,2.74.23,1.14.27,2.17.11,3.08h17.78c1.14,0,2.39-.07,3.76-.23.78-.09,1.56-.13,2.33-.13.58,0,1.15.02,1.72.07,1.33.11,2.49.44,3.48.97.99.53,1.67,1.52,2.05,2.96.3,1.37.21,2.47-.29,3.31-.5.84-1.22,1.5-2.17,1.99-.95.5-2.05.84-3.31,1.03-1.25.19-2.45.28-3.59.28,3.34,2.05,5.02,4.94,5.02,8.66,0,2.81-.89,5.09-2.68,6.84-1.79,1.75-4.24,3.1-7.35,4.05-3.12.95-6.76,1.6-10.94,1.94-4.18.34-8.63.51-13.34.51s-9.16-.17-13.34-.51c-4.18-.34-7.83-.99-10.94-1.94-3.12-.95-5.59-2.3-7.41-4.05-1.82-1.75-2.74-4.03-2.74-6.84,0-3.72,1.98-6.65,5.93-8.78h-1.25c-.53.05-1.05.08-1.55.08-1,0-1.92-.1-2.78-.3-1.06-.23-2.09-.65-3.08-1.25-.99-.61-1.56-1.56-1.71-2.85-.15-1.29.11-2.53.8-3.71.68-1.18,1.79-1.84,3.31-2,.46-.07.91-.11,1.37-.11h27.13c0-.91.04-1.82.11-2.74.08-.91.27-1.77.57-2.56.3-.8.74-1.52,1.31-2.17.57-.64,1.35-1.12,2.34-1.42.81-.3,1.6-.46,2.36-.46M277.98,213.74c1.96,0,3.73-.08,5.32-.24,1.9-.19,3.46-.55,4.67-1.08,1.21-.53,1.82-1.37,1.82-2.51,0-.99-.61-1.75-1.82-2.28-1.22-.53-2.78-.91-4.67-1.14-1.9-.23-4.07-.36-6.5-.4-2.43-.04-4.83-.06-7.18-.06s-4.81.02-7.12.06c-2.32.04-4.39.17-6.21.4-1.82.23-3.31.61-4.45,1.14-1.14.53-1.71,1.29-1.71,2.28,0,.84.57,1.5,1.71,2,1.14.49,2.62.87,4.45,1.14,1.82.27,3.89.44,6.21.51,2.32.07,4.69.11,7.12.11s4.75.02,7.18.06c.4,0,.79,0,1.18,0M298.69,119.35c-.79,0-1.61.05-2.42.14l-.13.02-.13.02c-2.5.36-4.78,1.19-6.76,2.48-2.15,1.41-3.83,3.18-5.01,5.3l-.11.19-.1.2c-.7,1.39-1.17,2.93-1.44,4.68-.19,1.22-.29,2.48-.29,3.72,0,.64.01,1.24.03,1.8-.02,0-.04,0-.07,0-1.38,0-2.7.05-3.92.15-2.18.18-4.2.7-6.01,1.56-2.33,1.1-4.28,2.78-5.79,4.98-1.32,1.93-2.19,4.19-2.68,6.93-.19,1.05-.26,2.04-.26,2.96l-10.39-.3c-.04-2.23-.05-4.26-.05-6.06,0-2.68.02-5.26.06-7.66.06-4.43-1.09-8.65-3.42-12.54l-.03-.05-.03-.05c-1.72-2.79-4.2-4.9-7.18-6.12-1.97-.8-4.02-1.2-6.1-1.2-.74,0-1.49.05-2.24.15-2.52.35-4.92,1.24-7.15,2.64-2.48,1.56-4.41,3.6-5.77,6.08-1.84,3.29-2.74,6.96-2.67,10.89.03,1.94.02,3.83-.05,5.61-.16,3.45-.2,7.13-.12,10.95.07,3.55.11,6.95.11,10.11,0,4.51,1.45,8.8,4.19,12.41,1.27,1.69,2.7,3.1,4.28,4.23-1.67,1.14-3.08,2.66-4.15,4.5-1.77,3.06-2.49,6.49-2.08,9.92.41,3.56,2.03,6.65,4.61,8.87-.15.99-.23,2.01-.23,3.05,0,5.55,2.01,10.41,5.82,14.06,2.96,2.84,6.8,4.99,11.41,6.39,3.79,1.15,8.18,1.94,13.05,2.34,4.43.36,9.19.55,14.15.55s9.72-.18,14.15-.55c4.87-.4,9.26-1.19,13.04-2.34,4.65-1.42,8.5-3.6,11.43-6.47,3.72-3.65,5.69-8.48,5.69-13.99,0-1.14-.09-2.26-.26-3.34,1.15-1.03,2.13-2.22,2.91-3.54,1.26-2.12,2.52-5.68,1.44-10.56l-.04-.2-.05-.19c-1.03-3.89-3.03-6.35-4.98-7.9.2-.32.39-.64.57-.98,1.04-1.92,1.71-3.95,1.98-6.04.12-.95.24-1.94.33-2.94l.03-.36v-.36c.08-4.12.12-8.38.12-12.67v-19.05c.08-1.13.1-2.47.05-4.06-.06-2.29-.3-4.1-.75-5.69-.73-2.76-2.18-5.33-4.31-7.64-1.89-2.09-4.34-3.56-7.28-4.37-1.62-.44-3.29-.67-5-.67h0Z"/>
      </g>
      <g>
        <path class="cls-1" d="M393.18,228.63c-1.03,0-2.08-.13-3.13-.38-2.07-.41-3.83-1.27-5.25-2.54-1.29-1.15-2.27-2.62-2.89-4.35-.42-1.18-.76-2.35-.99-3.47-.26-1.26-.39-2.38-.39-3.41v-74.56c0-1.29.09-2.61.28-3.9.2-1.36.49-2.66.89-3.84.54-1.64,1.37-3.02,2.46-4.11,1.54-1.54,3.26-2.51,5.14-2.9,1.25-.26,2.59-.39,3.98-.39,2.28,0,4.41.64,6.33,1.9,1.96,1.29,3.43,3.14,4.25,5.37.88,2.1,1.38,4.33,1.48,6.63l.23,5.27v.7c.16,5.85.19,11.95.12,18.14-.08,6.05-.11,11.9-.11,17.38v28.84c0,.59.01,1.18.05,1.77.05.96.03,1.92-.08,2.88l-.02.14-.02.14c-.13.79-.23,1.56-.29,2.28-.11,1.27-.38,2.55-.81,3.83l-.11.34s-.22.44-.24.49c-.14.41-.33.88-.59,1.4-.91,1.81-2.11,3.26-3.59,4.34l-.17.12-.18.11c-1.95,1.19-4.09,1.79-6.35,1.79ZM353.61,222.55c-1.65,0-3.3-.34-4.91-1.02-2.11-.9-3.71-2.39-4.61-4.32-1.54-3.1-2.32-6.55-2.32-10.26v-4.82c-.08-.97-.11-1.96-.11-2.94v-42.64c0-.64-.03-1.3-.08-1.97-.39.05-.8.07-1.21.07-.36,0-.72-.02-1.09-.06h-4.91c-.69.04-1.39.06-2.08.06-.75,0-1.49-.02-2.23-.07-.54-.03-1.09-.05-1.64-.05-.5,0-1,.01-1.5.04-.54.06-1.07.09-1.57.09-.31,0-.62-.01-.91-.04-.36-.03-.79-.04-1.26-.04-.98,0-2-.04-3.04-.13-1.8-.15-3.47-.75-4.96-1.8-1.97-1.4-3.32-3.2-4.04-5.36-.53-1.6-.81-3.28-.83-4.98-.09-2.19.36-4.38,1.34-6.5.7-1.63,1.68-2.92,2.93-3.83.83-.71,1.85-1.29,3.04-1.73.83-.3,1.58-.55,2.23-.74l.23-.06c1.93-.46,3.97-.71,6.06-.76,1.79-.04,3.53-.06,5.24-.06h20.22l.38.06c.88.14,1.85.26,2.88.37,1.55.16,3.01.52,4.35,1.07.93.36,1.84.83,2.7,1.4,1.07.72,1.98,1.59,2.72,2.61l.15.21c1.1,1.72,1.76,3.52,1.96,5.35.11,1.06.24,2.21.39,3.48v.12s.02.12.02.12c.16,2.25.24,4.5.24,6.68v43.72c0,.08.02.63.05,1.59.04,1.18.06,2.54.06,4.05v4.67c0,1.71-.04,3.25-.12,4.58l-.02.2c-.09.88-.22,1.81-.4,2.77-.23,1.25-.6,2.44-1.1,3.56-.59,1.31-1.41,2.5-2.44,3.53-1.1,1.1-2.47,1.97-4.08,2.6-1.88.77-3.81,1.15-5.73,1.15Z"/>
        <path class="cls-2" d="M393.28,129.77c1.29,0,2.49.36,3.59,1.08,1.1.72,1.88,1.73,2.34,3.02.68,1.6,1.06,3.27,1.14,5.02.08,1.75.15,3.5.23,5.24v.57c.15,5.85.19,11.86.11,18.01-.08,6.16-.11,11.97-.11,17.44v28.84c0,.68.02,1.37.06,2.05.04.68.02,1.37-.06,2.05-.15.91-.27,1.8-.34,2.68-.08.87-.27,1.77-.57,2.68-.15.3-.27.57-.34.8-.08.23-.19.49-.34.8-.53,1.06-1.22,1.9-2.05,2.51-1.17.71-2.42,1.06-3.75,1.06-.67,0-1.35-.09-2.06-.27-1.21-.23-2.21-.68-2.96-1.37-.68-.61-1.2-1.39-1.54-2.34-.34-.95-.61-1.88-.8-2.79-.19-.91-.29-1.71-.29-2.39v-74.56c0-1.06.08-2.13.23-3.19.15-1.06.38-2.05.68-2.96.3-.91.72-1.63,1.25-2.17.84-.84,1.71-1.35,2.62-1.54.91-.19,1.9-.29,2.96-.29M351.22,133.65c.99.15,2.03.29,3.13.4,1.1.11,2.11.36,3.02.74.61.23,1.2.53,1.77.91.57.38,1.04.84,1.43,1.37.68,1.07,1.08,2.13,1.2,3.19.11,1.06.25,2.24.4,3.53.15,2.13.23,4.24.23,6.33v43.72c0,.08.02.67.06,1.77.04,1.1.06,2.39.06,3.88v4.67c0,1.64-.04,3.06-.11,4.27-.08.76-.19,1.56-.34,2.39-.15.84-.4,1.63-.74,2.39-.34.76-.82,1.44-1.42,2.05-.61.61-1.41,1.1-2.39,1.48-1.29.53-2.58.8-3.88.8-.99,0-1.98-.21-2.96-.63-.99-.42-1.67-1.05-2.05-1.88-1.22-2.43-1.82-5.13-1.82-8.09v-5.02c-.08-.91-.11-1.82-.11-2.74v-42.64c0-1.21-.08-2.47-.23-3.76-.08-.38-.17-.91-.29-1.6-.11-.68-.36-1.1-.74-1.25-.33-.2-.7-.29-1.11-.29-.07,0-.14,0-.21,0-.17.01-.33.02-.49.02-.32,0-.63-.03-.93-.08-.27-.04-.53-.06-.78-.06s-.51.02-.76.06c-.25.04-.5.06-.76.06s-.52-.02-.78-.06h-5.36c-.65.04-1.29.06-1.94.06s-1.29-.02-1.94-.06c-.65-.04-1.29-.06-1.94-.06s-1.29.02-1.94.06c-.41.05-.78.08-1.14.08-.18,0-.35,0-.51-.02-.5-.04-1.05-.06-1.65-.06-.84,0-1.71-.04-2.62-.11-.91-.07-1.75-.38-2.51-.91-1.07-.76-1.79-1.71-2.17-2.85-.38-1.14-.57-2.32-.57-3.53-.08-1.44.23-2.89.91-4.33.38-.91.87-1.56,1.48-1.94.38-.38.93-.7,1.65-.97.72-.27,1.35-.47,1.88-.63,1.6-.38,3.27-.59,5.02-.63,1.75-.04,3.46-.06,5.13-.06h19.84M393.28,119.77c-1.73,0-3.41.17-4.99.49-2.86.6-5.43,2.03-7.66,4.26-1.65,1.65-2.88,3.7-3.68,6.09-.48,1.45-.85,3.04-1.09,4.7-.22,1.53-.33,3.08-.33,4.61v74.56c0,1.38.16,2.83.49,4.43.28,1.35.68,2.75,1.18,4.14.91,2.52,2.34,4.67,4.26,6.39,2.07,1.86,4.59,3.11,7.51,3.7,1.4.33,2.81.49,4.2.49,3.19,0,6.2-.85,8.95-2.52l.35-.22.34-.24c2.13-1.55,3.85-3.61,5.1-6.11v-.03s.03-.03.03-.03c.29-.6.54-1.15.73-1.7l.24-.48.23-.7c.55-1.65.9-3.32,1.04-4.96.05-.61.13-1.24.24-1.9l.05-.28.03-.29c.13-1.22.17-2.46.1-3.67-.03-.5-.04-1-.04-1.51v-28.84c0-5.46.04-11.28.11-17.32.08-6.22.04-12.37-.11-18.26v-.88s-.24-5.24-.24-5.24c-.12-2.85-.74-5.63-1.82-8.25-1.21-3.2-3.33-5.86-6.16-7.71-2.72-1.78-5.86-2.72-9.08-2.72h0ZM351.99,123.65h-20.61c-1.71,0-3.51.02-5.35.06-2.45.05-4.84.36-7.11.9l-.23.05-.22.06c-.78.22-1.62.5-2.57.85-1.71.63-3.2,1.48-4.46,2.53-1.46,1.11-3.15,2.9-4.36,5.68-1.29,2.81-1.89,5.72-1.78,8.67.03,2.21.39,4.37,1.08,6.45,1.05,3.14,3.07,5.85,5.85,7.83l.03.02.03.02c2.2,1.54,4.77,2.48,7.44,2.69,1.15.1,2.32.15,3.44.15.34,0,.65,0,.91.03.38.03.82.05,1.26.05.64,0,1.3-.04,1.97-.11.37-.02.74-.03,1.11-.03.45,0,.91.01,1.36.04.82.05,1.68.07,2.52.07.73,0,1.48-.02,2.21-.06h2.15v39.59c0,1.04.04,2.09.11,3.12v4.63c0,4.46.95,8.65,2.81,12.43,1.44,3.04,3.91,5.37,7.16,6.75,2.24.94,4.54,1.42,6.87,1.42,2.56,0,5.11-.51,7.58-1.51,2.24-.88,4.18-2.12,5.75-3.69,1.48-1.48,2.64-3.17,3.48-5.03.67-1.49,1.16-3.06,1.46-4.68v-.02s0-.02,0-.02c.2-1.09.35-2.15.45-3.15l.02-.2v-.2c.1-1.43.14-3.08.14-4.88v-4.67c0-1.57-.02-2.98-.06-4.21-.03-.81-.05-1.32-.05-1.53v-43.62c0-2.3-.09-4.67-.25-7.04l-.02-.24-.03-.23c-.15-1.25-.28-2.38-.38-3.41-.29-2.63-1.2-5.16-2.72-7.53l-.14-.22-.15-.21c-1.08-1.51-2.43-2.81-4-3.85-1.16-.77-2.38-1.41-3.64-1.89-1.76-.71-3.67-1.18-5.67-1.39-.96-.1-1.84-.21-2.63-.33l-.76-.12h0Z"/>
      </g>
    </g>
  </g>
</svg>