<?xml version="1.0" encoding="UTF-8"?>
<svg id="_레이어_2" data-name="레이어 2" xmlns="http://www.w3.org/2000/svg" viewBox="0 0 14.25 15.83">
  <defs>
    <style>
      .cls-1 {
        fill: #102770;
      }

      .cls-1, .cls-2, .cls-3, .cls-4, .cls-5 {
        stroke-width: 0px;
      }

      .cls-6 {
        opacity: .5;
      }

      .cls-2 {
        fill: #371a45;
      }

      .cls-7 {
        opacity: .3;
      }

      .cls-3 {
        fill: #f9195a;
      }

      .cls-4 {
        fill: #fce5e5;
      }

      .cls-5 {
        fill: #fff;
      }
    </style>
  </defs>
  <g id="_레이어_2-2" data-name=" 레이어 2">
    <g>
      <g>
        <path class="cls-3" d="M12.66,15.38c-.08,0-.15-.02-.22-.06l-2.8-1.64c-.16-.09-.34-.14-.52-.14-.09,0-.18.01-.26.03-.54.15-1.11.22-1.68.23h-.06c-3.63,0-6.62-2.95-6.68-6.57-.03-1.81.65-3.51,1.92-4.79C3.63,1.15,5.32.45,7.12.45c.04,0,.09,0,.13,0,3.64.07,6.58,3.09,6.55,6.73-.01,1.64-.62,3.2-1.72,4.42-.31.34-.36.84-.12,1.25l1.09,1.86c.1.18.07.4-.07.54-.09.09-.2.13-.32.13Z"/>
        <path class="cls-2" d="M7.12.89s.08,0,.12,0c3.39.07,6.14,2.89,6.11,6.28-.01,1.59-.62,3.03-1.6,4.12-.44.49-.51,1.21-.18,1.77l1.09,1.86-2.8-1.64c-.23-.13-.48-.2-.74-.2-.13,0-.25.02-.38.05-.5.13-1.02.21-1.56.21-.02,0-.04,0-.05,0-3.38,0-6.18-2.74-6.23-6.13C.84,3.74,3.65.89,7.12.89M7.12,0h0c-1.92,0-3.73.76-5.08,2.13C.7,3.5-.03,5.31,0,7.24c.06,3.87,3.26,7.01,7.12,7.01h.06c.6,0,1.21-.09,1.79-.24.05-.01.1-.02.14-.02.1,0,.2.03.29.08l2.8,1.64c.14.08.3.12.45.12.23,0,.46-.09.63-.26.29-.29.34-.73.14-1.08l-1.09-1.86c-.14-.23-.11-.53.07-.72,1.17-1.3,1.82-2.97,1.83-4.71C14.28,3.3,11.15.08,7.27,0c-.05,0-.09,0-.14,0h0Z"/>
      </g>
      <g class="cls-6">
        <path class="cls-5" d="M7.58,1.38c-3.53-.07-6.41,2.8-6.35,6.33.02,1.13.34,2.18.88,3.09-.74-1.01-1.19-2.24-1.21-3.58C.84,3.7,3.72.83,7.25.89c2.21.04,4.15,1.26,5.22,3.04-1.11-1.51-2.89-2.51-4.89-2.55Z"/>
      </g>
      <g class="cls-7">
        <path class="cls-1" d="M6.2,12.05c.54,0,1.06-.08,1.56-.21.05-.01.13-.02.23-.03.93-.06,1.76-.56,2.32-1.3.14-.18.3-.34.46-.52.99-1.09,1.59-2.54,1.6-4.12,0-1.12-.29-2.18-.8-3.09,1.11,1.14,1.8,2.7,1.78,4.4-.01,1.58-.61,3.01-1.59,4.1-.44.49-.53,1.21-.2,1.78l1.09,1.87-2.8-1.64c-.34-.2-.75-.25-1.13-.15-.5.13-1.02.21-1.56.21-2.34.02-4.41-1.28-5.49-3.2,1.15,1.18,2.75,1.91,4.51,1.89Z"/>
      </g>
      <path class="cls-5" d="M9.4,5.04h0c-.64-.64-1.67-.52-2.31.11l-.1.1-.1-.1c-.64-.64-1.67-.75-2.31-.11h0c-.64.64-.64,1.67,0,2.31l.1.1,2,2c.17.17.44.17.61,0l2-2,.1-.1c.64-.64.64-1.67,0-2.31Z"/>
      <g class="cls-6">
        <path class="cls-4" d="M9.19,5.92c-.2-.27-.58-.28-.69-.2-.11.08.08.23.28.5s.32.56.43.48c.11-.08.18-.51-.02-.78Z"/>
      </g>
      <g class="cls-6">
        <path class="cls-4" d="M7.97,5.36c-.01.08.04.15.12.18.07.03.16.01.21-.06.05-.07,0-.17-.1-.22-.11-.04-.21,0-.22.09Z"/>
      </g>
    </g>
  </g>
</svg>