<?xml version="1.0" encoding="UTF-8"?>
<svg id="_레이어_2" data-name="레이어 2" xmlns="http://www.w3.org/2000/svg" xmlns:xlink="http://www.w3.org/1999/xlink" viewBox="0 0 378.91 139.15">
  <defs>
    <style>
      .cls-1 {
        fill: #8cc0ff;
        stroke: #8cc0ff;
        stroke-miterlimit: 10;
      }

      .cls-2 {
        fill: url(#_무제_그라디언트_5);
      }

      .cls-2, .cls-3, .cls-4, .cls-5, .cls-6, .cls-7, .cls-8 {
        stroke-width: 0px;
      }

      .cls-3 {
        fill: url(#_무제_그라디언트_2);
      }

      .cls-4 {
        fill: url(#_무제_그라디언트_4-2);
      }

      .cls-5 {
        fill: url(#_무제_그라디언트_11);
      }

      .cls-6 {
        fill: url(#_무제_그라디언트_2-2);
      }

      .cls-7 {
        fill: url(#_무제_그라디언트_4);
      }

      .cls-8 {
        fill: url(#_무제_그라디언트_6);
      }
    </style>
    <linearGradient id="_무제_그라디언트_2" data-name="무제 그라디언트 2" x1="37.69" y1="201.08" x2="37.69" y2="171.58" gradientTransform="translate(-165.18 -23.86) rotate(90) scale(1 -1)" gradientUnits="userSpaceOnUse">
      <stop offset="0" stop-color="#ffc72b"/>
      <stop offset="1" stop-color="#ff8c2b"/>
    </linearGradient>
    <linearGradient id="_무제_그라디언트_2-2" data-name="무제 그라디언트 2" x1="150.29" y1="200.58" x2="150.29" y2="170.98" xlink:href="#_무제_그라디언트_2"/>
    <linearGradient id="_무제_그라디언트_4" data-name="무제 그라디언트 4" x1="162.89" y1="262.48" x2="133.96" y2="262.48" gradientTransform="translate(-165.18 -23.86) rotate(90) scale(1 -1)" gradientUnits="userSpaceOnUse">
      <stop offset="0" stop-color="#d3f4ff"/>
      <stop offset=".2" stop-color="#c0e1ff"/>
      <stop offset="1" stop-color="#96bcee"/>
    </linearGradient>
    <linearGradient id="_무제_그라디언트_4-2" data-name="무제 그라디언트 4" x1="-7533.89" x2="-7504.96" gradientTransform="translate(-165.18 -7504.96) rotate(-90)" xlink:href="#_무제_그라디언트_4"/>
    <linearGradient id="_무제_그라디언트_5" data-name="무제 그라디언트 5" x1="42.03" y1="384.09" x2="141.73" y2="384.09" gradientTransform="translate(-165.18 -23.86) rotate(90) scale(1 -1)" gradientUnits="userSpaceOnUse">
      <stop offset="0" stop-color="#96bcee"/>
      <stop offset=".3" stop-color="#badbfd"/>
      <stop offset=".5" stop-color="#d3f4ff"/>
      <stop offset=".7" stop-color="#c0e1ff"/>
      <stop offset="1" stop-color="#96bcee"/>
    </linearGradient>
    <linearGradient id="_무제_그라디언트_11" data-name="무제 그라디언트 11" x1="119.69" y1="230.22" x2="70.99" y2="230.22" gradientTransform="translate(-165.18 -23.86) rotate(90) scale(1 -1)" gradientUnits="userSpaceOnUse">
      <stop offset="0" stop-color="#d3f4ff"/>
      <stop offset=".59" stop-color="#c0e1ff"/>
      <stop offset="1" stop-color="#96bcee"/>
    </linearGradient>
    <linearGradient id="_무제_그라디언트_6" data-name="무제 그라디언트 6" x1="361.79" y1="49.11" x2="361.79" y2="86.93" gradientUnits="userSpaceOnUse">
      <stop offset="0" stop-color="#5a2da1"/>
      <stop offset="0" stop-color="#5e2d9e"/>
      <stop offset="0" stop-color="#8c3480"/>
      <stop offset=".2" stop-color="#b23967"/>
      <stop offset=".3" stop-color="#d03d53"/>
      <stop offset=".4" stop-color="#e54046"/>
      <stop offset=".5" stop-color="#f2423d"/>
      <stop offset=".5" stop-color="#f7433b"/>
      <stop offset=".6" stop-color="#f2423e"/>
      <stop offset=".7" stop-color="#e44047"/>
      <stop offset=".8" stop-color="#cd3d56"/>
      <stop offset=".8" stop-color="#ad386b"/>
      <stop offset=".9" stop-color="#843285"/>
      <stop offset="1" stop-color="#5a2da1"/>
    </linearGradient>
  </defs>
  <g id="_레이어_2-2" data-name=" 레이어 2">
    <g>
      <g>
        <path class="cls-3" d="M30.6,22.62C25.7,22.62.5,13.82.5,13.82c0,0,25.3-8.8,30.1-8.8s8.8,3.9,8.8,8.8-4,8.8-8.8,8.8Z"/>
        <path class="cls-6" d="M30.1,135.22c-4.9,0-30.1-8.8-30.1-8.8,0,0,25.3-8.8,30.1-8.8s8.8,3.9,8.8,8.8-4,8.8-8.8,8.8Z"/>
      </g>
      <g>
        <path class="cls-7" d="M147.8,111.02s-9.8,30.3-86.9,28c-7.8-.2-14.1-6.6-14.1-14.4h0c0-8,6.5-14.5,14.5-14.4l86.5.8h0Z"/>
        <path class="cls-4" d="M147.8,28.12S138.1-2.18,60.9.12c-7.8.2-14.1,6.6-14.1,14.4h0c0,8,6.5,14.5,14.5,14.4l86.5-.8h0Z"/>
      </g>
      <path class="cls-2" d="M59.01,88.57c0,10.4,7.3,19.5,17.5,21.5,24.2,4.8,52.8,7.7,83.5,7.8,108.83.5,218.9-38.3,218.9-49.1,0-13-109.67-50.1-218.5-50.6-30.7-.1-59.3,2.5-83.6,7.2-10.2,2-17.6,10.9-17.7,21.4l-.2,41.9h0l.1-.1h0Z"/>
      <path class="cls-5" d="M80.6,73.13h0c0,5.41-2.13,9.98-3.11,10.48l-25.88,12.17c-1.14.51-2.13-4.4-2.13-10.48v-27.56c0-6.26.99-11.16,2.13-10.48l25.88,15.56c.99.51,3.11,5.07,3.11,10.48v-.17Z"/>
      <g>
        <path class="cls-1" d="M337.54,47.2v41.63c24.72-8.3,39.96-16.19,39.96-20.21,0-4.84-15.23-13.03-39.96-21.43Z"/>
        <path class="cls-8" d="M344.68,49.11v37.82c21.34-7.59,34.23-14.59,34.23-18.31,0-4.48-12.89-11.79-34.23-19.51Z"/>
      </g>
    </g>
  </g>
</svg>