<?xml version="1.0" encoding="UTF-8"?>
<svg xmlns="http://www.w3.org/2000/svg" xmlns:xlink="http://www.w3.org/1999/xlink" viewBox="0 0 2131.83 4015.83">
  <defs>
    <style>
      .cls-1 {
        opacity: .4;
      }

      .cls-1, .cls-2, .cls-3, .cls-4, .cls-5, .cls-6, .cls-7, .cls-8 {
        stroke-width: 0px;
      }

      .cls-1, .cls-4 {
        mix-blend-mode: overlay;
      }

      .cls-1, .cls-4, .cls-7 {
        fill: #fff;
      }

      .cls-9 {
        opacity: .6;
      }

      .cls-10 {
        isolation: isolate;
      }

      .cls-11 {
        fill: none;
      }

      .cls-11, .cls-12 {
        stroke: url(#linear-gradient-2);
        stroke-miterlimit: 10;
        stroke-width: 2.76px;
      }

      .cls-13 {
        opacity: .35;
      }

      .cls-14 {
        filter: url(#drop-shadow-1);
      }

      .cls-2 {
        fill: #371a45;
      }

      .cls-3 {
        fill: #22a7f0;
      }

      .cls-4 {
        opacity: .5;
      }

      .cls-5 {
        fill: url(#radial-gradient-2);
      }

      .cls-6 {
        fill: url(#radial-gradient);
      }

      .cls-12 {
        fill: url(#linear-gradient);
      }

      .cls-8 {
        fill: #111a28;
      }
    </style>
    <filter id="drop-shadow-1" filterUnits="userSpaceOnUse">
      <feOffset dx="7" dy="7"/>
      <feGaussianBlur result="blur" stdDeviation="5"/>
      <feFlood flood-color="#000" flood-opacity=".3"/>
      <feComposite in2="blur" operator="in"/>
      <feComposite in="SourceGraphic"/>
    </filter>
    <linearGradient id="linear-gradient" x1="1.38" y1="1023.27" x2="2130.45" y2="1023.27" gradientUnits="userSpaceOnUse">
      <stop offset="0" stop-color="#ffef1f"/>
      <stop offset="1" stop-color="#ffac00"/>
    </linearGradient>
    <linearGradient id="linear-gradient-2" x1="319.83" y1="426.5" x2="1812.05" y2="1918.73" gradientUnits="userSpaceOnUse">
      <stop offset="0" stop-color="#fff9ba"/>
      <stop offset="1" stop-color="#f15400"/>
    </linearGradient>
    <radialGradient id="radial-gradient" cx="193.91" cy="742.77" fx="193.91" fy="742.77" r="185.39" gradientUnits="userSpaceOnUse">
      <stop offset=".08" stop-color="#fff"/>
      <stop offset="1" stop-color="#fff" stop-opacity="0"/>
    </radialGradient>
    <radialGradient id="radial-gradient-2" cx="1966.33" cy="928.16" fx="1966.33" fy="928.16" r="111.69" xlink:href="#radial-gradient"/>
  </defs>
  <g class="cls-10">
    <g id="_레이어_2" data-name="레이어 2">
      <g id="Layer_1" data-name="Layer 1">
        <g>
          <path class="cls-2" d="M1065.91,2717.74c-8.9,0-16.11-7.22-16.11-16.11v-865.91c0-8.9,7.22-16.11,16.11-16.11s16.11,7.21,16.11,16.11v865.91c0,8.9-7.22,16.11-16.11,16.11Z"/>
          <g>
            <path class="cls-7" d="M1061.57,3542.61c-136.71-.4-375.12-18.88-385.13-154.48-1.29-17.76-1.31-37.03-.16-57.23,7.46-134.1,64.84-308.87,121.46-348.3,32.33-22.5,89.4-25.51,150.92-14.68,122.25,21.52,262.21,97.55,261.03,183.54-1.08,82.76-11.42,391.54-148.12,391.14Z"/>
            <g class="cls-13">
              <path class="cls-2" d="M1061.57,3542.61c-136.71-.4-375.12-18.88-385.13-154.48-1.29-17.76-1.31-37.03-.16-57.23,36.67,30.97,90.14,6.42,97.75-29.61,46.95-222.42,133.29-305.39,174.64-333.37,122.25,21.52,262.21,97.55,261.03,183.54-1.08,82.76-11.42,391.54-148.12,391.14Z"/>
            </g>
            <path class="cls-2" d="M1061.84,3558.42h-.32c-177.22-.52-390.61-30.28-400.83-169.11-9.68-131.49,53.03-367.46,128.03-419.67,66.63-46.39,215.31-18.07,314.85,34.77,79.34,42.11,122.64,94.41,121.93,147.27-2.03,151.96-26,406.74-163.67,406.74ZM883.9,2977.96c-32.62,0-59.95,5.66-77.12,17.62h0c-59.92,41.71-124.16,261.19-114.57,391.41,8.89,120.75,235.26,139.44,369.4,139.83h.21c117.92.02,130.91-287.42,132.08-375.56.53-39.83-37.79-83.18-105.15-118.94-65.74-34.89-144.38-54.36-204.86-54.36ZM797.75,2982.61h.05-.05Z"/>
            <path class="cls-7" d="M797.21,3217.86l-52.91-23.13c-11.96-5.23-25.82,1.19-29.51,13.71-12.69,43.08-32.98,132.56,10.14,152.43,52.25,24.07,73.03-36.43,85.09-120.09,1.39-9.64-3.88-19.01-12.81-22.91Z"/>
            <g class="cls-13">
              <path class="cls-2" d="M810,3240.76c-12.05,83.66-32.84,144.19-85.08,120.09-21.46-9.86-27.21-37.02-25.99-67.09,4.12,8.76,10.22,15.65,18.95,19.66,46.78,21.54,68.36-24.71,80.97-94.72,7.94,4.23,12.47,13.04,11.14,22.05Z"/>
            </g>
            <path class="cls-2" d="M746.51,3379.39c-8.54,0-17.6-2.19-27.09-6.57-48.58-22.38-36.2-103.77-17.26-168.11,2.82-9.57,9.63-17.48,18.68-21.7,9.07-4.22,19.55-4.36,28.73-.35l52.92,23.12c14.34,6.27,22.79,21.43,20.57,36.86-11.15,77.31-27.28,116.49-53.96,130.99-7.05,3.83-14.59,5.75-22.58,5.75ZM735.6,3206.07c-1.57,0-2.85.44-3.64.81-1.3.61-3.61,2.09-4.55,5.28-16.97,57.62-25.09,123.8,3.01,136.75,15.7,7.23,23.52,3,26.08,1.6,26.46-14.38,37-87.56,40.47-111.62.54-3.75-1.53-7.44-5.05-8.97l-52.92-23.12c-1.23-.54-2.38-.73-3.42-.73Z"/>
          </g>
          <path class="cls-7" d="M1257.82,3860.95s64.41,66.75,8.7,117.94c-48.22,44.27-180.38,16.68-227.51-71.82-30.13-56.55.48-106.95,5.72-195.68,2.66-44.19-1.05-97.84-21.63-166.52-10.19-34.08-21.87-76.61-25.38-126.96l284.66,153.35s8.3,26.71,13.66,66.14c8.34,61.15,9.63,153.03-38.23,223.56Z"/>
          <g class="cls-13">
            <path class="cls-2" d="M1284.16,3954.88c-3.54,8.18-9.22,16.27-17.64,24.01-48.22,44.27-180.38,16.68-227.51-71.82-30.13-56.55.48-106.95,5.72-195.68,2.66-44.19-1.05-97.84-21.63-166.52-10.19-34.08-21.87-76.61-25.38-126.96l49.14,26.46,235.52,126.88s8.3,26.71,13.66,66.14c-32.9,41.21-78.32,71.62-138.48,80.48-57.1,8.41-99.02,60.15-90.06,117.16,1.81,11.49,5.43,22.86,11.62,34.49,41.05,77.1,146.62,107.95,205.03,85.35Z"/>
          </g>
          <path class="cls-2" d="M1201.37,4015.83c-10.33,0-21.16-.94-32.32-2.85-48.86-8.34-112.41-38.56-144.25-98.35-22.4-42.06-15.17-81.15-6.8-126.41,10.42-56.3,23.37-126.37-10.32-238.75-11.46-38.26-22.56-80.54-26.05-130.46l-2.04-29.18,316.21,170.34,1.95,6.27c2.24,7.19,52.53,172.78-20,293.22,10.91,14.22,28.47,42.09,27.53,73.29-.66,21.96-10.03,41.4-27.87,57.78-17.88,16.43-44.67,25.09-76.04,25.09ZM1016.9,3446.53c4.79,34.41,13.11,65.19,21.65,93.7,35.93,119.83,21.6,197.3,11.13,253.86-7.87,42.54-13.55,73.28,3.55,105.41,26.36,49.49,79.91,74.67,121.24,81.73,34.7,5.92,65.01.61,81.15-14.21,11.32-10.4,17.03-21.82,17.46-34.9.99-30.46-26.6-59.7-26.88-59.99l-8.99-9.4,7.28-10.8c65.29-96.28,32.55-238.56,24.24-269.73l-251.82-135.66Z"/>
          <path class="cls-2" d="M1207.04,3808.03c-89.6,0-167.35-47.45-171.64-50.12-4.94-3.07-6.46-9.56-3.39-14.5,3.07-4.94,9.56-6.46,14.5-3.4,1.3.8,131.18,79.89,241.25,30.43,5.3-2.38,11.53-.02,13.93,5.29,2.38,5.3.01,11.54-5.29,13.93-29.62,13.31-60.12,18.36-89.36,18.36Z"/>
          <path class="cls-7" d="M1502.16,3122.2s-15.06,16.52-35.41,47.69c-13.66,20.87-29.65,48.26-45.07,81.69-21.51,46.56-41.93,104.77-53.33,173.21-5.36,32.02-14.54,64.33-28.12,94.42-40.97,91.16-121.97,161.77-257.52,142.03-179.69-26.14-288.57-160.48-271.65-310.69,3.18-28.28,8.7-55.91,16.64-82.74,6.04-20.54,13.53-40.6,22.48-60.18,18.37-40.24,42.86-78.35,73.79-113.91,26.5-30.49,57.8-59.13,94.02-85.72,32.31-23.64,68.6-45.68,108.96-65.86,25.78-12.89,53.25-25.05,82.41-36.41,41.93-16.31,292.8,216.47,292.8,216.47Z"/>
          <g class="cls-13">
            <path class="cls-2" d="M1359.81,3460.31c.81-1.77,1.57-3.54,2.34-5.32-5.36,21.91-12.61,43.58-21.91,64.21-40.97,91.16-121.97,161.77-257.52,142.03-179.69-26.14-288.57-160.48-271.65-310.69,4.95-43.99,15.51-86.32,32.02-126.56-5.72,22.07-9.87,44.63-12.45,67.67-16.92,150.21,91.96,284.54,271.65,310.69,135.54,19.74,216.55-50.87,257.52-142.03Z"/>
          </g>
          <path class="cls-2" d="M1127.21,3680.7c-14.9,0-30.47-1.13-46.8-3.51-183.77-26.74-303.78-164.87-285.37-328.43,23.02-204.58,164.27-362.96,408.47-458.02,12.24-4.76,35.02-13.62,178.24,104.7,67.54,55.81,130.75,114.37,131.38,114.96l11.72,10.87-10.76,11.79c-.99,1.09-99.2,110.91-129.85,294.41-21.17,126.73-99.78,253.22-257.02,253.24ZM1214.51,2921.03c-235.21,91.74-365.56,236.86-387.45,431.33-16.39,145.6,92.11,268.8,257.99,292.94,208.53,30.31,257.37-163.13,267.39-223.15,26.63-159.39,100.1-264.01,127.49-298.48-20.36-18.56-65.62-59.31-113.83-99.35-118.95-98.8-147.41-103.29-151.57-103.29h-.02Z"/>
          <path class="cls-7" d="M1092.45,3589.02s23.92,180.34-73.29,281.37c0,0,52.19,76.68-11.4,117.69-55.01,35.48-180.58-14.11-212.05-109.32-30.11-91.12,71.73-145.6,45.69-359.67-4.29-35.3-8.6-79.21-3.53-129.43l254.57,199.36Z"/>
          <g class="cls-13">
            <path class="cls-2" d="M1028.14,3969.06c-4.83,6.85-11.48,13.29-20.38,19.01-54.98,35.49-180.58-14.1-212.04-109.32-30.13-91.12,71.74-145.57,45.68-359.67-1.77-14.62-3.54-30.73-4.63-48.14,109.2,204.18-14.34,291.79,14.1,377.75,25.9,78.43,115.69,125.92,177.28,120.36Z"/>
          </g>
          <path class="cls-2" d="M1097.78,3588.32c11.15,24.62,13.7,50.52,13.37,76.29-.08,25.82-3.98,51.61-10.06,76.89-6.25,25.24-14.05,50.33-25.44,74.21-5.63,11.96-12.34,23.46-19.69,34.59-7.47,11.07-16,21.46-25.18,31.28l1.71-20.24c1.81,2.74,2.97,4.72,4.31,7.07,1.29,2.26,2.49,4.54,3.65,6.84,2.31,4.6,4.41,9.31,6.28,14.15,3.74,9.67,6.59,19.91,7.93,30.75,1.28,10.81,1.09,22.36-1.99,33.69-2.87,11.35-8.77,22.11-16.38,30.8-3.76,4.41-7.99,8.2-12.35,11.69-2.19,1.73-4.48,3.21-6.72,4.81-2.36,1.54-5.02,2.98-7.54,4.41-10.41,5.23-21.36,8-32.05,9.26-21.47,2.44-42.08-.68-61.44-6.35-38.64-11.6-73.51-33.51-100.36-63.81-6.65-7.63-12.72-15.79-18.2-24.4-5.39-8.67-10-17.86-13.89-27.39-3.74-9.47-6.76-19.81-8.36-30.36-1.67-10.56-1.73-21.39-.62-31.78,2.21-20.9,8.56-39.78,14.88-57.53,6.42-17.8,12.95-34.82,18.53-52.02,11.25-34.26,18.28-69.3,20.47-105.08,1.09-17.86,1.31-35.84.3-53.84-.47-8.99-1.09-18-2.01-26.99l-1.43-13.49c-.27-2.11-.62-3.74-.89-5.64-.4-1.87-.9-3.79-1.37-5.67-4.21-15.51-14.55-31.65-20.06-50.98-2.83-9.6-4.86-19.89-4.58-30.43.38-10.5,2.67-21.08,8.09-30.32,1.65-2.81,5.27-3.75,8.08-2.1,1.15.68,1.99,1.69,2.47,2.84l.14.34c3.82,9.26,6.47,17.33,9.38,25.23,2.79,7.87,5.72,15.57,8.76,23.56,3.12,7.95,6.31,16.22,9.48,25.05,3.19,8.82,6.56,18.08,9.36,28.29.6,2.63,1.3,5.2,1.85,7.87.44,2.69.98,5.62,1.29,8.11l1.5,14.2c.96,9.47,1.63,19,2.12,28.54,1.07,19.08.85,38.3-.33,57.48-2.31,38.37-10.04,76.7-21.98,112.98-5.89,18.13-12.67,35.78-18.84,52.91-6.15,17.14-11.51,33.85-13.16,49.97-1.88,16.18.77,31.47,6.87,46.94,3.15,7.65,6.86,15.11,11.28,22.21,4.5,7.05,9.52,13.82,15.07,20.19,22.35,25.36,52.8,44.52,85.24,54.17,16.16,4.8,33.08,7.09,48.58,5.27,7.72-.9,15-2.87,21.21-5.98,1.48-.91,2.93-1.63,4.46-2.62,1.52-1.11,3.14-2.14,4.59-3.29,2.87-2.32,5.6-4.74,7.85-7.41,9.32-10.43,12.58-24.17,10.71-39.46-.93-7.59-3.04-15.39-6-23.02-1.47-3.82-3.15-7.6-5.01-11.29-.94-1.84-1.89-3.67-2.9-5.44-.95-1.69-2.17-3.7-2.91-4.83l-7.11-10.76,8.82-9.48c7.84-8.43,15.21-17.35,21.7-26.98,6.39-9.7,12.3-19.78,17.3-30.41,10.07-21.21,17.56-43.95,22.04-67.44,4.43-23.51,6.78-47.41,9.08-71.43,2-24.07,3.85-48.24,9.45-73.23l.07-.33c.68-3.02,3.67-4.92,6.69-4.24,1.77.4,3.17,1.62,3.88,3.16Z"/>
          <path class="cls-2" d="M1017.76,3813.1c-106.64,0-196.02-78.1-200.34-81.93-4.35-3.86-4.75-10.51-.89-14.86,3.87-4.35,10.52-4.75,14.87-.89,1.15,1.01,115.8,100.96,232.61,70.86,5.59-1.43,11.37,1.94,12.83,7.57,1.45,5.63-1.94,11.38-7.57,12.83-17.42,4.49-34.68,6.43-51.5,6.43Z"/>
          <g class="cls-13">
            <path class="cls-2" d="M1057.74,3401.87c-169.18-46.24-223.4-120.36-223.4-120.36,0,0-3.91-5.12-6.65-13.7,6.04-20.54,13.53-40.6,22.48-60.18,8.14-4.63,15.19-6.08,15.19-6.08,51.72,96.55,211.51,123.94,211.51,123.94,37.38,48.3-19.13,76.37-19.13,76.37Z"/>
          </g>
          <path class="cls-7" d="M1139.55,2945.73l-110.05,89.67-82.5,67.19c-7.41-2.22-15.15-5.16-23.04-8.86-111.98-52-263.48-244.59-251.92-382.43,2.26-26.79,32.63-84.35,51.56-100.82,82.33-71.7,104.17,63.16,107.19,64.21,3.06,1.01,28.04-55.02,60.38-33.39,25.42,17,2.05,101.23,2.05,101.23,0,0,32.06,73.83,110.45,135.34,32.67,25.66,73.39,49.18,123.26,64.29,4.15,1.25,8.34,2.46,12.61,3.59Z"/>
          <g class="cls-13">
            <path class="cls-2" d="M947.01,3102.58h0c-7.41-2.22-15.15-5.16-23.04-8.86-111.98-52-263.48-244.59-251.92-382.43,2.26-26.79,32.63-84.35,51.56-100.82,14.94-13.01,27.87-19.21,39.07-20.62-17.97,23.64-38.99,66.7-40.84,88.82-9.93,118.46,123.3,300.65,222.72,366.69,19.91,13.22,20.98,42.13,2.45,57.22Z"/>
          </g>
          <path class="cls-2" d="M945.53,3107.62c-10.82-.13-21.67-2.1-31.75-5.51-10.3-3.11-19.89-7.71-29.16-12.77-18.32-10.46-35.23-22.9-50.73-36.72-15.54-13.8-29.65-28.96-43.5-44.21-13.68-15.42-26.92-31.2-39.27-47.67-24.59-33-46.58-68.13-63.75-106.03-16.96-37.82-30.05-78.54-31.52-121.95-.06-2.71-.2-5.41-.19-8.12l.35-8.18.19-4.09c.05-1.34.1-2.69.37-4.39l.67-4.81.96-4.36c2.71-11.45,6.59-21.38,10.83-31.19,8.73-19.48,18.52-37.71,31.87-55.48,3.37-4.44,7.19-8.89,12.13-13.42,4.4-3.61,8.55-7.19,13.47-10.39,9.52-6.43,20.71-12.3,34.44-14.18,13.7-2.01,29.39,2.6,39.67,10.9,5.37,3.98,9.77,8.57,13.51,13.29,3.87,4.71,6.92,9.63,9.81,14.56,5.58,9.91,9.81,20.01,13.34,30.12,1.76,5.05,3.36,10.12,4.83,15.11l2.09,7.24.72,2.38-.08-.17-.05-.08c.05.19.1.03-1-1.8-1.68-2.75-4.9-5.12-7.74-5.94-1.91-.75-5.27-1.26-8.09-.63-3.23.7-5.17,2.09-4.92,1.9-.82.47-1.6,1.06-2.28,1.72l-.44.42-.26.31.09-.12c.62-.79,2.29-3.25,3.68-5.28,1.47-2.15,3.03-4.37,4.66-6.59,3.31-4.45,6.88-8.93,11.16-13.24,4.24-4.3,9.16-8.52,15.42-12,6.12-3.47,14.24-6.06,22.7-5.67,8.47.38,16.27,3.59,22.13,7.55,8.15,5.6,12.33,13.44,14.67,19.93,4.45,13.27,4.37,24.6,4.12,35.67-.42,11.02-1.76,21.58-3.52,31.99-1.81,10.48-3.91,20.42-6.73,31.01l-.73-10.52c2.4,5.13,5.52,11.23,8.73,16.79,3.14,5.71,6.67,11.25,10.14,16.83,3.59,5.5,7.33,10.93,11.1,16.33,4,5.24,7.81,10.62,11.96,15.75,16.38,20.67,34.92,39.63,55.22,56.36l7.54,6.37c2.59,2.02,5.3,3.89,7.93,5.85,5.35,3.81,10.52,7.9,16.01,11.5,11.2,6.87,22.43,13.7,34.48,18.92,5.95,2.73,11.57,6.12,17.57,8.75,5.98,2.67,11.82,5.64,17.66,8.76,5.72,3.44,11.73,6.19,17.55,9.73,5.81,3.6,11.63,7.41,17.26,12.5l.46.42c2.3,2.08,2.49,5.63.41,7.94-.96,1.07-2.25,1.68-3.58,1.82-29.72,3.16-57.92-6.13-82.85-20.04-24.98-14.02-48.78-30-70.68-48.25-22-18.15-42.01-38.63-59.7-60.93-4.47-5.54-8.6-11.34-12.91-17.01-4.09-5.83-8.12-11.71-12.02-17.68-3.78-6.06-7.61-12.09-11.09-18.39-3.62-6.33-6.8-12.41-10.19-19.72l-2.21-4.79,1.48-5.73c4.67-18.02,8.38-37.65,9.12-55.72.36-8.91-.2-18.07-2.31-23.9-1.03-2.9-2.25-4.09-2.44-4.25-2.47-1.63-4.37-2.14-5.95-2.26-1.59-.04-3.5.31-6.08,1.76-2.54,1.39-5.41,3.68-8.19,6.53-2.81,2.82-5.54,6.19-8.22,9.8l-4.04,5.71c-1.47,2.1-2.54,3.85-4.98,7.04l-.49.62-.89,1.01c-.37.39-.48.54-1.08,1.11-.92.85-1.95,1.63-3.01,2.3.14-.07-1.96,1.36-5.34,2.08-2.96.65-6.49.21-8.54-.57-3.02-1.07-6.43-3.7-8.29-6.7-1.2-1.96-1.21-2.26-1.21-2.22l-.22-.52-.42-1.05-.38-1.04-.18-.58-.37-1.15-.61-2.03-2.09-7.23c-1.36-4.65-2.79-9.16-4.34-13.59-3.08-8.85-6.7-17.32-10.98-24.92-4.31-7.46-9.36-14.27-14.84-18.21-2.69-2.14-5.42-3.41-8.15-4.19-2.7-.93-5.58-.86-8.68-.61-6.26.83-13.55,4.15-20.55,8.96-3.53,2.25-6.98,5.27-10.37,8-2.43,2.29-5.28,5.39-7.96,8.97-10.83,14.33-20.31,31.67-27.93,48.83-3.75,8.59-7.1,17.49-8.99,25.61l-.67,2.99-.36,2.65c-.17.78-.21,1.94-.25,3.11l-.15,3.43-.32,6.87c0,2.3.13,4.62.18,6.93,1.18,37.14,12.84,74.57,28.7,109.78,16,35.34,36.86,68.73,60.23,100.1,23.35,31.44,50.54,60.06,80.03,85.28,14.65,12.7,29.48,25.07,44.93,36.37l23.14,17.08c7.76,5.86,15.79,10.94,24.05,17.05l.32.24c2.43,1.8,2.94,5.22,1.14,7.65-1.08,1.46-2.77,2.22-4.46,2.22Z"/>
          <g>
            <g class="cls-13">
              <path class="cls-2" d="M1466.75,3169.89c20.34-31.18,35.41-47.69,35.41-47.69,0,0-250.87-232.78-292.8-216.47-29.16,11.36-56.63,23.52-82.41,36.41-49.87-15.11-90.59-38.63-123.26-64.29-5.32,44.19-.48,88.82,14.3,130.15,3.3,9.3,7.17,18.45,11.52,27.39,4.19,8.66,8.86,17.12,14.02,25.34,33.72,53.78,88.42,113.15,176.27,153.59,24.33,11.2,48.1,19.5,71.1,25.46,45.35,11.79,87.63,14.44,125.24,12.12,9.54-20.48,25.55-46.06,50.59-63.18-.23-6.53-.25-12.84.04-18.82Z"/>
            </g>
            <g>
              <g>
                <path class="cls-7" d="M1743.58,3072.75h0c-4.16-1.65-6.19-6.36-4.53-10.52l86.21-216.8c1.65-4.16,6.36-6.19,10.52-4.53h0c43.61,17.34,64.9,66.75,47.56,110.36l-29.4,73.93c-17.34,43.61-66.75,64.9-110.36,47.56Z"/>
                <path class="cls-2" d="M1774.87,3080.64c-10.66,0-21.49-1.97-31.99-6.15h0c-5.11-2.04-7.62-7.85-5.58-12.97l86.21-216.79c.98-2.48,2.87-4.43,5.32-5.48,2.45-1.05,5.17-1.09,7.64-.11,21.56,8.57,38.49,25.02,47.68,46.33,9.18,21.31,9.52,44.91.94,66.47l-29.39,73.93c-13.52,34.01-46.26,54.77-80.82,54.77ZM1744.27,3071c42.58,16.92,90.99-3.94,107.92-46.51l29.39-73.93c8.2-20.62,7.88-43.21-.9-63.59-8.79-20.38-24.99-36.12-45.61-44.33-1.55-.61-3.23-.58-4.76.07-1.52.66-2.7,1.87-3.32,3.41l-86.21,216.8c-1.26,3.19.29,6.81,3.48,8.08h0Z"/>
              </g>
              <g class="cls-13">
                <path class="cls-2" d="M1867.72,2990.51l-13.78,34.68c-17.34,43.59-66.75,64.9-110.37,47.57-4.16-1.65-6.18-6.38-4.53-10.54l22.9-57.64c.12,3.09,2.03,5.95,5.07,7.19l5.15,2.03c34.46,13.71,72.57,3.28,95.57-23.29Z"/>
              </g>
              <path class="cls-2" d="M1774.86,3091.56c-12,0-24.19-2.23-36.01-6.92h0c-10.7-4.26-15.94-16.44-11.68-27.13l86.21-216.8c2.06-5.18,6.02-9.26,11.14-11.47,5.13-2.21,10.81-2.28,15.98-.23,24.27,9.65,43.33,28.17,53.66,52.16,10.34,23.98,10.72,50.55,1.06,74.82l-29.39,73.93c-15.22,38.28-52.08,61.65-90.97,61.65ZM1752.72,3062.45c35.89,11.66,75.21-6.48,89.34-42l29.39-73.93c7.12-17.92,6.85-37.53-.79-55.24-7.01-16.26-19.45-29.12-35.31-36.63l-82.63,207.8ZM1748.31,3060.86h0,0Z"/>
              <g>
                <path class="cls-7" d="M1120.16,2556.35h0c4.16,1.65,6.19,6.36,4.53,10.52l-86.21,216.8c-1.65,4.16-6.36,6.19-10.52,4.53h0c-43.61-17.34-64.9-66.75-47.56-110.36l29.4-73.93c17.34-43.61,66.75-64.9,110.36-47.56Z"/>
                <path class="cls-2" d="M1030.95,2790.66c-1.23,0-2.47-.22-3.68-.71-44.5-17.7-66.31-68.3-48.61-112.8l29.39-73.93c17.7-44.52,68.31-66.32,112.8-48.62,2.48.98,4.42,2.88,5.48,5.32,1.05,2.45,1.09,5.16.11,7.64l-86.2,216.8c-1.56,3.91-5.32,6.29-9.29,6.29ZM1088.75,2552.17c-11.16,0-22.31,2.28-32.87,6.83-20.38,8.79-36.12,24.99-44.33,45.61l-29.39,73.93c-16.93,42.58,3.94,90.99,46.51,107.92,3.17,1.26,6.81-.29,8.08-3.48l86.2-216.8c.62-1.54.59-3.23-.07-4.76-.65-1.52-1.87-2.7-3.41-3.32h0c-9.94-3.95-20.34-5.93-30.72-5.93Z"/>
              </g>
              <g class="cls-13">
                <path class="cls-2" d="M1062.42,2723.53l-23.92,60.14c-1.65,4.16-6.38,6.18-10.54,4.53-22.88-9.11-39.65-27.05-47.88-48.37-7.43-19.25-7.9-41.27.33-61.97l12.39-31.15c1.51,32.25,21.52,62.26,53.49,74.98l7.91,3.14c2.89,1.14,5.98.52,8.22-1.3Z"/>
              </g>
              <path class="cls-2" d="M1030.94,2801.56c-2.57,0-5.17-.47-7.7-1.48-24.27-9.65-43.32-28.17-53.66-52.15-10.34-23.98-10.71-50.55-1.06-74.82l29.39-73.93c19.92-50.09,76.88-74.62,126.97-54.73h0s0,0,0,0h0c5.19,2.06,9.26,6.02,11.46,11.14,2.21,5.13,2.29,10.81.22,15.99l-86.2,216.8c-3.26,8.18-11.13,13.17-19.44,13.17ZM1088.85,2563.12c-28.71,0-55.92,17.25-67.16,45.52l-29.39,73.93c-7.12,17.92-6.84,37.53.79,55.24,7.01,16.26,19.45,29.13,35.32,36.64l82.62-207.8c-7.32-2.38-14.79-3.52-22.17-3.52Z"/>
              <g>
                <circle class="cls-7" cx="1431.92" cy="2814.56" r="397.58"/>
                <path class="cls-2" d="M1431.61,3214.24c-59.29,0-118.27-13.36-173.25-39.88-96.1-46.36-168.4-127.36-203.58-228.1-35.18-100.74-29.01-209.14,17.34-305.24,46.36-96.1,127.36-168.4,228.1-203.58,100.73-35.18,209.14-29.01,305.24,17.34,198.38,95.69,281.93,334.95,186.24,533.34h0c-46.36,96.1-127.36,168.4-228.1,203.58-43.11,15.05-87.64,22.54-132,22.54ZM1432.22,2418.66c-43.95,0-88.04,7.41-130.76,22.33-99.79,34.85-180.03,106.46-225.95,201.66-45.92,95.2-52.02,202.58-17.18,302.37,34.84,99.79,106.46,180.03,201.66,225.95,95.2,45.92,202.57,52.02,302.37,17.18,99.79-34.84,180.03-106.46,225.95-201.66l1.69.82-1.69-.82c94.79-196.53,12.03-433.53-184.48-528.32-54.45-26.26-112.9-39.5-171.61-39.5Z"/>
              </g>
              <g class="cls-13">
                <path class="cls-2" d="M1810.49,2936.07c-5.53,17.29-12.36,34.4-20.47,51.23-95.42,197.75-333.07,280.74-530.85,185.36-197.75-95.42-280.74-333.07-185.36-530.85,2.74-5.69,5.62-11.32,8.59-16.79-59.94,185.96,24.89,392.32,205.84,479.61,192.08,92.64,421.75,17.02,522.25-168.57Z"/>
              </g>
              <path class="cls-2" d="M1431.6,3228.16c-61.35,0-122.39-13.83-179.28-41.27-99.45-47.97-174.27-131.8-210.67-236.04-36.4-104.25-30.02-216.43,17.95-315.88,47.97-99.45,131.8-174.27,236.04-210.67,104.25-36.41,216.43-30.03,315.88,17.94,205.3,99.03,291.76,346.62,192.72,551.93h0c-47.97,99.45-131.8,174.27-236.04,210.67-44.61,15.58-90.7,23.33-136.6,23.33ZM1432.21,2432.59c-42.4,0-84.94,7.15-126.15,21.54-96.28,33.62-173.7,102.72-218.01,194.57-44.31,91.85-50.19,195.45-16.57,291.73,33.62,96.28,102.72,173.7,194.57,218.01,189.59,91.46,418.27,11.61,509.74-177.99,91.46-189.61,11.61-418.28-178-509.74-52.53-25.34-108.92-38.12-165.58-38.12ZM1790.01,2987.3h.05-.05Z"/>
              <path class="cls-2" d="M1784.43,2995.95c-32.74,70.58-86.04,125.47-150.37,161.51-48.23,27.02-201.98,42.13-351.71-25.7-138.83-62.89-230.43-194.96-240.95-249.23-14.03-72.39-6.55-148.54,26.19-219.12,86.64-186.77,283.02-189.76,480.98-97.92,197.96,91.83,322.51,243.69,235.87,430.46Z"/>
              <path class="cls-2" d="M1505.54,3190.94c-65.47,0-145.97-12.7-227.52-49.64-143.9-65.19-235.86-199.77-246.92-256.79-14.97-77.22-5.64-155.2,26.97-225.52,42.52-91.67,112.07-145.29,206.71-159.39,82.51-12.3,182.18,7.2,288.18,56.37,106,49.17,185.24,112.67,229.16,183.62,50.35,81.36,54.33,169.09,11.81,260.75h0c-32.62,70.31-86.13,127.8-154.76,166.24-23.15,12.97-71.66,24.35-133.63,24.35ZM1313.45,2516.95c-91.04,0-182.61,35.01-236.36,150.87-30.75,66.29-39.54,139.84-25.41,212.71,10.03,51.73,99.58,180.34,234.99,241.68,150.07,67.99,299.27,50.18,342.26,26.1,64.76-36.27,115.24-90.49,145.99-156.78,106.63-229.87-125.86-367.88-230.77-416.54-52.03-24.14-141.11-58.04-230.7-58.04ZM1784.43,2995.94h.05-.05Z"/>
              <g class="cls-9">
                <ellipse class="cls-7" cx="1679.71" cy="2916.54" rx="70.36" ry="50.98" transform="translate(-1671.99 2610.46) rotate(-54.84)"/>
              </g>
              <g class="cls-9">
                <ellipse class="cls-7" cx="1564.4" cy="3016.69" rx="32.29" ry="27.71" transform="translate(-1707.2 2097.8) rotate(-46.9)"/>
              </g>
              <g class="cls-13">
                <path class="cls-8" d="M1795.54,2789.37c24.42,62.14,23.67,131.54-11.11,206.56-32.75,70.59-86.06,125.48-150.37,161.53-48.24,27.01-202,42.12-351.73-25.69-52.87-23.94-98.87-57.91-136.17-93.83,185.84,79.44,373.43,60.37,433.24,26.86,81.65-45.74,149.31-115.42,190.84-204.98,11.12-23.93,19.45-47.43,25.3-70.44Z"/>
              </g>
              <path class="cls-2" d="M1829.59,2831.03c-4.25,0-8.43-2.06-10.97-5.86-.44-.67-.86-1.44-1.18-2.18l-.58-1.33-.26-1.43c-21.05-112.39-115.16-214.91-258.19-281.26-143.8-66.7-283.44-70.73-383.12-11.02l-1.32.69c-6.14,2.84-13.53.56-16.95-5.42-3.61-6.31-1.42-14.35,4.9-17.96.03-.02.07-.04.11-.06,107.26-64.08,255.75-60.49,407.47,9.89,150.53,69.84,249.93,178.99,272.85,299.56,1.33,5.26-.7,11.01-5.46,14.19-2.25,1.49-4.79,2.21-7.29,2.21ZM1829.55,2817.8h.05-.05Z"/>
              <g class="cls-9">
                <path class="cls-7" d="M1096.54,2811.86s27.62-211.08,160.98-238.44c133.36-27.36,276.08,39.21,268.49,46.82,0,0-175.92-35.08-295.8,61.25-92.44,74.28-133.67,130.37-133.67,130.37Z"/>
              </g>
            </g>
          </g>
          <path class="cls-2" d="M747.81,2932.2c-4.8,0-7.6-.18-7.8-.2-7.26-.53-12.7-6.84-12.17-14.09.53-7.25,6.79-12.65,14.08-12.17,5.56.39,136.66,8.23,174.61-108.66,2.24-6.92,9.67-10.71,16.59-8.46,6.91,2.25,10.7,9.67,8.46,16.59-38.64,118.97-161.52,126.99-193.77,126.99Z"/>
          <g class="cls-13">
            <path class="cls-2" d="M1368.35,3424.79c8.22-49.34,21.11-93.37,35.77-131.52-6.36,22.72-11.92,46.93-16.19,72.63-5.04,30.13-13.49,60.54-25.78,89.1,2.46-10.03,4.51-20.14,6.2-30.21Z"/>
          </g>
          <circle class="cls-7" cx="1379.01" cy="3404.69" r="43.57" transform="translate(-2003.58 1972.32) rotate(-45)"/>
          <g class="cls-13">
            <path class="cls-2" d="M1420.31,3418.55c-7.66,22.81-32.36,35.12-55.17,27.46-22.81-7.66-35.11-32.39-27.45-55.2,2.12-6.3,5.54-11.83,9.9-16.32,1.95,16.18,12.94,30.64,29.42,36.18,16.48,5.53,33.97.63,45.26-11.1.76,6.21.16,12.69-1.96,18.99Z"/>
          </g>
          <path class="cls-2" d="M1379.06,3461.46c-6.08,0-12.18-.99-18.11-2.98-14.37-4.82-26-14.96-32.74-28.53-6.75-13.57-7.81-28.96-2.98-43.33,4.82-14.37,14.96-25.99,28.53-32.74,13.57-6.75,28.96-7.81,43.33-2.98,14.37,4.82,25.99,14.96,32.74,28.53,6.75,13.57,7.81,28.95,2.98,43.32-4.82,14.37-14.96,26-28.53,32.74-7.97,3.96-16.56,5.97-25.21,5.97ZM1378.98,3374.27c-4.63,0-9.24,1.07-13.51,3.2-7.27,3.61-12.7,9.85-15.29,17.54-2.58,7.7-2.02,15.94,1.6,23.22,3.61,7.27,9.85,12.7,17.54,15.29,7.7,2.57,15.94,2.01,23.22-1.6,7.27-3.61,12.7-9.85,15.29-17.54,2.58-7.7,2.02-15.95-1.6-23.22-3.61-7.27-9.85-12.7-17.54-15.29-3.18-1.06-6.45-1.6-9.71-1.6Z"/>
          <path class="cls-7" d="M1301.54,3492.69l-222.33-60.24c-26.32-7.12-42.03-34.5-34.9-60.85l32.06-118.31c6.25-23.07,28.02-37.96,51.02-36.52,3.26.18,6.55.74,9.83,1.62l222.29,60.23c26.35,7.13,42.07,34.51,34.9,60.85l-25.37,93.71-6.66,24.61c-7.13,26.35-34.53,42.02-60.85,34.9Z"/>
          <g class="cls-13">
            <path class="cls-2" d="M1301.54,3492.69l-222.33-60.24c-26.32-7.12-42.03-34.5-34.9-60.85l32.06-118.31c6.25-23.07,28.02-37.96,51.02-36.52,10.35,11.8,16.92,19.34,16.92,19.34-14.91,97.9-.69,152.58,116.71,186.46,50.68,14.61,84.92,15.55,108.02,10.6l-6.66,24.61c-7.13,26.35-34.53,42.02-60.85,34.9Z"/>
          </g>
          <path class="cls-2" d="M1314.49,3507.6c-5.42,0-10.92-.7-16.4-2.19l-222.31-60.23c-33.4-9.05-53.22-43.59-44.17-76.99l32.06-118.33c9.05-33.4,43.57-53.2,77-44.17l222.31,60.23c33.4,9.05,53.22,43.59,44.17,77l-32.06,118.33c-7.57,27.93-32.96,46.36-60.6,46.36ZM1082.66,3419.76l222.31,60.23c19.36,5.27,39.44-6.24,44.69-25.63l32.06-118.33c5.25-19.39-6.25-39.44-25.63-44.69l-222.31-60.23c-19.36-5.23-39.44,6.25-44.69,25.64l-32.06,118.33c-2.53,9.34-1.25,19.15,3.61,27.62,4.86,8.48,12.68,14.54,22.02,17.07h0Z"/>
          <path class="cls-7" d="M1310.7,3494.24c-3.04-.18-6.09-.69-9.16-1.54l-222.33-60.24c-19.28-5.23-32.88-21.3-35.93-39.93-1.12-6.77-.86-13.87,1.07-20.9l14.22-52.57,4.69-17.34,13.12-48.41c7.13-26.35,34.53-42.02,60.85-34.9l48.04,13.03c-23.27-1.83-45.42,13.12-51.75,36.42l-17.33,63.9-14.74,54.44c-7.12,26.32,8.58,53.72,34.9,60.85l174.37,47.2Z"/>
          <g class="cls-13">
            <path class="cls-2" d="M1310.7,3494.24c-3.04-.18-6.09-.69-9.16-1.54l-222.33-60.24c-26.32-7.12-42.03-34.5-34.87-60.83l18.91-69.91c2.25,13.87,8.18,31.75,23.83,37.7,8.58,3.28,18.98-.71,29.09-7.65l-14.74,54.44c-7.12,26.32,8.58,53.72,34.9,60.85l174.37,47.2Z"/>
          </g>
          <path class="cls-2" d="M1309.83,3507.39c-3.97-.26-7.94-.94-11.79-2l-222.27-60.21c-16.12-4.36-29.61-14.79-37.97-29.38-8.36-14.58-10.55-31.49-6.18-47.61l32.06-118.33c9.04-33.39,43.58-53.22,76.99-44.18l48.03,13.03-4.47,25.83c-17.5-1.32-33.44,9.91-38.01,26.77l-32.06,118.33c-2.54,9.35-1.25,19.16,3.61,27.64,4.86,8.47,12.68,14.53,22,17.05l174.39,47.23-4.32,25.84ZM1124.28,3229.83c-16.05,0-30.8,10.7-35.19,26.91l-32.06,118.34c-2.53,9.33-1.25,19.14,3.61,27.62,4.86,8.48,12.68,14.53,22.01,17.06l8.24,2.23c-4.92-12.48-5.71-26.12-2.15-39.25l32.06-118.32c3.42-12.63,10.55-23.44,19.99-31.43l-7.01-1.9c-3.17-.85-6.36-1.26-9.5-1.26ZM1044.33,3371.63h.05-.05Z"/>
          <path class="cls-2" d="M1232.66,3481.01c-.75,0-1.5-.1-2.25-.33-4.18-1.24-6.57-5.63-5.33-9.82l21.53-72.62c2.41-8.13,8.69-14.46,16.8-16.94l26.55-8.12c3.1-.95,5.47-3.38,6.33-6.51l26.88-97.85c1.15-4.21,5.52-6.7,9.71-5.53,4.21,1.16,6.68,5.5,5.53,9.71l-26.88,97.86c-2.3,8.38-8.64,14.9-16.94,17.44l-26.55,8.12c-3.03.93-5.38,3.29-6.27,6.33l-21.53,72.62c-1.02,3.43-4.16,5.65-7.57,5.65Z"/>
          <path class="cls-7" d="M869.4,3157.56s-27.73,5.73-36.78,30.37c-10.46,28.49,5.75,49.62,5.75,49.62,0,0,54.21,74.08,223.4,120.35,0,0,56.53-28.08,19.12-76.39,0,0-159.78-27.38-211.49-123.94Z"/>
          <g class="cls-13">
            <path class="cls-2" d="M1061.77,3357.88c-169.18-46.24-223.4-120.36-223.4-120.36,0,0-16.81-21.91-5.14-51.2.06,0,0,0,.07,0,2.62,10.83,7.69,17.48,7.69,17.48,0,0,49.54,67.68,201.66,114.08,18.33,5.59,38.54-1.54,48.13-18.13.09-.16.18-.32.27-.48,13.49,37.34-29.28,58.61-29.28,58.61Z"/>
          </g>
          <path class="cls-2" d="M1056.01,3368.13c-4.33,0-8.7-.62-12.96-1.88-159.85-47.12-213.12-117.95-215.31-120.94-.66-.86-20.29-27.04-7.48-61.92,11.45-31.16,45.05-38.43,46.48-38.73l9.62-1.99,4.64,8.67c41.16,76.86,157.93,107.68,192.74,115.29,11.02,2.41,20.31,9.29,25.49,18.89,13.47,24.95,8.75,50.79-12.93,70.9-8.22,7.62-19.12,11.7-30.29,11.7ZM863.54,3173.61c-6.5,3.12-14.9,8.91-18.56,18.86-7.7,20.97,3.44,36.52,3.92,37.17.56.75,51.32,67.06,201.6,111.37,6.41,1.89,13.28.4,17.9-3.88,17.18-15.94,12.61-29.94,7.67-39.09-1.53-2.84-4.42-4.9-7.94-5.67-36.14-7.91-154.21-39.24-204.58-118.75Z"/>
          <path class="cls-3" d="M1201.13,3350.69c-.68,2.46-7.2,16.52-10.99,24.58-1.55,3.3-5.24,4.99-8.75,4.02l-13.8-3.82c-13.68-3.79-20.85-21.03-16.01-38.51,4.84-17.47,19.86-28.57,33.54-24.78l13.87,3.84c3.49.97,5.78,4.28,5.44,7.88-.78,8.41-2.22,22.83-3.31,26.78Z"/>
          <path class="cls-2" d="M1188.68,3387.47c-1.37,0-2.76-.19-4.14-.57l-13.8-3.82c-17.86-4.95-27.51-26.59-21.51-48.23,2.81-10.14,8.62-18.88,16.37-24.61,8.33-6.16,17.89-8.16,26.89-5.67l13.87,3.85c7.17,1.99,11.88,8.81,11.2,16.22-2.11,22.92-3.2,26.87-3.56,28.16h0c-.27.96-.97,3.51-11.45,25.83-2.58,5.51-8.05,8.84-13.88,8.84ZM1184.92,3319.35c-3.28,0-6.7,1.23-9.92,3.61-4.92,3.63-8.67,9.36-10.54,16.12-3.61,13.02,1.2,26.21,10.5,28.78l13.45,3.73c6.91-14.75,9.91-21.62,10.38-23.06.52-1.95,1.58-9.51,3.01-24.98l-13.53-3.75c-1.09-.3-2.22-.45-3.36-.45ZM1206.39,3350.69h.05-.05Z"/>
          <g>
            <ellipse class="cls-3" cx="1201.49" cy="3349.33" rx="32.83" ry="25.71" transform="translate(-2347.06 3612.82) rotate(-74.51)"/>
            <path class="cls-2" d="M1198.27,3389.63c-2.57,0-5.14-.35-7.66-1.04-9.01-2.5-16.16-9.14-20.14-18.7-3.7-8.9-4.18-19.38-1.37-29.53,6-21.65,25.41-35.23,43.26-30.28,9.01,2.5,16.16,9.14,20.14,18.7,3.7,8.9,4.18,19.38,1.37,29.53h0c-2.81,10.15-8.62,18.89-16.37,24.61-6,4.43-12.63,6.71-19.23,6.71ZM1204.82,3324.86c-8.43,0-17.3,8.22-20.49,19.72-1.88,6.76-1.61,13.59.74,19.24,2.07,4.98,5.54,8.37,9.77,9.54s8.95.05,13.28-3.15c4.92-3.63,8.67-9.36,10.54-16.12h0c1.88-6.76,1.61-13.59-.74-19.24-2.07-4.98-5.54-8.37-9.77-9.54-1.09-.3-2.2-.44-3.33-.44Z"/>
          </g>
        </g>
        <g class="cls-14">
          <path class="cls-12" d="M1786.5,1251.11c-44.31,44.31-64.83,107.09-54.98,168.84l24,149.14,40,250.08c25.23,157.56-138.89,276.75-280.85,204.13l-340.76-174.38-19.28-9.85c-55.59-28.52-121.65-28.52-177.46,0l-187.51,96.01h-.21l-172.33,88.21c-96.63,49.65-203.92,9.85-254.18-70.37h-.21c-23.39-37.54-34.47-83.7-26.46-133.76l64.01-399.22c9.85-61.75-10.46-124.53-54.98-168.84L58.93,965.75c-63.39-63.19-71.6-151.81-38.36-221.77.21-1.03.82-1.85,1.23-2.67,26.26-53.34,76.52-95.19,144.43-105.86l19.9-3.08,15.39-2.46,364.35-57.03c61.75-9.64,115.09-48.42,143.4-104.22l182.99-360.66c72.21-142.17,275.31-142.17,347.32,0l182.99,360.66c28.31,55.8,81.65,94.57,143.61,104.22l217.67,34.06,181.76,28.52c157.56,24.62,220.33,217.67,107.29,330.29l-286.39,285.37Z"/>
          <path class="cls-1" d="M1965.6,635.45l-181.76-28.52-217.67-34.06c-61.95-9.64-115.29-48.42-143.61-104.22l-182.99-360.66c-72.01-142.17-275.11-142.17-347.32,0l-182.99,360.66c-28.31,55.8-81.65,94.57-143.4,104.22l-364.35,57.03-15.39,2.46-19.9,3.08c-67.91,10.67-118.17,52.52-144.43,105.86-.41.82-1.03,1.64-1.23,2.67-33.23,69.96-25.03,158.58,38.36,221.77l286.39,285.37c44.52,44.31,64.83,107.09,54.98,168.84l-64.01,399.22c-8,50.06,3.08,96.22,26.46,133.76h.21c38.57,2.05,77.34,3.08,116.32,3.08,105.24,0,208.64-6.98,310.19-20.93h.21l187.51-96.01c55.8-28.52,121.86-28.52,177.46,0l19.28,9.85c172.12-54.37,335.42-128.63,487.23-219.92,32-19.28,63.39-39.18,94.37-59.9l-24-149.14c-9.85-61.75,10.67-124.53,54.98-168.84l286.39-285.37c113.04-112.63,50.26-305.68-107.29-330.29Z"/>
          <path class="cls-4" d="M1566.17,572.88l217.67,34.06c-341.58,419.33-828.2,715.98-1383.54,813.01,9.85-61.75-10.46-124.53-54.98-168.84L58.93,965.75c-113.04-112.63-50.26-305.68,107.29-330.29l399.63-62.57c61.75-9.64,115.09-48.42,143.4-104.22l182.99-360.66c72.21-142.17,275.31-142.17,347.32,0l182.99,360.66c28.31,55.8,81.65,94.57,143.61,104.22Z"/>
          <polygon class="cls-6" points="193.91 557.38 211.37 725.31 379.3 742.77 211.37 760.23 193.91 928.16 176.45 760.23 8.52 742.77 176.45 725.31 193.91 557.38"/>
          <polygon class="cls-5" points="1966.33 816.47 1976.85 917.64 2078.02 928.16 1976.85 938.68 1966.33 1039.85 1955.81 938.68 1854.64 928.16 1955.81 917.64 1966.33 816.47"/>
          <path class="cls-7" d="M2000.49,893.08c-56.7,57.1-170.58,170.79-227.38,227.66-33.53,34.27-83.32,77.85-105.73,120.18-26.7,46.32-40.71,99.9-39.76,153.36-.21,23.01,6.05,56.59,9.67,79.62,16.98,105.71,40.24,252,56.89,357.48,5.73,28.06-1.52,58.91-21.51,79.84-8.92,7.82-20.61,11.48-31.8,14.73-19.44,5.19-39.52,8.06-59.63,8.42-5.84,0-11.8-.05-17.48-1.53-.82-.19-1.58-.54-2.36-.86.78.31,1.54.67,2.36.85,5.69,1.45,11.64,1.45,17.48,1.42,20.08-.48,40.14-3.48,59.5-8.77,11.08-3.28,22.66-6.98,31.45-14.77,19.66-20.93,26.62-51.31,20.88-79.15-17.07-105.31-40.6-251.77-57.67-357.36-3.65-23.02-9.97-56.67-9.78-79.9-.9-53.81,13.27-107.72,40.18-154.3,22.44-42.5,72.84-86.33,106.23-120.36,56.78-56.26,171.54-170.39,228.46-226.57h0Z"/>
          <path class="cls-7" d="M417.68,1178.42c-67.96-67.43-207.72-206.12-274.03-272.12-3.74-3.54-12.22-12.2-15.76-15.79-8.48-9.13-15.39-19.8-19.6-31.58-13.63-37.78.69-83.59,33.34-106.96,12.18-8.81,26.66-14.04,41.47-16.22,68.64-10.79,265.82-41.71,337.5-52.97,20.44-3.83,68.28-9.52,87.73-14.99,67.09-16.84,127.61-58.07,167.94-114.26,5.76-8.02,11.12-16.32,16.08-24.86,43.38-82.65,131.94-259.35,175.46-343.97,0,0,13.5-26.46,13.5-26.46,2.22-4.42,4.54-8.83,7.22-13.01,7.99-12.59,19.11-23.22,32.25-30.31,26.26-14.16,59.24-14.83,86.12-1.95,18.04,8.47,32.33,23.66,41.14,41.39-4.54-8.79-10.18-17.06-17.17-24.09-34.95-35.98-99.94-34.49-132.81,3.57-6.64,7.37-11.67,15.9-16,24.79,0,0-13.39,26.52-13.39,26.52-43.86,85.85-131.18,261.06-174.82,344.4-4.98,8.59-10.37,16.95-16.16,25.02-40.54,56.58-101.4,98.1-168.9,115.1-19.32,5.21-67.56,11.63-87.89,15.09-72.54,11.31-267.6,41.8-337.54,52.71-14.57,2.14-28.77,7.24-40.75,15.89-32.08,22.93-46.28,67.92-32.96,105.08,4.92,13.96,13.78,26.22,24.4,36.43,6.54,6.62,24.72,24.62,31.53,31.49,53.56,53.51,196.82,196.72,252.07,252.07h0Z"/>
          <path class="cls-11" d="M1786.5,1251.11c-44.31,44.31-64.83,107.09-54.98,168.84l24,149.14,40,250.08c25.23,157.56-138.89,276.75-280.85,204.13l-340.76-174.38-19.28-9.85c-55.59-28.52-121.65-28.52-177.46,0l-187.51,96.01h-.21l-172.33,88.21c-96.63,49.65-203.92,9.85-254.18-70.37h-.21c-23.39-37.54-34.47-83.7-26.46-133.76l64.01-399.22c9.85-61.75-10.46-124.53-54.98-168.84L58.93,965.75c-63.39-63.19-71.6-151.81-38.36-221.77.21-1.03.82-1.85,1.23-2.67,26.26-53.34,76.52-95.19,144.43-105.86l19.9-3.08,15.39-2.46,364.35-57.03c61.75-9.64,115.09-48.42,143.4-104.22l182.99-360.66c72.21-142.17,275.31-142.17,347.32,0l182.99,360.66c28.31,55.8,81.65,94.57,143.61,104.22l217.67,34.06,181.76,28.52c157.56,24.62,220.33,217.67,107.29,330.29l-286.39,285.37Z"/>
        </g>
      </g>
    </g>
  </g>
</svg>