<?xml version="1.0" encoding="UTF-8"?>
<svg xmlns="http://www.w3.org/2000/svg" xmlns:xlink="http://www.w3.org/1999/xlink" viewBox="0 0 74.03 71.7">
  <defs>
    <style>
      .cls-1 {
        stroke: url(#linear-gradient-15);
      }

      .cls-1, .cls-2, .cls-3, .cls-4, .cls-5, .cls-6, .cls-7, .cls-8, .cls-9, .cls-10, .cls-11, .cls-12, .cls-13, .cls-14 {
        opacity: .3;
      }

      .cls-1, .cls-9 {
        stroke-width: .08px;
      }

      .cls-1, .cls-9, .cls-10, .cls-15, .cls-12, .cls-13 {
        fill: none;
      }

      .cls-1, .cls-9, .cls-10, .cls-12, .cls-13 {
        stroke-miterlimit: 10;
      }

      .cls-16 {
        fill: #dddffd;
      }

      .cls-2, .cls-17 {
        fill: #776bf4;
      }

      .cls-18 {
        fill: url(#linear-gradient-14);
      }

      .cls-19 {
        mix-blend-mode: overlay;
        opacity: .2;
      }

      .cls-20 {
        fill: url(#linear-gradient-6);
      }

      .cls-21 {
        isolation: isolate;
      }

      .cls-3 {
        fill: url(#linear-gradient-2);
      }

      .cls-4 {
        fill: url(#linear-gradient-27);
      }

      .cls-22 {
        filter: url(#drop-shadow-1);
      }

      .cls-5 {
        fill: #5f53d7;
      }

      .cls-23 {
        fill: url(#linear-gradient-10);
      }

      .cls-6 {
        fill: url(#linear-gradient-22);
      }

      .cls-24 {
        fill: url(#linear-gradient-16);
      }

      .cls-8 {
        fill: url(#linear-gradient-17);
      }

      .cls-25 {
        fill: url(#linear-gradient-21);
      }

      .cls-26 {
        fill: url(#linear-gradient-25);
      }

      .cls-27 {
        fill: url(#linear-gradient-5);
      }

      .cls-9 {
        stroke: url(#linear-gradient-13);
      }

      .cls-10 {
        stroke: url(#linear-gradient-24);
        stroke-width: .8px;
      }

      .cls-28 {
        clip-path: url(#clippath);
      }

      .cls-29 {
        fill: url(#linear-gradient-7);
      }

      .cls-11 {
        fill: url(#linear-gradient-20);
      }

      .cls-30 {
        fill: url(#linear-gradient-3);
      }

      .cls-31 {
        fill: url(#linear-gradient);
      }

      .cls-12 {
        stroke: url(#linear-gradient-11);
        stroke-width: .4px;
      }

      .cls-13 {
        stroke: url(#linear-gradient-9);
        stroke-width: .51px;
      }

      .cls-32 {
        fill: url(#linear-gradient-23);
      }

      .cls-33 {
        fill: url(#linear-gradient-19);
      }

      .cls-34 {
        fill: url(#linear-gradient-4);
      }

      .cls-35 {
        fill: url(#linear-gradient-8);
      }

      .cls-14 {
        fill: url(#linear-gradient-18);
      }

      .cls-36 {
        fill: url(#linear-gradient-12);
      }

      .cls-37 {
        fill: url(#linear-gradient-26);
      }
    </style>
    <filter id="drop-shadow-1" filterUnits="userSpaceOnUse">
      <feOffset dx="3" dy="3"/>
      <feGaussianBlur result="blur" stdDeviation="5"/>
      <feFlood flood-color="#252266" flood-opacity=".15"/>
      <feComposite in2="blur" operator="in"/>
      <feComposite in="SourceGraphic"/>
    </filter>
    <linearGradient id="linear-gradient" x1="70.23" y1="96.64" x2="32.6" y2="25.27" gradientTransform="translate(64.46 -9.45) rotate(76.92)" gradientUnits="userSpaceOnUse">
      <stop offset="0" stop-color="#292ef9"/>
      <stop offset=".2" stop-color="#4c4af9"/>
      <stop offset=".41" stop-color="#6a62f9"/>
      <stop offset=".61" stop-color="#7f73f9"/>
      <stop offset=".81" stop-color="#8c7df9"/>
      <stop offset=".99" stop-color="#9181fa"/>
    </linearGradient>
    <linearGradient id="linear-gradient-2" x1="82.44" y1="39.96" x2="23.91" y2="-3.43" gradientUnits="userSpaceOnUse">
      <stop offset="0" stop-color="#9181fa"/>
      <stop offset=".99" stop-color="#fff"/>
    </linearGradient>
    <linearGradient id="linear-gradient-3" x1="17.54" y1="9.2" x2="18.17" y2="12.79" gradientTransform="matrix(1, 0, 0, 1, 0, 0)" xlink:href="#linear-gradient"/>
    <linearGradient id="linear-gradient-4" x1="45.87" y1="11.57" x2="47.74" y2="26.3" gradientTransform="matrix(1, 0, 0, 1, 0, 0)" xlink:href="#linear-gradient"/>
    <linearGradient id="linear-gradient-5" x1="37.31" y1="66.49" x2="37.31" y2="75.55" gradientTransform="matrix(1, 0, 0, 1, 0, 0)" xlink:href="#linear-gradient"/>
    <linearGradient id="linear-gradient-6" x1="34.29" y1="43.96" x2="19.99" y2="41.71" gradientUnits="userSpaceOnUse">
      <stop offset="0" stop-color="#712be2"/>
      <stop offset="0" stop-color="#712ce2"/>
      <stop offset=".15" stop-color="#9663e9"/>
      <stop offset=".3" stop-color="#b693f0"/>
      <stop offset=".45" stop-color="#d0b9f5"/>
      <stop offset=".59" stop-color="#e4d8f9"/>
      <stop offset=".73" stop-color="#f3edfc"/>
      <stop offset=".86" stop-color="#fcfafe"/>
      <stop offset=".99" stop-color="#fff"/>
    </linearGradient>
    <linearGradient id="linear-gradient-7" x1="28.38" y1="33.17" x2="25.1" y2="52.37" gradientTransform="matrix(1, 0, 0, 1, 0, 0)" xlink:href="#linear-gradient"/>
    <linearGradient id="linear-gradient-8" x1="31.04" y1="7.04" x2="33.07" y2="23.11" gradientTransform="matrix(1, 0, 0, 1, 0, 0)" xlink:href="#linear-gradient"/>
    <linearGradient id="linear-gradient-9" x1="-1562.97" y1="890.58" x2="-1551.9" y2="890.58" gradientTransform="translate(-439.51 1745.86) rotate(135)" gradientUnits="userSpaceOnUse">
      <stop offset="0" stop-color="#fff"/>
      <stop offset=".99" stop-color="#fff" stop-opacity="0"/>
    </linearGradient>
    <linearGradient id="linear-gradient-10" x1="46.07" y1="9.39" x2="44.66" y2="81.22" xlink:href="#linear-gradient-6"/>
    <linearGradient id="linear-gradient-11" x1="-1552.5" y1="862.32" x2="-1543.79" y2="862.32" xlink:href="#linear-gradient-9"/>
    <linearGradient id="linear-gradient-12" x1="48.77" y1="3.58" x2="48.61" y2="13.1" xlink:href="#linear-gradient-6"/>
    <linearGradient id="linear-gradient-13" x1="-1574.33" y1="883.07" x2="-1572.64" y2="883.07" xlink:href="#linear-gradient-9"/>
    <linearGradient id="linear-gradient-14" x1="16.64" y1="32.72" x2="16.49" y2="42.24" xlink:href="#linear-gradient-6"/>
    <linearGradient id="linear-gradient-15" x1="-1531.01" y1="885.18" x2="-1529.32" y2="885.18" xlink:href="#linear-gradient-9"/>
    <linearGradient id="linear-gradient-16" x1="37.37" y1="5.16" x2="38.99" y2="5.16" xlink:href="#linear-gradient-2"/>
    <linearGradient id="linear-gradient-17" x1="37.37" y1="5.16" x2="38.99" y2="5.16" xlink:href="#linear-gradient-2"/>
    <linearGradient id="linear-gradient-18" x1="63.89" y1="18.35" x2="61.89" y2="10.88" xlink:href="#linear-gradient-2"/>
    <linearGradient id="linear-gradient-19" x1="16.89" y1="14.46" x2="16.35" y2="34.46" gradientTransform="matrix(1, 0, 0, 1, 0, 0)" xlink:href="#linear-gradient"/>
    <linearGradient id="linear-gradient-20" x1="16.89" y1="14.46" x2="16.35" y2="34.46" gradientTransform="matrix(1, 0, 0, 1, 0, 0)" xlink:href="#linear-gradient"/>
    <linearGradient id="linear-gradient-21" x1="50.8" y1="43.46" x2="54.2" y2="51.43" gradientTransform="matrix(1, 0, 0, 1, 0, 0)" xlink:href="#linear-gradient"/>
    <linearGradient id="linear-gradient-22" x1="50.8" y1="43.46" x2="54.2" y2="51.43" gradientTransform="matrix(1, 0, 0, 1, 0, 0)" xlink:href="#linear-gradient"/>
    <linearGradient id="linear-gradient-23" x1="55.43" y1="10.73" x2="62.3" y2="46.31" gradientTransform="translate(74.33 -34.7) rotate(76.77)" xlink:href="#linear-gradient"/>
    <linearGradient id="linear-gradient-24" x1="-1574.96" y1="861.06" x2="-1557.37" y2="861.06" xlink:href="#linear-gradient-9"/>
    <linearGradient id="linear-gradient-25" x1="77.76" y1="47.34" x2="61.96" y2="48.14" gradientTransform="matrix(1, 0, 0, 1, 0, 0)" xlink:href="#linear-gradient"/>
    <clipPath id="clippath">
      <circle class="cls-15" cx="38.18" cy="35.85" r="35.85" transform="translate(-5.38 64.93) rotate(-76.92)"/>
    </clipPath>
    <linearGradient id="linear-gradient-26" x1="7.69" y1="34.51" x2=".51" y2="53.71" gradientTransform="matrix(1, 0, 0, 1, 0, 0)" xlink:href="#linear-gradient"/>
    <linearGradient id="linear-gradient-27" x1="7.69" y1="34.51" x2=".51" y2="53.71" gradientTransform="matrix(1, 0, 0, 1, 0, 0)" xlink:href="#linear-gradient"/>
  </defs>
  <g class="cls-21">
    <g id="_레이어_2" data-name="레이어 2">
      <g id="OBJECTS">
        <g class="cls-22">
          <circle class="cls-31" cx="38.18" cy="35.85" r="35.85" transform="translate(-5.38 64.93) rotate(-76.92)"/>
          <path class="cls-3" d="M73.55,30.03C70.77,13,56,0,38.18,0c-8.06,0-15.49,2.66-21.48,7.15,.12,.02,.25,.04,.37,.06,1.83,.34,3.64,.85,5.38,1.52,1.74,.67,3.42,1.51,4.99,2.5,.37,.23,.73,.47,1.09,.72,8.94,6.23,14.41,17.29,24.61,21.12,5.92,2.22,12.81,1.51,18.3-1.64,.73-.42,1.43-.89,2.11-1.41Z"/>
          <path class="cls-16" d="M24.93,4.74c1.31,0,2.37-1.06,2.37-2.37,0-.23-.04-.44-.1-.65-1.5,.48-2.96,1.06-4.36,1.73,.39,.76,1.18,1.29,2.1,1.29Z"/>
          <path class="cls-30" d="M17.98,10.22c-1.89,0-1.89,2.94,0,2.94s1.89-2.94,0-2.94Z"/>
          <path class="cls-5" d="M67.98,46.19c-5.24,5.74-11.57,10.84-19.08,12.86-2.85,.76-5.78,1.06-8.71,.97-.21-.9-.92-1.66-2.11-1.66-1.03,0-1.7,.57-2,1.3-1.63-.23-3.26-.57-4.86-1,1.22-2.67-.09-6.58-3.92-6.58-2.51,0-3.94,1.68-4.28,3.59-3.72-1.73-7.23-3.94-10-6.94-4.68-5.06-6.9-12.04-7.19-18.92-.16-3.75,.21-7.48,.9-11.18-2.8,5.11-4.4,10.97-4.4,17.21,0,19.8,16.05,35.85,35.85,35.85,18.69,0,34.03-14.3,35.69-32.56-1.9,2.41-3.83,4.79-5.89,7.05Z"/>
          <path class="cls-34" d="M46.72,16.38c-2.43,0-2.43,3.77,0,3.77s2.43-3.77,0-3.77Z"/>
          <path class="cls-27" d="M37.31,67.76c-2.33,0-3.45,1.87-3.37,3.68,1.39,.16,2.8,.26,4.24,.26,.84,0,1.67-.04,2.5-.1,.16-1.86-.96-3.84-3.36-3.84Z"/>
          <g>
            <path class="cls-20" d="M32.03,42.77c0,2.92-2.37,5.28-5.28,5.28s-5.28-2.37-5.28-5.28,2.37-5.28,5.28-5.28,5.28,2.37,5.28,5.28Z"/>
            <path class="cls-29" d="M23.01,46.51c-2.06-2.06-2.06-5.41,0-7.47,2.06-2.06,5.41-2.06,7.47,0,2.06,2.06,2.06,5.41,0,7.47-2.06,2.06-5.41,2.06-7.47,0Z"/>
          </g>
          <path class="cls-35" d="M37.31,14.87c0,2.92-2.37,5.28-5.28,5.28s-5.28-2.37-5.28-5.28,2.37-5.28,5.28-5.28,5.28,2.37,5.28,5.28Z"/>
          <path class="cls-13" d="M28.29,18.6c-2.06-2.06-2.06-5.41,0-7.47,2.06-2.06,5.41-2.06,7.47,0s2.06,5.41,0,7.47-5.41,2.06-7.47,0Z"/>
          <g>
            <circle class="cls-23" cx="45.44" cy="41.42" r="4.16"/>
            <path class="cls-12" d="M42.5,44.36c-1.62-1.62-1.62-4.26,0-5.88,1.62-1.62,4.26-1.62,5.88,0s1.62,4.26,0,5.88-4.26,1.62-5.88,0Z"/>
          </g>
          <g>
            <path class="cls-36" d="M49.49,8.82c0,.45-.36,.81-.81,.81s-.81-.36-.81-.81,.36-.81,.81-.81,.81,.36,.81,.81Z"/>
            <circle class="cls-9" cx="48.68" cy="8.82" r=".81"/>
          </g>
          <g>
            <path class="cls-18" d="M17.36,37.96c0,.45-.36,.81-.81,.81s-.81-.36-.81-.81,.36-.81,.81-.81,.81,.36,.81,.81Z"/>
            <circle class="cls-1" cx="16.56" cy="37.96" r=".81"/>
          </g>
          <g class="cls-19">
            <path class="cls-24" d="M38.99,5.16c0,.45-.36,.81-.81,.81s-.81-.36-.81-.81,.36-.81,.81-.81,.81,.36,.81,.81Z"/>
            <path class="cls-8" d="M37.61,5.73c-.31-.31-.31-.83,0-1.14,.31-.31,.83-.31,1.14,0,.31,.31,.31,.83,0,1.14-.31,.31-.83,.31-1.14,0Z"/>
          </g>
          <path class="cls-14" d="M65.53,14.12s.07-.09,.1-.13c.04-.06,.08-.11,.12-.17,.04-.05,.07-.11,.1-.16,.03-.05,.06-.1,.09-.16,.03-.06,.06-.11,.08-.17,0,0,0-.02,.01-.03-1.51-1.86-3.19-3.57-5.03-5.09-.02,0-.04,.02-.07,.03-.06,.03-.12,.05-.17,.08-.05,.03-.1,.06-.15,.09-.06,.03-.11,.07-.17,.1-.06,.04-.11,.08-.16,.12-.05,.03-.09,.07-.14,.1-.1,.08-.19,.16-.28,.25s-.17,.18-.25,.28c-.04,.04-.07,.09-.1,.14-.04,.05-.08,.11-.12,.16-.04,.05-.07,.11-.1,.17-.03,.05-.06,.1-.09,.15-.03,.06-.06,.12-.08,.17-.03,.05-.05,.11-.08,.17-.02,.06-.04,.11-.06,.17-.02,.06-.04,.12-.06,.18-.02,.06-.03,.12-.04,.17-.02,.06-.03,.12-.05,.19-.01,.07-.02,.14-.03,.21,0,.05-.02,.11-.02,.16-.01,.12-.02,.25-.02,.38s0,.25,.02,.38c0,.05,.02,.11,.02,.16,0,.07,.02,.14,.03,.21,.01,.06,.03,.13,.05,.19,.01,.06,.03,.12,.04,.17,.02,.06,.04,.12,.06,.18,.02,.06,.04,.12,.06,.17,.02,.06,.05,.11,.08,.17,.03,.06,.05,.12,.08,.17,.03,.05,.06,.1,.09,.15,.03,.06,.07,.11,.1,.17,.04,.06,.08,.11,.12,.16,.03,.05,.07,.09,.1,.14,.08,.1,.16,.19,.25,.28,.09,.09,.18,.17,.28,.25,.04,.04,.09,.07,.14,.1,.05,.04,.11,.08,.16,.12,.05,.04,.11,.07,.17,.1,.05,.03,.1,.06,.15,.09,.06,.03,.12,.06,.17,.08,.06,.03,.11,.05,.17,.08,.06,.02,.11,.04,.17,.06,.06,.02,.12,.05,.18,.06,.06,.02,.12,.03,.17,.04,.06,.02,.12,.03,.19,.05,.07,.01,.14,.02,.21,.03,.05,0,.11,.02,.16,.02,.12,.01,.25,.02,.38,.02s.25,0,.38-.02c.05,0,.11-.02,.16-.02,.07,0,.14-.02,.21-.03,.06-.01,.13-.03,.19-.05,.06-.01,.12-.03,.17-.04,.06-.02,.12-.04,.18-.06,.06-.02,.12-.04,.17-.06,.06-.02,.11-.05,.17-.08,.06-.03,.12-.05,.17-.08,.05-.03,.1-.06,.15-.09,.06-.03,.11-.07,.17-.1,.06-.04,.11-.08,.16-.12,.05-.03,.09-.07,.14-.1,.1-.08,.19-.16,.28-.25,.09-.09,.17-.18,.25-.28Z"/>
          <g>
            <path class="cls-17" d="M34.63,29.97c0,1.06-.86,1.91-1.91,1.91s-1.91-.86-1.91-1.91,.86-1.91,1.91-1.91,1.91,.86,1.91,1.91Z"/>
            <path class="cls-2" d="M31.37,31.32c-.75-.75-.75-1.96,0-2.7,.75-.75,1.96-.75,2.7,0,.75,.75,.75,1.96,0,2.7-.75,.75-1.96,.75-2.7,0Z"/>
          </g>
          <g>
            <circle class="cls-33" cx="16.56" cy="26.78" r="4.4"/>
            <path class="cls-11" d="M13.45,29.89c-1.72-1.72-1.72-4.5,0-6.22s4.5-1.72,6.22,0c1.72,1.72,1.72,4.5,0,6.22-1.72,1.72-4.5,1.72-6.22,0Z"/>
          </g>
          <g>
            <path class="cls-25" d="M54.61,47.36c1.02,.74,1.23,2.15,.47,3.15-.76,1-2.2,1.2-3.22,.46-1.02-.74-1.23-2.15-.47-3.15,.76-1,2.2-1.2,3.22-.46Z"/>
            <path class="cls-6" d="M53.57,51.39c-1.26,.18-2.42-.67-2.61-1.9s.69-2.37,1.94-2.55c1.26-.18,2.42,.67,2.61,1.9,.18,1.23-.69,2.37-1.94,2.55Z"/>
          </g>
          <circle class="cls-32" cx="59.07" cy="29.57" r="8.39" transform="translate(16.76 80.3) rotate(-76.77)"/>
          <path class="cls-10" d="M53.14,35.5c-3.28-3.28-3.28-8.59,0-11.87,3.28-3.28,8.59-3.28,11.87,0,3.28,3.28,3.28,8.59,0,11.87-3.28,3.28-8.59,3.28-11.87,0Z"/>
          <path class="cls-26" d="M69.39,48.42c0,1.14,.41,2.19,1.1,2.99,1.15-2.38,2.03-4.91,2.63-7.55-2.13,.42-3.73,2.3-3.73,4.55Z"/>
          <g class="cls-28">
            <g class="cls-7">
              <path class="cls-37" d="M10.42,41.14c0,2.88-2.33,5.21-5.21,5.21s-5.21-2.33-5.21-5.21,2.33-5.21,5.21-5.21,5.21,2.33,5.21,5.21Z"/>
              <path class="cls-4" d="M1.53,44.83c-2.03-2.03-2.03-5.33,0-7.37,2.03-2.03,5.33-2.03,7.37,0s2.03,5.33,0,7.37c-2.03,2.03-5.33,2.03-7.37,0Z"/>
            </g>
          </g>
        </g>
      </g>
    </g>
  </g>
</svg>