<?xml version="1.0" encoding="UTF-8"?>
<svg xmlns="http://www.w3.org/2000/svg" xmlns:xlink="http://www.w3.org/1999/xlink" viewBox="0 0 162.5 95.12">
  <defs>
    <style>
      .cls-1 {
        fill: url(#linear-gradient-10);
      }

      .cls-1, .cls-2, .cls-3, .cls-4, .cls-5, .cls-6, .cls-7 {
        opacity: .3;
      }

      .cls-8 {
        fill: url(#linear-gradient-14);
      }

      .cls-9 {
        fill: url(#linear-gradient-6);
      }

      .cls-10 {
        fill: url(#linear-gradient-2);
        opacity: .15;
      }

      .cls-10, .cls-11 {
        mix-blend-mode: multiply;
      }

      .cls-12 {
        isolation: isolate;
      }

      .cls-2 {
        fill: url(#linear-gradient-11);
      }

      .cls-3 {
        fill: url(#linear-gradient-8);
      }

      .cls-13 {
        fill: url(#linear-gradient-7);
      }

      .cls-4 {
        fill: url(#linear-gradient-9);
      }

      .cls-5 {
        fill: url(#linear-gradient-12);
      }

      .cls-14 {
        fill: url(#linear-gradient-3);
      }

      .cls-6 {
        fill: url(#linear-gradient-5);
      }

      .cls-15 {
        fill: url(#linear-gradient);
      }

      .cls-7 {
        fill: url(#linear-gradient-4);
      }

      .cls-16 {
        fill: url(#linear-gradient-13);
      }
    </style>
    <linearGradient id="linear-gradient" x1="225.53" y1="86.82" x2="334.93" y2="178.83" gradientTransform="translate(-174.09 -186.75) rotate(15.23)" gradientUnits="userSpaceOnUse">
      <stop offset="0" stop-color="#b464be"/>
      <stop offset=".99" stop-color="#712be2"/>
    </linearGradient>
    <linearGradient id="linear-gradient-2" x1="300.81" y1="209.43" x2="303.48" y2="190.7" gradientTransform="translate(-252.46 -43.64) rotate(-11.84)" xlink:href="#linear-gradient"/>
    <linearGradient id="linear-gradient-3" x1="313.88" y1="182.8" x2="314.9" y2="191.22" gradientTransform="translate(-252.46 -43.64) rotate(-11.84)" gradientUnits="userSpaceOnUse">
      <stop offset="0" stop-color="#b464be"/>
      <stop offset=".99" stop-color="#fff" stop-opacity=".15"/>
    </linearGradient>
    <linearGradient id="linear-gradient-4" x1="222.66" y1="160.19" x2="392.54" y2="160.19" gradientTransform="translate(-252.46 -43.64) rotate(-11.84)" gradientUnits="userSpaceOnUse">
      <stop offset="0" stop-color="#dddffd"/>
      <stop offset=".99" stop-color="#9181fa"/>
    </linearGradient>
    <linearGradient id="linear-gradient-5" x1="275.19" y1="128.07" x2="347.07" y2="128.07" xlink:href="#linear-gradient-4"/>
    <linearGradient id="linear-gradient-6" x1="356.44" y1="144.98" x2="312" y2="151.07" gradientTransform="translate(-252.46 -43.64) rotate(-11.84)" xlink:href="#linear-gradient"/>
    <linearGradient id="linear-gradient-7" x1="365.05" y1="129.27" x2="342.11" y2="157.73" gradientTransform="translate(-252.46 -43.64) rotate(-11.84)" xlink:href="#linear-gradient"/>
    <linearGradient id="linear-gradient-8" x1="317.79" y1="155.23" x2="320.53" y2="155.23" xlink:href="#linear-gradient-4"/>
    <linearGradient id="linear-gradient-9" x1="345.92" y1="140.57" x2="348.75" y2="140.57" xlink:href="#linear-gradient-4"/>
    <linearGradient id="linear-gradient-10" x1="329.41" y1="189.21" x2="332.15" y2="189.21" xlink:href="#linear-gradient-4"/>
    <linearGradient id="linear-gradient-11" x1="294.15" y1="168.59" x2="297.7" y2="168.59" xlink:href="#linear-gradient-4"/>
    <linearGradient id="linear-gradient-12" x1="278.82" y1="136.06" x2="282.24" y2="136.06" xlink:href="#linear-gradient-4"/>
    <linearGradient id="linear-gradient-13" x1="273.01" y1="116.32" x2="290.44" y2="187.77" gradientTransform="translate(-252.46 -43.64) rotate(-11.84)" xlink:href="#linear-gradient"/>
    <linearGradient id="linear-gradient-14" x1="319.74" y1="188.35" x2="318.87" y2="206.94" gradientTransform="translate(-252.46 -43.64) rotate(-11.84)" xlink:href="#linear-gradient"/>
  </defs>
  <g class="cls-12">
    <g id="_레이어_2" data-name="레이어 2">
      <g id="OBJECTS">
        <g>
          <circle class="cls-15" cx="83.92" cy="47.56" r="47.55" transform="translate(-12.45 43.41) rotate(-27.07)"/>
          <path class="cls-10" d="M93.68,94.1c15.27-3.2,27.28-13.4,33.38-26.54-5.09,2.02-9.98,4.7-15,6.92-12.45,5.52-26.56,8.32-39.8,5.11-6.96-1.69-13.43-4.96-19.68-8.46-4.91-2.75-9.8-5.72-13.64-9.83-.27-.29-.52-.59-.78-.89,6.69,23.9,30.88,38.84,55.53,33.68Z"/>
          <g class="cls-11">
            <path class="cls-14" d="M59.85,88.29c11.2-2.47,23.01-5.91,35.12-10.23,11.93-4.26,23.32-9.13,33.45-14.25,1.11-2.98,1.93-6.07,2.42-9.26-11.16,6.07-24.33,11.86-38.25,16.84-12.01,4.29-23.7,7.68-34.75,10.1-1.8,.39-3.54,.75-5.22,1.07-.17,.03-.33,.06-.49,.09,2.38,2.13,4.97,4.02,7.73,5.63Z"/>
          </g>
          <path class="cls-7" d="M161.98,20.56c-3.68-10.09-28.65-6.72-41.93-4.15,1.66,1.87,3.17,3.9,4.5,6.05,7.61-1.32,14.61-2,20.14-1.92,8,.11,10.4,1.78,10.61,2.36,1.06,2.91-4.66,11.11-24.21,22.27-1.1,.63-2.23,1.26-3.42,1.91-11.68,6.35-25.74,12.47-40.66,17.71-12.02,4.21-23.72,7.57-34.78,9.97-1.8,.39-3.54,.75-5.22,1.08-26.78,5.2-38.7,2.3-39.9-.98-.89-2.43,7.18-12.15,29.18-24.58-.2-2.63-.16-5.25,.11-7.82-10.18,5.52-19.17,11.39-25.5,16.67C2.12,66.47-1.31,72.37,.44,77.19c4.63,12.69,36.32,7.72,51.53,4.53,.35-.07,.69-.15,1.02-.22,.23-.05,.46-.1,.68-.15,11.35-2.47,23.34-5.91,35.65-10.22,15-5.26,29.16-11.41,41.04-17.81,.23-.13,.47-.25,.71-.38,13.31-7.24,35.03-21.07,30.91-32.39Z"/>
          <path class="cls-6" d="M74.16,1.02c-13.72,2.88-24.8,11.4-31.34,22.63,1.09-.34,2.19-.66,3.29-.94,8.45-2.14,17.53-2.34,25.77,.49,1.68,.57,3.32,1.23,4.97,1.87-1.59,4.37,1.53,10.48,7.48,9.24,3.51-.74,5.09-3.43,5.14-6.2,.59,0,1.19-.03,1.79-.1,6.05-.67,12.31-3.35,16.63-7.71,2.76-2.79,3.91-6.53,5.56-9.99C102.77,1.84,88.54-1.99,74.16,1.02Z"/>
          <path class="cls-9" d="M53.71,43.9c-8.47,1.78-5.72,14.94,2.76,13.16,8.47-1.78,5.72-14.94-2.76-13.16Z"/>
          <path class="cls-13" d="M113.17,36.99c-6.01,1.26-4.06,10.59,1.96,9.33,6.01-1.26,4.06-10.59-1.96-9.33Z"/>
          <path class="cls-3" d="M91.46,41.41c-1.78,.37-1.21,3.15,.58,2.77,1.78-.37,1.21-3.15-.58-2.77Z"/>
          <path class="cls-4" d="M117.44,21.71c-.09-.16-.22-.29-.38-.39-.15-.11-.32-.17-.51-.19-.18-.05-.37-.05-.56,0l-.36,.13c-.22,.11-.4,.28-.54,.48-.05,.11-.11,.22-.16,.33-.08,.24-.09,.49-.04,.74l.06,.28c.03,.19,.11,.36,.23,.51,.09,.16,.22,.29,.38,.39,.15,.11,.32,.17,.51,.19,.18,.05,.37,.05,.56,0,.12-.04,.24-.08,.36-.13,.22-.12,.4-.28,.54-.48,.05-.11,.11-.22,.16-.33,.08-.24,.09-.49,.04-.74l-.06-.28c-.03-.19-.11-.36-.23-.51Z"/>
          <path class="cls-1" d="M109.81,72.28c-1.78,.37-1.21,3.15,.58,2.77,1.78-.37,1.21-3.15-.58-2.77Z"/>
          <path class="cls-2" d="M73.14,59.35c-.11-.2-.27-.36-.47-.48-.19-.14-.4-.22-.63-.24-.23-.07-.46-.07-.7,0-.15,.05-.3,.11-.45,.16-.28,.14-.5,.35-.67,.61l-.2,.41c-.1,.3-.12,.61-.05,.92l.12,.57c.04,.24,.14,.45,.29,.64,.11,.2,.27,.36,.48,.48,.19,.14,.4,.22,.63,.24,.23,.07,.46,.07,.7,0,.15-.05,.3-.11,.45-.16,.28-.14,.5-.35,.67-.61,.07-.14,.13-.27,.2-.41,.1-.3,.12-.61,.05-.92l-.12-.57c-.04-.24-.14-.45-.29-.64Z"/>
          <path class="cls-5" d="M49.65,30.23c-2.23,.47-1.51,3.93,.73,3.46,2.23-.47,1.51-3.93-.73-3.46Z"/>
          <path class="cls-16" d="M72.02,83.11c-2.23,.47-1.51,3.93,.73,3.46,2.23-.47,1.51-3.93-.73-3.46Z"/>
          <path class="cls-8" d="M94.88,93.82c4.93-1.17,9.5-3.06,13.63-5.55-1.65-1.9-4.19-3.01-7.41-2.33-4.41,.92-6.3,4.4-6.22,7.89Z"/>
        </g>
      </g>
    </g>
  </g>
</svg>