<?xml version="1.0" encoding="UTF-8"?>
<svg id="_레이어_2" data-name="레이어 2" xmlns="http://www.w3.org/2000/svg" xmlns:xlink="http://www.w3.org/1999/xlink" viewBox="0 0 75.09 46.63">
  <defs>
    <style>
      .cls-1 {
        fill: url(#_무제_그라디언트_12-3);
      }

      .cls-2 {
        fill: url(#_무제_그라디언트_12);
      }

      .cls-3 {
        fill: url(#_무제_그라디언트_4);
      }

      .cls-4 {
        fill: url(#_무제_그라디언트_5-2);
      }

      .cls-5 {
        fill: url(#_무제_그라디언트_12-7);
      }

      .cls-6 {
        fill: url(#_무제_그라디언트_12-2);
      }

      .cls-7 {
        fill: url(#_무제_그라디언트_12-6);
      }

      .cls-8 {
        fill: url(#_무제_그라디언트_12-5);
      }

      .cls-9 {
        fill: url(#_무제_그라디언트_5);
      }

      .cls-10 {
        fill: url(#_무제_그라디언트_12-4);
      }

      .cls-11 {
        fill: #b4aeeb;
      }

      .cls-12 {
        fill: url(#_무제_그라디언트_5-3);
      }
    </style>
    <linearGradient id="_무제_그라디언트_5" data-name="무제 그라디언트 5" x1="-391.67" y1="256.57" x2="-392.16" y2="242.43" gradientTransform="translate(252.95 432.48) rotate(30.22) scale(1 -1)" gradientUnits="userSpaceOnUse">
      <stop offset="0" stop-color="#292ef9"/>
      <stop offset=".99" stop-color="#9181fa"/>
    </linearGradient>
    <linearGradient id="_무제_그라디언트_5-2" data-name="무제 그라디언트 5" x1="-380.23" y1="224.94" x2="-403.91" y2="265.32" xlink:href="#_무제_그라디언트_5"/>
    <linearGradient id="_무제_그라디언트_4" data-name="무제 그라디언트 4" x1="-410.64" y1="262.71" x2="-373.59" y2="262.71" gradientTransform="translate(252.95 432.48) rotate(30.22) scale(1 -1)" gradientUnits="userSpaceOnUse">
      <stop offset="0" stop-color="#dddffd"/>
      <stop offset=".99" stop-color="#9181fa"/>
    </linearGradient>
    <linearGradient id="_무제_그라디언트_5-3" data-name="무제 그라디언트 5" x1="-391.83" y1="245.58" x2="-392.51" y2="263.56" xlink:href="#_무제_그라디언트_5"/>
    <linearGradient id="_무제_그라디언트_12" data-name="무제 그라디언트 12" x1="-413.44" y1="247.25" x2="-414.9" y2="254.4" gradientTransform="translate(252.95 432.48) rotate(30.22) scale(1 -1)" gradientUnits="userSpaceOnUse">
      <stop offset="0" stop-color="#fff"/>
      <stop offset=".99" stop-color="#fff" stop-opacity="0"/>
    </linearGradient>
    <linearGradient id="_무제_그라디언트_12-2" data-name="무제 그라디언트 12" x1="-407.24" y1="248.4" x2="-407.24" y2="253.73" xlink:href="#_무제_그라디언트_12"/>
    <linearGradient id="_무제_그라디언트_12-3" data-name="무제 그라디언트 12" x1="-400.88" y1="247.78" x2="-399.54" y2="253.23" xlink:href="#_무제_그라디언트_12"/>
    <linearGradient id="_무제_그라디언트_12-4" data-name="무제 그라디언트 12" x1="-392.29" y1="247.97" x2="-392.77" y2="253.06" xlink:href="#_무제_그라디언트_12"/>
    <linearGradient id="_무제_그라디언트_12-5" data-name="무제 그라디언트 12" x1="-385.11" y1="248.67" x2="-385.36" y2="252.31" xlink:href="#_무제_그라디언트_12"/>
    <linearGradient id="_무제_그라디언트_12-6" data-name="무제 그라디언트 12" x1="-377.99" y1="248.15" x2="-377.99" y2="252.64" xlink:href="#_무제_그라디언트_12"/>
    <linearGradient id="_무제_그라디언트_12-7" data-name="무제 그라디언트 12" x1="-369.63" y1="245.74" x2="-370.96" y2="253.98" xlink:href="#_무제_그라디언트_12"/>
  </defs>
  <g id="_레이어_2-2" data-name=" 레이어 2">
    <g id="OBJECTS">
      <g>
        <path class="cls-11" d="M47.62,39.91c-1.41,2.43-9.1,.58-17.17-4.12s-13.46-10.48-12.05-12.9c.44-.76,1.5-1.1,2.99-1.07,3.27,.07,8.63,1.96,14.18,5.18,5.55,3.23,9.84,6.98,11.51,9.79,.76,1.28,.98,2.36,.54,3.12Z"/>
        <path class="cls-9" d="M74.76,45c-2.75,4.72-21.64-1.15-42.19-13.12C12.02,19.91-2.41,6.37,.34,1.65,.97,.57,2.44,.05,4.58,.02c7.23-.09,22.1,5.52,37.95,14.75,17.15,9.99,30.04,21.07,32.23,27.21,.44,1.21,.45,2.24,0,3.01h0Z"/>
        <path class="cls-4" d="M74.76,45c-2.75,4.72-21.64-1.15-42.19-13.12C12.02,19.91-2.41,6.37,.34,1.65,.97,.57,2.44,.05,4.58,.02c-.1,.29-.46,.74-.3,2.13-.07,.72,1.28,4.01,7.85,9.97,5.9,5.34,14.22,11.25,23.44,16.62,9.22,5.37,18.46,9.7,26.02,12.19,5.43,1.79,8.77,2.21,10.62,2.18,.87-.02,1.68-.39,2.34-.96,.07-.06,.14-.11,.21-.17,.44,1.21,.45,2.24,0,3.01h0Z"/>
        <g>
          <path class="cls-3" d="M59.75,21.92L27.49,3.71c.93-1.41,2.23-1.58,3.8-2.35,4.72-2.32,11.86-1.7,18.36,2.08,6.5,3.79,10.56,9.68,10.87,14.94,.09,1.57-.15,2.16-.77,3.54h0Z"/>
          <path class="cls-12" d="M63.58,35.09h0c-.47,.7-1.29,1.01-1.85,.68l-6.44-3.75L20.84,11.93l-5.89-3.43c-.64-.37-.66-1.38-.05-2.12l.97-1.16c.26-.31,.59-.52,.93-.6l9.91-2.21c1.15-.26,2.24-.1,3.12,.44l30.15,17.56c.83,.51,.96,2.13,1.23,3.16l2.63,10.2c.11,.41,0,.9-.27,1.31h0Z"/>
        </g>
        <g>
          <path class="cls-2" d="M22.91,6.24c-.41,.57-1.18,.72-1.74,.33-.55-.39-.66-1.18-.25-1.75s1.18-.71,1.73-.33c.55,.39,.66,1.17,.25,1.74h0Z"/>
          <path class="cls-6" d="M28.94,10.39c-.39,.58-1.16,.75-1.73,.37-.56-.38-.69-1.16-.29-1.74s1.17-.75,1.73-.37c.56,.38,.69,1.15,.29,1.74Z"/>
          <path class="cls-1" d="M35.07,14.39c-.38,.59-1.15,.78-1.72,.42s-.72-1.14-.34-1.73c.38-.59,1.15-.78,1.72-.42s.72,1.13,.34,1.73Z"/>
          <path class="cls-10" d="M41.3,18.22c-.36,.6-1.13,.82-1.71,.47s-.75-1.13-.38-1.73,1.13-.8,1.7-.45c.57,.35,.75,1.11,.39,1.71Z"/>
          <path class="cls-8" d="M47.65,21.85c-.34,.62-1.09,.85-1.68,.52-.59-.33-.79-1.1-.45-1.71,.35-.61,1.1-.85,1.68-.52s.78,1.09,.45,1.71Z"/>
          <path class="cls-7" d="M54.14,25.23c-.31,.63-1.06,.9-1.67,.61-.61-.3-.83-1.07-.51-1.7,.32-.63,1.06-.87,1.66-.58,.6,.29,.83,1.04,.52,1.67Z"/>
          <path class="cls-5" d="M60.78,28.29c-.27,.65-1,.95-1.62,.68-.62-.28-.9-1.02-.61-1.66s1.01-.95,1.62-.68,.88,1.01,.61,1.66Z"/>
        </g>
      </g>
    </g>
  </g>
</svg>