<?xml version="1.0" encoding="UTF-8"?>
<svg xmlns="http://www.w3.org/2000/svg" xmlns:xlink="http://www.w3.org/1999/xlink" viewBox="0 0 64.93 64.93">
  <defs>
    <style>
      .cls-1 {
        fill: #dddffd;
      }

      .cls-2 {
        fill: url(#linear-gradient-15);
      }

      .cls-3 {
        mix-blend-mode: overlay;
        opacity: .2;
      }

      .cls-4 {
        fill: url(#linear-gradient-6);
      }

      .cls-5 {
        fill: url(#linear-gradient-10);
        opacity: .32;
      }

      .cls-5, .cls-6, .cls-7, .cls-8, .cls-9, .cls-10, .cls-11 {
        mix-blend-mode: multiply;
      }

      .cls-6 {
        fill: url(#linear-gradient-2);
      }

      .cls-6, .cls-7, .cls-8, .cls-9, .cls-11 {
        opacity: .15;
      }

      .cls-12 {
        isolation: isolate;
      }

      .cls-13 {
        stroke: url(#linear-gradient-7);
      }

      .cls-13, .cls-14 {
        fill: none;
        stroke-miterlimit: 10;
        stroke-width: .2px;
      }

      .cls-13, .cls-14, .cls-15, .cls-16, .cls-17, .cls-18 {
        opacity: .3;
      }

      .cls-14 {
        stroke: url(#linear-gradient-16);
      }

      .cls-19 {
        fill: url(#linear-gradient-11);
      }

      .cls-20 {
        filter: url(#drop-shadow-1);
      }

      .cls-7 {
        fill: url(#linear-gradient-17);
      }

      .cls-8 {
        fill: url(#linear-gradient-5);
      }

      .cls-15 {
        fill: url(#linear-gradient-9);
      }

      .cls-16 {
        fill: url(#linear-gradient-12);
      }

      .cls-17 {
        fill: url(#linear-gradient-3);
      }

      .cls-9 {
        fill: url(#linear-gradient-18);
      }

      .cls-18 {
        fill: url(#linear-gradient-14);
      }

      .cls-21 {
        fill: url(#linear-gradient);
      }

      .cls-22 {
        fill: url(#linear-gradient-8);
      }

      .cls-23 {
        fill: url(#linear-gradient-13);
      }

      .cls-11 {
        fill: url(#linear-gradient-4);
      }
    </style>
    <filter id="drop-shadow-1" filterUnits="userSpaceOnUse">
      <feOffset dx="5.12" dy="5.12"/>
      <feGaussianBlur result="blur" stdDeviation="8.53"/>
      <feFlood flood-color="#252266" flood-opacity=".15"/>
      <feComposite in2="blur" operator="in"/>
      <feComposite in="SourceGraphic"/>
    </filter>
    <linearGradient id="linear-gradient" x1="62.68" y1="92.19" x2="4.24" y2="-23.31" gradientUnits="userSpaceOnUse">
      <stop offset="0" stop-color="#712be2"/>
      <stop offset=".99" stop-color="#fff"/>
    </linearGradient>
    <linearGradient id="linear-gradient-2" x1="0" y1="18.87" x2="54.34" y2="18.87" xlink:href="#linear-gradient"/>
    <linearGradient id="linear-gradient-3" x1="13.01" y1="15.56" x2="64.5" y2="15.56" gradientUnits="userSpaceOnUse">
      <stop offset="0" stop-color="#9181fa"/>
      <stop offset=".99" stop-color="#fff"/>
    </linearGradient>
    <linearGradient id="linear-gradient-4" x1="31.91" y1="6.91" x2="32.91" y2="63.29" xlink:href="#linear-gradient"/>
    <linearGradient id="linear-gradient-5" x1="31.57" y1="62.97" x2="24.44" y2="-36.65" gradientUnits="userSpaceOnUse">
      <stop offset="0" stop-color="#712be2"/>
      <stop offset="0" stop-color="#712ce2"/>
      <stop offset=".15" stop-color="#9663e9"/>
      <stop offset=".3" stop-color="#b693f0"/>
      <stop offset=".45" stop-color="#d0b9f5"/>
      <stop offset=".59" stop-color="#e4d8f9"/>
      <stop offset=".73" stop-color="#f3edfc"/>
      <stop offset=".86" stop-color="#fcfafe"/>
      <stop offset=".99" stop-color="#fff"/>
    </linearGradient>
    <linearGradient id="linear-gradient-6" x1="39.18" y1="9.95" x2="42.86" y2="21.91" xlink:href="#linear-gradient-5"/>
    <linearGradient id="linear-gradient-7" x1="-916.03" y1="1945.1" x2="-911.71" y2="1945.1" gradientTransform="translate(770.09 2037.14) rotate(135)" gradientUnits="userSpaceOnUse">
      <stop offset="0" stop-color="#fff"/>
      <stop offset=".99" stop-color="#fff" stop-opacity="0"/>
    </linearGradient>
    <linearGradient id="linear-gradient-8" x1="27.21" y1="28.11" x2="44.36" y2="47.49" xlink:href="#linear-gradient-5"/>
    <linearGradient id="linear-gradient-9" x1="27.21" y1="28.11" x2="44.36" y2="47.49" xlink:href="#linear-gradient-5"/>
    <linearGradient id="linear-gradient-10" x1="55.75" y1="16.62" x2="53.94" y2="9.86" xlink:href="#linear-gradient-3"/>
    <linearGradient id="linear-gradient-11" x1="15.21" y1="30.99" x2="31.01" y2="69.34" xlink:href="#linear-gradient-5"/>
    <linearGradient id="linear-gradient-12" x1="15.21" y1="30.99" x2="31.01" y2="69.34" xlink:href="#linear-gradient-5"/>
    <linearGradient id="linear-gradient-13" x1="45.79" y1="34.73" x2="47.28" y2="40.69" xlink:href="#linear-gradient-5"/>
    <linearGradient id="linear-gradient-14" x1="45.79" y1="34.73" x2="47.28" y2="40.69" xlink:href="#linear-gradient-5"/>
    <linearGradient id="linear-gradient-15" x1="16.51" y1="14.52" x2="16.51" y2="28.32" xlink:href="#linear-gradient-5"/>
    <linearGradient id="linear-gradient-16" x1="-895.49" y1="1959.06" x2="-891.16" y2="1959.06" xlink:href="#linear-gradient-7"/>
    <linearGradient id="linear-gradient-17" x1="63.76" y1="60.67" x2="56.63" y2="-38.95" xlink:href="#linear-gradient-5"/>
    <linearGradient id="linear-gradient-18" x1="12.72" y1="43.78" x2="64.86" y2="43.78" xlink:href="#linear-gradient"/>
  </defs>
  <g class="cls-12">
    <g id="_레이어_2" data-name="레이어 2">
      <g id="OBJECTS">
        <g class="cls-20">
          <circle class="cls-21" cx="32.47" cy="32.47" r="32.47"/>
          <path class="cls-6" d="M45.2,2.59c-2.01,.55-3.97,1.22-5.79,2.23-3.92,2.18-6.85,5.76-10.43,8.47-1.66,1.26-3.51,2.35-5.56,2.77-2.58,.53-5.25-.06-7.86-.44-3.62-.53-7.35-.64-10.93,.11C1.7,20.62,0,26.34,0,32.47c0,.9,.04,1.79,.11,2.67,2.07-.8,4.08-1.89,5.97-3.02,4.58-2.75,9.23-5.93,14.55-6.32,5.72-.43,11.77,2.41,17.01,.08,1.87-.83,3.42-2.26,4.82-3.76,3.14-3.34,5.75-7.13,8.81-10.54,.97-1.08,1.99-2.13,3.07-3.1-2.68-2.44-5.76-4.44-9.15-5.88Z"/>
          <path class="cls-17" d="M64.5,27.19C61.98,11.77,48.6,0,32.47,0c-7.3,0-14.03,2.41-19.45,6.47,.11,.02,.23,.03,.34,.05,1.66,.31,3.29,.77,4.87,1.38,1.57,.61,3.09,1.36,4.52,2.26,.33,.21,.66,.43,.99,.65,8.1,5.64,13.05,15.66,22.29,19.13,5.36,2.01,11.6,1.37,16.57-1.48,.66-.38,1.3-.8,1.91-1.27Z"/>
          <path class="cls-1" d="M20.47,4.29c1.18,0,2.14-.96,2.14-2.14,0-.2-.04-.4-.09-.59-1.36,.44-2.68,.96-3.95,1.56,.36,.69,1.07,1.17,1.9,1.17Z"/>
          <path class="cls-11" d="M64.79,35.44c-1.72,2.18-3.47,4.34-5.34,6.39-4.74,5.2-10.47,9.82-17.27,11.65-7.17,1.93-14.9,.55-21.75-2.31-3.98-1.66-7.82-3.86-10.74-7.03-4.24-4.58-6.25-10.9-6.51-17.14-.15-3.39,.19-6.78,.82-10.12C1.44,21.51,0,26.82,0,32.47c0,17.93,14.54,32.47,32.47,32.47,16.93,0,30.82-12.95,32.32-29.49Z"/>
          <path class="cls-8" d="M31.68,61.37c-2.11,0-3.13,1.69-3.05,3.33,1.26,.15,2.54,.23,3.84,.23,.76,0,1.51-.04,2.26-.09,.14-1.68-.87-3.48-3.05-3.48Z"/>
          <g class="cls-3">
            <path class="cls-4" d="M42.97,15.56c0,1.14-.92,2.06-2.06,2.06s-2.06-.92-2.06-2.06,.92-2.06,2.06-2.06,2.06,.92,2.06,2.06Z"/>
            <path class="cls-13" d="M39.44,17.02c-.81-.81-.81-2.11,0-2.92,.81-.81,2.11-.81,2.92,0s.81,2.11,0,2.92c-.81,.81-2.11,.81-2.92,0Z"/>
          </g>
          <g>
            <path class="cls-22" d="M33.71,33.76c0,.83-.67,1.5-1.5,1.5s-1.5-.67-1.5-1.5,.67-1.5,1.5-1.5,1.5,.67,1.5,1.5Z"/>
            <circle class="cls-15" cx="32.21" cy="33.76" r="1.5"/>
          </g>
          <path class="cls-5" d="M57.23,12.78s.06-.08,.09-.12c.04-.05,.08-.1,.11-.15,.03-.05,.06-.1,.09-.15,.03-.05,.06-.09,.08-.14,.03-.05,.05-.1,.07-.16,0,0,0-.02,.01-.03-1.36-1.68-2.89-3.23-4.56-4.61-.02,0-.04,.02-.06,.03-.05,.02-.11,.05-.16,.08-.05,.03-.09,.05-.14,.08-.05,.03-.1,.06-.15,.09-.05,.03-.1,.07-.15,.11-.04,.03-.08,.06-.12,.09-.09,.07-.17,.15-.25,.23-.08,.08-.16,.17-.23,.25-.03,.04-.06,.08-.09,.12-.04,.05-.07,.1-.11,.15-.03,.05-.06,.1-.09,.15-.03,.05-.06,.09-.08,.14-.03,.05-.05,.1-.08,.16-.02,.05-.05,.1-.07,.15-.02,.05-.04,.1-.06,.16-.02,.05-.04,.11-.06,.16-.02,.05-.03,.11-.04,.16-.01,.06-.03,.11-.04,.17-.01,.06-.02,.12-.03,.19,0,.05-.02,.1-.02,.15-.01,.11-.02,.23-.02,.34s0,.23,.02,.34c0,.05,.01,.1,.02,.15,0,.06,.02,.13,.03,.19,.01,.06,.03,.11,.04,.17,.01,.05,.02,.11,.04,.16,.02,.06,.04,.11,.06,.16,.02,.05,.04,.1,.06,.16,.02,.05,.05,.1,.07,.15,.02,.05,.05,.11,.08,.16,.03,.05,.05,.09,.08,.14,.03,.05,.06,.1,.09,.15,.03,.05,.07,.1,.11,.15,.03,.04,.06,.08,.09,.12,.07,.09,.15,.17,.23,.25,.08,.08,.17,.16,.25,.23,.04,.03,.08,.06,.12,.09,.05,.04,.1,.07,.15,.11,.05,.03,.1,.06,.15,.09,.05,.03,.09,.06,.14,.08,.05,.03,.1,.05,.16,.08,.05,.02,.1,.05,.15,.07,.05,.02,.1,.04,.16,.06,.05,.02,.11,.04,.16,.06,.05,.02,.11,.03,.16,.04,.06,.01,.11,.03,.17,.04,.06,.01,.12,.02,.19,.03,.05,0,.1,.02,.15,.02,.11,.01,.23,.02,.34,.02s.23,0,.34-.02c.05,0,.1-.01,.15-.02,.06,0,.13-.02,.19-.03,.06-.01,.11-.03,.17-.04,.05-.01,.11-.02,.16-.04,.06-.02,.11-.04,.17-.06,.05-.02,.1-.04,.15-.06,.05-.02,.1-.05,.15-.07,.05-.02,.11-.05,.16-.08,.05-.03,.09-.05,.14-.08,.05-.03,.1-.06,.15-.09,.05-.03,.1-.07,.15-.11,.04-.03,.08-.06,.12-.09,.09-.07,.17-.15,.25-.23,.08-.08,.16-.17,.23-.25Z"/>
          <g>
            <circle class="cls-19" cx="18.57" cy="39.15" r="5.39"/>
            <path class="cls-16" d="M14.76,42.96c-2.11-2.11-2.11-5.52,0-7.63s5.52-2.11,7.63,0,2.11,5.52,0,7.63c-2.11,2.11-5.52,2.11-7.63,0Z"/>
          </g>
          <g class="cls-10">
            <path class="cls-23" d="M48.56,38.62c0,.99-.8,1.79-1.79,1.79s-1.79-.8-1.79-1.79,.8-1.79,1.79-1.79,1.79,.8,1.79,1.79Z"/>
            <path class="cls-18" d="M45.5,39.89c-.7-.7-.7-1.83,0-2.53s1.83-.7,2.53,0,.7,1.83,0,2.53c-.7,.7-1.83,.7-2.53,0Z"/>
          </g>
          <g>
            <circle class="cls-2" cx="16.51" cy="20.22" r="2.06"/>
            <path class="cls-14" d="M15.05,21.68c-.81-.81-.81-2.11,0-2.92,.81-.81,2.11-.81,2.92,0s.81,2.11,0,2.92-2.11,.81-2.92,0Z"/>
          </g>
          <path class="cls-7" d="M60.73,43.85c0,1.03,.37,1.98,.99,2.71,1.04-2.16,1.84-4.45,2.39-6.83-1.93,.38-3.38,2.08-3.38,4.12Z"/>
          <path class="cls-9" d="M63.66,23.43c-.83,.24-1.65,.51-2.46,.82-3.75,1.47-7.21,3.89-9.43,7.24-1.51,2.28-2.45,4.97-4.32,6.96-2.16,2.3-5.3,3.38-8.34,4.23-5.75,1.6-11.73,2.69-17,5.49-1.64,.87-3.19,1.94-4.57,3.19-2.1,1.89-3.84,4.21-4.81,6.86,3.64,2.79,7.89,4.83,12.51,5.89,1.89-4.29,5.52-7.83,9.95-9.43,2.9-1.05,6.04-1.3,8.95-2.34,.88-.31,1.75-.71,2.46-1.32,.97-.84,1.56-2.03,2.14-3.18,3.37-6.73,7.47-13.77,14.34-16.82,.59-.26,1.19-.48,1.79-.68-.15-2.39-.56-4.7-1.2-6.92Z"/>
        </g>
      </g>
    </g>
  </g>
</svg>