<?xml version="1.0" encoding="UTF-8"?>
<svg xmlns="http://www.w3.org/2000/svg" viewBox="0 0 141.13 180.97">
  <defs>
    <style>
      .cls-1 {
        fill: #da9db6;
      }

      .cls-2 {
        fill: #b34c85;
        opacity: .2;
      }

      .cls-2, .cls-3, .cls-4 {
        mix-blend-mode: multiply;
      }

      .cls-5 {
        isolation: isolate;
      }

      .cls-6 {
        fill: #a15a7d;
      }

      .cls-7 {
        fill: #c97f93;
      }

      .cls-8 {
        fill: #98c5ed;
      }

      .cls-9 {
        fill: #9bbedc;
      }

      .cls-10 {
        fill: #d691ae;
      }

      .cls-11 {
        fill: #f7ceb2;
      }

      .cls-12 {
        fill: #a17eaa;
      }

      .cls-13 {
        fill: #725889;
      }

      .cls-14 {
        fill: #c16797;
      }

      .cls-15 {
        fill: #705a79;
      }

      .cls-3 {
        fill: #ca878d;
        opacity: .4;
      }

      .cls-16 {
        fill: #b38879;
      }

      .cls-4 {
        fill: #5a287f;
        opacity: .1;
      }
    </style>
  </defs>
  <g class="cls-5">
    <g id="_레이어_2" data-name="레이어 2">
      <g id="Objects">
        <g>
          <g>
            <path class="cls-10" d="M57.94,128.69l-.68-9.29-.07-.32c12.45-2.86,19.87-13.89,20.47-18.89,.43-3.58-1.95-6.81-1.95-6.81,0,0,.07-7.6-.36-10.06,1.37,.24,2.76,.42,4.18,.54l1.78,.16c-.09,1.02-.2,2.08-.33,3.16-.3,2.51,.69,8.93,2.12,13.35,2.21,6.8,8.57,8.86,7.12,15.47-.93,4.27-3.24,3.34-4.08,6.12-.56,1.89,5.41,10.63-3.69,16.24-2.07-3.43-4.31-6.23-6.66-7.74-7.65-4.93-17.85-1.87-17.85-1.87v-.06Z"/>
            <path class="cls-11" d="M86.64,146.51c4.74,10.59,7.85,22.2,7.85,22.2,0,0-4.99,4.36-15.73,7.88l-.08-.4c-1.24-6.49-3.14-13.65-4.84-19.53l.08-.02c9.24-2.55,12.36-9.29,12.72-10.13Z"/>
            <path class="cls-12" d="M82.45,138.36c1.5,2.47,2.9,5.27,4.19,8.15-.36,.84-3.48,7.58-12.72,10.13l-.08,.02c1.7,5.88,3.6,13.04,4.84,19.53l.08,.4c-6.89,2.25-16.14,4.16-27.96,4.36-11.59,.2-20.71-1.15-27.55-2.89,1.09-7.28,2.29-13.78,3.35-19.05-11.16-.29-14.59-4.87-15.28-6.03,.81-2.77,1.72-5.58,2.74-8.22,1.62-4.2,3.5-7.96,5.62-10.4,7.99-9.18,24.65-5.27,24.65-5.27l.02-.23c1.16,.81,3.19,1.65,6.62,1.76,3.66,.12,5.79-.93,6.97-1.93v.06s10.2-3.06,17.85,1.87c2.35,1.51,4.59,4.31,6.66,7.74Z"/>
            <path class="cls-10" d="M44.35,128.86l-.02,.23s-16.66-3.91-24.65,5.27c-2.12,2.44-4,6.2-5.62,10.4l-1.31,.57s-8.68,.59-10.07-4.34c-1.66-5.86,2.44-7.29,2.04-10.03-.51-3.48-5.61-3.36-4.59-10.24,.84-5.72,5.23-6.38,7.31-11.18,2.63-6.07,.33-27.68,6.12-40.13,2.4-5.17,5.34-8.21,8.13-9.99,5.1-3.24,9.72-2.25,9.72-2.25,0,0,1.85-2.49,5.56-4.84,5.64-3.58,15.62-6.86,29.98-.6,12.5,5.44,15.95,14.72,14.36,32.29l-1.78-.16c-1.42-.12-2.81-.3-4.18-.54-22.31-3.93-37.48-23.18-37.48-23.18,0,0-1.19,23.85-12.66,35.96,0,0-3.36-2.88-6.55,.18-3.19,3.06-1.06,13.85,9.35,11.56,0,0,6.32,8.69,17,11.23l-.66,9.79Z"/>
            <path class="cls-11" d="M75.71,93.38s.07-7.6-.36-10.06c-22.31-3.93-37.48-23.18-37.48-23.18,0,0-1.19,23.85-12.66,35.96,0,0-3.36-2.88-6.55,.18-3.19,3.06-1.06,13.85,9.35,11.56,0,0,6.32,8.69,17,11.23l-.66,9.79c1.16,.81,3.19,1.65,6.62,1.76,3.66,.12,5.79-.93,6.97-1.93l-.68-9.29-.07-.32c12.45-2.86,19.87-13.89,20.47-18.89,.43-3.58-1.95-6.81-1.95-6.81Z"/>
            <path class="cls-4" d="M57.19,119.08c-2.35,.55-4.88,.8-7.58,.66-1.61-.08-3.15-.31-4.6-.67l-.08,1.25c4.2,1.48,8.4,2.41,12.59,2.62l-.26-3.55-.07-.32Z"/>
            <path class="cls-7" d="M32.94,37.78c6.26,4.63,4.55,12.64,4.03,14.55-3.71,2.35-5.56,4.84-5.56,4.84,0,0-4.62-.99-9.72,2.25l-.14-.21s-10.37-1.7-7.99-13.6c2.09-10.45,14.84-11.18,19.38-7.83Z"/>
            <path class="cls-11" d="M26.6,159.01c-1.06,5.27-2.26,11.77-3.35,19.05-11.03-2.81-16.15-6.63-16.15-6.63,0,0,1.48-9,4.22-18.45,.69,1.16,4.12,5.74,15.28,6.03Z"/>
          </g>
          <path class="cls-13" d="M43.96,127.79s.23,.08,.62,.22c.17,.05,.39,.11,.63,.18,.26,.07,.55,.14,.87,.23,.33,.07,.67,.16,1.04,.23,.37,.08,.76,.14,1.16,.21,.4,.08,.82,.11,1.25,.16,.42,.07,.85,.06,1.28,.1h.16s.08,.01-.02,.01h.04s.09,0,.09,0h.36s.71,.01,.71,.01c.4-.02,.8-.03,1.18-.05,.38-.06,.78-.06,1.12-.13,.36-.05,.69-.12,.99-.19,.31-.06,.57-.16,.82-.22,.24-.08,.45-.16,.62-.22,.34-.15,.54-.23,.54-.23l.07-.03c.41-.17,.88,.02,1.06,.43,.12,.28,.07,.58-.11,.81,0,0-.17,.21-.5,.56-.35,.32-.88,.78-1.61,1.15-.18,.09-.37,.19-.57,.29-.2,.07-.42,.15-.63,.23-.44,.18-.91,.26-1.4,.38-.49,.09-1.05,.16-1.56,.19l-.71,.02h-.36s-.09,.01-.09,.01h-.15s-.19-.02-.19-.02c-.52-.05-1.04-.07-1.54-.17-.5-.09-.99-.19-1.46-.33-.47-.11-.91-.29-1.32-.45-.42-.14-.79-.35-1.14-.52-.35-.17-.65-.38-.92-.54-.28-.18-.52-.37-.71-.51-.33-.29-.49-.46-.49-.46l-.02-.02c-.31-.33-.29-.84,.04-1.14,.23-.21,.55-.27,.83-.17Z"/>
          <path class="cls-15" d="M29.97,145.13s-.11,.51-.3,1.41c-.19,.9-.47,2.19-.77,3.73-.31,1.54-.67,3.34-1.06,5.27-.2,.96-.41,1.96-.62,2.97-.22,.98-.36,2.05-.55,3.07-.37,2.07-.75,4.14-1.1,6.08-.37,1.94-.71,3.74-1,5.29-.62,3.09-1.04,5.15-1.04,5.15-.03,.14-.17,.24-.31,.21-.14-.03-.23-.16-.21-.3,0,0,.31-2.08,.78-5.2,.25-1.56,.55-3.37,.86-5.32,.33-1.94,.68-4.01,1.04-6.09,.19-1.04,.35-2.06,.58-3.09,.22-1.01,.44-2.01,.66-2.97,.44-1.92,.85-3.72,1.21-5.26,.34-1.54,.73-2.8,.96-3.69,.24-.89,.38-1.39,.38-1.39,.04-.14,.18-.22,.32-.18,.14,.04,.22,.18,.19,.31Z"/>
          <path class="cls-15" d="M70.27,144.31s.67,1.95,1.66,4.88c.48,1.47,1.04,3.18,1.64,5.02,.29,.93,.61,1.85,.89,2.86,.27,.98,.54,1.97,.82,2.96,.53,1.99,1.06,3.98,1.56,5.85,.23,.94,.4,1.86,.59,2.73,.18,.87,.35,1.69,.51,2.45,.6,3.04,1.01,5.07,1.01,5.07,.03,.14-.06,.28-.21,.31-.14,.03-.27-.06-.31-.19v-.02s-.51-2-1.26-4.99c-.36-1.5-.78-3.25-1.23-5.12-.52-1.86-1.07-3.85-1.62-5.83-.27-1-.53-1.99-.8-2.97-.25-.94-.58-1.92-.85-2.84-.55-1.85-1.06-3.58-1.51-5.06-.84-2.98-1.41-4.96-1.41-4.96-.04-.14,.04-.29,.18-.33,.14-.04,.28,.04,.32,.17Z"/>
          <path class="cls-14" d="M38.14,59.93s.52,.55,1.46,1.5c.94,.95,2.32,2.26,4.03,3.78,.84,.77,1.81,1.55,2.79,2.41,1.03,.8,2.07,1.7,3.22,2.54,.57,.43,1.15,.86,1.73,1.3,.6,.42,1.21,.84,1.82,1.26,1.2,.89,2.53,1.62,3.79,2.45,1.3,.76,2.62,1.52,3.93,2.21,.67,.33,1.33,.66,1.98,.98,.65,.33,1.3,.65,1.96,.9,1.32,.51,2.54,1.15,3.79,1.52,.61,.21,1.21,.42,1.79,.62,.58,.21,1.14,.41,1.69,.53,1.1,.3,2.11,.57,3,.82,.86,.22,1.71,.33,2.36,.46,1.32,.25,2.08,.41,2.08,.41,.14,.03,.22,.16,.2,.3-.03,.12-.14,.21-.26,.2,0,0-.77-.04-2.11-.13-.68-.07-1.46-.08-2.44-.22-.93-.16-1.99-.35-3.14-.54-1.16-.19-2.36-.59-3.65-.94-1.31-.32-2.61-.88-3.98-1.37-.69-.24-1.37-.54-2.05-.86-.68-.31-1.38-.63-2.07-.95-1.37-.69-2.73-1.45-4.08-2.22-1.31-.84-2.66-1.63-3.89-2.54-.62-.45-1.24-.89-1.85-1.32-.59-.47-1.17-.93-1.74-1.38-1.16-.88-2.18-1.86-3.19-2.73-.96-.92-1.89-1.77-2.69-2.63-.82-.82-1.53-1.62-2.15-2.34-.62-.71-1.14-1.35-1.57-1.87-.85-1.06-1.28-1.71-1.28-1.71-.1-.15-.07-.36,.09-.47,.14-.09,.32-.07,.44,.05Z"/>
          <path class="cls-14" d="M24.96,95.88s.34-.5,.97-1.36c.3-.43,.74-.93,1.1-1.56,.37-.63,.78-1.32,1.25-2.06,.44-.77,.85-1.65,1.34-2.54,.48-.9,.86-1.92,1.34-2.92,.45-1.02,.82-2.12,1.27-3.2,.39-1.11,.77-2.24,1.15-3.37,.33-1.15,.72-2.28,1.01-3.42,.3-1.14,.63-2.25,.87-3.35,.27-1.09,.52-2.15,.73-3.16,.23-1.01,.4-1.97,.59-2.85,.33-1.77,.63-3.26,.78-4.3,.17-1.04,.27-1.64,.27-1.64,.02-.14,.15-.23,.29-.21,.12,.02,.21,.12,.21,.24,0,0,.03,.62,0,1.68-.03,1.07-.08,2.6-.25,4.42-.11,.91-.18,1.9-.35,2.94-.15,1.04-.3,2.14-.54,3.26-.2,1.13-.47,2.29-.75,3.46-.27,1.18-.65,2.35-.97,3.53-.37,1.17-.79,2.33-1.2,3.47-.47,1.12-.9,2.23-1.41,3.27-.53,1.03-.99,2.05-1.55,2.96-.56,.91-1.06,1.77-1.6,2.53-.56,.75-1.09,1.43-1.56,2.02-.46,.6-.95,1.02-1.3,1.41-.74,.76-1.18,1.18-1.18,1.18-.13,.13-.35,.12-.48,0-.11-.12-.12-.29-.03-.42Z"/>
          <path class="cls-16" d="M19.71,101.44s-.03-.16-.03-.4c0-.25,.02-.61,.14-1.04,.12-.43,.36-.95,.81-1.38,.22-.22,.49-.42,.8-.55,.15-.08,.31-.12,.46-.17,.1-.02,.11-.05,.29-.07l.19-.02c.1-.02,.32-.02,.51,0,.21,0,.35,.06,.52,.09,.32,.09,.6,.24,.85,.39,.49,.32,.84,.72,1.08,1.06,.25,.35,.39,.67,.5,.89,.1,.22,.14,.37,.14,.37,.06,.21-.06,.44-.28,.5-.15,.04-.31,0-.41-.11l-.02-.02s-.08-.09-.22-.24c-.14-.16-.35-.37-.61-.6-.13-.12-.27-.23-.42-.34-.15-.11-.32-.2-.48-.29-.17-.08-.34-.14-.51-.18-.08-.01-.18-.04-.23-.03-.06,0-.1-.02-.25,0l-.19,.02c.06-.02-.06,.02-.08,.02-.09,.02-.18,.04-.25,.08-.16,.06-.31,.15-.44,.25-.27,.21-.48,.49-.64,.78-.15,.28-.28,.55-.34,.74-.07,.2-.11,.29-.1,.3v.03c-.09,.21-.32,.32-.53,.24-.14-.05-.24-.17-.26-.31Z"/>
          <path class="cls-6" d="M62.43,76.64s.56,.41,.85,.6c.57,.4,1.36,.86,2.17,1.15,.4,.17,.81,.27,1.2,.37,.19,.06,.39,.06,.57,.11,.18,.04,.36,.05,.52,.07,.66,.09,2.73-.28,3.02,1.43,.3,1.81-3,2.6-5.86,1.85-3.44-.9-4.82-2.93-5.07-4.24-.24-1.23,.55-1.75,1.32-1.84,.47-.06,1.24,.49,1.27,.5Z"/>
          <path class="cls-6" d="M40.68,78.19s-.47,.52-.71,.77c-.48,.51-1.15,1.12-1.88,1.58-.35,.25-.74,.43-1.1,.61-.18,.1-.37,.14-.54,.22-.17,.08-.34,.12-.5,.17-.63,.22-2.73,.29-2.66,2.02,.08,1.83,3.48,1.92,6.12,.6,3.17-1.59,4.11-3.87,4.08-5.2-.02-1.25-.9-1.6-1.67-1.53-.47,.04-1.11,.74-1.14,.75Z"/>
          <path class="cls-3" d="M56.75,91.37c.08,1.44-1.51,2.7-3.55,2.82-2.04,.11-3.76-.96-3.84-2.41-.08-1.44,1.51-2.7,3.55-2.82,2.04-.11,3.76,.96,3.84,2.41Z"/>
          <path class="cls-1" d="M51.01,146.45s.17-2.81-3.49-3.49c-3.66-.68-5.78,4.08-3.66,7.74,2.12,3.66,8.33,7.91,8.76,7.82,.43-.08-1.1-5.44-1.1-5.44,0,0,1.61-2.04,1.36-2.55-.27-.54-2.89-1.11-2.89-1.11l1.02-2.98Z"/>
          <path class="cls-1" d="M58.03,141.94c2.74,.31,4.91,3.59,3.06,8.03-1.49,3.57-6.46,8.42-6.46,8.42,0,0-.64-3.4-1.15-4.97-.14-.43,1.95-2.72,1.74-3.76-.08-.37-2.74-1.47-3-1.66-.25-.19,1.68-6.52,5.8-6.06Z"/>
          <path d="M46.7,102.11s.02-.06,.07-.18c.05-.12,.11-.29,.22-.49,.21-.4,.52-.99,1.02-1.6,.5-.61,1.15-1.29,2-1.86,.84-.57,1.87-1,2.95-1.2,.14-.03,.25-.05,.43-.08l.37-.03c.3-.02,.59-.02,.86,0,.56,.03,1.1,.16,1.59,.34,1,.35,1.78,.96,2.36,1.51,.59,.56,.94,1.13,1.19,1.52,.12,.2,.2,.36,.25,.48,.06,.12,.08,.19,.08,.19,.11,.21,.03,.46-.17,.57-.21,.11-.46,.03-.57-.17,0,.01-.13-.17-.4-.48-.26-.31-.69-.71-1.22-1.14-.53-.43-1.23-.8-1.99-1.03-.39-.12-.79-.18-1.21-.2-.21,0-.42,0-.61,0l-.37,.04-.3,.06c-.44,.07-.87,.19-1.27,.35-.41,.15-.8,.34-1.16,.55-.73,.42-1.37,.93-1.85,1.43-.49,.5-.88,.94-1.12,1.28-.25,.34-.37,.52-.37,.52v.02c-.14,.2-.4,.25-.6,.12-.17-.11-.23-.32-.16-.5Z"/>
          <g>
            <path class="cls-12" d="M91.17,53.72c9.1,6.17,20.74,6.4,28.49,4.4,17.05-4.42,24.83-21.15,20.09-37.15-3.39-11.43-21.24-29.68-43.47-16.2-21.52,13.06-9.14,44.03-9.14,44.03,0,0-4.93,6.85-4.79,7.35,.13,.5,8.83-2.42,8.83-2.42Z"/>
            <path d="M107.46,40.1s-.01-.08-.03-.24c-.02-.16-.05-.38-.06-.66-.02-.56-.05-1.38,.12-2.36,.07-.49,.2-1.02,.39-1.57,.18-.55,.45-1.12,.79-1.68,.37-.55,.8-1.1,1.36-1.54,.56-.45,1.16-.83,1.89-1.07,.49-.19,1.4-.4,2.1-.38,.36,0,.72,.02,1.06,.1,.35,.05,.68,.15,.99,.27,.64,.21,1.18,.54,1.67,.86,.49,.33,.89,.69,1.25,1.04,.7,.7,1.16,1.38,1.47,1.85,.16,.23,.26,.44,.33,.57,.07,.14,.11,.22,.11,.22,.13,.26,.03,.58-.23,.71-.22,.11-.49,.06-.64-.12l-.03-.04s-.04-.05-.13-.15c-.09-.1-.23-.25-.4-.44-.34-.38-.87-.89-1.55-1.41-.67-.52-1.51-1.04-2.45-1.31-.23-.08-.47-.13-.71-.15-.24-.05-.48-.04-.73-.03-.26-.02-.46,.04-.68,.07-.19,0-.52,.14-.8,.23-.44,.15-.91,.42-1.29,.71-.39,.31-.73,.67-1.03,1.07-.27,.41-.52,.83-.72,1.27-.19,.43-.35,.87-.47,1.28-.24,.82-.38,1.55-.44,2.05-.03,.25-.06,.45-.07,.59-.01,.13-.02,.21-.02,.21v.03c-.03,.29-.29,.5-.58,.48-.25-.02-.44-.21-.47-.45Z"/>
            <path d="M116.94,24.98s.11,.09,.32,.26c.21,.17,.51,.4,.87,.64,.36,.24,.79,.47,1.22,.6,.22,.07,.43,.09,.64,.1,.21,.01,.41-.03,.61-.09h.04s.02-.01,.02-.01c-.03,.01,.08-.03-.07,.03h0s0,0,0,0h.01s.11-.05,.11-.05l.23-.09c.14-.07,.14-.1,.23-.14,.16-.12,.32-.25,.45-.43,.27-.34,.46-.78,.6-1.18,.26-.81,.34-1.46,.34-1.43-.03-.29,.18-.55,.47-.58,.29-.03,.55,.18,.58,.47,0,.01,.06,.19,.11,.5,.05,.31,.1,.77,.05,1.33-.05,.56-.19,1.25-.6,1.93-.21,.34-.48,.67-.83,.95-.19,.13-.45,.3-.6,.37l-.22,.1-.11,.05-.1,.04h-.04s-.08,.04-.08,.04c-.42,.13-.88,.19-1.31,.15-.44-.02-.85-.14-1.2-.3-.72-.31-1.24-.76-1.61-1.17-.38-.41-.62-.79-.78-1.07-.15-.27-.23-.46-.22-.46-.16-.24-.1-.57,.14-.73,.24-.16,.57-.1,.73,.14Z"/>
            <path d="M97.1,31.45s.11,.09,.32,.26c.21,.17,.51,.4,.87,.64,.36,.24,.79,.47,1.22,.6,.22,.07,.43,.09,.64,.1,.21,.01,.41-.03,.61-.09h.04s.02-.01,.02-.01c-.03,.01,.08-.03-.07,.03h0s0,0,0,0h.01s.11-.05,.11-.05l.23-.09c.15-.07,.14-.1,.23-.14,.15-.12,.32-.25,.45-.43,.27-.34,.46-.77,.6-1.18,.26-.81,.34-1.46,.34-1.43-.03-.29,.18-.55,.47-.58,.29-.03,.55,.18,.58,.47,0,.01,.06,.19,.11,.5,.05,.31,.1,.77,.05,1.33-.05,.56-.19,1.25-.6,1.93-.21,.34-.48,.67-.83,.95-.19,.13-.45,.3-.6,.37l-.22,.1-.11,.05-.1,.04h-.04s-.08,.04-.08,.04c-.42,.13-.88,.19-1.31,.15-.44-.02-.85-.14-1.2-.3-.72-.31-1.24-.76-1.61-1.17-.38-.41-.62-.79-.78-1.07-.15-.27-.23-.46-.22-.46-.16-.24-.1-.57,.14-.73,.24-.16,.57-.1,.73,.14Z"/>
            <path class="cls-8" d="M126.72,25.92c-.27,.1,.92,4.94,2.46,4.03,1.79-1.06-1.5-4.4-2.46-4.03Z"/>
          </g>
          <g>
            <path d="M36.34,89.25s.1,.16,.29,.45c.19,.29,.48,.69,.86,1.12,.38,.42,.86,.86,1.41,1.16,.55,.3,1.17,.45,1.83,.4,.19-.02,.29-.02,.51-.06,.1-.03,.25-.06,.39-.12,.28-.11,.54-.26,.78-.46,.48-.39,.88-.92,1.18-1.41,.3-.49,.52-.95,.66-1.26,.14-.31,.21-.49,.21-.49l.03-.06c.12-.27,.43-.39,.7-.27,.21,.09,.33,.3,.32,.52,0,0,0,.06-.01,.18,0,.11-.02,.27-.05,.47-.06,.4-.17,.96-.42,1.62-.25,.66-.65,1.42-1.35,2.11-.35,.34-.78,.65-1.27,.87-.24,.11-.5,.2-.81,.27l-.36,.07-.39,.04c-1.04,.07-2.15-.23-2.94-.78-.81-.54-1.36-1.23-1.72-1.83-.37-.61-.57-1.15-.69-1.54-.12-.38-.16-.63-.16-.63-.05-.29,.15-.57,.44-.61,.22-.04,.42,.07,.53,.24l.02,.03Z"/>
            <path d="M35.11,94.31c-.11-.22,.62-.49,1.24-1.1,.29-.28,.55-.63,.74-.98,.16-.28,.94,.23,.9,.66-.03,.24-.44,.68-1.08,1-.49,.24-1.68,.62-1.79,.41Z"/>
            <path d="M36.99,95.54c-.14-.2,.54-.58,1.05-1.27,.24-.32,.44-.71,.58-1.08,.11-.3,.97,.09,.99,.51,.01,.25-.33,.74-.92,1.16-.44,.31-1.56,.87-1.7,.68Z"/>
          </g>
          <g>
            <path d="M70.01,86.6s.04,.26,.05,.69c0,.43-.02,1.05-.2,1.79-.18,.73-.53,1.62-1.23,2.4-.34,.39-.79,.75-1.28,1-.51,.26-1.02,.43-1.6,.51-.18,.03-.53,.06-.83,.05-.28,0-.57-.04-.85-.11-.56-.13-1.07-.37-1.5-.66-.86-.6-1.41-1.35-1.78-2-.37-.66-.57-1.24-.69-1.64-.06-.2-.09-.37-.12-.48-.02-.12-.04-.19-.04-.19-.06-.29,.13-.56,.41-.62,.23-.05,.45,.06,.56,.26l.03,.06s.1,.18,.28,.5c.19,.32,.47,.77,.86,1.25,.39,.47,.88,.97,1.46,1.29,.29,.16,.59,.27,.91,.33,.16,.03,.32,.04,.49,.04,.16,0,.26,0,.53-.05,.31-.06,.67-.16,.96-.3,.3-.15,.56-.34,.8-.56,.47-.45,.82-1.04,1.07-1.59,.24-.55,.4-1.06,.5-1.42,.09-.35,.14-.55,.14-.55v-.04c.08-.29,.37-.46,.66-.39,.21,.05,.36,.23,.4,.43Z"/>
            <path d="M71.72,91c.04-.24-.74-.27-1.52-.65-.36-.18-.72-.43-1.01-.69-.24-.22-.82,.52-.64,.91,.1,.23,.63,.51,1.35,.61,.54,.08,1.79,.06,1.82-.18Z"/>
            <path d="M70.32,92.76c.07-.23-.69-.38-1.4-.87-.33-.23-.65-.53-.89-.84-.2-.25-.89,.39-.77,.8,.07,.24,.55,.6,1.24,.81,.52,.16,1.76,.33,1.83,.1Z"/>
          </g>
          <path class="cls-2" d="M73.25,100.46c0,2.67-2.2,4.83-4.92,4.83s-4.92-2.16-4.92-4.83,2.2-4.83,4.92-4.83,4.92,2.16,4.92,4.83Z"/>
          <path class="cls-2" d="M44.75,102.29c0,2.67-2.2,4.83-4.92,4.83s-4.92-2.16-4.92-4.83,2.2-4.83,4.92-4.83,4.92,2.16,4.92,4.83Z"/>
          <path class="cls-9" d="M35.08,95.69c-.34-.09-2.95,3.4-1.45,4.22,1.5,.82,1.99-4.08,1.45-4.22Z"/>
        </g>
      </g>
    </g>
  </g>
</svg>