<?xml version="1.0" encoding="UTF-8"?>
<svg id="_레이어_2" data-name="레이어 2" xmlns="http://www.w3.org/2000/svg" viewBox="0 0 77.83 77.82">
  <defs>
    <style>
      .cls-1 {
        fill: #845730;
      }

      .cls-2 {
        fill: #f4d7a9;
      }

      .cls-3 {
        fill: #9e653b;
      }

      .cls-4 {
        fill: #ca9762;
      }

      .cls-5 {
        opacity: .4;
      }

      .cls-6 {
        fill: #e0b289;
      }

      .cls-7 {
        fill: #b28054;
      }

      .cls-8 {
        fill: #cc9d67;
      }
    </style>
  </defs>
  <g id="OBJECTS">
    <g>
      <g>
        <path class="cls-4" d="M22.92,51.56c7.47-.76,14.03-5.64,21.04-8.08,3.51-1.07,7.47-.15,10.98-1.37,2.75-.91,5.34-3.05,7.93-4.27,3.81-1.83,7.47-4.12,11.59-5.03,.91-.2,1.86-.29,2.83-.34-.97-5.82-3.24-11.2-6.49-15.85-2.9,.31-5.76,.83-8.54,1.85-2.9,.92-5.03,2.13-7.93,2.74-3.2,.46-6.56,.92-9.76,1.68-8.38,1.83-16.31,4.57-24.7,6.41-6.4,1.28-13.33,4.91-19.72,6.41-.09,1.06-.14,2.12-.14,3.21,0,.24,.01,.47,.02,.71,4.17-.37,8.68-2.61,12.22-4.08,3.05-1.37,6.25-2.29,9.45-2.44,2.44-.31,4.88,.3,7.17-.46,4.58-1.52,8.69-4.12,13.57-4.73,4.27-.46,8.39-.92,12.35-2.44-3.66,2.74-9.15,2.9-13.42,4.42-5.49,1.98-11.44,2.44-16.93,4.73-2.44,1.07-3.96,2.75-5.95,4.27-2.29,1.68-5.03,2.29-7.62,3.35-3.41,1.46-6.65,3.35-9.92,5.17,.77,3.43,1.98,6.7,3.59,9.72,2.64-1.33,4.74-3.44,7.55-4.37,3.66-1.22,7.01-.92,10.83-1.22Z"/>
        <path class="cls-1" d="M18.49,38.9c1.98-1.52,3.51-3.2,5.95-4.27,5.49-2.29,11.44-2.74,16.93-4.73,4.27-1.53,9.76-1.68,13.42-4.42-3.96,1.52-8.08,1.98-12.35,2.44-4.88,.61-9,3.2-13.57,4.73-2.29,.76-4.73,.15-7.17,.46-3.2,.15-6.4,1.07-9.45,2.44-3.54,1.47-8.06,3.71-12.22,4.08,.05,2.68,.37,5.29,.93,7.81,3.27-1.82,6.51-3.71,9.92-5.17,2.59-1.07,5.34-1.68,7.62-3.35Z"/>
        <path class="cls-2" d="M44.57,22.89c3.2-.76,6.56-1.22,9.76-1.68,2.9-.61,5.03-1.83,7.93-2.74,2.79-1.02,5.65-1.54,8.54-1.85-2.78-3.97-6.28-7.4-10.31-10.09-3.67,.43-7.33,.89-10.89,1.88-4.88,1.22-9.45,2.13-14.18,4.12-5.79,2.29-12.2,2.13-18.3,3.35-4.95,.93-8.85,2.91-12.75,5.13C2.05,25.47,.57,30.44,.14,35.71c6.39-1.5,13.32-5.13,19.72-6.41,8.38-1.83,16.31-4.58,24.7-6.41Z"/>
        <path class="cls-4" d="M35.42,12.52c4.73-1.98,9.3-2.9,14.18-4.12,3.55-.98,7.22-1.44,10.89-1.88C54.31,2.41,46.89,0,38.91,0,23.88,0,10.85,8.53,4.37,21c3.9-2.22,7.8-4.2,12.75-5.13,6.1-1.22,12.5-1.07,18.3-3.35Z"/>
        <path class="cls-4" d="M51.73,65.73c-4.27,2.13-8.84,4.12-13.42,5.64-2.59,.92-6.1,.46-8.23,2.29,7.78,3.51,18.75-1.52,25.31-5.49,4.07-2.38,8.71-3.21,13.26-4.18,2.46-2.91,4.5-6.19,6.03-9.74-2.96,2.37-5.91,4.42-9.52,5.99-4.58,1.83-9.15,3.35-13.42,5.49Z"/>
        <path class="cls-2" d="M59.51,51.4c-2.29,1.98-3.66,3.51-6.56,4.58-3.05,1.07-5.64,2.44-8.54,3.81-5.34,2.59-10.37,7.62-16.62,6.71-4.82-.8-12.21-3.25-16.94-.64,7.08,7.37,17.03,11.97,28.06,11.97,11.93,0,22.6-5.37,29.74-13.82-4.54,.96-9.19,1.79-13.26,4.18-6.56,3.96-17.54,8.99-25.31,5.49,2.14-1.83,5.64-1.37,8.23-2.29,4.58-1.52,9.15-3.51,13.42-5.64,4.27-2.13,8.84-3.66,13.42-5.49,3.62-1.57,6.57-3.62,9.52-5.99,1.31-3.04,2.24-6.29,2.73-9.67-5.49,2.85-13.2,2.87-17.9,6.82Z"/>
        <path class="cls-1" d="M17.43,57.04c1.98-1.22,4.27-2.14,6.55-2.9,3.2-1.37,6.25-3.35,9.76-4.42,4.12-1.37,8.08-2.9,12.35-3.51,2.29-.46,4.27-1.68,6.56-2.29,1.98-.46,4.12-.46,6.1-1.37,4.57-1.83,8.08-5.18,13.11-6.71,1.92-.54,3.85-.69,5.78-.75-.09-.89-.21-1.77-.35-2.64-.97,.05-1.93,.14-2.83,.34-4.12,.91-7.78,3.2-11.59,5.03-2.59,1.22-5.18,3.36-7.93,4.27-3.5,1.22-7.47,.31-10.98,1.37-7.01,2.44-13.57,7.32-21.04,8.08-3.81,.3-7.17,0-10.83,1.22-2.81,.93-4.92,3.04-7.55,4.37,1.31,2.47,2.88,4.78,4.67,6.89,3.25-1.5,5.26-5.25,8.22-7Z"/>
      </g>
      <g>
        <path class="cls-3" d="M37.55,52.93c-4.58-.15-8.84,.61-12.05,4.27-1.75,1.99-3.29,5.22-4.79,7.91,2.56,.42,5.05,1.05,7.08,1.39,6.25,.91,11.28-4.12,16.62-6.71,2.9-1.37,5.49-2.75,8.54-3.81,2.2-.81,3.53-1.89,5.04-3.23-8.4,3.25-14.16,.31-20.44,.18Z"/>
        <path class="cls-8" d="M77.41,44.59c.27-1.85,.42-3.75,.42-5.67,0-1.28-.07-2.55-.19-3.81-1.92,.06-3.85,.21-5.78,.75-5.03,1.53-8.54,4.88-13.11,6.71-1.98,.91-4.12,.91-6.1,1.37-2.29,.61-4.27,1.83-6.56,2.29-4.27,.61-8.24,2.13-12.35,3.51-3.51,1.07-6.56,3.05-9.76,4.42-2.29,.76-4.57,1.68-6.55,2.9-2.96,1.75-4.96,5.5-8.22,7,.53,.62,1.08,1.23,1.64,1.82,2.73-1.5,6.36-1.32,9.86-.75,1.5-2.7,3.05-5.92,4.79-7.91,3.2-3.66,7.47-4.42,12.05-4.27,6.28,.12,12.04,3.07,20.44-.18,.47-.42,.97-.87,1.51-1.34,4.7-3.94,12.41-3.97,17.9-6.82Z"/>
      </g>
      <path class="cls-7" d="M29.17,11.32c-.89,.01-1.72,1.22-.83,1.84,.4,.28,1.1,.34,1.51,.06,.32-.22,.71-.73,.7-1.13,0-.59-.62-.67-1.1-.75-.09-.02-.19-.02-.28-.02Z"/>
      <path class="cls-7" d="M37.72,9.36c-1.1,.35-.23,1.59,.69,1.11,.32-.17,1.04-.59,.75-1.01-.24-.35-1.12-.21-1.44-.1Z"/>
      <path class="cls-7" d="M23.68,11.3c.67,1.23,2.61,.28,2.44-.97-.22-1.6-3.18-.39-2.44,.97Z"/>
      <path class="cls-6" d="M8.58,20.91c-.46,1.07,.3,2.29,1.68,1.68,2.68-.89-.54-4.33-1.68-1.68Z"/>
      <path class="cls-7" d="M58,52.74s-.49,.34-1.4,.88c-.9,.55-2.23,1.26-3.9,1.97-.83,.35-1.75,.71-2.74,1.01-1,.3-2.06,.58-3.21,.71-.56,.09-1.21,.01-1.76-.07-.58-.07-1.16-.14-1.75-.22-1.17-.1-2.36-.25-3.56-.39-1.19-.13-2.41-.37-3.56-.58-1.16-.27-2.25-.51-3.25-.2-1.06,.3-2.07,.68-2.92,1.18-.43,.24-.79,.53-1.12,.87-.3,.31-.55,.71-.78,1.09-.44,.76-.88,1.52-1.32,2.09-.42,.6-.78,1.12-1.1,1.55-.3,.43-.58,.74-.76,.96-.18,.21-.28,.33-.28,.33,0,0,.08-.12,.24-.36,.16-.23,.39-.57,.66-1.03,.28-.45,.59-1.01,.96-1.64,.4-.63,.77-1.32,1.18-2.14,.22-.41,.45-.82,.79-1.23,.33-.38,.73-.75,1.2-1.03,.92-.56,1.96-.97,3.06-1.3,1.19-.38,2.49-.13,3.6,.14,1.17,.24,2.31,.49,3.5,.64,1.18,.17,2.39,.3,3.56,.48,.58,.11,1.16,.21,1.73,.31,.58,.12,1.09,.18,1.65,.12,1.1-.09,2.16-.35,3.14-.61,.99-.27,1.91-.58,2.75-.9,1.68-.64,3.02-1.31,3.95-1.81,.93-.49,1.44-.81,1.44-.81Z"/>
      <g class="cls-5">
        <path class="cls-4" d="M34.96,59.1c-2.22-.34-4.64,.05-6.09,2.03-1.45,1.98,.53,3.29,2.51,2.95,1.59-.24,6.28-2.27,4.15-4.64l-.58-.34Z"/>
      </g>
      <path class="cls-7" d="M37.29,60.74c.08,.68-.32,1.33-.78,1.8-.47,.49-1.02,.89-1.6,1.24-.58,.34-1.2,.63-1.83,.87-.62,.24-1.32,.43-2.02,.44-.69,.03-1.39-.03-2.07-.26-.67-.22-1.37-.67-1.68-1.42-.3-.74-.18-1.54,.1-2.21,.29-.67,.73-1.24,1.22-1.73,.5-.49,1.07-.9,1.66-1.24,.6-.35,1.23-.63,1.91-.82,.34-.09,.68-.17,1.06-.18,.31-.02,.73,.01,1.06,.07,.7,.12,1.35,.38,1.96,.68,1.21,.6,2.31,1.35,3.52,1.84,.6,.24,1.23,.43,1.87,.45,.65,.03,1.29-.14,1.9-.4h0s8.01-3.32,8.01-3.32l-7.98,3.37h0c-.57,.34-1.24,.56-1.92,.59-.68,.04-1.37-.09-2.01-.31-1.29-.45-2.44-1.15-3.63-1.67-.6-.25-1.2-.48-1.81-.58-.33-.04-.58-.07-.92-.04-.28,.02-.6,.08-.9,.17-1.2,.37-2.33,1.07-3.24,1.94-.45,.44-.84,.93-1.09,1.48-.24,.54-.32,1.16-.13,1.67,.19,.51,.69,.86,1.27,1.07,.58,.2,1.21,.29,1.85,.3,.63,.02,1.25-.11,1.87-.31,.62-.2,1.23-.45,1.81-.74,.58-.29,1.15-.63,1.64-1.06,.47-.43,.91-.98,.91-1.66Z"/>
      <path class="cls-3" d="M30.62,61.86s-.04,0-.1-.02c-.07-.02-.18-.03-.26,0-.08,.04-.14,.12-.12,.27,.01,.13,.13,.31,.19,.37,.09,.06,.19,.12,.29,.18,.08,.02,.17,.05,.26,.07,.2,.03,.43,.05,.68,.03,.24,0,.5-.06,.77-.1,.26-.05,.53-.12,.8-.2,1.07-.3,2.12-.71,2.9-1.05,.39-.17,.72-.31,.93-.44,.22-.12,.34-.21,.34-.21,0,0-.07,.13-.25,.32-.18,.19-.45,.45-.81,.7-.72,.52-1.77,1.07-2.92,1.4-.29,.08-.58,.14-.88,.19-.3,.04-.59,.07-.89,.05-.29,0-.58-.06-.86-.16-.14-.07-.29-.13-.4-.21-.08-.08-.16-.16-.24-.24-.22-.28-.22-.49-.2-.71,.02-.22,.21-.4,.37-.4,.17,0,.24,.07,.3,.11,.06,.04,.09,.06,.09,.06Z"/>
      <path class="cls-7" d="M40.18,71.76c-.53,0-1.25-.15-1.21,.58,.05,.63,.82,.87,1.35,.87,1.3-.05,1.79-1.26,.24-1.5l-.39,.05Z"/>
      <path class="cls-7" d="M55.21,64.81c-.77,0-1.74,0-2.27,.77-.48,.73-.24,1.84,.77,1.94,.97,.1,3.09-2.17,1.64-2.42"/>
      <path class="cls-6" d="M31.05,68.38c-.58,.14-1.79,.68-1.74,1.45,.1,.82,1.74,1.3,2.42,1.26,2.08-.1,1.79-2.51-.1-2.71h-.58Z"/>
      <path class="cls-6" d="M71.74,51.61s0,.09-.04,.24c-.05,.14-.05,.36-.17,.6-.1,.25-.24,.53-.43,.79-.17,.28-.41,.53-.64,.79-.25,.23-.5,.47-.76,.65-.25,.19-.51,.35-.74,.47-.46,.24-.79,.34-.79,.34,0,0,.05-.08,.14-.2,.1-.12,.22-.29,.39-.48,.33-.38,.78-.85,1.24-1.31,.45-.46,.91-.91,1.23-1.26,.18-.17,.32-.34,.42-.45,.1-.11,.17-.17,.17-.17Z"/>
      <path class="cls-6" d="M71.89,53.5s-.01,.07-.04,.18c-.05,.11-.06,.28-.18,.46-.1,.18-.25,.4-.42,.57-.17,.2-.39,.35-.6,.52-.45,.29-.94,.5-1.33,.59-.39,.09-.67,.09-.67,.09,0,0,.04-.06,.13-.14,.08-.08,.2-.21,.35-.33,.3-.25,.69-.56,1.1-.83,.4-.27,.81-.54,1.11-.74,.16-.09,.3-.21,.39-.27,.1-.07,.16-.1,.16-.1Z"/>
      <path class="cls-7" d="M50.19,50.64s.09,0,.27,0c.18,.01,.43-.03,.75-.08,.32-.07,.69-.18,1.11-.34,.42-.18,.87-.4,1.37-.66,1-.5,2.14-1.16,3.39-1.8,.61-.34,1.2-.75,1.82-1.13,.62-.39,1.26-.78,1.89-1.18,.62-.41,1.31-.76,1.99-1.11,.34-.18,.7-.29,1.04-.42,.35-.13,.69-.27,1.04-.34,.69-.19,1.39-.34,2.02-.4,.64-.08,1.25-.16,1.79-.25,.55-.09,1.05-.2,1.48-.31,.44-.11,.8-.26,1.1-.39,.31-.12,.52-.26,.68-.34,.16-.08,.24-.13,.24-.13,0,0-.08,.06-.22,.16-.15,.09-.34,.29-.63,.43-.29,.17-.65,.35-1.08,.52-.43,.17-.93,.34-1.49,.46-.55,.14-1.16,.25-1.78,.38-.64,.11-1.27,.3-1.93,.5-.33,.08-.65,.22-.98,.36-.32,.15-.66,.26-.98,.43-.63,.33-1.28,.66-1.91,1.09-.64,.39-1.29,.78-1.92,1.17-.64,.38-1.27,.77-1.9,1.09-.64,.3-1.25,.58-1.84,.85-.58,.26-1.15,.53-1.67,.74-.52,.23-1.01,.4-1.46,.54-.45,.12-.85,.2-1.18,.23-.68,.05-1.03-.08-1.04-.06Z"/>
      <path class="cls-7" d="M10.95,48.08s.18-.04,.5-.12c.34-.05,.79-.26,1.36-.51,.56-.27,1.27-.6,2.08-.92,.82-.32,1.71-.74,2.75-1.08,.52-.17,1.05-.35,1.61-.54,.28-.09,.56-.19,.85-.28,.32-.09,.6-.12,.92-.18,1.19-.26,2.58-.29,3.9-.36,.33-.02,.67-.03,1.01-.05,.33-.04,.67-.08,1.01-.12,.33-.05,.7-.06,1-.13l1.03-.25c.69-.16,1.38-.33,2.08-.5,.67-.23,1.34-.46,2-.69,1.36-.46,2.72-.93,4.06-1.38,1.34-.46,2.65-.93,3.97-1.26,1.31-.35,2.58-.69,3.78-1.01,1.21-.29,2.38-.49,3.45-.65,2.13-.31,3.9-.64,5.05-1.13,.59-.21,1.01-.46,1.31-.63,.29-.16,.45-.25,.45-.25,0,0-.15,.1-.43,.29-.28,.19-.68,.49-1.27,.73-.57,.29-1.3,.53-2.15,.78-.85,.24-1.83,.44-2.89,.64-1.06,.19-2.19,.42-3.38,.76-1.18,.35-2.43,.72-3.71,1.1-1.3,.34-2.61,.82-3.94,1.3-1.34,.47-2.7,.95-4.06,1.43-.69,.23-1.39,.46-2.08,.69-.7,.16-1.4,.32-2.09,.47l-1.03,.23c-.38,.08-.72,.09-1.08,.13-.35,.04-.7,.07-1.05,.11-.34,.01-.69,.02-1.02,.04-.67,.03-1.32,.05-1.97,.08-.63,0-1.26,.09-1.88,.18-.3,.05-.63,.07-.88,.14-.29,.08-.57,.17-.84,.25-.55,.16-1.09,.32-1.6,.47-1.03,.31-1.95,.67-2.79,.94-.84,.28-1.53,.56-2.12,.79-.59,.22-1.07,.39-1.41,.41-.33,.05-.51,.08-.51,.08Z"/>
      <path class="cls-7" d="M52.17,39.63s.98-.38,2.47-.86c.37-.13,.79-.22,1.19-.41,.41-.17,.84-.35,1.3-.52,.45-.17,.92-.35,1.39-.53,.44-.14,.91-.45,1.37-.67,.46-.24,.95-.45,1.37-.72,.44-.25,.87-.51,1.29-.75,.84-.49,1.67-.91,2.36-1.28,.34-.19,.7-.3,.99-.42,.3-.12,.56-.22,.77-.3,.43-.16,.67-.25,.67-.25,0,0-.22,.14-.62,.38-.2,.12-.43,.26-.71,.42-.27,.17-.58,.33-.91,.54-.65,.43-1.39,.95-2.22,1.48-.42,.27-.85,.54-1.29,.82-.44,.29-.91,.5-1.37,.75-.48,.22-.89,.49-1.43,.67-.5,.16-.98,.32-1.45,.48-.47,.16-.93,.29-1.36,.42-.43,.15-.85,.2-1.23,.29-1.54,.31-2.58,.46-2.58,.46Z"/>
      <path class="cls-6" d="M9.64,27.16s.17-.01,.48-.03c.16-.01,.35-.02,.58-.04,.22-.04,.48-.08,.77-.13,.57-.11,1.27-.29,2.04-.55,.78-.26,1.64-.6,2.59-.94,.47-.18,.98-.35,1.5-.52,.54-.16,1.08-.29,1.64-.44,.56-.15,1.14-.3,1.73-.45,.58-.17,1.17-.35,1.77-.53,.3-.09,.6-.18,.91-.27,.14-.04,.33-.09,.43-.13l.44-.21c.59-.29,1.18-.58,1.78-.87,1.21-.56,2.34-1.28,3.53-1.91,.63-.36,1.25-.55,1.87-.83,.62-.25,1.23-.53,1.86-.76,1.25-.45,2.54-.84,3.68-1.31,1.17-.47,2.3-.97,3.47-1.22,.58-.15,1.15-.22,1.69-.29,.54-.07,1.06-.14,1.57-.2,.99-.17,1.93-.23,2.72-.42,.79-.18,1.52-.26,2.06-.47,1.13-.36,1.77-.56,1.77-.56,0,0-.63,.25-1.72,.7-.54,.26-1.26,.37-2.05,.61-.79,.25-1.72,.36-2.72,.56-.5,.08-1.02,.17-1.56,.26-.55,.08-1.09,.17-1.63,.34-1.09,.28-2.19,.82-3.36,1.3-1.19,.51-2.41,.89-3.65,1.35-.62,.23-1.23,.52-1.85,.78-.6,.28-1.28,.51-1.81,.83-1.2,.62-2.37,1.34-3.58,1.88-.6,.29-1.2,.57-1.79,.85l-.44,.21c-.2,.08-.33,.1-.49,.15-.31,.09-.62,.18-.93,.26-.62,.17-1.22,.34-1.81,.51-.59,.13-1.18,.26-1.74,.39-.56,.13-1.13,.24-1.64,.37-.52,.15-1.02,.3-1.5,.46-.96,.32-1.85,.6-2.65,.81-.8,.21-1.51,.36-2.1,.43-.3,.03-.56,.05-.79,.08-.23,0-.42,0-.58,0-.32,0-.49,0-.49,0Z"/>
      <path class="cls-7" d="M42.7,6.66s.13-.09,.37-.22c.11-.07,.27-.13,.45-.2,.19-.08,.4-.14,.63-.18,.47-.11,1.02-.14,1.58-.2,.28-.02,.56-.07,.85-.1,.29-.06,.54-.1,.84-.2,.59-.16,1.15-.36,1.73-.5,.57-.14,1.13-.23,1.61-.22,.24-.02,.46,.03,.65,.06,.19,.02,.36,.07,.49,.12,.26,.09,.4,.15,.4,.15,0,0-.16,0-.43,0-.13,0-.29-.01-.48,.02-.18,.03-.38,.03-.6,.09-.44,.08-.93,.24-1.46,.42-.52,.19-1.12,.41-1.71,.59-.28,.09-.64,.15-.95,.2-.32,.04-.63,.05-.92,.04-.59,0-1.12-.04-1.56-.04-.45,0-.81,.02-1.08,.09-.26,.06-.42,.09-.42,.09Z"/>
      <path class="cls-7" d="M50.67,6.57s.16-.14,.41-.28c.27-.12,.55-.29,.87-.37,.34-.11,.69-.16,.98-.15,.29,.01,.49,.07,.49,.07,0,0-.14,.17-.36,.34-.22,.17-.55,.34-.89,.45-.37,.09-.77,.16-1.04,.08-.28-.06-.47-.15-.47-.15Z"/>
      <path class="cls-7" d="M17.76,13.09s0-.14,.05-.29c.05-.14,.15-.29,.28-.37,.14-.08,.32-.12,.47-.1,.15,.02,.27,.09,.27,.09,0,0-.02,.15-.07,.29-.05,.14-.15,.28-.27,.36-.13,.08-.3,.12-.45,.1-.15-.02-.28-.07-.28-.07Z"/>
      <path class="cls-7" d="M21.43,13.48s.08-.13,.2-.24c.12-.11,.29-.2,.47-.23,.18-.02,.36,.02,.5,.09,.14,.08,.24,.18,.24,.18,0,0-.08,.13-.2,.25-.12,.11-.29,.2-.47,.23-.18,.02-.36-.02-.5-.09-.14-.08-.24-.18-.24-.18Z"/>
      <path class="cls-7" d="M34.14,9.76s.11-.07,.25-.11c.13-.04,.28-.03,.4,.03,.11,.04,.18,.13,.24,.25,.05,.12,.08,.26,.08,.26,0,0-.09,.09-.23,.15-.13,.05-.31,.06-.45,0-.12-.07-.2-.18-.24-.31-.04-.13-.04-.27-.04-.27Z"/>
      <path class="cls-7" d="M42.31,8.16s.08-.11,.18-.19c.1-.08,.23-.12,.35-.11,.12,.02,.23,.1,.31,.21,.08,.11,.12,.24,.12,.24,0,0-.08,.11-.18,.19-.1,.08-.23,.12-.35,.11-.12-.02-.23-.1-.31-.21-.08-.11-.12-.23-.12-.23Z"/>
      <path class="cls-7" d="M61.45,23.05s.24-.12,.6-.24c.35-.12,.86-.15,1.36-.14,.24,0,.47,.01,.69,.04,.22,.04,.42,.04,.6,.06,.36,.05,.63,.12,.63,.12,0,0-.21,.15-.57,.3-.37,.18-.87,.2-1.37,.21-.47-.02-.94-.12-1.31-.18-.37-.08-.62-.19-.62-.19Z"/>
      <path class="cls-7" d="M66.43,21.12s.14-.11,.35-.21c.21-.09,.49-.15,.77-.14,.28,0,.55,.08,.76,.18,.21,.1,.34,.22,.34,.22,0,0-.14,.11-.35,.21-.21,.09-.49,.15-.77,.14-.28,0-.55-.08-.76-.18-.21-.1-.34-.22-.34-.22Z"/>
      <path class="cls-1" d="M21.32,64.67c.46-1.2,.95-2.38,1.48-3.55,.53-1.17,1.16-2.31,1.94-3.37,.78-1.05,1.76-2,2.92-2.68,.57-.35,1.18-.62,1.8-.87l.94-.32,.96-.24c.63-.15,1.31-.24,1.91-.36,.65-.1,1.23-.25,1.81-.41,1.18-.36,2.34-.88,3.54-1.35,.6-.24,1.21-.46,1.83-.66l.95-.27c.39-.07,.63-.12,1.01-.13,.71-.04,1.35,.06,1.97,.11,.62,.05,1.23,.05,1.82-.06h-.04c.39-.18,.78-.36,1.18-.55l1.15-.66c.75-.47,1.51-.94,2.28-1.39-.7,.56-1.4,1.11-2.11,1.65l-1.1,.78c-.38,.24-.79,.46-1.19,.68h0s-.03,.01-.03,.01c-1.32,.37-2.7,.08-3.85,.2-.25,0-.64,.11-.88,.17l-.89,.29c-.59,.21-1.17,.44-1.75,.7-1.16,.5-2.35,1.03-3.61,1.43l-.98,.27c-.32,.08-.63,.12-.95,.18-.66,.12-1.25,.19-1.87,.33l-.91,.22-.88,.28c-.58,.21-1.14,.45-1.68,.75-.54,.3-1.03,.65-1.51,1.04-.47,.39-.91,.83-1.31,1.3-.4,.48-.77,.99-1.12,1.51-.34,.53-.67,1.07-.99,1.62-.64,1.1-1.22,2.24-1.85,3.36Z"/>
      <path class="cls-1" d="M64.47,41.76s.19-.06,.53-.14c.18-.02,.35-.15,.55-.24,.21-.08,.42-.26,.66-.41,.47-.32,.99-.76,1.57-1.21,.29-.23,.6-.47,.94-.68,.16-.12,.34-.21,.53-.31l.27-.15c.06-.03,.05-.04,.18-.08l.14-.04,.56-.17c.2-.05,.41-.07,.62-.11,.42-.08,.79-.07,1.17-.1,.73-.04,1.41-.04,1.96-.16,.29-.03,.52-.13,.75-.2,.23-.05,.41-.16,.55-.24,.3-.16,.48-.25,.48-.25,0,0-.14,.14-.4,.37-.13,.12-.29,.27-.51,.37-.22,.12-.46,.29-.75,.36-.29,.1-.61,.2-.95,.25-.34,.07-.7,.11-1.07,.16-.35,.05-.75,.08-1.09,.15-.18,.04-.35,.05-.53,.1l-.56,.18-.14,.04s-.06,.03-.08,.04l-.25,.13c-.16,.08-.33,.16-.48,.27-.32,.2-.63,.39-.94,.6-.61,.41-1.19,.79-1.75,1.05-.28,.12-.52,.25-.78,.3-.25,.05-.45,.14-.63,.12-.35,0-.54,0-.54,0Z"/>
      <path class="cls-1" d="M42.38,53.62s.57-.03,1.55-.08c.99-.05,2.4-.12,4.08-.3,.84-.06,1.74-.24,2.69-.39,.94-.22,1.92-.45,2.91-.79,.5-.14,1-.34,1.49-.55,.49-.22,1.01-.39,1.49-.66,.99-.5,1.99-1.02,3-1.53,1.02-.49,2.03-.99,3.04-1.47,.98-.51,1.95-1.01,2.89-1.49,.47-.24,.93-.48,1.38-.71l.34-.17,.36-.17c.23-.11,.45-.21,.67-.31,.87-.42,1.72-.79,2.51-1.11,.78-.33,1.5-.63,2.13-.9,.64-.26,1.18-.5,1.62-.74,.89-.43,1.4-.68,1.4-.68,0,0-.48,.29-1.33,.81-.42,.27-.95,.56-1.57,.86-.61,.32-1.31,.68-2.07,1.03-.77,.35-1.59,.76-2.45,1.22-.21,.11-.43,.23-.65,.34l-.31,.17-.33,.19c-.45,.24-.91,.49-1.38,.75-.94,.5-1.91,1.02-2.89,1.55-.99,.5-2,1.01-3.01,1.52-1.02,.5-2.03,1-3.04,1.49-.49,.27-1.03,.44-1.54,.66-.51,.21-1.02,.41-1.54,.55-1.02,.35-2.05,.52-3.01,.71-.97,.11-1.89,.25-2.75,.27-.85,.06-1.63,.07-2.32,.05-.69,0-1.29,0-1.79-.03-.99-.04-1.55-.06-1.55-.06Z"/>
    </g>
  </g>
</svg>