<?xml version="1.0" encoding="UTF-8"?>
<svg id="_레이어_1" data-name="레이어 1" xmlns="http://www.w3.org/2000/svg" version="1.1" viewBox="0 0 141.1 181">
  <defs>
    <style>
      .cls-1 {
        fill: #d691ae;
      }

      .cls-1, .cls-2, .cls-3, .cls-4, .cls-5, .cls-6, .cls-7, .cls-8, .cls-9, .cls-10, .cls-11, .cls-12, .cls-13, .cls-14, .cls-15, .cls-16 {
        stroke-width: 0px;
      }

      .cls-2 {
        fill: #b38879;
      }

      .cls-3 {
        fill: #000;
      }

      .cls-4 {
        fill: #a17eaa;
      }

      .cls-17, .cls-10, .cls-11, .cls-14 {
        isolation: isolate;
      }

      .cls-5 {
        fill: #c97f93;
      }

      .cls-6 {
        fill: #da9db6;
      }

      .cls-7 {
        fill: #c16797;
      }

      .cls-8 {
        fill: #9bbedc;
      }

      .cls-9 {
        fill: #f7ceb2;
      }

      .cls-10 {
        fill: #b34c85;
        opacity: .2;
      }

      .cls-10, .cls-11, .cls-14 {
        mix-blend-mode: multiply;
      }

      .cls-11 {
        fill: #5a287f;
        opacity: .1;
      }

      .cls-12 {
        fill: #a15a7d;
      }

      .cls-13 {
        fill: #705a79;
      }

      .cls-14 {
        fill: #ca878d;
        opacity: .4;
      }

      .cls-15 {
        fill: #725889;
      }

      .cls-16 {
        fill: #98c5ed;
      }
    </style>
  </defs>
  <g class="cls-17">
    <g>
      <g>
        <path class="cls-1" d="M57.9,128.7l-.7-9.3v-.3c12.4-2.9,19.8-13.9,20.4-18.9.4-3.6-1.9-6.8-1.9-6.8,0,0,0-7.6-.4-10.1,1.4.2,2.8.4,4.2.5l1.8.2c0,1-.2,2.1-.3,3.2-.3,2.5.7,8.9,2.1,13.3,2.2,6.8,8.6,8.9,7.1,15.5-.9,4.3-3.2,3.3-4.1,6.1-.6,1.9,5.4,10.6-3.7,16.2-2.1-3.4-4.3-6.2-6.7-7.7-7.7-4.9-17.8-1.9-17.8-1.9h0q0,0,0,0Z"/>
        <path class="cls-9" d="M86.6,146.5c4.7,10.6,7.8,22.2,7.8,22.2,0,0-5,4.4-15.7,7.9v-.4c-1.3-6.5-3.2-13.6-4.9-19.5h0c9.2-2.6,12.4-9.3,12.7-10.2Z"/>
        <path class="cls-4" d="M82.4,138.4c1.5,2.5,2.9,5.3,4.2,8.1-.4.8-3.5,7.6-12.7,10.1h0c1.7,5.9,3.6,13.1,4.8,19.6v.4c-6.8,2.2-16.1,4.2-27.9,4.4-11.6.2-20.7-1.1-27.5-2.9,1.1-7.3,2.3-13.8,3.4-19.1-11.2-.3-14.6-4.9-15.3-6,.8-2.8,1.7-5.6,2.7-8.2,1.6-4.2,3.5-8,5.6-10.4,8-9.2,24.6-5.3,24.6-5.3v-.2c1.2.8,3.2,1.6,6.6,1.8,3.7.1,5.8-.9,7-1.9h0c0,0,10.2-3,17.8,1.9,2.3,1.5,4.6,4.3,6.7,7.7Z"/>
        <path class="cls-1" d="M44.3,128.9v.2s-16.7-3.9-24.7,5.3c-2.1,2.4-4,6.2-5.6,10.4l-1.3.6s-8.7.6-10.1-4.3c-1.7-5.9,2.4-7.3,2-10-.5-3.5-5.6-3.4-4.6-10.2.8-5.7,5.2-6.4,7.3-11.2,2.6-6.1.3-27.7,6.1-40.1,2.4-5.2,5.3-8.2,8.1-10,5.1-3.2,9.7-2.2,9.7-2.2,0,0,1.8-2.5,5.6-4.8,5.6-3.6,15.6-6.9,30-.6,12.5,5.4,15.9,14.7,14.4,32.3l-1.8-.2c-1.4-.1-2.8-.3-4.2-.5-22.3-3.9-37.5-23.2-37.5-23.2,0,0-1.2,23.8-12.7,36,0,0-3.4-2.9-6.5.2-3.2,3.1-1.1,13.8,9.4,11.6,0,0,6.3,8.7,17,11.2l-.7,9.8h0Z"/>
        <path class="cls-9" d="M75.7,93.4s0-7.6-.4-10.1c-22.3-3.9-37.5-23.2-37.5-23.2,0,0-1.2,23.8-12.7,36,0,0-3.4-2.9-6.5.2-3.2,3.1-1.1,13.8,9.4,11.6,0,0,6.3,8.7,17,11.2l-.7,9.8c1.2.8,3.2,1.6,6.6,1.8,3.7.1,5.8-.9,7-1.9l-.7-9.3v-.3c12.4-2.9,19.8-13.9,20.4-18.9.4-3.6-1.9-6.8-2-6.8Z"/>
        <path class="cls-11" d="M57.2,119.1c-2.3.6-4.9.8-7.6.7-1.6,0-3.2-.3-4.6-.7v1.2c4.1,1.5,8.3,2.4,12.5,2.6l-.3-3.6v-.3c0,0,0,0,0,0Z"/>
        <path class="cls-5" d="M32.9,37.8c6.3,4.6,4.5,12.6,4,14.5-3.7,2.3-5.6,4.8-5.6,4.8,0,0-4.6-1-9.7,2.2v-.2c-.1,0-10.5-1.7-8.1-13.6,2.1-10.5,14.8-11.2,19.4-7.8Z"/>
        <path class="cls-9" d="M26.6,159c-1.1,5.3-2.3,11.8-3.4,19.1-11-2.8-16.1-6.6-16.1-6.6,0,0,1.5-9,4.2-18.4.7,1.2,4.1,5.7,15.3,6Z"/>
      </g>
      <path class="cls-15" d="M44,127.8s.2,0,.6.2c.2,0,.4.1.6.2.3,0,.5.1.9.2.3,0,.7.2,1,.2.4,0,.8.1,1.2.2.4,0,.8.1,1.2.2.4,0,.8,0,1.3.1h.2s0,0,0,0h1.2c.4,0,.8,0,1.2,0,.4,0,.8,0,1.1-.1.4,0,.7-.1,1-.2.3,0,.6-.2.8-.2.2,0,.5-.2.6-.2.3-.1.5-.2.5-.2h0c.4-.2.9,0,1.1.4.1.3,0,.6-.1.8,0,0-.2.2-.5.6-.3.3-.9.8-1.6,1.1-.2,0-.4.2-.6.3-.2,0-.4.1-.6.2-.4.2-.9.3-1.4.4-.5,0-1,.2-1.6.2h-.7s-.4,0-.4,0h0s-.2,0-.2,0h-.2c-.5,0-1,0-1.5-.2-.5,0-1-.2-1.5-.3-.5-.1-.9-.3-1.3-.4-.4-.1-.8-.4-1.1-.5s-.7-.4-.9-.5c-.3-.2-.5-.4-.7-.5-.3-.3-.5-.5-.5-.5h0c-.3-.4-.3-.9,0-1.2.2-.2.5-.3.8-.2h0Z"/>
      <path class="cls-13" d="M30,145.1s-.1.5-.3,1.4c-.2.9-.5,2.2-.8,3.7-.3,1.5-.7,3.3-1.1,5.3-.2,1-.4,2-.6,3-.2,1-.4,2.1-.5,3.1-.4,2.1-.8,4.1-1.1,6.1-.4,1.9-.7,3.7-1,5.3-.6,3.1-1,5.1-1,5.1,0,.1-.2.2-.3.2s-.2-.2-.2-.3c0,0,.3-2.1.8-5.2.2-1.6.5-3.4.9-5.3.3-1.9.7-4,1-6.1.2-1,.4-2.1.6-3.1.2-1,.4-2,.7-3,.4-1.9.9-3.7,1.2-5.3.3-1.5.7-2.8,1-3.7.2-.9.4-1.4.4-1.4,0-.1.2-.2.3-.2.1,0,.2.2.2.3h0Z"/>
      <path class="cls-13" d="M70.3,144.3s.7,1.9,1.7,4.9c.5,1.5,1,3.2,1.6,5,.3.9.6,1.9.9,2.9.3,1,.5,2,.8,3,.5,2,1.1,4,1.6,5.9.2.9.4,1.9.6,2.7.2.9.3,1.7.5,2.4.6,3,1,5.1,1,5.1,0,.1,0,.3-.2.3-.1,0-.3,0-.3-.2h0s-.5-2-1.3-5c-.4-1.5-.8-3.2-1.2-5.1-.5-1.9-1.1-3.9-1.6-5.8-.3-1-.5-2-.8-3-.2-.9-.6-1.9-.8-2.8-.6-1.9-1.1-3.6-1.5-5.1-.8-3-1.4-5-1.4-5,0-.1,0-.3.2-.3.1,0,.3,0,.3.2h0Z"/>
      <path class="cls-7" d="M38.1,59.9s.5.5,1.5,1.5,2.3,2.3,4,3.8c.8.8,1.8,1.6,2.8,2.4,1,.8,2.1,1.7,3.2,2.5.6.4,1.2.9,1.7,1.3.6.4,1.2.8,1.8,1.3,1.2.9,2.5,1.6,3.8,2.4,1.3.8,2.6,1.5,3.9,2.2.7.3,1.3.7,2,1,.7.3,1.3.7,2,.9,1.3.5,2.5,1.2,3.8,1.5.6.2,1.2.4,1.8.6.6.2,1.1.4,1.7.5,1.1.3,2.1.6,3,.8.9.2,1.7.3,2.4.5,1.3.2,2.1.4,2.1.4.1,0,.2.2.2.3,0,.1-.1.2-.3.2,0,0-.8,0-2.1-.1-.7,0-1.5,0-2.4-.2-.9-.2-2-.3-3.1-.5-1.2-.2-2.4-.6-3.7-.9-1.3-.3-2.6-.9-4-1.4-.7-.2-1.4-.5-2-.9-.7-.3-1.4-.6-2.1-.9-1.4-.7-2.7-1.4-4.1-2.2-1.3-.8-2.7-1.6-3.9-2.5-.6-.4-1.2-.9-1.8-1.3-.6-.5-1.2-.9-1.7-1.4-1.2-.9-2.2-1.9-3.2-2.7-1-.9-1.9-1.8-2.7-2.6-.8-.8-1.5-1.6-2.2-2.3-.6-.7-1.1-1.3-1.6-1.9-.8-1.1-1.3-1.7-1.3-1.7,0-.2,0-.4,0-.5.1,0,.3,0,.4,0h0Z"/>
      <path class="cls-7" d="M25,95.9s.3-.5,1-1.4c.3-.4.7-.9,1.1-1.6.4-.6.8-1.3,1.2-2.1.4-.8.9-1.7,1.3-2.5.5-.9.9-1.9,1.3-2.9.5-1,.8-2.1,1.3-3.2.4-1.1.8-2.2,1.2-3.4.3-1.2.7-2.3,1-3.4.3-1.1.6-2.2.9-3.3.3-1.1.5-2.2.7-3.2.2-1,.4-2,.6-2.8.3-1.8.6-3.3.8-4.3.2-1,.3-1.6.3-1.6,0-.1.2-.2.3-.2.1,0,.2.1.2.2,0,0,0,.6,0,1.7,0,1.1,0,2.6-.2,4.4-.1.9-.2,1.9-.3,2.9-.2,1-.3,2.1-.5,3.3-.2,1.1-.5,2.3-.8,3.5-.3,1.2-.7,2.3-1,3.5-.4,1.2-.8,2.3-1.2,3.5-.5,1.1-.9,2.2-1.4,3.3-.5,1-1,2.1-1.5,3-.6.9-1.1,1.8-1.6,2.5-.6.8-1.1,1.4-1.6,2-.5.6-1,1-1.3,1.4-.7.8-1.2,1.2-1.2,1.2-.1.1-.4.1-.5,0-.1-.1-.1-.3,0-.4h0Z"/>
      <path class="cls-2" d="M19.7,101.4s0-.2,0-.4,0-.6.1-1c.1-.4.4-.9.8-1.4.2-.2.5-.4.8-.6.1,0,.3-.1.5-.2.1,0,.1,0,.3,0h.2c.1,0,.3,0,.5,0,.2,0,.4,0,.5,0,.3,0,.6.2.9.4.5.3.8.7,1.1,1.1.2.3.4.7.5.9.1.2.1.4.1.4,0,.2,0,.4-.3.5-.1,0-.3,0-.4-.1h0s0-.1-.2-.3c-.1-.2-.4-.4-.6-.6-.1-.1-.3-.2-.4-.3-.1-.1-.3-.2-.5-.3-.2,0-.3-.1-.5-.2,0,0-.2,0-.2,0,0,0-.1,0-.2,0h-.2c0,0,0,0,0,0,0,0-.2,0-.2,0-.2,0-.3.2-.4.2-.3.2-.5.5-.6.8-.1.3-.3.6-.3.7,0,.2-.1.3-.1.3h0c0,.2-.3.3-.5.3-.1,0-.2-.2-.3-.3h0Z"/>
      <path class="cls-12" d="M62.4,76.6s.6.4.8.6c.6.4,1.4.9,2.2,1.2.4.2.8.3,1.2.4.2,0,.4,0,.6.1.2,0,.4,0,.5,0,.7,0,2.7-.3,3,1.4.3,1.8-3,2.6-5.9,1.8-3.4-.9-4.8-2.9-5.1-4.2-.2-1.2.5-1.8,1.3-1.8.5,0,1.2.5,1.3.5h0Z"/>
      <path class="cls-12" d="M40.7,78.2s-.5.5-.7.8c-.5.5-1.2,1.1-1.9,1.6-.3.2-.7.4-1.1.6-.2,0-.4.1-.5.2-.2,0-.3.1-.5.2-.6.2-2.7.3-2.7,2,0,1.8,3.5,1.9,6.1.6,3.2-1.6,4.1-3.9,4.1-5.2,0-1.2-.9-1.6-1.7-1.5-.5,0-1.1.7-1.1.8h0Z"/>
      <path class="cls-14" d="M56.8,91.4c0,1.4-1.5,2.7-3.5,2.8-2,.1-3.8-1-3.8-2.4,0-1.4,1.5-2.7,3.5-2.8,2-.1,3.8,1,3.8,2.4Z"/>
      <path class="cls-6" d="M51,146.4s.2-2.8-3.5-3.5c-3.7-.7-5.8,4.1-3.7,7.7s8.3,7.9,8.8,7.8c.4,0-1.1-5.4-1.1-5.4,0,0,1.6-2,1.4-2.6-.3-.5-2.9-1.1-2.9-1.1l1-3h0Z"/>
      <path class="cls-6" d="M58,141.9c2.7.3,4.9,3.6,3.1,8-1.5,3.6-6.5,8.4-6.5,8.4,0,0-.6-3.4-1.2-5-.1-.4,2-2.7,1.7-3.8,0-.4-2.7-1.5-3-1.7-.2-.2,1.7-6.5,5.8-6.1h0Z"/>
      <path class="cls-3" d="M46.7,102.1s0,0,0-.2.1-.3.2-.5c.2-.4.5-1,1-1.6s1.2-1.3,2-1.9c.8-.6,1.9-1,3-1.2.1,0,.2,0,.4,0h.4c.3,0,.6,0,.9,0,.6,0,1.1.2,1.6.3,1,.3,1.8,1,2.4,1.5.6.6.9,1.1,1.2,1.5.1.2.2.4.2.5,0,.1,0,.2,0,.2.1.2,0,.5-.2.6-.2.1-.5,0-.6-.2,0,0-.1-.2-.4-.5-.3-.3-.7-.7-1.2-1.1-.5-.4-1.2-.8-2-1-.4-.1-.8-.2-1.2-.2h-1s-.3,0-.3,0c-.4,0-.9.2-1.3.3-.4.2-.8.3-1.2.6-.7.4-1.4.9-1.8,1.4-.5.5-.9.9-1.1,1.3-.2.3-.4.5-.4.5h0c-.1.2-.4.3-.6.1-.2-.1-.2-.3-.2-.5h0Z"/>
      <path class="cls-4" d="M91.2,53.7c9.1,6.2,20.7,6.4,28.5,4.4,17-4.4,24.8-21.2,20.1-37.2-3.4-11.4-21.2-29.7-43.5-16.2-21.5,13.1-9.1,44-9.1,44,0,0-4.9,6.8-4.8,7.3.1.5,8.8-2.4,8.8-2.4h0Z"/>
      <path class="cls-3" d="M107.5,40.1s0,0,0-.2,0-.4,0-.7c0-.6,0-1.4.1-2.4,0-.5.2-1,.4-1.6.2-.5.4-1.1.8-1.7.4-.5.8-1.1,1.4-1.5.6-.5,1.2-.8,1.9-1.1.5-.2,1.4-.4,2.1-.4.4,0,.7,0,1.1.1.3,0,.7.1,1,.3.6.2,1.2.5,1.7.9.5.3.9.7,1.2,1,.7.7,1.2,1.4,1.5,1.8.2.2.3.4.3.6v.2c.2.3.1.6-.1.7-.2.1-.5,0-.6-.1h0s0,0-.1-.2c0,0-.2-.2-.4-.4-.3-.4-.9-.9-1.6-1.4-.7-.5-1.5-1-2.4-1.3-.2,0-.5-.1-.7-.2-.2,0-.5,0-.7,0-.3,0-.5,0-.7,0-.2,0-.5.1-.8.2-.4.2-.9.4-1.3.7-.4.3-.7.7-1,1.1-.3.4-.5.8-.7,1.3-.2.4-.3.9-.5,1.3-.2.8-.4,1.5-.4,2,0,.2,0,.5,0,.6,0,.1,0,.2,0,.2h0c0,.3-.3.5-.6.5-.2,0-.4-.2-.5-.5h0Z"/>
      <path class="cls-3" d="M116.9,25s.1,0,.3.3.5.4.9.6.8.5,1.2.6c.2,0,.4,0,.6.1s.4,0,.6,0h0s0,0,0,0h.1s.2-.1.2-.1c.1,0,.1-.1.2-.1.2-.1.3-.2.4-.4.3-.3.5-.8.6-1.2.3-.8.3-1.5.3-1.4,0-.3.2-.5.5-.6s.6.2.6.5c0,0,0,.2.1.5s0,.8,0,1.3c0,.6-.2,1.2-.6,1.9-.2.3-.5.7-.8,1-.2.1-.4.3-.6.4h-.2c0,.1-.1.1-.1.1h0s0,0,0,0h0c-.4.2-.9.2-1.3.2-.4,0-.8-.1-1.2-.3-.7-.3-1.2-.8-1.6-1.2-.4-.4-.6-.8-.8-1.1-.2-.3-.2-.5-.2-.5-.2-.2,0-.6.1-.7s.6-.1.7.1h0Z"/>
      <path class="cls-3" d="M97.1,31.5s.1,0,.3.3.5.4.9.6.8.5,1.2.6c.2,0,.4,0,.6,0s.4,0,.6,0h0s0,0,0,0h.1s.2-.1.2-.1c.2,0,.1,0,.2-.1.2-.1.3-.2.4-.4.3-.3.5-.8.6-1.2.3-.8.3-1.5.3-1.4,0-.3.2-.5.5-.6s.6.2.6.5c0,0,0,.2.1.5s0,.8,0,1.3c0,.6-.2,1.2-.6,1.9-.2.3-.5.7-.8,1-.2.1-.4.3-.6.4h-.2c0,0-.1.1-.1.1h0s0,0,0,0h0c-.4.2-.9.2-1.3.2-.4,0-.8-.1-1.2-.3-.7-.3-1.2-.8-1.6-1.2-.4-.4-.6-.8-.8-1.1-.2-.3-.2-.5-.2-.5-.2-.2,0-.6.1-.7s.6-.1.7.1h0Z"/>
      <path class="cls-16" d="M126.8,26c-.8.3,2.7,16.5,7.1,13.5,5.2-3.5-4.3-14.7-7.1-13.5Z"/>
      <g>
        <path class="cls-3" d="M36.3,89.2s0,.2.3.4c.2.3.5.7.9,1.1.4.4.9.9,1.4,1.2s1.2.4,1.8.4c.2,0,.3,0,.5,0,0,0,.2,0,.4-.1.3-.1.5-.3.8-.5.5-.4.9-.9,1.2-1.4.3-.5.5-.9.7-1.3.1-.3.2-.5.2-.5h0c.1-.3.4-.4.7-.3.2,0,.3.3.3.5,0,0,0,0,0,.2,0,.1,0,.3,0,.5,0,.4-.2,1-.4,1.6s-.7,1.4-1.3,2.1c-.3.3-.8.7-1.3.9-.2.1-.5.2-.8.3h-.4c0,0-.4.1-.4.1-1,0-2.2-.2-2.9-.8-.8-.5-1.4-1.2-1.7-1.8-.4-.6-.6-1.2-.7-1.5-.1-.4-.2-.6-.2-.6,0-.3.2-.6.4-.6.2,0,.4,0,.5.2h0s0,0,0,0Z"/>
        <path class="cls-3" d="M35.1,94.3c-.1-.2.6-.5,1.2-1.1.3-.3.5-.6.7-1,.2-.3.9.2.9.7,0,.2-.4.7-1.1,1-.5.2-1.7.6-1.8.4h0Z"/>
        <path class="cls-3" d="M37,95.5c-.1-.2.5-.6,1-1.3.2-.3.4-.7.6-1.1.1-.3,1,0,1,.5,0,.2-.3.7-.9,1.2-.4.3-1.6.9-1.7.7Z"/>
      </g>
      <g>
        <path class="cls-3" d="M70,86.6s0,.3,0,.7c0,.4,0,1.1-.2,1.8-.2.7-.5,1.6-1.2,2.4-.3.4-.8.8-1.3,1-.5.3-1,.4-1.6.5-.2,0-.5,0-.8,0-.3,0-.6,0-.8-.1-.6-.1-1.1-.4-1.5-.7-.9-.6-1.4-1.3-1.8-2-.4-.7-.6-1.2-.7-1.6,0-.2,0-.4-.1-.5,0-.1,0-.2,0-.2,0-.3.1-.6.4-.6.2,0,.5,0,.6.3h0c0,0,0,.2.3.6.2.3.5.8.9,1.2.4.5.9,1,1.5,1.3.3.2.6.3.9.3.2,0,.3,0,.5,0s.3,0,.5,0c.3,0,.7-.2,1-.3.3-.2.6-.3.8-.6.5-.4.8-1,1.1-1.6.2-.6.4-1.1.5-1.4,0-.3.1-.6.1-.6h0c0-.3.4-.5.7-.4.2,0,.4.2.4.4h0Z"/>
        <path class="cls-3" d="M71.7,91c0-.2-.7-.3-1.5-.7-.4-.2-.7-.4-1-.7-.2-.2-.8.5-.6.9,0,.2.6.5,1.3.6.5,0,1.8,0,1.8-.2Z"/>
        <path class="cls-3" d="M70.3,92.8c0-.2-.7-.4-1.4-.9-.3-.2-.7-.5-.9-.8-.2-.2-.9.4-.8.8,0,.2.6.6,1.2.8.5.2,1.8.3,1.8,0h0Z"/>
      </g>
      <path class="cls-10" d="M73.2,100.5c0,2.7-2.2,4.8-4.9,4.8s-4.9-2.2-4.9-4.8,2.2-4.8,4.9-4.8,4.9,2.2,4.9,4.8Z"/>
      <path class="cls-10" d="M44.8,102.3c0,2.7-2.2,4.8-4.9,4.8s-4.9-2.2-4.9-4.8,2.2-4.8,4.9-4.8,4.9,2.2,4.9,4.8Z"/>
      <path class="cls-8" d="M34.4,95.4c-.9-.3-7.7,10.5-3.8,13s5.2-12.6,3.8-13Z"/>
    </g>
  </g>
</svg>