<?xml version="1.0" encoding="UTF-8"?>
<svg xmlns="http://www.w3.org/2000/svg" viewBox="0 0 136.47 190.74">
  <defs>
    <style>
      .cls-1 {
        fill: #fff;
      }

      .cls-2 {
        fill: #c67b9e;
        opacity: .5;
      }

      .cls-2, .cls-3, .cls-4 {
        mix-blend-mode: multiply;
      }

      .cls-5 {
        fill: #3c1e00;
      }

      .cls-3 {
        fill: #b34c85;
      }

      .cls-3, .cls-4 {
        opacity: .2;
      }

      .cls-6 {
        isolation: isolate;
      }

      .cls-7 {
        fill: #dacbc8;
      }

      .cls-8 {
        fill: #517887;
      }

      .cls-9 {
        fill: #533614;
      }

      .cls-10 {
        fill: #ce4a70;
      }

      .cls-11 {
        fill: #f3d643;
      }

      .cls-12 {
        fill: #447991;
      }

      .cls-13 {
        fill: #f2c6a5;
      }

      .cls-14 {
        fill: #482e09;
      }

      .cls-15 {
        fill: #8abcac;
      }

      .cls-16 {
        fill: #e58e25;
      }

      .cls-17 {
        fill: #fceb3c;
      }

      .cls-4 {
        fill: #5a287f;
      }

      .cls-18 {
        fill: #b38879;
      }
    </style>
  </defs>
  <g class="cls-6">
    <g id="_레이어_2" data-name="레이어 2">
      <g id="Objects">
        <g>
          <path class="cls-9" d="M90.88,48.4c-2.3-1.04-4.94,4.76-4.64,5.39,.3,.64,7.17-4.25,4.64-5.39Z"/>
          <path class="cls-9" d="M83.74,48.26c-2.79,.71,1.07,6.59,1.42,5.93,.59-1.09,.52-6.42-1.42-5.93Z"/>
          <path class="cls-14" d="M115.49,90.85c-.97,8.54,1.59,13.07,1.59,13.07,0,0,.81-.28,1.88-.31l1.8-11.19v-.18c-.23-.01-.49-.04-.78-.08-1.62-.23-3.11-.68-4.5-1.31Z"/>
          <path class="cls-9" d="M59.41,81.93c-.26,.55-3.4,7.22,.78,6.08,.31-.08,.59-.17,.87-.28,9.37-3.27,10.64-15.72,15.4-21.76,3.59-4.56,8.01,.18,8.01,.18,0,0,4.72-6.01,10.66-1.12,5.04,4.13,9.22,20.76,20.35,25.82,1.39,.63,2.88,1.08,4.5,1.31,.28,.04,.54,.07,.79,.08,6.13,.46,.97-5.48,.7-5.79,.38,.21,8.56,4.7,11.01,.97,2.34-3.57-4.35-6.56-5.22-6.94,.79,.26,6.48,1.99,8.91-2.12,1.96-3.33-6.89-2.92-11.12-7.23-4.24-4.3-19.97-28.36-40.15-14.73,0,0-3.32-6-15.36-.96-5.16,2.17-10.14,9.15-14.74,15.1-4.91,6.36-8.91,8.48-7.69,10.68,1.6,2.96,6.23-1.31,6.69-1.75-.43,.58-4.93,6.61-1.57,8.13,2.63,1.2,6.86-5.22,7.16-5.67Z"/>
          <path class="cls-15" d="M61.19,188.57c42.63,7.45,71.31-6.69,71.31-6.69,0,0-3.96-28.81-11.38-36.58-5.9-6.19-18.59-6.88-21.73-6.97-.32,.22-.7,.47-1.15,.74-1.75,1.09-4.43,2.39-7.49,2.74-3.15,.35-6.03-.45-7.9-1.2-1.37-.54-2.19-1.05-2.19-1.05v-.09c-4.8,.43-17.17,2.25-22.83,9.52-7.9,10.1-10.36,36.5-10.36,36.5,4.71,1.28,9.29,2.29,13.72,3.06Z"/>
          <path class="cls-13" d="M82.11,129.52l-.05,.53s.53,8.34,.84,10.42l-.05,.14c1.87,.74,4.75,1.54,7.9,1.2,3.06-.34,5.74-1.64,7.49-2.74l-.27-.42c-.2-3.13-.42-9.4-.42-9.4l-.17-1.05c-2.68,.71-5.81,1.21-9.44,1.39-2.06,.1-3.99,.07-5.84-.06Z"/>
          <path class="cls-13" d="M82.42,135.31c5.33-.26,10.55-1.44,15.22-3.67,.08,2.11,.21,5.12,.33,7.01l.27,.42c-1.75,1.09-4.43,2.39-7.49,2.74-3.15,.35-6.03-.45-7.9-1.2l.05-.14c-.14-.92-.32-3.06-.47-5.16Z"/>
          <path class="cls-4" d="M82.42,135.31c-.2-2.66-.36-5.26-.36-5.26l.05-.53c1.84,.13,3.78,.16,5.84,.06,3.64-.18,6.76-.68,9.44-1.39l.17,1.05s.04,1,.09,2.4c-4.67,2.22-9.89,3.4-15.22,3.67Z"/>
          <path class="cls-13" d="M118.97,103.61c-1.07,.03-1.88,.31-1.88,.31,0,0-2.56-4.53-1.59-13.07-11.13-5.06-15.31-21.69-20.35-25.82-5.94-4.89-10.66,1.12-10.66,1.12,0,0-4.42-4.74-8.01-.18-4.76,6.04-6.03,18.5-15.4,21.76l.02,.07-.41,15.96s-1.1,6.39-.68,13.07c.25,3.93,4.56,14.06,22.27,15.35,1.84,.13,3.78,.16,5.84,.06,3.64-.18,6.76-.68,9.44-1.39,13.47-3.56,15.88-12.39,15.88-12.39,0,0,3.19,.29,6.31-1.31,2.36-1.22,4.03-3.61,4.11-7.26,.1-5.5-2.85-6.35-4.88-6.29Z"/>
          <path class="cls-5" d="M121.69,86.19h.01s-.07-.04-.07-.04c1.72,.58,3.41,1.15,5.1,1.49,.42,.09,.84,.15,1.25,.21,.41,.04,.83,.08,1.21,.05,.19-.01,.39,0,.57-.03l.53-.1c.32-.11,.63-.23,.86-.42,.15-.06,.23-.2,.33-.31l.16-.17h0s0,0,0,0c-.11,.2-.03,.05-.05,.09v-.02s.03-.04,.03-.04l.04-.08,.08-.15,.16-.3c.07-.12,.02-.13,.04-.19,.02-.1,.07-.19,.05-.35v-.21s-.04-.22-.04-.22c-.01-.15-.08-.31-.16-.46-.14-.31-.35-.64-.61-.95-.25-.31-.55-.61-.86-.9-.31-.3-.65-.57-.99-.83-.69-.54-1.43-1.04-2.19-1.54h.04s0,0,.01-.02l.02-.12c.01-.06-.03-.13-.1-.14-.06-.01-.13,.03-.14,.1,0,.04,0,.08,.04,.11,.04,.03,.1,.05,.15,.04-.14,0-.26-.1-.26-.24,0-.14,.1-.26,.24-.26,.06,0,.14,.02,.19,.06l-.17-.06c.05,0,.1,.01,.16,.02h.04c.91,.24,1.77,.59,2.62,1.01,.42,.22,.84,.45,1.24,.72,.41,.26,.79,.57,1.16,.92,.37,.35,.73,.74,.99,1.24,.14,.24,.27,.49,.35,.79l.13,.43,.04,.47c.09,.57-.23,1.49-.4,1.75l-.07,.15-.04,.08-.02,.04v.02s-.07,.1-.07,.1h0s0,.02,0,.02l-.29,.35c-.2,.23-.38,.47-.64,.63-.48,.39-1.03,.58-1.58,.75l-.81,.13c-.27,.03-.52,.02-.78,.03-.52,0-1.01-.09-1.5-.17-.48-.09-.96-.2-1.41-.36-.91-.29-1.78-.66-2.61-1.09-.82-.44-1.63-.92-2.36-1.49l-.07-.05h0c-.12-.16-.09-.37,.05-.49,.12-.09,.28-.1,.4-.02Z"/>
          <path class="cls-5" d="M59.71,82.08c-.33,.78-.68,1.72-.91,2.6-.22,.87-.41,1.86-.18,2.52,.13,.3,.29,.39,.64,.41,.17,0,.37-.02,.57-.07l.15-.04s.07-.02,.05-.01l.08-.03,.34-.12,.34-.12,.08-.03c-.08,.03,.02-.01,.03-.02l.16-.07,.65-.3c.44-.19,.88-.39,1.22-.65,.36-.26,.75-.45,1.09-.74l1.04-.87c.63-.65,1.27-1.3,1.8-2.05,.29-.35,.54-.74,.79-1.13,.25-.39,.51-.77,.73-1.18,.47-.8,.88-1.63,1.29-2.47,.8-1.7,1.52-3.44,2.25-5.2,.37-.88,.77-1.76,1.18-2.64,.43-.87,.85-1.75,1.37-2.6,.24-.43,.52-.85,.82-1.26l.22-.31,.11-.15,.05-.08,.03-.04v-.02s.07-.07,.07-.07l.48-.53c.13-.17,.36-.37,.6-.56,.23-.19,.46-.39,.72-.51,.49-.3,1.06-.51,1.64-.62,1.18-.21,2.36,.06,3.34,.51,1,.47,1.82,1.06,2.62,1.85l-1.48,.06c.94-1.11,1.98-1.93,3.24-2.58,1.24-.64,2.71-.98,4.15-.81,1.45,.14,2.76,.78,3.88,1.55l.41,.3,.21,.15,.1,.08,.05,.04,.1,.09,.66,.66c.44,.43,.88,1.05,1.29,1.58,.73,1.07,1.39,2.16,2.01,3.26,.61,1.1,1.21,2.2,1.79,3.29l1.78,3.26c.6,1.08,1.23,2.13,1.86,3.18l.98,1.56,1.04,1.5c.34,.51,.74,.96,1.11,1.45,.36,.49,.76,.94,1.18,1.38,.79,.92,1.7,1.71,2.61,2.51l1.45,1.06c.49,.35,1.04,.6,1.55,.9l.39,.22s.17,.09,.16,.09l.22,.08,.87,.35c.58,.24,1.16,.48,1.73,.58,.57,.13,1.15,.3,1.72,.39,.63,.09,1.19,.14,1.75,.09,.56-.04,1.07-.22,1.25-.58,.2-.36,.09-.96-.1-1.49-.41-1.09-1.11-2.13-1.87-3.09h0c-.09-.11-.07-.27,.04-.36,.11-.08,.26-.07,.35,.03,.84,.94,1.63,1.94,2.18,3.14,.23,.6,.5,1.32,.16,2.13-.17,.39-.52,.68-.86,.84-.34,.16-.69,.25-1.03,.29-.68,.09-1.36,.06-1.97,0-.66-.08-1.28-.23-1.93-.34-.66-.09-1.24-.31-1.83-.52l-.88-.31-.22-.08c-.15-.07-.17-.08-.26-.13l-.43-.22c-.56-.31-1.16-.57-1.7-.92l-1.59-1.09c-.99-.81-1.98-1.63-2.84-2.57-.45-.45-.89-.92-1.28-1.41-.4-.49-.84-.96-1.2-1.48l-1.13-1.53-1.06-1.57c-.69-1.05-1.34-2.14-1.96-3.22l-1.83-3.27c-.6-1.09-1.2-2.17-1.81-3.24-.62-1.06-1.26-2.09-1.94-3.07-.37-.44-.63-.86-1.08-1.3l-.67-.65-.63-.45c-.92-.62-1.93-1.09-2.98-1.18-1.04-.1-2.09,.13-3.07,.61-.96,.47-1.91,1.22-2.58,2.01h0c-.36,.43-.99,.48-1.41,.12l-.06-.06c-.54-.55-1.28-1.1-2.01-1.44-.73-.35-1.5-.51-2.2-.38-.35,.06-.69,.18-1.01,.38-.18,.07-.3,.2-.44,.3-.14,.1-.28,.2-.45,.4l-.48,.53s.05-.06,.04-.04h0s-.01,.03-.01,.03l-.02,.03-.05,.07-.1,.14-.19,.27c-.27,.36-.52,.73-.75,1.13-.48,.77-.9,1.6-1.31,2.44-.41,.84-.79,1.7-1.18,2.56-.78,1.73-1.56,3.48-2.44,5.21-.45,.86-.91,1.72-1.42,2.55-.24,.42-.53,.82-.81,1.23-.27,.41-.55,.81-.88,1.18-.6,.79-1.31,1.48-2.03,2.18l-1.18,.92c-.39,.31-.87,.53-1.31,.8-.44,.28-.89,.45-1.33,.62l-.66,.27-.17,.07-.14,.05-.09,.02-.34,.1-.34,.1-.09,.02-.12,.03-.2,.04c-.26,.05-.55,.08-.85,.06-.3-.03-.64-.1-.94-.32-.3-.21-.49-.53-.58-.83-.19-.6-.13-1.13-.06-1.64,.08-.51,.21-.98,.36-1.45,.32-.95,.68-1.78,1.16-2.72,.08-.16,.28-.23,.45-.14,.15,.08,.22,.26,.15,.42l-.04,.08Z"/>
          <path class="cls-5" d="M54.12,79.65h0c.06-.07,.02,0,.03-.03h0s0,0,0,0v.02s-.03,.03-.03,.03c-.34,.71-.69,1.41-1,2.11-.32,.7-.6,1.4-.82,2.09-.11,.35-.19,.69-.24,1.01-.06,.33-.06,.63-.03,.89,.04,.25,.1,.45,.22,.58,.07,.06,.1,.15,.22,.19,.05,.03,.1,.06,.14,.09l.03,.03h.02s0,.02,0,.02h0s-.28-.1-.14-.05h0s.14,.04,.14,.04c.19,.06,.43,.13,.41,.07,.02,0,.04,0,.06,0,.04,0,.12-.03,.18-.05,.12-.02,.26-.06,.4-.14,.14-.06,.28-.11,.43-.21,.3-.15,.58-.37,.88-.58,.28-.24,.58-.45,.86-.71,1.14-1,2.21-2.14,3.32-3.27h0c.1-.11,.26-.11,.36,0,.08,.08,.1,.19,.06,.29-.65,1.49-1.5,2.88-2.59,4.14-.26,.32-.56,.63-.87,.92-.33,.28-.65,.57-1.04,.83-.18,.14-.39,.25-.61,.36-.21,.12-.44,.21-.71,.28-.13,.04-.24,.08-.39,.1-.17,.02-.35,.02-.53,.02-.42,0-.56-.07-.75-.11l-.14-.04-.16-.06h-.01s-.02-.02-.02-.02l-.05-.03-.09-.05-.36-.23c-.25-.13-.44-.38-.64-.61-.38-.47-.55-1.07-.61-1.6-.03-.53,.03-1.02,.14-1.46,.11-.45,.25-.87,.44-1.26,.35-.79,.79-1.5,1.28-2.16,.5-.66,1.02-1.28,1.63-1.84l-.02,.03,.02-.02h0s0,0,0,0c.01-.02-.03,.04,.03-.05h.01c.15-.13,.36-.1,.48,.04,.09,.11,.1,.27,.03,.39Z"/>
          <path class="cls-12" d="M81.98,138.37s.07,.03,.21,.07c.13,.04,.31,.08,.53,.16,.23,.07,.53,.15,.84,.25,.33,.09,.7,.18,1.09,.3,.4,.1,.84,.18,1.28,.3,.45,.1,.93,.14,1.41,.25,.48,.08,.98,.06,1.48,.13,.5,.04,.99-.03,1.49,0h.19s.05,0,.05,0h.02c-.06,0,.13-.02-.12,.02h.03s.11-.02,.11-.02l.44-.06c.29-.04,.59-.08,.88-.12,.14-.02,.29-.04,.43-.05l.33-.08c.22-.05,.44-.1,.65-.15,.43-.07,.89-.27,1.31-.38,.43-.13,.8-.32,1.18-.45,.36-.17,.69-.33,.98-.46,.28-.17,.54-.29,.75-.41,.23-.15,.34-.18,.55-.33,.19-.12,.29-.18,.29-.18,.43-.28,1.01-.15,1.29,.29,.15,.23,.18,.51,.11,.75l-.2,.69s-.01,.04-.03,.11c0,.04-.19,.29-.34,.5-.35,.46-.92,1.09-1.72,1.73-.41,.29-.84,.66-1.36,.92-.26,.14-.53,.28-.8,.42-.27,.15-.56,.28-.89,.38-.32,.11-.65,.22-.98,.33l-.51,.16c-.15,.04-.29,.06-.43,.09-.29,.05-.58,.1-.88,.15l-.44,.08-.11,.02h-.03s-.15,.02-.15,.02h-.02s-.06,0-.06,0h-.26c-.69,.01-1.41,.06-2.08-.02-.66-.1-1.33-.2-1.94-.37-.6-.18-1.19-.36-1.71-.59-.52-.24-1.01-.45-1.43-.71-.86-.49-1.51-.99-1.95-1.36-.23-.2-.4-.37-.51-.47-.1-.11-.15-.16-.15-.16-.41-.44-.38-1.13,.06-1.53,.31-.28,.73-.36,1.1-.22h.01Z"/>
          <path class="cls-8" d="M65.8,155.56s-.23,2.02-.58,5.06c-.09,.76-.2,1.57-.3,2.44-.1,.87-.23,1.77-.33,2.72-.2,1.9-.45,3.91-.71,5.93-.28,2.01-.54,4.03-.72,5.92-.2,1.89-.43,3.66-.61,5.17-.18,1.51-.38,2.77-.5,3.66-.14,.88-.21,1.39-.21,1.39v.02c-.05,.29-.32,.49-.6,.44-.27-.04-.45-.27-.45-.53,0,0,.01-.51,.04-1.4,.04-.89,.07-2.17,.16-3.7,.09-1.53,.18-3.32,.32-5.23,.08-.96,.12-1.95,.24-2.95,.12-1,.25-2.01,.37-3.03,.26-2.03,.53-4.06,.81-5.95,.27-1.9,.67-3.65,.94-5.16,.57-3.02,1.12-4.98,1.12-4.98h0c.08-.29,.37-.46,.65-.38,.25,.07,.41,.32,.38,.57Z"/>
          <path class="cls-8" d="M111.23,154.77s.18,.47,.46,1.33c.27,.86,.69,2.07,1.08,3.55,.42,1.48,.87,3.21,1.32,5.07,.22,.93,.42,1.9,.62,2.89,.19,.99,.42,1.99,.59,3,.31,2.03,.69,4.04,.88,5.95,.11,.96,.18,1.88,.27,2.76,.07,.88,.19,1.7,.2,2.47,.06,1.54,.07,2.82,.09,3.72,0,.9,.01,1.41,.01,1.41,0,.29-.23,.53-.52,.53-.27,0-.49-.2-.53-.46v-.03s-.07-.5-.19-1.38c-.1-.88-.28-2.13-.43-3.64-.06-.75-.23-1.56-.35-2.42-.13-.86-.29-1.76-.41-2.7-.11-.94-.31-1.9-.48-2.88-.17-.98-.34-1.98-.51-2.98-.37-1.99-.75-3.98-1.1-5.84-.4-1.86-.67-3.61-1.01-5.09-.6-2.98-1-4.97-1-4.97-.06-.29,.13-.56,.41-.62,.26-.05,.51,.09,.6,.33h0Z"/>
          <path class="cls-16" d="M79.06,164.74s-.14,.11-.34,.19c-.2,.08-.47,.12-.74,.1-.27-.02-.53-.1-.72-.2-.19-.1-.32-.22-.32-.22-.21-.19-.22-.51-.04-.72,.02-.03,.05-.05,.08-.07,0,0,.14-.1,.34-.18,.2-.08,.47-.12,.74-.11,.27,.01,.53,.09,.72,.19,.19,.11,.32,.23,.32,.23,.21,.2,.21,.53,.01,.73-.02,.02-.04,.04-.06,.05Z"/>
          <path class="cls-18" d="M115.41,110.31s0-.55,.25-1.33c.13-.39,.34-.83,.69-1.27,.18-.21,.38-.43,.64-.61,.25-.18,.54-.34,.86-.43,.1-.03,.11-.04,.29-.07l.18-.02c.09-.02,.3-.02,.49-.02,.36,.02,.65,.12,.93,.23,.55,.25,.92,.62,1.19,.95,.27,.33,.42,.64,.52,.85,.1,.22,.14,.35,.14,.36,.1,.19,.03,.43-.17,.53-.19,.1-.43,.03-.53-.17,0,.02-.3-.35-.81-.74-.12-.1-.27-.19-.41-.27-.14-.09-.3-.14-.45-.2-.15-.04-.33-.07-.45-.06-.05,0-.09-.02-.24,.02l-.18,.03c.06-.01-.05,.02-.07,.03-.62,.17-1.18,.82-1.53,1.39-.18,.28-.33,.53-.42,.71-.09,.18-.15,.28-.15,.28h0c-.11,.21-.35,.29-.55,.18-.13-.07-.21-.21-.21-.35Z"/>
          <path d="M75.01,98.15s-.08-.15-.24-.42c-.15-.27-.38-.65-.68-1.06-.3-.41-.68-.84-1.09-1.11-.21-.11-.42-.22-.63-.25-.1-.04-.22-.02-.33-.02h-.04s-.01,0-.01,0c-.02,0,.14-.01,.07,0h0s0,0,0,0h-.04s-.14,.03-.14,.03l-.28,.04c-.23,.02-.25,.07-.38,.1-.1,.01-.23,.1-.35,.15-.24,.12-.47,.27-.67,.45-.2,.19-.39,.39-.56,.6-.16,.22-.31,.44-.44,.66-.25,.44-.43,.84-.54,1.12-.11,.28-.17,.44-.17,.44l-.03,.07c-.11,.27-.42,.4-.69,.29-.21-.08-.33-.28-.33-.49,0,0,0-.06,0-.16,0-.1,0-.24,.02-.42,.03-.36,.1-.88,.3-1.48,.2-.6,.53-1.31,1.12-1.96,.3-.32,.65-.62,1.07-.85,.22-.1,.41-.23,.67-.3,.23-.07,.56-.18,.71-.19l.28-.04,.14-.02h.04s.1-.01,.1-.01h.02s.1,0,.1,0c.27,.01,.53,0,.79,.08,.53,.09,.97,.38,1.35,.65,.72,.59,1.11,1.28,1.37,1.85,.26,.58,.38,1.08,.45,1.43,.04,.18,.05,.32,.06,.42,0,.1,.02,.15,.02,.15,.03,.29-.18,.56-.48,.59-.22,.02-.42-.09-.52-.28l-.02-.04Z"/>
          <path d="M94.82,98.37s0-.05,0-.15c0-.1,0-.24,.01-.42,.02-.36,.08-.87,.27-1.48,.19-.6,.48-1.33,1.12-2.01,.34-.32,.74-.65,1.25-.81,.25-.11,.51-.14,.77-.18h.1s.02-.02,.02-.02h.1s.04,0,.04,0h.14s.28,0,.28,0c.15-.01,.49,.06,.73,.1,.27,.04,.48,.14,.71,.21,.44,.18,.83,.44,1.17,.71,.67,.57,1.09,1.23,1.36,1.8,.27,.58,.41,1.08,.48,1.43,.04,.18,.05,.32,.07,.42,.01,.1,.02,.16,.02,.16,.03,.29-.17,.55-.46,.59-.22,.03-.42-.09-.52-.27l-.04-.07s-.08-.15-.23-.41c-.15-.27-.38-.64-.68-1.05-.15-.2-.33-.4-.52-.6-.19-.19-.41-.37-.63-.53-.23-.15-.47-.28-.72-.36-.12-.03-.27-.1-.37-.1-.13,0-.16-.06-.39-.05h-.28s-.14,0-.14,0h-.04s0,0,0,0h0c-.07,0,.09,0,.07,0h-.01s-.04,0-.04,0c-.11,.02-.22,.01-.32,.06-.21,.05-.4,.18-.59,.32-.38,.32-.7,.8-.94,1.24-.24,.45-.42,.85-.54,1.14-.12,.29-.18,.45-.18,.45l-.02,.04c-.11,.27-.42,.41-.69,.3-.21-.08-.33-.28-.34-.49Z"/>
          <path class="cls-2" d="M83.93,90.32c-1.67,.11-3.84,9.12-2.91,10.21,.99,1.16,5.71,1.33,6.38-.08,.67-1.41-.6-10.32-3.48-10.13Z"/>
          <path class="cls-9" d="M101.77,88.57c.24,.08,.39,.12,.39,.12l.2,.05c.61,.16,1.22-.21,1.38-.81,.06-.23,.04-.46-.03-.67,0,0-.06-.17-.2-.45-.14-.28-.33-.69-.7-1.09-.18-.2-.36-.45-.61-.64-.25-.2-.51-.43-.81-.6-.31-.17-.63-.36-.98-.49-.36-.12-.72-.27-1.1-.32-.38-.08-.76-.13-1.14-.13-.38-.03-.74,.03-1.09,.07-.69,.12-1.31,.32-1.79,.59-.49,.24-.85,.53-1.09,.75-.12,.1-.55,.93-.55,.93-.17,.54,.12,1.12,.66,1.29,.17,.05,3.9-.74,7.47,1.41Z"/>
          <path class="cls-9" d="M66.93,90.06c-.21,.14-.34,.22-.34,.22l-.18,.11c-.54,.32-1.23,.13-1.55-.41-.12-.21-.17-.43-.15-.65,0,0,.01-.18,.07-.48,.06-.3,.14-.75,.38-1.24,.12-.24,.22-.53,.42-.78,.19-.26,.37-.55,.62-.8,.25-.25,.51-.52,.81-.74,.31-.22,.62-.45,.97-.61,.34-.18,.7-.33,1.06-.43,.35-.13,.72-.17,1.07-.23,.7-.07,1.35-.05,1.89,.08,.54,.1,.96,.28,1.26,.43,.14,.07,.78,.74,.78,.74,.31,.47,.18,1.11-.29,1.42-.14,.1-3.95,.34-6.8,3.38Z"/>
          <g>
            <path class="cls-11" d="M44.09,66.25c-.04,.86-39.61-.13-43.68-30.77C-4.01,2.21,28.62-5.25,44,3.2c13.68,7.52,21.08,27.63,8.42,44.39-5.8,7.68-16.03,10.08-15.27,11.78,1.04,2.35,7,5.82,6.94,6.89Z"/>
            <path d="M20.93,27.29c.02,.77-.6,1.41-1.36,1.42-.77,.02-1.4-.59-1.42-1.36-.02-.77,.59-1.4,1.36-1.42,.77-.02,1.41,.6,1.42,1.36Z"/>
            <path d="M42.29,26.85c.02,.77-.59,1.41-1.36,1.42-.77,.02-1.41-.59-1.42-1.36-.02-.77,.6-1.41,1.37-1.42,.77-.02,1.4,.59,1.42,1.36Z"/>
            <path d="M23.84,30.14s.03,.08,.07,.18c.05,.12,.14,.29,.24,.52,.21,.45,.57,1.06,1.07,1.7,.26,.31,.56,.63,.9,.93,.35,.28,.73,.56,1.16,.77,.43,.22,.89,.39,1.39,.49,.47,.12,1.06,.15,1.51,.16,.29-.01,.62,0,.88-.04l.7-.12c.24-.08,.48-.14,.72-.21,.22-.1,.44-.2,.66-.3,.41-.24,.8-.5,1.13-.81,.33-.31,.62-.63,.87-.96,.49-.65,.82-1.28,1.01-1.73,.2-.45,.29-.72,.28-.7,.05-.29,.32-.48,.61-.43,.29,.05,.48,.32,.43,.61,0,0,0,.09-.03,.25-.02,.15-.05,.38-.12,.65-.14,.55-.36,1.34-.86,2.21-.24,.43-.56,.89-.95,1.33-.4,.43-.87,.85-1.43,1.2-.28,.16-.58,.31-.88,.46-.31,.12-.63,.23-.96,.34-.35,.08-.71,.14-1.06,.2-.34,.04-.61,.04-.92,.06-.75,0-1.38-.06-2.06-.23-.66-.15-1.29-.42-1.86-.75-.57-.32-1.05-.73-1.46-1.15-.2-.21-.38-.44-.56-.64-.15-.23-.3-.44-.44-.65-.52-.86-.76-1.64-.92-2.19-.08-.27-.11-.5-.14-.65-.02-.16-.03-.24-.03-.24-.04-.29,.16-.56,.45-.6,.25-.04,.49,.12,.57,.35v.02Z"/>
            <path class="cls-10" d="M19.09,32.37c-.05-2.28-1.93-4.09-4.21-4.04-2.28,.05-4.09,1.93-4.04,4.21,.05,2.28,1.93,4.09,4.21,4.04,2.28-.05,4.09-1.93,4.04-4.21Z"/>
            <path class="cls-10" d="M48.9,32.37c-.05-2.28-1.93-4.09-4.21-4.04-2.28,.05-4.09,1.93-4.04,4.21,.05,2.28,1.93,4.09,4.21,4.04,2.28-.05,4.09-1.93,4.04-4.21Z"/>
          </g>
          <path class="cls-17" d="M81.18,166.19c-.28-4.5,3.14-8.39,7.64-8.67,4.5-.28,8.39,3.14,8.67,7.64,.28,4.5-3.14,8.39-7.64,8.67-4.5,.28-8.39-3.14-8.67-7.64Z"/>
          <path class="cls-16" d="M94.61,156.16s.01-.26,.09-.61c.09-.35,.26-.79,.48-1.2,.22-.41,.5-.79,.75-1.05,.25-.26,.45-.42,.45-.42,.19-.14,.46-.11,.61,.09,.07,.09,.09,.19,.09,.29,0,0-.02,.26-.1,.61-.09,.35-.25,.79-.47,1.2-.22,.41-.49,.79-.74,1.06-.25,.26-.46,.41-.46,.41-.2,.14-.47,.1-.61-.1-.06-.08-.09-.18-.08-.28Z"/>
          <path class="cls-16" d="M97.31,159.02s.14-.22,.38-.49c.25-.27,.61-.57,1.01-.83,.4-.26,.83-.46,1.17-.58,.35-.11,.6-.15,.6-.15,.24-.04,.46,.13,.49,.36,.02,.11,0,.21-.06,.3,0,0-.14,.22-.39,.49-.25,.27-.61,.58-1.01,.83-.4,.26-.82,.47-1.17,.58-.35,.11-.61,.15-.61,.15-.24,.03-.46-.14-.49-.38-.01-.1,.01-.2,.06-.28Z"/>
          <path class="cls-16" d="M98.94,163.22s.24-.14,.6-.27c.36-.13,.85-.23,1.34-.28,.49-.05,.99-.03,1.37,.02,.38,.06,.63,.14,.63,.14,.23,.07,.35,.31,.28,.54-.03,.11-.11,.19-.2,.25,0,0-.24,.13-.6,.26-.36,.12-.85,.23-1.34,.28-.49,.05-.99,.04-1.37-.01-.38-.06-.64-.15-.64-.15-.23-.08-.35-.33-.27-.55,.04-.1,.11-.18,.19-.23Z"/>
          <path class="cls-16" d="M98.54,167.93s.15-.05,.33-.05c.18,0,.4,.05,.59,.16,.19,.1,.34,.27,.44,.42,.1,.16,.14,.3,.14,.3,.09,.29-.08,.6-.38,.69h0s-.15,.04-.33,.05c-.18,0-.4-.05-.59-.15-.19-.1-.35-.26-.45-.41-.1-.16-.14-.31-.14-.31-.08-.3,.09-.6,.38-.69Z"/>
          <path class="cls-16" d="M96.68,172.5s.35,.22,.82,.6c.47,.38,1.04,.94,1.57,1.54,.53,.59,1.02,1.23,1.35,1.73,.33,.51,.52,.88,.52,.88,.1,.2,.02,.45-.18,.55-.14,.07-.29,.05-.41-.02,0,0-.35-.23-.81-.61-.46-.39-1.05-.94-1.58-1.53-.53-.59-1.02-1.22-1.36-1.73-.33-.51-.51-.88-.51-.88-.1-.2-.02-.45,.19-.55,.13-.06,.28-.05,.4,.02Z"/>
          <path class="cls-16" d="M92.56,175.03s.16,.15,.33,.39c.17,.24,.33,.58,.43,.94,.1,.36,.15,.73,.14,1.02-.01,.29-.06,.5-.06,.5-.06,.25-.3,.4-.55,.34-.08-.02-.15-.06-.21-.11,0,0-.15-.15-.32-.39-.16-.24-.33-.58-.44-.94-.11-.36-.16-.73-.15-1.02,.01-.29,.07-.5,.07-.5,.07-.25,.32-.39,.57-.33,.07,.02,.14,.06,.19,.1Z"/>
          <path class="cls-16" d="M88.34,175.54s0,.33-.07,.81c-.07,.47-.23,1.08-.44,1.67-.21,.59-.48,1.16-.72,1.57-.25,.41-.45,.67-.45,.67-.14,.18-.41,.21-.59,.07-.11-.08-.16-.21-.16-.33,0,0,0-.33,.08-.81,.08-.47,.22-1.09,.43-1.68,.21-.59,.47-1.16,.72-1.58,.25-.41,.46-.67,.46-.67,.15-.18,.41-.21,.59-.06,.1,.08,.15,.2,.15,.32Z"/>
          <path class="cls-16" d="M82.8,173.82s-.06,.18-.2,.39c-.14,.21-.36,.44-.61,.62-.25,.18-.54,.31-.78,.37-.24,.06-.43,.06-.43,.06-.26,0-.48-.2-.49-.47,0-.06,0-.12,.03-.17,0,0,.06-.18,.2-.39,.14-.21,.35-.44,.61-.62,.25-.18,.54-.32,.78-.38,.24-.06,.44-.06,.44-.06,.27,0,.49,.22,.48,.49,0,.05,0,.1-.02,.15Z"/>
          <path class="cls-16" d="M79.99,170.23s-.28,.14-.7,.27c-.42,.13-.99,.24-1.57,.29-.57,.05-1.15,.04-1.59,0-.44-.05-.74-.13-.74-.13-.23-.06-.36-.29-.3-.52,.03-.12,.12-.22,.23-.27,0,0,.28-.13,.7-.26,.42-.13,.99-.24,1.57-.3,.57-.06,1.15-.05,1.59,0,.44,.05,.74,.14,.74,.14,.23,.07,.35,.3,.29,.53-.03,.12-.12,.21-.22,.26Z"/>
          <path class="cls-16" d="M80.7,160.33s-.27-.05-.64-.19c-.36-.14-.81-.38-1.22-.67-.41-.29-.79-.63-1.05-.92-.26-.29-.4-.52-.4-.52-.13-.2-.07-.47,.13-.59,.1-.06,.21-.08,.32-.06,0,0,.27,.06,.63,.2,.36,.14,.81,.38,1.23,.67,.42,.29,.8,.62,1.06,.91,.26,.29,.4,.53,.4,.53,.12,.21,.06,.47-.15,.59-.09,.06-.2,.07-.3,.05Z"/>
          <path class="cls-16" d="M84.57,157.07s-.16-.18-.34-.48c-.17-.29-.33-.7-.44-1.12-.11-.42-.15-.86-.15-1.2,0-.34,.06-.58,.06-.58,.05-.24,.28-.39,.52-.34,.1,.02,.19,.07,.25,.14,0,0,.16,.18,.33,.48,.17,.3,.34,.7,.45,1.12,.11,.42,.17,.86,.16,1.2,0,.34-.06,.58-.06,.58-.06,.24-.29,.39-.53,.33-.09-.02-.17-.07-.23-.14Z"/>
          <path class="cls-16" d="M89.78,155.99s-.11-.38-.21-.95c-.09-.57-.15-1.33-.14-2.08,0-.76,.07-1.52,.15-2.08,.09-.57,.2-.95,.2-.95,.06-.22,.29-.35,.51-.28,.14,.04,.25,.15,.28,.28,0,0,.11,.38,.2,.95,.09,.57,.15,1.33,.15,2.08,0,.76-.06,1.52-.15,2.08-.09,.57-.21,.95-.21,.95-.06,.22-.29,.34-.51,.28-.14-.04-.24-.15-.28-.28Z"/>
          <path class="cls-3" d="M100.42,107.56c.19,3,2.82,5.28,5.87,5.09,3.06-.19,5.38-2.78,5.19-5.79-.19-3-2.82-5.28-5.87-5.09-3.05,.19-5.38,2.78-5.19,5.78Z"/>
          <path class="cls-3" d="M61.07,107.28c.19,3,2.82,5.28,5.87,5.09,3.06-.19,5.38-2.78,5.19-5.79-.19-3-2.82-5.28-5.87-5.09-3.05,.19-5.38,2.78-5.19,5.79Z"/>
          <g>
            <path class="cls-1" d="M70.4,104.23c-1.58,.94-2.52,14.98,13.26,16.02,15.85,1.04,18.41-9.68,17.48-15.13-.38-2.25-8.96,.27-17.64-.07-8.82-.35-11.76-1.62-13.1-.82Z"/>
            <path class="cls-7" d="M97.75,111.15s-1.5,.57-3.84,1.12c-1.17,.25-2.54,.57-4.04,.75-.74,.11-1.52,.19-2.31,.25-.79,.09-1.59,.1-2.39,.13-.8,.02-1.61-.03-2.4-.04-.79-.07-1.57-.13-2.32-.22-.75-.13-1.47-.24-2.14-.41-.67-.19-1.3-.35-1.88-.54-.56-.23-1.07-.44-1.53-.63-.46-.17-.81-.44-1.12-.6-.61-.35-.96-.55-.96-.55-.05-.03-.06-.08-.03-.13,.02-.04,.08-.06,.12-.04h.01s.36,.17,.99,.47c.32,.13,.68,.36,1.14,.49,.46,.15,.97,.32,1.53,.51,.57,.15,1.2,.28,1.85,.44,.66,.14,1.38,.19,2.1,.32,.73,.08,1.5,.12,2.27,.18,.78,0,1.56,.03,2.35,0,.79-.04,1.58-.03,2.35-.11,.78-.05,1.54-.12,2.27-.22,1.47-.18,2.84-.38,4.01-.6,1.17-.23,2.14-.41,2.82-.58,.68-.16,1.06-.25,1.06-.25,.07-.02,.14,.02,.15,.09,.02,.06-.02,.13-.08,.15Z"/>
          </g>
        </g>
      </g>
    </g>
  </g>
</svg>