<?xml version="1.0" encoding="UTF-8"?>
<svg id="_레이어_2" data-name="레이어 2" xmlns="http://www.w3.org/2000/svg" xmlns:xlink="http://www.w3.org/1999/xlink" viewBox="0 0 50.89 50.89">
  <defs>
    <style>
      .cls-1 {
        fill: #b5cc4c;
      }

      .cls-2 {
        opacity: .5;
      }

      .cls-3 {
        fill: #74c2d6;
      }

      .cls-4 {
        fill: #448faa;
      }

      .cls-5 {
        clip-path: url(#clippath);
      }

      .cls-6 {
        fill: none;
      }

      .cls-7 {
        fill: #5ca0bd;
      }

      .cls-8 {
        fill: #9fb22f;
      }
    </style>
    <clipPath id="clippath">
      <path class="cls-6" d="M49.23,16.41c4.99,13.13-1.61,27.83-14.75,32.81-13.13,4.99-27.82-1.61-32.81-14.74C-3.32,21.35,3.28,6.66,16.41,1.67c13.13-4.99,27.82,1.61,32.82,14.75Z"/>
    </clipPath>
  </defs>
  <g id="OBJECTS">
    <g>
      <path class="cls-7" d="M49.23,16.41c4.99,13.13-1.61,27.83-14.75,32.81-13.13,4.99-27.82-1.61-32.81-14.74C-3.32,21.35,3.28,6.66,16.41,1.67c13.13-4.99,27.82,1.61,32.82,14.75Z"/>
      <g class="cls-5">
        <g>
          <g class="cls-2">
            <path class="cls-3" d="M15.21,13.18c-.65,.25-2.87,.03-3.31-.17-2.02-.85-1.62-2.9-1.32-4.39,.12-.6,.23-1.16,.19-1.56-.11-1.28-.46-2.24-1.06-2.88l-.53-.56L14.8-.23l.38,.28c.79,.6,1.18,1.37,1.52,2.05v.04s.02,.04,.02,.04c.05,.13,.1,.25,.13,.38,.06,.21,.14,.43,.24,.6,.07,.06,.26,.15,.37,.2,.28,.14,.55,.27,.68,.54,1.03,1.84-.27,3.09-1.21,4.01-.64,.62-1.25,1.2-1.28,1.88v.04c-.02,.18,.06,.53,.12,.85,.17,.8,.39,1.8-.33,2.39l-.02,.02h-.02c-.06,.05-.12,.09-.19,.11h0Z"/>
          </g>
          <path class="cls-1" d="M10.18,3.72c.78,.83,1.13,2,1.24,3.27,.15,1.63-1.47,4.49,.75,5.42,.34,.15,2.56,.34,2.85,.13,.64-.52-.11-2.02-.03-2.79,.1-2.19,3.97-3.1,2.56-5.55-.06-.17-.79-.36-.99-.65-.24-.38-.31-.82-.43-1.14-.36-.71-.69-1.33-1.35-1.83l-4.6,3.15Z"/>
          <g class="cls-2">
            <path class="cls-3" d="M21.87,1.02c-.08,.03-.16,.06-.25,.08h-.04c-.67,.13-1.2,.04-1.61-.29-.37-.29-.61-.75-.73-1.41l-.09-.48,1.6-.72h.02c.57-.22,1.15-.16,1.59,.2,.43,.35,.64,.89,.55,1.43-.09,.55-.47,.98-1.05,1.2h0Z"/>
          </g>
          <path class="cls-1" d="M19.9-.71c.18,.96,.61,1.36,1.57,1.18,1.45-.36,.77-2.16-.46-1.69l-1.11,.51Z"/>
          <g class="cls-2">
            <path class="cls-3" d="M27.68,11.27c-.25,.09-.53,.13-.8,.1h-.06s-.08-.01-.08-.01c-.72-.21-2.52-2.35-2.69-2.81l-.18-.48,.88-.61,.18-.02c1.17-.11,1.81,.57,2.33,1.12,.08,.09,.17,.17,.25,.26h0s.12,.05,.17,.07c.22,.07,.6,.2,.79,.59,.12,.25,.13,.54,.02,.87-.08,.41-.38,.76-.83,.93h0Z"/>
          </g>
          <path class="cls-1" d="M24.72,8.3c.16,.41,1.81,2.3,2.23,2.43,.39,.04,.88-.15,.92-.54,.27-.76-.49-.56-.81-.91-.61-.61-1.05-1.28-2.04-1.19l-.3,.21Z"/>
          <g class="cls-2">
            <path class="cls-3" d="M24.22,13.04l-.15-.71c-.15-.65-.18-1.5-.17-2.04v-.54s1.27-.21,1.27-.21l.23,.17c.5,.38,.75,1,.65,1.67-.09,.66-.52,1.16-1.12,1.38l-.71,.27Z"/>
          </g>
          <path class="cls-1" d="M24.56,10.32c0,.47,.02,1.3,.16,1.9,.82-.31,.93-1.48,.28-1.98l-.44,.08Z"/>
          <g class="cls-2">
            <path class="cls-3" d="M46.8,41.06c-.27,.1-.57,.12-.86,.04-1.06-.25-1.34-1.48-1.56-2.37-.06-.26-.12-.52-.19-.69-.11-.24-.22-.45-.32-.66-.42-.84-.82-1.64-.78-2.84-.07-1.75-.12-1.84-1.4-3.02-.43-.4-.71-.96-.97-1.51-.22-.45-.47-.96-.7-1.11-.1-.06-.26-.11-.62,.02-.26,.1-.53,.26-.79,.42-.17,.1-.32,.2-.48,.28l-.04,.02c-.29,.12-.59,.24-.88,.36-1.73,.66-3.42,1.03-5,1.09-.13,0-.28,.02-.43,.02-1.13,.07-2.68,.16-3.6-.87v-.02s-.03-.02-.03-.02c-.51-.67-.83-1.99-1.09-3.05-.07-.28-.13-.54-.19-.75-.4-1.3-.62-2.35,.25-3.93v-.02s.03-.02,.03-.02c.16-.25,.35-.45,.53-.66,.29-.33,.55-.62,.62-.98v-.04s.02-.04,.02-.04c.04-.11,0-.24-.05-.47-.06-.25-.14-.56-.1-.94v-.03c.14-.94,.74-1.56,1.47-2.03-1.24,.22-2.59-.13-3.13-.89-.41-.57-.34-1.29,.19-1.93,.17-.2,.38-.35,.67-.46,.25-.09,.5-.14,.74-.19,.19-.04,.37-.07,.5-.12,.01,0,.02,0,.03-.02,0-.02-.01-.06-.02-.1-.11-.13-.52-.33-1.14-.45l-.6-.11,.1-.97,.1-.14c.19-.27,.4-.53,.59-.78,.39-.49,.75-.96,1.01-1.46,.58-1.16,1-1.45,1.81-1.95,.06-.04,.12-.07,.18-.11-.21-.07-.42-.17-.6-.26-.09-.05-.22-.11-.31-.15-.05,.03-.11,.08-.2,.15-.14,.11-.3,.26-.55,.35-.08,.03-.17,.06-.26,.07-1.11,.19-1.89,.02-2.38-.51-.81-.88-.45-2.36-.13-3.67,.12-.52,.25-1.01,.27-1.37,.07-1.2,.12-2.15,1.16-2.55,.34-.13,.78-.19,1.46-.21h.04c.8-.04,1.55-.04,2.05,.22-.01-.09-.02-.19-.03-.28,0-.89,.41-1.53,1.19-1.82,.92-.35,2.19-.14,3.11,0l.15,.02c1.65,.23,2.66,1.1,3.72,2.01,.34,.29,.7,.6,1.08,.88,1.99,1.54,3.87,3.09,5.2,5.07l.7,1.04-1.26-.02c-.23,0-.45-.02-.67-.04,.53,.61,1.12,1.17,1.55,1.37h.02s.02,.02,.02,.02c.19,.1,.42,.11,.72,.13,.46,.02,1.03,.05,1.61,.46l.04,.03c.55,.46,.83,1,1.09,1.52,.05,.1,.11,.21,.17,.32l.42,.81-.81,.14c.77,.45,1.59,.96,1.98,1.57,.5,.75,.85,3.4,.47,4.35-.06,.18-.19,.58-.52,.82l.63-.21,.19,.75c.37,1.45,.78,3.1,.36,4.7-.13,.51-.35,.94-.56,1.36-.25,.48-.46,.89-.49,1.35v.03c-.03,.3,.1,.63,.25,1.03,.13,.33,.27,.7,.33,1.11v.04s0,.04,0,.04c0,.69-.2,1.24-.38,1.73-.13,.35-.25,.68-.29,1.03-.03,.26,.03,.55,.1,.89,.05,.25,.09,.5,.12,.78v.03s0,.04,0,.04c-.04,1.74-.91,2.73-1.76,3.69-.3,.34-.6,.68-.88,1.07-.11,.19-.24,.59-.37,.97-.36,1.07-.77,2.28-1.67,2.62Zm1.27-24.69c.38,.37,.79,.72,1.2,1-.05-.05-.09-.09-.14-.14-.2-.2-.4-.41-.6-.58-.15-.09-.3-.19-.46-.28Zm-13.79-2.22h.03c.66-.19,.98-.15,1.37,.15,.07,.05,.12,.09,.25,.14,.3,.11,.57,.24,.83,.36,.67,.3,1.25,.56,1.9,.54h.02c.28,0,.5-.04,.67-.1,.26-.1,.42-.28,.71-.61,.2-.23,.43-.49,.75-.76,.27-.24,.57-.43,.89-.55,.34-.13,.66-.17,.94-.21,.26-.04,.49-.06,.73-.16,.05-.02,.09-.04,.14-.06,.26-.13,.56-.66,.52-1.1-.02-.22-.11-.34-.32-.41-.12,.05-.28,.17-.43,.28-.23,.18-.49,.38-.8,.5-.42,.16-1.05,.21-1.68-.44-.39-.38-.6-.79-.6-1.23,0,0,0,0,0,0-.12,.13-.25,.22-.37,.31-.05,.04-.11,.08-.16,.12,.05,.06,.12,.15,.18,.21,.27,.31,.6,.69,.59,1.18l-.02,1.14-.98-.59c-.22-.14-.5-.36-.85-.65-.7-.57-2.35-1.92-3.04-1.66-.05,.02-.11,.05-.15,.1-.01,.03-.03,.04-.03,.06,.11,.16,.6,.41,.86,.55,.48,.25,.94,.49,1.18,.86,.35,.53,.53,.91,.41,1.29-.07,.21-.23,.38-.44,.46-.47,.18-.98-.12-2.02-.83-.09-.06-.17-.11-.23-.16l-.03-.02-.02-.02c-.41-.33-.97-.69-1.34-.55-.49,.19-.89,1.17-1.25,2.04-.22,.54-.45,1.09-.72,1.56-.08,.13-.17,.26-.27,.37,.4-.2,.76-.41,1.04-.65l.12-.13c.44-.49,.99-1.09,1.57-1.31h.03Zm6.46-6.77c-.27,.1-.32,.27-.18,1.19,.04,.28,.09,.56,.08,.83,.15-.19,.32-.35,.48-.5,.18-.18,.39-.38,.45-.5l.02-.04c.12-.24,.02-.55-.14-.74-.07-.08-.32-.35-.66-.25,0,0-.02,0-.04,.02Zm-9.63-2.97c.53,.57,1.17,1.33,1.14,2.08h0c.1-.05,.2-.09,.33-.14,.06-.02,.12-.04,.18-.06,.05-.02,.09-.03,.14-.05,.07-.03,.12-.04,.15-.06-.2-.46-.61-1.43-.85-1.94,0,0,0,0,0,0-.1,.05-.19,.09-.28,.13-.29,.11-.55,.13-.78,.05Z"/>
          </g>
          <path class="cls-1" d="M27.6,12.44c.5,.09,1.34,.33,1.61,.79,.56,1.47-1.43,.92-2.01,1.6-1.47,1.78,2.88,2.65,4.01,.72,1.09-1.81,1.46-5.51,4.29-3.22,.63,.42,2.45,1.78,1.36,.14-.44-.67-2.84-1.07-1.97-2.24,1.24-1.41,4.05,1.55,4.9,2.07,0-.47-.84-.99-.8-1.38-.02-.55,.77-.67,.95-1.2,.27-.76-.77-2.51,.65-2.96,1.09-.32,2.06,.99,1.58,1.92-.36,.79-2.07,1.44-.89,2.58,1.07,1.09,1.77-.76,2.61-.52,1.37,.42,.79,2.32-.08,2.74-.95,.45-1.66,.07-2.57,.88-.99,.84-1.07,1.62-2.56,1.63-1.1,.05-1.99-.55-2.97-.93-.65-.22-.38-.51-1.23-.28-.49,.19-1.07,.87-1.47,1.31-1.33,1.16-3.92,1.49-4.18,3.27-.06,.58,.29,1.01,.12,1.54-.16,.81-.83,1.25-1.25,1.88-.72,1.3-.6,2.1-.19,3.44,.26,.93,.62,2.85,1.17,3.58,.81,.91,2.41,.67,3.51,.63,1.93-.08,3.87-.63,5.64-1.4,.71-.36,1.69-1.2,2.54-.68,.74,.47,1.05,2.03,1.77,2.69,1.44,1.32,1.53,1.57,1.61,3.5-.06,1.33,.5,2.05,1.05,3.25,.31,.82,.38,2.47,1.3,2.69,1.26,.36,1.67-2.5,2.18-3.35,1.1-1.54,2.48-2.34,2.53-4.42-.05-.63-.27-1.21-.21-1.79,.1-.97,.68-1.66,.66-2.68-.12-.8-.67-1.52-.59-2.3,.07-1.05,.81-1.8,1.07-2.84,.38-1.45-.02-2.99-.38-4.44-1.83,.6-5.32-2.93-5.84-4.79,.92,.96,2.28,1.57,3.38,2.27,.94,.76,1.78,2.22,2.19,.85,.3-.68,0-3.18-.41-3.77-.47-.76-2.05-1.46-2.82-2.01,.41-.15,.75-.47,1.19-.55-.33-.62-.55-1.19-1.09-1.64-.77-.55-1.55-.16-2.26-.54-1.01-.46-2.59-2.38-3.04-3.33,.77,.55,1.5,.74,2.44,.76-1.3-1.94-3.19-3.46-5.04-4.91-1.57-1.18-2.54-2.5-4.51-2.77-1.39-.22-3.71-.65-3.69,1.12,.06,1.38,1.64,2.84-1.05,1.9C32.01-.08,29.99,.03,29.16,.06c-1.85,.05-1.89,.44-1.99,2.16-.14,1.83-2.04,5.45,1.47,4.86,.44-.07,.56-.49,1.08-.6,.47,0,1.22,.75,1.65,.4,.77-.67-.89-2.09-1.24-2.52-.46-.48-1.4-2.46,.31-1.9,.42,.12,.32,1.1,.77,1.3,.37,.23,.95-.46,1.32-.22,.11,.05,1.16,2.55,1.19,2.63-.11,.69-.69,.63-1.23,.93-.38,.24-.81,.59-1.18,.82-1.05,.68-1.41,.72-2.04,1.99-.44,.82-1.1,1.54-1.65,2.31l-.02,.2Z"/>
          <g class="cls-2">
            <path class="cls-3" d="M35.36,14.66c-.81,.31-1.57-.21-1.94-1.17l-.14-.38,.46-.51,.08-.05c.06-.03,.11-.06,.17-.08,.41-.16,.84-.09,1.19,.18,.4,.31,.64,.89,.58,1.42l-.03,.44-.38,.15Z"/>
          </g>
          <path class="cls-1" d="M34,13.28c.22,.57,.62,.89,1.11,.7,.06-.58-.43-1.14-.97-.84l-.13,.14Z"/>
          <g class="cls-2">
            <path class="cls-3" d="M29.73,8.08s.04,0,.05-.01l-.16-.44-.3-.79c.23-.09,.44-.1,.64-.05,.25,.07,.44,.26,.54,.5,.18,.48,.02,1-.59,1.24l-.17-.45Z"/>
          </g>
          <path class="cls-1" d="M29.18,7.72c.75,.74,1.1-.79,.13-.15l-.13,.15Z"/>
          <g class="cls-2">
            <path class="cls-3" d="M9.3,36.27s.2-.09,.4-.18l-.29-.76c.2-.08,.62-.18,.9-.16,.43,.02,.77,.23,.9,.57,.09,.24,.19,1.12-1.45,1.75l-.47-1.23Z"/>
          </g>
          <path class="cls-1" d="M9.06,36.21c1.7-.93,2.19,.1,.2,.77-.14-.13-.17-.21-.24-.38l.04-.39Z"/>
          <g class="cls-2">
            <path class="cls-3" d="M28.48,54.86c-.17-.03-.35-.07-.53-.11-.66-.14-1.34-.28-1.92-.33-3.06-.4-4.76-1.55-6.67-3.41-.93-.86-2.14-1.1-3.42-1.35-1.22-.24-2.47-.48-3.67-1.26-.98-.65-3.8-2.98-4-5.07-.03-.27,.05-.68,.18-1.26-.17,.05-.34,.05-.52,.02h-.03s-.03-.01-.03-.01c-1.06-.29-1.91-.8-2.72-1.29-.14-.09-.29-.17-.43-.26-.36-.22-.69-.41-1-.59-1.91-1.12-3.16-1.85-4.11-4.57-.2-.6-.43-1.2-.66-1.84-.71-1.91-1.44-3.89-1.67-5.84-.4-3.54,.26-6.8,1.91-9.44,.31-.5,.66-.82,1.05-.97,1.32-.5,2.26,1.01,3.09,2.35,.05,.08,.09,.15,.14,.23,.13-.38,.26-.76,.33-1.11,.06-.31,0-.66-.06-1.03-.07-.4-.14-.81-.07-1.24,.19-1.07,.6-1.73,1.24-1.97,.89-.34,1.86,.28,2.56,1.19,.04-.03,.09-.05,.14-.07,.59-.22,.99,.24,1.16,.44,.06,.07,.14,.16,.18,.18l.06,.04,.05,.05c.22,.2,.28,.48,.34,.7,0,.02,0,.04,.01,.07,.05,0,.09,0,.13,0,.23,.02,.51,.04,.77,.16l.05,.03,.05,.03c.6,.41,.76,.56,.9,.96,.03,.08,.06,.17,.18,.36,.19,.24,.27,.48,.32,.66,.08,.23,.11,.34,.37,.51l.77,.49-.71,.58s-.08,.06-.11,.09c-.17,.14-.36,.31-.66,.42l-.65,.25h0l-.27,1.19c-.25,1.08-1.09,1.47-1.71,1.75-.32,.15-.62,.29-.82,.48-.58,.58-1.64,1.96-1.91,2.7v.02s-.02,.02-.02,.02c-.16,.37-.16,.46-.12,.78,.02,.19,.04,.43,.04,.77,.03,.71-.08,1-.26,1.43-.05,.12-.11,.26-.18,.45-.28,.8-.24,.9-.04,1.49,.09,.25,.2,.57,.32,1.02l.13,.49-.48,.27-.06,.02c-.57,.22-1.08-.22-1.79-.82-.15-.12-.34-.29-.52-.43l.07,.59v-.04s1.02,1.75,1.02,1.75c.16,.26,.23,.61,.31,.98,.06,.27,.19,.83,.31,.94l.03,.02,.02,.03c.07,.06,.11,.08,.37,.09,.41,.03,1.02,.08,1.62,.85v.02c.26,.35,.41,.62,.52,.82q.2,.37,.87,.47h.02s.02,0,.02,0c.25,.06,.6,.05,.97,.05,.37,0,.76-.01,1.14,.04,.55,.03,1.1,.01,1.64,0,1.13-.04,2.29-.08,3.46,.3h.03s.03,.03,.03,.03c.23,.1,.41,.2,.57,.29,.24,.13,.4,.22,.61,.26,.04-.01,.1-.04,.15-.05,.2-.08,.48-.18,.8-.13,.86,.06,1.57,.43,2.13,1.1,.61-.16,1.01-.09,1.4-.03,.23,.04,.44,.07,.74,.07,.36,0,.74-.04,1.14-.09,.63-.08,1.35-.16,2.08-.06,1.08,.15,2.3,.31,2.45,2.12v.03c.02,.43-.14,.79-.27,1.08-.07,.16-.14,.32-.16,.43,.03,.05,.08,.13,.12,.19,.18,.26,.43,.62,.42,1.09-.03,.87-.52,1.29-.85,1.57-.29,.24-.38,.33-.39,.6,0,.22,.12,.62,.24,.98,.15,.47,.32,.96,.3,1.41,.04,.98,.29,1.63,.5,1.78,.02,.02,.08,.05,.25-.02,.02,0,.03-.01,.05-.02l.4-.18,.72,.66,.66,1.74-1.16-.23ZM2.11,33.88c.01,.2,.05,.46,.14,.77,.13,.46,.37,.89,.71,1.3,0-.03,0-.05,0-.08l.13-1.26-.99-.73Zm7.27-11.68s.08-.02,.15-.04c.03-.01,.07-.03,.11-.04l1.16-.53-.18-.59c-.03-.1-.06-.16-.08-.19-.02,0-.07,.02-.13,.04-.19,.07-.42,.21-.66,.35-.25,.15-.52,.31-.78,.42,.15,.15,.26,.32,.33,.45,.02,.04,.06,.09,.08,.13Z"/>
          </g>
          <path class="cls-1" d="M28.1,53.47c-1.44,.64-1.67-1.51-1.71-2.34,.03-.67-.56-1.75-.54-2.42,.04-1.13,1.21-1.02,1.24-2.16,0-.47-.5-.84-.54-1.19-.02-.55,.46-1.02,.43-1.57-.11-1.27-.8-1.38-1.89-1.53-1.09-.15-2.18,.17-3.12,.16-1.02,.01-1.26-.36-2.4,.07-.47-.75-1.1-1.17-1.96-1.22-.31-.07-.65,.25-.96,.18-.5-.09-.79-.36-1.35-.61-1.6-.51-3.24-.17-4.96-.26-.7-.11-1.57,.04-2.19-.1-1.39-.22-1.01-.46-1.81-1.56-.73-.94-1.34-.33-1.92-.86-.51-.37-.54-1.66-.81-2.12-.04,.39-.18,1-.25,1.31-.8-.63-1.47-1.4-1.76-2.42-.26-.93-.35-2.39,.82-1.53-.3-2.5,2.22,.93,2.77,.63-.39-1.53-.75-1.49-.26-2.89,.27-.76,.43-.82,.4-1.65,.02-.94-.21-1.04,.15-1.83,.32-.87,1.45-2.33,2.06-2.93,.75-.75,2.07-.69,2.35-1.92-1.28,.58-.99-.65-1.69-.76-.72-.19-1.11,.51-1.67,1.01-.43-1.15,1.29-1.52,2.08-1.91,.98-.37,2.17-1.66,2.62-.25,.24-.09,.38-.24,.59-.41-.74-.47-.54-.92-.89-1.35-.47-.75-.02-.55-.9-1.15-.34-.15-.86-.05-1.12-.23-.18-.21-.17-.68-.31-.82-.48-.28-.63-1.16-1.22,0-.75-1.49-2.61-2.94-3.08-.23-.11,.7,.28,1.48,.12,2.29-.16,.81-.56,1.71-.76,2.44-1.16-1.33-2.48-5.04-3.93-2.71-1.69,2.7-2.16,5.87-1.81,9.01,.3,2.5,1.49,5.14,2.3,7.54,1,2.89,2.27,3.25,4.82,4.8,.96,.57,1.84,1.17,2.99,1.48,.5,.09,.69-.64,1.17,.12,.03,.08-.33,1.34-.29,1.7,.15,1.62,2.45,3.74,3.7,4.58,2.36,1.53,5.18,.84,7.19,2.69,1.93,1.88,3.48,2.88,6.24,3.24,.78,.08,1.7,.29,2.47,.46-.06-.16-.12-.33-.19-.49l-.25-.28Z"/>
          <g class="cls-2">
            <path class="cls-3" d="M7.6,15.91c-1.49-.09-2.99-.89-2.98-2.47v-.06c-.12,.1-.26,.16-.37,.2l-.08,.03c.09,.23,.21,.57,.05,.92l-.03,.06-.04,.05c-.18,.24-.4,.42-.67,.52-.17,.07-.33,.09-.46,.11-.09,.01-.16,.03-.21,.04-.02,0-.03,.01-.04,.03-.12,.11-.24,.34-.36,.56-.24,.45-.53,1.02-1.15,1.28l-.75,1.66-.47-1.81c-.26-1,.48-3.87,1.08-4.67l.02-.02c.29-.35,.67-.51,1-.64l.22-.08c.35-.13,.57-.24,.72-.46l.02-.03,.03-.03c.16-.17,.25-.61,.32-.97,.1-.5,.19-.97,.5-1.3l.02-.02,.02-.02c.12-.11,.26-.19,.44-.26,.62-.23,1.6-.22,1.99-.15,.24,.03,.41,.04,.53,.05,.42,.03,.78,.1,.95,.72,.03,.11,.07,.26,.19,.52,.16,.27,.18,.52,.2,.69,0,.08,.01,.13,.03,.17,.26-.06,.9-.18,1.26,.38,.26,.37,.33,.74,.23,1.07-.1,.34-.37,.59-.8,.75-.04,.02-.09,.04-.13,.05,.1,.26,.16,.51,.21,.74l.25,1.25s-1.17-.53-1.17-.53c.09,.33,.16,.68,.15,1.04l-.03,.67-.67-.04Zm-2.46-3.11c.05-.01,.11-.03,.17-.05,.46-.17,.84-.59,.85-.81,0-.12-.21-.24-.31-.29-.21-.1-.31-.1-.33-.09-.15,.06-.33,.62-.42,.89-.04,.13-.09,.26-.13,.39l.17-.03Z"/>
          </g>
          <path class="cls-1" d="M.78,16.64c.88-.15,1-1.31,1.56-1.81,.43-.35,.91-.07,1.28-.58,.1-.23-.25-.65-.15-.88,.12-.42,.62-.33,.8-.59,.36-.79,.48-2.43,1.86-1.74,1.5,.74,.17,2.18-.87,2.39,0,1.22,1.32,1.74,2.37,1.81,.03-.66-.33-1.37-.47-1.97,.42,.12,.92,.21,1.26,.36-.11-.52-.26-.93-.58-1.28,.49-.19,1.79-.21,1.17-1.1-.24-.38-.88,.15-1.08-.15-.46-.48-.2-.76-.44-1.14-.52-1.11,.08-.78-1.2-.95-.31-.07-1.52-.07-1.87,.24-.4,.43-.29,1.7-.82,2.27-.55,.77-1.52,.67-1.97,1.22-.5,.66-1.16,3.34-.97,4.1l.1-.22Z"/>
          <g class="cls-2">
            <path class="cls-3" d="M7.17,8.75c-.61,.23-1.54,.09-2.16-.35l-.43-.3,.31-.69c.28-.72,.88-.98,1.33-1.17,.29-.13,.55-.24,.7-.45,.04-.06,.13-.28,.19-.43,.23-.57,.52-1.28,1.13-1.52,.35-.13,.9-.15,1.53,.54l.4,.45-.4,.44c-.23,.25-.4,.52-.59,.8-.31,.48-.65,1.01-1.27,1.4,.04,.22,.03,.42-.04,.62-.11,.31-.36,.54-.7,.67h0Z"/>
          </g>
          <path class="cls-1" d="M5.4,7.88c.77,.55,2.46,.56,1.68-.73,1.23-.47,1.41-1.47,2.2-2.33-1.13-1.25-1.46,.83-1.82,1.35-.55,.77-1.63,.62-1.96,1.49l-.1,.23Z"/>
          <g class="cls-2">
            <path class="cls-3" d="M7.2,37.07c-.05,.02-.11,.02-.17,.04-.18,.06-.57,.13-1.8-.23-.28-.08-1.24-.38-1.63-.69l-.22-.15-.03-1.01,.44-.17c1-.38,3,.24,3.6,.74,.39,.32,.4,.66,.37,.83-.02,.14-.12,.47-.57,.64h0Z"/>
          </g>
          <path class="cls-1" d="M4.01,35.66c.4,.32,2.42,.95,2.83,.8,1.21-.27-1.86-1.44-2.84-1.07v.28Z"/>
          <g class="cls-2">
            <path class="cls-3" d="M7.04,38.72c-.07,.03-.14,.04-.21,.06-.48,.08-1.06-.15-1.27-.87l-.1-.35,.25-.27c.17-.19,.34-.25,.44-.29h.02s-.06,.02-.08,.05l.41,.37,.02-.55c1.07,.04,1.19,.69,1.21,.89,.03,.41-.26,.81-.68,.97Zm-.37-1.13l.14-.04s-.13-.08-.22-.06c0,0-.02,0-.02,0l.1,.09Zm-.24,.07h.04s0-.09,0-.09c-.02,.03-.04,.06-.05,.09Z"/>
          </g>
          <path class="cls-1" d="M6.49,37.52c1.33,.06,0,1.22-.3,.21,.13-.14,.25-.09,.38-.24"/>
        </g>
      </g>
      <path class="cls-8" d="M10.72,41.58c.23,.17,.46,.38,.71,.49,.23,.15,.51,.21,.77,.3,.55,.12,1.1,.18,1.66,.18,.28,0,.56,0,.85-.01,.13,0,.32,0,.39-.02l.43-.07c.29-.05,.48-.12,.82-.18,.16-.02,.3-.08,.48-.07h.53s.02,0,.02,0l.05,.02c.25,.09,.46,.21,.64,.33,.18,.13,.34,.26,.48,.38,.14,.12,.28,.23,.41,.31,.13,.08,.24,.12,.34,.15h.02s.03,0,.03,0l.45,.07c.16,0,.32,0,.48-.02,.34-.04,.69-.12,1.1-.16,.39-.05,.86-.05,1.3,.12,.23,.05,.4,.21,.59,.33,.23,.17,.28,.25,.45,.43,.16,.19,.27,.38,.36,.58,.08,.21,.13,.42,.15,.64,.03,.43-.03,.82-.12,1.19-.18,.74-.44,1.42-.26,2.17-.09-.17-.16-.34-.21-.53-.04-.19-.06-.38-.06-.58,0-.38,.03-.76,.05-1.13,.02-.36,.03-.72-.04-1.03-.04-.16-.09-.3-.16-.43-.08-.13-.16-.25-.26-.34-.09-.08-.3-.28-.38-.3-.14-.05-.24-.17-.39-.18-.27-.08-.56-.08-.9-.01-.33,.06-.71,.14-1.11,.19-.2,.02-.42,.03-.63,.04-.22-.02-.44-.05-.66-.08h.04c-.28-.04-.52-.16-.72-.29-.19-.13-.36-.27-.51-.4-.15-.13-.28-.24-.42-.35-.13-.1-.26-.16-.37-.21l.07,.02-.34-.02c-.11-.02-.25,.02-.38,.03-.23,.02-.6,.11-.89,.13l-.43,.02c-.22,0-.31-.01-.48-.02-.29-.02-.59-.05-.89-.09-.3-.05-.59-.09-.88-.18-.29-.06-.58-.19-.85-.3-.27-.15-.54-.27-.77-.49-.11-.1-.24-.18-.32-.31l-.26-.35Z"/>
      <path class="cls-8" d="M36.75,27.84s-.05,.06-.14,.16c-.1,.1-.2,.29-.43,.43-.11,.08-.23,.17-.37,.27-.15,.07-.3,.15-.47,.24-.34,.15-.75,.3-1.22,.36-.46,.09-.98,.1-1.52,.04-.54-.05-1.12-.2-1.67-.49-.55-.27-1.09-.76-1.39-1.41-.33-.67-.21-1.43-.05-2.08,.15-.31,.24-.59,.44-.92l.5-.73c.17-.23,.39-.47,.53-.68,.1-.22,.28-.38,.31-.64,.07-.25,.13-.49,.19-.72,.05-.26,.1-.52,.15-.78,.14-.53,.28-1.05,.62-1.45,.31-.41,.72-.62,1.07-.77,.35-.14,.66-.22,.92-.29,.52-.11,.81-.15,.81-.15,0,0-.27,.13-.75,.34-.44,.23-1.19,.54-1.58,1.21-.22,.32-.28,.77-.36,1.23-.02,.25-.05,.51-.07,.78-.04,.28-.11,.58-.17,.87-.03,.3-.24,.59-.37,.89-.16,.27-.33,.47-.5,.71l-.49,.74c-.1,.18-.2,.46-.31,.69-.12,.48-.22,.98-.01,1.39,.19,.4,.5,.78,.93,1.02,.42,.24,.89,.43,1.36,.52,.46,.09,.92,.14,1.35,.12,.42,0,.81-.07,1.15-.14,.17-.05,.33-.09,.47-.14,.14-.06,.26-.12,.37-.17,.24-.09,.39-.25,.51-.32,.12-.08,.18-.12,.18-.12Z"/>
      <path class="cls-4" d="M31.28,47.3s.45-.27,1.14-.61c.17-.08,.36-.17,.57-.26,.21-.08,.39-.21,.61-.31,.42-.22,.87-.42,1.32-.63,.44-.24,.87-.49,1.29-.7,.2-.12,.43-.19,.6-.31,.18-.12,.35-.23,.51-.33,.65-.39,1.13-.62,1.13-.62,0,0-.32,.4-.87,.96-.14,.14-.29,.29-.46,.44-.16,.16-.37,.28-.57,.41-.41,.27-.85,.54-1.3,.81-.48,.21-.97,.41-1.43,.58-.46,.19-.89,.28-1.27,.36-.76,.15-1.28,.2-1.28,.2Z"/>
      <path class="cls-4" d="M36.14,43.53s.05-.08,.16-.2c.1-.12,.28-.29,.43-.5,.17-.2,.36-.43,.56-.69,.21-.25,.42-.53,.63-.8,.43-.55,.86-1.11,1.22-1.52,.36-.41,.64-.66,.64-.66,0,0-.08,.37-.27,.89-.2,.51-.54,1.17-.99,1.76-.24,.28-.47,.58-.75,.8-.25,.24-.53,.43-.78,.57-.24,.16-.47,.21-.61,.28-.15,.06-.24,.08-.24,.08Z"/>
      <path class="cls-4" d="M24.89,18.77s-.05,.55-.14,1.52c-.1,.97-.2,2.35-.29,4.01-.09,1.66-.11,3.6,.1,5.64,.12,1.01,.29,2.07,.71,3.01,.42,.95,1.11,1.71,2.18,1.71,.52,.03,.88,.02,1.18-.36,.15-.2,.34-.42,.54-.65,.24-.2,.48-.42,.78-.53,.29-.15,.57-.23,.82-.3l.39-.12c.14-.03,.31-.04,.46-.06,.3-.07,.62,0,.93,.06,.28,.11,.57,.25,.78,.43,.44,.34,.81,.64,1.21,.92,.21,.12,.41,.24,.61,.35,.17,.1,.44,.18,.64,.27,.87,.32,1.75,.56,2.54,.85,.8,.28,1.51,.71,1.98,1.24,.47,.53,.71,1.1,.87,1.56,.14,.47,.21,.85,.23,1.11,.03,.26,.05,.4,.05,.4,0,0-.03-.14-.09-.39-.05-.26-.16-.62-.33-1.07-.18-.44-.46-.96-.93-1.42-.47-.45-1.14-.79-1.91-1.03-.78-.25-1.66-.44-2.6-.74-.23-.09-.44-.13-.7-.26-.23-.12-.46-.24-.69-.36-.45-.27-.87-.63-1.25-.91-.39-.3-.79-.44-1.25-.35-.11,.02-.22,.02-.34,.04l-.39,.12-.39,.12c-.11,.04-.21,.1-.32,.15-.46,.19-.7,.53-1.08,1.02-.1,.12-.24,.23-.37,.35-.15,.09-.32,.16-.49,.23-.17,.06-.34,.05-.51,.07-.18,.02-.34,.02-.47-.01l-.41-.07-.21-.03c-.17-.03-.18-.06-.28-.09-.3-.11-.59-.29-.81-.5-.47-.42-.78-.95-1.01-1.48-.45-1.07-.61-2.17-.72-3.23-.18-2.11-.02-4.07,.13-5.74,.16-1.67,.41-3.04,.56-4,.18-.96,.28-1.5,.28-1.5Z"/>
      <path class="cls-4" d="M13.44,36.16l.15-.38c.05-.13,.05-.27,.08-.4,.02-.13-.02-.26-.02-.39-.06-.12-.08-.25-.16-.35-.15-.21-.35-.38-.59-.49-.23-.13-.48-.21-.74-.27-1.02-.24-2.16-.24-3.13,.08l-.15,.05-.11-.1c-.21-.2-.45-.36-.63-.61-.1-.12-.2-.22-.28-.36-.08-.14-.18-.26-.22-.42-.12-.3-.16-.65-.11-.97,.04-.33,.17-.61,.3-.88,.28-.52,.62-.96,.91-1.41,.15-.22,.28-.45,.39-.68,.11-.23,.2-.46,.27-.7v.06c-.02-.3,.03-.6-.02-.9-.02-.3-.07-.6-.12-.91-.05-.31-.13-.66-.11-1.04,0-.19,.03-.38,.1-.56,.05-.19,.12-.36,.22-.51,.1-.15,.15-.31,.31-.46,.18-.17,.28-.24,.42-.35l.77-.59,1.51-1.17c.5-.39,.98-.8,1.44-1.24,.45-.44,.88-.91,1.17-1.44,.13-.26,.24-.54,.21-.82-.03-.27-.21-.51-.47-.68-.52-.33-1.17-.46-1.79-.57,.64,.03,1.3,.08,1.9,.39,.3,.15,.58,.44,.65,.81,.07,.37-.02,.73-.16,1.04-.29,.62-.72,1.13-1.16,1.61-.44,.48-.92,.93-1.4,1.36-.48,.43-.99,.83-1.5,1.23l-.75,.59-.32,.27c-.09,.07-.14,.23-.22,.34-.08,.12-.13,.25-.16,.37-.05,.12-.06,.25-.06,.38-.01,.26,.05,.56,.12,.87,.06,.32,.13,.65,.15,.99,.04,.34,0,.68-.01,1.03v.03s-.01,.03-.01,.03c-.09,.29-.2,.57-.34,.83-.14,.26-.29,.5-.45,.74-.32,.47-.65,.9-.9,1.34-.11,.22-.21,.45-.24,.67-.04,.22-.02,.44,.06,.65,.02,.11,.1,.21,.15,.32,.04,.11,.13,.2,.21,.3,.14,.21,.35,.38,.53,.57l-.26-.05c.58-.17,1.15-.21,1.72-.19,.57,.03,1.14,.1,1.68,.29,.27,.09,.54,.21,.78,.37,.25,.15,.46,.37,.61,.62,.08,.12,.1,.28,.15,.41,0,.15,.02,.29-.02,.43-.05,.14-.06,.28-.13,.4l-.2,.36Z"/>
    </g>
  </g>
</svg>