<?xml version="1.0" encoding="UTF-8"?>
<svg id="_레이어_2" data-name="레이어 2" xmlns="http://www.w3.org/2000/svg" viewBox="0 0 120.76 54.47">
  <defs>
    <style>
      .cls-1 {
        fill: #7c6657;
      }

      .cls-2 {
        fill: #bc894b;
      }

      .cls-3 {
        fill: #664b36;
      }

      .cls-4 {
        fill: #a58e8f;
      }

      .cls-5 {
        opacity: .8;
      }

      .cls-6 {
        fill: #575070;
      }

      .cls-7 {
        fill: #3b355c;
      }

      .cls-8 {
        fill: #9f763e;
      }

      .cls-9 {
        fill: #c59450;
      }

      .cls-10 {
        fill: #e3c184;
      }

      .cls-11 {
        fill: #bc9561;
      }

      .cls-12 {
        fill: #d0b381;
      }

      .cls-13 {
        fill: #c9a877;
      }

      .cls-14 {
        fill: #897b93;
      }

      .cls-15 {
        fill: #5e4534;
      }

      .cls-16 {
        fill: #6d5544;
      }
    </style>
  </defs>
  <g id="OBJECTS">
    <g>
      <path class="cls-15" d="M57.42,18.53c10-3.12,19.49-5.58,27.77-7.29-.23-.33-.46-.71-.63-1.11-8.38,1.82-17.72,4.28-27.48,7.32-9.7,3.02-18.73,6.28-26.63,9.53,.21,.37,.39,.74,.59,1.07,7.66-3.21,16.65-6.49,26.38-9.52Z"/>
      <g class="cls-5">
        <path class="cls-3" d="M58.42,21.15c10.89-3.39,21.01-5.86,28.88-7.19-.31-.53-.57-1.1-.77-1.67-8.35,1.71-18.16,4.25-28.54,7.49-9.35,2.92-18,6.04-25.36,9.06,.15,.56,.3,1.12,.48,1.65,6.9-3.06,15.65-6.33,25.31-9.34Z"/>
      </g>
      <g class="cls-5">
        <path class="cls-16" d="M32.96,31.9l-.3-.69c7.09-3.12,16.3-6.49,25.94-9.49,11.05-3.45,21.58-6.1,29.65-7.46l.12,.74c-8.03,1.36-18.52,4-29.55,7.43-9.62,3-18.8,6.36-25.86,9.46Z"/>
      </g>
      <g class="cls-5">
        <path class="cls-1" d="M30.92,33.68l-.2-.46c7.11-3.17,17.41-6.92,28.26-10.3,12.31-3.84,23.83-6.76,31.62-8.02l.08,.49c-7.76,1.26-19.26,4.18-31.55,8.01-10.83,3.38-21.11,7.12-28.2,10.28Z"/>
      </g>
      <g>
        <path class="cls-14" d="M74.28,3.22c-1.1-.59-2.24-1.1-3.4-1.53-7.24,4.27-15.13,7.54-22.95,10.21-3.41,1.15-7.1,2.43-10.83,3.08-.34,.66-.64,1.34-.92,2.03,4.63-.42,9.59-1.62,13.24-2.71,8.67-2.53,17.19-6.14,24.85-11.08Z"/>
        <path class="cls-4" d="M76.32,4.42c-.66-.43-1.34-.83-2.04-1.2-7.66,4.93-16.18,8.55-24.85,11.08-3.66,1.09-8.61,2.29-13.24,2.71-.27,.66-.51,1.34-.72,2.02,11.71-1.43,20.73-5.04,31.41-9.96,2.94-1.34,6.16-2.94,9.44-4.66Z"/>
        <path class="cls-2" d="M77.84,48.98c2.74-2.07,4.97-4.55,6.69-7.3-11.01,5.91-23.48,9.58-35.67,9.71,9.02,4.69,20.32,4.12,28.98-2.42Z"/>
        <path class="cls-12" d="M83.1,10.73c-1.94-2.55-4.25-4.66-6.79-6.32-3.28,1.72-6.5,3.31-9.44,4.66-10.69,4.91-19.7,8.53-31.41,9.96-.82,2.61-1.25,5.33-1.27,8.07,2.21-.33,4.42-.74,6.6-1.2,14.15-2.98,29.73-7.46,42.31-15.17Z"/>
        <path class="cls-6" d="M70.88,1.69c-2.09-.77-4.27-1.28-6.47-1.52-7.1,3.57-14.69,6.59-22.39,7.97-2.02,2.05-3.66,4.36-4.91,6.85,3.72-.65,7.42-1.93,10.83-3.08,7.82-2.66,15.71-5.94,22.95-10.21Z"/>
        <path class="cls-7" d="M45.03,5.49c-1.08,.82-2.09,1.7-3.01,2.64,7.7-1.37,15.29-4.39,22.39-7.97-6.66-.73-13.61,.97-19.38,5.32Z"/>
        <path class="cls-8" d="M84.61,12.92c-.44-.71-.92-1.41-1.43-2.1-.02-.03-.05-.06-.07-.09-12.58,7.71-28.16,12.19-42.31,15.17-2.17,.46-4.38,.87-6.6,1.2,0,.48,0,.95,.03,1.43,1.94-.14,3.86-.41,5.57-.62,15.46-1.99,31.28-7.02,44.81-14.98Z"/>
        <path class="cls-2" d="M85.36,14.22c-.24-.44-.49-.87-.76-1.3-13.53,7.96-29.35,12.99-44.81,14.98-1.71,.21-3.63,.48-5.57,.62,.05,1.1,.18,2.21,.36,3.3,7.58-1.26,15.15-3.64,22.39-6.08,9.46-3.23,19.22-6.94,28.38-11.54Z"/>
        <path class="cls-9" d="M35.96,36.87c.53,1.41,1.19,2.78,1.97,4.11,5.59-.13,11.14-.7,16.54-1.74,11.57-2.21,23.54-6.53,34.2-12.65-.03-1.24-.14-2.48-.34-3.71-11.9,5.65-25.04,9.14-37.67,11.73-4.8,.89-9.74,1.7-14.69,2.27Z"/>
        <path class="cls-13" d="M56.98,25.76c-7.24,2.44-14.81,4.82-22.39,6.08,.29,1.71,.75,3.39,1.37,5.04,4.95-.57,9.89-1.38,14.69-2.27,12.63-2.59,25.78-6.08,37.67-11.73-.48-2.98-1.46-5.91-2.96-8.66-9.16,4.59-18.93,8.3-28.38,11.54Z"/>
        <path class="cls-10" d="M39.35,43.16c.12,.16,.22,.32,.34,.48,2.53,3.35,5.68,5.95,9.17,7.76,12.19-.14,24.66-3.8,35.67-9.71,2.67-4.27,4.08-9.17,4.14-14.12-9.13,5.32-18.92,9.5-29.09,12.22-6,1.57-13.52,3.65-20.22,3.37Z"/>
        <path class="cls-8" d="M37.93,40.98c.43,.74,.91,1.47,1.42,2.18,6.71,.28,14.22-1.8,20.22-3.37,10.17-2.72,19.96-6.91,29.09-12.22,0-.32,0-.65,0-.97-10.66,6.13-22.62,10.44-34.2,12.65-5.39,1.03-10.95,1.6-16.54,1.74Z"/>
        <path class="cls-11" d="M54.29,48.03s.49-.09,1.34-.26c.85-.17,2.1-.32,3.54-.68,.72-.16,1.51-.34,2.33-.53,.83-.17,1.68-.47,2.58-.69,.89-.24,1.83-.46,2.74-.79,.92-.3,1.86-.61,2.8-.92,.93-.34,1.86-.67,2.77-1.01,.92-.31,1.8-.7,2.65-1.06,.85-.38,1.7-.67,2.47-1.02,.78-.35,1.51-.68,2.19-.98,1.37-.59,2.47-1.16,3.26-1.52,.79-.36,1.25-.57,1.25-.57,0,0-.42,.27-1.16,.73-.75,.43-1.77,1.16-3.11,1.83-.66,.35-1.38,.73-2.14,1.13-.76,.41-1.59,.77-2.44,1.15-.86,.38-1.73,.79-2.66,1.12-.92,.35-1.85,.71-2.78,1.07-.96,.29-1.91,.58-2.85,.87-.94,.31-1.88,.51-2.79,.74-.91,.22-1.79,.45-2.64,.57-.85,.13-1.65,.26-2.39,.38-.74,.14-1.42,.2-2.03,.23-.61,.04-1.13,.08-1.57,.11-.87,.05-1.37,.08-1.37,.08Z"/>
        <path class="cls-11" d="M82.52,40.21s-.02-.16,0-.33c.03-.16,.09-.31,.24-.4,.16-.08,.36-.09,.52-.03,.16,.06,.27,.17,.27,.17,0,0-.02,.17-.06,.33-.04,.15-.11,.27-.22,.32-.06,0-.13,.06-.21,.06-.08,.01-.16,0-.24,0-.16-.04-.3-.11-.3-.11Z"/>
        <path class="cls-8" d="M37.93,36.91s.72-.1,2-.26c.63-.08,1.41-.17,2.29-.28,.44-.05,.91-.11,1.41-.17,.49-.09,1-.19,1.54-.29,1.07-.2,2.24-.41,3.46-.63,1.23-.2,2.5-.59,3.84-.87,1.33-.32,2.72-.58,4.09-.99,1.38-.38,2.79-.77,4.19-1.16,1.41-.39,2.8-.83,4.17-1.23,1.38-.4,2.73-.82,4.03-1.26,1.3-.41,2.56-.82,3.76-1.2,1.19-.39,2.32-.77,3.36-1.11,2.09-.68,3.82-1.24,5.04-1.64,1.22-.39,1.92-.6,1.92-.6,0,0-.67,.28-1.86,.78-1.19,.47-2.87,1.2-4.92,1.96-2.05,.78-4.44,1.71-7.04,2.58-1.29,.46-2.64,.9-4.02,1.32-1.38,.43-2.77,.89-4.17,1.3-1.42,.37-2.84,.74-4.23,1.1-1.39,.39-2.79,.64-4.13,.94-1.35,.27-2.64,.59-3.89,.74-1.25,.17-2.43,.34-3.53,.49-.55,.07-1.07,.14-1.56,.21-.5,.02-.97,.05-1.42,.07-.89,.04-1.67,.08-2.3,.11-1.28,.05-2.01,.08-2.01,.08Z"/>
        <path class="cls-8" d="M76.92,30.58s.68-.51,1.74-1.19c.27-.16,.56-.34,.86-.53,.32-.17,.61-.42,.94-.62,.64-.44,1.34-.88,2.03-1.31,1.41-.9,2.83-1.77,3.99-2.3,1.14-.55,1.92-.86,1.92-.86,0,0-.64,.56-1.64,1.31-1.01,.73-2.36,1.73-3.76,2.63-.73,.43-1.45,.87-2.15,1.25-.35,.19-.67,.39-1.01,.52-.33,.14-.65,.27-.94,.39-1.17,.46-1.98,.71-1.98,.71Z"/>
        <path class="cls-11" d="M41.49,24.25s.36-.1,1-.27c.63-.18,1.57-.36,2.63-.7,.54-.16,1.12-.33,1.73-.51,.62-.17,1.24-.44,1.91-.64,1.33-.42,2.73-.97,4.13-1.48,1.39-.55,2.78-1.1,4.09-1.62,1.31-.52,2.53-1.01,3.57-1.43,2.09-.84,3.52-1.34,3.52-1.34,0,0-.33,.19-.9,.52-.58,.31-1.39,.8-2.4,1.3-1.01,.5-2.17,1.13-3.47,1.7-1.28,.61-2.68,1.16-4.08,1.74-.71,.25-1.43,.5-2.13,.75-.7,.26-1.41,.44-2.09,.64-.68,.19-1.34,.39-1.98,.51-.64,.13-1.24,.26-1.8,.37-.55,.13-1.07,.2-1.53,.24-.46,.05-.85,.09-1.18,.13-.66,.06-1.03,.09-1.03,.09Z"/>
        <path class="cls-14" d="M42.22,12.25s.62-.19,1.56-.41c.96-.18,2.16-.58,3.4-.85,1.22-.37,2.47-.64,3.4-.89,.94-.23,1.58-.35,1.58-.35,0,0-.57,.3-1.46,.68-.88,.4-2.11,.8-3.35,1.16-.64,.14-1.27,.28-1.87,.39-.6,.14-1.16,.16-1.64,.2-.96,.07-1.61,.07-1.61,.07Z"/>
        <path class="cls-11" d="M44.38,45.71s.15-.02,.41-.04c.25-.02,.64-.02,1.06-.08,.43-.05,.91-.08,1.45-.15,.53-.05,1.09-.14,1.66-.21,1.13-.17,2.27-.32,3.14-.43,.44-.04,.81-.07,1.06-.1,.26-.02,.41-.02,.41-.02,0,0-.52,.3-1.34,.63-.41,.17-.9,.34-1.44,.48-.53,.16-1.12,.25-1.7,.36-.59,.05-1.18,.13-1.75,.11-.56,.01-1.09-.06-1.54-.13-.45-.05-.79-.22-1.04-.27-.25-.08-.39-.14-.39-.14Z"/>
        <path class="cls-11" d="M47.95,46.72s.44-.17,1.1-.33c.16-.04,.35-.08,.54-.11,.18-.06,.37-.11,.57-.17,.39-.12,.81-.2,1.22-.3,.84-.25,1.72-.38,2.38-.52,.67-.11,1.14-.12,1.14-.12,0,0-.37,.28-.97,.63-.59,.36-1.46,.65-2.33,.91-.46,.09-.92,.17-1.36,.21-.44,.07-.83,.06-1.17,0-.68-.08-1.13-.2-1.13-.2Z"/>
        <path class="cls-11" d="M72,8.63s.15-.23,.41-.49c.26-.26,.65-.53,1.08-.74,.42-.2,.88-.34,1.25-.38,.37-.04,.65-.01,.65-.01,0,0-.15,.23-.41,.49-.26,.26-.66,.53-1.08,.74-.43,.2-.88,.34-1.25,.38-.37,.04-.65,.02-.65,.02Z"/>
      </g>
      <path class="cls-15" d="M84.56,10.13c.17,.41,.4,.79,.63,1.11,16.49-3.41,28.15-3.85,29.19-.52,1.56,5.01-21.41,16.62-51.31,25.94-29.9,9.32-55.4,12.82-56.96,7.81-1.05-3.38,9.06-9.76,24.93-16.42-.2-.33-.38-.7-.59-1.07C11.25,34.87-1.2,42.68,.09,46.82c1.82,5.84,30.29,2.16,63.58-8.22,33.3-10.38,58.82-23.53,57-29.37-1.29-4.13-15.9-3.49-36.11,.9Z"/>
      <g class="cls-5">
        <path class="cls-3" d="M86.53,12.29c.2,.57,.46,1.14,.77,1.67,9.21-1.55,15.33-1.53,15.95,.44,1.14,3.64-17.1,12.56-40.72,19.93-23.62,7.37-43.69,10.39-44.83,6.75-.67-2.15,5.43-6.15,15.42-10.58-.18-.53-.33-1.09-.48-1.65-15.09,6.21-24.75,12.05-23.83,15,1.37,4.4,25.62,.75,54.15-8.15,28.54-8.9,50.56-19.67,49.19-24.07-.87-2.8-11.01-2.33-25.61,.66Z"/>
      </g>
      <g class="cls-5">
        <path class="cls-16" d="M23.74,41.6c-2.51,0-4.09-.41-4.38-1.35-.58-1.87,3.89-4.91,13.29-9.04l.3,.69c-10,4.4-13.19,7.13-12.88,8.14,.74,2.38,18.12-.13,41.88-7.54,10.85-3.38,20.87-7.12,28.22-10.53,10.59-4.91,10.62-6.75,10.52-7.07-.1-.31-1.15-1.79-12.33,.1l-.12-.74c8.22-1.39,12.65-1.25,13.17,.41,.53,1.69-3.15,4.37-10.92,7.98-7.38,3.42-17.43,7.17-28.31,10.56-14.92,4.65-30.9,8.39-38.44,8.39Z"/>
      </g>
      <g class="cls-5">
        <path class="cls-1" d="M24.1,40.46c-1.7,0-2.74-.27-2.93-.87-.14-.46-.58-1.86,9.54-6.36l.2,.46c-9.25,4.12-9.34,5.52-9.27,5.76,.59,1.88,17.14-.98,39.95-8.1,22.81-7.11,38.06-14.16,37.47-16.04-.06-.2-.76-1.14-8.4,.09l-.08-.49c8.45-1.37,8.83-.15,8.96,.25,.9,2.89-18.8,10.75-37.8,16.67-15.05,4.69-31.16,8.64-37.65,8.64Z"/>
      </g>
    </g>
  </g>
</svg>