<?xml version="1.0" encoding="UTF-8"?>
<svg xmlns="http://www.w3.org/2000/svg" viewBox="0 0 148.4 195.69">
  <defs>
    <style>
      .cls-1 {
        fill: #6e94b3;
      }

      .cls-2 {
        fill: #89433a;
      }

      .cls-3 {
        fill: #b5686c;
        opacity: .4;
      }

      .cls-3, .cls-4, .cls-5 {
        mix-blend-mode: multiply;
      }

      .cls-6 {
        fill: #a98c38;
      }

      .cls-7 {
        fill: #46231a;
      }

      .cls-8 {
        isolation: isolate;
      }

      .cls-9 {
        fill: #c7a43d;
      }

      .cls-10 {
        fill: #508984;
      }

      .cls-11 {
        fill: #f3d643;
      }

      .cls-12 {
        fill: #2e0f00;
      }

      .cls-13 {
        fill: #4d2820;
      }

      .cls-4 {
        fill: #ac3e6b;
      }

      .cls-4, .cls-5 {
        opacity: .2;
      }

      .cls-14 {
        fill: #3a190e;
      }

      .cls-5 {
        fill: #5a287f;
      }

      .cls-15 {
        fill: #b8655a;
      }
    </style>
  </defs>
  <g class="cls-8">
    <g id="_레이어_2" data-name="레이어 2">
      <g id="Objects">
        <g>
          <g>
            <path class="cls-11" d="M84.1,185.06c-.17-.89-.34-1.77-.51-2.64h.07c9.13-1.06,14.26-5.63,15.65-7.05,.55,4.08,.69,6.79,.69,6.79,0,0-3.4,4.29-15,8.04l-.09-.29c-.25-1.64-.52-3.26-.81-4.85Z"/>
            <path class="cls-1" d="M83.15,180.28c-.16-.76-.32-1.51-.49-2.24,8.95-1.05,14.69-5.76,16-6.94,.26,1.53,.48,2.97,.65,4.27-1.39,1.42-6.52,5.99-15.65,7.04h-.07c-.14-.71-.29-1.43-.44-2.13Z"/>
            <path class="cls-11" d="M81.53,173.28c-.16-.63-.32-1.24-.48-1.84l.11-.03c9.45-.67,15.41-6.56,16.05-7.22,.6,2.41,1.08,4.76,1.45,6.91-1.31,1.18-7.05,5.89-16,6.94-.37-1.65-.75-3.24-1.13-4.76Z"/>
            <path class="cls-1" d="M96.27,160.69c.35,1.17,.66,2.34,.94,3.5-.64,.66-6.6,6.55-16.05,7.22l-.11,.03c-.2-.8-.41-1.57-.62-2.32-.12-.44-.24-.88-.36-1.31l.09-.03c8.99-.3,15.38-6.36,16.11-7.09Z"/>
            <path class="cls-11" d="M93.72,153.47c1,2.33,1.85,4.78,2.55,7.22-.73,.73-7.12,6.79-16.11,7.09l-.09,.03c-.6-2.13-1.17-4.06-1.69-5.72-.17-.56-.34-1.09-.5-1.59l.23-.08c8.81-1.54,14.73-6.21,15.61-6.95Z"/>
            <path class="cls-1" d="M91.96,149.83c.64,1.17,1.22,2.39,1.76,3.64-.88,.74-6.8,5.41-15.61,6.95l-.23,.08c-.23-.74-.45-1.4-.64-1.99-.16-.45-.3-.86-.42-1.22,7.82-2.17,13.92-6.55,15.14-7.46Z"/>
            <path class="cls-11" d="M76.82,157.29c.12,.36,.26,.77,.42,1.22l-.08,.03c-23,8.5-55.25,2.74-55.25,2.74l-.15-.03c.05-.3,.1-.58,.16-.84h0c-9.25-1.5-16.58-6-16.58-6l-.14-.05c.72-1.84,1.53-3.53,2.46-4.98l.18,.11s12.17,6.84,41.33,6c26.33-.75,40.34-9.16,40.34-9.16l.19-.14c.83,1.13,1.58,2.35,2.27,3.64-1.22,.91-7.32,5.29-15.14,7.46Z"/>
            <path class="cls-1" d="M89.69,146.19l-.19,.14s-14.01,8.41-40.34,9.16c-29.16,.84-41.33-6-41.33-6l-.18-.11c.71-1.12,1.5-2.09,2.35-2.89,.15-.14,.3-.27,.45-.4l.21,.24s11.5,6,37.84,5.33c23.86-.61,36.78-6.96,38.99-8.14,.79,.82,1.52,1.71,2.2,2.67Z"/>
            <path class="cls-13" d="M82.14,80.27c-2.69,.36-5.32-.17-7.63-1.31-3.34-1.64-6-4.53-7.18-7.8,0,0-1,5-6.67,4.67-9.32-.55-11-9-11-9,0,0-1.5,6.5-8.16,8.16-10.6,2.65-19.5-1.33-19.5-1.33,0,0-.67,.83-.59,5.5l.75,21s-5.06-3.74-8.17-.69c-.18-.71-4.63-17.57-3.16-21.81,1.19-3.46,4.83-3.5,4.99-3.5-.32-.38-6.73-7.82-3.32-13.67,3.5-6,11.16-1.66,14.5-5.66,3.33-4,1.16-6.84,6.83-10.17,5.67-3.33,9,.83,9,.83,0,0,5.83-7.66,12.83-4.33,6.81,3.24,4.48,9.17,4.35,9.49,.42-.23,9.61-5.4,14.99-1.32,5.5,4.16,3,7.66,3,7.66,0,0,5.83-4.16,10.66,0,4.84,4.17-1,7-1,7,0,0,9.88,6.17,1.38,13.17-2.23,1.83-4.58,2.8-6.9,3.11Z"/>
            <path class="cls-11" d="M84.91,189.91l.09,.29c-7.33,2.38-17.92,4.55-33,5.29-14.42,.72-26.02-.65-34.58-2.44,.16-1.8,.33-3.55,.51-5.26,.54,.12,11.26,2.59,31.86,2.25,21.72-.36,33.42-4.64,34.31-4.98,.29,1.59,.56,3.21,.81,4.85Z"/>
            <path class="cls-11" d="M84.33,140.83c1.13,.76,2.19,1.66,3.16,2.69-2.21,1.18-15.13,7.53-38.99,8.14-26.34,.67-37.84-5.33-37.84-5.33l-.21-.24c1.36-1.21,2.84-2.26,4.37-3.16,4.46,1.64,14.69,4.24,34.18,3.9,20.99-.38,30.88-4.45,34.54-6.5,.27,.16,.54,.33,.79,.5Z"/>
            <path class="cls-1" d="M83.59,182.42c.17,.87,.34,1.75,.51,2.64-.89,.34-12.59,4.62-34.31,4.98-20.6,.34-31.32-2.13-31.86-2.25,.08-.81,.17-1.6,.25-2.38,.1-.88,.2-1.76,.3-2.61,.92,.27,10.92,3.09,30.43,2.61,20.17-.49,33.81-4.98,34.24-5.13,.15,.7,.3,1.42,.44,2.14Z"/>
            <path class="cls-11" d="M82.66,178.04c.17,.73,.33,1.48,.49,2.24-.43,.15-14.07,4.64-34.24,5.13-19.51,.48-29.51-2.34-30.43-2.61,.08-.63,.15-1.24,.23-1.85,.24-1.89,.48-3.69,.72-5.4,.54,.13,11.12,2.72,30.23,2.36,19.29-.36,31.46-4.49,31.87-4.63,.38,1.52,.76,3.11,1.13,4.76Z"/>
            <path class="cls-7" d="M82.14,80.27c-.13,1.69-.92,10.92-3.62,18.01-2.49,.13-4.86,1.88-4.86,1.88l.75-21,.1-.2c2.31,1.14,4.94,1.67,7.63,1.31Z"/>
            <path class="cls-1" d="M19.6,174.33c.15-1.05,.3-2.06,.45-3.02l.11,.02s11.38,2.69,28,2.58c18.75-.13,32.13-4.75,32.13-4.75l.14-.04c.21,.75,.42,1.52,.62,2.32,.16,.6,.32,1.21,.48,1.84-.41,.14-12.58,4.27-31.87,4.63-19.11,.36-29.69-2.23-30.23-2.36,.05-.41,.11-.82,.17-1.22Z"/>
            <path class="cls-11" d="M20.17,170.55c.33-2.18,.66-4.12,.95-5.79l.17,.02s10.25,2.57,27.62,2c19.25-.62,29.25-4.62,29.25-4.62l.22-.07c.52,1.66,1.09,3.59,1.69,5.72,.12,.43,.24,.87,.36,1.31l-.14,.04s-13.38,4.62-32.13,4.75c-16.62,.11-28-2.58-28-2.58l-.11-.02c.04-.26,.08-.51,.12-.76Z"/>
            <path class="cls-1" d="M78.24,137.98c1.9,.63,3.72,1.41,5.3,2.35-3.66,2.05-13.55,6.12-34.54,6.5-19.49,.34-29.72-2.26-34.18-3.9,1.7-1,3.48-1.83,5.25-2.51,4.6,1.4,14,3.4,28.84,2.74,15.08-.67,24.66-3.43,29.33-5.18Z"/>
            <path class="cls-1" d="M78.38,162.09l-.22,.07s-10,4-29.25,4.62c-17.37,.57-27.62-2-27.62-2l-.17-.02c.06-.36,.12-.7,.18-1.03,.17-.93,.32-1.76,.46-2.48l.15,.03s32.25,5.76,55.25-2.74l.08-.03c.19,.59,.41,1.25,.64,1.99,.16,.5,.33,1.03,.5,1.59Z"/>
            <path class="cls-11" d="M37.67,130.7c1.44,.54,3.84,2.03,11.87,1.58,3.85-.21,6.56-1.75,8.62-1.95,.74-.09,1.4,0,2,.41,2.25,1.5,.5,4.25,.5,4.25,0,0,9.56,.28,17.58,2.99-4.67,1.75-14.25,4.51-29.33,5.18-14.84,.66-24.24-1.34-28.84-2.74,8.63-3.33,17.22-3.26,17.22-3.26-3.88-1.25-3.63-5.38-1.13-6.5,.54-.24,.96-.17,1.51,.04Z"/>
            <path class="cls-15" d="M82.41,100.16c-1.08-1.52-2.5-1.95-3.89-1.88-2.49,.13-4.86,1.88-4.86,1.88l.75-21,.1-.2c-3.34-1.64-6-4.53-7.18-7.8,0,0-1,5-6.67,4.67-9.32-.55-11-9-11-9,0,0-1.5,6.5-8.16,8.16-10.6,2.65-19.5-1.33-19.5-1.33,0,0-.67,.83-.59,5.5l.75,21s-5.06-3.74-8.17-.69c-.2,.2-.4,.43-.58,.69-3,4.25-.75,14.25,8.75,13.75,0,0,2.17,10.23,15.89,13.75l-.05,.17-.33,2.87c1.44,.54,3.84,2.03,11.87,1.58,3.85-.21,6.56-1.75,8.62-1.95l-.13-2.89c12.99-3.83,15.63-14.28,15.63-14.28,9.5,.5,11.75-8.75,8.75-13Z"/>
            <path class="cls-5" d="M58.16,129.5l-.13-2.05c-2.79,.83-6.05,1.34-9.87,1.39h-.16c-3.85,0-7.14-.45-9.95-1.17l-.05,.17-.07,.62c5.4,3.58,17.71,2.52,20.23,1.04Z"/>
            <path class="cls-1" d="M21.91,160.41h0c-.06,.26-.11,.54-.16,.84-.14,.72-.29,1.55-.46,2.48l-.39-.07c-10-.67-16.87-5.38-16.87-5.38l-.15-.05c.39-1.34,.82-2.64,1.3-3.87l.14,.05s7.33,4.5,16.58,6Z"/>
            <path class="cls-11" d="M20.91,163.66l.39,.07c-.06,.33-.12,.67-.18,1.03-.29,1.67-.62,3.61-.95,5.79-9.79,.61-17.92-4.81-17.92-4.81l-.12-.02c.47-2.55,1.05-5.09,1.76-7.49l.15,.05s6.87,4.71,16.87,5.38Z"/>
            <path class="cls-1" d="M20.17,170.55c-.04,.25-.08,.5-.12,.76-.15,.96-.3,1.97-.45,3.02-10.3,.31-17.94-5-17.94-5l-.13-.02c.17-1.19,.37-2.39,.6-3.59l.12,.02s8.13,5.42,17.92,4.81Z"/>
            <path class="cls-11" d="M19.43,175.55c-.24,1.71-.48,3.51-.72,5.4l-.3-.04c-10.29-.13-17.3-4.47-17.73-4.74,.21-2.15,.49-4.47,.85-6.86l.13,.02s7.64,5.31,17.94,5c-.06,.4-.12,.81-.17,1.22Z"/>
            <path class="cls-1" d="M18.48,182.8c-.1,.85-.2,1.73-.3,2.61h-.02c-11.25-.13-17.83-5.08-17.83-5.08,.09-1.28,.21-2.68,.35-4.16,.43,.27,7.44,4.61,17.73,4.74l.3,.04c-.08,.61-.15,1.22-.23,1.85Z"/>
            <path class="cls-11" d="M17.93,187.79c-.18,1.71-.35,3.46-.51,5.26-11.43-2.4-17.42-5.56-17.42-5.56,0,0,.03-2.88,.33-7.16,0,0,6.58,4.95,17.83,5.08h.02c-.08,.78-.17,1.57-.25,2.38Z"/>
          </g>
          <path class="cls-12" d="M87.84,63.71c.78,.48,1.49,1.04,2.18,1.65,.66,.63,1.29,1.31,1.79,2.1,.28,.38,.46,.82,.69,1.23,.14,.46,.36,.89,.43,1.37,.08,.48,.18,.96,.12,1.45l-.04,.74-.18,.71c-.07,.23-.11,.48-.21,.71l-.32,.65-.33,.65-.43,.57c-.54,.8-1.24,1.41-1.91,2.06l-.13,.12-.17,.13-.27,.2-.53,.4c-.37,.26-.67,.55-1.12,.76l-1.26,.69c-.42,.23-.87,.35-1.31,.53-.44,.17-.88,.33-1.35,.41l-.69,.15-.35,.08-.17,.04h-.04s-.11,.02-.11,.02h-.08s-1.32,.1-1.32,.1c-.23,0-.43,.04-.67,.03l-.73-.06c-.48-.05-.98-.07-1.45-.15l-1.37-.34c-.47-.09-.9-.29-1.33-.46-.44-.19-.86-.32-1.32-.57-.39-.22-.77-.4-1.17-.66-.4-.27-.81-.53-1.2-.82l-1.09-.9-1.01-.99-.91-1.08-.81-1.17-.7-1.24-.56-1.32,1.87-.14c-.15,.65-.35,1.14-.62,1.67-.26,.51-.58,1-.97,1.44-.37,.45-.83,.84-1.31,1.18-.49,.33-1.03,.59-1.58,.79-.56,.17-1.13,.3-1.69,.35-.29,.04-.57,.05-.85,.04-.3-.01-.52,.02-.88-.03l-1.5-.18-1.63-.39c-.51-.19-1.03-.37-1.53-.58-.48-.26-.99-.48-1.44-.79-.45-.31-.92-.6-1.32-.97-.43-.34-.81-.74-1.18-1.13-.36-.4-.7-.83-1.01-1.28-.31-.45-.59-.91-.84-1.38-.25-.48-.47-.97-.67-1.47-.19-.52-.36-.99-.49-1.59l1.74,.03c-.21,.76-.46,1.39-.77,2.04-.3,.64-.66,1.26-1.07,1.84-.42,.58-.86,1.14-1.37,1.64-.25,.26-.51,.5-.79,.72-.27,.23-.55,.46-.85,.65-.58,.42-1.22,.76-1.86,1.05-.33,.13-.65,.29-.99,.39l-1.02,.3c-.71,.16-1.32,.27-1.99,.41-.67,.11-1.36,.19-2.04,.28l-2.03,.14c-.68,0-1.36,.03-2.04,0-.68-.04-1.35-.05-2.03-.13-.67-.06-1.34-.14-2.01-.25-1.33-.2-2.66-.48-3.95-.84-.65-.17-1.29-.38-1.93-.61-.64-.23-1.26-.47-1.88-.76-.13-.06-.18-.21-.12-.33,.06-.12,.2-.18,.32-.13h.01c1.22,.47,2.51,.8,3.79,1.08,1.28,.29,2.58,.5,3.89,.62,.65,.07,1.31,.12,1.96,.14,.65,.05,1.31,.02,1.96,.03,.65,0,1.31-.06,1.96-.08l1.95-.2,1.91-.32c.63-.15,1.33-.3,1.91-.45l.89-.29c.29-.1,.57-.25,.85-.37,.55-.27,1.09-.58,1.58-.96,.26-.17,.49-.37,.72-.58,.24-.2,.45-.42,.66-.65,.43-.44,.8-.94,1.14-1.46,.34-.52,.64-1.06,.9-1.62,.26-.55,.49-1.17,.62-1.69,.12-.48,.61-.77,1.09-.65,.34,.09,.58,.35,.65,.67,.09,.38,.25,.86,.42,1.29,.17,.43,.37,.86,.59,1.27,.22,.41,.47,.81,.74,1.19,.27,.38,.56,.74,.87,1.08,.32,.34,.64,.67,1.01,.95,.34,.31,.74,.55,1.12,.81,.38,.26,.81,.43,1.22,.65,.43,.17,.87,.32,1.3,.48l1.31,.3,1.5,.17c.14,.03,.42,0,.63,0,.22,0,.45,0,.66-.04,.44-.04,.85-.14,1.25-.27,.39-.15,.77-.32,1.12-.55,.34-.24,.66-.5,.93-.82,.28-.31,.52-.67,.72-1.05,.2-.36,.37-.82,.45-1.15,.13-.53,.67-.85,1.2-.72,.31,.08,.56,.31,.68,.58l.47,1.13,.59,1.08,.7,1.02,.79,.96,.88,.88,.95,.8c.33,.25,.66,.46,.99,.69,.34,.23,.76,.43,1.14,.65,.31,.18,.75,.32,1.11,.49,.38,.16,.76,.34,1.16,.42l1.2,.31c.4,.08,.79,.09,1.18,.15l.59,.08c.2,.02,.44,0,.65,0l1.33-.05h.08s.02,0,.02,0h0c-.13,.01-.03,0-.06,0h.04s.15-.04,.15-.04l.3-.06,.61-.12c.41-.05,.81-.19,1.2-.33,.38-.15,.8-.24,1.16-.43l1.09-.55c.37-.15,.73-.46,1.09-.7l.54-.38,.27-.19s.13-.09,.09-.07l.12-.11c.61-.57,1.28-1.1,1.75-1.77l.39-.48,.29-.53,.3-.53c.09-.18,.12-.37,.19-.56l.18-.57,.05-.59c.08-.39,0-.79-.04-1.18-.03-.4-.21-.78-.3-1.17-.19-.37-.32-.76-.55-1.11-.41-.73-.97-1.38-1.54-2.02-.6-.61-1.25-1.2-1.94-1.7h0c-.15-.11-.19-.32-.08-.47,.1-.14,.3-.18,.45-.09Z"/>
          <path class="cls-6" d="M22.74,157.96c-.15,2.97-.38,5.92-.72,8.86-.31,2.94-.7,5.88-1.12,8.8l-.67,4.38c-.25,1.46-.48,2.92-.75,4.38-.51,2.91-1.11,5.82-1.8,8.71v-.04s-.02,.11-.02,.11v.04c-.03,.14-.16,.23-.3,.2-.12-.02-.21-.13-.21-.24v-.15c.15-2.97,.38-5.92,.7-8.86,.14-1.47,.33-2.94,.5-4.41l.57-4.4c.41-2.93,.85-5.85,1.37-8.77,.5-2.92,1.09-5.82,1.78-8.71,.04-.18,.22-.29,.4-.25,.16,.04,.27,.19,.26,.34Z"/>
          <path class="cls-6" d="M76.48,155.31s.24,.51,.6,1.41c.36,.91,.9,2.21,1.45,3.79,.58,1.57,1.18,3.43,1.81,5.43,.32,1,.62,2.04,.91,3.1,.29,1.06,.6,2.13,.88,3.21,.26,1.09,.52,2.17,.78,3.25,.24,1.07,.5,2.12,.69,3.16,.21,1.03,.37,2.03,.55,2.98,.17,.95,.33,1.84,.44,2.67,.21,1.67,.33,3.07,.44,4.04,.1,.97,.13,1.53,.13,1.53,0,.14-.1,.26-.24,.27-.12,0-.23-.07-.26-.18h0s-.16-.55-.4-1.49c-.23-.95-.6-2.29-.97-3.91-.19-.81-.46-1.68-.68-2.6-.24-.92-.5-1.89-.74-2.9-.23-1.01-.55-2.04-.82-3.1-.27-1.06-.55-2.13-.83-3.2-.29-1.07-.57-2.14-.85-3.2-.28-1.06-.55-2.1-.81-3.1-.54-2.01-1-3.9-1.42-5.52-.41-1.62-.7-2.98-.95-3.92-.22-.95-.34-1.5-.34-1.5-.04-.18,.07-.36,.25-.4,.16-.04,.31,.04,.38,.18h0Z"/>
          <path class="cls-2" d="M15.02,105.58s0-.03-.01-.09c0-.07,0-.18,0-.33,.02-.26,.07-.64,.27-1.07,.11-.21,.21-.46,.41-.67,.1-.11,.2-.22,.3-.34,.11-.11,.25-.18,.38-.28,.27-.2,.57-.32,.9-.4l.24-.07,.12-.03,.19-.02c.13,0,.21-.03,.47,0,.23,.02,.44,.07,.59,.12,.17,.05,.32,.11,.47,.19,.29,.14,.53,.32,.75,.49,.43,.35,.75,.73,.98,1.07,.24,.34,.39,.64,.49,.85,.1,.22,.15,.36,.15,.36,.1,.28-.05,.59-.34,.69-.18,.06-.37,.02-.51-.08l-.03-.03s-.37-.28-.92-.71c-.27-.2-.59-.43-.91-.62-.16-.1-.33-.18-.48-.23-.08-.03-.15-.06-.22-.08-.08-.03-.12-.03-.13-.03,.02-.02-.16-.01-.27,0h-.05s-.02,0-.02,0h-.01s-.1,0,.09,0h0s-.06,.02-.06,.02l-.11,.03c-.15,.03-.31,.05-.42,.12-.14,.04-.25,.12-.36,.21-.13,.06-.21,.19-.32,.28-.19,.2-.34,.42-.44,.57-.09,.12-.16,.24-.15,.25v.02c-.15,.27-.48,.38-.75,.24-.17-.08-.27-.25-.29-.42Z"/>
          <path class="cls-2" d="M80.39,104.98s-.06-.13-.15-.27c-.1-.17-.25-.39-.43-.61-.11-.08-.19-.23-.31-.28-.11-.08-.22-.16-.35-.18-.1-.07-.26-.07-.4-.09l-.11-.02h-.03s0,0,0,0h0s.16,0,.08,0h-.03s-.09,0-.09,0c-.1,0-.32,0-.31,.03-.06,.01-.22,.04-.35,.12-.14,.06-.28,.14-.42,.25-.28,.2-.53,.48-.75,.73-.43,.51-.7,.93-.7,.91-.08,.28-.37,.44-.65,.36-.28-.08-.44-.37-.36-.65,0,0,0-.16,.05-.41,.04-.25,.12-.6,.29-1,.17-.41,.42-.87,.85-1.32,.44-.44,.99-.83,1.85-.97,.25-.05,.29-.02,.44-.03h.21s0,0,0,0h.02s.07,.01,.07,.01l.26,.05c.35,.06,.68,.16,.98,.37,.14,.1,.3,.17,.42,.29,.11,.12,.21,.24,.32,.35,.22,.22,.3,.48,.42,.7,.19,.45,.23,.83,.24,1.1,.01,.3-.02,.42-.02,.42v.03c-.07,.3-.37,.48-.67,.42-.17-.04-.31-.16-.38-.3Z"/>
          <path d="M40.31,109.68s.03-.07,.08-.21c.06-.13,.14-.33,.26-.56,.26-.45,.64-1.11,1.27-1.76,.62-.66,1.48-1.33,2.54-1.81,.53-.24,1.09-.44,1.69-.57,.59-.13,1.2-.2,1.81-.23,.39,0,.58,.02,.88,.03,.32,.04,.64,.09,.96,.13,.59,.13,1.16,.3,1.69,.51,1.05,.43,1.93,.99,2.62,1.53,.7,.54,1.2,1.07,1.54,1.44,.17,.19,.29,.35,.38,.46,.09,.12,.13,.18,.13,.18,.18,.23,.13,.56-.1,.74-.19,.15-.45,.14-.64,0l-.04-.03s-.21-.16-.57-.43c-.37-.28-.92-.64-1.6-1.04-.34-.2-.71-.38-1.11-.58-.4-.19-.83-.35-1.27-.5-.45-.15-.91-.25-1.39-.34l-.67-.08h-.77s-.74,.04-.74,.04c-.24,.03-.48,.08-.72,.11-.47,.1-.93,.22-1.35,.39-.85,.33-1.6,.78-2.19,1.25-.59,.47-1.05,.92-1.33,1.27-.3,.35-.42,.53-.43,.54-.08,.28-.37,.44-.65,.36-.28-.08-.44-.37-.36-.65,0-.01,0-.03,.01-.04l.05-.13Z"/>
          <path class="cls-9" d="M40.1,136.81s.29,.02,.79,.04c.48,.04,1.19,.04,2.04,.06,.42,.02,.88,0,1.37,0,.48,0,.99,0,1.52,0,.53-.03,1.07-.07,1.62-.08,.55-.01,1.11-.04,1.67-.11,.56-.05,1.12-.11,1.66-.16,.55-.03,1.08-.14,1.6-.23,.52-.1,1.02-.17,1.5-.25,.24-.04,.47-.07,.7-.11,.22-.06,.43-.11,.63-.17,1.63-.41,2.76-.64,2.76-.64h.07c.29-.07,.56,.11,.62,.4,.05,.24-.08,.48-.29,.58,0,0-1.06,.51-2.71,1.19-.21,.08-.42,.17-.65,.26-.23,.06-.47,.12-.72,.19-.5,.12-1.02,.26-1.56,.39-.54,.13-1.1,.28-1.69,.33-.58,.07-1.17,.14-1.76,.21-.59,.08-1.18,.09-1.77,.09-.58,0-1.16,0-1.71,0-.55-.02-1.09-.08-1.6-.12-.51-.04-.98-.09-1.42-.17-.87-.13-1.6-.31-2.11-.44-.51-.12-.78-.23-.78-.23h-.02c-.27-.12-.41-.43-.3-.7,.09-.22,.3-.34,.52-.33Z"/>
          <path class="cls-3" d="M47.42,95.18c1.67-.04,4.29,1.55,4.46,3.29,.18,1.79-2.15,3.83-5.6,3.25-2.94-.49-3.94-2.73-3.21-4.18,.77-1.5,1.92-2.31,4.34-2.37Z"/>
          <path d="M55.26,94.4s.15-.03,.4-.06c.26-.02,.61-.08,1.03-.12,.42-.05,.9-.06,1.43-.09,.53-.05,1.09-.06,1.65-.07,1.12,.03,2.24-.05,3.1,.01,.85,.04,1.44,.15,1.44,.15h.04c.29,.06,.49,.34,.43,.63-.04,.2-.17,.35-.35,.41,0,0-.56,.2-1.42,.39-.43,.1-.94,.19-1.48,.27-.27,.03-.55,.09-.84,.11-.29,0-.58,.02-.87,.03-.59,0-1.17,0-1.72-.03-.55-.03-1.07-.12-1.51-.2-.89-.14-1.43-.37-1.43-.37h-.01c-.28-.12-.41-.45-.29-.72,.07-.17,.23-.29,.4-.32Z"/>
          <path d="M62,96.82c0,1.49-1.02,2.69-2.28,2.69-1.25,0-2.27-1.21-2.27-2.69,0-1.49,1.02-2.69,2.28-2.68,1.25,0,2.27,1.21,2.27,2.69Z"/>
          <path d="M29.76,94.36s.15-.03,.4-.06c.26-.02,.61-.08,1.03-.12,.42-.05,.9-.06,1.43-.09,.53-.05,1.09-.06,1.65-.07,1.12,.03,2.24-.05,3.1,.01,.85,.04,1.44,.15,1.44,.14h.04c.29,.06,.49,.34,.43,.64-.04,.2-.17,.35-.35,.41,0,0-.56,.2-1.42,.39-.43,.1-.94,.19-1.48,.27-.27,.03-.55,.09-.84,.11-.29,0-.58,.02-.87,.03-.59,0-1.17,0-1.72-.03-.55-.03-1.07-.12-1.51-.2-.89-.14-1.43-.37-1.43-.37h-.01c-.28-.12-.41-.44-.29-.72,.07-.17,.23-.29,.4-.33Z"/>
          <path d="M36.5,96.77c0,1.49-1.02,2.69-2.28,2.69-1.25,0-2.27-1.21-2.27-2.69,0-1.49,1.02-2.69,2.28-2.69,1.25,0,2.27,1.21,2.27,2.69Z"/>
          <path class="cls-14" d="M56.7,88.79s.51-.25,1.27-.43c.76-.18,1.78-.32,2.8-.32,1.02,0,2.04,.11,2.81,.28,.77,.16,1.28,.39,1.28,.39,.44,.19,.64,.71,.44,1.15-.09,.2-.24,.35-.43,.44,0,0-.51,.24-1.27,.41-.76,.18-1.78,.33-2.8,.34-1.02,.02-2.04-.1-2.81-.26-.77-.16-1.28-.4-1.28-.4-.44-.21-.63-.73-.42-1.17,.09-.19,.23-.33,.41-.42Z"/>
          <path class="cls-14" d="M38.58,90.97s-.52,.22-1.29,.36c-.77,.14-1.8,.23-2.82,.17-1.02-.05-2.03-.22-2.79-.43-.76-.2-1.26-.46-1.26-.46-.43-.22-.6-.74-.38-1.17,.1-.19,.26-.33,.45-.41,0,0,.52-.21,1.29-.34,.77-.14,1.8-.23,2.82-.18,1.02,.03,2.03,.21,2.79,.42,.76,.2,1.26,.47,1.26,.47,.43,.23,.59,.76,.36,1.19-.1,.18-.25,.32-.43,.39Z"/>
          <g>
            <path class="cls-10" d="M99.17,48.05s-3.73,6.76-3.19,7.64,7.68-2.24,7.68-2.24c0,0,7.29,6.73,21.15,3.93,18.73-3.78,30.13-23.45,19.49-43.07-9.96-18.36-31.4-17.39-42.9-6.44-11.5,10.95-9.65,28.8-2.23,40.18Z"/>
            <path d="M106.6,27.1s.35-.12,.89-.24c.54-.12,1.26-.26,1.99-.33,.73-.07,1.46-.12,2.01-.12,.55,0,.92,.03,.92,.03,.71,.06,1.23,.68,1.17,1.39-.05,.53-.41,.95-.88,1.11,0,0-.35,.12-.89,.24-.54,.13-1.26,.24-1.99,.34-.73,.09-1.46,.13-2.01,.13-.55,0-.92-.03-.92-.03-.71-.07-1.22-.71-1.15-1.41,.05-.51,.4-.92,.86-1.08Z"/>
            <path d="M127.74,25.58s.36-.1,.9-.2c.54-.1,1.27-.19,2-.23,.73-.03,1.46-.05,2.01-.02,.55,.02,.92,.07,.92,.07,.7,.1,1.19,.74,1.09,1.45-.07,.52-.45,.93-.93,1.06,0,0-.36,.1-.9,.19-.54,.1-1.27,.17-2,.24-.73,.06-1.46,.05-2.01,.03-.55-.02-.92-.08-.92-.08-.7-.11-1.18-.77-1.07-1.47,.08-.51,.45-.9,.91-1.04Z"/>
            <path d="M113.24,32.88s.88-.28,2.26-.6c.69-.15,1.5-.33,2.37-.49,.43-.09,.91-.13,1.38-.19,.5-.05,.9-.13,1.49-.16,.93,0,1.82-.04,2.73,0,.9,.05,1.75,.1,2.45,.17,1.39,.14,2.33,.28,2.33,.28,.69,.11,1.16,.75,1.05,1.44-.1,.62-.63,1.06-1.24,1.06h-.02s-.9,0-2.27-.01c-.69-.02-1.44,0-2.27-.01-.82-.03-1.77,.04-2.68,.05-.42,.04-.83,.09-1.24,.13-.43,.05-.84,.07-1.26,.14-.83,.13-1.62,.21-2.29,.31-1.33,.2-2.25,.32-2.25,.32-.69,.09-1.32-.4-1.41-1.09-.08-.62,.3-1.18,.87-1.36h0Z"/>
          </g>
          <circle class="cls-4" cx="33.16" cy="108.33" r="5.83"/>
          <circle class="cls-4" cx="63.83" cy="107.83" r="5.83"/>
        </g>
      </g>
    </g>
  </g>
</svg>