<?xml version="1.0" encoding="UTF-8"?>
<svg id="_레이어_2" data-name="레이어 2" xmlns="http://www.w3.org/2000/svg" viewBox="0 0 100.09 100.09">
  <defs>
    <style>
      .cls-1 {
        fill: #ffe65a;
      }

      .cls-2 {
        fill: #ffc305;
      }
    </style>
  </defs>
  <g id="OBJECTS">
    <g>
      <path class="cls-2" d="M50.04,6.02l5.44,23.12c1.8,7.67,7.8,13.67,15.47,15.47l23.12,5.44-23.12,5.44c-7.67,1.8-13.67,7.8-15.47,15.47l-5.44,23.12-5.44-23.12c-1.8-7.67-7.8-13.67-15.47-15.47l-23.12-5.44,23.12-5.44c7.67-1.8,13.67-7.8,15.47-15.47l5.44-23.12Z"/>
      <path class="cls-1" d="M50.04,0l1.05,27.94c.43,11.45,9.61,20.63,21.06,21.06l27.93,1.05-27.93,1.05c-11.45,.43-20.63,9.61-21.06,21.06l-1.05,27.94-1.05-27.94c-.43-11.45-9.61-20.63-21.06-21.06L0,50.04l27.93-1.05c11.45-.43,20.63-9.61,21.06-21.06L50.04,0Z"/>
    </g>
  </g>
</svg>