<?xml version="1.0" encoding="UTF-8"?>
<svg id="_레이어_2" data-name="레이어 2" xmlns="http://www.w3.org/2000/svg" viewBox="0 0 625.53 187.66">
  <defs>
    <style>
      .cls-1 {
        fill: #fff;
      }

      .cls-1, .cls-2, .cls-3 {
        fill-rule: evenodd;
      }

      .cls-1, .cls-2, .cls-3, .cls-4 {
        stroke-width: 0px;
      }

      .cls-2, .cls-4 {
        fill: #005514;
      }

      .cls-3 {
        fill: #959595;
      }
    </style>
  </defs>
  <g id="_레이어_1-2" data-name="레이어 1">
    <g>
      <path class="cls-3" d="M89.77,6.42h445.94c49.4,0,89.83,40.74,89.83,90.59h0c0,49.85-40.43,90.65-89.83,90.65H89.77C40.37,187.66,0,146.86,0,97.01h0C0,47.16,40.37,6.42,89.77,6.42h0Z"/>
      <path class="cls-2" d="M89.77,0h445.94c49.4,0,89.83,40.8,89.83,90.65h0c0,49.79-40.43,90.59-89.83,90.59H89.77C40.37,181.23,0,140.43,0,90.65h0C0,40.8,40.37,0,89.77,0h0Z"/>
      <path class="cls-1" d="M530.45,166.63h0c41.36,0,75.24-34.12,75.24-75.86v-.31c0-41.74-33.88-75.86-75.24-75.86h0c-41.36,0-75.24,34.12-75.24,75.86v.31c0,41.74,33.88,75.86,75.24,75.86h0Z"/>
    </g>
    <g>
      <path class="cls-4" d="M580.8,108.95c-16.37,0-15.51-15.08-15.51-15.08v-21.11c0-21.72-18.87-25.93-27.36-26.74v-7.55c0-2.23-1.83-4.06-4.06-4.06h-.06c-2.23,0-4.06,1.83-4.06,4.06v7.55c-8.49.8-27.36,5.02-27.36,26.74v21.11s.86,15.08-15.51,15.08l-9.91,10.77h113.75l-9.91-10.77Z"/>
      <path class="cls-4" d="M519.29,125.44c1.64,6.54,7.51,11.4,14.55,11.4s12.91-4.86,14.55-11.4h-29.11Z"/>
    </g>
  </g>
</svg>