<?xml version="1.0" encoding="UTF-8"?>
<svg id="_레이어_2" data-name="레이어 2" xmlns="http://www.w3.org/2000/svg" viewBox="0 0 625.53 187.66">
  <defs>
    <style>
      .cls-1 {
        fill: #fff;
      }

      .cls-1, .cls-2, .cls-3, .cls-4 {
        stroke-width: 0px;
      }

      .cls-1, .cls-3, .cls-4 {
        fill-rule: evenodd;
      }

      .cls-2, .cls-3 {
        fill: #b82846;
      }

      .cls-4 {
        fill: #959595;
      }
    </style>
  </defs>
  <g id="_레이어_1-2" data-name="레이어 1">
    <g>
      <path class="cls-4" d="M89.77,6.42h445.94c49.4,0,89.83,40.74,89.83,90.59h0c0,49.85-40.43,90.65-89.83,90.65H89.77C40.37,187.66,0,146.86,0,97.01h0C0,47.16,40.37,6.42,89.77,6.42h0Z"/>
      <path class="cls-3" d="M89.77,0h445.94c49.4,0,89.83,40.8,89.83,90.65h0c0,49.79-40.43,90.59-89.83,90.59H89.77C40.37,181.23,0,140.43,0,90.65h0C0,40.8,40.37,0,89.77,0h0Z"/>
      <path class="cls-1" d="M530.45,166.63h0c41.36,0,75.24-34.12,75.24-75.86v-.31c0-41.74-33.88-75.86-75.24-75.86h0c-41.36,0-75.24,34.12-75.24,75.86v.31c0,41.74,33.88,75.86,75.24,75.86h0Z"/>
    </g>
    <g>
      <path class="cls-2" d="M579.71,69.42l-.16.16c-1.44,1.44-1.9,3.58-1.22,5.51,1.86,5.22,2.87,10.85,2.87,16.71,0,27.43-22.38,49.84-49.82,49.85-27.29.01-49.46-21.91-49.86-49.1-.4-27.43,21.66-50.18,49.09-50.58,11.09-.16,21.37,3.3,29.72,9.28,2.08,1.49,4.93,1.24,6.74-.57l.15-.15c2.3-2.3,1.97-6.09-.67-7.98-9.94-7.12-22.13-11.3-35.29-11.27-33.33.05-60.48,27.3-60.43,60.63.05,33.38,27.13,60.43,60.53,60.43s60.52-27.1,60.52-60.52c0-7.17-1.25-14.04-3.53-20.42-1.3-3.63-5.92-4.69-8.65-1.96Z"/>
      <path class="cls-2" d="M562.33,78.5l-40.58,40.58c-1.98,1.98-5.19,1.98-7.17,0l-14.12-14.12c-2.21-2.21-2.27-5.89-.01-8.06,2.19-2.1,5.67-2.08,7.82.08l9.89,9.89,36.27-36.27c2.18-2.18,5.72-2.18,7.9,0,2.18,2.18,2.18,5.72,0,7.9Z"/>
    </g>
  </g>
</svg>