<?xml version="1.0" encoding="UTF-8"?>
<svg id="_레이어_2" data-name="레이어 2" xmlns="http://www.w3.org/2000/svg" viewBox="0 0 408.98 404.44">
  <defs>
    <style>
      .cls-1 {
        opacity: .7;
      }

      .cls-2 {
        fill: #9da9b9;
      }

      .cls-2, .cls-3, .cls-4, .cls-5, .cls-6, .cls-7, .cls-8, .cls-9, .cls-10, .cls-11 {
        stroke-width: 0px;
      }

      .cls-3 {
        fill: #000;
      }

      .cls-12 {
        opacity: .5;
      }

      .cls-13 {
        opacity: .6;
      }

      .cls-4 {
        fill: #220f2d;
      }

      .cls-14 {
        opacity: .35;
      }

      .cls-5 {
        fill: #371a45;
      }

      .cls-6 {
        fill: #22a7f0;
      }

      .cls-15 {
        opacity: .3;
      }

      .cls-7 {
        fill: #1c7aea;
      }

      .cls-8 {
        fill: #0096f0;
      }

      .cls-16 {
        opacity: .55;
      }

      .cls-9 {
        fill: #ff8d06;
      }

      .cls-10 {
        fill: #fff;
      }

      .cls-17 {
        opacity: .25;
      }

      .cls-11 {
        fill: #111a28;
      }
    </style>
  </defs>
  <g id="Layer_1" data-name="Layer 1">
    <g>
      <g>
        <path class="cls-10" d="M243.86,182.87c-8.73,19.99-25.25,35.6-47.31,44.75-5.72,2.21-11.71,2.46-17.98.69-.72-.21-1.45-.43-2.17-.69l-7.49-25.34c-.49-3.52-.59-6.76.31-9.21.81-2.21,3.16-3.37,5.44-2.79,3.62.91,7.8,4.09,12.11,7.97,6.95-4.15,12.99-10.28,18.38-17.8,1.9-2.64,3.71-5.45,5.46-8.4l33.26,10.82Z"/>
        <path class="cls-5" d="M186.69,231.02c-3.54,0-7.15-.65-10.81-1.94-.47-.16-.83-.54-.97-1.02l-7.49-25.34c-.02-.07-.04-.15-.05-.22-.62-4.47-.5-7.54.39-9.95,1.07-2.92,4.19-4.53,7.26-3.76,3.2.81,6.9,3.15,11.9,7.55,8.07-5.11,15.39-13.32,22.34-25.07.37-.62,1.12-.9,1.81-.68l33.26,10.82c.41.13.75.44.93.83.18.4.18.85,0,1.25-8.93,20.45-25.58,36.21-48.13,45.56-3.4,1.31-6.89,1.97-10.45,1.97ZM177.64,226.42c6.37,2.08,12.54,2,18.35-.24,21.2-8.79,36.99-23.42,45.76-42.38l-30.46-9.91c-7.31,12.1-15.08,20.51-23.74,25.68-.58.35-1.32.27-1.82-.18-3.14-2.82-7.74-6.69-11.46-7.62-1.53-.39-3.08.4-3.61,1.83-.69,1.87-.77,4.52-.24,8.35l7.23,24.46Z"/>
        <path class="cls-5" d="M230.38,205.51c-.7,0-1.33-.47-1.5-1.18-2.73-11.19-10.74-18.34-24.51-21.86-.83-.21-1.32-1.05-1.11-1.88.21-.83,1.05-1.32,1.88-1.11,14.97,3.83,23.71,11.72,26.74,24.12.2.83-.31,1.66-1.13,1.86-.12.03-.25.04-.37.04Z"/>
        <path class="cls-5" d="M193.1,210.75c-2.69-2.2-6.18-6.53-9.78-5.88-.83.11-1.45.8-1.59,1.69-.2,3.33.91,6.38,1.93,9.66.14.39-.41.7-.67.38-2.99-3.31-7.03-11.53-1.45-14.34,5.55-2.17,10.03,3.71,12.28,7.92.25.45-.36.92-.73.57h0Z"/>
        <path class="cls-5" d="M187.16,196.57c1.23,1.86,2.42,3.92,2.87,6.16.05.26-.11.51-.37.56-.21.04-.41-.06-.51-.24-1.05-1.78-2.61-3.13-4.25-4.39-1.84-1.58.83-4.05,2.26-2.1h0Z"/>
        <g class="cls-17">
          <path class="cls-5" d="M243.86,182.87c-8.73,19.99-25.25,35.6-47.31,44.75-5.72,2.21-11.71,2.46-17.98.69.1-.67.21-1.33.31-1.98.83-5.52.6-11.18-.67-16.61-.12-.49-.29-1.04-.74-1.26-.4-.19-.87-.06-1.27.12-1.24.54-2.3,1.49-2.97,2.67.42-5.6-1.05-11.33-4.12-16.03.83-1.16,2.64-1.23,3.87-.5,1.23.73,2,2.02,2.64,3.29,2.13,4.21,3.45,8.82,3.87,13.52.19,2.16.24,4.48,1.51,6.24,1.04,1.45,2.74,2.27,4.46,2.73,4.92,1.32,10.28.03,14.68-2.53,4.41-2.56,8-6.31,11.32-10.19,3.14-3.67,6.17-7.68,7.24-12.39,1.07-4.72-.32-10.31-4.44-12.84-2.11-1.3-4.66-1.66-7.12-1.99-.63-.09-1.32-.15-1.99-.13,1.9-2.64,3.71-5.45,5.46-8.4l33.26,10.82Z"/>
        </g>
      </g>
      <g>
        <g>
          <path class="cls-10" d="M179.29,220.23c.1,4.9-1.4,9.73-4.39,13.61-13.92,18.09-34.62,29.53-56.67,38.12l-1.69-1.81-15.01-16.04c20.16-6.31,37.25-19.68,52.51-37.27,1.06-1.22,1.77-2.7,2.11-4.28,1.72-8.05,3.78-14.54,7.46-17.13,2.03-1.42,4.78-.92,6.24,1.09,2.21,3.02,3.35,8.17,4.23,13.83,1.04-1.42,2.1-2.08,3.19-2.03,1.13.06,1.96,1.11,1.91,2.23-.05,1.15-.06,2.29-.05,3.4.01,2.19.11,4.3.14,6.28Z"/>
          <path class="cls-5" d="M136.02,265.69c-.5,0-.99-.24-1.29-.69-5.79-8.78-8.29-16.56-7.88-24.49.04-.85.76-1.52,1.62-1.46.85.04,1.5.77,1.46,1.62-.38,7.23,1.96,14.42,7.37,22.63.47.71.27,1.67-.44,2.14-.26.17-.56.25-.85.25Z"/>
          <path class="cls-5" d="M118.23,273.51c-.42,0-.83-.17-1.13-.49l-16.7-17.85c-.36-.39-.5-.93-.37-1.45.13-.51.52-.92,1.03-1.08,18.35-5.74,35.3-17.78,51.81-36.81.87-1,1.48-2.24,1.77-3.59,1.62-7.57,3.72-15,8.08-18.07,2.71-1.91,6.39-1.28,8.38,1.44,2.08,2.85,3.22,7.16,4.04,11.69.71-.38,1.45-.55,2.22-.52,1.95.1,3.46,1.83,3.37,3.84-.11,2.46-.04,4.84.03,7.15.02.83.05,1.64.06,2.43.1,5.32-1.57,10.5-4.71,14.58-12.2,15.87-30.42,28.14-57.34,38.62-.18.07-.37.11-.56.11ZM104.3,254.83l14.33,15.32c25.83-10.18,43.34-22.03,55.04-37.25,2.72-3.53,4.16-8.02,4.07-12.64-.02-.78-.04-1.58-.06-2.39-.07-2.36-.15-4.8-.03-7.38.01-.31-.21-.61-.45-.63-.67-.05-1.38.74-1.86,1.39-.37.5-1,.74-1.61.59-.61-.15-1.06-.65-1.16-1.26-.76-4.87-1.82-10.25-3.95-13.16-.98-1.34-2.79-1.67-4.11-.74-3.5,2.47-5.42,9.57-6.84,16.19-.4,1.86-1.25,3.58-2.46,4.97-16.21,18.67-32.88,30.79-50.9,36.97Z"/>
          <path class="cls-5" d="M176.56,210.01c-2.33,2.1-3.82,4.95-4.78,7.93-.09.32-.43.51-.75.4-.26-.09-.42-.34-.4-.6.15-1.71.46-3.44,1.05-5.13.59-1.68,1.47-3.33,2.67-4.77,1.48-1.65,3.82.66,2.19,2.17h0Z"/>
          <g class="cls-17">
            <path class="cls-5" d="M179.29,220.23c.1,4.9-1.4,9.73-4.39,13.61-13.92,18.09-34.62,29.53-56.67,38.12l-1.69-1.81c0-1.21.1-2.43.27-3.6.31-2.21.96-4.65,2.88-5.79l1.45-.63c9.71-2.58,18.5-7.77,27.08-13,7.48-4.56,15.01-9.25,21.04-15.6,4.68-4.93,8.43-11.01,9.89-17.59.01,2.19.11,4.3.14,6.28Z"/>
          </g>
        </g>
        <g>
          <path class="cls-10" d="M20.76,315.24c6.51,10.29,26.03,8.69,26.03,8.69l6.04-65.01,1.22-13.13s-10.99-.7-19.63,1.99c-4.16,1.29-7.78,3.38-9.36,6.7-5.51,11.55-9.65,52.31-4.29,60.76Z"/>
          <g class="cls-14">
            <path class="cls-5" d="M19.29,281.31c-1.55,14.24-1.53,29.18,1.47,33.93,6.51,10.29,26.03,8.69,26.03,8.69l7.25-78.14s-.2-.01-.58-.03l-5.65,60.93s-19.52,1.6-26.03-8.69c-1.76-2.79-2.5-9.09-2.49-16.69Z"/>
          </g>
          <path class="cls-5" d="M43.83,325.57c-5.99,0-19.01-1.03-24.37-9.51-5.78-9.13-1.23-50.86,4.2-62.25,5.26-11.04,29.46-9.63,30.48-9.57.85.05,1.5.79,1.44,1.64-.05.85-.78,1.5-1.64,1.44-6.42-.4-23.88.21-27.5,7.82-5.58,11.7-9.31,51.48-4.38,59.27,5.93,9.37,24.42,7.99,24.6,7.98.85-.06,1.59.56,1.66,1.41.07.85-.56,1.59-1.41,1.66-.19.02-1.34.1-3.09.1Z"/>
          <path class="cls-10" d="M20.16,287.44l13.01,2.17c1.16.19,2.05,1.14,2.15,2.32.38,4.29.75,14.26-3.65,17.14-3.66,2.39-9.17,1.58-12.16-1.46-3.35-3.4-2.84-13.09-2.35-17.87.15-1.49,1.53-2.53,3-2.29Z"/>
          <g class="cls-14">
            <path class="cls-5" d="M35.32,291.92c.39,4.29.75,14.26-3.65,17.14-3.66,2.39-9.17,1.58-12.16-1.46-2.06-2.09-2.66-6.57-2.7-10.81.4,2.15,1.17,3.94,2.22,5.17,6.02,7.01,11.63-.11,11.63-.11,0,0,.69,1.91,1.36,2.08,2.81.69,3.03-8.28,3.03-12.93.14.28.24.59.26.93Z"/>
          </g>
          <path class="cls-5" d="M26.69,311.71c-2.96,0-5.99-1.12-8.07-3.23-3.47-3.52-3.38-12.21-2.7-18.88.11-1.05.65-2.02,1.49-2.66.84-.64,1.92-.91,2.96-.73l13.01,2.17c1.72.29,3.04,1.7,3.19,3.44.49,5.48.59,15.15-4.21,18.3-1.65,1.08-3.64,1.6-5.67,1.6ZM19.73,288.65c-.29,0-.57.09-.81.27-.3.23-.48.55-.52.93-.86,8.42-.12,14.73,1.99,16.87,2.67,2.71,7.52,3.3,10.59,1.3,2.67-1.75,3.83-7.72,3.09-15.99-.05-.6-.51-1.09-1.11-1.19l-13.01-2.17c-.08-.01-.15-.02-.22-.02Z"/>
          <path class="cls-5" d="M31.52,294.22c-.47,6.37-.56,15.12-8.41,16.77-.68.14-1.34-.29-1.48-.96-.15-.7.33-1.4,1.05-1.5,6.67-1.09,6.64-9.18,7.54-14.51.16-.84,1.42-.64,1.31.21h0Z"/>
          <path class="cls-5" d="M31.05,253.34c5.06.35,10.02,1.17,14.91,2.56,2,.64.98,3.58-.99,2.84-3.35-1.4-6.9-2.51-10.46-3.36-1.2-.29-2.41-.55-3.61-.76-.79-.15-.65-1.33.15-1.29h0Z"/>
          <g class="cls-17">
            <path class="cls-5" d="M34.42,247.78c5.35,4.88,11.62,8.67,18.41,11.14l1.22-13.13s-10.99-.7-19.63,1.99Z"/>
          </g>
          <g>
            <g>
              <path class="cls-10" d="M45.3,382.77c.65,5.36,4.11,10.2,6,12.85.89,1.25,1.73,2.2,2.67,3.07.5.46,2.65,2.45,5.21,3.43,3.32,1.26,8.5,1.26,12.47-2.05,3.71-3.09,5.28-8.19,4.02-13.02,3.41-2.55,7.72-6.07,12.34-10.66,6.52-6.47,13.66-15.09,19.78-26.19,8.52-15.44,11.8-29.76,13.18-39.2l-34.53,7.03c-5.28,6.21-16.97,20.32-27.2,34.41-.31.43-.61.85-.9,1.27-3.31,4.69-5.68,8.86-7.54,12.89-5.34,11.61-5.67,14.75-5.5,16.17Z"/>
              <path class="cls-10" d="M45.3,382.77c.65,5.36,4.11,10.2,6,12.85.89,1.25,1.73,2.2,2.67,3.07.5.46,2.65,2.45,5.21,3.43,3.32,1.26,8.5,1.26,12.47-2.05,3.71-3.09,5.28-8.19,4.02-13.02,3.41-2.55,7.72-6.07,12.34-10.66-1.84-.56-3.67-1.12-5.51-1.68-3.87-1.18-7.86-2.43-10.88-5.12-1.43-1.27-2.57-2.81-3.71-4.34-2.36-3.17-4.72-6.34-7.07-9.51-.49-.66-.99-1.33-1.71-1.73-.25-.13-.51-.24-.78-.3-3.31,4.69-5.68,8.86-7.54,12.89-5.34,11.61-5.67,14.75-5.5,16.17Z"/>
              <g class="cls-17">
                <path class="cls-5" d="M45.44,381.82c-.1,9.8,8.48,19.57,16.76,20.82,1.03.16,3.4.48,6.07-.55,4.04-1.56,5.92-5.13,6.47-6.28-1.06.63-3.18,1.68-5.93,1.67,0,0-2.37-.01-4.93-1.19-4.18-1.93-14.53-10.16-14.8-21.8-.23-10.14,7.3-17.77,7.14-17.86-.13-.07-3.97,5.43-7.43,14.08-2.22,5.54-3.32,8.3-3.35,11.11Z"/>
              </g>
              <path class="cls-5" d="M63.66,404.44c-1.89,0-3.64-.36-5.04-.89-1.86-.71-3.84-2-5.71-3.74-1.04-.96-1.95-2.01-2.87-3.31-1.95-2.73-5.57-7.81-6.27-13.56-.23-1.86.27-5.34,5.63-16.99,2.17-4.72,4.99-9.44,8.6-14.42,11.16-15.37,23.69-30.29,27.27-34.5.55-.65,1.53-.73,2.18-.18.65.55.73,1.53.18,2.18-3.56,4.19-16.03,19.03-27.12,34.32-3.54,4.88-6.18,9.3-8.3,13.9-3.8,8.25-5.6,13.41-5.37,15.33.6,4.97,3.93,9.64,5.72,12.14.8,1.12,1.58,2.02,2.46,2.83,2,1.86,3.67,2.72,4.71,3.12,3.01,1.14,7.55,1.03,10.93-1.79,3.24-2.7,4.62-7.2,3.52-11.45l-.26-1,.83-.62c12.97-9.7,23.93-22.27,31.7-36.35,6.63-12.02,11.01-25.03,13.01-38.68.12-.84.91-1.42,1.75-1.3.84.12,1.43.91,1.3,1.75-2.05,14.02-6.55,27.38-13.36,39.72-7.82,14.17-18.79,26.85-31.76,36.73.94,5.09-.86,10.32-4.75,13.57-2.81,2.35-6.06,3.19-8.97,3.19Z"/>
              <path class="cls-5" d="M88.56,377.06s-.05,0-.08,0c-.68-.04-16.63-1.22-24.62-15.56-.33-.59-.12-1.33.47-1.66.59-.33,1.33-.12,1.66.47,7.33,13.15,22.49,14.3,22.64,14.31.67.04,1.18.63,1.14,1.3-.04.65-.58,1.14-1.22,1.14Z"/>
              <path class="cls-5" d="M75.75,388.09c-4.75-.37-9.49-2.3-12.62-5.96-.62-.72.4-1.67,1.08-1,1.54,1.44,3.39,2.51,5.4,3.14,1.95.63,4.12.96,6.15.88,2.04-.05,2.05,2.98,0,2.93h0Z"/>
            </g>
            <path class="cls-10" d="M38.16,291.92c-3.11,11.55-4.95,18.39-3.76,27.54.27,2.09,1.24,8.4,2.29,17.9.63,5.7.91,9.08-.03,12.34-.18.61-.4,1.22-.66,1.84-.32.75-1,1.84-1.05,1.93-2.25,3.9-4.43,6.3-5.47,7.54-2.17,2.61-4.6,6.49-5.57,9.81-2.29,7.83,2.65,15.58,4.67,18.73,2.29,3.59,8.06,12.62,16.09,12.04,3.81-.28,6.61-2.6,7.89-3.86.28-.28.5-.5.63-.64,4.72-5.08,3.98-11.59,3.85-12.54,4.01-3.98,9.1-9.42,14.09-15.92,1.04-1.37,2.09-2.78,3.12-4.24.6-.86,1.18-1.69,1.72-2.51,2.74-4.13,4.7-7.88,6.16-12.37.77-2.36,1.23-4.39,1.52-5.88,4.85.47,17.18.97,27.58-6.96,0,0,3.79-2.5,6.87-6.95.47-.67.92-1.39,1.33-2.15,6.57-11.94,7.54-31.51,1.98-67.44l-57.55-27.82c-2.72,4.81-9.66,17.37-16.12,32.53-3.62,8.51-7.09,17.84-9.58,27.07Z"/>
            <path class="cls-10" d="M23.91,370.81c-2.29,7.83,2.65,15.58,4.67,18.73,2.29,3.59,8.06,12.62,16.09,12.04,4.66-.34,7.81-3.74,8.52-4.5,4.72-5.08,3.98-11.59,3.85-12.54,4.01-3.98,9.1-9.42,14.09-15.92-10.41,1.21-21.41-2.79-28.39-10.65-2.27-2.56-4.13-5.46-6.08-8.27-.18.61-.4,1.22-.66,1.84-.32.75-1,1.84-1.05,1.93-2.25,3.9-4.43,6.3-5.47,7.54-2.17,2.61-4.6,6.49-5.57,9.81Z"/>
            <g class="cls-16">
              <path class="cls-10" d="M39.88,356.96c-1.45-1.64-2.74-3.41-3.98-5.22.03-.07.07-.14.1-.21.26-.62.48-1.23.66-1.84,1.96,2.81,3.81,5.71,6.08,8.27,3.3,3.72,7.5,6.57,12.11,8.42-5.72-1.72-10.99-4.94-14.96-9.42Z"/>
              <path class="cls-10" d="M41.81,400.58c4.66-.34,7.81-3.74,8.52-4.5,4.72-5.08,3.98-11.59,3.85-12.54,3.76-3.73,8.46-8.74,13.15-14.71,1.27,0,2.54-.06,3.79-.21-4.99,6.51-10.08,11.94-14.09,15.92.13.95.87,7.46-3.85,12.54-.71.76-3.86,4.16-8.52,4.5-2.05.15-3.96-.34-5.7-1.19.91.19,1.86.26,2.84.19Z"/>
            </g>
            <path class="cls-5" d="M58.22,384.86c-5.19,1.03-10.75-.72-14.36-4.58-.28-.35-1.06-1.26-1.33-1.6-.25-.37-.86-1.34-1.12-1.72-.45-.79-.82-1.62-1.23-2.42-.19-.38-.04-.84.34-1.04.36-.18.8-.06,1.01.28.64,1.08,1.3,2.27,2.11,3.23,0,0,.37.49.37.49.26.27,1.01,1.04,1.28,1.32,2.67,2.44,6.27,3.71,9.88,3.4.74-.06,1.62-.18,2.28-.38,2.05-.54,2.82,2.5.76,3h0Z"/>
            <path class="cls-5" d="M65.28,370.53c-6.45,0-17.89-2.86-29.83-19.55-.39-.55-.27-1.31.28-1.7.55-.39,1.31-.27,1.7.28,16.64,23.25,31.71,18.14,32.35,17.91.63-.23,1.33.1,1.56.73.23.63-.09,1.33-.72,1.56-.23.09-2.19.77-5.35.77Z"/>
            <path class="cls-8" d="M76.15,368.7l-.05.41c.21.03.19-.28.05-.41Z"/>
            <g class="cls-17">
              <path class="cls-5" d="M38.16,291.92c-3.11,11.55-4.95,18.39-3.76,27.54.27,2.09,1.24,8.4,2.29,17.9.63,5.7.91,9.08-.03,12.34-.18.61-.4,1.22-.66,1.84-.32.75-1,1.84-1.05,1.93-2.25,3.9-4.43,6.3-5.47,7.54-2.17,2.61-4.6,6.49-5.57,9.81-2.29,7.83,2.65,15.58,4.67,18.73,2.29,3.59,8.06,12.62,16.09,12.04,3.81-.28,6.61-2.6,7.89-3.86-.64.13-1.28.24-1.92.32-4.1.53-8.63-.07-11.66-2.88-1.91-1.77-3.02-4.23-4.07-6.62-1.74-3.97-3.47-8.13-3.33-12.47.2-6.11,4.02-11.41,7.44-16.48,2.41-3.58,4.69-7.25,6.84-10.99,1.35-2.33,2.65-4.74,3.26-7.37.66-2.83.5-5.79.1-8.67-1.01-7.29-3.47-14.32-4.53-21.6-1.91-13.11.93-26.85,7.87-38.13l-.09-1.58c-1.44-2.23-3.02-4.37-4.73-6.4-3.62,8.51-7.09,17.84-9.58,27.07Z"/>
            </g>
            <path class="cls-5" d="M122.17,260.01c3.13,13.21,4.45,26.76,4.49,40.35-.12,8.57-1.01,17.41-4.5,25.35-2.19,4.96-5.73,9.34-10.24,12.38-6.97,5.55-18.49,8.2-28.42,7.08,0,0,1.66-1.24,1.66-1.24-1.48,8.36-5.67,16.12-10.7,22.81-4.91,6.75-10.43,13.03-16.33,18.9l.44-1.3c.43,3.66-.22,7.36-1.96,10.6-2.93,5.32-9.23,9.47-15.48,7.87-4.81-1.21-8.35-4.79-11.2-8.54-5.37-7.25-10.8-16.91-6.74-26,1.4-3.23,3.31-6.15,5.56-8.79,2.13-2.45,3.94-5.08,5.51-7.91.94-1.78,1.35-3.71,1.43-5.72.1-4.23-.63-8.72-1.08-12.99-.63-6.66-2.24-13.3-2.11-20.04.19-6.79,2.08-13.46,3.79-19.9,1.16-4.29,2.44-8.61,3.91-12.82,2.89-8.44,6.35-16.67,10.1-24.77,3.76-8.07,7.83-16,12.21-23.76.42-.74,1.36-1,2.1-.59.74.42,1.01,1.36.59,2.1-6.49,11.53-12.35,23.43-17.41,35.66-3.33,8.16-6.26,16.44-8.51,24.97-2.26,8.39-4.62,16.89-3.34,25.58.61,4.36,1.22,8.79,1.75,13.2.48,4.53,1.2,8.85,1.1,13.49-.07,2.09-.53,4.26-1.37,6.2-1.67,3.35-3.87,6.46-6.3,9.3-5,6.02-8.01,12.03-5.06,19.84,1.06,2.98,2.75,5.79,4.51,8.46,1.73,2.64,3.72,5.26,6.11,7.25,6.17,5.38,13.3,3.13,17.24-3.56,1.42-2.62,1.95-5.79,1.6-8.72-.06-.49.12-.97.44-1.3,5.8-5.77,11.21-11.93,16.01-18.52,4.85-6.5,8.73-13.57,10.17-21.59.15-.79.88-1.31,1.66-1.24,6.98.66,14.17-.17,20.55-3.12,5.1-2.51,9.3-5.61,12.59-10.39,5.28-8.31,6.26-18.62,6.43-28.26.29-13.39-1.86-26.68-2.72-40.07-.03-.43.3-.8.73-.82.38-.02.71.23.8.59h0Z"/>
            <g class="cls-17">
              <path class="cls-5" d="M71.78,333.75c1.59,1.4,4.3,4.19,5.67,8.51.8,2.52.83,4.58.86,6.71.07,4.99-1.11,9-1.76,11.14-.2.66-.4,1.25-.58,1.76,2.74-4.13,4.7-7.88,6.16-12.37.77-2.36,1.23-4.39,1.52-5.88,4.85.47,17.18.97,27.58-6.96,0,0,3.79-2.5,6.87-6.95l-.59.06c-1.61,1.36-4.09,3.18-7.41,4.68-5.05,2.28-9.28,2.54-15.99,2.95-5.52.34-9.04.53-13.71-.52-3.72-.84-6.66-2.13-8.62-3.13Z"/>
            </g>
            <g class="cls-15">
              <path class="cls-3" d="M39.73,258.25c.25-.12.49-.23.75-.34-.04.04-.08.09-.11.14l-.64.2Z"/>
            </g>
            <g class="cls-15">
              <path class="cls-3" d="M33.67,290.18c-.17-.11-.27-.17-.27-.18,0,0,.1.06.27.18Z"/>
            </g>
            <g class="cls-14">
              <path class="cls-5" d="M89.51,324.79c.16.87.31,1.72.45,2.56-.13-.84-.28-1.69-.45-2.56Z"/>
            </g>
            <g class="cls-14">
              <path class="cls-5" d="M129.22,286.78c.94,8.75,1.47,16.33,1.56,22.66.18-5.89-.36-13.49-1.56-22.66Z"/>
            </g>
            <circle class="cls-10" cx="127.8" cy="298.53" r="7.44"/>
            <g class="cls-17">
              <path class="cls-5" d="M135.24,298.75c-.12,4.11-3.55,7.34-7.66,7.22-4.11-.12-7.34-3.56-7.22-7.67.03-1.14.32-2.21.81-3.16,1.12,2.55,3.63,4.37,6.6,4.46s5.59-1.58,6.85-4.05c.43.98.65,2.07.62,3.2Z"/>
            </g>
            <path class="cls-5" d="M127.8,307.2c-.09,0-.18,0-.27,0-4.78-.14-8.56-4.15-8.41-8.94.14-4.78,4.19-8.55,8.93-8.41,4.78.14,8.56,4.15,8.41,8.94-.14,4.69-4.01,8.41-8.67,8.41ZM127.8,292.32c-3.34,0-6.1,2.66-6.2,6.02-.1,3.42,2.6,6.29,6.02,6.39.06,0,.13,0,.19,0,3.34,0,6.1-2.66,6.2-6.02.1-3.42-2.6-6.29-6.02-6.39-.06,0-.13,0-.19,0ZM135.24,298.75h0,0Z"/>
            <g>
              <g class="cls-14">
                <path class="cls-5" d="M128.39,305.07c-1.24-8.18-1.47-15.77-1.13-22.53.17,3.9.53,7.99,1.18,12.26.76,5,.99,10.22.52,15.34-.13-1.7-.32-3.4-.58-5.07Z"/>
              </g>
              <path class="cls-10" d="M121.36,319.19l-38.07,1.94c-4.51.23-8.38-3.27-8.61-7.78l-1.03-20.26c-.2-3.95,2.46-7.41,6.15-8.36.52-.14,1.07-.22,1.63-.25l38.06-1.94c4.51-.23,8.39,3.27,8.61,7.78l.82,16.04.22,4.21c.23,4.51-3.27,8.38-7.78,8.61Z"/>
              <g class="cls-17">
                <path class="cls-5" d="M121.36,319.19l-38.07,1.94c-4.51.23-8.38-3.27-8.61-7.78l-1.03-20.26c-.2-3.95,2.46-7.41,6.15-8.36,2.23,1.33,3.65,2.17,3.65,2.17,2.68,16.17,7.73,24.04,27.94,23.34,8.72-.3,14.16-1.91,17.54-3.88l.22,4.21c.23,4.51-3.27,8.38-7.78,8.61Z"/>
              </g>
              <path class="cls-5" d="M82.87,322.37c-4.99,0-9.17-3.92-9.42-8.96l-1.03-20.26c-.26-5.2,3.75-9.65,8.95-9.91l38.06-1.94c2.51-.13,4.93.73,6.8,2.43,1.88,1.69,2.98,4.01,3.11,6.52l1.03,20.26c.13,2.51-.73,4.93-2.43,6.8-1.69,1.88-4.01,2.98-6.52,3.11l-38.07,1.94c-.16,0-.32.01-.49.01ZM83.3,321.13h0,0ZM119.92,283.76c-.12,0-.24,0-.36,0l-38.06,1.94c-3.84.2-6.8,3.48-6.61,7.32l1.03,20.26c.2,3.84,3.47,6.8,7.32,6.61l38.07-1.94c1.85-.09,3.56-.91,4.81-2.3,1.25-1.39,1.89-3.17,1.8-5.02l-1.03-20.26c-.09-1.85-.91-3.56-2.3-4.81-1.3-1.17-2.94-1.81-4.66-1.81Z"/>
              <path class="cls-10" d="M122.88,318.96c-.49.13-.99.2-1.52.23l-38.07,1.94c-3.3.17-6.27-1.66-7.7-4.44-.52-1.01-.85-2.14-.91-3.34l-.46-9-.15-2.97-.42-8.29c-.23-4.51,3.27-8.38,7.78-8.61l8.23-.42c-3.75.91-6.47,4.4-6.27,8.39l.55,10.94.48,9.32c.23,4.51,4.11,8.01,8.61,7.78l29.85-1.53Z"/>
              <g class="cls-17">
                <path class="cls-5" d="M122.88,318.96c-.49.13-.99.2-1.52.23l-38.07,1.94c-4.51.23-8.38-3.27-8.61-7.78l-.61-11.97c1.07,2.07,2.92,4.57,5.68,4.71,1.52.08,2.95-1.09,4.18-2.7l.48,9.32c.23,4.51,4.11,8.01,8.61,7.78l29.85-1.53Z"/>
              </g>
              <path class="cls-5" d="M82.87,322.37c-2.33,0-4.55-.86-6.31-2.44-1.88-1.7-2.98-4.01-3.11-6.52l-1.03-20.26c-.27-5.2,3.75-9.64,8.95-9.91l8.22-.42.35,2.43c-3.26.79-5.5,3.79-5.33,7.13l1.03,20.26c.09,1.85.91,3.56,2.3,4.81,1.39,1.25,3.17,1.89,5.02,1.8l29.86-1.53.37,2.43c-.58.15-1.17.23-1.77.26l-38.06,1.94c-.16,0-.33.01-.49.01ZM84.73,285.54l-3.24.16c-3.84.2-6.81,3.48-6.61,7.32l1.03,20.26c.09,1.85.91,3.56,2.3,4.81,1.39,1.25,3.17,1.89,5.02,1.79l3.56-.18c-.17-.13-.34-.28-.5-.42-1.88-1.7-2.98-4.01-3.11-6.52l-1.03-20.26c-.14-2.65.85-5.14,2.58-6.97Z"/>
              <path class="cls-6" d="M98.92,301.97c.03.75-.75,6.85-.75,6.85,0,0-1.92.09-4.27.19-2.94.13-5.46-2.8-5.63-6.56-.17-3.75,2.08-6.91,5.02-7.04,1.98-.09,4.27-.19,4.27-.19,0,0,1.31,5.53,1.36,6.75Z"/>
              <g class="cls-17">
                <path class="cls-5" d="M98.92,301.97c.03.75-.75,6.85-.75,6.85,0,0-1.92.09-4.27.19-2.94.13-5.46-2.8-5.63-6.56-.17-3.75,2.08-6.91,5.02-7.04,1.98-.09,4.27-.19,4.27-.19,0,0,1.31,5.53,1.36,6.75Z"/>
              </g>
              <path class="cls-5" d="M93.71,309.94c-1.63,0-3.17-.76-4.36-2.15-1.2-1.39-1.91-3.28-2-5.3-.09-2.02.45-3.96,1.51-5.46,1.12-1.57,2.67-2.47,4.39-2.55l2.98-.13c1.2-.06,2.26.75,2.52,1.92.48,2.09,1.05,4.77,1.09,5.65,0,.17.03.69-.59,5.71-.15,1.2-1.13,2.11-2.34,2.17l-2.97.13c-.08,0-.16,0-.24,0ZM96.34,296.21s-.02,0-.03,0l-2.98.13c-1.13.05-2.18.68-2.96,1.77-.83,1.16-1.24,2.69-1.17,4.3.07,1.61.62,3.09,1.55,4.18.87,1.02,1.98,1.55,3.11,1.5l2.96-.13c.3-.01.55-.24.59-.54.57-4.61.58-5.3.58-5.4l.92-.04-.92.04c-.03-.56-.42-2.56-1.05-5.33-.06-.29-.32-.48-.61-.48Z"/>
              <ellipse class="cls-6" cx="97.87" cy="302.02" rx="5.33" ry="6.81" transform="translate(-13.55 4.73) rotate(-2.59)"/>
              <g class="cls-13">
                <path class="cls-10" d="M92.54,302.26c.02.45.07.89.16,1.31.33-3.15,2.39-5.61,4.97-5.73,2.59-.12,4.85,2.14,5.47,5.25.05-.43.06-.87.04-1.32-.17-3.76-2.69-6.69-5.63-6.56-2.94.13-5.18,3.28-5.02,7.04Z"/>
              </g>
              <g class="cls-17">
                <path class="cls-5" d="M92.54,302.26c.17,3.76,2.69,6.69,5.63,6.56,2.94-.13,5.18-3.28,5.02-7.04-.02-.45-.07-.89-.16-1.31-.76,2.3-2.51,3.95-4.61,4.04-2.58.12-4.85-2.14-5.47-5.24-.3.91-.45,1.93-.4,3Z"/>
              </g>
              <path class="cls-5" d="M97.98,309.75c-1.63,0-3.17-.76-4.36-2.15-1.2-1.39-1.91-3.28-2-5.3-.09-2.02.45-3.96,1.51-5.46,1.12-1.57,2.67-2.47,4.39-2.55,3.43-.16,6.4,3.18,6.6,7.44.09,2.02-.45,3.96-1.51,5.46-1.12,1.57-2.67,2.47-4.39,2.55-.08,0-.16,0-.24,0ZM97.75,296.15c-.05,0-.1,0-.15,0-1.13.05-2.18.68-2.96,1.77-.83,1.16-1.24,2.69-1.17,4.3.07,1.61.62,3.09,1.55,4.18.87,1.02,1.98,1.55,3.11,1.5,1.13-.05,2.18-.68,2.96-1.77.83-1.16,1.24-2.69,1.17-4.3-.14-3.17-2.15-5.68-4.51-5.68Z"/>
              <path class="cls-5" d="M110.48,320.84c-.64,0-1.17-.51-1.2-1.15l-.48-12.36c-.11-2.82,1.2-5.47,3.51-7.09,1.64-1.15,2.57-3.04,2.5-5.04l-.48-12.35c-.03-.66.49-1.22,1.15-1.24.69-.02,1.22.49,1.24,1.15l.48,12.35c.11,2.82-1.2,5.47-3.51,7.09-1.64,1.15-2.58,3.04-2.5,5.04l.48,12.36c.03.66-.49,1.22-1.15,1.24-.02,0-.03,0-.05,0Z"/>
            </g>
            <path class="cls-10" d="M40.72,292.75s-3.61,2.85-3.79,7.26c-.2,5.1,2.98,7.19,2.98,7.19,0,0,13.95,7.21,36.39,2.55,0,0,6.64-8.32-.7-13.05,0,0-23.68,3.15-34.89-3.95Z"/>
            <g class="cls-17">
              <path class="cls-5" d="M36.94,300.02c-.2,5.1,2.98,7.18,2.98,7.18,0,0,13.95,7.22,36.4,2.55,0,0,2.18-2.74,2.66-5.97-.11.16-.18.24-.18.24-16.41,3.41-28.27.47-33.47-1.36-3.61-1.27-6.01-4.56-5.91-8.23,0-.05,0-.1,0-.15,0-.09,0-.17.02-.25-1.05,1.25-2.4,3.33-2.5,5.98Z"/>
            </g>
            <path class="cls-5" d="M61.51,312.55c-11.15,0-18.64-2.72-21.13-3.78-1.04-.44-1.94-1.12-2.6-1.95-1.02-1.28-2.21-3.5-2.07-6.86.02-.54.09-1.08.2-1.61.4-1.9,1.61-3.52,3.33-4.46,1.78-.98,3.9-1.12,5.82-.39,9.1,3.46,22.49,2.72,27.82,2.25,1.84-.16,3.62.4,5.03,1.58,1.37,1.15,2.21,2.76,2.37,4.53.15,1.8-.27,3.74-1.25,5.79-.96,2-2.84,3.42-5.03,3.8-4.54.79-8.72,1.1-12.48,1.1ZM42.56,295.51c-.74,0-1.48.18-2.14.55-1.1.6-1.84,1.59-2.09,2.8-.08.4-.13.8-.15,1.2-.1,2.6.78,4.27,1.53,5.22.41.51.97.93,1.64,1.21,3.18,1.35,14.88,5.53,32.22,2.52,1.41-.24,2.62-1.15,3.23-2.43.54-1.13,1.16-2.84,1.01-4.52-.1-1.11-.63-2.12-1.49-2.85-.9-.76-2.05-1.12-3.23-1.01-5.5.49-19.34,1.25-28.92-2.4h0c-.52-.2-1.07-.3-1.61-.3Z"/>
            <g class="cls-17">
              <path class="cls-5" d="M67.38,273.05c2.31-.22,4.67,1.35,5.36,3.56.46,1.48.24,3.17,1.01,4.53,1.23,2.15,4.19,2.36,6.67,2.31-3.32,1.08-5.92,4.09-6.5,7.53-.36,2.14,0,4.41-.78,6.43-7.11-.16-14.22-.32-21.33-.49,5.43-5.4,9.86-11.79,13.01-18.77.71-1.57,1.41-3.25,2.79-4.29"/>
            </g>
            <g>
              <path class="cls-10" d="M67.2,281.13c-1.5,1.29-2.99,2.64-4.46,4.03-.41.39-.82.77-1.22,1.17-.04.04-.09.08-.13.12-.48.46-.96.94-1.43,1.41-.48.47-.95.96-1.42,1.44-1.96,2.01-3.89,4.12-5.8,6.34-.38.45-.77.91-1.16,1.37-.53.64-1.06,1.28-1.59,1.93-.38.46-.75.93-1.12,1.41-.04.04-.07.09-.1.13-.41.53-.82,1.06-1.23,1.59-.39.5-.76,1-1.14,1.51-.08.11-.17.23-.25.34-.42.57-.84,1.15-1.26,1.72-.86,1.19-1.7,2.4-2.55,3.65-.22.32-.44.65-.66.97-.25.37-.49.74-.73,1.11-.27.4-.54.82-.79,1.23-.27.43-.55.86-.82,1.29-.27.43-.55.87-.82,1.31.27.59.51,1.16.73,1.73.22.56.41,1.11.58,1.65,1.08,3.43,1.18,6.31.71,8.58-.03.14-.06.27-.09.41-.07.26-.14.52-.22.77-.12.37-.26.72-.42,1.05-.1.22-.21.43-.33.63-.12.2-.24.39-.36.57-.06.09-.13.18-.19.27-.07.09-.14.17-.2.25-.07.08-.13.16-.21.24-.04.05-.09.08-.13.13h0c-.17.18-.35.34-.53.5-.08.06-.16.12-.23.18-.15.12-.31.22-.47.32-.31.19-.65.34-.98.45-.09.03-.17.05-.25.07-.1.04-.21.06-.32.08-.09.01-.18.03-.26.04-.22.03-.44.04-.66.03-.05,0-.11,0-.17-.01h0c-.1,0-.2-.02-.3-.04,0,0,0,0-.01,0-.1-.02-.21-.04-.31-.07-.19-.04-.37-.11-.55-.19-3.35,3.97-6.97,6.14-10.83,6.53-.3.03-.61.05-.93.06h0c-.62.01-1.25-.01-1.89-.08-.16-.02-.32-.04-.48-.07h0c-.65-.1-1.3-.26-1.92-.46-.27-.09-.54-.19-.8-.3-.27-.11-.52-.23-.78-.36-.13-.06-.26-.13-.39-.2-.25-.14-.5-.28-.74-.43-.36-.23-.72-.48-1.06-.75-.23-.18-.45-.37-.67-.56h0c-3.34-2.96-6.2-6.18-8.39-9.75-.33-.55-.66-1.11-.96-1.68-.15-.28-.3-.57-.44-.86-.1-.19-.19-.38-.28-.58-.06-.13-.12-.27-.18-.41-.07-.19-.14-.38-.22-.57-.06-.18-.12-.36-.18-.53-.06-.21-.13-.42-.18-.63-.04-.15-.08-.3-.11-.45-.04-.18-.08-.35-.11-.53,0-.01,0-.02,0-.03-.03-.18-.06-.36-.09-.53-.03-.22-.06-.44-.08-.66-.02-.14-.03-.27-.03-.41,0-.08,0-.15-.01-.23,0-.16-.01-.32-.02-.48,0-.11,0-.23,0-.34,0-.19,0-.39.01-.58.04-.9.16-1.79.38-2.67.03-.12.06-.24.09-.37.41-1.64.89-3.25,1.46-4.85.2-.57.41-1.14.63-1.7.28-.71.58-1.42.91-2.12.75-1.64,1.63-3.22,2.59-4.74.46-.73.94-1.44,1.44-2.14,1.84-2.56,3.66-5.04,5.47-7.43.14-.17.27-.35.39-.52.64-.85,1.28-1.68,1.91-2.51.47-.61.94-1.21,1.4-1.8.17-.22.33-.43.5-.64h0c.42-.54.84-1.07,1.26-1.6,1.37-1.72,2.72-3.38,4.05-4.99.1-.12.21-.24.3-.36.92-1.11,1.83-2.18,2.74-3.23.01,0,.02-.02.03-.03.43-.49.84-.97,1.27-1.45,1.26-1.43,2.51-2.8,3.74-4.12.5-.52.99-1.04,1.47-1.55.49-.51.97-1.01,1.46-1.5,0,0,.01,0,.01-.02.32-.32.63-.64.95-.96.67-.66,1.33-1.31,1.99-1.94.6-.58,1.2-1.14,1.8-1.68.31-.29.62-.57.93-.84.31-.27.62-.55.93-.82.92-.8,1.83-1.57,2.73-2.3.3-.24.6-.48.9-.71.3-.24.59-.47.89-.69.3-.22.59-.44.88-.66.21-.16.42-.31.64-.46.07-.06.15-.11.23-.17.29-.21.58-.41.87-.61.29-.2.57-.39.86-.58.29-.19.57-.38.85-.55.28-.18.56-.35.84-.52,1.5-.91,2.97-1.7,4.39-2.33.21-.09.41-.19.62-.27.49-.21.98-.4,1.46-.57.52-.19,1.03-.35,1.54-.5.22-.07.44-.13.65-.18.07-.02.14-.04.21-.06.22-.06.43-.1.64-.15.25-.06.49-.11.74-.15.2-.04.39-.07.59-.1.1-.01.19-.03.28-.04.02,0,.04,0,.07-.01.17-.02.35-.04.52-.06.23-.03.45-.04.67-.05.68-.04,1.35-.04,2.01,0,.13,0,.27.02.4.03.04,0,.09,0,.13.01.13.01.25.03.38.05.49.06.97.14,1.44.26.11.31.27.78.44,1.35,2.78,9.07,1.58,17.1.85,21.67-.37,2.33-1.01,5.45-2.16,9.09Z"/>
              <g class="cls-17">
                <path class="cls-5" d="M67.2,281.13c-1.5,1.29-2.99,2.63-4.47,4.03-.41.39-.81.77-1.22,1.16-.04.04-.08.09-.13.12-.48.46-.96.94-1.43,1.41-.48.48-.95.96-1.43,1.44-1.95,2.02-3.89,4.13-5.8,6.34-.38.45-.77.91-1.16,1.37-.53.64-1.06,1.28-1.59,1.93-.38.46-.75.93-1.12,1.41-.04.04-.07.08-.11.13-.41.53-.82,1.06-1.23,1.59-.38.49-.76,1-1.14,1.51-.09.11-.17.23-.26.34-.42.57-.84,1.15-1.25,1.72-.86,1.19-1.7,2.4-2.55,3.65-.22.32-.44.65-.65.97-.25.37-.49.74-.73,1.1-.27.41-.53.82-.79,1.23-.27.43-.55.87-.82,1.3-.28.44-.55.87-.82,1.31.27.59.51,1.17.73,1.73.22.56.41,1.1.58,1.65,1.08,3.43,1.19,6.31.71,8.58-.02.14-.06.27-.09.41-.07.27-.14.51-.22.77-.12.37-.26.72-.42,1.04-.1.22-.21.43-.33.63-.11.2-.24.39-.36.57-.06.09-.13.18-.19.26-.07.08-.13.17-.2.25-.07.08-.13.15-.21.24-.04.05-.08.09-.12.13-.58-2.33-2.15-4.41-4.36-5.29-3.13-1.24-7.22.42-8.21,3.63.6-1,1.65-1.56,2.79-1.71t.02,0c1.19-.16,2.49.14,3.46.86.54.4.98.88,1.35,1.42.54.81.9,1.75,1.09,2.73-.1,0-.2-.02-.3-.04,0,0,0,0-.01,0-.1-.02-.21-.05-.31-.07-.18-.05-.37-.11-.55-.19-3.35,3.97-6.97,6.14-10.83,6.52-.3.03-.61.05-.92.06h0c-.62.02-1.25,0-1.89-.08-.16-.02-.32-.04-.48-.06h0c-.65-.1-1.3-.26-1.92-.47-.27-.09-.55-.19-.81-.3-.27-.11-.52-.23-.78-.36-.13-.06-.26-.13-.39-.2-.25-.14-.49-.28-.74-.43-.37-.24-.72-.48-1.06-.75-.22-.18-.45-.36-.67-.55h0c-3.34-2.96-6.2-6.18-8.39-9.75-.33-.55-.66-1.11-.97-1.68-.15-.28-.3-.57-.44-.86-.1-.19-.19-.38-.27-.57-.06-.13-.12-.28-.18-.4-.07-.19-.15-.38-.22-.58-.06-.17-.12-.35-.18-.53-.07-.21-.12-.42-.18-.63-.04-.15-.08-.3-.11-.46-.04-.18-.08-.36-.11-.53,0-.01,0-.02,0-.03-.04-.18-.06-.36-.09-.53-.03-.22-.06-.44-.08-.66-.02-.14-.03-.27-.03-.41,0-.08-.01-.15-.02-.23,0-.16-.01-.32-.02-.49,0-.11,0-.23,0-.34,0-.19,0-.39,0-.58.04-.9.17-1.79.39-2.67.03-.12.06-.24.09-.37.74,2.07,1.72,4.04,2.93,5.88,2.85,4.36,8.13,8.18,12.97,6.26,2.59-1.02,4.32-3.4,5.95-5.65,5.72-7.88,12.34-15.09,17.85-23.11,12.9-18.81,17.97-25.88,24.33-25.45,1.35.09,2.55.51,3.25.61-.38,2.28-1.01,5.26-2.09,8.69Z"/>
              </g>
              <path class="cls-5" d="M67.71,250.49c-8.48-1.94-18.12,5.06-24.93,10.94-2.28,1.97-4.47,4.09-6.62,6.25l.42-.81c-.05.36-.33.79-.63.99l.2-.17c-3.84,3.94-7.11,7.61-9.92,10.95-4.02,4.81-7.98,9.76-11.68,14.82-3.33,4.55-6.95,9.02-8.95,14.31-.75,1.9-1.4,3.84-1.92,5.82-.39,1.38-.67,2.83-.61,4.27.03.65.08,1.39.2,2.03,0,0-.25-.59-.25-.59.22.29.33.8.26,1.16v-.55c.37,2.18,1.56,4.28,2.76,6.19,2.13,3.35,4.81,6.28,7.81,8.93l-.75-.36c.91.24,1.57,1.16,2.46,1.62,1.48.9,3.18,1.5,4.93,1.53l1.04.05h.2c3.49-.06,7.62-2.5,10.45-6.05.39-.46,1-.63,1.54-.48.34.07.61.23.97.25,0,0-1.67,1.25-1.67,1.25h0s1.76-1.24,1.76-1.24c-.05,0-.14-.04-.17,0,0,0,0,0,.01,0,.24-.05.49-.02.73-.07.75-.14,1.42-.62,1.94-1.15,0,0-.41.8-.41.8h0c.05-.31.19-.59.4-.79,3.02-3.4,2.13-8.72.64-12.69-.28-1.06-1.4-2.26-.71-3.33,5.16-7.84,10.85-15.38,17.41-22.1,3.68-4.01,8.09-8.03,12.28-11.53.2-.17.5-.15.67.05.17.2.15.49-.05.66-8.17,7.48-15.58,15.99-21.79,25.15-2.07,3.07-4.06,6.18-5.93,9.36,0,0,.08-1.44.08-1.44.61,1.39,1.18,2.79,1.6,4.26,1.28,4.52,1.44,9.98-2,13.7,0,0,.4-.79.4-.79-.04.63-.67,1.02-1.06,1.41-1.53,1.26-3.21,1.63-4.56,1.47,0,0,1.76-1.24,1.76-1.24-.21,1.2-1.45,1.48-2.48,1.11-.27-.08-.54-.18-.81-.27l1.77-.41c-3.19,3.85-7.9,7.2-13.16,7.11,0,0-.03,0-.03,0h0s.31.02.31.02l-1.34-.05c-3.15-.09-6.11-1.5-8.48-3.56l.77.38c-.29-.05-.55-.18-.75-.36-3.16-2.79-6.07-5.99-8.36-9.58-1.4-2.24-2.71-4.61-3.18-7.25,0,0,0-.55,0-.55-.08.34.03.83.25,1.1-.3-.56-.37-1.24-.43-1.86-.04-.33-.07-.99-.08-1.32-.05-.58.08-2.44.32-3.46.11-.47.27-1.14.4-1.61,1.25-4.71,3.11-9.33,5.79-13.42,2.36-3.51,4.99-6.91,7.47-10.29,6.78-8.85,12.52-15.87,19.99-23.55,0,0,.2-.17.2-.17-.3.19-.56.61-.61.96l.42-.81c2.19-2.19,4.41-4.35,6.78-6.4,7.35-6.48,17.55-13.2,26.15-11.87,0,0,.5.09.5.09l1,.19c2.07.49,1.34,3.47-.73,2.95h0Z"/>
              <path class="cls-5" d="M31.61,332.4c.59-1.56.34-3.49-1.62-3.51-2.11.07-4.02,1.99-5.38,3.6-.17.2-.48.22-.68.05-.18-.16-.22-.42-.1-.61.65-1.08,1.32-2.18,2.27-3.12,2.06-2.36,6.07-3.42,8.12-.29,1.01,1.51,1.11,3.28.83,4.82-.55,2.53-4.25,1.52-3.43-.94h0Z"/>
              <path class="cls-5" d="M46.39,304.85c-.44,0-.86-.23-1.1-.63-5.5-9.46-15.74-16.17-26.72-17.51-.7-.08-1.19-.72-1.11-1.41.08-.7.71-1.19,1.41-1.11,11.76,1.43,22.72,8.62,28.61,18.76.35.61.15,1.38-.46,1.73-.2.12-.42.17-.64.17Z"/>
            </g>
            <g>
              <g>
                <path class="cls-10" d="M149.78,216.74c-3.12,9.75-8.72,18.78-16.62,26.08-1.61,1.49-3.31,2.91-5.1,4.24-.87.65-1.77,1.28-2.69,1.9-2.78,1.85-5.65,3.45-8.6,4.8-2.54,1.17-5.14,2.16-7.76,2.96-3.17.98-6.39,1.68-9.63,2.14-1.18.16-2.36.29-3.55.39-21.65,1.78-43.61-7.7-56.65-26.69-19.21-27.98-11.75-66.01,16.64-84.94,5.47-3.64,11.32-6.32,17.34-8.05.7-.21,1.41-.4,2.12-.57,1.9-.48,3.82-.87,5.74-1.16,4.45-.68,8.94-.87,13.38-.6,4.44.27,8.84,1.01,13.12,2.2,1.36.38,2.71.8,4.04,1.27,2,.71,3.96,1.51,5.89,2.43,9.61,4.53,18.16,11.55,24.55,20.88,11.05,16.1,13.27,35.51,7.77,52.71Z"/>
                <path class="cls-5" d="M90.66,259.65c-20.56,0-39.99-10.04-51.61-26.98-9.28-13.52-12.68-29.79-9.59-45.82,3.12-16.16,12.45-30.13,26.27-39.35,5.39-3.59,11.24-6.31,17.38-8.07.67-.2,1.36-.39,2.13-.57,1.9-.48,3.84-.87,5.76-1.16,4.42-.68,8.93-.88,13.42-.6,4.44.27,8.87,1.01,13.15,2.21,1.38.38,2.74.81,4.05,1.28,2.04.72,4.03,1.54,5.91,2.43,9.92,4.67,18.43,11.91,24.62,20.93,10.71,15.6,13.55,34.86,7.79,52.86h0c-3.19,9.97-8.95,19.02-16.66,26.15-1.63,1.51-3.35,2.94-5.12,4.25-.8.6-1.69,1.23-2.7,1.91-2.75,1.83-5.65,3.45-8.63,4.82-2.49,1.15-5.11,2.15-7.78,2.97-3.12.96-6.37,1.68-9.65,2.15-1.18.16-2.38.29-3.56.39-1.74.14-3.47.21-5.19.21ZM90.52,137.3c-3.17,0-6.34.24-9.46.72-1.91.29-3.84.68-5.73,1.16-.76.19-1.45.37-2.12.57-6.11,1.76-11.93,4.46-17.29,8.03-13.75,9.17-23.03,23.06-26.13,39.14-3.08,15.94.31,32.12,9.54,45.56,12.53,18.26,34.17,28.46,56.5,26.62,1.17-.1,2.36-.23,3.54-.39,3.26-.46,6.49-1.18,9.6-2.13,2.66-.82,5.26-1.81,7.74-2.95,2.96-1.36,5.85-2.97,8.58-4.79,1-.68,1.88-1.3,2.68-1.9,1.75-1.3,3.46-2.73,5.09-4.23,7.67-7.1,13.4-16.09,16.57-26.01l.16.05-.16-.05c5.72-17.89,2.9-37.05-7.75-52.56-6.16-8.97-14.63-16.17-24.49-20.82-1.87-.89-3.84-1.7-5.88-2.42-1.3-.46-2.66-.89-4.03-1.27-4.26-1.19-8.66-1.93-13.08-2.2-1.29-.08-2.59-.12-3.88-.12Z"/>
              </g>
              <g class="cls-15">
                <path class="cls-5" d="M39.19,232.57c13.03,19,35,28.48,56.65,26.69,1.18-.1,2.36-.23,3.54-.39,3.24-.45,6.46-1.17,9.63-2.14,2.62-.81,5.22-1.79,7.76-2.96,2.95-1.35,5.83-2.95,8.61-4.8.92-.62,1.82-1.25,2.69-1.9,1.79-1.34,3.49-2.76,5.1-4.24,7.89-7.31,13.5-16.33,16.62-26.08,1.71-5.36,2.68-10.93,2.86-16.56-3.19,9.24-8.64,17.77-16.17,24.74-1.61,1.49-3.31,2.91-5.1,4.24-.87.65-1.77,1.28-2.69,1.9-2.78,1.85-5.66,3.45-8.6,4.8-2.54,1.17-5.14,2.15-7.76,2.96-3.17.97-6.39,1.68-9.63,2.14-1.18.16-2.36.29-3.55.39-21.65,1.79-43.61-7.69-56.65-26.69-7.61-11.08-11.03-23.74-10.63-36.16-6.07,17.53-4.02,37.54,7.32,54.06Z"/>
              </g>
              <path class="cls-5" d="M90.66,260.78c-20.93,0-40.71-10.22-52.54-27.47-9.45-13.77-12.92-30.34-9.77-46.67,3.18-16.46,12.68-30.69,26.75-40.08,5.49-3.66,11.45-6.42,17.7-8.22.67-.2,1.39-.39,2.17-.59,1.92-.48,3.9-.88,5.86-1.18,4.5-.69,9.09-.89,13.66-.61,4.52.27,9.02,1.03,13.39,2.25,1.4.39,2.79.83,4.12,1.3,2.08.74,4.1,1.57,6.01,2.48,10.09,4.76,18.76,12.13,25.07,21.32,10.91,15.89,13.8,35.51,7.94,53.84h0c-3.25,10.16-9.12,19.37-16.97,26.64-1.66,1.54-3.42,2.99-5.21,4.33-.82.61-1.71,1.25-2.74,1.94-2.8,1.87-5.76,3.52-8.79,4.91-2.54,1.17-5.2,2.19-7.92,3.02-3.18.98-6.49,1.71-9.83,2.18-1.2.17-2.42.3-3.62.4-1.77.15-3.53.22-5.28.22ZM90.52,138.43c-3.12,0-6.23.24-9.29.71-1.88.29-3.77.67-5.62,1.14-.75.18-1.43.37-2.07.56-6.01,1.73-11.72,4.38-16.99,7.89-13.49,9-22.6,22.64-25.64,38.41-3.02,15.64.31,31.52,9.36,44.71,12.3,17.93,33.56,27.94,55.47,26.13,1.15-.1,2.32-.23,3.48-.39,3.2-.45,6.37-1.16,9.42-2.09,2.61-.8,5.17-1.78,7.6-2.9,2.91-1.33,5.75-2.92,8.43-4.7.98-.66,1.85-1.27,2.63-1.86,1.72-1.28,3.4-2.68,5-4.15,7.52-6.96,13.15-15.79,16.26-25.52h0c5.62-17.56,2.84-36.35-7.61-51.58-6.04-8.81-14.36-15.88-24.04-20.44-1.84-.87-3.78-1.67-5.77-2.38-1.28-.45-2.61-.87-3.95-1.25-4.19-1.17-8.51-1.9-12.85-2.16-1.27-.08-2.54-.12-3.81-.12ZM149.78,216.74h0,0Z"/>
              <path class="cls-5" d="M90.66,261.16c-21.06,0-40.95-10.28-52.86-27.63-9.51-13.85-13-30.53-9.83-46.96,3.2-16.56,12.75-30.88,26.92-40.32,5.52-3.68,11.51-6.46,17.8-8.27.68-.2,1.4-.4,2.19-.59,1.93-.49,3.92-.89,5.89-1.19,4.52-.69,9.14-.9,13.74-.62,4.55.28,9.08,1.04,13.46,2.26,1.41.39,2.8.83,4.15,1.31,2.09.74,4.13,1.58,6.05,2.49,10.15,4.78,18.87,12.2,25.22,21.44,10.97,15.99,13.88,35.73,7.99,54.17h0c-3.27,10.22-9.17,19.49-17.07,26.8-1.67,1.55-3.44,3.01-5.24,4.35-.82.62-1.72,1.25-2.75,1.95-2.82,1.88-5.79,3.54-8.84,4.94-2.55,1.18-5.23,2.2-7.97,3.04-3.2.98-6.53,1.72-9.89,2.2-1.21.17-2.43.3-3.64.4-1.78.15-3.55.22-5.32.22ZM90.52,138.81c-3.1,0-6.19.23-9.24.7-1.87.29-3.75.67-5.59,1.13-.75.18-1.42.36-2.06.55-5.97,1.72-11.65,4.35-16.89,7.84-13.41,8.94-22.46,22.49-25.48,38.17-3,15.54.3,31.32,9.3,44.43,12.22,17.81,33.35,27.77,55.13,25.97,1.14-.1,2.31-.23,3.45-.38,3.18-.45,6.33-1.15,9.36-2.08,2.59-.8,5.13-1.77,7.55-2.88,2.89-1.33,5.71-2.9,8.38-4.68.98-.66,1.83-1.27,2.62-1.85,1.71-1.28,3.38-2.66,4.97-4.13,7.48-6.92,13.06-15.69,16.16-25.36h0c5.58-17.44,2.83-36.12-7.56-51.25-6.01-8.75-14.27-15.78-23.89-20.31-1.82-.87-3.75-1.66-5.74-2.36-1.27-.45-2.59-.87-3.93-1.24-4.16-1.16-8.46-1.88-12.77-2.15-1.26-.08-2.53-.12-3.79-.12ZM149.78,216.74h0,0Z"/>
              <path class="cls-5" d="M143.09,230.96c-30.88,31.39-82.88,23.12-93.77-18.83-7.41-28.54,15.23-57.72,43.5-62.98,20.57-3.83,42.36,1.31,57.11,31.15,0,0,4.46,14.21,2.36,24.63-2.1,10.42-5.92,20.21-5.92,20.21l-3.29,5.81Z"/>
              <path class="cls-4" d="M49.32,212.13c10.89,41.95,62.89,50.22,93.77,18.83l.66-1.18c-37.93,14.4-81.62-1.32-93.43-43.53-2.72,8.2-3.29,17.07-1.01,25.88Z"/>
              <path class="cls-5" d="M98.82,257.87c-10.92,0-21.54-2.69-30.67-7.93-13.39-7.69-22.63-20.07-26.71-35.8-3.75-14.45-1.04-29.91,7.63-43.55,9.63-15.14,25.52-26.06,42.52-29.23,9.44-1.76,18.27-1.68,26.24.23l.16.04.15.07c10.15,4.78,18.86,12.19,25.19,21.42,10.96,15.97,13.87,35.69,7.98,54.1h0c-3.27,10.21-9.16,19.47-17.05,26.77-1.67,1.55-3.43,3.01-5.23,4.35-.82.61-1.72,1.25-2.75,1.95-2.82,1.88-5.79,3.54-8.83,4.93l-.23.09c-6.08,1.71-12.28,2.55-18.39,2.55ZM104.7,143.31c-4.01,0-8.2.4-12.53,1.21-16.14,3-31.24,13.39-40.4,27.79-8.19,12.87-10.75,27.44-7.23,41.02,3.86,14.87,12.58,26.57,25.2,33.82,13.45,7.73,30.38,9.59,46.46,5.11,2.85-1.32,5.63-2.87,8.27-4.63.98-.66,1.84-1.27,2.62-1.85,1.71-1.28,3.39-2.67,4.97-4.13,7.48-6.93,13.08-15.71,16.18-25.39h0c5.59-17.46,2.83-36.17-7.57-51.31-5.98-8.72-14.2-15.72-23.77-20.26-3.86-.91-7.94-1.37-12.22-1.37ZM149.78,216.74h0,0Z"/>
              <path class="cls-10" d="M21.78,214.64c1.58,11.96,10.08,21.07,18.98,20.34,8.9-.73,14.83-11.02,13.24-22.99,0-.08-.02-.15-.03-.23-1.66-11.85-10.11-20.84-18.94-20.11-6.87.56-11.97,6.84-13.21,15.17-.36,2.46-.39,5.09-.03,7.81Z"/>
              <g class="cls-15">
                <path class="cls-5" d="M21.78,214.64c1.58,11.96,10.08,21.07,18.98,20.34,8.9-.73,14.83-11.02,13.24-22.99,0-.08-.02-.15-.03-.23-.82,1.31-2.18,2.64-4.29,2.4-3.71-.42-11.21-7.58-11.21-7.58,0,0-7.22.06-16.65.24-.36,2.46-.39,5.09-.03,7.81Z"/>
              </g>
              <path class="cls-5" d="M39.77,236.7c-9.34,0-18.02-9.51-19.65-21.83h0c-.98-7.39.69-14.41,4.59-19.24,2.71-3.37,6.23-5.32,10.18-5.64,9.75-.8,19.08,8.97,20.78,21.79.98,7.39-.69,14.41-4.59,19.24-2.71,3.37-6.23,5.32-10.18,5.64-.38.03-.75.05-1.12.05ZM23.44,214.42c1.47,11.07,9.18,19.55,17.18,18.89,3.01-.25,5.72-1.77,7.84-4.4,3.27-4.06,4.72-10.3,3.87-16.69-1.47-11.07-9.18-19.55-17.18-18.89-3.01.25-5.72,1.77-7.84,4.4-3.27,4.06-4.72,10.3-3.87,16.69h0Z"/>
              <g>
                <path class="cls-10" d="M21.85,223.5c4.11,8.48,12.42,11.9,18.56,7.64,6.14-4.26,7.79-14.59,3.68-23.07-4.11-8.48-12.42-11.9-18.56-7.64-6.14,4.26-7.79,14.59-3.68,23.07Z"/>
                <path class="cls-5" d="M34.66,233.15c-.92,0-1.86-.12-2.81-.37-4.15-1.09-7.85-4.44-10.16-9.2h0c-4.14-8.54-2.46-18.99,3.74-23.29,2.58-1.79,5.57-2.31,8.66-1.5,4.15,1.09,7.85,4.44,10.16,9.2,4.14,8.54,2.46,18.99-3.74,23.29-1.79,1.24-3.78,1.87-5.85,1.87ZM31.29,198.77c-2.01,0-3.93.61-5.66,1.81-6.06,4.21-7.69,14.46-3.62,22.85h0c2.26,4.67,5.88,7.96,9.93,9.02,2.98.78,5.88.28,8.37-1.45,6.06-4.21,7.69-14.46,3.62-22.85-2.26-4.67-5.88-7.96-9.93-9.02-.92-.24-1.82-.36-2.71-.36Z"/>
              </g>
              <g class="cls-15">
                <path class="cls-5" d="M46.25,221.5c.39-3.27-.13-6.65-1.33-9.74-1.52,7.38-7.66,11.09-14.26,8.37-4.27-1.76-7.75-5.81-9.6-10.59-.1.46-.17.95-.23,1.44-.98,8.32,3.91,17.42,10.93,20.32,7.02,2.9,13.51-1.49,14.49-9.81Z"/>
              </g>
              <path class="cls-5" d="M34.64,234.7c-7.31,0-14.23-7.97-15.63-18.22h0c-.86-6.28.52-12.35,3.67-16.25,2.05-2.53,4.69-3.99,7.63-4.21,7.56-.56,14.92,7.6,16.37,18.19.86,6.28-.52,12.35-3.67,16.25-2.05,2.53-4.69,3.99-7.63,4.21-.25.02-.5.03-.74.03ZM22.33,216.03c1.21,8.87,6.97,15.74,12.8,15.3,2-.15,3.82-1.18,5.27-2.97,2.58-3.19,3.69-8.31,2.95-13.69-1.21-8.87-6.96-15.74-12.8-15.3-2,.15-3.82,1.18-5.27,2.97-2.58,3.19-3.69,8.31-2.95,13.69h0Z"/>
              <g class="cls-12">
                <path class="cls-10" d="M81.13,166.29s26.1-3.17,43.08,8.82c.02.01.04.03.05.04,3.57,2.53,6.39,5.96,8.17,9.92,2.36,5.24,3.21,9.19,3.82,12.69,1.86,10.66.7,16,.7,16,5.17-6.67,7.53-13.66,6.07-22.55-.15-.88-.33-1.78-.55-2.69-.05-.21-.1-.42-.16-.63,0,0,0,0,0-.01-.57-1.83-1.42-4.2-2.6-6.79-3.55-7.83-10.13-17.72-21.42-20.92-21.11-5.98-38.25,5.16-37.17,6.13Z"/>
              </g>
              <g class="cls-12">
                <ellipse class="cls-10" cx="68.51" cy="197.35" rx="9.53" ry="8.3" transform="translate(-134.76 245.52) rotate(-84.19)"/>
              </g>
              <g class="cls-12">
                <ellipse class="cls-10" cx="66.9" cy="214.58" rx="3.94" ry="3.42" transform="translate(-156.56 238.75) rotate(-78.86)"/>
              </g>
            </g>
          </g>
        </g>
      </g>
      <g>
        <g>
          <g>
            <path class="cls-10" d="M309.31,154.14l4.93,4.95c1.07,1.08,2.78,1.23,4.01.34,6.13-4.4,12.08-9.71,17.9-15.77,1.07-1.11,1.56-2.66,1.32-4.19l-1.44-9.16-26.73,23.82Z"/>
            <g class="cls-17">
              <path class="cls-5" d="M309.31,154.14l4.93,4.95c1.07,1.08,2.78,1.23,4.01.34,6.13-4.4,12.08-9.71,17.9-15.77,1.07-1.11,1.56-2.66,1.32-4.19l-1.44-9.16-26.73,23.82Z"/>
            </g>
            <path class="cls-5" d="M316.45,161.38c-1.16,0-2.3-.45-3.18-1.33l-4.93-4.96c-.27-.27-.41-.63-.4-1.01.01-.38.18-.73.46-.98l26.73-23.82c.37-.33.9-.43,1.37-.27.47.17.81.58.89,1.08l1.43,9.16c.3,1.93-.33,3.94-1.69,5.35-6.04,6.29-12.13,11.65-18.09,15.93-.79.57-1.7.84-2.61.84ZM311.31,154.2l3.91,3.93c.61.61,1.55.69,2.24.19,5.83-4.18,11.79-9.43,17.71-15.6.77-.8,1.13-1.94.96-3.03l-1.05-6.68-23.78,21.19Z"/>
          </g>
          <g>
            <path class="cls-10" d="M371.41,116.77c-7.79,5.55-16.89,6.43-26.7,4.75-19.89,25.13-43.22,44.96-61.09,50.58l22.24-109.61c4.23-4.1,8.32-8.66,12.33-13.48l-3.9-.47c-1.7-.09-3.32-.37-4.83-.82-2.79-.84-5.26-2.29-7.39-4.36-2.84-2.74-4.72-6.33-5.57-10.18l-4.51-20.49c-.74-3.33.47-6.69,2.92-8.81.84-.72,1.82-1.3,2.92-1.68,1.67-.58,3.42-.85,5.18-.82,7.69.09,15.59,5.71,18.26,15.18,6.86-.04,15.6,1.89,23.88,6.37,15.25,10.22,9.86,32.53,3.66,52.85,2.69,1.28,5.25,3.25,7.69,5.8,2.61-6.1,4.28-12.3,5.39-18.56.38-2.17,1.35-4.22,2.89-5.8,8.64-8.9,24.5-7.75,39.13.64,2.34,1.34,3.81,3.84,3.7,6.53-.42,10.38-9.84,17.36-20.02,18.39-.99,5.42-2.19,10.6-3.73,15.39-.47,1.46-.97,2.88-1.51,4.26-2.23,5.72-5.93,10.81-10.93,14.37Z"/>
            <g class="cls-17">
              <path class="cls-5" d="M371.41,116.77c-7.79,5.55-16.89,6.43-26.7,4.75-19.89,25.13-43.22,44.96-61.09,50.58l22.24-109.61c4.23-4.1,8.32-8.66,12.33-13.48l-3.9-.47c-1.7-.09-3.32-.37-4.83-.82-2.79-.84-5.26-2.29-7.39-4.36-2.84-2.74-4.72-6.33-5.57-10.18l-4.51-20.49c-.74-3.33.47-6.69,2.92-8.81.84-.72,1.82-1.3,2.92-1.68,1.67-.58,3.42-.85,5.18-.82-1.24,4.56.06,9.38,1.35,13.93,2.2,7.75,5.14,16.39,12.44,19.8,3.65,1.7,7.82,1.77,11.79,2.47,3.97.7,8.18,2.39,9.98,6,1.66,3.33.79,7.36-.69,10.77s-3.53,6.63-4.26,10.27c-3.78-.35-8.81,1.34-8.56,5.13.2,3.06,3.88,4.62,6.94,4.59,3.06-.03,6.24-.93,9.11.13-4.33,1.57-6.41,6.83-5.78,11.39.63,4.56,3.34,8.55,6.15,12.21,2.04,2.66,4.21,5.27,6.89,7.27,6.98,5.18,16.93,5.4,24.75,1.6,4.21-2.04,7.82-5.12,10.74-8.79-.47,1.46-.97,2.88-1.51,4.26-2.23,5.72-5.93,10.81-10.93,14.37Z"/>
            </g>
            <path class="cls-5" d="M283.61,173.47c-.33,0-.66-.12-.92-.35-.36-.32-.52-.82-.43-1.29l22.24-109.61c.05-.27.19-.52.39-.71,3.39-3.29,6.87-7.04,10.6-11.44l-1.34-.16c-1.8-.1-3.52-.4-5.11-.88-2.98-.9-5.66-2.47-7.95-4.68-2.96-2.85-5.02-6.61-5.96-10.87l-4.51-20.49c-.83-3.74.46-7.63,3.36-10.14,1-.86,2.14-1.51,3.37-1.94,4.46-1.55,9.62-1.07,14.16,1.3,5.01,2.61,8.88,7.31,10.74,12.99,7.58.15,16.09,2.51,23.52,6.52.04.02.07.04.11.07,15.66,10.49,10.71,32.86,4.54,53.29,1.87,1.02,3.73,2.39,5.56,4.09,1.98-5.01,3.46-10.39,4.53-16.4.45-2.53,1.58-4.79,3.26-6.52,8.71-8.97,24.73-8.81,40.8.41,2.83,1.62,4.51,4.6,4.38,7.77-.46,11.19-10.35,18.19-20.23,19.57-1.41,7.46-3.09,13.65-5.13,18.9-2.41,6.21-6.36,11.39-11.41,14.99h0c-7.23,5.15-16.04,6.83-26.92,5.12-20.43,25.65-43.85,44.93-61.25,50.4-.13.04-.27.06-.41.06ZM307.12,63.17l-21.68,106.85c16.81-6.25,38.85-24.89,58.2-49.35.31-.39.81-.59,1.31-.5,10.5,1.79,18.9.32,25.67-4.52,0,0,0,0,0,0,4.62-3.29,8.23-8.04,10.45-13.75,2.07-5.32,3.76-11.66,5.17-19.39.11-.6.6-1.06,1.21-1.12,9.03-.91,18.38-7.07,18.79-17.08.09-2.15-1.07-4.17-3.01-5.28-14.95-8.58-29.65-8.92-37.47-.88-1.3,1.34-2.17,3.09-2.53,5.09-1.24,6.97-3.03,13.14-5.48,18.86-.18.42-.56.73-1.01.81-.45.08-.91-.07-1.23-.4-2.4-2.5-4.86-4.36-7.29-5.51-.61-.29-.92-.99-.72-1.64,6.3-20.65,11.26-41.62-3.06-51.27-7.28-3.93-15.63-6.17-22.95-6.17-.08,0-.15,0-.23,0-.61,0-1.15-.41-1.32-1-1.52-5.4-5.05-9.88-9.68-12.3-3.93-2.05-8.19-2.45-12-1.13-.91.31-1.74.79-2.48,1.42-2.13,1.85-3.08,4.71-2.47,7.47l4.51,20.49c.82,3.73,2.62,7.01,5.19,9.49,1.97,1.91,4.27,3.26,6.84,4.03,1.4.42,2.91.68,4.51.77.03,0,.06,0,.09,0l3.9.47c.5.06.92.39,1.11.85.18.47.1,1-.22,1.38-4.31,5.18-8.27,9.53-12.12,13.29Z"/>
            <path class="cls-5" d="M321.23,12.54c1.44,4.47,1.85,9.14,1.49,13.66-.02.21-.2.37-.41.35-.2-.02-.34-.17-.36-.36-.66-4.4-1.82-8.64-3.32-12.8-.53-1.73,2-2.56,2.6-.85h0Z"/>
            <path class="cls-5" d="M332.46,74.7c6.97-2.26,15.09-1.24,20.87,3.43,5.61,4.56,10.42,10.83,11.1,18.25.02.27-.17.5-.44.52-.27.02-.5-.18-.53-.44-.32-1.73-.81-3.4-1.52-4.97-2.11-4.72-5.76-8.7-9.75-11.89-5.55-4.23-12.59-4.95-19.43-3.91-.64.18-.96-.77-.3-.99h0Z"/>
            <path class="cls-5" d="M305.92,60.51c8.38-6.87,21.51-3.34,28.5,3.89.41.44-.19,1.12-.68.75-5.64-4.19-13.05-6.44-19.99-5.17-.48.05-1.18.29-1.64.4-1.6.47-3.08,1.28-4.44,2.24-1.47,1.14-3.17-.92-1.74-2.11h0Z"/>
            <path class="cls-5" d="M372.08,117.64c-.18,0-.37-.04-.55-.12-.69-.31-1.01-1.11-.7-1.81,5.58-12.65-5.34-27.23-14.87-33.54-.63-.42-.8-1.27-.39-1.9.42-.63,1.27-.8,1.9-.39,10.33,6.84,22.09,22.82,15.87,36.93-.23.51-.73.82-1.25.82Z"/>
            <path class="cls-5" d="M386.23,82.5c.68-4.61-4.39-10.96-8.95-11.87-.44-.07-.35-.75.09-.71,5.53.5,12.03,7.31,11.56,13.07-.27,1.94-3.13,1.41-2.7-.5h0Z"/>
            <path class="cls-5" d="M348.56,123.42c-3.57-.43-7.15-1.66-10.01-3.85-.19-.15-.23-.42-.09-.62.12-.16.33-.21.51-.15,1.59.59,3.2,1.04,4.86,1.32,1.69.28,3.36.39,5.06.58,1.79.26,1.47,2.89-.33,2.71h0Z"/>
            <path class="cls-5" d="M329.81,52.45c-4,0-8.09-.7-12.1-2.16-.71-.26-1.08-1.04-.82-1.76.26-.71,1.05-1.08,1.76-.82,13.06,4.74,27.08.82,34.88-9.76.45-.61,1.3-.74,1.92-.29.61.45.74,1.31.29,1.92-6.12,8.31-15.73,12.87-25.92,12.87Z"/>
            <path class="cls-2" d="M309.46,47.71c-2.79-.84-5.26-2.29-7.39-4.36-2.84-2.74-4.72-6.33-5.57-10.18l-4.51-20.49c-.52-2.36-.07-4.75,1.12-6.69.99-1.61,3.13-1.96,4.59-.76,3.81,3.13,7.92,11.31,10.37,21.39,2.04,8.38,2.44,16.12,1.4,21.09Z"/>
            <path class="cls-5" d="M309.46,49.08c-.13,0-.26-.02-.39-.06-2.99-.9-5.66-2.47-7.95-4.69-2.96-2.85-5.02-6.61-5.96-10.87l-4.51-20.49c-.59-2.65-.13-5.38,1.29-7.7.68-1.1,1.79-1.86,3.05-2.07,1.27-.21,2.57.14,3.58.96,4.2,3.46,8.35,11.94,10.83,22.13,2,8.23,2.53,16.34,1.41,21.69-.08.38-.31.7-.64.9-.21.13-.46.19-.7.19ZM295.72,5.88c-.09,0-.19,0-.29.02-.49.08-.9.37-1.17.8-1.04,1.71-1.38,3.72-.95,5.67l4.51,20.49c.82,3.73,2.62,7.01,5.19,9.49,1.59,1.53,3.39,2.71,5.36,3.51.66-4.94.07-11.86-1.66-18.94-2.31-9.5-6.2-17.6-9.91-20.66-.32-.26-.7-.4-1.1-.4Z"/>
            <path class="cls-5" d="M303.69,15.12s-.08,0-.13,0l-11.7-1.29c-.63-.07-1.08-.63-1.01-1.26.07-.63.63-1.08,1.26-1.01l11.7,1.29c.63.07,1.08.63,1.01,1.26-.06.58-.56,1.02-1.13,1.02Z"/>
            <path class="cls-5" d="M306.83,23.31s-.09,0-.14,0l-13.12-1.62c-.63-.08-1.07-.65-.99-1.27.08-.63.65-1.07,1.27-.99l13.12,1.62c.63.08,1.07.65.99,1.27-.07.58-.56,1-1.13,1Z"/>
            <path class="cls-5" d="M308.87,31.54s-.09,0-.13,0l-13.33-1.53c-.63-.07-1.08-.64-1-1.26.07-.63.64-1.07,1.26-1l13.33,1.53c.63.07,1.08.64,1,1.26-.07.58-.56,1.01-1.13,1.01Z"/>
            <path class="cls-5" d="M309.94,40.16c-.05,0-.11,0-.17-.01l-12.11-1.77c-.62-.09-1.06-.67-.96-1.3.09-.62.67-1.06,1.29-.96l12.11,1.77c.62.09,1.06.67.96,1.3-.08.57-.57.98-1.13.98Z"/>
          </g>
        </g>
        <g>
          <g>
            <rect class="cls-10" x="264.14" y="75.57" width="7.04" height="11.86" rx="3.52" ry="3.52" transform="translate(405.81 324.81) rotate(-136.52)"/>
            <g class="cls-17">
              <path class="cls-5" d="M265.51,80.99l2.24,2.12c.79.75.83,2.01.07,2.8l-1.38,1.46c.39-.08.76-.27,1.06-.58l5.44-5.73c.75-.79.72-2.05-.07-2.8l-2.24-2.12c-.79-.75-2.05-.72-2.8.07l-4.06,4.28c.61-.12,1.26.04,1.74.5Z"/>
            </g>
            <path class="cls-5" d="M266.06,88.34c-.75,0-1.45-.28-2-.8l-2.24-2.12c-1.16-1.1-1.21-2.95-.11-4.11l5.44-5.73c.53-.56,1.26-.88,2.03-.91.78-.02,1.51.26,2.08.8l2.24,2.12c1.16,1.1,1.21,2.95.11,4.11l-5.44,5.73c-.53.56-1.26.88-2.03.91-.03,0-.05,0-.08,0ZM269.26,76.52s-.02,0-.03,0c-.28,0-.54.12-.74.33l-5.44,5.73c-.4.42-.38,1.09.04,1.49l2.24,2.12c.2.19.47.29.75.29.28,0,.54-.12.74-.33l5.44-5.73c.4-.42.38-1.09-.04-1.49l-2.24-2.12h0c-.2-.19-.45-.29-.72-.29Z"/>
          </g>
          <path class="cls-10" d="M335.15,105.13l-6.52,6.87-31.75,33.48c-4.01,4.23-10.69,4.41-14.92.4l-8.6-8.15-.03-.03-24.75-23.47c-2.55-2.49-2.89-6.41-.96-9.29.22-.34.48-.66.77-.97l34.48-36.37,8.24-8.69c.17-.18.35-.35.54-.51,2.81-2.42,7.06-2.37,9.81.24l24.66,23.38,8.64,8.19c4.23,4.01,4.41,10.69.4,14.92Z"/>
          <path class="cls-5" d="M289.22,150.15c-2.95,0-5.9-1.08-8.2-3.27l-33.29-31.57c-3.48-3.3-3.62-8.8-.33-12.28h0l42.72-45.06c1.6-1.68,3.75-2.64,6.07-2.71,2.34-.06,4.52.78,6.21,2.38l33.29,31.57c4.77,4.52,4.97,12.09.45,16.86l-38.26,40.35c-2.34,2.47-5.5,3.71-8.66,3.71ZM249.39,104.92c-2.26,2.38-2.16,6.15.22,8.41l33.29,31.57c3.68,3.48,9.5,3.33,12.99-.35l38.26-40.35c3.49-3.68,3.33-9.5-.35-12.99l-33.29-31.57c-1.15-1.09-2.67-1.67-4.25-1.63-1.59.04-3.06.7-4.16,1.85l-42.72,45.06Z"/>
          <path class="cls-10" d="M326.4,97.93l-11.8,12.45-25.38,26.76c-4.3,4.54-11.39,4.8-15.86.59l-.03-.03-24.75-23.47c-2.58-2.45-2.92-6.39-.96-9.29.22-.34.48-.66.77-.97l34.48-36.37,8.24-8.69c.17-.18.35-.35.54-.51,2.8-2.42,7.02-2.41,9.72.15l.09.09,24.66,23.38c4.47,4.24,4.6,11.36.29,15.9Z"/>
          <path class="cls-5" d="M280.93,142.09c-3.2,0-6.22-1.2-8.54-3.4l-24.75-23.47c-3.42-3.25-3.53-8.72-.24-12.19h0l42.72-45.06c1.59-1.68,3.74-2.65,6.03-2.73,2.31-.09,4.49.74,6.15,2.32l24.75,23.47c2.43,2.3,3.8,5.43,3.86,8.81.06,3.36-1.19,6.57-3.53,9.04l-37.18,39.21c-2.33,2.46-5.47,3.88-8.84,4-.15,0-.31,0-.46,0ZM249.39,104.92c-2.26,2.38-2.2,6.11.13,8.32l24.75,23.47c1.89,1.79,4.39,2.73,7.02,2.64,2.64-.09,5.11-1.21,6.94-3.15l37.18-39.21c1.84-1.94,2.82-4.46,2.78-7.1-.05-2.63-1.12-5.07-3.01-6.87l-24.75-23.47c-1.12-1.07-2.6-1.62-4.17-1.57-1.58.06-3.05.72-4.14,1.88l-42.72,45.06Z"/>
          <path class="cls-5" d="M303.35,123.17c-.24,0-.46-.09-.64-.25l-38.06-36.09c-.18-.17-.28-.4-.29-.65,0-.25.08-.48.25-.66l7.65-8.07c.35-.37.94-.39,1.31-.03l38.06,36.09c.37.35.39.94.03,1.31l-7.65,8.07c-.17.18-.4.28-.65.29,0,0-.02,0-.02,0ZM266.6,86.12l36.71,34.81,6.38-6.72-36.71-34.81-6.38,6.72Z"/>
          <path class="cls-5" d="M264.47,129.3l-1.88-1.78,8.93-9.41c.28-.3.69-.44,1.09-.4l8.56.99,8.73-9.21,1.88,1.78-9.18,9.68c-.28.3-.69.44-1.09.4l-8.56-.99-8.48,8.94Z"/>
          <g>
            <path class="cls-6" d="M263.27,107.42c.45-.5,4.72-3.95,4.72-3.95,0,0,1.25,1.1,2.78,2.45,1.92,1.69,1.66,5.1-.57,7.62-2.23,2.52-5.59,3.19-7.51,1.5-1.29-1.14-2.78-2.45-2.78-2.45,0,0,2.63-4.35,3.35-5.16Z"/>
            <path class="cls-7" d="M263.27,107.42c.45-.5,4.72-3.95,4.72-3.95,0,0,1.25,1.1,2.78,2.45,1.92,1.69,1.66,5.1-.57,7.62-2.23,2.52-5.59,3.19-7.51,1.5-1.29-1.14-2.78-2.45-2.78-2.45,0,0,2.63-4.35,3.35-5.16Z"/>
            <path class="cls-5" d="M265.31,116.79c-1.18,0-2.29-.37-3.15-1.13l-1.94-1.71c-.79-.7-.96-1.87-.39-2.79,1.46-2.38,2.42-3.82,2.83-4.29h0c.1-.11.41-.46,3.92-3.31.84-.68,2.03-.67,2.83.04l1.93,1.7c.92.81,1.47,2,1.56,3.35.11,1.86-.63,3.84-2.05,5.44-1.56,1.76-3.63,2.7-5.52,2.7ZM263.89,107.97h0c-.33.38-1.33,1.9-2.66,4.06-.14.23-.11.51.08.67l1.94,1.71c1.57,1.38,4.41.75,6.33-1.43,1.11-1.25,1.72-2.84,1.64-4.24-.06-.92-.4-1.68-1-2.2l-1.93-1.7c-.19-.16-.47-.16-.68,0-3.22,2.62-3.66,3.06-3.72,3.12ZM263.27,107.42h0,0Z"/>
            <ellipse class="cls-6" cx="263.96" cy="108.02" rx="6.09" ry="4.63" transform="translate(7.7 233.23) rotate(-48.3)"/>
            <g class="cls-1">
              <path class="cls-10" d="M267.43,111.08c.17-.19.32-.38.47-.58-2.14,1.67-4.82,1.95-6.46.51-1.77-1.56-1.69-4.6.1-7.04-.37.29-.72.62-1.05.99-2.23,2.52-2.48,5.93-.57,7.62,1.92,1.69,5.28,1.02,7.51-1.5Z"/>
            </g>
            <path class="cls-7" d="M267.43,111.08c2.23-2.52,2.48-5.93.57-7.62-1.92-1.69-5.28-1.02-7.51,1.5-.35.4-.66.82-.91,1.25,2.01-1.25,4.33-1.34,5.8-.05,1.61,1.42,1.69,4.06.34,6.37.61-.38,1.18-.87,1.71-1.45Z"/>
            <path class="cls-5" d="M262.52,114.33c-1.18,0-2.29-.37-3.15-1.13-.92-.81-1.47-2-1.56-3.35-.11-1.86.63-3.84,2.05-5.45h0c2.53-2.86,6.42-3.56,8.68-1.57.92.81,1.47,2,1.55,3.35.11,1.86-.63,3.84-2.05,5.45-1.56,1.76-3.63,2.7-5.52,2.7ZM261.11,105.51h0c-1.11,1.25-1.72,2.84-1.64,4.24.06.92.4,1.68,1,2.2,1.57,1.38,4.41.75,6.33-1.43,1.11-1.26,1.72-2.84,1.64-4.24-.06-.92-.4-1.68-1-2.2-1.57-1.38-4.41-.74-6.34,1.43Z"/>
          </g>
          <rect class="cls-5" x="286.71" y="82.52" width="33.73" height="2.74" transform="translate(33.85 246.5) rotate(-46.53)"/>
          <rect class="cls-9" x="280.39" y="69.87" width="21.87" height="8.9" rx="1.13" ry="1.13" transform="translate(36.95 234.58) rotate(-46.52)"/>
          <path class="cls-5" d="M286.99,85.77c-.53,0-1.02-.2-1.41-.56l-4.82-4.57c-.82-.78-.85-2.07-.08-2.89l13.5-14.23c.38-.4.88-.62,1.43-.64.55,0,1.07.18,1.46.56l4.82,4.57c.4.38.62.88.64,1.43.01.55-.18,1.06-.56,1.46l-13.5,14.23c-.38.4-.88.62-1.43.64-.02,0-.04,0-.06,0ZM295.66,64.71h0s-.1.01-.14.06l-13.5,14.23c-.08.08-.07.21,0,.29l4.82,4.57c.05.05.11.06.15.06.04,0,.1-.01.14-.06l13.5-14.23c.05-.05.06-.11.06-.15,0-.04-.01-.1-.06-.14l-4.82-4.57h0s-.1-.06-.14-.06Z"/>
          <g class="cls-12">
            <rect class="cls-5" x="286.94" y="73.72" width="1.48" height="8.9" transform="translate(33.02 233.15) rotate(-46.52)"/>
          </g>
          <g class="cls-12">
            <rect class="cls-5" x="293.89" y="66.11" width="1.48" height="8.9" transform="translate(40.7 235.81) rotate(-46.52)"/>
          </g>
          <g class="cls-12">
            <rect class="cls-5" x="290.32" y="69.88" width="1.48" height="8.9" transform="translate(36.86 234.39) rotate(-46.52)"/>
          </g>
          <g class="cls-12">
            <path class="cls-10" d="M291.27,72.22h0c.52.49.54,1.31.05,1.83l-5.61,5.92c-.49.52-1.31.54-1.83.05h0c-.52-.49-.54-1.31-.05-1.83l5.61-5.92c.49-.52,1.31-.54,1.83-.05Z"/>
          </g>
          <g class="cls-12">
            <path class="cls-10" d="M291.73,69.85c.49-.52,1.31-.54,1.83-.05.52.49.54,1.31.05,1.83-.49.52-1.31.54-1.83.05-.52-.49-.54-1.31-.05-1.83Z"/>
          </g>
          <g class="cls-17">
            <path class="cls-5" d="M328.63,112l-31.75,33.48c-4.01,4.23-10.69,4.41-14.92.4l-8.6-8.15-.03-.03-24.75-23.47c-2.58-2.45-2.92-6.39-.96-9.29.22-.34.48-.66.77-.97l34.48-36.37c-.55,10.17,3.36,20.61,10.8,27.61,2.23,2.1,4.73,3.89,7.22,5.68,2.53,1.81,5.06,3.63,7.59,5.45,1.98,1.42,3.99,2.86,6.12,4.03,1.49.83,3.05,1.53,4.69,2.01,3.05.89,6.5.9,9.34-.39Z"/>
          </g>
          <g>
            <path class="cls-10" d="M314.04,122.57c4.04,6.7,6.87,14.52,6.93,24.9,2.22.61,6.25-2.53,8.12-7.01.61-1.47.8-3.09.57-4.67-1.11-7.62-3.51-14.33-7.41-19.94-.87-1.25-2.58-1.57-3.83-.7-2.39,1.66-3.94,4.05-4.38,7.41Z"/>
            <g class="cls-17">
              <path class="cls-5" d="M325.01,142.98c-.26-8.54-2.43-15.31-5.58-21.17-1.21-2.25-1.05-4.99.39-7.1l.03-.04c-.5.02-1,.18-1.44.48-2.39,1.66-3.94,4.05-4.38,7.41,4.04,6.7,6.87,14.52,6.93,24.9,1.52.42,3.89-.92,5.83-3.24,0,0-.01,0-.02,0-.85.29-1.74-.36-1.77-1.26Z"/>
            </g>
            <path class="cls-5" d="M321.57,148.92c-.33,0-.65-.04-.95-.12-.59-.16-1-.7-1.01-1.31-.05-9-2.2-16.69-6.74-24.2-.16-.27-.23-.58-.19-.88.47-3.59,2.13-6.4,4.95-8.36,1.86-1.3,4.44-.83,5.74,1.04,3.9,5.61,6.47,12.52,7.64,20.53.27,1.85.04,3.71-.66,5.39-1.88,4.52-5.77,7.92-8.79,7.92ZM315.47,122.29c4.4,7.42,6.59,15.02,6.85,23.75,1.58-.56,4.11-2.73,5.51-6.1.51-1.22.67-2.59.48-3.94-1.11-7.59-3.53-14.1-7.18-19.36-.44-.63-1.3-.79-1.93-.36-2.07,1.44-3.29,3.41-3.73,6Z"/>
          </g>
        </g>
        <g>
          <path class="cls-10" d="M186.63,148.65c4.16,9.52,10.72,18.04,19.37,24.58,1.76,1.33,3.61,2.58,5.54,3.74.94.57,1.9,1.11,2.88,1.64,2.97,1.57,6,2.88,9.09,3.93,2.66.91,5.35,1.63,8.05,2.16,3.26.65,6.55,1.02,9.82,1.13,1.19.04,2.38.04,3.57.02,21.75-.51,42.59-12.44,53.51-33.03,16.09-30.32,4.55-67.95-25.77-84.04-5.84-3.09-11.96-5.18-18.14-6.28-.72-.14-1.45-.25-2.18-.35-1.95-.28-3.9-.47-5.85-.56-4.5-.21-8.99.07-13.39.82-4.39.75-8.7,1.97-12.82,3.63-1.31.53-2.61,1.1-3.88,1.72-1.91.93-3.78,1.95-5.6,3.08-9.07,5.6-16.83,13.61-22.18,23.72-9.26,17.44-9.37,37.3-2.02,54.08Z"/>
          <g class="cls-17">
            <path class="cls-5" d="M298.46,152.83c-10.92,20.59-31.76,32.52-53.51,33.03-1.19.03-2.38.02-3.57-.02-3.27-.11-6.56-.49-9.82-1.13-2.7-.54-5.39-1.25-8.05-2.16-3.09-1.05-6.12-2.36-9.09-3.93-.98-.53-1.95-1.07-2.88-1.63-1.93-1.16-3.77-2.41-5.54-3.74-8.65-6.54-15.21-15.05-19.37-24.58-2.29-5.23-3.85-10.76-4.64-16.42,4.18,8.99,10.53,17.03,18.78,23.27,1.76,1.34,3.61,2.58,5.54,3.74.94.57,1.9,1.11,2.88,1.63,2.97,1.57,6.01,2.88,9.09,3.93,2.66.91,5.35,1.63,8.05,2.16,3.26.64,6.55,1.02,9.82,1.13,1.2.04,2.39.04,3.57.02,21.75-.51,42.59-12.43,53.51-33.03,6.37-12.01,8.41-25.16,6.66-37.67,7.94,17.06,8.07,37.5-1.43,55.4Z"/>
          </g>
          <path class="cls-5" d="M243.52,187.63c-.73,0-1.47-.01-2.2-.03-3.41-.12-6.8-.51-10.11-1.17-2.82-.56-5.6-1.31-8.28-2.22-3.19-1.09-6.33-2.45-9.34-4.04-1.11-.6-2.08-1.14-2.97-1.68-1.94-1.16-3.85-2.45-5.69-3.84-8.67-6.55-15.56-15.29-19.93-25.28h0c-7.88-18.01-7.12-38.28,2.08-55.62,5.32-10.03,13.21-18.46,22.82-24.39,1.81-1.13,3.75-2.19,5.76-3.17,1.29-.62,2.63-1.22,4-1.77,4.24-1.71,8.68-2.96,13.18-3.73,4.55-.78,9.18-1.06,13.77-.85,2,.09,4.02.29,6.01.58.79.11,1.53.23,2.25.36,6.45,1.15,12.73,3.33,18.64,6.46,31.13,16.52,43.02,55.29,26.51,86.42-10.82,20.4-31.91,33.42-55.03,33.96-.49.01-.98.02-1.47.02ZM188.25,147.95c4.13,9.43,10.63,17.69,18.82,23.88,1.74,1.31,3.55,2.53,5.38,3.63.85.51,1.77,1.03,2.81,1.59,2.83,1.5,5.8,2.79,8.82,3.82,2.53.87,5.16,1.58,7.82,2.1,3.12.62,6.33.99,9.54,1.1,1.15.04,2.32.04,3.47.02,21.84-.52,41.76-12.81,51.99-32.09,15.61-29.41,4.37-66.04-25.04-81.65-5.58-2.96-11.51-5.01-17.62-6.1-.68-.13-1.36-.24-2.11-.34-1.89-.27-3.8-.46-5.69-.55-4.33-.2-8.71.07-13.01.8-4.26.72-8.45,1.91-12.46,3.53-1.29.52-2.56,1.08-3.77,1.67-1.9.92-3.73,1.93-5.44,2.99-9.08,5.6-16.53,13.57-21.56,23.05-8.69,16.38-9.41,35.53-1.97,52.55h0Z"/>
          <path class="cls-5" d="M243.52,187.24c-.73,0-1.46-.01-2.18-.03-3.38-.12-6.76-.51-10.04-1.16-2.8-.55-5.57-1.3-8.23-2.21-3.17-1.08-6.29-2.43-9.28-4.02-1.1-.59-2.06-1.14-2.95-1.67-1.93-1.15-3.83-2.44-5.66-3.82-8.61-6.51-15.46-15.2-19.8-25.12h0c-7.83-17.9-7.07-38.05,2.07-55.28,5.28-9.97,13.12-18.35,22.67-24.24,1.8-1.12,3.73-2.18,5.72-3.15,1.28-.62,2.62-1.21,3.97-1.76,4.22-1.7,8.62-2.95,13.1-3.71,4.52-.77,9.12-1.06,13.68-.84,1.98.09,4,.29,5.98.57.79.11,1.52.23,2.24.36,6.42,1.15,12.65,3.31,18.52,6.42,30.94,16.42,42.76,54.95,26.34,85.89-10.75,20.28-31.71,33.21-54.69,33.75-.49.01-.98.02-1.47.02ZM187.89,148.1c4.15,9.49,10.7,17.8,18.94,24.03,1.75,1.32,3.57,2.55,5.42,3.66.85.51,1.78,1.04,2.83,1.6,2.85,1.51,5.85,2.81,8.88,3.84,2.54.87,5.19,1.59,7.87,2.12,3.14.62,6.37.99,9.6,1.11,1.16.04,2.34.04,3.5.02,21.99-.52,42.04-12.89,52.33-32.3,15.71-29.61,4.4-66.47-25.2-82.18-5.62-2.98-11.59-5.04-17.73-6.14-.68-.13-1.37-.24-2.12-.34-1.9-.27-3.83-.46-5.72-.55-4.36-.21-8.77.07-13.09.81-4.29.73-8.51,1.92-12.54,3.55-1.3.52-2.58,1.09-3.8,1.68-1.91.93-3.75,1.94-5.48,3.01-9.14,5.64-16.64,13.66-21.7,23.2-8.75,16.49-9.47,35.77-1.98,52.89h0Z"/>
          <path class="cls-5" d="M194.83,162.31c34.15,28.41,85.03,14.5,91.32-29.05,4.28-29.63-21.42-56.69-50.14-58.98-20.9-1.67-42.04,5.85-53.49,37.58,0,0-2.9,14.83.32,25.14,3.22,10.31,8.09,19.79,8.09,19.79l3.9,5.52Z"/>
          <g class="cls-14">
            <path class="cls-11" d="M286.15,133.26c-6.29,43.54-57.18,57.46-91.32,29.05l-.79-1.12c39.32,10.49,81.12-10.06,88.3-53.97,3.6,8,5.13,16.9,3.81,26.04Z"/>
          </g>
          <path class="cls-5" d="M234.74,184.87c-3.8,0-7.63-.32-11.45-.98l-.21-.05c-3.17-1.08-6.3-2.43-9.29-4.02-1.1-.59-2.06-1.14-2.95-1.67-1.93-1.15-3.83-2.44-5.66-3.82-8.61-6.51-15.46-15.2-19.8-25.12h0c-7.83-17.9-7.07-38.05,2.07-55.28,5.28-9.97,13.12-18.35,22.67-24.24l.26-.12c7.69-2.77,16.45-3.79,26.01-3.03,17.03,1.36,33.88,10.53,45.06,24.53,10.27,12.86,14.73,28.25,12.54,43.33-2.37,16.39-10.29,29.91-22.91,39.07-10.26,7.45-23.07,11.41-36.34,11.41ZM223.86,181.21c16.42,2.8,33.04-.83,45.61-9.96,12-8.72,19.55-21.6,21.81-37.25,2.07-14.32-2.18-28.96-11.97-41.23-10.72-13.42-26.84-22.21-43.13-23.51-9.12-.73-17.44.22-24.73,2.83-9.08,5.63-16.54,13.62-21.57,23.12-8.75,16.49-9.47,35.77-1.98,52.89,4.15,9.49,10.7,17.8,18.94,24.03,1.75,1.32,3.57,2.55,5.42,3.66.85.51,1.78,1.04,2.83,1.6,2.82,1.5,5.78,2.78,8.78,3.81Z"/>
          <g>
            <path class="cls-10" d="M313.85,132.85c-.28,12.26-7.75,22.37-16.69,22.58-8.94.21-15.96-9.55-15.68-21.81.28-12.26,7.75-22.37,16.69-22.58,8.94-.21,15.96,9.55,15.68,21.81Z"/>
            <path class="cls-5" d="M296.87,156.8c-3.71,0-7.2-1.53-10.11-4.43-4.33-4.33-6.82-11.35-6.65-18.79.3-12.96,8.39-23.69,18.03-23.92,3.86-.09,7.44,1.44,10.43,4.42,4.4,4.39,6.82,11.24,6.65,18.79-.3,12.96-8.39,23.69-18.03,23.92-.11,0-.22,0-.32,0ZM298.46,112.4c-.08,0-.17,0-.25,0-8.2.19-15.09,9.72-15.36,21.24-.15,6.7,2.03,12.98,5.85,16.79,2.44,2.44,5.35,3.68,8.43,3.62,8.2-.19,15.09-9.72,15.36-21.24.15-6.7-2.03-12.98-5.85-16.79-2.38-2.38-5.2-3.63-8.17-3.63Z"/>
          </g>
          <path class="cls-10" d="M314.92,140.14c-3.1,8.33-10.96,12.3-17.56,8.86-6.6-3.44-9.44-12.97-6.34-21.3,3.1-8.33,10.96-12.3,17.56-8.86,6.6,3.44,9.44,12.97,6.34,21.3Z"/>
          <g class="cls-17">
            <path class="cls-5" d="M290.23,142.39c-.74-3.26-.59-6.73.27-9.98,2.31,7.29,8.82,10.39,15.1,6.93,4.06-2.24,7.09-6.7,8.41-11.73.15.46.28.94.39,1.43,1.88,8.3-2.01,18.02-8.68,21.7-6.68,3.68-13.61-.06-15.49-8.36Z"/>
          </g>
          <path class="cls-5" d="M302.15,154.21c-2.72,0-5.29-1.13-7.45-3.28-3.55-3.53-5.56-9.45-5.39-15.84.29-10.69,6.58-19.58,14.03-19.81,2.82-.1,5.52,1.04,7.76,3.27,3.55,3.53,5.56,9.45,5.39,15.84l-1.37-.04,1.37.04c-.29,10.69-6.58,19.58-14.03,19.81-.1,0-.21,0-.31,0ZM303.66,118.02c-.07,0-.15,0-.22,0-6.03.19-11.13,7.88-11.38,17.15-.15,5.65,1.56,10.82,4.58,13.83,1.69,1.68,3.7,2.53,5.74,2.47,6.03-.19,11.13-7.88,11.38-17.15.15-5.65-1.56-10.82-4.58-13.83-1.63-1.62-3.54-2.48-5.52-2.48Z"/>
          <g class="cls-12">
            <path class="cls-10" d="M248.17,89.98s-26.11-.41-41.59,13.4c-.02.01-.03.03-.05.04-3.26,2.91-5.66,6.65-7,10.81-1.77,5.5-2.18,9.55-2.41,13.12-.69,10.88,1.03,16.11,1.03,16.11-5.83-6.14-8.9-12.88-8.42-21.95.05-.89.13-1.81.25-2.75.03-.22.06-.43.09-.65,0,0,0,0,0-.01.37-1.89.95-4.36,1.84-7.08,2.67-8.22,8.1-18.83,18.91-23.23,20.2-8.23,38.33,1.12,37.36,2.2Z"/>
          </g>
          <g class="cls-12">
            <ellipse class="cls-10" cx="262.46" cy="118.6" rx="8.31" ry="9.68" transform="translate(-18.23 54.08) rotate(-11.37)"/>
          </g>
          <g class="cls-12">
            <ellipse class="cls-10" cx="268.54" cy="137.16" rx="3.43" ry="4" transform="translate(-27.62 80.44) rotate(-16.21)"/>
          </g>
        </g>
        <g>
          <path class="cls-10" d="M310.98,189.31c-.53,6.09-2.91,11.9-6.77,16.64-.06.08-.13.16-.19.24-7.26,8.84-17.75,14.51-29.12,15.78-10.31,1.16-19.61-1.28-22.48-11.55-.16-.56-.3-1.15-.42-1.77-.69-3.55.23-7.22,2.41-10.1,2.49-3.31,5.52-5.78,9.33-6.99l-2.5-4.58c-1.09-1.99-.31-4.56,1.77-5.46,3.81-1.65,9.26.53,13.62,4.89.64-.61,1.34-1.3,2.05-2.07,1.83-1.97,3.83-4.49,5.68-7.6,2.31-3.88,3.68-7.5,4.51-10.32,2.44-2.39,4.56-5.34,6.42-8.74l3.89-.93c1.31,1,3.06,2.48,4.83,4.54.75.88,1.51,1.85,2.23,2.94,2.48,3.73,3.82,7.57,4.51,11.13,1.21,6.26.4,11.64.2,13.94Z"/>
          <path class="cls-5" d="M270.33,223.68c-11.08,0-17.87-5.04-19.75-14.75-.75-3.89.22-7.99,2.68-11.24,2.47-3.27,5.24-5.54,8.42-6.89l-1.7-3.12c-.73-1.34-.87-2.94-.37-4.39.48-1.41,1.49-2.5,2.84-3.09,3.96-1.71,9.41-.06,14.17,4.21,2.51-2.53,4.69-5.35,6.52-8.41,1.86-3.13,3.33-6.49,4.37-9.99l.11-.36.27-.26c2.24-2.19,4.31-5.02,6.17-8.4l.31-.56,5.18-1.24.54.41c2.92,2.22,5.4,4.85,7.39,7.83,6.6,9.9,5.51,20.51,5.04,25.05-.04.36-.07.67-.09.95-.56,6.39-3.01,12.41-7.09,17.43l-.2.24c-7.43,9.05-18.39,15-30.07,16.3-1.65.19-3.23.28-4.73.28ZM265.85,182.41c-.82,0-1.58.14-2.25.43-.59.26-1.04.75-1.26,1.38-.24.68-.17,1.44.17,2.07l3.34,6.12-1.67.53c-3.29,1.04-6.11,3.16-8.62,6.48-1.96,2.6-2.75,5.86-2.15,8.96,1.83,9.45,9.01,13.54,21.33,12.16,10.94-1.23,21.2-6.79,28.16-15.27l.16-.19c3.75-4.6,5.98-10.09,6.49-15.9.02-.29.06-.62.1-.99.43-4.23,1.45-14.12-4.58-23.15-1.69-2.53-3.77-4.79-6.2-6.72l-2.6.62c-1.84,3.26-3.89,6.03-6.1,8.25-1.1,3.6-2.63,7.06-4.55,10.29-2.19,3.67-4.88,7.03-7.98,9.98l-1.02.96-.99-.99c-3.2-3.2-6.85-5.02-9.78-5.02Z"/>
          <path class="cls-5" d="M311.2,185.87c-.56,0-1.1-.33-1.33-.89-3.91-9.41-16.31-12.85-22.8-11-.77.22-1.56-.23-1.78-.99-.22-.76.23-1.56.99-1.78,7.65-2.18,21.68,1.67,26.25,12.67.31.73-.04,1.58-.78,1.88-.18.08-.37.11-.55.11Z"/>
          <path class="cls-5" d="M274.2,182.74c1.92,2.15,3.65,4.46,5.06,6.92.1.17.04.39-.13.49-.12.07-.26.06-.37,0-1.27-.8-2.34-1.73-3.38-2.65-1.08-.97-2.15-1.94-3.11-3.05-1.08-1.28.78-2.93,1.92-1.7h0Z"/>
          <g class="cls-17">
            <path class="cls-5" d="M310.98,189.31c-.53,6.09-2.91,11.9-6.77,16.64-.06.08-.13.16-.19.24-7.26,8.84-17.75,14.51-29.12,15.78-10.31,1.16-19.61-1.28-22.48-11.55.09-.16.19-.33.29-.49l.16-1.35c1.31,3.01,4.11,5.19,7.19,6.31,3.08,1.12,6.43,1.26,9.7,1.02,11.61-.84,22.8-6.46,30.41-15.27,6.06-7.03,9.79-16.03,10.61-25.27,1.21,6.26.4,11.64.2,13.94Z"/>
          </g>
          <g class="cls-17">
            <path class="cls-5" d="M304.03,161.29c-3.46.1-6.89,1.62-9.19,4.22-1.09,1.23-1.93,2.65-2.74,4.08-1.95,3.43-3.81,6.95-6.17,10.11-2.36,3.17-5.29,6.02-8.88,7.67.56-1,1.11-2.01,1.63-3.03,1.83-1.97,3.83-4.49,5.68-7.6,2.31-3.88,3.68-7.5,4.51-10.32,2.44-2.39,4.56-5.34,6.42-8.74l3.89-.93c1.31,1,3.06,2.48,4.83,4.54Z"/>
          </g>
        </g>
      </g>
    </g>
  </g>
</svg>