<?xml version="1.0" encoding="UTF-8"?>
<svg id="_레이어_2" data-name="레이어 2" xmlns="http://www.w3.org/2000/svg" viewBox="0 0 550 270">
  <defs>
    <style>
      .cls-1 {
        fill: #c000ad;
      }

      .cls-1, .cls-2, .cls-3, .cls-4, .cls-5, .cls-6, .cls-7, .cls-8, .cls-9 {
        stroke-width: 0px;
      }

      .cls-2 {
        fill: #ff7549;
      }

      .cls-3 {
        fill: #7328ec;
      }

      .cls-4 {
        fill: #0f80d1;
      }

      .cls-5 {
        fill: #005843;
      }

      .cls-6 {
        fill: #fff;
      }

      .cls-7 {
        fill: #ffcb12;
      }

      .cls-8 {
        fill: #ef177f;
      }

      .cls-9 {
        fill: #57a905;
      }
    </style>
  </defs>
  <g id="_레이어_1-2" data-name="레이어 1">
    <g>
      <g>
        <rect class="cls-2" x="2.5" y="2.5" width="125" height="125" rx="17.5" ry="17.5"/>
        <path class="cls-6" d="M110,5c8.28,0,15,6.72,15,15v90c0,8.28-6.72,15-15,15H20c-8.28,0-15-6.72-15-15V20c0-8.28,6.72-15,15-15h90M110,0H20C8.97,0,0,8.97,0,20v90c0,11.03,8.97,20,20,20h90c11.03,0,20-8.97,20-20V20c0-11.03-8.97-20-20-20h0Z"/>
      </g>
      <g>
        <path class="cls-2" d="M92.28,117.06l-.31-.16c-2.26-.19-4.15-.96-5.62-2.28-1.44-1.29-2.55-2.9-3.3-4.78-.68-1.73-1.12-3.55-1.3-5.42-.17-1.7-.25-3.25-.25-4.62V27.38c0-.83.09-1.78.28-2.83.18-1.05.48-2.16.89-3.29.48-1.35,1.19-2.48,2.08-3.38s2.09-1.52,3.6-1.91c1.3-.34,2.47-.5,3.57-.5,2.44,0,4.53.85,6.21,2.53,1.49,1.5,2.39,3.15,2.68,4.91.2,1.24.38,2.54.54,3.88.1.47.15,1.02.15,1.71.16,1.38.26,2.82.3,4.28.04,1.42.1,2.83.18,4.25v.14s0,1.56,0,1.56c0,.38.02.95.06,1.74.04.9.06,2.21.06,3.9v7.72c.35.02.7.03,1.06.04,1.2.04,2.37.1,3.49.18.51,0,1.04.06,1.63.15l1.44.24c2.17.43,3.91,1.33,5.26,2.68,1.48,1.49,2.23,3.43,2.23,5.79,0,1.24-.11,2.6-.32,4.18-.29,2.08-1.26,3.81-2.81,5-.55.46-1.19.89-1.84,1.21-.65.32-1.39.59-2.2.79l-.14.04-.15.02c-.95.12-2.04.18-3.24.18-.59,0-1.21-.01-1.86-.04-.88-.04-1.69-.06-2.44-.06h-.11v13.28c.16,4.11.16,8.29,0,12.34v1.58c0,1.06-.02,2.23-.06,3.5-.04,1.33-.15,2.64-.32,3.91-.19,1.38-.51,2.71-.97,3.96-.52,1.39-1.25,2.58-2.19,3.53-1.43,1.62-3.39,2.48-5.67,2.48h-.59ZM56.03,112.26c-1.37,0-2.75-.29-4.09-.86-1.61-.68-2.81-1.8-3.46-3.25-1.41-2.82-2.14-6.06-2.14-9.55v-5.18c-.08-.98-.12-1.99-.12-2.98v-44.88c0-1.14-.07-2.34-.21-3.57-.06-.31-.13-.7-.21-1.17-.1,0-.2,0-.29,0-.47,0-.94-.04-1.4-.11-.1-.01-.26-.03-.41-.03-.14,0-.28.01-.42.03-.38.06-.78.09-1.17.09-.32,0-.66-.02-.99-.06h-5.4c-.7.04-1.41.06-2.11.06s-1.46-.02-2.19-.06c-.63-.04-1.26-.06-1.89-.06s-1.21.02-1.82.05c-.5.06-.97.09-1.42.09-.26,0-.5,0-.74-.03-.46-.03-.97-.05-1.54-.05-.95,0-1.94-.04-2.97-.13-1.4-.12-2.71-.59-3.87-1.41-1.57-1.12-2.65-2.55-3.22-4.26-.48-1.42-.72-2.92-.73-4.44-.09-1.89.31-3.79,1.18-5.64.55-1.31,1.32-2.31,2.28-2.99.63-.57,1.43-1.03,2.44-1.4.81-.3,1.53-.54,2.16-.72l.11-.03c1.84-.44,3.79-.68,5.8-.73,1.86-.04,3.68-.06,5.46-.06h21.07l.19.03c.96.15,2.03.29,3.17.4,1.39.14,2.7.46,3.88.96.73.27,1.53.68,2.28,1.19.85.57,1.57,1.26,2.15,2.06l.07.11c.93,1.45,1.48,2.94,1.64,4.45.12,1.11.26,2.34.42,3.69v.12c.17,2.3.26,4.6.26,6.84v46.02c0,.11.02.7.06,1.77.04,1.2.06,2.6.06,4.17v4.92c0,1.75-.04,3.31-.12,4.65-.09.95-.22,1.87-.4,2.81-.2,1.08-.52,2.12-.96,3.1-.48,1.07-1.16,2.05-2.01,2.9-.89.89-2.03,1.6-3.39,2.13-1.61.66-3.31,1.01-4.98,1.01Z"/>
        <path class="cls-6" d="M91.91,17.96c1.76,0,3.24.6,4.44,1.8,1.12,1.12,1.78,2.3,1.98,3.54.2,1.24.38,2.54.54,3.9.08.32.12.8.12,1.44.16,1.36.26,2.76.3,4.2.04,1.44.1,2.88.18,4.32v1.56c0,.4.02,1.02.06,1.86.04.84.06,2.1.06,3.78v10.08c1.12.08,2.28.14,3.48.18,1.2.04,2.36.1,3.48.18.4,0,.84.04,1.32.12.48.08.96.16,1.44.24,1.6.32,2.9.98,3.9,1.98,1,1,1.5,2.34,1.5,4.02,0,1.12-.1,2.4-.3,3.84-.2,1.44-.82,2.56-1.86,3.36-.48.4-.96.72-1.44.96-.48.24-1.04.44-1.68.6-.85.11-1.83.16-2.93.16-.55,0-1.14-.01-1.75-.04-.92-.04-1.77-.06-2.55-.06s-1.49.02-2.13.06c-.32,0-.48.2-.48.6v15.12c.16,4.16.16,8.24,0,12.24v1.68c0,1.04-.02,2.18-.06,3.42-.04,1.24-.14,2.46-.3,3.66-.16,1.2-.44,2.34-.84,3.42-.4,1.08-.96,1.98-1.68,2.7-.96,1.12-2.24,1.68-3.84,1.68l-.24-.12c-1.92-.08-3.46-.64-4.62-1.68-1.16-1.04-2.04-2.32-2.64-3.84-.6-1.52-.98-3.1-1.14-4.74-.16-1.64-.24-3.1-.24-4.38V27.38c0-.68.08-1.48.24-2.4.16-.92.42-1.88.78-2.88.36-1,.86-1.82,1.5-2.46.56-.56,1.38-.98,2.46-1.26,1.08-.28,2.06-.42,2.94-.42M53.51,21.44c1.04.16,2.14.3,3.3.42,1.16.12,2.22.38,3.18.78.64.24,1.26.56,1.86.96.6.4,1.1.88,1.5,1.44.72,1.12,1.14,2.24,1.26,3.36.12,1.12.26,2.36.42,3.72.16,2.24.24,4.46.24,6.66v46.02c0,.08.02.7.06,1.86.04,1.16.06,2.52.06,4.08v4.92c0,1.72-.04,3.22-.12,4.5-.08.8-.2,1.64-.36,2.52-.16.88-.42,1.72-.78,2.52-.36.8-.86,1.52-1.5,2.16-.64.64-1.48,1.16-2.52,1.56-1.36.56-2.72.84-4.08.84-1.04,0-2.08-.22-3.12-.66-1.04-.44-1.76-1.1-2.16-1.98-1.28-2.56-1.92-5.4-1.92-8.52v-5.28c-.08-.96-.12-1.92-.12-2.88v-44.88c0-1.28-.08-2.6-.24-3.96-.08-.4-.18-.96-.3-1.68-.12-.72-.38-1.16-.78-1.32-.34-.21-.73-.31-1.16-.31-.07,0-.14,0-.22,0-.17.01-.35.02-.52.02-.34,0-.66-.03-.98-.08-.28-.04-.56-.06-.83-.06s-.53.02-.79.06c-.26.04-.53.06-.8.06s-.54-.02-.82-.06h-5.64c-.68.04-1.36.06-2.04.06s-1.36-.02-2.04-.06c-.68-.04-1.36-.06-2.04-.06s-1.36.02-2.04.06c-.43.05-.83.08-1.2.08-.19,0-.37,0-.54-.02-.52-.04-1.1-.06-1.74-.06-.88,0-1.8-.04-2.76-.12-.96-.08-1.84-.4-2.64-.96-1.12-.8-1.88-1.8-2.28-3-.4-1.2-.6-2.44-.6-3.72-.08-1.52.24-3.04.96-4.56.4-.96.92-1.64,1.56-2.04.4-.4.98-.74,1.74-1.02.76-.28,1.42-.5,1.98-.66,1.68-.4,3.44-.62,5.28-.66,1.84-.04,3.64-.06,5.4-.06h20.88M91.91,12.96c-1.31,0-2.68.19-4.19.58-1.96.51-3.55,1.37-4.74,2.56-1.16,1.16-2.06,2.61-2.67,4.3-.46,1.28-.79,2.52-1,3.72-.21,1.2-.31,2.27-.31,3.26v72.42c0,1.45.09,3.09.26,4.87.2,2.09.7,4.14,1.47,6.09.89,2.24,2.22,4.17,3.95,5.73,1.78,1.59,3.99,2.55,6.58,2.86l.43.22h1.18c3.01,0,5.6-1.13,7.51-3.28,1.16-1.2,2.07-2.67,2.7-4.36.53-1.42.9-2.93,1.11-4.5.18-1.35.29-2.75.34-4.16.04-1.35.06-2.52.06-3.59v-1.58c.16-4.05.16-8.23,0-12.43v-10.63c.66.03,1.31.04,1.91.04,1.32,0,2.48-.07,3.55-.2l.3-.04.29-.07c.99-.25,1.9-.57,2.7-.98.81-.4,1.59-.92,2.34-1.54,2.03-1.6,3.3-3.87,3.68-6.57.23-1.7.35-3.18.35-4.53,0-3.79-1.61-6.2-2.96-7.55-1.71-1.71-3.88-2.84-6.46-3.35l-.08-.02h-.08c-.47-.09-.95-.17-1.42-.25-.7-.12-1.34-.18-1.95-.19-.7-.05-1.42-.09-2.16-.12v-5.32c0-1.73-.02-3.08-.07-4.01-.05-.97-.05-1.43-.05-1.63v-1.84c-.09-1.39-.14-2.79-.18-4.18-.04-1.49-.14-2.96-.3-4.37-.01-.75-.07-1.38-.18-1.95-.16-1.34-.34-2.64-.54-3.88-.37-2.3-1.51-4.41-3.38-6.28-2.14-2.14-4.89-3.27-7.98-3.27h0ZM53.9,16.44h-21.27c-1.73,0-3.58.02-5.51.06-2.19.05-4.32.32-6.33.79l-.11.03-.11.03c-.68.2-1.46.46-2.32.77-1.26.46-2.29,1.05-3.14,1.79-1.28.93-2.29,2.25-3,3.92-1.02,2.2-1.49,4.46-1.39,6.72.01,1.77.3,3.52.86,5.18.74,2.22,2.13,4.07,4.12,5.49,1.56,1.09,3.28,1.72,5.13,1.87,1.09.09,2.16.14,3.17.14.5,0,.96.02,1.37.05.28.02.6.03.92.03.52,0,1.07-.03,1.63-.1.53-.03,1.07-.04,1.6-.04.58,0,1.17.02,1.75.05.77.05,1.56.07,2.33.07.72,0,1.46-.02,2.18-.06h5.2c.38.04.76.06,1.13.06.51,0,1.02-.04,1.51-.11.07.81.1,1.61.1,2.37v44.88c0,1.03.04,2.06.12,3.08v5.08c0,3.86.81,7.45,2.41,10.69.93,1.98,2.56,3.5,4.72,4.42,1.66.7,3.36,1.06,5.07,1.06,1.99,0,3.98-.4,5.93-1.2,1.66-.65,3.07-1.54,4.2-2.66,1.08-1.08,1.92-2.3,2.53-3.65.52-1.17.91-2.4,1.14-3.68.18-1.02.32-2,.42-2.92v-.1s.02-.1.02-.1c.09-1.39.13-3.01.13-4.81v-4.92c0-1.6-.02-3.03-.06-4.25-.03-.97-.05-1.55-.06-1.73v-45.98c0-2.3-.08-4.66-.25-7.01v-.12s-.02-.12-.02-.12c-.16-1.34-.3-2.56-.41-3.66-.2-1.9-.88-3.76-2.03-5.53l-.07-.11-.08-.11c-.75-1.05-1.69-1.95-2.78-2.68-.9-.6-1.84-1.08-2.8-1.45-1.39-.57-2.9-.94-4.51-1.1-1.1-.11-2.12-.24-3.04-.39l-.38-.06h0Z"/>
      </g>
      <g>
        <rect class="cls-7" x="142.5" y="2.5" width="125" height="125" rx="17.5" ry="17.5"/>
        <path class="cls-6" d="M250,5c8.28,0,15,6.72,15,15v90c0,8.28-6.72,15-15,15h-90c-8.28,0-15-6.72-15-15V20c0-8.28,6.72-15,15-15h90M250,0h-90c-11.03,0-20,8.97-20,20v90c0,11.03,8.97,20,20,20h90c11.03,0,20-8.97,20-20V20c0-11.03-8.97-20-20-20h0Z"/>
      </g>
      <g>
        <path class="cls-7" d="M169.08,109.55c-1.12,0-2.29-.04-3.49-.11-2.45-.15-4.58-.97-6.35-2.42l-.09-.08c-2.22-2.01-3.34-4.37-3.34-7.01,0-1.63.47-3.29,1.4-4.95,1-1.78,2.39-3.04,4.13-3.74,1.89-.76,3.88-1.14,5.91-1.14,1.69,0,3.41-.04,5.11-.12h.71c3.79-.08,7.72-.12,11.64-.12,3.08,0,6.21.02,9.35.07l-.07-6.23h-14.99c-1.75,0-3.55-.04-5.33-.12h-.12c-2.38-.23-4.44-1.45-5.98-3.54-1.4-1.89-2.2-4.14-2.4-6.69-.08-.72-.15-1.93-.19-3.61-.04-1.6-.08-3.28-.12-5.04-.04-1.78-.06-3.44-.06-4.98v-6.02c-.08-1.08-.06-2.24.08-3.44.17-1.56.78-2.99,1.81-4.25,1.37-1.79,3.35-2.98,5.85-3.45,2.03-.39,4.02-.58,5.93-.58.46,0,1.14.04,2.19.13.39.03.73.05,1.03.05s.51-.02.62-.04l.18-.03h40.28v-5.08h-41.3c-.34,0-.71.02-1.12.05-.55.05-1.06.07-1.52.07-.42,0-.85.02-1.31.05-.59.05-1.15.07-1.69.07-1.91,0-3.46-.19-4.74-.57-2.01-.5-3.65-1.82-4.87-3.92-1.36-2.41-1.73-4.99-1.11-7.69l.03-.11c.59-2.11,1.99-3.78,4.05-4.81,1.62-.81,2.96-1.31,4.07-1.53.81-.2,1.62-.3,2.39-.3h6.18c1.29,0,2.89.02,4.79.06,1.86.04,3.82.06,5.89.06s4.15-.02,6.25-.06c2.14-.04,4.09-.06,5.87-.06h24.24c1.38,0,2.81.04,4.23.12,1.56.09,3.09.37,4.56.83,2.69.79,4.57,2.63,5.37,5.33.63,2.11.94,4.19.94,6.17v15.84c0,.74-.06,1.66-.2,2.81-.13,1.12-.32,2.29-.58,3.48-.27,1.27-.67,2.5-1.18,3.66-.64,1.46-1.51,2.55-2.58,3.21-1.49.86-2.9,1.34-4.28,1.5-.72.08-1.43.12-2.12.12-.43,0-.85-.02-1.27-.05h-44.8v4.6h47.12c.74,0,1.48.04,2.22.13,1.57.12,3.03.58,4.35,1.37,1.55.93,2.63,2.4,3.21,4.38l.03.1c.52,2.08.43,4.11-.25,6.01-.75,2.07-2.23,3.65-4.28,4.56-1.22.51-2.43.83-3.66.98-1.1.13-2.15.2-3.12.2h-18.11l.07,6.27c.99,0,1.92-.03,2.8-.05,1.66-.04,3.32-.06,4.98-.06s3.32.02,4.98.06c1.62.04,3.34.06,5.16.06h.14c.53.03,1.05.05,1.57.05.76,0,1.53-.03,2.27-.1.65-.06,1.31-.09,1.95-.09.86,0,1.71.05,2.54.16l.27.04c.3-.04.58-.06.86-.06h.15l.15.02c1.51.18,2.93.47,4.22.88,1.48.46,2.93,1.29,4.31,2.47l.07.06.07.07c1.6,1.6,2.41,3.61,2.41,5.97,0,1.1-.17,2.27-.51,3.49-.39,1.37-.93,2.45-1.65,3.29l-.06.07-.07.07c-.92.91-2.05,1.6-3.37,2.04-1.11.37-2.19.63-3.21.77-.99.13-1.89.2-2.68.2h-68.34c-.32,0-.63.01-.94.05-.47.05-.94.07-1.39.07-.69.03-1.4.05-2.13.05Z"/>
        <path class="cls-6" d="M228.87,20.84c1.36,0,2.72.04,4.08.12,1.36.08,2.68.32,3.96.72,1.92.56,3.16,1.78,3.72,3.66.56,1.88.84,3.7.84,5.46v15.84c0,.64-.06,1.48-.18,2.52-.12,1.04-.3,2.12-.54,3.24-.24,1.12-.58,2.18-1.02,3.18-.44,1-.98,1.7-1.62,2.1-1.12.64-2.2,1.02-3.24,1.14-.63.07-1.24.11-1.83.11-.4,0-.79-.02-1.17-.05h-47.4v9.6h49.62c.68,0,1.34.04,1.98.12,1.2.08,2.3.42,3.3,1.02,1,.6,1.7,1.58,2.1,2.94.4,1.6.34,3.12-.18,4.56-.52,1.44-1.5,2.48-2.94,3.12-.96.4-1.94.66-2.94.78-1,.12-1.94.18-2.82.18h-20.64l.12,11.28c1.92,0,3.7-.02,5.34-.06,1.64-.04,3.28-.06,4.92-.06s3.28.02,4.92.06c1.64.04,3.38.06,5.22.06.58.03,1.15.05,1.71.05.84,0,1.67-.04,2.49-.11.58-.05,1.16-.08,1.73-.08.76,0,1.5.05,2.24.14.16.05.32.08.48.08.08,0,.16,0,.24-.02.24-.04.48-.06.72-.06,1.36.16,2.62.42,3.78.78,1.16.36,2.3,1.02,3.42,1.98,1.12,1.12,1.68,2.52,1.68,4.2,0,.88-.14,1.82-.42,2.82-.28,1-.66,1.78-1.14,2.34-.64.64-1.44,1.12-2.4,1.44-.96.32-1.88.54-2.76.66-.88.12-1.66.18-2.34.18h-68.34c-.4,0-.8.02-1.2.06-.4.04-.8.06-1.2.06-.67.03-1.36.05-2.07.05-1.07,0-2.18-.04-3.33-.11-1.92-.12-3.56-.74-4.92-1.86-1.68-1.52-2.52-3.24-2.52-5.16,0-1.2.36-2.44,1.08-3.72.72-1.28,1.68-2.16,2.88-2.64,1.6-.64,3.26-.96,4.98-.96s3.46-.04,5.22-.12h.6c3.84-.08,7.72-.12,11.64-.12s7.88.04,11.88.12l-.12-11.28h-17.46c-1.72,0-3.46-.04-5.22-.12-1.68-.16-3.08-1-4.2-2.52-1.12-1.52-1.76-3.32-1.92-5.4-.08-.72-.14-1.88-.18-3.48-.04-1.6-.08-3.28-.12-5.04-.04-1.76-.06-3.4-.06-4.92v-6.12c-.08-.96-.06-1.98.06-3.06s.54-2.06,1.26-2.94c1.04-1.36,2.5-2.22,4.38-2.58,1.88-.36,3.7-.54,5.46-.54.4,0,1.06.04,1.98.12.46.04.87.06,1.24.06s.7-.02.98-.06h42.6v-10.08h-43.8c-.4,0-.84.02-1.32.06-.48.04-.92.06-1.32.06-.48,0-.98.02-1.5.06-.52.04-1.02.06-1.5.06-1.68,0-3.04-.16-4.08-.48-1.36-.32-2.48-1.24-3.36-2.76-1.04-1.84-1.32-3.8-.84-5.88.4-1.44,1.32-2.52,2.76-3.24,1.44-.72,2.6-1.16,3.48-1.32.64-.16,1.26-.24,1.86-.24h6.18c1.28,0,2.86.02,4.74.06,1.88.04,3.86.06,5.94.06s4.18-.02,6.3-.06c2.12-.04,4.06-.06,5.82-.06h24.24M228.87,15.84h-24.24c-1.77,0-3.76.02-5.91.06-2.01.04-4.1.06-6.21.06s-4.03-.02-5.83-.06c-1.95-.04-3.54-.06-4.85-.06h-6.18c-.95,0-1.94.12-2.92.35-1.33.26-2.85.83-4.65,1.74-2.71,1.36-4.56,3.56-5.34,6.37l-.03.11-.02.11c-.76,3.28-.29,6.56,1.36,9.47,1.95,3.37,4.51,4.64,6.39,5.12,1.17.34,2.51.55,4.05.62-.8.1-1.61.22-2.42.38-3.04.58-5.59,2.1-7.36,4.39-1.31,1.62-2.08,3.47-2.31,5.49-.15,1.32-.18,2.6-.09,3.8v5.93c0,1.59.02,3.29.06,5.04.04,1.76.08,3.45.12,5.05.04,1.69.11,2.95.2,3.82.24,2.99,1.21,5.65,2.88,7.9,1.96,2.67,4.64,4.23,7.75,4.53h.12s.12.02.12.02c1.83.08,3.66.13,5.45.13h12.51v1.2c-2.28-.03-4.56-.04-6.81-.04-3.92,0-7.85.04-11.69.12h-.78c-1.66.08-3.33.12-4.99.12-2.35,0-4.65.44-6.83,1.32-2.25.9-4.11,2.57-5.38,4.83-1.14,2.03-1.72,4.11-1.72,6.17,0,2.33.72,5.75,4.16,8.87l.09.08.09.07c2.18,1.8,4.81,2.8,7.79,2.99,1.25.08,2.47.12,3.64.12.74,0,1.48-.02,2.2-.05.52,0,1.05-.03,1.57-.08.23-.02.46-.03.7-.03h68.34c.9,0,1.92-.08,3.02-.23,1.17-.16,2.4-.45,3.66-.87,1.7-.57,3.17-1.46,4.36-2.65l.14-.14.13-.15c.97-1.13,1.67-2.51,2.16-4.24.4-1.45.61-2.85.61-4.17,0-3-1.09-5.67-3.14-7.73l-.14-.14-.15-.13c-1.64-1.4-3.38-2.4-5.19-2.96-1.44-.45-3.01-.77-4.67-.97l-.29-.04h-.3c-.27,0-.55.01-.83.04-.93-.12-1.89-.17-2.85-.17-.71,0-1.44.03-2.17.1-.67.06-1.36.09-2.05.09-.47,0-.95-.01-1.43-.04h-.14s-.14,0-.14,0c-1.87,0-3.54-.02-5.1-.06-1.71-.04-3.4-.06-5.05-.06s-3.34.02-5.04.06c-.09,0-.18,0-.27,0v-1.23s15.57,0,15.57,0c1.07,0,2.22-.07,3.42-.22,1.45-.17,2.89-.55,4.27-1.13l.05-.02.05-.02c2.68-1.19,4.63-3.26,5.61-5.99.86-2.39.97-4.9.33-7.47l-.03-.1-.03-.1c-.95-3.23-2.88-4.94-4.32-5.81-1.64-.98-3.45-1.56-5.39-1.71-.02,0-.03,0-.05,0,1.37-.29,2.74-.82,4.09-1.6l.08-.05.08-.05c1.5-.94,2.7-2.4,3.55-4.33.58-1.32,1.03-2.71,1.33-4.15.27-1.26.48-2.51.62-3.71.14-1.24.21-2.25.21-3.09v-15.84c0-2.23-.35-4.54-1.05-6.88-1.04-3.49-3.55-5.98-7.07-7.02-1.65-.51-3.37-.82-5.11-.93-1.48-.09-2.95-.13-4.38-.13h0ZM180.38,39.58c.06,0,.13-.01.19-.02.34-.03.65-.04.89-.04h38.8v.08h-37.96l-.36.05h0s-.08,0-.26,0c-.22,0-.49-.01-.8-.04-.18-.02-.35-.03-.51-.04h0Z"/>
      </g>
      <g>
        <rect class="cls-9" x="282.5" y="2.5" width="125" height="125" rx="17.5" ry="17.5"/>
        <path class="cls-6" d="M390,5c8.28,0,15,6.72,15,15v90c0,8.28-6.72,15-15,15h-90c-8.28,0-15-6.72-15-15V20c0-8.28,6.72-15,15-15h90M390,0h-90c-11.03,0-20,8.97-20,20v90c0,11.03,8.97,20,20,20h90c11.03,0,20-8.97,20-20V20c0-11.03-8.97-20-20-20h0Z"/>
      </g>
      <g>
        <path class="cls-9" d="M382.28,115.01c-.76,0-1.54-.1-2.32-.29-1.68-.35-3.08-1.09-4.14-2.22-.95-1-1.67-2.15-2.15-3.42-.44-1.19-.72-2.47-.81-3.82-.08-1.16-.12-2.31-.12-3.42V28.1c0-1.29.09-2.55.27-3.73.17-1.18.42-2.32.73-3.39.4-1.36,1.03-2.48,1.89-3.34l.09-.08c1.2-1.09,2.38-1.77,3.59-2.08,1-.25,2.17-.38,3.49-.38,1.97,0,3.65.59,4.99,1.75,1.19,1.03,2.1,2.38,2.73,4.02.82,1.93,1.29,3.94,1.38,5.98l.24,5.52v.6c.16,6.03.2,11.96.12,17.55-.08,5.52-.12,11.2-.12,16.89v30c0,2.12-.06,4.19-.19,6.16-.14,2.23-.68,4.35-1.62,6.32-.66,1.42-1.71,2.65-3.11,3.62-1.57,1.02-3.21,1.51-4.94,1.51ZM361.55,114.66c-.61,0-1.36-.07-2.29-.21-1.17-.17-2.11-.52-2.85-1.07-1.21-.77-2.14-1.93-2.76-3.46-.5-1.21-.88-2.52-1.16-3.87-.27-1.33-.42-2.63-.47-3.88,0-.11,0-.21-.01-.32-.11,1.04-.43,2.09-.95,3.14-1.85,4.1-4.75,5.17-6.84,5.34h-.1s-.22,0-.22,0c-1.93,0-3.71-.75-5.13-2.17-1.02-1.02-2.12-2.25-3.28-3.66-1.16-1.32-2.33-2.93-3.44-4.71-.99-1.6-1.89-2.97-2.67-4.06l-.1-.16c-1.53-2.52-2.74-4.41-3.63-5.63-.4.56-.82,1.14-1.25,1.75-.78,1.1-1.52,2.12-2.23,3.03-.71.92-1.01,1.3-1.17,1.48-.61.84-1.2,1.66-1.78,2.46-.63.88-1.29,1.75-1.94,2.57l-.08.1-.09.09c-.17.39-.44.77-.74,1.1-1.15,1.39-2.33,2.73-3.53,4.01-1.42,1.52-3.11,2.68-5.01,3.46-.96.46-2.03.7-3.18.7-1.36,0-2.54-.38-3.5-1.12-.62-.48-1.26-1.06-1.98-1.77l-.1-.11c-1.69-1.91-2.55-4.16-2.55-6.7v-.14c.1-1.75.52-3.44,1.26-5,.63-1.34,1.29-2.61,1.95-3.78l.16-.29.16-.17c.09-.12.36-.51,1.11-1.69.75-1.19,1.65-2.66,2.66-4.37,1.03-1.75,2.12-3.64,3.28-5.66,1.15-2.02,2.29-3.97,3.39-5.81,1.08-1.79,2.01-3.37,2.81-4.72.9-1.54,1.42-2.28,1.77-2.7.35-.66.63-1.3.84-1.91.21-.6.35-1.25.41-1.92.16-1.25.23-2.42.23-3.55v-27.54c0-.77.04-1.58.12-2.41,0-.98.1-1.98.28-2.96.17-.92.33-1.75.5-2.5l.03-.12.04-.12c.2-.59.47-1.23.8-1.89l.83-1.66.06-.1c.66-1.05,1.56-1.85,2.68-2.38.76-.36,1.58-.64,2.45-.83l.21-.1.27-.07c.72-.18,1.34-.27,1.91-.27.18,0,.34,0,.5.02.63.06,1.34.25,2.19.57.97.37,1.84.92,2.57,1.65.55.55,1.01,1.25,1.37,2.1.26.6.51,1.23.76,1.91.35.89.66,1.94.89,3.08.22,1.11.38,2.29.46,3.5.32,3.37.53,7.24.61,11.47.08,4.25.12,8.08.12,11.39.08,2.03.12,4.14.12,6.18s.08,3.96.23,5.86c.07,1.51.39,2.79,1,4,.75,1.51,1.52,3.01,2.32,4.51l.07.13c.79,1.75,1.62,3.53,2.5,5.35.86,1.8,1.74,3.55,2.6,5.2l.1.19s.06.2.07.2c0,0,.12.28.66,1.26.49.89.99,1.85,1.52,2.86.52,1,1,1.92,1.44,2.76.62,1.2.83,1.66.94,1.98l.03.09.2.79.24.47c.54.98.98,2.11,1.27,3.27.21.77.37,1.63.48,2.55,0-.09,0-29.91,0-29.91l-5.36-.25c-.91,0-1.85-.13-2.79-.38-1.04-.27-2.04-.74-2.97-1.4-.96-.68-1.78-1.58-2.44-2.68-.68-1.12-1.08-2.49-1.19-4.06-.18-1.68-.06-3.49.35-5.38.36-1.66,1.46-3.94,4.6-5.47,1.02-.55,2.25-.88,3.65-.99.61-.04,1.18-.07,1.7-.07s.98.02,1.42.06h3.03v-22.52c0-1.27.14-2.53.42-3.74l.04-.19.07-.18c.15-.38.28-.72.4-1.02.13-.34.27-.72.44-1.14l.08-.19.11-.18c1.17-1.92,2.85-3.28,4.98-4.04.6-.23,1.24-.38,1.9-.45.53-.05,1.02-.07,1.5-.07,3.52,0,6.33,1.66,8.14,4.8.51.79.83,1.78,1,3,.12.92.23,1.86.31,2.82.09,1.02.13,1.87.13,2.62v69.9c0,2.07-.06,3.76-.19,5.05-.14,1.41-.56,3.09-1.27,5.13-.54,1.61-1.48,3-2.8,4.1-1.42,1.18-3.33,1.78-5.68,1.78Z"/>
        <path class="cls-6" d="M382.79,17.6c1.36,0,2.48.38,3.36,1.14.88.76,1.56,1.78,2.04,3.06.72,1.68,1.12,3.4,1.2,5.16.08,1.76.16,3.56.24,5.4v.6c.16,6.08.2,11.92.12,17.52-.08,5.6-.12,11.24-.12,16.92v30c0,2.08-.06,4.08-.18,6-.12,1.92-.58,3.72-1.38,5.4-.48,1.04-1.24,1.92-2.28,2.64-1.1.71-2.27,1.07-3.51,1.07-.57,0-1.16-.08-1.77-.23-1.2-.24-2.16-.74-2.88-1.5-.72-.76-1.26-1.62-1.62-2.58-.36-.96-.58-2-.66-3.12-.08-1.12-.12-2.2-.12-3.24V28.1c0-1.16.08-2.28.24-3.36.16-1.08.38-2.1.66-3.06.28-.96.7-1.72,1.26-2.28.88-.8,1.72-1.3,2.52-1.5.8-.2,1.76-.3,2.88-.3M361.91,17.96c2.64,0,4.64,1.2,6,3.6.32.48.54,1.16.66,2.04.12.88.22,1.78.3,2.7.08.92.12,1.72.12,2.4v69.9c0,2-.06,3.6-.18,4.8-.12,1.2-.5,2.72-1.14,4.56-.4,1.2-1.08,2.2-2.04,3-.96.8-2.32,1.2-4.08,1.2-.48,0-1.12-.06-1.92-.18-.8-.12-1.4-.34-1.8-.66-.8-.48-1.42-1.26-1.86-2.34-.44-1.08-.78-2.22-1.02-3.42-.24-1.2-.38-2.36-.42-3.48-.04-1.12-.06-2-.06-2.64v-32.04l-7.8-.36c-.72,0-1.46-.1-2.22-.3-.76-.2-1.48-.54-2.16-1.02-.68-.48-1.26-1.12-1.74-1.92-.48-.8-.76-1.8-.84-3-.16-1.44-.06-2.98.3-4.62.36-1.64,1.46-2.9,3.3-3.78.72-.4,1.62-.64,2.7-.72.54-.04,1.04-.06,1.51-.06s.91.02,1.31.06h5.64v-25.02c0-1.08.12-2.14.36-3.18.16-.4.3-.76.42-1.08.12-.32.26-.68.42-1.08.88-1.44,2.12-2.44,3.72-3,.4-.16.82-.26,1.26-.3.44-.04.86-.06,1.26-.06M326.74,18.85c.09,0,.17,0,.25.01.4.04.92.18,1.56.42.64.24,1.2.6,1.68,1.08.32.32.6.76.84,1.32.24.56.48,1.16.72,1.8.32.8.58,1.7.78,2.7.2,1,.34,2.06.42,3.18.32,3.36.52,7.14.6,11.34.08,4.2.12,7.98.12,11.34.08,2.08.12,4.14.12,6.18s.08,4.06.24,6.06c.08,1.76.5,3.4,1.26,4.92.76,1.52,1.54,3.04,2.34,4.56.8,1.76,1.64,3.56,2.52,5.4.88,1.84,1.76,3.6,2.64,5.28.08.24.36.8.84,1.68.48.88.98,1.82,1.5,2.82.52,1,1,1.92,1.44,2.76.44.84.7,1.38.78,1.62l.24.96.36.72c.48.88.84,1.8,1.08,2.76.24.88.4,1.84.48,2.88.08,1.04-.16,2.12-.72,3.24-1.12,2.48-2.72,3.8-4.8,3.96h-.12c-1.28,0-2.4-.48-3.36-1.44-.96-.96-2-2.12-3.12-3.48-1.12-1.28-2.2-2.76-3.24-4.44-1.04-1.68-1.96-3.08-2.76-4.2-1.84-3.04-3.24-5.18-4.2-6.42-.96-1.24-1.48-1.94-1.56-2.1-.08.08-.46.58-1.14,1.5-.68.92-1.4,1.92-2.16,3-.76,1.08-1.48,2.06-2.16,2.94-.68.88-1.06,1.36-1.14,1.44-.64.88-1.26,1.74-1.86,2.58-.6.84-1.22,1.66-1.86,2.46-.16.16-.3.36-.42.6-.12.24-.26.44-.42.6-1.12,1.36-2.28,2.68-3.48,3.96-1.2,1.28-2.6,2.24-4.2,2.88-.64.32-1.36.48-2.16.48s-1.46-.2-1.98-.6c-.52-.4-1.1-.92-1.74-1.56-1.28-1.44-1.92-3.12-1.92-5.04.08-1.44.42-2.8,1.02-4.08.6-1.28,1.22-2.48,1.86-3.6.16-.16.62-.84,1.38-2.04.76-1.2,1.66-2.68,2.7-4.44,1.04-1.76,2.14-3.66,3.3-5.7,1.16-2.04,2.28-3.96,3.36-5.76s2.02-3.38,2.82-4.74c.8-1.36,1.36-2.2,1.68-2.52.48-.88.86-1.72,1.14-2.52.28-.8.46-1.64.54-2.52.16-1.28.24-2.54.24-3.78v-27.54c0-.72.04-1.48.12-2.28,0-.88.08-1.76.24-2.64.16-.88.32-1.68.48-2.4.16-.48.38-1,.66-1.56.28-.56.54-1.08.78-1.56.4-.64.94-1.12,1.62-1.44.68-.32,1.42-.56,2.22-.72l.24-.12c.51-.13.95-.19,1.31-.19M382.79,12.6c-1.54,0-2.88.15-4.09.45-1.61.4-3.18,1.29-4.67,2.65l-.09.08-.08.08c-.77.77-1.4,1.68-1.89,2.73-2.26-3.64-5.81-5.63-10.05-5.63-.54,0-1.11.03-1.7.08-.91.09-1.76.29-2.57.6-2.63.95-4.79,2.7-6.24,5.08l-.22.35-.15.38c-.18.44-.33.84-.46,1.19-.11.3-.24.62-.38.98l-.14.36-.09.38c-.32,1.4-.49,2.85-.49,4.3v20.02h-.42c-.48-.04-.99-.06-1.53-.06-.59,0-1.22.02-1.88.07-1.75.13-3.3.55-4.62,1.26-.9.44-1.67.93-2.33,1.46-.02-2.67-.05-5.62-.11-8.8-.08-4.27-.29-8.19-.62-11.66-.09-1.29-.26-2.55-.5-3.74-.26-1.28-.6-2.46-1.02-3.52-.26-.69-.52-1.35-.79-1.97-.49-1.14-1.13-2.11-1.89-2.87-1-1-2.16-1.75-3.47-2.24-1.05-.39-1.97-.63-2.8-.71-.26-.03-.51-.04-.77-.04-.77,0-1.6.11-2.51.34l-.54.13-.2.1c-.93.23-1.82.55-2.65.94-1.56.73-2.82,1.85-3.73,3.31l-.13.2-.11.22-.78,1.56c-.38.77-.7,1.51-.93,2.22l-.08.24-.05.25c-.17.77-.34,1.61-.52,2.6-.2,1.09-.3,2.19-.32,3.28-.08.87-.12,1.72-.12,2.54v27.54c0,1.03-.07,2.09-.2,3.16v.08s-.02.08-.02.08c-.04.47-.13.91-.28,1.32-.15.42-.35.88-.59,1.35-.44.57-1,1.4-1.82,2.8-.79,1.35-1.73,2.92-2.8,4.7-1.11,1.86-2.26,3.83-3.42,5.86-1.19,2.08-2.25,3.93-3.26,5.63-1,1.69-1.88,3.14-2.62,4.31-.52.82-.79,1.22-.91,1.4l-.25.25-.33.57c-.7,1.22-1.39,2.56-2.04,3.96-.87,1.86-1.37,3.85-1.49,5.93v.14s0,.14,0,.14c0,3.13,1.1,6.02,3.18,8.36l.1.11.1.1c.8.8,1.52,1.44,2.22,1.98,1.4,1.08,3.14,1.64,5.03,1.64,1.5,0,2.9-.31,4.19-.91,2.21-.91,4.16-2.27,5.82-4.03,1.22-1.3,2.42-2.67,3.59-4.07.37-.41.7-.87.98-1.37h0c.69-.86,1.37-1.77,2.03-2.69.55-.77,1.12-1.56,1.71-2.37.21-.26.55-.68,1.18-1.5.46-.6.94-1.24,1.43-1.91.45.71.97,1.54,1.56,2.52l.1.16.11.15c.75,1.05,1.61,2.37,2.58,3.93,1.16,1.88,2.4,3.57,3.68,5.04,1.2,1.45,2.34,2.72,3.4,3.78,1.9,1.9,4.28,2.9,6.89,2.9h.51c1.62-.14,4.22-.75,6.49-3.13.14.39.28.78.44,1.16.8,1.99,2.04,3.53,3.67,4.58,1.05.75,2.36,1.24,3.89,1.47,1.05.16,1.92.24,2.66.24,2.95,0,5.4-.79,7.28-2.36,1.27-1.06,2.26-2.32,2.97-3.76.56,1.16,1.3,2.22,2.2,3.17,1.42,1.5,3.24,2.49,5.41,2.94.96.23,1.92.35,2.87.35,2.22,0,4.32-.63,6.23-1.87l.06-.04.06-.04c1.77-1.23,3.1-2.78,3.96-4.63,1.06-2.25,1.68-4.67,1.84-7.21.13-2.02.19-4.14.19-6.31v-30c0-5.67.04-11.34.12-16.85.08-5.61.04-11.55-.12-17.66v-.76s-.25-5.4-.25-5.4c-.11-2.33-.63-4.62-1.56-6.81-.77-2.01-1.92-3.69-3.41-4.97-1.79-1.55-4.08-2.36-6.63-2.36h0ZM347.53,82.72l-.07-.22-.2-.37c-.85-1.62-1.71-3.34-2.56-5.11-.87-1.81-1.7-3.59-2.48-5.31l-.06-.14-.07-.13c-.04-.08-.09-.16-.13-.24.4.15.81.29,1.22.39,1.12.29,2.25.45,3.36.46l2.93.14v14.2c-.49-.94-.96-1.82-1.41-2.65-.32-.59-.47-.89-.53-1.01h0Z"/>
      </g>
      <g>
        <rect class="cls-5" x="422.5" y="2.5" width="125" height="125" rx="17.5" ry="17.5"/>
        <path class="cls-6" d="M530,5c8.28,0,15,6.72,15,15v90c0,8.28-6.72,15-15,15h-90c-8.28,0-15-6.72-15-15V20c0-8.28,6.72-15,15-15h90M530,0h-90c-11.03,0-20,8.97-20,20v90c0,11.03,8.97,20,20,20h90c11.03,0,20-8.97,20-20V20c0-11.03-8.97-20-20-20h0Z"/>
      </g>
      <g>
        <path class="cls-5" d="M449.08,109.55c-1.12,0-2.29-.04-3.49-.11-2.45-.15-4.58-.97-6.35-2.42l-.09-.08c-2.22-2.01-3.34-4.37-3.34-7.01,0-1.63.47-3.29,1.4-4.95,1-1.78,2.39-3.04,4.13-3.73,1.89-.76,3.88-1.14,5.91-1.14,1.69,0,3.41-.04,5.11-.12h.71c3.79-.08,7.72-.12,11.64-.12,3.08,0,6.21.02,9.35.07l-.07-6.23h-14.99c-1.75,0-3.54-.04-5.33-.12h-.12c-2.38-.23-4.44-1.45-5.98-3.54-1.39-1.89-2.2-4.14-2.4-6.69-.08-.72-.15-1.93-.19-3.61-.04-1.6-.08-3.28-.12-5.04-.04-1.78-.06-3.44-.06-4.98v-6.02c-.08-1.08-.06-2.24.08-3.44.17-1.56.78-2.99,1.81-4.25,1.37-1.79,3.35-2.98,5.84-3.45,2.03-.39,4.02-.58,5.93-.58.46,0,1.14.04,2.19.13.39.03.73.05,1.03.05s.51-.02.62-.04l.18-.03h40.28v-5.08h-41.3c-.34,0-.71.02-1.12.05-.55.05-1.06.07-1.52.07-.42,0-.85.02-1.31.05-.59.05-1.15.07-1.69.07-1.91,0-3.46-.19-4.74-.57-2.01-.5-3.65-1.82-4.87-3.92-1.36-2.41-1.73-4.99-1.11-7.69l.03-.1c.58-2.11,1.99-3.78,4.05-4.81,1.62-.81,2.96-1.31,4.07-1.53.81-.2,1.62-.3,2.39-.3h6.18c1.29,0,2.89.02,4.79.06,1.86.04,3.83.06,5.89.06s4.15-.02,6.25-.06c2.14-.04,4.09-.06,5.87-.06h24.24c1.38,0,2.81.04,4.23.12,1.56.09,3.09.37,4.56.83,2.69.79,4.57,2.63,5.37,5.33.63,2.11.94,4.19.94,6.18v15.84c0,.74-.06,1.66-.2,2.81-.13,1.12-.32,2.29-.58,3.48-.27,1.27-.67,2.5-1.17,3.66-.65,1.47-1.52,2.55-2.59,3.22-1.49.86-2.9,1.34-4.28,1.5-.72.08-1.43.12-2.12.12-.43,0-.85-.02-1.27-.05h-44.8v4.6h47.12c.74,0,1.48.04,2.22.13,1.57.12,3.03.58,4.35,1.37,1.55.93,2.63,2.4,3.21,4.37l.03.11c.52,2.08.43,4.11-.25,6.01-.75,2.07-2.23,3.65-4.28,4.56-1.21.51-2.43.83-3.66.98-1.1.13-2.15.2-3.12.2h-18.11l.07,6.27c.99,0,1.92-.03,2.8-.05,1.66-.04,3.32-.06,4.98-.06s3.32.02,4.98.06c1.62.04,3.34.06,5.16.06h.14c.53.03,1.05.05,1.57.05.76,0,1.53-.03,2.27-.1.65-.06,1.31-.09,1.95-.09.86,0,1.71.05,2.54.16l.27.04c.3-.04.58-.06.86-.06h.15l.15.02c1.51.18,2.93.47,4.22.88,1.48.46,2.93,1.29,4.31,2.47l.07.06.07.07c1.6,1.6,2.41,3.61,2.41,5.97,0,1.1-.17,2.27-.51,3.49-.39,1.37-.92,2.45-1.65,3.29l-.06.08-.07.07c-.92.91-2.05,1.6-3.37,2.04-1.11.37-2.19.63-3.21.77-.99.13-1.89.2-2.68.2h-68.34c-.32,0-.63.01-.95.05-.47.05-.94.07-1.39.07-.69.03-1.4.05-2.13.05Z"/>
        <path class="cls-6" d="M508.87,20.84c1.36,0,2.72.04,4.08.12,1.36.08,2.68.32,3.96.72,1.92.56,3.16,1.78,3.72,3.66.56,1.88.84,3.7.84,5.46v15.84c0,.64-.06,1.48-.18,2.52-.12,1.04-.3,2.12-.54,3.24-.24,1.12-.58,2.18-1.02,3.18-.44,1-.98,1.7-1.62,2.1-1.12.64-2.2,1.02-3.24,1.14-.62.07-1.24.11-1.83.11-.4,0-.79-.02-1.17-.05h-47.4v9.6h49.62c.68,0,1.34.04,1.98.12,1.2.08,2.3.42,3.3,1.02,1,.6,1.7,1.58,2.1,2.94.4,1.6.34,3.12-.18,4.56-.52,1.44-1.5,2.48-2.94,3.12-.96.4-1.94.66-2.94.78-1,.12-1.94.18-2.82.18h-20.64l.12,11.28c1.92,0,3.7-.02,5.34-.06,1.64-.04,3.28-.06,4.92-.06s3.28.02,4.92.06c1.64.04,3.38.06,5.22.06.58.03,1.15.05,1.71.05.84,0,1.67-.04,2.49-.11.58-.05,1.16-.08,1.73-.08.76,0,1.5.05,2.24.14.16.05.32.08.48.08.08,0,.16,0,.24-.02.24-.04.48-.06.72-.06,1.36.16,2.62.42,3.78.78,1.16.36,2.3,1.02,3.42,1.98,1.12,1.12,1.68,2.52,1.68,4.2,0,.88-.14,1.82-.42,2.82-.28,1-.66,1.78-1.14,2.34-.64.64-1.44,1.12-2.4,1.44-.96.32-1.88.54-2.76.66-.88.12-1.66.18-2.34.18h-68.34c-.4,0-.8.02-1.2.06-.4.04-.8.06-1.2.06-.67.03-1.36.05-2.07.05-1.07,0-2.18-.04-3.33-.11-1.92-.12-3.56-.74-4.92-1.86-1.68-1.52-2.52-3.24-2.52-5.16,0-1.2.36-2.44,1.08-3.72.72-1.28,1.68-2.16,2.88-2.64,1.6-.64,3.26-.96,4.98-.96s3.46-.04,5.22-.12h.6c3.84-.08,7.72-.12,11.64-.12s7.88.04,11.88.12l-.12-11.28h-17.46c-1.72,0-3.46-.04-5.22-.12-1.68-.16-3.08-1-4.2-2.52-1.12-1.52-1.76-3.32-1.92-5.4-.08-.72-.14-1.88-.18-3.48-.04-1.6-.08-3.28-.12-5.04-.04-1.76-.06-3.4-.06-4.92v-6.12c-.08-.96-.06-1.98.06-3.06s.54-2.06,1.26-2.94c1.04-1.36,2.5-2.22,4.38-2.58,1.88-.36,3.7-.54,5.46-.54.4,0,1.06.04,1.98.12.46.04.87.06,1.24.06s.7-.02.98-.06h42.6v-10.08h-43.8c-.4,0-.84.02-1.32.06-.48.04-.92.06-1.32.06-.48,0-.98.02-1.5.06-.52.04-1.02.06-1.5.06-1.68,0-3.04-.16-4.08-.48-1.36-.32-2.48-1.24-3.36-2.76-1.04-1.84-1.32-3.8-.84-5.88.4-1.44,1.32-2.52,2.76-3.24,1.44-.72,2.6-1.16,3.48-1.32.64-.16,1.26-.24,1.86-.24h6.18c1.28,0,2.86.02,4.74.06,1.88.04,3.86.06,5.94.06s4.18-.02,6.3-.06c2.12-.04,4.06-.06,5.82-.06h24.24M508.87,15.84h-24.24c-1.77,0-3.76.02-5.91.06-2.02.04-4.1.06-6.21.06s-4.03-.02-5.83-.06c-1.95-.04-3.54-.06-4.85-.06h-6.18c-.95,0-1.94.12-2.92.35-1.33.26-2.85.83-4.66,1.74-2.71,1.36-4.56,3.56-5.34,6.38l-.03.1-.02.11c-.76,3.28-.29,6.56,1.36,9.47,1.94,3.36,4.51,4.64,6.39,5.12,1.17.34,2.51.55,4.05.62-.8.1-1.61.22-2.42.38-3.04.58-5.59,2.1-7.36,4.39-1.31,1.62-2.08,3.47-2.31,5.49-.15,1.32-.18,2.6-.09,3.81v5.93c0,1.61.02,3.3.06,5.04.04,1.76.08,3.45.12,5.05.04,1.69.11,2.94.2,3.82.24,2.99,1.21,5.65,2.88,7.9,1.96,2.67,4.64,4.23,7.75,4.53h.12s.12.02.12.02c1.83.08,3.66.13,5.45.13h12.51v1.2c-2.28-.03-4.56-.04-6.81-.04-3.92,0-7.85.04-11.69.12h-.78c-1.66.08-3.34.12-4.99.12-2.35,0-4.65.44-6.83,1.32-2.25.9-4.11,2.57-5.38,4.83-1.14,2.03-1.72,4.11-1.72,6.17,0,2.33.72,5.75,4.16,8.87l.09.08.09.07c2.18,1.8,4.81,2.8,7.79,2.99,1.25.08,2.47.12,3.64.12.74,0,1.48-.02,2.2-.05.52,0,1.05-.03,1.57-.08.23-.02.46-.03.7-.03h68.34c.9,0,1.92-.08,3.02-.23,1.17-.16,2.4-.45,3.66-.87,1.7-.57,3.16-1.46,4.36-2.65l.14-.14.13-.15c.96-1.13,1.67-2.51,2.15-4.24.4-1.45.61-2.85.61-4.17,0-3-1.09-5.67-3.14-7.73l-.14-.14-.15-.13c-1.64-1.4-3.38-2.4-5.19-2.96-1.44-.45-3.01-.77-4.67-.97l-.29-.04h-.3c-.27,0-.55.01-.83.04-.93-.12-1.89-.17-2.85-.17-.71,0-1.44.03-2.17.1-.67.06-1.36.09-2.05.09-.47,0-.95-.01-1.43-.04h-.14s-.14,0-.14,0c-1.87,0-3.54-.02-5.1-.06-1.71-.04-3.4-.06-5.05-.06s-3.34.02-5.04.06c-.09,0-.18,0-.27,0v-1.23s15.57,0,15.57,0c1.07,0,2.22-.07,3.42-.22,1.46-.17,2.9-.55,4.27-1.13l.05-.02.05-.02c2.69-1.19,4.63-3.26,5.61-5.99.86-2.38.97-4.9.33-7.47l-.03-.11-.03-.11c-.96-3.23-2.88-4.94-4.32-5.81-1.64-.98-3.45-1.56-5.39-1.71-.02,0-.03,0-.05,0,1.37-.29,2.74-.82,4.09-1.6l.08-.05.08-.05c1.5-.94,2.7-2.39,3.55-4.32.58-1.32,1.03-2.71,1.33-4.15.27-1.27.48-2.52.62-3.71.14-1.24.21-2.26.21-3.09v-15.84c0-2.23-.35-4.54-1.05-6.88-1.04-3.49-3.55-5.98-7.07-7.02-1.65-.51-3.37-.82-5.11-.92-1.48-.09-2.95-.13-4.38-.13h0ZM460.38,39.58c.06,0,.13-.01.19-.02.34-.03.65-.04.89-.04h38.8v.08h-37.96l-.36.05h0s-.08,0-.26,0c-.22,0-.49-.01-.8-.04-.18-.02-.35-.03-.51-.04h0Z"/>
      </g>
      <g>
        <rect class="cls-3" x="142.5" y="142.5" width="125" height="125" rx="17.5" ry="17.5"/>
        <path class="cls-6" d="M250,145c8.28,0,15,6.72,15,15v90c0,8.28-6.72,15-15,15h-90c-8.28,0-15-6.72-15-15v-90c0-8.28,6.72-15,15-15h90M250,140h-90c-11.03,0-20,8.97-20,20v90c0,11.03,8.97,20,20,20h90c11.03,0,20-8.97,20-20v-90c0-11.03-8.97-20-20-20h0Z"/>
      </g>
      <g>
        <path class="cls-3" d="M176.61,257.66c-1.73,0-3.52-.04-5.33-.12-2.32-.11-4.29-.96-5.86-2.53-1.54-1.54-2.43-3.56-2.64-5.99-.16-1.35-.27-2.94-.31-4.66-.04-1.66-.06-3.06-.06-4.2v-.97c-.08-1.02-.06-2.16.07-3.48.17-1.69.78-3.19,1.81-4.45l.1-.12c1.42-1.53,3.36-2.51,5.79-2.92,2.02-.34,4-.52,5.88-.52h2.52c.43,0,.85.03,1.24.08.17.03.31.04.44.04h48.5v-.16h-49.7c-.49,0-1.01-.02-1.54-.07-.07,0-.16,0-.24,0-.14,0-.27.01-.37.03l-.24.05h-5.41c-.85,0-1.7-.11-2.53-.32-.65-.16-1.28-.32-1.9-.49-.84-.22-2.04-.8-2.97-2.29-1.39-2.13-1.79-4.61-1.14-7.11l.03-.12.05-.12c.41-1.09,1.06-1.97,1.92-2.62.67-.5,1.44-.92,2.3-1.24.76-.29,1.51-.5,2.25-.65.63-.13,1.19-.23,1.69-.31l.11-.02c.69-.08,1.35-.15,2-.19.66-.04,1.38-.07,2.15-.07h2.04c.5,0,.97.03,1.39.08.21.03.47.04.77.04h53.04c.62,0,1.22.01,1.8.04-.66-.2-1.27-.48-1.82-.83-2.08-1.24-3.48-2.91-4.1-4.9-.53-1.68-.77-2.89-.77-3.81v-35.67c-.07-.56-.06-1.4.14-3.13.19-1.72.6-3.22,1.21-4.44.8-1.68,2.65-3.83,6.79-4.25.61-.08,1.29-.13,1.93-.13,2.85,0,5.13.92,6.78,2.75l.08.08.07.09c.64.85,1.1,1.71,1.39,2.56.21.63.4,1.29.57,1.96.3.94.47,2.17.52,3.74.04,1.41.02,2.54-.06,3.43v5.99c.7.03,1.42.06,2.16.09,1,.04,1.96.11,2.88.19.97.09,1.68.18,2.18.28,2.1.42,3.59,1.08,4.59,2.01,1.01.95,1.66,2.12,1.93,3.49.28,1.07.42,2.28.42,3.62,0,1.62-.36,3.04-1.08,4.23-1.36,2.27-3.51,3.62-6.21,3.9-1.98.21-4.17.35-6.53.43h-.34v8.42c0,2.63-.78,4.98-2.32,6.98-1.09,1.42-3.14,3.1-6.77,3.3,2.04.36,3.76.95,5.19,1.77,2.05,1.18,4.5,3.56,4.5,8.23v9.36c0,1.48-.32,2.92-.95,4.29-.69,1.48-1.89,2.77-3.58,3.83-1.55.89-3.03,1.34-4.47,1.4-1.07.04-2.1.06-3.09.06h-53.3v.64h57.66c1.54.11,2.98.5,4.29,1.18,1.58.82,2.73,2.26,3.33,4.17,1.28,4.18-.41,7.49-4.62,9.08-1.12.47-2.37.77-3.62.87-1.08.08-2.09.13-3.02.13h-59.58ZM193.41,209.78c-1.98,0-4.09-.02-6.35-.06-2.22-.04-4.33-.06-6.31-.06h-4.08c-1.47,0-2.91-.02-4.33-.06-1.49-.04-2.95-.17-4.33-.39-1.5-.23-2.9-.64-4.14-1.22-1.46-.67-2.65-1.7-3.55-3.04-.9-1.29-1.54-2.96-1.88-4.92-.29-1.65-.5-3.28-.63-4.85-.13-1.58-.17-2.99-.13-4.19.04-1.02.06-1.6.06-1.73v-5.62c0-1.15.04-2.43.12-3.79,0-1.48.02-2.74.06-3.86.04-1.08.06-2.05.06-2.91v-3.96c0-.73.04-1.52.13-2.36.09-.84.22-1.69.4-2.53.22-1.06.59-1.98,1.09-2.73.89-1.38,1.84-2.42,2.89-3.14,1.04-.71,2.34-1.22,3.86-1.53.53-.1,1.21-.18,2.16-.22.76-.04,1.47-.09,2.13-.17,1.02-.09,2.02-.14,3.04-.14h27.12c1.86,0,3.86.15,5.93.45,2.3.33,4.39,1.08,6.2,2.22,1.61.96,2.79,2.28,3.48,3.89.57,1.33.95,2.76,1.14,4.27.18,1.43.22,2.9.13,4.36-.08,1.25-.12,2.43-.12,3.51,0,1.36-.02,2.27-.07,2.8-.01.12-.04.59.06,2.2v.16s0,6.85,0,6.85l-.05.24c-.03.17-.04.38-.02.61.05.57.07,1.12.07,1.65v.19l-.03.19c-.13.84-.16,1.67-.1,2.48.09,1.08.13,2.22.13,3.38,0,.98-.07,2.02-.2,3.12-.14,1.18-.43,2.38-.85,3.55-.44,1.23-1.05,2.36-1.79,3.35-.89,1.18-2.05,2.03-3.45,2.52-2.26.94-4.66,1.42-7.12,1.42h-.35c-2.21-.04-4.36-.06-6.46-.06-.53.06-1.51.12-3.94.12ZM187.21,190.9c.55,0,1.06,0,1.53.02,1.31.04,3.01.06,5.21.06.69,0,1.39.02,2.12.06.1,0,.18,0,.27,0,.33,0,.65-.04.96-.12l.11-.03s.01-.04.02-.06c.13-.54.14-.79.14-.85v-.26l.05-.25c.28-1.35.43-2.92.43-4.65,0-1.4.02-2.31.07-2.86.01-.15.03-.68-.06-2.2-.09-.77-.11-1.55-.06-2.31.02-.28,0-.56-.05-.85-.45-.06-.91-.09-1.36-.09l-14.8-.24h-1.94c-.33,0-.61.04-.83.11l-.3.1-.31.02c-.4.03-.66.15-.93.44-.02.07-.04.2-.06.43-.04.73-.06,1.16-.06,1.32v2.8l-.02.16c-.07.53-.1,1.01-.1,1.43v2.82c0,.92.02,1.67.06,2.24.03.49.11.99.23,1.47.07.28.18.5.33.69.21.27.73.43,1.41.49,1.36.11,2.74.17,4.11.17h.12c1.33-.05,2.6-.08,3.7-.08Z"/>
        <path class="cls-6" d="M237.63,157.6c2.13,0,3.77.64,4.92,1.92.48.64.82,1.26,1.02,1.86.2.6.38,1.22.54,1.86.24.72.38,1.76.42,3.12.04,1.36.02,2.44-.06,3.24v8.52c.32,0,.92.02,1.8.06.88.04,1.8.08,2.76.12.96.04,1.88.1,2.76.18.88.08,1.52.16,1.92.24,1.6.32,2.72.78,3.36,1.38.64.6,1.04,1.34,1.2,2.22.24.88.36,1.9.36,3.06s-.24,2.14-.72,2.94c-.96,1.6-2.4,2.5-4.32,2.7-1.92.2-4.04.34-6.36.42h-2.76v10.92c0,2.08-.6,3.9-1.8,5.46-1.2,1.56-3.04,2.34-5.52,2.34-1.36,0-2.48-.28-3.36-.84-1.6-.96-2.62-2.14-3.06-3.54-.44-1.4-.66-2.42-.66-3.06v-35.88c-.08-.32-.04-1.2.12-2.64.16-1.44.48-2.64.96-3.6.8-1.68,2.4-2.64,4.8-2.88.59-.08,1.15-.12,1.68-.12M200.79,158.8c1.76,0,3.62.14,5.58.42,1.96.28,3.7.9,5.22,1.86,1.2.72,2.04,1.64,2.52,2.76.48,1.12.8,2.32.96,3.6.16,1.28.2,2.58.12,3.9-.08,1.32-.12,2.54-.12,3.66,0,1.28-.02,2.14-.06,2.58-.04.44-.02,1.3.06,2.58v6.6c-.08.4-.1.84-.06,1.32.04.48.06.96.06,1.44-.16,1.04-.2,2.06-.12,3.06.08,1,.12,2.06.12,3.18,0,.88-.06,1.82-.18,2.82-.12,1-.36,2-.72,3-.36,1-.84,1.9-1.44,2.7-.6.8-1.38,1.36-2.34,1.68-1.99.84-4.07,1.26-6.24,1.26-.1,0-.2,0-.3,0-2.28-.04-4.5-.06-6.66-.06-.56.08-1.82.12-3.78.12s-4.06-.02-6.3-.06c-2.24-.04-4.36-.06-6.36-.06h-4.08c-1.44,0-2.86-.02-4.26-.06-1.4-.04-2.74-.16-4.02-.36-1.28-.2-2.44-.54-3.48-1.02-1.04-.48-1.88-1.2-2.52-2.16-.72-1.04-1.22-2.36-1.5-3.96-.28-1.6-.48-3.14-.6-4.62-.12-1.48-.16-2.78-.12-3.9.04-1.12.06-1.72.06-1.8v-5.64c0-1.12.04-2.36.12-3.72,0-1.44.02-2.72.06-3.84.04-1.12.06-2.12.06-3v-3.96c0-.64.04-1.34.12-2.1.08-.76.2-1.52.36-2.28.16-.76.4-1.38.72-1.86.72-1.12,1.46-1.94,2.22-2.46.76-.52,1.74-.9,2.94-1.14.4-.08,1-.14,1.8-.18.8-.04,1.56-.1,2.28-.18.88-.08,1.8-.12,2.76-.12h27.12M183.39,193.48h.12c1.39-.05,2.63-.08,3.7-.08.53,0,1.01,0,1.46.02,1.36.04,3.12.06,5.28.06.64,0,1.3.02,1.98.06.14,0,.28.01.41.01.53,0,1.06-.06,1.57-.19.64-.08,1.08-.28,1.32-.6.24-.32.44-.72.6-1.2.16-.64.24-1.16.24-1.56.32-1.52.48-3.24.48-5.16,0-1.28.02-2.16.06-2.64.04-.48.02-1.36-.06-2.64-.08-.64-.1-1.28-.06-1.92.04-.64-.02-1.28-.18-1.92-.32-.88-.84-1.38-1.56-1.5-.72-.12-1.44-.18-2.16-.18l-14.76-.24h-1.98c-.6,0-1.14.08-1.62.24-1.12.08-2.04.56-2.76,1.44-.32.4-.5,1-.54,1.8-.04.8-.06,1.28-.06,1.44v2.64c-.08.64-.12,1.22-.12,1.74v2.82c0,.96.02,1.76.06,2.4.04.64.14,1.28.3,1.92.16.64.44,1.2.84,1.68.64.8,1.68,1.26,3.12,1.38s2.88.18,4.32.18M177.27,214.6c.4,0,.76.02,1.08.06.32.04.68.06,1.08.06h53.04c4.08,0,7.2.62,9.36,1.86,2.16,1.24,3.24,3.26,3.24,6.06v9.36c0,1.12-.24,2.2-.72,3.24-.48,1.04-1.36,1.96-2.64,2.76-1.12.64-2.2.98-3.24,1.02-1.04.04-2.04.06-3,.06h-55.8v5.64h60c1.2.08,2.3.38,3.3.9,1,.52,1.7,1.42,2.1,2.7.88,2.88-.16,4.88-3.12,6-.96.4-1.94.64-2.94.72-1,.08-1.94.12-2.82.12h-59.58c-1.72,0-3.46-.04-5.22-.12-1.68-.08-3.08-.68-4.2-1.8-1.12-1.12-1.76-2.6-1.92-4.44-.16-1.36-.26-2.86-.3-4.5-.04-1.64-.06-3.02-.06-4.14v-1.08c-.08-.88-.06-1.92.06-3.12s.54-2.24,1.26-3.12c1.04-1.12,2.5-1.84,4.38-2.16,1.88-.32,3.7-.48,5.46-.48h2.52c.32,0,.62.02.9.06.28.04.54.06.78.06h51v-5.16h-52.2c-.4,0-.84-.02-1.32-.06-.16-.01-.31-.02-.46-.02-.3,0-.59.03-.86.08h-5.16c-.64,0-1.28-.08-1.92-.24-.64-.16-1.26-.32-1.86-.48-.6-.16-1.1-.56-1.5-1.2-1.04-1.6-1.32-3.32-.84-5.16.24-.64.6-1.14,1.08-1.5.48-.36,1.04-.66,1.68-.9.64-.24,1.26-.42,1.86-.54s1.14-.22,1.62-.3c.64-.08,1.26-.14,1.86-.18.6-.04,1.26-.06,1.98-.06h2.04M237.63,152.6h0c-.73,0-1.49.05-2.27.15-5.47.58-7.8,3.76-8.71,5.65-.74,1.5-1.21,3.21-1.44,5.24-.19,1.66-.24,2.71-.15,3.55v35.52c0,1.2.27,2.61.89,4.56.27.86.65,1.68,1.13,2.44h-13.02c1.02-.64,1.92-1.46,2.66-2.44.89-1.19,1.62-2.54,2.14-4.01.48-1.35.81-2.73.98-4.1.14-1.19.22-2.34.22-3.42,0-1.23-.05-2.43-.14-3.57-.05-.62-.02-1.26.08-1.9l.06-.38v-.39c0-.6-.03-1.22-.08-1.85v-.03s.08-.39.08-.39v-7.41c-.1-1.39-.08-1.8-.08-1.84.03-.36.08-1.09.08-3,0-1.03.04-2.16.11-3.36.1-1.63.05-3.25-.15-4.82-.22-1.75-.67-3.41-1.33-4.95-.9-2.09-2.41-3.78-4.49-5.05-2.1-1.32-4.5-2.17-7.13-2.55-2.2-.31-4.31-.47-6.29-.47h-27.12c-1.09,0-2.17.05-3.21.14h-.06s-.06.01-.06.01c-.61.07-1.27.12-1.96.15-1.09.06-1.88.14-2.53.27-1.86.37-3.47,1.02-4.79,1.92-1.32.91-2.49,2.17-3.58,3.85-.66,1-1.14,2.2-1.43,3.57-.19.92-.34,1.86-.44,2.79-.1.92-.15,1.8-.15,2.62v3.96c0,.8-.02,1.75-.06,2.82-.04,1.12-.06,2.39-.06,3.87-.08,1.39-.12,2.69-.12,3.87v5.6c0,.19-.02.74-.06,1.67-.05,1.32,0,2.78.13,4.48.13,1.64.35,3.35.66,5.08.4,2.29,1.17,4.28,2.29,5.9,1.15,1.72,2.69,3.03,4.56,3.89.86.4,1.77.72,2.73.98-.84.37-1.62.82-2.32,1.34-1.25.94-2.18,2.2-2.76,3.74l-.09.24-.07.25c-.83,3.19-.33,6.34,1.46,9.11.59.93,1.31,1.69,2.14,2.28-.48.37-.93.78-1.35,1.23l-.11.12-.1.12c-1.35,1.65-2.14,3.6-2.36,5.79-.14,1.43-.17,2.68-.08,3.82v.87c0,1.21.02,2.65.06,4.27.04,1.76.15,3.41.32,4.89.28,3,1.41,5.51,3.36,7.46,1.99,1.99,4.58,3.12,7.49,3.26,1.86.08,3.7.13,5.46.13h59.58c.99,0,2.07-.05,3.21-.14,1.5-.12,2.98-.48,4.39-1.06,5.38-2.08,7.7-6.71,6.05-12.11-.95-3.03-2.77-4.64-4.24-5.49,1.47-1.15,2.57-2.5,3.28-4.03.78-1.69,1.18-3.49,1.18-5.34v-9.36c0-4.31-1.82-7.84-5.14-10.02.7-.57,1.26-1.18,1.7-1.75,1.88-2.45,2.84-5.31,2.84-8.51v-6.01c1.64-.09,3.2-.2,4.64-.36,3.45-.36,6.33-2.17,8.09-5.1.95-1.58,1.43-3.44,1.43-5.51,0-1.52-.16-2.93-.49-4.18-.38-1.83-1.29-3.47-2.65-4.74-1.35-1.27-3.25-2.13-5.8-2.64-.62-.12-1.39-.22-2.45-.32-.91-.08-1.84-.14-2.78-.19v-3.49c.08-.97.1-2.16.06-3.61-.05-1.8-.25-3.19-.61-4.36-.18-.71-.38-1.4-.6-2.05-.37-1.12-.97-2.22-1.76-3.28l-.14-.18-.15-.17c-1.47-1.63-4.16-3.57-8.63-3.57h0ZM179.87,178.8h1.92l13.7.22c.02.33.04.66.08.98.08,1.35.06,1.76.06,1.8-.05.59-.08,1.54-.08,3.03,0,1.36-.1,2.59-.28,3.66-.46-.02-.89-.02-1.32-.02-2.17,0-3.85-.02-5.13-.06-.5-.01-1.04-.02-1.61-.02-1.1,0-2.37.03-3.79.08h-.03c-1.18,0-2.38-.05-3.56-.13-.01-.11-.02-.22-.03-.33-.03-.53-.05-1.23-.05-2.09v-2.82c0-.31.03-.69.08-1.12l.04-.31v-2.87h0Z"/>
      </g>
      <g>
        <rect class="cls-4" x="2.5" y="142.5" width="125" height="125" rx="17.5" ry="17.5"/>
        <path class="cls-6" d="M110,145c8.28,0,15,6.72,15,15v90c0,8.28-6.72,15-15,15H20c-8.28,0-15-6.72-15-15v-90c0-8.28,6.72-15,15-15h90M110,140H20c-11.03,0-20,8.97-20,20v90c0,11.03,8.97,20,20,20h90c11.03,0,20-8.97,20-20v-90c0-11.03-8.97-20-20-20h0Z"/>
      </g>
      <g>
        <path class="cls-4" d="M97.94,257.61c-.21,0-.41,0-.62,0-1.25-.04-2.34-.06-3.28-.06h-51.48c-1.7,0-3.34-.02-4.92-.06-1.57-.04-3.33-.1-5.26-.18h-.12c-2.55-.24-4.56-1.47-5.81-3.55-.98-1.63-1.66-3.31-2.04-5.01-.45-2.31-.64-4.57-.6-6.77.04-2.02.06-4.07.06-6.13,0-1.44-.06-2.89-.17-4.3-.13-1.59-.15-3.22-.06-4.83.08-1.41.21-2.83.37-4.24.21-1.81.91-3.49,2.08-4.97l.11-.13c2.64-2.94,6.18-4.43,10.5-4.43h2.89l.25.05c.33.07.46.07.47.07h24.6c4.17,0,8.34.02,12.5.06.84,0,1.68.01,2.52.01,3.29,0,6.64-.06,9.96-.19,1.02,0,2.18-.04,3.56-.12.53-.03,1.05-.04,1.58-.04,1.05,0,2.11.06,3.15.17,1.63.18,3.16.53,4.58,1.03,1.84.65,3.2,1.79,4.07,3.39,1.09,2.07,1.16,4.26.19,6.37-1.25,2.74-3.27,3.57-4.77,3.77-.25.04-.5.09-.75.13.03,0,.07,0,.1,0,1.67.06,3.13.59,4.35,1.57l.11.09.1.1c1.29,1.29,2.06,3.06,2.28,5.24.23,2.33-.31,4.23-1.6,5.65-.75.88-1.74,1.52-2.89,1.86-.84.25-1.78.42-2.81.51-.09.01-.18.02-.28.03,1.24.24,2.44.67,3.58,1.28,1.36.74,3.6,2.58,3.28,6.71-.15,2.56-1.31,4-2.25,4.76-1.11.88-2.42,1.49-3.92,1.81-1.13.24-2.33.36-3.58.36ZM94.87,212.66c-1.84,0-3.42-.41-4.7-1.23-2.08-1.24-3.48-2.91-4.1-4.9-.53-1.68-.77-2.89-.77-3.81v-35.67c-.07-.56-.06-1.4.14-3.13.19-1.72.6-3.22,1.21-4.44.8-1.69,2.65-3.83,6.79-4.25.61-.08,1.29-.13,1.93-.13,2.85,0,5.13.92,6.77,2.75l.08.08.07.09c.64.85,1.1,1.71,1.39,2.56.21.63.4,1.29.57,1.96.3.94.47,2.17.52,3.74.04,1.41.02,2.54-.06,3.43v7.19c.7.03,1.42.06,2.16.09,1,.04,1.96.11,2.88.19.98.09,1.69.18,2.18.28,2.09.42,3.59,1.08,4.58,2.01,1.01.95,1.66,2.12,1.93,3.49.28,1.07.42,2.29.42,3.62,0,1.62-.36,3.04-1.08,4.23-1.36,2.27-3.51,3.62-6.21,3.9-1.97.21-4.17.35-6.53.43h-.34v7.22c0,2.63-.78,4.98-2.32,6.98-1.16,1.51-3.41,3.32-7.5,3.32ZM34.39,207.26c-2.71,0-4.9-.3-6.69-.92-1.99-.68-3.77-2.04-5.27-4.04-1.84-2.42-2.78-5.19-2.78-8.22,0-3.35-.04-6.57-.12-9.59-.08-3.06-.04-6.37.12-9.84.08-2.01.1-4.17.06-6.38-.05-2.72.56-5.23,1.82-7.45.74-1.37,1.86-2.55,3.3-3.46,1.38-.87,2.84-1.41,4.35-1.62.42-.06.84-.09,1.26-.09,1.16,0,2.29.22,3.38.67,1.58.64,2.84,1.73,3.77,3.22,1.69,2.82,2.52,5.83,2.47,8.97-.04,2.67-.06,5.4-.06,8.18,0,1.9.02,3.72.06,5.46.04,1.67.17,3.48.4,5.4.04.47.1.69.13.76.08.08.15.11.23.13.34.1.75.15,1.24.15h2.16s25.39.72,25.4.72c1.57,0,3.03.53,4.16,1.52.98.87,1.72,1.93,2.18,3.14.4,1.06.65,2.17.75,3.31.1,1.13.05,2.17-.15,3.11-.38,2.68-1.85,4.63-4.25,5.65-1.9.81-4.13,1.22-6.62,1.22h-31.32Z"/>
        <path class="cls-6" d="M95.35,157.6c2.13,0,3.77.64,4.92,1.92.48.64.82,1.26,1.02,1.86.2.6.38,1.22.54,1.86.24.72.38,1.76.42,3.12.04,1.36.02,2.44-.06,3.24v9.72c.32,0,.92.02,1.8.06.88.04,1.8.08,2.76.12.96.04,1.88.1,2.76.18.88.08,1.52.16,1.92.24,1.6.32,2.72.78,3.36,1.38.64.6,1.04,1.34,1.2,2.22.24.88.36,1.9.36,3.06s-.24,2.14-.72,2.94c-.96,1.6-2.4,2.5-4.32,2.7-1.92.2-4.04.34-6.36.42h-2.76v9.72c0,2.08-.6,3.9-1.8,5.46-1.2,1.56-3.04,2.34-5.52,2.34-1.36,0-2.48-.28-3.36-.84-1.6-.96-2.62-2.14-3.06-3.54-.44-1.4-.66-2.42-.66-3.06v-35.88c-.08-.32-.04-1.2.12-2.64.16-1.44.48-2.64.96-3.6.8-1.68,2.4-2.64,4.8-2.88.59-.08,1.15-.12,1.68-.12M30.45,158.14c.84,0,1.65.16,2.44.48,1.08.44,1.94,1.18,2.58,2.22,1.44,2.4,2.14,4.94,2.1,7.62-.04,2.68-.06,5.42-.06,8.22,0,1.92.02,3.76.06,5.52.04,1.76.18,3.64.42,5.64.08.96.32,1.66.72,2.1.4.44.88.74,1.44.9.56.16,1.2.24,1.92.24h2.16l25.32.72c1.04,0,1.9.3,2.58.9.68.6,1.18,1.32,1.5,2.16.32.84.52,1.72.6,2.64.08.92.04,1.74-.12,2.46-.24,1.84-1.16,3.1-2.76,3.78-1.6.68-3.48,1.02-5.64,1.02h-31.32c-2.4,0-4.36-.26-5.88-.78-1.52-.52-2.88-1.58-4.08-3.18-1.52-2-2.28-4.24-2.28-6.72,0-3.44-.04-6.66-.12-9.66-.08-3-.04-6.22.12-9.66.08-2.08.1-4.26.06-6.54-.04-2.28.46-4.34,1.5-6.18.56-1.04,1.38-1.9,2.46-2.58,1.08-.68,2.2-1.1,3.36-1.26.31-.04.61-.06.92-.06M94.99,215.28c.96,0,1.92.05,2.88.16,1.44.16,2.78.46,4.02.9,1.24.44,2.14,1.18,2.7,2.22.72,1.36.76,2.74.12,4.14-.64,1.4-1.6,2.18-2.88,2.34-2.03.36-4,.55-5.9.55-.19,0-.39,0-.58,0-2.08-.04-4.24-.06-6.48-.06h-43.2c-.64,0-1.24-.04-1.8-.12-.28-.04-.57-.06-.87-.06s-.61.02-.93.06c-.72.08-1.14.18-1.26.3s-.18.5-.18,1.14v2.88c.25.38.63.58,1.11.58.12,0,.25-.01.39-.04.68-.12,1.3-.18,1.86-.18,1.02-.13,1.96-.19,2.8-.19.21,0,.42,0,.62.01,1,.04,2.18.06,3.54.06,2.32,0,4.64.02,6.96.06,2.32.04,4.64.06,6.96.06h33.6c.88,0,1.88.02,3,.06,1.12.04,2.08.38,2.88,1.02.88.88,1.4,2.12,1.56,3.72.16,1.6-.16,2.84-.96,3.72-.48.56-1.06.94-1.74,1.14-.68.2-1.46.34-2.34.42-1.56.18-3.14.27-4.72.27-.53,0-1.05,0-1.58-.03-2.12-.08-4.02-.12-5.7-.12h-46.68c-.4,0-.8.08-1.2.24l-.24,3.84c.4.16.84.26,1.32.3.48.04.92.1,1.32.18.64.08,1.06.12,1.26.12h53.82c1.68,0,3.26.4,4.74,1.2,1.48.8,2.14,2.24,1.98,4.32-.08,1.36-.52,2.36-1.32,3-.8.64-1.76,1.08-2.88,1.32-.96.21-1.98.31-3.06.31-.18,0-.36,0-.54,0-1.28-.04-2.4-.06-3.36-.06h-51.48c-1.68,0-3.3-.02-4.86-.06-1.56-.04-3.3-.1-5.22-.18-1.76-.16-3.06-.94-3.9-2.34-.84-1.4-1.42-2.82-1.74-4.26-.4-2.08-.58-4.14-.54-6.18.04-2.04.06-4.1.06-6.18,0-1.52-.06-3.02-.18-4.5-.12-1.48-.14-2.98-.06-4.5.08-1.36.2-2.72.36-4.08.16-1.36.68-2.6,1.56-3.72,2.16-2.4,5.04-3.6,8.64-3.6h2.64c.4.08.72.12.96.12h24.6c4.16,0,8.32.02,12.48.06.85,0,1.69.01,2.54.01,3.33,0,6.68-.06,10.06-.19.96,0,2.16-.04,3.6-.12.48-.03.96-.04,1.44-.04M95.35,152.6h0c-.73,0-1.49.05-2.27.15-5.47.58-7.8,3.76-8.71,5.65-.73,1.48-1.22,3.24-1.44,5.25-.19,1.66-.24,2.71-.15,3.54v35.52c0,1.2.27,2.6.89,4.56.38,1.2.95,2.3,1.73,3.29-1.85.04-3.69.06-5.52.06-.83,0-1.66,0-2.49-.01-4.19-.04-8.41-.06-12.53-.06h-24.46s-.07-.01-.11-.02l-.49-.1h-3.14c-4.99,0-9.26,1.82-12.36,5.26l-.11.12-.1.13c-1.45,1.85-2.33,3.95-2.6,6.23-.17,1.45-.3,2.92-.39,4.37-.09,1.75-.07,3.49.07,5.19.11,1.34.16,2.72.16,4.1,0,2.01-.02,4.06-.06,6.08-.05,2.38.16,4.81.63,7.22v.07s.03.07.03.07c.43,1.96,1.22,3.89,2.33,5.75,1.66,2.76,4.4,4.44,7.73,4.75h.12s.13.02.13.02c1.91.08,3.7.14,5.29.18,1.61.04,3.29.06,4.99.06h51.48c.94,0,2.02.02,3.2.06.24,0,.47.01.7.01,1.42,0,2.8-.14,4.1-.42,1.88-.4,3.54-1.18,4.95-2.3,1.34-1.07,2.97-3.08,3.19-6.57.23-3.15-.75-5.87-2.73-7.73.45-.35.87-.75,1.26-1.19,1.22-1.36,2.56-3.76,2.18-7.52-.28-2.77-1.29-5.05-3-6.76l-.2-.2-.1-.08c.66-.72,1.22-1.58,1.67-2.56,1.28-2.8,1.19-5.84-.25-8.56-1.15-2.13-2.99-3.69-5.34-4.55.25-.27.48-.54.68-.8,1.88-2.45,2.84-5.31,2.84-8.51v-4.81c1.64-.09,3.2-.2,4.64-.36,3.45-.36,6.33-2.17,8.09-5.1.95-1.58,1.43-3.44,1.43-5.51,0-1.52-.16-2.92-.48-4.18-.38-1.83-1.3-3.47-2.65-4.74-1.35-1.27-3.25-2.13-5.8-2.64-.6-.12-1.37-.22-2.44-.32-.91-.08-1.84-.14-2.78-.19v-4.69c.08-.98.1-2.16.06-3.61-.05-1.8-.25-3.19-.61-4.35-.18-.7-.38-1.39-.6-2.05-.37-1.12-.97-2.22-1.76-3.28l-.14-.18-.15-.17c-1.47-1.63-4.16-3.57-8.63-3.57h0ZM30.45,153.14c-.53,0-1.07.04-1.6.11-1.87.26-3.66.92-5.34,1.98-1.81,1.14-3.21,2.62-4.18,4.4-1.46,2.61-2.18,5.53-2.12,8.69.04,2.16.02,4.27-.06,6.26-.16,3.49-.21,6.86-.12,9.98.08,3,.12,6.2.12,9.53,0,3.59,1.11,6.87,3.3,9.75,1.79,2.39,3.96,4.04,6.45,4.89,2.05.7,4.5,1.05,7.49,1.05h31.32c2.83,0,5.38-.48,7.6-1.42,3.18-1.35,5.21-4.02,5.73-7.52.23-1.15.29-2.41.17-3.75-.12-1.38-.43-2.72-.91-3.98-.61-1.61-1.58-3-2.86-4.14-1.58-1.39-3.58-2.14-5.81-2.15l-25.26-.72h-.07s-.07,0-.07,0h-1.4c-.14-1.41-.23-2.75-.26-3.99-.04-1.68-.06-3.45-.06-5.41,0-2.89.02-5.56.06-8.14.05-3.62-.89-7.07-2.81-10.27l-.02-.03-.02-.03c-1.19-1.93-2.9-3.39-4.95-4.22-1.4-.57-2.85-.85-4.33-.85h0Z"/>
      </g>
      <g>
        <rect class="cls-8" x="282.5" y="142.5" width="125" height="125" rx="17.5" ry="17.5"/>
        <path class="cls-6" d="M390,145c8.28,0,15,6.72,15,15v90c0,8.28-6.72,15-15,15h-90c-8.28,0-15-6.72-15-15v-90c0-8.28,6.72-15,15-15h90M390,140h-90c-11.03,0-20,8.97-20,20v90c0,11.03,8.97,20,20,20h90c11.03,0,20-8.97,20-20v-90c0-11.03-8.97-20-20-20h0Z"/>
      </g>
      <g>
        <path class="cls-8" d="M378.94,257.08c-.72,0-1.45-.06-2.17-.17l-.11-.02c-1.64-.33-3.05-1.01-4.18-2.03-1.02-.91-1.8-2.08-2.3-3.47-.4-1.12-.72-2.22-.94-3.28-.24-1.14-.35-2.48-.35-4.11v-76.08c0-1.25.09-2.5.27-3.72.17-1.23.42-2.39.74-3.43.4-1.31,1.03-2.41,1.88-3.26,1.25-1.25,2.63-2.01,4.11-2.26,1.1-.18,2.29-.27,3.53-.27,1.84,0,3.55.5,5.07,1.48,1.56,1.01,2.7,2.41,3.37,4.17.82,1.94,1.29,3.97,1.38,6.04l.24,5.46c.16,6.45.2,12.94.12,19.34-.08,6.28-.12,12.37-.12,18.09v30c0,1.91-.11,3.87-.31,5.84-.22,2.03-.67,4.16-1.37,6.32l-.05.14c-.6,1.57-1.72,2.83-3.32,3.76-1.19.74-2.49,1.2-3.89,1.36-.54.06-1.08.09-1.62.09ZM331.28,255.28c-.25,0-.5,0-.75-.03-1.09-.1-2.1-.29-3.06-.58-1.11-.33-2.12-.87-3.02-1.59-.95-.77-1.72-1.82-2.28-3.11-.54-1.24-.81-2.76-.81-4.65l-.31-16.53c-2.21-.07-4.36-.15-6.42-.24l-9.48-.42c-1.37-.09-2.7-.35-4.01-.78-1.52-.49-2.92-1.41-4.16-2.75-1.42-1.44-2.13-3.43-2.13-5.93,0-2.28.69-4.24,2.04-5.83.85-.97,1.89-1.68,3.11-2.15.96-.37,1.92-.65,2.86-.83.97-.19,1.82-.29,2.59-.29h38.35c-.61-.53-1.16-1.17-1.63-1.91-.84-1.39-1.4-2.46-1.76-3.33-.39-.92-.67-1.83-.82-2.7-.16-.89-.19-1.88-.09-2.95.02-.17.03-.36.04-.56h-32.83c-.96,0-1.74-.09-2.4-.27-.65-.18-1.32-.46-1.98-.85-.86-.5-1.57-1.24-2.11-2.18l-.06-.12c-.66-1.32-.99-2.91-.99-4.84s.41-3.66,1.23-4.94c.9-1.42,1.98-2.3,3.2-2.63.62-.16,1.25-.33,1.9-.49l.3-.08h.24l.19-.05c.78-.2,1.6-.32,2.43-.37.64-.04,1.29-.09,1.97-.17h.11c1.17-.09,2.66-.15,4.44-.19l5.52-.12c1.94-.04,3.84-.06,5.69-.06h10.02c1.09,0,2.17.01,3.2.04v-2.04c0-.71-.02-1.44-.06-2.2-1.92-.07-4.04-.14-6.35-.23-3.24-.12-6.13-.22-8.69-.3h-.04c-2.87,0-5.95.1-9.15.3-1.13.07-2.25.11-3.35.11-2.2,0-4.37-.14-6.44-.42-1.56-.18-3.76-1.1-5.05-4.38-.79-2-1.19-4.19-1.19-6.5v-.11c.14-3.31,1.78-5.11,3.12-6.03,1.49-1.02,3.06-1.78,4.67-2.26,1.89-.54,3.73-.83,5.5-.88,1.55-.04,3.19-.1,4.93-.18h.11c1.14,0,2.44.02,3.91.06,1.42.04,2.67.06,3.77.06h9.6c.41,0,.82-.02,1.23-.05.24-.02.46-.03.69-.03.38,0,.77.03,1.15.08h3.17c.76,0,1.53.02,2.3.06.68.04,1.31.06,1.9.06h2.16c.75,0,1.51.04,2.29.12h.95c.64,0,1.28.14,1.9.42.47.16.91.32,1.31.48l.15.06.14.08c.81.45,1.59.96,2.32,1.5.92.69,1.67,1.56,2.25,2.58.85,1.41,1.42,3.01,1.67,4.69.22,1.49.33,2.98.33,4.44,0,1.83.02,3.87.06,6.13l.12,6.96c.04,2.38.06,4.71.06,7s-.04,4.38-.12,6.29c-.09,1.33-.09,2.02-.06,2.37.05.8.02,1.58-.08,2.31-.11.73-.29,1.46-.54,2.17-.26.71-.69,1.6-1.34,2.7-.76,1.33-1.8,2.47-3.1,3.37,1,.04,2.03.11,3.08.21,2.32.21,4.31,1.08,5.92,2.58,1.04,1.04,1.75,2.12,2.15,3.28.37,1.07.56,2.24.56,3.47,0,1.63-.39,3.15-1.16,4.52-.85,1.51-2.11,2.58-3.77,3.2-1.66.73-3.41,1.17-5.18,1.31-1.54.12-3.09.22-4.63.3-2.3.08-4.09.16-5.38.24-1.29.08-2.37.14-3.22.18-.88.04-1.72.06-2.52.06h-.7l-.1,15.52c0,2.91-.93,5.47-2.76,7.61-1.78,2.08-4.15,3.17-6.85,3.17Z"/>
        <path class="cls-6" d="M379.43,157.48c1.36,0,2.6.36,3.72,1.08,1.12.72,1.92,1.72,2.4,3,.72,1.68,1.12,3.42,1.2,5.22.08,1.8.16,3.62.24,5.46.16,6.4.2,12.8.12,19.2-.08,6.4-.12,12.44-.12,18.12v30c0,1.84-.1,3.7-.3,5.58-.2,1.88-.62,3.82-1.26,5.82-.4,1.04-1.16,1.88-2.28,2.52-.88.56-1.84.9-2.88,1.02-.44.05-.89.08-1.33.08-.6,0-1.19-.05-1.78-.14-1.2-.24-2.2-.72-3-1.44-.72-.64-1.26-1.46-1.62-2.46-.36-1-.64-1.98-.84-2.94s-.3-2.16-.3-3.6v-76.08c0-1.12.08-2.24.24-3.36.16-1.12.38-2.14.66-3.06.28-.92.7-1.66,1.26-2.22.88-.88,1.8-1.4,2.76-1.56.96-.16,2-.24,3.12-.24M317.63,158.2c1.12,0,2.4.02,3.84.06,1.44.04,2.72.06,3.84.06h9.6c.48,0,.96-.02,1.44-.06.16-.01.32-.02.47-.02.32,0,.64.03.97.08h3.36c.72,0,1.44.02,2.16.06.72.04,1.4.06,2.04.06h2.16c.72,0,1.44.04,2.16.12h1.08c.32,0,.64.08.96.24.48.16.92.32,1.32.48.72.4,1.4.84,2.04,1.32.64.48,1.16,1.08,1.56,1.8.72,1.2,1.18,2.48,1.38,3.84.2,1.36.3,2.72.3,4.08,0,1.84.02,3.9.06,6.18.04,2.28.08,4.6.12,6.96.04,2.36.06,4.68.06,6.96s-.04,4.34-.12,6.18c-.08,1.12-.1,2-.06,2.64.04.64.02,1.24-.06,1.8-.08.56-.22,1.12-.42,1.68-.2.56-.58,1.32-1.14,2.28-.64,1.12-1.52,2.04-2.64,2.76-1.12.72-2.3,1.16-3.54,1.32-.33.04-.66.06-.98.06-.89,0-1.74-.16-2.56-.48-1.12-.44-2.04-1.22-2.76-2.34-.72-1.2-1.24-2.18-1.56-2.94-.32-.76-.54-1.48-.66-2.16-.12-.68-.14-1.44-.06-2.28.08-.84.12-1.94.12-3.3h-35.4c-.72,0-1.3-.06-1.74-.18-.44-.12-.9-.32-1.38-.6-.48-.28-.88-.7-1.2-1.26-.48-.96-.72-2.2-.72-3.72s.28-2.72.84-3.6c.56-.88,1.14-1.4,1.74-1.56.6-.16,1.22-.32,1.86-.48.32,0,.56-.04.72-.12.64-.16,1.3-.26,1.98-.3.68-.04,1.38-.1,2.1-.18,1.12-.08,2.56-.14,4.32-.18,1.76-.04,3.6-.08,5.52-.12,1.92-.04,3.8-.06,5.64-.06h10.02c2.04,0,3.94.04,5.7.12v-4.62c0-1.48-.08-3.02-.24-4.62-2.48-.08-5.34-.18-8.58-.3-3.24-.12-6.14-.22-8.7-.3h-.12c-2.96,0-6.06.1-9.3.3-1.08.07-2.15.1-3.2.1-2.1,0-4.13-.13-6.1-.4-1.36-.16-2.38-1.1-3.06-2.82-.68-1.72-1.02-3.58-1.02-5.58.08-1.84.76-3.2,2.04-4.08,1.28-.88,2.6-1.52,3.96-1.92,1.68-.48,3.3-.74,4.86-.78,1.56-.04,3.22-.1,4.98-.18M353.63,212.08c1.6,0,3.28.08,5.04.24,1.76.16,3.24.8,4.44,1.92.72.72,1.22,1.48,1.5,2.28.28.8.42,1.68.42,2.64,0,1.2-.28,2.3-.84,3.3-.56,1-1.4,1.7-2.52,2.1-1.44.64-2.92,1.02-4.44,1.14-1.52.12-3.04.22-4.56.3-2.32.08-4.12.16-5.4.24-1.28.08-2.34.14-3.18.18-.84.04-1.64.06-2.4.06h-3.18l-.12,18c0,2.32-.72,4.32-2.16,6-1.32,1.53-2.97,2.3-4.95,2.3-.19,0-.38,0-.57-.02-.88-.08-1.72-.24-2.52-.48-.8-.24-1.52-.62-2.16-1.14-.64-.52-1.16-1.24-1.56-2.16-.4-.92-.6-2.14-.6-3.66l-.36-18.96c-3.12-.08-6.04-.18-8.76-.3-2.72-.12-5.88-.26-9.48-.42-1.12-.08-2.24-.3-3.36-.66-1.12-.36-2.16-1.06-3.12-2.1-.96-.96-1.44-2.36-1.44-4.2,0-1.68.48-3.08,1.44-4.2.56-.64,1.26-1.12,2.1-1.44.84-.32,1.66-.56,2.46-.72.8-.16,1.5-.24,2.1-.24h48.18M379.43,152.48c-1.38,0-2.71.1-3.94.31-2.01.34-3.85,1.33-5.48,2.96-1.14,1.14-1.99,2.59-2.51,4.3-.35,1.16-.63,2.44-.83,3.81-.19,1.32-.29,2.7-.29,4.06v42.54c-1.54-1.4-3.35-2.35-5.39-2.82.03-.05.06-.11.09-.16.71-1.22,1.2-2.21,1.51-3.07.31-.88.53-1.77.66-2.65.13-.92.16-1.86.1-2.83-.02-.24-.03-.8.06-1.97v-.07s0-.07,0-.07c.08-1.94.13-4.09.13-6.39s-.02-4.59-.06-7.04l-.05-3.11-.07-3.85c-.04-2.17-.06-4.22-.06-6.09,0-1.58-.12-3.2-.35-4.8-.29-1.99-.97-3.88-2-5.62-.74-1.3-1.71-2.4-2.88-3.29-.83-.62-1.7-1.18-2.61-1.69l-.28-.16-.3-.12c-.41-.16-.85-.32-1.33-.49-.9-.39-1.85-.59-2.81-.59h-.82c-.82-.08-1.63-.12-2.42-.12h-2.16c-.57,0-1.16-.02-1.75-.05-.83-.05-1.65-.07-2.44-.07h-3.01c-.44-.05-.88-.08-1.31-.08-.29,0-.59.01-.88.04-.35.03-.69.04-1.03.04h-9.6c-1.09,0-2.33-.02-3.7-.06-1.53-.04-2.83-.06-3.98-.06h-.23c-1.75.08-3.39.14-4.88.18-1.98.05-4.04.38-6.11.97-1.9.56-3.71,1.43-5.42,2.61-1.81,1.25-4.02,3.64-4.2,7.98v.11s0,.11,0,.11c0,2.63.46,5.13,1.37,7.42,1.82,4.61,5.19,5.7,7.07,5.94,1.03.14,2.08.25,3.15.32-.9.06-1.79.2-2.64.4h-.24l-.6.15c-.66.17-1.3.33-1.93.5-1.86.5-3.43,1.75-4.68,3.71-1.07,1.69-1.62,3.8-1.62,6.28,0,2.3.42,4.3,1.25,5.96l.06.12.06.11c.76,1.33,1.77,2.38,3.02,3.11.85.5,1.72.87,2.59,1.11.87.24,1.87.36,3.05.36h30.25c.03.5.08.99.17,1.46.18,1.03.51,2.12.97,3.22.22.52.5,1.11.85,1.76h-33.5c-.94,0-1.95.11-3.08.34-1.07.22-2.16.53-3.25.95-1.61.61-2.98,1.56-4.08,2.82l-.02.02-.02.02c-1.73,2.02-2.64,4.6-2.64,7.45,0,3.91,1.52,6.31,2.83,7.66,1.53,1.64,3.29,2.79,5.21,3.41,1.5.48,3.03.78,4.54.89h.06s.06,0,.06,0c2.86.13,5.44.24,7.74.34l1.74.08c1.32.06,2.68.11,4.07.16l.27,14.16c0,2.22.34,4.06,1.02,5.61.71,1.65,1.72,3.01,2.99,4.04,1.14.93,2.45,1.62,3.87,2.05,1.12.34,2.3.56,3.51.67h.05s.05,0,.05,0c.31.02.62.03.93.03,3.45,0,6.47-1.4,8.74-4.05,2.23-2.6,3.36-5.72,3.36-9.25l.09-13.03c.29,0,.57-.02.86-.04.85-.04,1.94-.1,3.25-.18,1.26-.08,3.03-.16,5.26-.23h.04s.04,0,.04,0c1.53-.08,3.11-.18,4.69-.31,2.03-.16,4.02-.66,5.92-1.49,1.06-.4,2.02-.96,2.84-1.66v16.47c0,1.8.13,3.31.4,4.62.24,1.18.59,2.39,1.03,3.62.65,1.79,1.65,3.3,3,4.5,1.45,1.31,3.26,2.19,5.35,2.61l.11.02.11.02c.84.13,1.7.2,2.55.2.63,0,1.28-.04,1.91-.11,1.75-.2,3.4-.78,4.89-1.71,2.06-1.2,3.56-2.93,4.36-5l.05-.14.04-.14c.74-2.32,1.24-4.61,1.47-6.82.22-2.06.33-4.11.33-6.11v-30c0-5.71.04-11.78.12-18.06.08-6.43.04-12.95-.12-19.39v-.05s0-.05,0-.05l-.15-3.48-.09-1.98c-.11-2.36-.63-4.67-1.56-6.87-.86-2.22-2.36-4.06-4.33-5.33-1.94-1.25-4.1-1.88-6.43-1.88h0Z"/>
      </g>
      <g>
        <rect class="cls-1" x="422.5" y="142.5" width="125" height="125" rx="17.5" ry="17.5"/>
        <path class="cls-6" d="M530,145c8.28,0,15,6.72,15,15v90c0,8.28-6.72,15-15,15h-90c-8.28,0-15-6.72-15-15v-90c0-8.28,6.72-15,15-15h90M530,140h-90c-11.03,0-20,8.97-20,20v90c0,11.03,8.97,20,20,20h90c11.03,0,20-8.97,20-20v-90c0-11.03-8.97-20-20-20h0Z"/>
      </g>
      <g>
        <path class="cls-1" d="M457.1,248.94c-3.27,0-6.16-.05-8.58-.16-1.46-.09-2.86-.29-4.22-.6-1.46-.33-2.79-.82-3.94-1.44-1.34-.73-2.44-1.77-3.27-3.09-.85-1.36-1.28-3.1-1.28-5.17,0-2.21.73-4.18,2.17-5.84l.12-.13c.91-.91,2.05-1.6,3.38-2.04,1.08-.36,2.12-.63,3.1-.81,1.05-.19,1.96-.28,2.79-.28l67.98.12c2.1,0,4.01.02,5.75.06,2.29.06,4.35.83,6.15,2.31l.09.08c2.22,2.01,3.34,4.37,3.34,7.01,0,1.73-.52,3.33-1.55,4.76-1.01,1.41-2.37,2.41-4.05,2.99-1.76.7-3.61,1.19-5.5,1.45-1.78.25-3.57.42-5.33.5-4.4.18-8.93.27-13.48.27-1.51,0-3.03,0-4.55-.03-5.97-.08-11.73-.12-17.13-.12-5.79,0-11.45.04-16.82.12-1.83.03-3.56.04-5.18.04ZM453.93,224.19c-.18,0-.36,0-.55-.01-2.67-.11-5.03-1.55-7.01-4.27l-.07-.11c-1.37-2.1-1.94-4.15-1.71-6.1.21-1.77.84-3.41,1.89-4.88.94-1.31,2.14-2.54,3.57-3.64,1.27-.98,2.55-1.91,3.8-2.74,3-2,6.03-4.39,9.01-7.09,3.04-2.77,5.94-5.52,8.61-8.2.53-.53.83-1.02.83-1.35v-6.74h-16.41c-.42.02-.83.02-1.24.02-1.69,0-3.27-.15-4.71-.43-1.76-.41-3.36-1.16-4.83-2.24-1.24-.91-2.77-2.67-3.05-5.88-.32-3.49.55-6.11,2.58-7.78,1.74-1.43,3.88-2.26,6.36-2.48.69-.09,1.71-.13,3.09-.13h3.06l54.11-.24c1.54,0,3.02.09,4.4.26,1.56.2,2.96.6,4.17,1.2,1.35.68,2.44,1.63,3.24,2.83.84,1.26,1.26,2.83,1.26,4.69.1,2.39-.26,4.33-1.09,5.83-.87,1.56-2.11,2.71-3.69,3.41-1.37.61-2.92.94-4.6.99-.48.01-.96.02-1.44.02-.92,0-1.85-.03-2.77-.08l-15.38.21.05,2.03c0,.78-.04,1.6-.13,2.57-.07.75,0,1.2.05,1.45.11.39.3.72.6,1,.7.66,1.37,1.35,1.97,2.04,2.19,2.57,4.76,4.89,7.66,6.92,3.13,2.2,6.29,4.67,9.38,7.36l.12.1.1.12c.7.78,1.48,1.62,2.34,2.52,1.01,1.06,1.89,2.22,2.63,3.46.79,1.33,1.32,2.72,1.57,4.13.29,1.64.04,3.31-.74,4.98-.95,1.89-2.29,3.18-4.01,3.89-1.29.54-2.66.81-4.07.81-.23,0-.47,0-.7-.02-1.49-.09-3.01-.4-4.54-.9-1.52-.51-2.88-1.15-4.02-1.91-3.88-2.51-7.57-5.24-10.92-8.1-2.8-2.39-5.64-4.9-8.46-7.49-.02.02-2.59,2.06-4.19,3.34-1.59,1.28-3.25,2.61-4.96,4.01-1.74,1.41-3.17,2.56-4.29,3.45-1.29.97-2.79,2.17-4.49,3.61-1.9,1.6-3.92,2.94-6.01,3.98-2.11,1.06-4.26,1.59-6.38,1.59Z"/>
        <path class="cls-6" d="M511.27,162.4c1.44,0,2.8.08,4.08.24,1.28.16,2.4.48,3.36.96.96.48,1.72,1.14,2.28,1.98.56.84.84,1.94.84,3.3.08,2-.18,3.54-.78,4.62-.6,1.08-1.44,1.86-2.52,2.34-1.08.48-2.3.74-3.66.78-.45.01-.91.02-1.36.02-.91,0-1.81-.03-2.72-.08l-18,.24.12,4.56c0,.64-.04,1.4-.12,2.28-.08.88-.04,1.64.12,2.28.24.88.68,1.62,1.32,2.22.64.6,1.24,1.22,1.8,1.86,2.32,2.72,5.02,5.16,8.1,7.32,3.08,2.16,6.14,4.56,9.18,7.2.72.8,1.52,1.66,2.4,2.58.88.92,1.64,1.92,2.28,3,.64,1.08,1.06,2.18,1.26,3.3.2,1.12.02,2.28-.54,3.48-.64,1.28-1.54,2.16-2.7,2.64-.99.41-2.03.62-3.12.62-.18,0-.36,0-.54-.02-1.28-.08-2.58-.34-3.9-.78-1.32-.44-2.46-.98-3.42-1.62-3.84-2.48-7.4-5.12-10.68-7.92-3.28-2.8-6.56-5.72-9.84-8.76,0,0-.02,0-.03,0-.15,0-.76.42-1.83,1.27-1.16.92-2.54,2.02-4.14,3.3-1.6,1.28-3.26,2.62-4.98,4.02-1.72,1.4-3.14,2.54-4.26,3.42-1.28.96-2.8,2.18-4.56,3.66-1.76,1.48-3.6,2.7-5.52,3.66-1.77.89-3.52,1.33-5.26,1.33-.15,0-.29,0-.44,0-1.88-.08-3.58-1.16-5.1-3.24-1.04-1.6-1.48-3.08-1.32-4.44.16-1.36.64-2.6,1.44-3.72.8-1.12,1.82-2.16,3.06-3.12,1.24-.96,2.46-1.84,3.66-2.64,3.12-2.08,6.22-4.52,9.3-7.32,3.08-2.8,5.98-5.56,8.7-8.28,1.04-1.04,1.56-2.08,1.56-3.12v-9.24h-18.96c-.4.02-.8.02-1.18.02-1.53,0-2.94-.13-4.22-.38-1.36-.32-2.64-.92-3.84-1.8-1.2-.88-1.88-2.24-2.04-4.08-.24-2.64.32-4.52,1.68-5.64,1.36-1.12,3.04-1.76,5.04-1.92.56-.08,1.5-.12,2.82-.12h3.06l54.12-.24M448.51,231.88l66.84.12c2.08,0,3.98.02,5.7.06,1.72.04,3.26.62,4.62,1.74,1.68,1.52,2.52,3.24,2.52,5.16,0,1.2-.36,2.3-1.08,3.3-.72,1-1.68,1.7-2.88,2.1-1.6.64-3.26,1.08-4.98,1.32-1.72.24-3.42.4-5.1.48-4.39.18-8.84.27-13.36.27-1.5,0-3,0-4.52-.03-6.08-.08-11.8-.12-17.16-.12-5.76,0-11.38.04-16.86.12-1.82.03-3.54.04-5.15.04-3.24,0-6.07-.05-8.47-.16-1.28-.08-2.54-.26-3.78-.54-1.24-.28-2.34-.68-3.3-1.2-.96-.52-1.74-1.26-2.34-2.22-.6-.96-.9-2.24-.9-3.84s.52-3,1.56-4.2c.64-.64,1.44-1.12,2.4-1.44.96-.32,1.88-.56,2.76-.72.88-.16,1.66-.24,2.34-.24h1.14M511.27,157.4h-.02s-54.12.24-54.12.24h-3.04c-1.48,0-2.55.05-3.36.15-2.97.26-5.56,1.28-7.68,3.03-1.86,1.53-3.98,4.5-3.48,9.95.35,4.12,2.4,6.44,4.06,7.66,1.74,1.28,3.64,2.16,5.66,2.64l.08.02.08.02c1.59.32,3.34.48,5.2.48.42,0,.85,0,1.28-.02h13.86v3.73s-.06.06-.1.1c-2.65,2.65-5.52,5.38-8.53,8.12-2.88,2.62-5.81,4.93-8.71,6.86-1.3.87-2.63,1.83-3.95,2.85-1.62,1.25-2.99,2.66-4.07,4.17-1.29,1.81-2.08,3.84-2.33,6.04-.3,2.54.4,5.15,2.1,7.75l.07.11.08.11c3.06,4.19,6.54,5.19,8.93,5.29.21,0,.43.01.65.01,2.51,0,5.03-.62,7.5-1.86,2.26-1.13,4.45-2.58,6.5-4.31,1.67-1.41,3.13-2.58,4.34-3.49l.04-.03.04-.03c1.13-.88,2.54-2.02,4.33-3.47,1.71-1.39,3.36-2.72,4.95-4,.91-.73,1.75-1.4,2.52-2.01,2.32,2.1,4.65,4.15,6.95,6.11,3.42,2.92,7.18,5.71,11.18,8.3,1.32.88,2.86,1.61,4.58,2.18,1.72.57,3.46.92,5.17,1.03.28.02.57.03.85.03,1.74,0,3.43-.34,5.03-1,2.26-.94,4.08-2.67,5.26-5.02l.03-.06.03-.06c1-2.14,1.31-4.32.93-6.47-.31-1.71-.94-3.38-1.88-4.97-.83-1.4-1.83-2.72-2.97-3.91-.81-.85-1.58-1.68-2.3-2.47l-.21-.23-.23-.2c-3.16-2.74-6.38-5.27-9.59-7.52-2.72-1.91-5.13-4.08-7.17-6.47l-.02-.03-.02-.03c-.63-.72-1.32-1.43-2.04-2.12,0-.1,0-.26.02-.49.08-.9.13-1.67.14-2.37l12.77-.17c.94.05,1.89.08,2.83.08.5,0,1.01,0,1.51-.02,2-.06,3.87-.47,5.54-1.21,2.06-.91,3.74-2.46,4.86-4.48,1.05-1.89,1.51-4.23,1.41-7.15-.02-2.31-.58-4.32-1.68-5.97-1.05-1.57-2.46-2.81-4.21-3.68-1.46-.73-3.14-1.22-4.97-1.45-1.49-.19-3.07-.28-4.7-.28h0ZM448.52,226.88h-1.15c-.98,0-2.04.1-3.23.32-1.11.2-2.26.5-3.44.89-1.71.57-3.17,1.46-4.36,2.65l-.13.13-.12.13c-1.82,2.1-2.78,4.68-2.78,7.48,0,2.54.56,4.73,1.66,6.49,1.06,1.7,2.47,3.03,4.2,3.97,1.36.74,2.9,1.3,4.58,1.68,1.5.34,3.03.56,4.57.65h.05s.05,0,.05,0c2.46.11,5.39.16,8.69.16,1.62,0,3.38-.01,5.22-.04,5.37-.08,11.01-.12,16.79-.12,5.38,0,11.14.04,17.09.12,1.54.02,3.06.03,4.58.03,4.59,0,9.15-.09,13.57-.27,1.87-.09,3.73-.27,5.59-.52,2.06-.29,4.09-.82,6.02-1.58,2.14-.75,3.9-2.05,5.21-3.87,1.34-1.87,2.02-3.96,2.02-6.22s-.72-5.75-4.16-8.87l-.09-.08-.09-.08c-2.24-1.84-4.82-2.81-7.67-2.88-1.79-.04-3.74-.06-5.82-.06l-66.83-.12h0Z"/>
      </g>
    </g>
  </g>
</svg>