<?xml version="1.0" encoding="UTF-8"?>
<svg xmlns="http://www.w3.org/2000/svg" xmlns:xlink="http://www.w3.org/1999/xlink" viewBox="0 0 87.91 159.72">
  <defs>
    <style>
      .cls-1 {
        fill: #100935;
        opacity: .2;
      }

      .cls-1, .cls-2, .cls-3, .cls-4, .cls-5, .cls-6, .cls-7 {
        stroke-width: 0px;
      }

      .cls-8 {
        isolation: isolate;
      }

      .cls-2 {
        fill: #bf2e87;
      }

      .cls-3 {
        fill: #558ebf;
      }

      .cls-4 {
        fill: #71bdff;
      }

      .cls-5 {
        fill: url(#linear-gradient);
        mix-blend-mode: screen;
        opacity: .3;
      }

      .cls-6 {
        fill: #e8ff38;
      }

      .cls-7 {
        fill: #fff;
      }
    </style>
    <linearGradient id="linear-gradient" x1="1361.02" y1="-13.33" x2="1414.37" y2="-13.33" gradientTransform="translate(-1340.94 163.06) rotate(-.62) scale(1 2.59) skewX(-.01)" gradientUnits="userSpaceOnUse">
      <stop offset="0" stop-color="#05acfd"/>
      <stop offset=".04" stop-color="#0496dd"/>
      <stop offset=".1" stop-color="#0377af"/>
      <stop offset=".16" stop-color="#025a85"/>
      <stop offset=".23" stop-color="#014261"/>
      <stop offset=".31" stop-color="#012d42"/>
      <stop offset=".39" stop-color="#001c2a"/>
      <stop offset=".48" stop-color="#000f17"/>
      <stop offset=".59" stop-color="#00060a"/>
      <stop offset=".73" stop-color="#000102"/>
      <stop offset="1" stop-color="#000"/>
    </linearGradient>
  </defs>
  <g class="cls-8">
    <g id="_레이어_2" data-name="레이어 2">
      <g id="BACKGROUND_2" data-name="BACKGROUND 2">
        <g>
          <g>
            <path class="cls-2" d="M44.28,22.16c0,.39-.31.72-.7.72h0c-.39,0-.72-.31-.72-.7l-.16-14.67c0-.39.31-.72.7-.72h0c.39,0,.72.31.72.7l.16,14.67Z"/>
            <path class="cls-6" d="M47.06,3.65c.02,2.04-1.61,3.71-3.65,3.73-2.04.02-3.71-1.61-3.73-3.65C39.66,1.69,41.29.02,43.33,0c2.04-.02,3.71,1.61,3.73,3.65Z"/>
            <path class="cls-7" d="M43.52,17.27c-17.86.19-32.18,14.83-31.99,32.69l64.67-.7c-.19-17.86-14.83-32.18-32.69-31.99Z"/>
            <g>
              <path class="cls-4" d="M87.91,57.61c.05,4.84-3.83,8.8-8.66,8.85l-70.4.76C4.02,67.28.05,63.4,0,58.56H0c-.05-4.84,3.83-8.8,8.66-8.85l70.4-.76c4.84-.05,8.8,3.83,8.85,8.66h0Z"/>
              <g>
                <path class="cls-3" d="M10.72,58.45c.02,1.92-1.52,3.5-3.44,3.52-1.92.02-3.5-1.52-3.52-3.44-.02-1.92,1.52-3.5,3.44-3.52,1.92-.02,3.5,1.52,3.52,3.44Z"/>
                <path class="cls-3" d="M22.96,58.31c.02,1.92-1.52,3.5-3.44,3.52-1.92.02-3.5-1.52-3.52-3.44-.02-1.92,1.52-3.5,3.44-3.52,1.92-.02,3.5,1.52,3.52,3.44Z"/>
                <path class="cls-3" d="M35.2,58.18c.02,1.92-1.52,3.5-3.44,3.52-1.92.02-3.5-1.52-3.52-3.44-.02-1.92,1.52-3.5,3.44-3.52,1.92-.02,3.5,1.52,3.52,3.44Z"/>
                <path class="cls-3" d="M47.44,58.05c.02,1.92-1.52,3.5-3.44,3.52-1.92.02-3.5-1.52-3.52-3.44-.02-1.92,1.52-3.5,3.44-3.52,1.92-.02,3.5,1.52,3.52,3.44Z"/>
                <path class="cls-3" d="M59.68,57.92c.02,1.92-1.52,3.5-3.44,3.52-1.92.02-3.5-1.52-3.52-3.44-.02-1.92,1.52-3.5,3.44-3.52,1.92-.02,3.5,1.52,3.52,3.44Z"/>
                <path class="cls-3" d="M71.91,57.78c.02,1.92-1.52,3.5-3.44,3.52-1.92.02-3.5-1.52-3.52-3.44-.02-1.92,1.52-3.5,3.44-3.52,1.92-.02,3.5,1.52,3.52,3.44Z"/>
                <path class="cls-3" d="M84.15,57.65c.02,1.92-1.52,3.5-3.44,3.52-1.92.02-3.5-1.52-3.52-3.44-.02-1.92,1.52-3.5,3.44-3.52,1.92-.02,3.5,1.52,3.52,3.44Z"/>
              </g>
            </g>
            <polygon class="cls-6" points="11.92 67.19 12.13 86.67 19.78 67.11 11.92 67.19"/>
            <polygon class="cls-6" points="76.03 66.5 76.24 85.98 68.17 66.58 76.03 66.5"/>
            <polygon class="cls-5" points="73.46 159.72 20.09 158.62 31.76 66.98 56.35 66.71 73.46 159.72"/>
          </g>
          <path class="cls-1" d="M47.8,17.52c-1.4-.17-2.83-.26-4.28-.24-17.86.19-32.18,14.83-31.99,32.69l8.55-.09c-.18-16.41,11.9-30.08,27.71-32.35Z"/>
        </g>
      </g>
    </g>
  </g>
</svg>