<svg width="116" height="113" viewBox="0 0 116 113" fill="none" xmlns="http://www.w3.org/2000/svg">
<path d="M59.9219 6.30223C87.7724 6.30223 110.351 28.834 110.351 56.6261C110.351 84.4181 87.7724 106.95 59.9219 106.95C32.0715 106.95 9.4924 84.4181 9.4924 56.6261C9.4924 28.834 32.0715 6.30223 59.9219 6.30223ZM59.9219 3.13721C52.6874 3.13721 45.6685 4.55197 39.0555 7.34035C32.671 10.0338 26.9398 13.8919 22.0173 18.8009C17.0949 23.7098 13.2318 29.4322 10.5327 35.8034C7.7353 42.3993 6.31757 49.4066 6.31757 56.6261C6.31757 63.8455 7.7353 70.8497 10.5327 77.4487C13.2318 83.8199 17.0981 89.5391 22.0173 94.4512C26.9366 99.3633 32.671 103.218 39.0555 105.912C45.6653 108.703 52.6842 110.115 59.9219 110.115C67.1597 110.115 74.1754 108.7 80.7883 105.912C87.1729 103.218 92.9041 99.3602 97.8265 94.4512C102.749 89.5423 106.612 83.8199 109.311 77.4487C112.109 70.8528 113.526 63.8455 113.526 56.6261C113.526 49.4066 112.109 42.4025 109.311 35.8034C106.612 29.4322 102.746 23.713 97.8265 18.8009C92.9073 13.8888 87.1729 10.0338 80.7883 7.34035C74.1786 4.54881 67.1597 3.13721 59.9219 3.13721Z" fill="#7E3FE3"/>
<mask id="mask0_398_39" style="mask-type:luminance" maskUnits="userSpaceOnUse" x="7" y="3" width="106" height="107">
<path d="M56.2514 109.211C84.9644 111.267 109.925 89.4004 112.003 60.3716C114.081 31.3428 92.4893 6.14409 63.7764 4.08874C35.0634 2.03338 10.1024 23.8997 8.02444 52.9285C5.94648 81.9573 27.5384 107.156 56.2514 109.211Z" fill="white"/>
</mask>
<g mask="url(#mask0_398_39)">
<path d="M58.875 81.6363C58.875 81.6363 51.1232 86.1472 43.9076 87.7156C41.8262 88.1678 39.7867 88.3755 37.9929 88.159C29.0561 87.0799 17.8928 76.7647 16.6463 64.0091C16.3789 61.2647 16.5845 55.5492 17.7058 50.6728C18.6563 46.5457 17.3371 39.7471 20.0063 39.8678C23.4159 40.0205 22.9627 50.3881 22.9627 50.3881C22.9627 50.3881 25.4265 52.9576 26.5707 53.0975C27.6923 53.2323 29.1448 51.9756 29.7725 53.2635C31.7391 57.3041 30.4673 60.7789 30.4673 60.7789C30.4673 60.7789 37.4888 69.3081 41.0417 70.2234C41.9822 70.4649 43.3142 70.3578 44.8535 70.0655C46.162 69.8145 47.6206 69.4317 49.1127 69.013C52.8586 67.9644 56.8298 66.6994 59.2308 66.8028L58.9181 79.8091L58.875 81.6363Z" fill="white"/>
<path d="M86.1794 111.848C81.5643 116.9 70.952 114.073 70.952 114.073L73.3363 86.1583L74.0808 77.456L74.1485 76.6573L74.7123 70.0595C74.7123 70.0595 78.7215 70.5203 82.6369 71.9402C83.2879 72.1753 83.9394 72.4383 84.5672 72.7317C84.8317 72.8535 85.0914 72.9812 85.3466 73.1129C87.5152 74.245 89.3042 75.7597 89.8482 77.7572C91.7395 84.702 89.9721 107.694 86.1785 111.847L86.1794 111.848Z" fill="white"/>
<g opacity="0.35">
<path d="M90.3631 93.1955C89.8009 101.236 88.3096 109.515 86.18 111.847C81.5643 116.9 70.9511 114.072 70.9511 114.072L72.1027 104.418C72.1027 104.418 82.7159 107.247 87.3315 102.194C88.5813 100.824 89.6115 97.4082 90.3631 93.1955Z" fill="#371A45"/>
</g>
<path d="M74.7143 70.0581C74.7143 70.0581 88.1744 71.6094 89.8482 77.758C91.7385 84.7023 89.9725 107.696 86.1794 111.848C83.5692 114.706 79.0414 115.043 75.5994 114.796C72.9551 114.607 70.9515 114.073 70.9515 114.073C70.9515 114.073 68.6175 99.7724 68.6587 99.5561C68.7004 99.3399 68.5225 80.1749 68.5225 80.1749L74.7138 70.0581M73.99 68.5623L73.524 69.3239L67.3326 79.4407L67.1221 79.7846L67.1256 80.1883C67.1942 87.5617 67.2871 98.7443 67.2652 99.464C67.265 99.4659 67.2649 99.4683 67.2647 99.4702L67.2646 99.4726L67.2647 99.4707C67.2537 99.8499 67.4154 100.922 68.4101 107.119C68.9822 110.682 69.5667 114.264 69.5727 114.3L69.7189 115.195L70.5928 115.428C70.6798 115.451 72.7554 115.998 75.4997 116.194C79.1846 116.458 84.2067 116.082 87.21 112.795C89.9572 109.787 91.1511 100.035 91.5371 95.9816C92.2804 88.1747 92.1469 80.8757 91.1967 77.3864C90.3705 74.3507 87.3044 71.9554 82.0831 70.2659C78.4194 69.0808 75.0175 68.6798 74.8747 68.6634L73.99 68.5613L73.99 68.5623Z" fill="#371A45"/>
<path d="M89.2749 96.501L81.8809 96.4068C81.2207 96.3983 80.6377 96.8372 80.4633 97.4761C79.8251 99.8173 78.6307 105.301 80.7743 107.336C82.5537 109.025 85.6752 109.12 87.6318 107.734C89.8199 106.183 90.4979 100.761 90.7023 98.0654C90.7657 97.2271 90.1123 96.5112 89.275 96.5001L89.2749 96.501Z" fill="white"/>
<g opacity="0.35">
<path d="M80.4641 97.4776C79.8246 99.8177 78.6316 105.302 80.7753 107.336C82.5546 109.026 85.6756 109.121 87.6332 107.735C88.9782 106.78 89.753 104.362 90.197 102.015C89.7621 103.169 89.1579 104.083 88.4561 104.657C84.4362 107.941 82.0472 103.44 82.0472 103.44C82.0472 103.44 81.4766 104.431 81.0892 104.456C79.4694 104.56 80.2422 99.5657 80.7016 96.9906C80.5947 97.1318 80.5124 97.2953 80.4637 97.477L80.4641 97.4776Z" fill="#371A45"/>
</g>
<path d="M83.9747 109.281C82.6253 109.185 81.3188 108.675 80.3662 107.77C78.0686 105.589 79.0818 100.286 79.8905 97.3194C80.1357 96.4189 80.9576 95.7986 81.8893 95.8102L89.2829 95.9039C89.843 95.9115 90.3863 96.1542 90.7655 96.5705C91.1443 96.9863 91.3377 97.5482 91.295 98.1108C91.063 101.173 90.3233 106.558 87.9749 108.222C86.8269 109.035 85.3776 109.382 83.9747 109.281ZM89.267 97.0979L81.8734 97.0042C81.4833 96.9993 81.1397 97.258 81.0369 97.634C79.7989 102.176 79.854 105.641 81.1834 106.903C82.7105 108.353 85.5077 108.51 87.29 107.247C88.6937 106.253 89.7477 102.804 90.1101 98.0212C90.1281 97.7822 90.0496 97.5536 89.8887 97.3769C89.7274 97.1998 89.5077 97.0989 89.2675 97.0979L89.267 97.0979Z" fill="#371A45"/>
<path d="M86.3739 77.0567C86.2602 76.9136 86.0345 76.7625 85.7999 76.6505C85.5606 76.5371 85.309 76.4349 85.0455 76.3538C84.5221 76.1861 83.9762 76.0671 83.4261 75.9804C82.3241 75.811 81.1999 75.7641 80.0977 75.8508C78.9992 75.9454 77.9079 76.1592 76.9409 76.595C75.974 77.0226 75.1459 77.675 74.6457 78.5228C74.4487 78.8566 74.0199 78.9666 73.6879 78.7696C73.3555 78.5721 73.2461 78.1416 73.443 77.8082C73.4501 77.7963 73.4576 77.7844 73.4651 77.773L73.4678 77.7684C73.8383 77.221 74.3065 76.7477 74.8256 76.3689C75.3448 75.9887 75.9109 75.6994 76.4901 75.48C77.652 75.0391 78.8608 74.8825 80.0484 74.8483C81.2386 74.8244 82.4186 74.9438 83.5732 75.1902C84.1501 75.3157 84.7213 75.4748 85.2803 75.6905C85.5603 75.7952 85.8357 75.9241 86.1063 76.0731C86.3739 76.2306 86.647 76.3986 86.875 76.7226C86.9706 76.8587 86.9386 77.0464 86.803 77.1425C86.6724 77.2351 86.4937 77.2084 86.3952 77.0851L86.3729 77.0571L86.3739 77.0567Z" fill="#371A45"/>
<g opacity="0.35">
<path d="M58.875 81.6366C58.875 81.6366 46.001 89.1265 37.9929 88.1598C29.056 87.0807 17.8928 76.7655 16.6463 64.0099C16.4957 62.4694 16.4961 59.994 16.7216 57.2566C16.8524 57.7269 16.9437 58.1426 16.978 58.4969C18.2245 71.2525 29.3878 81.5677 38.3246 82.6468C45.7437 83.5435 57.3395 77.1803 59.0039 76.2393L58.875 81.6366Z" fill="#371A45"/>
</g>
<path d="M38.5002 88.9121C38.3005 88.8978 38.104 88.879 37.9088 88.8554C33.3014 88.2988 28.075 85.3415 23.928 80.9447C19.3746 76.1177 16.5416 70.1274 15.9511 64.0774C15.6558 61.0504 15.9319 55.2687 17.0254 50.5153C17.3507 49.1012 17.3979 47.3299 17.4433 45.6163C17.5137 42.9606 17.5745 40.6671 18.6459 39.6654C19.0214 39.3147 19.5029 39.1419 20.0384 39.1659C20.0603 39.1669 20.0821 39.168 20.1039 39.1696C23.7646 39.4316 23.7519 47.7411 23.6732 50.1119C24.7581 51.2062 26.1525 52.3389 26.6549 52.4002C26.9129 52.4321 27.2952 52.3201 27.6609 52.2123C28.4387 51.9832 29.74 51.5987 30.4004 52.956C32.1041 56.4551 31.5355 59.5432 31.2468 60.6191C33.3489 63.1277 38.5897 68.8669 41.2167 69.5436C43.054 70.0164 46.8487 68.9335 50.5173 67.8856C53.8954 66.9208 57.0866 66.0092 59.2615 66.1017C59.6444 66.1133 59.9393 66.4364 59.93 66.8191L59.5742 81.6527C59.5682 81.8968 59.4363 82.1205 59.2259 82.2433C58.7046 82.5462 46.652 89.4956 38.5001 88.9126L38.5002 88.9121ZM19.9985 40.5692C19.9904 40.5686 19.9829 40.5681 19.9753 40.5675C19.77 40.5581 19.6693 40.6256 19.5983 40.6923C18.9561 41.2925 18.8947 43.6089 18.8403 45.6531C18.7933 47.4355 18.7443 49.279 18.3873 50.8305C17.3271 55.4385 17.0574 61.0239 17.3421 63.94C18.5302 76.1128 29.2694 86.3981 38.0767 87.4627C45.0466 88.3076 56.1163 82.3739 58.1868 81.2207L58.5155 67.5114C56.5444 67.6226 53.6793 68.4413 50.8988 69.2354C46.8744 70.3851 43.0734 71.4709 40.8682 70.9029C37.1374 69.9418 30.2221 61.581 29.9295 61.2255C29.7712 61.0332 29.7266 60.7711 29.8124 60.537C29.8232 60.5066 30.9465 57.2745 29.1444 53.573C29.0405 53.3593 29.0014 53.2789 28.0537 53.559C27.5754 53.7 27.0291 53.8595 26.486 53.7938C25.1962 53.6374 23.0776 51.52 22.4592 50.8746C22.3266 50.7363 22.2565 50.5494 22.265 50.3576C22.4337 46.4756 21.8284 40.7002 19.9985 40.5692Z" fill="#371A45"/>
<path d="M56.4905 142.953C54.5893 144.038 51.4428 144.871 47.0971 144.556C41.0197 144.116 36.081 143.453 36.4791 138.612C36.7946 134.77 42.9049 133.465 42.9049 133.465C41.0101 122.479 41.0592 113.089 41.8749 104.63C42.1502 101.79 42.51 99.0545 42.9124 96.3973L62.9226 102.021C61.1628 107.978 60.2525 113.822 59.7288 119.152C58.4994 131.638 59.3936 141.298 56.491 142.953L56.4905 142.953Z" fill="white"/>
<g opacity="0.35">
<path d="M62.9226 102.02C62.8057 102.414 62.6928 102.806 62.5855 103.199C62.5385 103.363 62.4939 103.528 62.4506 103.692C62.3907 103.91 62.3326 104.129 62.2764 104.347C62.2005 104.636 62.1265 104.923 62.0561 105.208C62.0328 105.3 62.0095 105.393 61.9881 105.485C61.9409 105.678 61.8944 105.868 61.8492 106.059C61.7858 106.327 61.7223 106.594 61.6627 106.861C61.6226 107.034 61.5845 107.207 61.5464 107.38C61.3849 108.118 61.2326 108.853 61.0916 109.584C61.004 110.035 60.9222 110.485 60.842 110.932C60.7991 111.173 60.7583 111.41 60.7169 111.649C60.6817 111.854 60.6469 112.06 60.6154 112.266C60.5598 112.604 60.5063 112.939 60.4566 113.274C60.4216 113.502 60.3872 113.73 60.3543 113.957C60.3074 114.279 60.2639 114.6 60.2191 114.919C60.1916 115.124 60.1643 115.326 60.1407 115.529C60.1141 115.721 60.0914 115.911 60.0663 116.102C60.024 116.434 59.9854 116.766 59.9471 117.094C59.9455 117.116 59.942 117.139 59.9385 117.161C59.8629 117.832 59.7915 118.496 59.7278 119.152C58.4984 131.638 59.3926 141.298 56.49 142.953C54.5888 144.038 51.4423 144.871 47.0966 144.556C42.2409 144.204 38.1106 143.71 36.8531 141.057C38.8089 142.02 41.7266 142.319 44.9702 142.553C49.3161 142.866 52.4644 142.034 54.3655 140.95C56.371 139.807 56.5637 134.843 56.8957 127.767C57.1223 122.951 54.7919 118.43 50.8921 116.348C46.1951 113.839 42.6414 109.853 41.8739 104.629C42.1492 101.789 42.509 99.0539 42.9114 96.3967L60.4237 101.319L62.9216 102.02L62.9226 102.02Z" fill="#371A45"/>
</g>
<path d="M47.0621 145.257L47.0455 145.256C42.5573 144.932 38.6923 144.488 36.8468 142.324C36.0147 141.349 35.6569 140.081 35.7828 138.554C36.0749 135.007 40.4218 133.427 42.1072 132.946C39.6004 117.89 40.7534 105.978 42.221 96.2917C42.279 95.9086 42.638 95.6476 43.0169 95.703C43.3984 95.7609 43.6608 96.1186 43.6028 96.5016C42.1311 106.213 40.979 118.185 43.5927 133.345L43.7076 134.011L43.0492 134.152C42.994 134.163 37.4454 135.394 37.1757 138.669C37.0806 139.824 37.3206 140.721 37.909 141.412C39.4018 143.161 43.1304 143.567 47.1471 143.857L47.1628 143.858C52.0543 144.208 54.8905 143.06 56.1465 142.344C57.7767 141.414 58.0098 136.446 58.3051 130.157C58.6571 122.648 59.1396 112.365 62.2523 101.822C62.3618 101.45 62.7503 101.238 63.1205 101.348C63.4907 101.458 63.7016 101.848 63.592 102.219C60.5278 112.599 60.0499 122.784 59.7011 130.221C59.3613 137.466 59.137 142.251 56.8363 143.563C55.4426 144.358 52.3208 145.633 47.0622 145.256L47.0621 145.257Z" fill="#371A45"/>
<g opacity="0.35">
<path d="M58.4346 110.045C58.4935 109.709 58.5572 109.366 58.6226 109.018C58.5572 109.366 58.4959 109.709 58.4346 110.045Z" fill="#371A45"/>
</g>
<g opacity="0.35">
<path d="M58.6522 108.857C58.7266 108.463 58.8047 108.065 58.8853 107.658C58.8047 108.065 58.726 108.465 58.6522 108.857Z" fill="#371A45"/>
</g>
<path d="M79.9103 101.451C79.6291 103.421 78.988 105.139 78.0661 106.615C69.7183 119.991 38.3229 113.499 41.8458 95.5527C42.3553 92.9639 43.1025 90.3519 43.9076 87.7158C44.7092 85.0813 45.5703 82.4229 46.3032 79.7429C46.9201 77.4854 47.4037 75.4786 47.8998 73.5168C48.2769 72.0175 48.6605 70.5487 49.1137 69.0127C49.2297 68.6166 49.3509 68.2155 49.4782 67.8097C53.9318 59.2456 76.7461 64.457 77.6955 67.391C77.9438 68.1578 78.1784 69.0098 78.3965 69.9324C78.8486 71.8357 79.237 74.0417 79.5543 76.4155C80.0363 80.0316 80.3519 84.0402 80.4664 87.9693C80.5109 89.4055 80.5262 90.8291 80.5139 92.2205C80.4852 95.6047 80.2924 98.791 79.9109 101.45L79.9103 101.451Z" fill="white"/>
<g opacity="0.35">
<path d="M80.1137 98.6101C79.8504 100.45 79.2739 102.07 78.448 103.477C76.4977 103.71 72.4576 103.808 64.8516 102.631L64.7478 103.422C64.505 105.275 62.7923 106.591 60.95 106.348L53.3916 105.352C51.1261 105.053 50.184 108.172 52.235 109.182C61.0153 113.507 72.7453 113.701 77.4905 106.098C77.5519 106 78.3903 103.577 78.448 103.478C78.9197 103.422 79.2695 103.357 79.5166 103.301C79.6006 103.006 79.6766 102.704 79.7426 102.396C79.4121 103.976 78.8372 105.38 78.0656 106.615C69.7712 119.905 38.726 113.582 41.782 95.8978C41.8287 97.2762 42.095 98.5718 42.5446 99.7766L42.6796 98.7491L43.5493 92.1546C43.7907 90.3009 45.4996 88.9849 47.347 89.2297L62.9284 91.2841C63.1593 91.3145 63.3797 91.3657 63.5898 91.4406C65.0767 91.9548 66.0541 93.4721 65.8416 95.0952L65.6554 96.5236C67.72 96.9322 75.0479 98.2307 80.2955 97.1757C80.2411 97.6682 80.1802 98.1462 80.1141 98.6101L80.1137 98.6101Z" fill="#371A45"/>
</g>
<g opacity="0.35">
<path d="M80.2275 98.659C80.1935 99.0328 80.1587 99.3998 80.1192 99.7588C80.0993 99.9632 80.0764 100.163 80.0517 100.362C80.0093 100.734 79.9624 101.096 79.9109 101.449C79.9103 101.458 79.9078 101.467 79.9071 101.475C79.8905 101.588 79.8733 101.702 79.8533 101.814L79.8528 101.821C79.8406 101.893 79.8289 101.962 79.8148 102.033C79.7921 102.156 79.7679 102.276 79.7431 102.395C79.6771 102.704 79.6012 103.006 79.5171 103.301C79.2695 103.357 78.9202 103.422 78.4485 103.477C79.2744 102.07 79.8509 100.45 80.1141 98.6102C80.1806 98.1473 80.2411 97.6697 80.2953 97.1777C80.331 96.8533 80.3651 96.5231 80.3959 96.186C80.3793 96.517 80.361 96.8464 80.3393 97.1703C80.3064 97.6763 80.2694 98.1728 80.2275 98.6585L80.2275 98.659Z" fill="#371A45"/>
</g>
<path d="M49.2718 67.7018C49.5283 67.0022 49.9415 66.3517 50.4499 65.7888C50.955 65.22 51.5625 64.7514 52.2046 64.3589C52.3661 64.2613 52.5283 64.1657 52.6956 64.0805C52.8604 63.9894 53.028 63.9057 53.198 63.8274C53.5374 63.6684 53.8847 63.5324 54.2341 63.4062C54.9327 63.1508 55.6507 62.9696 56.3696 62.8177C57.8101 62.5202 59.2679 62.3948 60.7174 62.3712C62.1677 62.343 63.6119 62.4277 65.0454 62.5748C66.4792 62.7239 67.9038 62.9359 69.3161 63.2189C70.7287 63.4985 72.1312 63.8387 73.5146 64.2795C74.2062 64.5008 74.8934 64.7448 75.5732 65.0381C75.9132 65.1835 76.2513 65.3422 76.5868 65.5237C76.9226 65.7066 77.2565 65.9043 77.5883 66.1712C77.7532 66.3041 77.92 66.4581 78.08 66.6611C78.12 66.7079 78.1595 66.7754 78.1969 66.8326C78.2157 66.8632 78.2347 66.8913 78.2523 66.9247L78.3034 67.0365L78.3501 67.1504C78.3667 67.1918 78.3656 67.1994 78.3742 67.2258L78.4125 67.3568L78.7189 68.405C78.8284 68.7536 78.9047 69.106 78.9911 69.4568L79.2451 70.5113C79.8576 73.3297 80.2597 76.1709 80.5669 79.0182C80.8669 81.8665 81.0543 84.723 81.1489 87.5838C81.2397 90.4444 81.2377 93.3097 81.0916 96.1768C81.0503 96.8937 81.0199 97.6104 80.9491 98.3271C80.8887 99.0441 80.8317 99.7608 80.7337 100.477L80.6024 101.552C80.5347 101.918 80.4835 102.287 80.4007 102.652C80.3085 103.013 80.2388 103.381 80.1176 103.736L79.9505 104.272C79.8874 104.448 79.8172 104.622 79.7508 104.798C79.2147 106.199 78.4156 107.5 77.4376 108.635C76.4625 109.776 75.2851 110.72 74.0298 111.507C72.7611 112.274 71.4055 112.878 70.009 113.325C68.6101 113.767 67.1742 114.066 65.728 114.244C62.8335 114.58 59.8996 114.455 57.0501 113.896C55.6251 113.617 54.2195 113.234 52.8499 112.739C51.4827 112.238 50.1532 111.624 48.8878 110.887C47.6213 110.152 46.4321 109.27 45.3517 108.26C44.2784 107.242 43.329 106.074 42.585 104.773C41.0811 102.173 40.564 99.014 41.0526 96.0772C41.1119 95.7086 41.1716 95.34 41.2494 94.9923C41.321 94.6385 41.3963 94.2858 41.4786 93.9352C41.6358 93.2318 41.8129 92.5347 41.9933 91.8402C42.1695 91.144 42.3591 90.4525 42.5505 89.7631C42.7396 89.0726 42.9319 88.3842 43.133 87.6993C43.5348 86.3295 43.98 84.9782 44.4572 83.6401C44.9404 82.3034 45.4504 80.9806 46.0777 79.6825C46.1348 79.5641 46.2761 79.5148 46.3941 79.5716C46.4849 79.6154 46.5348 79.7109 46.527 79.8056C46.4044 81.2519 46.0999 82.6554 45.7497 84.0385C45.3928 85.4206 44.9849 86.7832 44.5597 88.1355L43.9273 90.1627C43.7253 90.8399 43.5304 91.5185 43.3468 92.1984C43.1646 92.8789 42.9951 93.5622 42.8412 94.2467C42.761 94.5889 42.6873 94.9316 42.6179 95.275C42.5402 95.6217 42.4877 95.9554 42.4333 96.289C41.9929 98.9655 42.4558 101.743 43.7981 104.076C44.4654 105.243 45.3243 106.304 46.3096 107.238C47.3025 108.166 48.405 108.987 49.5919 109.676C50.7773 110.366 52.0315 110.946 53.3262 111.42C54.6237 111.888 55.9601 112.254 57.316 112.519C60.0281 113.052 62.8259 113.168 65.5622 112.851C66.9291 112.683 68.2793 112.401 69.5851 111.988C70.8883 111.571 72.1402 111.011 73.3008 110.31C74.4468 109.59 75.5105 108.737 76.3822 107.715C77.2573 106.698 77.9698 105.542 78.4498 104.285L78.6294 103.814L78.7793 103.331C78.8898 103.012 78.9509 102.678 79.0353 102.352C79.1109 102.023 79.1564 101.686 79.2189 101.353L79.346 100.31C79.441 99.6158 79.4969 98.9143 79.5557 98.213C79.6253 97.5135 79.6543 96.8086 79.6952 96.1046C79.8391 93.2876 79.8415 90.4577 79.7516 87.6312C79.6583 84.8044 79.473 81.9792 79.177 79.1681C78.8746 76.3594 78.4763 73.5582 77.8803 70.8161L77.6344 69.7962C77.5514 69.4567 77.4768 69.1134 77.3727 68.7834L77.081 67.7837L77.0446 67.6586C77.0396 67.6429 77.0308 67.6059 77.0283 67.6072C77.0256 67.6046 77.0234 67.6015 77.0222 67.5986C77.021 67.5956 77.0203 67.5922 77.0201 67.5884L77.0049 67.5677C76.9922 67.5519 76.9912 67.5394 76.9726 67.5194C76.9122 67.4442 76.8206 67.3515 76.7087 67.2636C76.4874 67.0845 76.2106 66.9154 75.9237 66.7608C75.636 66.6053 75.3321 66.4615 75.0203 66.3286C74.3983 66.0596 73.7479 65.8283 73.0898 65.618C70.4489 64.7837 67.679 64.2715 64.9072 64.0195C63.5194 63.9 62.1284 63.8521 60.7446 63.8756C59.3615 63.9106 57.9849 64.0208 56.6389 64.2503C55.2941 64.4824 53.9825 64.8499 52.774 65.4153C51.562 65.9766 50.4908 66.7955 49.6843 67.9195L49.6822 67.9222C49.6065 68.0278 49.4598 68.0518 49.3547 67.9758C49.2672 67.9126 49.2362 67.7998 49.2717 67.7033L49.2718 67.7018Z" fill="#371A45"/>
<path d="M41.7283 97.1949C43.3663 97.3121 44.7896 96.074 44.9073 94.4296C45.025 92.7851 43.7926 91.3569 42.1546 91.2396C40.5166 91.1224 39.0934 92.3605 38.9756 94.0049C38.8579 95.6494 40.0903 97.0776 41.7283 97.1949Z" fill="white"/>
<g opacity="0.35">
<path d="M38.9761 94.0043C38.8584 95.6486 40.0895 97.0783 41.7278 97.1956C43.366 97.3128 44.7905 96.0737 44.9083 94.4289C44.9408 93.9746 44.8703 93.5345 44.7143 93.1357C44.1661 94.1073 43.0936 94.7322 41.9102 94.6475C40.7268 94.5628 39.7542 93.7915 39.3523 92.7519C39.1407 93.1244 39.0087 93.55 38.9761 94.0043Z" fill="#371A45"/>
</g>
<path d="M41.6851 97.7901C39.7229 97.6496 38.2412 95.9325 38.3822 93.9625C38.5232 91.9925 40.2344 90.5039 42.1966 90.6444C44.1588 90.7848 45.6406 92.502 45.4996 94.472C45.3586 96.442 43.6473 97.9305 41.6851 97.7901ZM42.1114 91.8349C40.8028 91.7412 39.662 92.7336 39.5679 94.0474C39.4739 95.3612 40.4617 96.5059 41.7703 96.5996C43.079 96.6933 44.2198 95.7009 44.3138 94.3871C44.4079 93.0733 43.4196 91.9285 42.1114 91.8349Z" fill="#371A45"/>
<g opacity="0.35">
<path d="M80.2275 98.659C80.1936 99.0328 80.1587 99.3998 80.1192 99.7588C80.0993 99.9632 80.0764 100.164 80.0517 100.362C80.0094 100.734 79.9624 101.096 79.9109 101.449C79.9103 101.458 79.9078 101.467 79.9072 101.475C79.8905 101.589 79.8733 101.702 79.8534 101.814L79.8528 101.821C79.8406 101.893 79.8289 101.962 79.8148 102.033C79.7921 102.156 79.7679 102.276 79.7431 102.395C79.6772 102.704 79.6012 103.006 79.5172 103.301C79.2695 103.357 78.9202 103.422 78.4485 103.477C79.2744 102.07 79.8509 100.45 80.1142 98.6102C80.1807 98.1474 80.2411 97.6697 80.2954 97.1778C80.3094 97.1754 80.3253 97.1727 80.3397 97.1704L80.3416 97.1705C80.3088 97.6765 80.2699 98.1729 80.228 98.6586L80.2275 98.659Z" fill="#371A45"/>
</g>
<path d="M44.5041 101.825L60.0883 103.88C61.9329 104.124 63.6424 102.808 63.8867 100.954L64.9799 92.6272C65.1934 91.0037 64.2145 89.4876 62.7282 88.9725C62.518 88.8981 62.2967 88.8464 62.0668 88.8156L46.485 86.7606C44.638 86.5164 42.9285 87.8333 42.6866 89.6874L41.8189 96.282L41.5905 98.0136C41.3462 99.8681 42.6595 101.581 44.5037 101.825L44.5041 101.825Z" fill="white"/>
<g opacity="0.35">
<path d="M44.5041 101.825L60.0883 103.88C61.9329 104.124 63.6423 102.808 63.8866 100.954L64.9799 92.6271C65.1934 91.0036 64.2144 89.4876 62.7282 88.9724C61.7656 89.4458 61.1542 89.749 61.1542 89.749C59.5173 96.3327 57.1837 99.4155 48.8996 98.4611C45.3237 98.0482 43.1434 97.2048 41.8188 96.2824L41.5904 98.014C41.3461 99.8685 42.6594 101.582 44.5036 101.826L44.5041 101.825Z" fill="#371A45"/>
</g>
<path d="M60.2487 104.497C60.169 104.491 60.0895 104.483 60.0101 104.473L44.4269 102.418C42.2516 102.131 40.7155 100.121 41.0025 97.9367L42.0968 89.6093C42.3833 87.4253 44.3891 85.8764 46.5621 86.1689L62.1453 88.2239C64.3206 88.5108 65.8568 90.5209 65.5698 92.7049L64.4755 101.032C64.3371 102.087 63.7951 103.026 62.9494 103.678C62.1678 104.28 61.2172 104.566 60.2487 104.497ZM46.2398 87.3347C44.7799 87.2302 43.4689 88.2889 43.2751 89.7645L42.1808 98.0919C41.9797 99.6234 43.0568 101.033 44.5822 101.235L60.1654 103.29C60.8999 103.385 61.6324 103.188 62.2258 102.731C62.8196 102.273 63.1996 101.615 63.2967 100.877L64.391 92.5492C64.5922 91.0176 63.5151 89.608 61.9897 89.4065L46.4065 87.3514C46.3507 87.3441 46.2949 87.3387 46.2398 87.3347Z" fill="#371A45"/>
<path d="M43.8867 101.681C44.0829 101.75 44.2883 101.798 44.5042 101.825L60.0883 103.88C61.44 104.058 62.719 103.4 63.4016 102.303C63.6503 101.904 63.8203 101.448 63.8843 100.953L64.3717 97.2544L64.5325 96.0339L64.98 92.627C65.2242 90.7731 63.911 89.0594 62.0668 88.8154L58.6994 88.3723C60.2131 88.8708 61.2144 90.4004 60.9998 92.0401L60.4103 96.5382L59.9063 100.369C59.6622 102.221 57.9526 103.54 56.108 103.296L43.8866 101.681L43.8867 101.681Z" fill="white"/>
<g opacity="0.35">
<path d="M43.8866 101.681C44.0829 101.749 44.2883 101.798 44.5042 101.825L60.0883 103.88C61.933 104.124 63.6424 102.807 63.8843 100.953L64.5325 96.0339C64.0263 96.8515 63.1819 97.8254 62.0403 97.7891C61.4138 97.7706 60.8642 97.2435 60.4103 96.5381L59.9063 100.369C59.6622 102.221 57.9526 103.54 56.108 103.296L43.8866 101.681L43.8866 101.681Z" fill="#371A45"/>
</g>
<path d="M60.2506 104.497C60.171 104.491 60.091 104.483 60.0107 104.472L44.4266 102.417C44.1804 102.386 43.9328 102.329 43.6941 102.247L43.9638 101.09L56.1867 102.703C56.9236 102.798 57.6527 102.602 58.2461 102.145C58.8399 101.687 59.2198 101.029 59.3165 100.291L60.4108 91.9631C60.5858 90.6307 59.7883 89.3583 58.515 88.9379L58.7786 87.7793L62.1445 88.2228C63.1948 88.3621 64.1303 88.9057 64.7785 89.7538C65.4272 90.6025 65.7078 91.6506 65.5689 92.7047L64.4747 101.032C64.3367 102.086 63.7951 103.026 62.949 103.677C62.1679 104.28 61.2178 104.566 60.2502 104.497L60.2506 104.497ZM58.9248 103.126L60.1664 103.29C60.9028 103.385 61.6325 103.188 62.2258 102.731C62.8197 102.274 63.1996 101.615 63.2963 100.877L64.3906 92.549C64.4878 91.8108 64.291 91.0763 63.8355 90.4809C63.3799 89.8854 62.7241 89.5039 61.9888 89.4063L60.8676 89.2585C61.4465 90.0624 61.7256 91.0775 61.5887 92.1187L60.4944 100.446C60.3569 101.5 59.8149 102.44 58.9692 103.091C58.9541 103.103 58.9395 103.114 58.9243 103.126L58.9248 103.126Z" fill="#371A45"/>
<path d="M54.2994 95.4616C54.2607 95.7699 54.38 98.3119 54.38 98.3119C54.38 98.3119 55.1648 98.4106 56.1286 98.5323C57.3325 98.684 58.4659 97.5552 58.6599 96.0111C58.8538 94.4671 58.035 93.0922 56.8307 92.9409C56.018 92.8387 55.082 92.7205 55.082 92.7205C55.082 92.7205 54.3625 94.9597 54.2994 95.4616Z" fill="#22A7F0"/>
<g opacity="0.35">
<path d="M54.2994 95.4616C54.2607 95.7699 54.38 98.3119 54.38 98.3119C54.38 98.3119 55.1648 98.4106 56.1286 98.5323C57.3325 98.684 58.4659 97.5552 58.6599 96.0111C58.8538 94.4671 58.035 93.0922 56.8307 92.9409C56.018 92.8387 55.082 92.7205 55.082 92.7205C55.082 92.7205 54.3625 94.9597 54.2994 95.4616Z" fill="#371A45"/>
</g>
<path d="M56.1868 99.0173C56.1475 99.0145 56.1086 99.0107 56.069 99.0055L53.9235 98.7352L53.9045 98.3341C53.8764 97.7281 53.7866 95.7258 53.8274 95.4023C53.8945 94.871 54.5542 92.8075 54.6296 92.5741L54.7504 92.1974L56.8898 92.4669C57.6202 92.5589 58.2552 92.9997 58.6773 93.7086C59.077 94.3795 59.2386 95.2186 59.1314 96.0706C58.9109 97.8248 57.6041 99.1188 56.1864 99.0173L56.1868 99.0173ZM54.8365 97.8882L56.1878 98.0587C57.1355 98.172 58.0265 97.2326 58.1878 95.9518C58.2685 95.3105 58.1524 94.6881 57.8609 94.1991C57.5923 93.7482 57.2052 93.4692 56.771 93.4147L55.4149 93.2439C55.1476 94.0944 54.8079 95.2303 54.771 95.5206C54.7533 95.6945 54.7888 96.796 54.8365 97.8887L54.8365 97.8882Z" fill="#371A45"/>
<path d="M56.9143 95.7991C57.1083 94.2551 56.2895 92.8804 55.0854 92.7285C53.8814 92.5767 52.748 93.7053 52.554 95.2493C52.36 96.7933 53.1788 98.168 54.3828 98.3198C55.5869 98.4716 56.7202 97.3431 56.9143 95.7991Z" fill="#22A7F0"/>
<g opacity="0.35">
<path d="M54.3805 98.311C55.5833 98.4631 56.7163 97.3343 56.9107 95.7903C56.9547 95.4359 56.9475 95.0893 56.8915 94.7661C56.5127 95.9757 55.5298 96.7865 54.4989 96.6567C53.571 96.5396 52.8719 95.6964 52.6888 94.6102C52.6259 94.8101 52.5789 95.0207 52.5513 95.2398C52.3568 96.7853 53.1762 98.1583 54.3805 98.3105L54.3805 98.311Z" fill="#371A45"/>
</g>
<g opacity="0.7">
<path d="M52.5344 95.9757C52.8373 94.6084 53.8906 93.6529 55.0052 93.7934C56.013 93.9197 56.7524 94.9059 56.8515 96.1311C56.8761 96.0214 56.8962 95.9065 56.9112 95.7913C57.1055 94.2477 56.2863 92.8728 55.082 92.7206C53.8777 92.5683 52.7447 93.6972 52.5517 95.2413C52.5204 95.4923 52.5142 95.7383 52.5344 95.9757Z" fill="white"/>
</g>
<path d="M54.4415 98.7968C54.4011 98.794 54.3604 98.7901 54.3203 98.7848C53.5898 98.6928 52.9549 98.252 52.5327 97.5431C52.1331 96.8722 51.9719 96.0336 52.0787 95.1811C52.186 94.3292 52.5492 93.5563 53.1026 93.0053C53.6868 92.4235 54.4153 92.1554 55.1416 92.2457C55.8721 92.3377 56.507 92.7785 56.9292 93.4874C57.3288 94.1584 57.49 94.997 57.3832 95.8494C57.2759 96.7014 56.9127 97.4742 56.3593 98.0252C55.8075 98.5749 55.1307 98.8457 54.442 98.7964L54.4415 98.7968ZM54.955 93.1872C54.5424 93.1577 54.1252 93.3322 53.7725 93.6836C53.3695 94.0851 53.1034 94.6595 53.0227 95.3008C52.942 95.9422 53.0581 96.5646 53.3491 97.0535C53.6177 97.5044 54.0048 97.7834 54.4391 97.838C54.8729 97.8915 55.3176 97.719 55.6893 97.3483C56.0923 96.9469 56.3584 96.3724 56.4391 95.7311C56.5198 95.0898 56.4037 94.4674 56.1126 93.9785C55.8441 93.5275 55.4569 93.2485 55.0227 93.194C55.0005 93.1914 54.9778 93.1889 54.955 93.1872Z" fill="#371A45"/>
<path d="M49.3228 102.88C49.3171 102.879 49.3114 102.879 49.3058 102.879C49.0446 102.85 48.856 102.615 48.8838 102.353L49.319 98.3048C49.4269 97.3031 49.1479 96.3134 48.5336 95.517L48.3456 95.2734C47.559 94.2541 47.2085 92.9367 47.3834 91.6593L48.0259 86.9664C48.0617 86.7052 48.3084 86.5228 48.5618 86.5582C48.822 86.594 49.004 86.8349 48.9681 87.0961L48.3257 91.789C48.1851 92.8142 48.4665 93.871 49.0973 94.6882L49.2854 94.9319C50.051 95.9243 50.3989 97.1582 50.2647 98.4065L49.8295 102.455C49.8016 102.711 49.5771 102.898 49.3228 102.88Z" fill="#371A45"/>
<path d="M81.7425 97.6604C81.4999 99.9706 79.151 100.69 79.151 100.69C79.151 100.69 75.871 102.111 62.9101 99.9916C62.9101 99.9916 59.4923 95.9366 64.2324 93.9397C64.2324 93.9397 73.2222 95.9372 79.387 94.7167C80.4987 94.4967 81.9589 95.5963 81.7425 97.6604Z" fill="white"/>
<g opacity="0.35">
<path d="M81.742 97.6603C81.5009 99.9702 79.1519 100.691 79.1519 100.691C79.1519 100.691 75.8714 102.111 62.9106 99.9911C62.9106 99.9911 60.9763 97.6959 62.0371 95.7094C62.0402 95.7207 62.0436 95.7319 62.0467 95.7427C62.387 96.8956 63.3809 97.7364 64.5651 97.9155C76.2903 99.6891 79.3174 98.3789 79.3174 98.3789C79.3174 98.3789 80.9615 97.8744 81.6397 96.3588C81.751 96.7353 81.7938 97.1696 81.742 97.6603Z" fill="#371A45"/>
</g>
<path d="M71.2173 101.614C69.0038 101.455 66.2422 101.141 62.814 100.58L62.5978 100.545L62.4563 100.377C62.3851 100.292 60.7191 98.2848 61.217 96.2044C61.5073 94.9927 62.4442 94.0456 64.0029 93.3894L64.1769 93.3162L64.3613 93.3572C64.4495 93.3769 73.304 95.3136 79.2729 94.1317C79.9795 93.9918 80.755 94.2335 81.3486 94.778C82.0993 95.4664 82.4581 96.5403 82.3339 97.7232C82.0646 100.287 79.6449 101.156 79.35 101.253C79.05 101.368 77.0304 102.03 71.2173 101.614L71.2173 101.614ZM63.238 99.4401C75.5261 101.426 78.8906 100.153 78.9235 100.139L78.9783 100.12C79.0568 100.095 80.9546 99.4758 81.1519 97.5989C81.2673 96.5001 80.8222 95.912 80.5466 95.6592C80.2348 95.3732 79.835 95.2373 79.5023 95.303C73.7103 96.4502 65.6653 94.8539 64.294 94.5638C63.2081 95.0551 62.5623 95.6991 62.3739 96.4792C62.0813 97.6897 62.9099 98.9882 63.2379 99.4405L63.238 99.4401Z" fill="#371A45"/>
<path d="M61.1989 112.567C61.2032 111.948 61.1609 128.389 61.7424 138.493C62.1602 145.744 68.0469 146.916 77.5992 146.85C81.1154 146.826 83.8759 145.863 83.8253 142.782C83.7568 138.643 78.4342 136.697 78.4342 136.697C78.4342 136.697 78.2921 119.687 78.4823 102.053L60.4519 108.378L61.199 112.566L61.1989 112.567Z" fill="white"/>
<path d="M72.3997 147.426C66.2414 146.985 61.4272 145.176 61.0449 138.534C60.5494 129.932 60.5032 116.632 60.5004 112.761L60.5004 112.589C60.5001 112.58 60.4997 112.571 60.4999 112.562C60.5028 112.176 60.8161 111.847 61.2013 111.849C61.4862 111.851 61.8264 111.979 61.8882 112.562L61.8977 112.563C61.8971 112.584 61.896 112.606 61.8935 112.627C61.8962 112.669 61.8978 112.713 61.8978 112.76C61.9003 116.622 61.9466 129.887 62.44 138.453C62.8175 145.007 68.0571 146.214 77.595 146.149C79.9503 146.133 81.5717 145.686 82.4136 144.821C82.9076 144.313 83.1409 143.651 83.1264 142.795C83.0667 139.193 78.2427 137.375 78.1939 137.356L77.7401 137.189L77.7353 136.704C77.7341 136.534 77.5953 119.486 77.7829 102.046C77.7873 101.659 78.1032 101.348 78.4891 101.352C78.8717 101.355 79.1845 101.673 79.1802 102.061C79.01 117.878 79.108 133.371 79.1287 136.225C80.5022 136.832 84.4592 138.914 84.5231 142.77C84.5436 144.002 84.1698 145.022 83.4123 145.801C82.2843 146.96 80.384 147.533 77.6028 147.552C75.8114 147.564 74.056 147.544 72.3988 147.426L72.3997 147.426Z" fill="#371A45"/>
<path d="M96.7502 91.5325C95.6688 98.9331 85.529 107.294 80.9886 107.627C79.8369 107.711 78.8518 107.242 78.0661 106.616C76.7108 105.536 75.9497 103.987 75.9497 103.987C75.9497 103.987 72.8071 104.534 70.7817 103.617C68.7544 102.702 68.8331 94.5295 70.4574 92.7365C72.0798 90.9449 76.9647 91.4266 77.9895 91.5684C79.0125 91.7101 80.1426 92.7846 80.1426 92.7846L80.5138 92.222L82.0246 89.9303L80.4663 87.9708L79.2921 86.4925L78.1875 77.2616L77.2095 69.0788C77.2095 69.0788 77.6482 69.3845 78.3969 69.9339C79.4701 70.7191 81.1786 72.0055 83.1326 73.5994C89.1558 78.5124 97.5084 86.3544 96.7506 91.533L96.7502 91.5325Z" fill="white"/>
<g opacity="0.35">
<path d="M96.2509 93.5391C93.8952 100.367 85.1221 107.324 80.9886 107.626C77.8548 107.855 75.9498 103.986 75.9498 103.986C75.9498 103.986 72.8071 104.533 70.7818 103.616C68.7544 102.701 68.8331 94.5286 70.4575 92.7357C70.5754 92.6068 70.7083 92.488 70.8576 92.3809C70.3031 95.4782 70.6574 100.045 72.142 100.717C74.1692 101.634 76.4552 100.435 77.3115 101.087C78.1677 101.739 79.2165 104.956 82.3503 104.727C85.8962 104.467 92.8571 99.3111 96.2509 93.5391Z" fill="#371A45"/>
</g>
<path d="M77.3415 68.8857C79.6841 69.9795 81.7175 71.5222 83.714 73.102C84.705 73.9023 85.6704 74.7353 86.616 75.5918C87.56 76.4496 88.5002 77.3133 89.4125 78.209C91.2463 79.9892 93.0118 81.8597 94.5546 83.9488C95.3236 84.9941 96.0334 86.0998 96.5984 87.3119C96.8782 87.9188 97.1197 88.5544 97.2851 89.2268C97.4492 89.8976 97.5411 90.6116 97.4716 91.3427L97.443 91.6159L97.3988 91.8678L97.3067 92.3686C97.22 92.6936 97.1541 93.0278 97.0452 93.344L96.8913 93.8221C96.8362 93.98 96.7732 94.1339 96.7144 94.2895C96.6013 94.604 96.4583 94.9025 96.325 95.206C95.7708 96.4093 95.074 97.5249 94.3141 98.5838C92.7851 100.697 90.9681 102.564 88.9704 104.211C87.9709 105.035 86.9181 105.796 85.8012 106.473C85.2435 106.813 84.6687 107.13 84.0675 107.41C83.4681 107.692 82.8474 107.945 82.1774 108.121C81.8426 108.209 81.4958 108.279 81.131 108.314C80.9511 108.336 80.7571 108.322 80.5706 108.324C80.3812 108.332 80.1963 108.297 80.0106 108.268C79.2684 108.147 78.581 107.834 77.9944 107.431C77.404 107.027 76.9081 106.535 76.4689 106.011L76.152 105.609C76.0542 105.47 75.9509 105.335 75.8581 105.193C75.7634 105.051 75.6711 104.909 75.5839 104.762C75.4936 104.612 75.4148 104.474 75.3235 104.296L76.0691 104.676C75.4543 104.773 74.8856 104.819 74.2882 104.84C73.6962 104.858 73.0991 104.843 72.4954 104.771C71.8928 104.698 71.2806 104.572 70.676 104.328L70.5629 104.283C70.5258 104.268 70.4905 104.256 70.4342 104.223C70.3362 104.166 70.2239 104.11 70.1444 104.041C70.0644 103.973 69.976 103.904 69.9078 103.831L69.7154 103.608C69.4928 103.308 69.3435 103.003 69.2182 102.701C68.982 102.099 68.8491 101.505 68.7504 100.913C68.654 100.321 68.5994 99.7316 68.5719 99.1433C68.5202 97.967 68.5674 96.7953 68.7353 95.6213C68.8217 95.034 68.9386 94.4465 69.1226 93.8542C69.2172 93.558 69.3243 93.2608 69.4794 92.9588C69.5502 92.8093 69.6475 92.6559 69.7469 92.5056L69.9272 92.2782C69.9898 92.2085 70.0558 92.1462 70.121 92.081C70.6606 91.5898 71.2777 91.3195 71.873 91.1353C72.4731 90.9504 73.0705 90.8491 73.6625 90.7847C74.8475 90.6609 76.0126 90.6801 77.1731 90.7728C77.464 90.7974 77.7514 90.8257 78.0498 90.8657C78.4201 90.9142 78.7676 91.0406 79.062 91.1837C79.3605 91.3295 79.6313 91.4958 79.8889 91.6732C80.1495 91.856 80.3795 92.0323 80.6329 92.2615L79.5489 92.3869C80.1626 91.4262 80.7554 90.4515 81.4095 89.5181L81.4477 90.3891C81.2244 90.0988 81.0137 89.799 80.797 89.5039C80.5848 89.2049 80.3781 88.902 80.1821 88.5902C79.9815 88.282 79.7926 87.9646 79.6122 87.6401C79.4304 87.3169 79.2601 86.9845 79.1111 86.635C79.0584 86.512 79.1154 86.3692 79.2378 86.3167C79.319 86.2818 79.4086 86.2949 79.4753 86.3432C79.7815 86.5667 80.0666 86.8072 80.34 87.057C80.6149 87.306 80.8812 87.561 81.1359 87.8257C81.3952 88.0869 81.6438 88.3565 81.8869 88.6304C82.1254 88.9079 82.3699 89.181 82.6019 89.4642L82.9307 89.8658L82.6401 90.3356C82.0396 91.3049 81.3777 92.234 80.7367 93.176L80.2604 93.8761L79.6527 93.3008C79.4911 93.1481 79.2777 92.9724 79.0783 92.8285C78.8753 92.6799 78.6645 92.548 78.4552 92.4483C78.2423 92.346 78.0515 92.2811 77.8616 92.2565C77.6009 92.2216 77.3273 92.1943 77.0567 92.1716C75.9703 92.0843 74.8702 92.0687 73.811 92.18C73.2825 92.237 72.763 92.3281 72.2843 92.4761C71.8053 92.6204 71.3699 92.8352 71.0724 93.1088L70.9691 93.2134C70.9427 93.2493 70.9149 93.2842 70.8863 93.3185C70.8324 93.4051 70.7744 93.489 70.7253 93.5961C70.6203 93.7972 70.5333 94.0341 70.4563 94.2765C70.3045 94.7658 70.1973 95.2914 70.1196 95.8238C69.9664 96.8912 69.921 97.9921 69.9697 99.0768C69.9952 99.619 70.0457 100.159 70.1311 100.684C70.2171 101.208 70.338 101.723 70.5159 102.175C70.6074 102.395 70.7135 102.599 70.8268 102.754C70.8565 102.786 70.8847 102.818 70.9118 102.852C70.9397 102.882 70.9668 102.896 70.9911 102.922C71.0164 102.949 71.0385 102.946 71.0586 102.966C71.0615 102.972 71.0926 102.984 71.1213 102.995L71.2048 103.028C71.6463 103.207 72.1476 103.316 72.6628 103.378C73.179 103.439 73.7124 103.454 74.2475 103.437C74.7769 103.421 75.3339 103.373 75.8334 103.294L76.3387 103.214L76.579 103.674C76.6968 103.9 76.8576 104.17 77.0194 104.407C77.0993 104.53 77.1892 104.647 77.2731 104.767L77.5445 105.111C77.9178 105.556 78.3316 105.963 78.7881 106.273C79.2434 106.585 79.7367 106.8 80.2418 106.882C80.3681 106.903 80.4939 106.932 80.6224 106.921C80.7514 106.916 80.8751 106.933 81.0084 106.916C81.273 106.89 81.5476 106.836 81.824 106.764C82.3778 106.619 82.9345 106.395 83.4783 106.138C84.0242 105.884 84.5592 105.59 85.0821 105.271C86.1297 104.636 87.1341 103.911 88.0886 103.124C89.997 101.551 91.7417 99.7551 93.1846 97.7591C93.9016 96.7604 94.5538 95.7143 95.0603 94.6124C95.1817 94.3354 95.3133 94.0614 95.4146 93.7786C95.4676 93.6379 95.5253 93.4984 95.5745 93.3565L95.7115 92.9288C95.8104 92.6453 95.8646 92.3539 95.9433 92.0671L96.0226 91.632L96.0615 91.4155L96.0815 91.2155C96.1341 90.6812 96.0667 90.1174 95.9298 89.5591C95.7925 88.9998 95.5835 88.4435 95.3325 87.9005C94.8268 86.8127 94.1637 85.7731 93.432 84.7792C91.9636 82.7898 90.2424 80.9607 88.445 79.2172C87.5372 78.3534 86.6115 77.5055 85.6563 76.69C84.7027 75.8727 83.7346 75.0715 82.7671 74.269C80.8416 72.6503 78.864 71.1006 77.0782 69.2675L77.0751 69.2644C76.9841 69.1707 76.9858 69.0206 77.0791 68.9287C77.1514 68.8577 77.2578 68.8428 77.3441 68.883L77.3415 68.8857Z" fill="#371A45"/>
<path d="M91.4667 58.2175C91.1664 58.2036 90.9344 57.9482 90.9479 57.6467L91.6705 41.9238C91.6845 41.6223 91.9391 41.3892 92.2394 41.4026C95.3898 41.5467 97.8257 44.2277 97.6803 47.3901L97.4338 52.7517C97.2885 55.9146 94.6167 58.3616 91.4667 58.2175Z" fill="white"/>
<path d="M91.4434 58.3435C91.0829 58.3177 90.8053 58.0068 90.8223 57.6419L91.545 41.919C91.562 41.5488 91.8757 41.2611 92.245 41.2779C93.7982 41.3503 95.2378 42.0249 96.2883 43.1808C97.3382 44.3367 97.877 45.8341 97.8052 47.3975L97.5587 52.7591C97.4106 55.986 94.675 58.492 91.4604 58.3452C91.4547 58.3448 91.449 58.3444 91.4428 58.3439L91.4434 58.3435ZM92.3803 41.5384C92.3314 41.5349 92.2826 41.5319 92.2336 41.5298C92.0031 41.5191 91.8067 41.6993 91.7959 41.9307L91.0732 57.6536C91.0628 57.885 91.2375 58.0818 91.4723 58.0928C94.5481 58.2335 97.1659 55.8354 97.3083 52.7474L97.5548 47.3858C97.6232 45.8897 97.108 44.4566 96.103 43.3509C95.1308 42.2809 93.8136 41.641 92.3803 41.5384Z" fill="#371A45"/>
<g opacity="0.35">
<path d="M97.5494 50.2385L97.4342 52.7531C97.2885 55.9145 94.6171 58.3624 91.4661 58.2192C91.1658 58.2058 90.9339 57.9485 90.9474 57.6474L91.1383 53.4678C91.214 53.6623 91.398 53.8023 91.6179 53.8142L91.9896 53.8303C94.479 53.9449 96.671 52.4395 97.5494 50.2389L97.5494 50.2385Z" fill="#371A45"/>
</g>
<path d="M91.4023 58.9174C90.7331 58.8695 90.219 58.2924 90.2502 57.6159L90.9729 41.893C91.0044 41.2056 91.5871 40.672 92.2713 40.7032C93.9838 40.7828 95.5588 41.5239 96.7117 42.793C97.8652 44.0621 98.4568 45.7069 98.3778 47.4238L98.1313 52.7855C97.9682 56.3295 94.9641 59.0815 91.4341 58.9197C91.4236 58.919 91.4127 58.9182 91.4018 58.9174L91.4023 58.9174ZM92.3615 42.114L91.6533 57.5225C94.3463 57.5636 96.6107 55.4402 96.7357 52.721L96.9822 47.3593C97.044 46.0169 96.5811 44.7312 95.6791 43.7386C94.8121 42.7843 93.6389 42.2112 92.3615 42.114Z" fill="#371A45"/>
<path d="M40.5461 39.038C40.8464 39.0519 41.0784 39.3073 41.0649 39.6088L40.3423 55.3317C40.3283 55.6332 40.0738 55.8663 39.7734 55.8529C36.623 55.7088 34.1872 53.0278 34.3325 49.8654L34.579 44.5038C34.7243 41.3409 37.3962 38.8939 40.5461 39.038Z" fill="white"/>
<path d="M39.6159 55.9698C36.4746 55.745 34.0608 53.0354 34.2066 49.8597L34.4531 44.498C34.6012 41.2707 37.3368 38.7651 40.5514 38.9124C40.7323 38.922 40.8952 38.9978 41.0153 39.1309C41.1355 39.2634 41.1976 39.4354 41.1895 39.6148L40.4668 55.3377C40.4498 55.7084 40.1361 55.9961 39.7669 55.9787C39.7165 55.9766 39.6657 55.9734 39.6154 55.9698L39.6159 55.9698ZM40.5514 39.1647C40.5476 39.1644 40.5438 39.1641 40.5405 39.1639C37.4642 39.0231 34.8465 41.4208 34.7045 44.5093L34.458 49.871C34.3186 52.9103 36.6288 55.5028 39.6344 55.7184C39.6828 55.7219 39.7307 55.7248 39.7792 55.7269C40.0096 55.7376 40.206 55.5579 40.2169 55.326L40.9396 39.6031C40.9447 39.491 40.9057 39.3834 40.8306 39.3005C40.7577 39.2206 40.6591 39.1724 40.5519 39.1647L40.5514 39.1647Z" fill="#371A45"/>
<g opacity="0.35">
<path d="M40.5435 50.97L40.3423 55.3317C40.3289 55.6332 40.0724 55.8661 39.7725 55.8528C38.119 55.7765 36.6608 55.0021 35.6705 53.8246C34.7765 52.7612 34.2636 51.3676 34.3325 49.8663L34.436 47.6069C35.239 49.6301 37.1683 51.1022 39.4776 51.2081L40.0493 51.2342C40.2579 51.2434 40.4406 51.1359 40.543 50.9699L40.5435 50.97Z" fill="#371A45"/>
</g>
<path d="M39.5748 56.5436C36.1252 56.2967 33.474 53.3213 33.6345 49.833L33.881 44.4714C34.0441 40.9273 37.0481 38.1753 40.5782 38.3371C40.9163 38.3565 41.2161 38.4962 41.4397 38.7424C41.6633 38.9886 41.7783 39.3075 41.7626 39.6405L41.0399 55.3634C41.0083 56.0508 40.4257 56.5844 39.741 56.5531C39.6854 56.5505 39.6299 56.5471 39.5748 56.5431L39.5748 56.5436ZM40.359 39.7338C37.666 39.6933 35.4016 41.8161 35.2766 44.5354L35.0301 49.897C34.905 52.6163 36.9658 54.9367 39.6508 55.1423L40.359 39.7338Z" fill="#371A45"/>
<g opacity="0.35">
<path d="M83.1316 73.5988C82.0135 74.6406 80.8143 75.5834 79.5533 76.4159C79.105 76.7107 78.6505 76.9931 78.1866 77.2605C73.5355 79.9448 68.1207 81.1908 62.5123 80.5131C61.2831 80.3634 60.0828 80.1281 58.9181 79.8093C54.725 78.6667 50.9769 76.4696 47.8992 73.5173C46.7946 72.4589 45.7756 71.3028 44.854 70.0657C46.1625 69.8147 47.621 69.4319 49.1131 69.0131C49.2292 68.617 49.3504 68.216 49.4777 67.8101C53.9313 59.2461 76.7456 64.4574 77.695 67.3914C77.9433 68.1582 78.1779 69.0102 78.396 69.9328C79.4692 70.718 81.1777 72.0043 83.1317 73.5983L83.1316 73.5988Z" fill="#371A45"/>
</g>
<path d="M83.498 68.8939C94.6523 59.1911 95.8648 42.2519 86.2063 31.0592C76.5478 19.8665 59.6756 18.6588 48.5213 28.3616C37.367 38.0645 36.1544 55.0036 45.813 66.1963C55.4715 77.389 72.3437 78.5968 83.498 68.8939Z" fill="white"/>
<path d="M64.1148 75.5101C63.7012 75.4805 63.2878 75.4414 62.8737 75.3926C48.1748 73.6651 37.6227 60.2529 39.3517 45.4951C41.0813 30.737 54.4473 20.1377 69.1459 21.8638C76.2665 22.7009 82.6346 26.2717 87.0774 31.9183C91.5201 37.5653 93.5052 44.6121 92.6678 51.7613C91.83 58.9104 88.2701 65.3056 82.6426 69.769C77.3427 73.9725 70.8063 75.9887 64.1153 75.5097L64.1148 75.5101ZM67.9014 21.9992C53.8241 20.9915 41.2667 31.3112 39.6009 45.5245C37.8879 60.1445 48.3412 73.431 62.9031 75.1425C63.3129 75.1905 63.7235 75.2294 64.1323 75.2587C70.7617 75.7332 77.2357 73.736 82.4866 69.5716C88.061 65.1499 91.5885 58.8146 92.4182 51.7324C93.2479 44.6502 91.281 37.6693 86.8802 32.075C82.479 26.4807 76.1709 22.9434 69.1165 22.1144C68.7113 22.0668 68.3045 22.0285 67.9019 21.9997L67.9014 21.9992Z" fill="#371A45"/>
<g opacity="0.35">
<path d="M92.7203 48.029C92.748 49.2534 92.6892 50.4946 92.5429 51.7467C90.8171 66.4583 77.5409 76.9888 62.8873 75.2678C48.2339 73.5436 37.7526 60.2212 39.4751 45.5089C39.5244 45.086 39.5837 44.6633 39.653 44.249C39.9224 57.4272 49.8349 68.7135 63.2427 70.2897C77.4746 71.9613 90.4051 62.0771 92.7203 48.0285L92.7203 48.029Z" fill="#371A45"/>
</g>
<path d="M64.0741 76.084C63.652 76.0538 63.2296 76.014 62.807 75.9641C55.5341 75.1094 49.0303 71.4624 44.4928 65.6947C39.9552 59.9274 37.9276 52.7296 38.783 45.4277C40.5489 30.3548 54.2014 19.5296 69.2129 21.2919C76.4858 22.1466 82.9896 25.7936 87.5272 31.5614C92.0647 37.3291 94.0924 44.5264 93.2369 51.8284C92.3815 59.1299 88.7451 65.6618 82.9978 70.2204C77.5847 74.5139 70.9089 76.5733 64.0746 76.0841L64.0741 76.084ZM67.8602 22.5735C54.0865 21.5876 41.7995 31.6849 40.17 45.5916C38.4939 59.8965 48.7222 72.8964 62.9696 74.571C69.8737 75.383 76.6766 73.4467 82.1312 69.1203C87.5858 64.7943 91.0368 58.5952 91.8489 51.6658C92.661 44.7365 90.7367 37.9056 86.4303 32.432C82.1244 26.9584 75.9515 23.4973 69.0498 22.686C68.6531 22.6394 68.2553 22.6018 67.8607 22.5736L67.8602 22.5735Z" fill="#371A45"/>
<path d="M64.0741 76.084C63.652 76.0538 63.2296 76.014 62.807 75.9641C55.5341 75.1094 49.0303 71.4624 44.4928 65.6947C39.9552 59.9274 37.9276 52.7296 38.783 45.4277C40.5489 30.3548 54.2014 19.5296 69.2129 21.2919C76.4858 22.1466 82.9896 25.7936 87.5272 31.5614C92.0647 37.3291 94.0924 44.5264 93.2369 51.8284C92.3815 59.1299 88.7451 65.6618 82.9978 70.2204C77.5847 74.5139 70.9089 76.5733 64.0746 76.0841L64.0741 76.084ZM67.8602 22.5735C54.0865 21.5876 41.7995 31.6849 40.17 45.5916C38.4939 59.8965 48.7222 72.8964 62.9696 74.571C69.8737 75.383 76.6766 73.4467 82.1312 69.1203C87.5858 64.7943 91.0368 58.5952 91.8489 51.6658C92.661 44.7365 90.7367 37.9056 86.4303 32.432C82.1244 26.9584 75.9515 23.4973 69.0498 22.686C68.6531 22.6394 68.2553 22.6018 67.8607 22.5736L67.8602 22.5735Z" fill="#371A45"/>
<path d="M93.3638 52.5665C92.8313 57.788 90.6176 62.4599 87.267 66.1702C84.7553 68.9516 75.1538 73.288 63.95 72.2434C53.5617 71.2748 44.6743 64.8563 42.7757 61.6236C40.243 57.3123 39.0174 52.2889 39.5499 47.0674C40.9586 33.2497 53.5888 28.7525 68.4496 30.271C83.3108 31.7895 94.7724 38.7488 93.3638 52.5665Z" fill="#371A45"/>
<path d="M64.198 72.8083C63.9353 72.7895 63.6732 72.7679 63.408 72.7431C52.876 71.7629 44.1212 65.2438 42.1789 61.8697C39.5466 57.2966 38.4344 52.1416 38.962 46.9628C39.6492 40.2202 42.8715 35.297 48.5392 32.3303C53.4926 29.737 60.2292 28.7867 68.0188 29.5827C75.8088 30.3787 82.2141 32.6718 86.5424 36.2138C91.4945 40.2661 93.6566 45.7394 92.9694 52.482C92.4414 57.6607 90.3117 62.4841 86.8112 66.4306C84.4403 69.1035 75.4508 73.6143 64.1985 72.8088L64.198 72.8083ZM66.3909 30.6388C58.0014 30.0382 41.7838 31.0053 40.1452 47.0834C39.6428 52.0108 40.7022 56.9169 43.2085 61.2719C44.9897 64.3664 53.5348 70.6254 63.5183 71.5545C74.5881 72.5862 83.7078 68.134 85.9232 65.6366C89.2566 61.8787 91.2843 57.2878 91.7863 52.3604C93.5299 35.2551 75.6611 31.5628 67.8976 30.7696C67.4314 30.7219 66.9264 30.6771 66.3905 30.6388L66.3909 30.6388Z" fill="#371A45"/>
<g opacity="0.5">
<path d="M87.2716 50.6134C87.9961 48.0946 87.11 45.6263 85.2923 45.1003C83.4747 44.5742 81.4138 46.1897 80.6893 48.7084C79.9647 51.2272 80.8509 53.6955 82.6685 54.2215C84.4862 54.7476 86.5471 53.1321 87.2716 50.6134Z" fill="white"/>
</g>
<g opacity="0.5">
<path d="M80.5596 59.362C81.0482 58.2631 80.683 57.0316 79.7439 56.6111C78.8048 56.1907 77.6475 56.7407 77.1589 57.8395C76.6703 58.9383 77.0355 60.1699 77.9746 60.5903C78.9137 61.0107 80.071 60.4608 80.5596 59.362Z" fill="white"/>
</g>
<g opacity="0.35">
<path d="M88.5546 39.0056C91.4679 42.4291 92.9425 46.8706 92.3774 52.4205C91.8453 57.643 89.6618 62.318 86.3676 66.0342C83.8956 68.8199 74.4603 73.173 63.4623 72.1502C59.5789 71.7899 55.9123 70.6377 52.7556 69.1697C66.3013 70.1374 77.7995 64.7862 80.8638 61.3306C85.0477 56.6146 87.8171 50.6802 88.4916 44.0545C88.6732 42.2836 88.6873 40.6013 88.5545 39.0061L88.5546 39.0056Z" fill="#111A28"/>
</g>
<path d="M91.2984 40.6674C91.167 40.658 91.0379 40.6047 90.9347 40.5074C90.9195 40.4934 90.9022 40.4754 90.889 40.4596L90.8219 40.3643C86.9732 33.5795 78.667 29.0649 68.0325 27.9782C57.3333 26.885 48.2884 29.7454 43.2032 35.8246L43.1619 35.8696C42.9427 36.087 42.5913 36.1011 42.3548 35.8951C42.1071 35.6792 42.0807 35.3021 42.2959 35.0533C42.298 35.051 42.3001 35.0483 42.3026 35.0456C47.6467 28.667 57.065 25.6572 68.1533 26.7908C79.1592 27.9156 87.7896 32.6362 91.838 39.7435C91.9858 39.969 91.9668 40.2749 91.7747 40.4804C91.6472 40.6168 91.4711 40.6798 91.2984 40.6674Z" fill="#371A45"/>
<g opacity="0.5">
<path d="M44.6474 55.8491C44.6474 55.8491 41.7746 41.7824 49.6452 37.0981C57.5158 32.4138 68.0412 33.5114 67.7256 34.1641C67.7256 34.1641 55.7827 35.8057 50.2793 44.59C46.0358 51.3637 44.6469 55.849 44.6469 55.849L44.6474 55.8491Z" fill="white"/>
</g>
<path d="M20.5719 63.5003C21.6619 63.0987 21.0292 63.8724 23.4142 63.5137C26.351 63.0725 26.9283 57.1664 26.7035 53.9722C26.4788 50.7781 24.6407 50.1028 23.4467 49.3879C22.2526 48.673 18.2822 49.5146 17.7063 50.6732C17.1304 51.8319 15.6886 60.4785 17.2161 62.4497" fill="white"/>
<g opacity="0.35">
<path d="M23.4141 63.5141C21.0296 63.8727 21.6609 63.0985 20.5728 63.5007C20.5728 63.5007 20.1543 61.4222 22.5388 61.064C25.4757 60.6219 26.0528 54.7167 25.8277 51.5215C25.8187 51.4012 25.808 51.2846 25.7951 51.1712C26.2611 51.8077 26.6129 52.6872 26.703 53.9721C26.9277 57.1672 26.351 63.0724 23.4141 63.5145L23.4141 63.5141Z" fill="#371A45"/>
</g>
<path d="M20.4919 63.2806C20.6589 63.1251 20.8436 62.9693 21.1865 62.9278C21.3623 62.915 21.5189 62.9454 21.6168 62.9572C21.715 62.97 21.7782 62.9663 21.8484 62.9647C22.12 62.9468 22.4605 62.9118 22.816 62.8535C22.9841 62.8234 23.1921 62.7943 23.3404 62.7608C23.4688 62.7313 23.5943 62.6972 23.7134 62.6382C23.9541 62.5315 24.1909 62.3603 24.4059 62.1283C24.8416 61.6626 25.1429 60.9892 25.3694 60.2966C25.5935 59.5966 25.748 58.8562 25.8547 58.1052C25.9605 57.3537 26.0213 56.5903 26.0407 55.8264C26.0509 55.4447 26.0515 55.0623 26.0392 54.6824C26.0327 54.4924 26.0249 54.3028 26.0121 54.1147C26.0003 53.9262 25.9754 53.755 25.9588 53.5739C25.8719 52.8631 25.6489 52.2096 25.2875 51.6702C24.919 51.1307 24.3902 50.732 23.7336 50.3609L23.2179 50.0665L23.0865 49.9906L23.029 49.9621C22.9818 49.9419 22.9226 49.9224 22.8576 49.9048C22.585 49.8369 22.2331 49.8175 21.8832 49.8312C21.177 49.8596 20.4384 49.9958 19.754 50.2129C19.4125 50.3211 19.0806 50.4553 18.7985 50.6131C18.6576 50.6911 18.5307 50.7782 18.4434 50.8591C18.3995 50.899 18.3688 50.9356 18.3478 50.9623C18.3415 50.9767 18.3392 50.9766 18.3293 50.9945L18.2964 51.074C18.1901 51.3675 18.0939 51.7521 18.0119 52.1181C17.929 52.4903 17.8552 52.8689 17.7865 53.2492C17.5196 54.7732 17.3323 56.324 17.2605 57.861C17.2425 58.2455 17.2346 58.6283 17.2369 59.009C17.2412 59.3888 17.2828 59.767 17.331 60.1328C17.3787 60.4985 17.3984 60.8618 17.4231 61.2091C17.4419 61.5661 17.4194 61.8871 17.4003 62.3069L17.3979 62.3613C17.3912 62.5078 17.2677 62.621 17.1219 62.6144C17.0905 62.6131 17.06 62.6056 17.0327 62.5946C16.791 62.494 16.5965 62.3149 16.4463 62.129C16.2944 61.9396 16.1866 61.7337 16.1019 61.5252C15.9403 61.1049 15.8676 60.6819 15.8448 60.2614C15.8215 59.841 15.8434 59.429 15.8379 59.0194C15.8381 58.6106 15.8448 58.2038 15.8642 57.7993C15.9405 56.1813 16.1331 54.5897 16.4106 53.0033C16.4824 52.6064 16.5594 52.2099 16.648 51.8113C16.7408 51.4083 16.8289 51.023 16.9908 50.5732C17.0121 50.5154 17.0448 50.4436 17.0727 50.3805C17.1073 50.3107 17.1576 50.2267 17.2031 50.1577C17.2989 50.0252 17.4006 49.9153 17.5022 49.8225C17.7061 49.637 17.9101 49.5052 18.1127 49.3914C18.5184 49.1649 18.9221 49.0071 19.3295 48.8764C20.1449 48.6203 20.9674 48.4662 21.8329 48.4295C22.2676 48.4166 22.7098 48.4263 23.2028 48.5458C23.3277 48.5791 23.4559 48.6194 23.5895 48.6773C23.6561 48.706 23.7277 48.7456 23.7952 48.782L23.9192 48.8536L24.429 49.1443C25.1381 49.5416 25.9144 50.0982 26.4372 50.8732C26.9579 51.6438 27.2381 52.5325 27.3433 53.3863C27.3644 53.5984 27.3934 53.8182 27.4064 54.024C27.4203 54.2294 27.429 54.4344 27.4357 54.6392C27.4489 55.0485 27.4483 55.4562 27.4377 55.8637C27.4166 56.6783 27.3522 57.4916 27.2383 58.3038C27.1224 59.1159 26.9561 59.9273 26.6983 60.7316C26.4327 61.5324 26.0864 62.3347 25.4988 63.0766C25.2024 63.4422 24.8206 63.7872 24.3468 64.0127C24.1122 64.1261 23.856 64.2025 23.5988 64.2454C23.5292 64.2591 23.4803 64.2627 23.4279 64.2681L23.2714 64.2837C23.1671 64.2954 23.063 64.3051 22.9537 64.3059C22.5288 64.321 22.0718 64.3261 21.5732 64.1377C21.4521 64.0922 21.3281 64.0264 21.2425 63.969C21.1565 63.9126 21.1273 63.8737 21.1062 63.843C21.0528 63.7764 20.8549 63.7508 20.6524 63.7219L20.6279 63.7183C20.4901 63.6988 20.3943 63.5709 20.4138 63.4325C20.4223 63.3728 20.4509 63.3208 20.4917 63.283L20.4919 63.2806Z" fill="#371A45"/>
<path d="M26.3886 51.7499C26.3886 51.7499 22.0115 56.9877 26.103 58.2039C27.6659 58.6685 30.2572 54.6952 29.7728 53.2644C29.2879 51.8335 28.0014 51.2446 26.3886 51.7499Z" fill="white"/>
<path d="M26.2525 58.9396C26.1344 58.9312 26.0182 58.9099 25.9043 58.8764C24.4912 58.4565 23.9678 57.6102 23.7769 56.9743C23.0931 54.6916 25.5689 51.6395 25.8531 51.2989C25.9392 51.196 26.0528 51.1199 26.1806 51.0802C28.1523 50.4622 29.8216 51.2308 30.434 53.0379C30.9012 54.4167 29.5741 56.6723 28.5307 57.7626C27.7398 58.589 26.9597 58.9903 26.2525 58.9396ZM26.7924 52.3636C26.1231 53.2213 24.7454 55.3383 25.1154 56.5704C25.1646 56.7352 25.316 57.2381 26.3014 57.5312C26.495 57.5896 26.9586 57.3806 27.5233 56.7911C28.6636 55.5996 29.2724 53.9675 29.1111 53.4902C28.7682 52.4797 27.9295 52.0755 26.7924 52.3636Z" fill="#371A45"/>
<path d="M32.5108 87.0956C32.2959 87.0803 32.0976 86.9478 32.0069 86.736C31.8774 86.4333 32.017 86.082 32.3186 85.9518C37.7361 83.6143 38.3552 69.2783 38.3608 69.1341C38.3739 68.8048 38.6502 68.5479 38.9777 68.5609C39.3012 68.5711 39.5615 68.8506 39.5489 69.1799C39.5244 69.8009 38.8912 84.415 32.7873 87.0484C32.6968 87.0874 32.6023 87.1022 32.5108 87.0956Z" fill="#371A45"/>
<path d="M96.6213 92.6194C96.4178 92.6048 96.2275 92.4854 96.1305 92.289C94.3381 88.6509 85.4335 89.7724 82.1541 90.5112C81.8353 90.5827 81.516 90.3813 81.4441 90.0598C81.3723 89.7382 81.5739 89.4191 81.8937 89.3467C82.4127 89.2298 94.6242 86.5395 97.1963 91.7593C97.3415 92.0545 97.221 92.4125 96.9269 92.5589C96.8285 92.6079 96.7232 92.6267 96.6213 92.6194Z" fill="#371A45"/>
<path d="M80.6941 92.3532C80.752 92.4368 80.7759 92.4816 80.8103 92.5415C80.8443 92.599 80.87 92.6525 80.8994 92.7082C80.954 92.8184 81.0077 92.9275 81.0532 93.037C81.1496 93.2555 81.2292 93.4751 81.3031 93.6958C81.4479 94.1365 81.5533 94.582 81.6354 95.0272C81.715 95.4732 81.765 95.92 81.7946 96.3654C81.8121 96.5877 81.8123 96.8108 81.8213 97.0326L81.8157 97.697C81.8142 97.8907 81.6562 98.0464 81.4632 98.0451C81.286 98.0439 81.141 97.9105 81.1195 97.739L81.1174 97.7212L81.0377 97.0966C81.0005 96.8905 80.9724 96.6832 80.9283 96.48C80.845 96.072 80.7436 95.6708 80.6175 95.2808C80.4899 94.8921 80.3431 94.5126 80.1685 94.1545C80.0802 93.9763 79.9888 93.8013 79.8875 93.6376C79.8387 93.5541 79.7851 93.4761 79.7334 93.3997C79.7069 93.3638 79.6807 93.3231 79.6544 93.2916C79.6308 93.2607 79.5954 93.216 79.5894 93.2137C79.205 93.0498 79.0261 92.6043 79.1896 92.2183C79.3531 91.8327 79.7969 91.6529 80.1814 91.8168C80.3165 91.8744 80.4266 91.9674 80.5048 92.0798L80.694 92.3537L80.6941 92.3532Z" fill="#371A45"/>
</g>
<path d="M59.9219 6.30223C87.7724 6.30223 110.351 28.834 110.351 56.6261C110.351 84.4181 87.7724 106.95 59.9219 106.95C32.0715 106.95 9.4924 84.4181 9.4924 56.6261C9.4924 28.834 32.0715 6.30223 59.9219 6.30223ZM59.9219 3.13721C52.6874 3.13721 45.6685 4.55197 39.0555 7.34035C32.671 10.0338 26.9398 13.8919 22.0173 18.8009C17.0949 23.7098 13.2318 29.4322 10.5327 35.8034C7.7353 42.3993 6.31757 49.4066 6.31757 56.6261C6.31757 63.8455 7.7353 70.8497 10.5327 77.4487C13.2318 83.8199 17.0981 89.5391 22.0173 94.4512C26.9366 99.3633 32.671 103.218 39.0555 105.912C45.6653 108.703 52.6842 110.115 59.9219 110.115C67.1597 110.115 74.1754 108.7 80.7883 105.912C87.1729 103.218 92.9041 99.3602 97.8265 94.4512C102.749 89.5423 106.612 83.8199 109.311 77.4487C112.109 70.8528 113.526 63.8455 113.526 56.6261C113.526 49.4066 112.109 42.4025 109.311 35.8034C106.612 29.4322 102.746 23.713 97.8265 18.8009C92.9073 13.8888 87.1729 10.0338 80.7883 7.34035C74.1786 4.54881 67.1597 3.13721 59.9219 3.13721Z" fill="#7E3FE3"/>
<path d="M29.0618 22.059C29.3814 22.4398 29.667 22.8307 29.9181 23.2297C28.006 24.9206 24.0619 27.451 19.2483 29.9769C14.4351 32.5028 9.95388 34.3942 7.24004 35.1305C6.87252 34.7926 6.52735 34.4329 6.20772 34.0524C6.19282 34.0344 6.17792 34.017 6.16338 33.9988C6.02325 33.8306 5.89057 33.6604 5.76464 33.4882C5.46878 33.0855 5.20945 32.673 4.98561 32.2536C4.97638 32.2367 4.96752 32.2196 4.95865 32.2025C4.63086 31.5783 4.38182 30.9387 4.20977 30.2921C3.88234 29.0614 3.83267 27.8054 4.04623 26.5803C4.56487 23.606 6.63448 20.8151 10.0482 19.0236C13.434 17.2467 17.4533 16.8143 21.0987 17.5655C22.5954 17.8734 24.0289 18.3815 25.3298 19.0775C26.0258 19.4496 26.6835 19.8758 27.2926 20.3542C27.3419 20.3926 27.3905 20.4313 27.4391 20.4705C27.8414 20.7964 28.2214 21.1452 28.5761 21.5173C28.7077 21.655 28.8361 21.7963 28.9603 21.9404C28.9944 21.9797 29.0284 22.0192 29.0618 22.059Z" fill="#FFB200"/>
<path d="M31.3187 27.2915C31.3577 27.7343 31.3627 28.1776 31.3325 28.619C31.2917 29.2389 31.1828 29.8544 31.0093 30.4587C30.2566 33.0794 28.2771 35.4842 25.2212 37.0881C22.1583 38.6954 18.5771 39.2027 15.2233 38.7291C14.4869 38.6248 13.7611 38.4733 13.0548 38.2759C12.5006 38.1214 11.9589 37.9383 11.4321 37.728C14.6167 36.6406 18.2352 35.0824 21.9146 33.1515C25.5937 31.2209 28.8149 29.1899 31.3187 27.2921L31.3187 27.2915Z" fill="#FFB200"/>
<path d="M21.9143 33.1509C25.5934 31.2203 28.8145 29.1893 31.3184 27.2915C31.3574 27.7343 31.3624 28.1776 31.3322 28.619C29.4187 30.1444 26.2685 32.1288 22.528 34.0917C18.9454 35.9718 15.5494 37.4498 13.0541 38.2757C12.5 38.1211 11.9583 37.938 11.4315 37.7277C14.616 36.6403 18.2345 35.0821 21.914 33.1512L21.9143 33.1509Z" fill="#D66B09"/>
<g opacity="0.35">
<path d="M29.9182 21.7737C29.8348 21.8477 29.7483 21.9226 29.6571 21.9994C29.7344 21.908 29.8107 21.8149 29.8838 21.7207C29.8955 21.7381 29.9068 21.7555 29.9186 21.7737L29.9182 21.7737Z" fill="#371A45"/>
</g>
<path d="M28.9603 21.9404C28.9944 21.9797 29.0284 22.0192 29.0618 22.059C29.3814 22.4398 29.667 22.8307 29.9181 23.2297C28.006 24.9206 24.0619 27.451 19.2483 29.9769C14.4351 32.5028 9.95389 34.3942 7.24006 35.1305C6.87254 34.7927 6.52736 34.4329 6.20773 34.0524C6.19284 34.0344 6.17794 34.017 6.16339 33.9988C8.76264 33.4271 13.3378 31.5666 18.2447 28.9916C23.3453 26.3148 27.4072 23.5993 28.9603 21.9404Z" fill="#D66B09"/>
<path d="M4.26053 30.6553L4.15942 29.9287C6.01973 29.7669 10.5964 27.9342 15.2886 25.4719C20.8866 22.5344 24.3624 19.9608 24.9034 18.937L25.7566 19.2185C25.0411 20.5732 21.0398 23.331 15.8002 26.0807C10.9217 28.6408 6.28437 30.4795 4.26088 30.6553L4.26053 30.6553Z" fill="#D66B09"/>
<path d="M4.18678 26.9282L3.90582 26.232C5.93073 25.7213 9.32746 24.2817 12.771 22.4745C16.3792 20.5812 19.4325 18.6119 20.7394 17.3354L21.4581 17.7953C20.0962 19.1256 16.9634 21.1518 13.2826 23.0833C9.77267 24.9253 6.28761 26.3982 4.18678 26.9279L4.18678 26.9282Z" fill="#D66B09"/>
<path d="M5.03075 32.5634L4.88672 31.8414C7.00564 31.577 11.7313 29.6668 16.6456 27.0876C21.8005 24.3825 26.0092 21.5454 26.8801 20.1885L27.7049 20.5191C26.7542 22.0002 22.5153 24.8845 17.1575 27.6964C12.064 30.3693 7.30434 32.2797 5.0311 32.5632L5.03075 32.5634Z" fill="#D66B09"/>
<path d="M15.2766 38.907L15.2234 38.7297L15.084 38.5834L15.1227 38.5607L15.1698 38.5517C16.9794 38.2118 20.2864 36.8704 23.5951 35.1343C26.922 33.3885 29.6919 31.5555 30.8242 30.3506L31.1953 30.5685C30.0335 31.8051 27.2193 33.6712 23.8509 35.4389C20.4492 37.2242 17.1639 38.5531 15.2766 38.9075L15.2766 38.907Z" fill="#D66B09"/>
<path d="M17.6289 39.3059C15.4288 39.3059 13.2229 38.9055 11.1966 38.0951L10.2033 37.698L11.225 37.3492C14.4954 36.2326 18.0919 34.6621 21.6255 32.8077C25.1596 30.9531 28.3864 28.9429 30.9572 26.994L31.7604 26.3853L31.8381 27.2627C32.195 31.2988 29.7699 35.1951 25.509 37.4311C23.1382 38.6753 20.3882 39.3059 17.6286 39.3059L17.6289 39.3059ZM12.7036 37.7306C16.7101 39.0025 21.3013 38.65 24.9329 36.7444C28.5644 34.8384 30.7571 31.6311 30.8292 28.2186C28.369 30.0003 25.4089 31.8114 22.2031 33.4939C18.9968 35.1763 15.7363 36.6297 12.7039 37.7303L12.7036 37.7306Z" fill="#371A45"/>
<path d="M36.6198 19.9364C37.7312 21.2597 35.5474 24.0859 31.3184 27.2913C28.8146 29.1891 25.5931 31.2201 21.9144 33.1507C18.2349 35.0816 14.6165 36.6401 11.4319 37.7272C6.05315 39.5639 1.9111 40.0574 0.799665 38.7342C-0.209598 37.5326 1.49781 35.0922 4.98571 32.2534C5.2092 32.6729 5.46853 33.0851 5.76474 33.488C4.81401 34.3382 4.38973 34.97 4.6448 35.2739C4.90483 35.5832 5.83569 35.5114 7.2405 35.1306C9.95434 34.394 14.4355 32.5029 19.2488 29.977C24.0624 27.4508 28.0065 24.9207 29.9186 23.2298C30.9073 22.3547 31.3525 21.7041 31.0925 21.3948C30.8377 21.0914 29.936 21.1548 28.5762 21.5174C28.2215 21.1456 27.8415 20.7965 27.4392 20.4706C32.1028 19.0316 35.6109 18.7349 36.6202 19.9364L36.6198 19.9364Z" fill="#FFC536"/>
<path d="M5.18254 32.8501L5.32054 32.9499C4.45779 33.6762 3.80611 34.3107 3.33075 34.8567C3.65641 34.3057 4.27296 33.6392 5.18254 32.8501Z" fill="#FF9100"/>
<path d="M5.45892 33.0488L5.32092 32.9498C5.33511 32.9363 5.35214 32.9228 5.36917 32.9097L5.45892 33.0488Z" fill="#FF9100"/>
<path d="M32.731 20.7344C32.4522 20.4038 31.9218 20.2493 31.1254 20.2728C30.3552 20.2964 29.336 20.4871 28.0575 20.8454L28.12 20.9845L28.3076 21.4037C30.7472 20.7198 31.8693 20.7784 32.1077 21.0619C32.5054 21.5358 31.1786 23.2569 27.3225 25.9147C25.167 27.4 22.5188 28.9773 19.6663 30.4749C17.9876 31.3557 16.304 32.1748 14.6788 32.8999C13.5426 33.4097 12.4347 33.8732 11.3779 34.2823C6.78283 36.0604 4.26127 36.359 3.86218 35.884C3.62911 35.607 3.9796 34.7901 5.64621 33.3253C5.67495 33.2995 5.70475 33.2737 5.7349 33.2479L5.45855 33.0491L5.32055 32.9501L5.18256 32.8503C4.27298 33.6393 3.65642 34.3059 3.33076 34.8569C2.98807 35.4306 2.96076 35.8787 3.23959 36.2115C3.51204 36.5351 4.02678 36.6708 4.70187 36.6708C6.46249 36.6708 9.30617 35.7427 11.7068 34.8134C12.7937 34.3931 13.9325 33.9153 15.1017 33.3909C16.7254 32.6635 18.4055 31.8459 20.0799 30.9671C22.9601 29.4559 25.6342 27.8624 27.8156 26.3605C30.6004 24.4406 33.7151 21.9054 32.7313 20.7341L32.731 20.7344Z" fill="#FFEC90"/>
<g opacity="0.41">
<path d="M29.5936 23.3503C29.3712 23.5471 29.1214 23.7549 28.8454 23.9734C28.6613 23.7081 28.4612 23.4465 28.2463 23.1902C28.2122 23.1504 28.1785 23.1111 28.1448 23.0718C28.0206 22.9272 27.8926 22.7861 27.7606 22.6484C27.4062 22.2766 27.0252 21.9275 26.6236 21.6017C26.5754 21.5624 26.5264 21.524 26.4771 21.4856C25.868 21.0072 25.21 20.5804 24.5139 20.2086C23.2131 19.5129 21.7799 19.0045 20.2835 18.6969C16.6378 17.9457 12.6185 18.3778 9.23274 20.1548C6.97263 21.3409 5.3014 22.9656 4.27972 24.7916C5.20633 22.5579 7.05387 20.5454 9.72442 19.1439C13.1098 17.3675 17.1291 16.9348 20.7738 17.6861C22.2701 17.9942 23.7044 18.5018 25.0053 19.1983C25.7006 19.5701 26.3586 19.9961 26.9677 20.4744C27.0178 20.5128 27.066 20.5521 27.1143 20.5911C27.5169 20.9169 27.8965 21.2655 28.2512 21.6373C28.3832 21.7755 28.5112 21.9166 28.6354 22.0607C28.6702 22.1 28.7039 22.1392 28.7369 22.1796C29.0565 22.5601 29.3421 22.951 29.5932 23.3497L29.5936 23.3503Z" fill="white"/>
</g>
<path d="M7.07547 35.6111L6.84524 35.3994C6.46282 35.048 6.10239 34.6714 5.77389 34.2803C5.61248 34.0879 5.45746 33.8911 5.31378 33.6945C5.01154 33.2831 4.73944 32.8522 4.50566 32.4136C1.85746 27.4434 4.06755 21.6678 9.76022 18.6803C15.4529 15.6929 23.0449 16.3246 27.812 20.1828C28.2324 20.5232 28.6293 20.8885 28.9923 21.2693C29.165 21.4499 29.3346 21.6389 29.496 21.8313C29.8241 22.2222 30.1232 22.631 30.3847 23.0463L30.5422 23.2964L30.3066 23.5045C28.2799 25.2971 24.2535 27.8449 19.5368 30.3203C14.8197 32.7958 10.286 34.7399 7.40929 35.5205L7.07512 35.6111L7.07547 35.6111ZM17.6353 17.626C15.1081 17.626 12.5659 18.1969 10.337 19.3668C5.06085 22.1355 3.01252 27.4879 5.46633 32.0936C5.68308 32.5 5.93495 32.8995 6.21556 33.2812C6.3493 33.4637 6.49262 33.6463 6.64232 33.8246C6.88071 34.1084 7.13755 34.384 7.40752 34.6465C10.188 33.8372 14.5639 31.9411 18.9603 29.6339C23.3567 27.3267 27.266 24.8751 29.2888 23.1635C29.0877 22.8646 28.866 22.5707 28.6276 22.2872C28.4779 22.1089 28.3204 21.9336 28.1604 21.7659C27.8234 21.4126 27.4555 21.0739 27.066 20.7584C24.515 18.6938 21.0895 17.626 17.6353 17.626Z" fill="#371A45"/>
<g opacity="0.35">
<path d="M29.8888 22.8712C27.9628 24.1207 18.8369 29.6341 14.2936 30.5415C11.91 31.0176 9.24977 30.5611 8.19049 28.8078C8.17097 28.7755 8.15501 28.748 8.14295 28.7256C8.13408 28.7085 8.12486 28.6917 8.11563 28.674C7.78785 28.0501 7.53881 27.4108 7.36711 26.7641C7.03932 25.5331 6.98966 24.2775 7.20357 23.0518C7.27949 22.6163 7.39053 22.1854 7.53243 21.7603C6.23298 23.2004 5.41102 24.8588 5.11055 26.5805C4.89735 27.8059 4.94701 29.0621 5.27409 30.2925C5.4465 30.9391 5.69589 31.5785 6.02368 32.2032C6.03183 32.2203 6.04106 32.2371 6.04993 32.2542C6.27413 32.674 6.53345 33.0865 6.82931 33.4889C6.95489 33.6611 7.08792 33.8307 7.2277 33.9995C7.24259 34.0175 7.25714 34.0348 7.27204 34.0531C7.51824 34.3455 7.77933 34.6254 8.05355 34.8929C7.92549 34.933 7.80097 34.9706 7.67894 35.0067C10.4222 34.1958 14.686 32.372 19.2491 29.9776C24.0623 27.4517 28.0072 24.921 29.9186 23.2304C29.7465 22.9579 30.0927 23.1359 29.8891 22.8718L29.8888 22.8712Z" fill="#371A45"/>
</g>
<g opacity="0.35">
<path d="M12.6756 37.2869C12.6838 37.2891 12.6919 37.2916 12.7001 37.2939C13.4064 37.4916 14.1318 37.643 14.8687 37.747C18.2225 38.2206 21.804 37.7134 24.8666 36.1061C27.9227 34.5024 29.9022 32.0974 30.6547 29.4767C30.8285 28.8724 30.937 28.2569 30.9778 27.6369C30.98 27.6055 30.9807 27.5738 30.9825 27.5424C31.0516 27.4908 31.1197 27.4395 31.1886 27.3882C28.7035 29.2582 25.531 31.2528 21.9143 33.1506C18.7046 34.835 15.5413 36.2359 12.6717 37.288C12.6728 37.2874 12.6742 37.2872 12.6752 37.2866L12.6756 37.2869Z" fill="#371A45"/>
</g>
<g opacity="0.35">
<path d="M15.1904 31.9964C11.9912 33.4996 9.1692 34.6073 7.24043 35.1308C5.83598 35.5116 4.90476 35.5834 4.64473 35.2741C4.38966 34.9704 4.81394 34.3383 5.76467 33.4881C5.65789 33.3426 5.5575 33.1957 5.45994 33.0479C5.4603 33.0485 5.46065 33.0493 5.46101 33.0499C2.61733 35.5441 1.30476 37.6466 2.21824 38.7343C2.56128 39.1426 3.1938 39.3773 4.06116 39.4535C5.9644 39.3229 8.51575 38.7231 11.4318 37.7274C14.456 36.6946 17.8719 35.2365 21.3598 33.4385C14.6465 34.3874 15.0705 32.3486 15.1904 31.9961L15.1904 31.9964Z" fill="#371A45"/>
</g>
</svg>
