<?xml version="1.0" encoding="UTF-8"?><svg id="Layer_1" xmlns="http://www.w3.org/2000/svg" viewBox="0 0 1485.84 1595.09"><defs><style>.cls-1{opacity:.5;}.cls-2{fill:#ffcb4a;}.cls-2,.cls-3,.cls-4,.cls-5,.cls-6,.cls-7,.cls-8,.cls-9,.cls-10,.cls-11,.cls-12,.cls-13{stroke-width:0px;}.cls-14{opacity:.7;}.cls-3{fill:#371a45;}.cls-4{fill:#b65ce0;}.cls-15{opacity:.3;}.cls-5{fill:#d2d2d2;}.cls-16{opacity:.35;}.cls-6{fill:#fff;}.cls-7{fill:#0f2675;}.cls-8{fill:#009eff;}.cls-9{fill:#3a3a3a;}.cls-10{fill:#22a7f0;}.cls-11{fill:#197bdd;}.cls-12{fill:#111a28;}.cls-17{opacity:.25;}.cls-13{fill:#5b5b5b;}</style></defs><path class="cls-13" d="M1123.23,936.75c0,34.25-150.95,62.42-343.9,65.59-12,.2-24.14.3-36.44.3-158.35,0-294.13-16.76-351.33-40.62-4.38-1.81-8.32-3.68-11.74-5.62-11.21-6.2-17.24-12.8-17.24-19.66,0-1.49.28-2.92.83-4.38.6-1.24,1.26-2.44,1.97-3.65.03-.03.05-.08.05-.08,1.86-2.62,4.59-5.17,8.14-7.69,3.48-2.44,7.79-4.86,12.83-7.18,53.85-25.07,193.16-42.92,356.5-42.92h2.09c154.9.15,287.83,16.33,346.37,39.44,10.84,4.31,19.15,8.82,24.54,13.51,2.37,2.04,4.18,4.16,5.39,6.28.03.03.05.08.08.1,1.23,2.17,1.86,4.36,1.86,6.58Z"/><path class="cls-2" d="M1123.23,936.75c0,15.35-30.26,29.46-80.99,40.65-62.57,13.81-156.34,23.18-262.91,24.95-12,.2-24.14.3-36.44.3-121.49,0-229.7-9.85-299.32-25.25-21.12-4.66-38.71-9.83-52.01-15.37-4.38-1.81-8.32-3.68-11.74-5.62-11.21-6.2-17.24-12.8-17.24-19.66,0-1.49.28-2.92.83-4.38.6-1.24,1.26-2.44,1.97-3.65.03-.03.05-.08.05-.08,1.86-2.62,4.59-5.17,8.14-7.69,3.48-2.44,7.79-4.86,12.83-7.18,53.85-25.07,193.16-42.92,356.5-42.92h2.09c154.9.15,287.83,16.33,346.37,39.44,10.84,4.31,19.15,8.82,24.54,13.51,2.37,2.04,4.18,4.16,5.39,6.28.03.03.05.08.08.1,1.23,2.17,1.86,4.36,1.86,6.58Z"/><g class="cls-14"><path class="cls-6" d="M1118.38,926.19c-.41-.19-.82-.35-1.23-.52-58.54-23.1-191.46-39.28-346.38-39.42h-2.07c-163.34,0-302.65,17.84-356.5,42.91-5.05,2.32-9.36,4.75-12.85,7.17-3.55,2.54-6.27,5.07-8.13,7.69,0,0-.03.05-.05.08-.71,1.2-1.36,2.4-1.96,3.65-.55,1.45-.82,2.89-.82,4.36,0,3.6,1.66,7.15,4.86,10.58-.57-.22-1.15-.46-1.69-.68-4.39-1.83-8.32-3.68-11.73-5.62-11.21-6.22-17.24-12.82-17.24-19.67,0-1.47.27-2.92.82-4.39.6-1.23,1.28-2.43,1.96-3.66.03-.03.05-.05.05-.05,1.88-2.65,4.58-5.18,8.16-7.69,3.46-2.46,7.77-4.88,12.82-7.17,53.85-25.1,193.16-42.94,356.5-42.94h2.1c154.88.16,287.81,16.34,346.35,39.44,10.86,4.31,19.15,8.81,24.55,13.5.93.79,1.75,1.61,2.48,2.4Z"/></g><path class="cls-9" d="M1042.24,983.97c-62.57,13.81-156.34,23.18-262.91,24.95-12,.2-24.14.3-36.44.3-121.49,0-229.7-9.85-299.32-25.25,69.63-15.37,177.81-25.25,299.32-25.25h2.09c120.68.13,228.03,9.95,297.25,25.25Z"/><path class="cls-3" d="M742.89,1018.82c-118.33,0-228.18-9.29-301.39-25.48-4.4-.97-7.53-4.87-7.53-9.37s3.13-8.4,7.53-9.37c73.33-16.19,183.19-25.48,301.39-25.48h2.09c117.52.12,226.61,9.41,299.33,25.48,4.4.97,7.53,4.87,7.53,9.37,0,4.5-3.13,8.4-7.53,9.37-64.71,14.28-161.24,23.46-264.82,25.17-11.94.2-24.25.3-36.6.3ZM497.36,983.98c67.66,10.06,153.94,15.64,245.53,15.64,12.24,0,24.45-.1,36.28-.3,77.33-1.28,150.53-6.74,209.1-15.38-67.11-9.95-152.58-15.53-243.29-15.63h-2.08c-91.52,0-177.81,5.59-245.53,15.66Z"/><path class="cls-3" d="M742.9,1012.25c-155.4,0-294.76-16.23-355.04-41.36-4.88-2.03-9.05-4.03-12.75-6.11-14.66-8.11-22.13-17.55-22.13-28.03,0-2.67.5-5.31,1.48-7.85.1-.26.21-.52.34-.77.81-1.65,1.55-3.03,2.34-4.34.16-.28.34-.54.53-.8,2.46-3.45,5.95-6.77,10.36-9.88,3.92-2.76,8.75-5.47,14.35-8.06,57.13-26.6,198.66-43.8,360.52-43.8,152.12,0,290.28,15.75,351.98,40.12,12.16,4.81,21.09,9.77,27.31,15.16,3.13,2.72,5.58,5.59,7.31,8.55.06.1.12.2.18.3h0c2.09,3.62,3.15,7.45,3.15,11.37,0,59.72-255.05,75.5-389.92,75.5ZM372.27,936.11c-.06.22-.09.43-.09.64,0,1.66,2.59,5.9,12.28,11.27,3.05,1.72,6.66,3.44,10.78,5.16,58.13,24.23,194.59,39.88,347.66,39.88,101.06,0,195.98-6.8,267.29-19.16,84.85-14.7,103.44-31.8,103.44-37.14,0-.18,0-.71-.5-1.62-.06-.1-.13-.21-.19-.32-.45-.79-1.4-2.09-3.34-3.78-4.48-3.88-11.81-7.86-21.78-11.81-59.62-23.55-195.01-38.77-344.91-38.77s-298.47,16.88-352.45,42.01c-4.58,2.11-8.4,4.24-11.37,6.34-3.12,2.2-4.8,4-5.67,5.17-.41.7-.78,1.42-1.14,2.13Z"/><path class="cls-6" d="M992.57,714.09v333.55c0,40.38-32.71,73.09-73.07,73.09h-351.14c-40.36,0-73.07-32.71-73.07-73.09v-333.55c0-21.77,9.52-41.33,24.62-54.74,12.9-11.4,29.88-18.33,48.45-18.33h351.14c18.65,0,35.65,6.97,48.57,18.46,15.04,13.39,24.5,32.9,24.5,54.61Z"/><path class="cls-3" d="M909.54,1130.32h-331.22c-51.08,0-92.63-41.55-92.63-92.63v-313.65c0-51.08,41.55-92.63,92.63-92.63h331.22c51.08,0,92.63,41.55,92.63,92.63v313.65c0,51.08-41.55,92.63-92.63,92.63ZM578.32,650.61c-40.49,0-73.43,32.94-73.43,73.43v313.65c0,40.49,32.94,73.43,73.43,73.43h331.22c40.49,0,73.43-32.94,73.43-73.43v-313.65c0-40.49-32.94-73.43-73.43-73.43h-331.22Z"/><path class="cls-6" d="M655.69,637.4l-5.33,21.62-16.84,68.58-3.35,13.67-25.03,101.74s-3.38,1.5-9.56,3.73c-16.89,6.01-54.81,17.24-102.77,17.3-39.1.02-84.9-7.38-131.37-31.16-103.39-52.86-133.3-210.99-133.3-210.99l88-38.19,63.92-27.76c13.52,75.29,76.86,97.29,139.43,99.69,11.21.45,22.43.25,33.31-.38,55.59-3.23,102.89-17.85,102.89-17.85Z"/><path class="cls-5" d="M655.69,637.4l-5.33,21.62-16.84,68.58c-52.01-15.22-92.91-40.85-114.03-71.98,11.21.45,22.43.25,33.31-.38,55.59-3.23,102.89-17.85,102.89-17.85Z"/><path class="cls-5" d="M968.7,655.62c-21.15,31.14-62.05,56.77-114.03,71.98l-16.87-68.58-5.33-21.62s47.33,14.62,102.92,17.85c10.89.63,22.1.83,33.31.38Z"/><path class="cls-5" d="M913.61,703.33c-43.47,24.38-103.39,39.45-169.52,39.45s-122.31-14.14-165.41-37.19c8.33-30.03,50.23-149.02,192.64-155.28,131.63-5.76,142.84,108.65,142.29,153.02Z"/><path class="cls-5" d="M595.57,846.72c-30.66,10.93-130.65,39.04-234.14-13.85-103.4-52.85-133.31-210.99-133.31-210.99l88.02-38.2c33.23,16.53,59.18,29.56,59.18,29.56,0,0-33.28,81.93,7.17,144.44,59.42,91.8,179.49,11.07,179.49,11.07l33.6,77.97Z"/><path class="cls-3" d="M492.81,873.82c-40.29,0-87.51-7.75-135.76-32.41-106.36-54.36-137.11-211.11-138.36-217.75l-1.43-7.54,170.09-73.85,2.14,11.94c5.63,31.39,21.18,55.04,46.2,70.28,76.12,46.37,215.76,4.16,217.16,3.73l16.19-4.99-55.72,226.6-4.28,1.92c-3.13,1.4-50.45,22.06-116.24,22.06ZM239.19,627.53c7.42,31.38,41.16,153.12,126.59,196.78,105.83,54.1,209.28,19.98,231.19,11.62l45.48-184.96c-40.69,10.22-148.57,31.43-216.73-10.06-26.69-16.25-44.32-40.29-52.55-71.56l-133.99,58.18Z"/><path class="cls-3" d="M361.41,842.46c-4.63,0-8.71-3.36-9.46-8.08-.84-5.24,2.72-10.16,7.95-11,94.9-15.26,109.22-171.74,109.35-173.32.45-5.28,5.1-9.23,10.37-8.76,5.28.44,9.2,5.08,8.76,10.36-.59,7.06-15.71,173.03-125.44,190.67-.52.08-1.03.12-1.54.12Z"/><path class="cls-6" d="M410.85,552.06c-24.1,100.04-125.03,90.72-152.81,83.96-57.94-14.11-77.82-68.71-77.82-68.71l46.73-61.77,20.78-33.42,24.82-7.46c19.5-35.55,61.05-75.86,84.9-61.64,0,0,74.18,62.82,53.39,149.05Z"/><path class="cls-5" d="M171.61,535.01c0,31.17,40.83,59.45,128.72,49.2,30.96-3.61,56.44-25.27,56.44-56.44s-25.27-56.44-56.44-56.44-128.72,32.5-128.72,63.67Z"/><path class="cls-6" d="M326.46,433.89l-43.71,106.76-64.76-66.3s-19.78-16.7-42.54-39.49c-38.04-38.07-84.48-93.16-60.83-115.5,40.12-37.93,140.28,95.61,140.28,95.61,0,0-41.51-165.23,21.23-169.13,34.51-2.16,45.41,79.81,48.8,136.21,1.79,29.39,1.54,51.84,1.54,51.84Z"/><path class="cls-5" d="M326.46,433.89l-43.71,106.76-64.76-66.3s-19.78-16.7-42.54-39.49c29.42,6.09,68.09,11.04,90.43,1.51,20.54-8.76,33.46-45.75,59.04-54.32,1.79,29.39,1.54,51.84,1.54,51.84Z"/><path class="cls-3" d="M282.76,550.25c-2.56,0-5.04-1.03-6.86-2.89l-64.45-65.96c-12.99-11.01-111.47-96.07-112.83-145.13-.27-9.55,2.99-17.8,9.41-23.88,7.37-6.96,16.93-10.16,27.66-9.25,32.98,2.81,75.32,44.92,101.98,75.47-6.62-39.63-11.84-98.38,8.44-126.12,7.22-9.88,17.4-15.5,29.44-16.25,8.71-.52,16.99,2.67,23.94,9.28,37.23,35.39,36.76,172.91,36.59,188.47-.01,1.21-.26,2.41-.72,3.53l-43.7,106.76c-1.23,2.99-3.87,5.17-7.05,5.78-.61.12-1.23.18-1.84.18ZM132.04,322.18c-4.38,0-7.86,1.34-10.83,4.16-1.54,1.45-3.56,4-3.41,9.39.96,34.74,77.12,106.56,106.39,131.3.23.2.46.4.67.62l54.56,55.84,37.47-91.53c.29-41.37-4.6-147.78-30.63-172.52-4.1-3.89-7.4-4.18-9.53-4.04-6.41.4-11.22,3.07-15.13,8.41-21.21,29-5.3,117.26,2.62,148.82,1.11,4.43-1.05,9.03-5.18,11-4.12,1.97-9.07.75-11.81-2.9-19.81-26.4-78.77-95.54-113.18-98.47-.69-.06-1.35-.09-2-.09ZM326.46,433.9h.03-.03Z"/><path class="cls-6" d="M168.37,555.75c15.37,24.98,80.61,36.65,104.83,17.87,20.6-15.99.03-36.36-5.83-41.54-.91-.83-1.48-1.25-1.48-1.25,0,0,25.07-7.68,29.45-28.8.28-1.37.48-2.79.57-4.3,1.54-24.36-63.51-45.38-93.04-40.63-22.08,3.56-30.5,12.55-32.58,22.17-2.22,10.24,2.76,21.2,6.09,27.06,1.54,2.67,2.7,4.27,2.7,4.27,0,0-23.02,25.15-10.7,45.16Z"/><g class="cls-16"><path class="cls-3" d="M176.36,506.32c17.44,8.93,52.41,24.13,91,25.75-.91-.83-1.48-1.25-1.48-1.25,0,0,25.07-7.68,29.45-28.8-23.13,5.06-87.04,14.71-125.06-22.76-2.22,10.24,2.76,21.2,6.09,27.06Z"/></g><g class="cls-16"><path class="cls-3" d="M168.37,555.75c15.37,24.98,80.61,36.65,104.83,17.87,10.13-7.85,10.3-16.76,7.17-24.41-1.11,1.22-2.42,2.45-3.95,3.64-24.19,18.78-89.43,7.11-104.8-17.84-1.59-2.59-2.62-5.26-3.13-7.97-3.84,8.56-5.95,19.21-.11,28.71Z"/></g><path class="cls-3" d="M237.75,592.52c-7.28,0-15-.71-22.95-2.15-25.66-4.66-46.07-15.72-54.61-29.57-11.92-19.36-.05-40.76,7.18-50.85-4.62-8.41-10.74-23.65-4.83-38.04,5.26-12.82,18.31-20.99,38.78-24.29h0c24.25-3.89,71,7.24,92.67,26.92,10.16,9.23,11.85,18.05,11.48,23.82-1.16,18.11-13.29,29.21-23.32,35.34,4.89,6.17,9.63,14.58,9.61,23.94-.01,6.27-2.22,15.45-12.69,23.57-9.56,7.41-24.23,11.31-41.32,11.31ZM204.37,466.57c-9.21,1.48-20.86,4.87-24.06,12.59-3.6,8.69,3.69,21.87,6.53,25.8,2.67,3.69,2.39,8.77-.69,12.13-.16.18-17.83,20.3-9.62,33.64,5.55,9.01,21.92,17.16,41.69,20.75,20.7,3.76,39.96,1.62,49.07-5.44,4.7-3.65,5.25-6.56,5.26-8.44.01-7.07-8.48-16-12.59-19.22-2.82-2.2-4.18-5.79-3.52-9.31.65-3.52,3.21-6.38,6.63-7.43.18-.06,22.13-7.18,23.24-24.51.14-2.18-1.77-5.24-5.23-8.39-16.63-15.11-57.31-25.31-76.71-22.18h0Z"/><path class="cls-3" d="M257.69,540.66c-46.01,0-81.9-20.85-83.5-21.79-4.57-2.69-6.08-8.58-3.39-13.14,2.69-4.56,8.57-6.08,13.14-3.39.64.37,37.43,21.48,81.37,18.91,5.26-.36,9.83,3.73,10.14,9.02.31,5.29-3.73,9.84-9.02,10.14-2.95.17-5.87.25-8.75.25Z"/><path class="cls-6" d="M357.45,403.02c-31.67-18.88-94.43,58.25-95.59,92.86-.88,26.43,35.51,36.19,66.32,1.42,33.83-38.19,79-64.63,29.27-94.28Z"/><path class="cls-6" d="M180.22,567.31s19.89,54.59,77.81,68.7c27.79,6.77,128.72,16.09,152.83-83.96,20.78-86.22-53.4-149.03-53.4-149.03-31.67-18.88-94.43,58.25-95.59,92.86-.88,26.43,38.39,41.41,71.29-5.09,0,0-17.33,42.24,19.67,71.05l-87.18,50.22-65.93-12.87-19.49-31.88Z"/><path class="cls-6" d="M335.59,541.61l1.74-1c-1.31-1.02-2.5-2.02-3.64-3.07.57,1.34,1.19,2.7,1.91,4.07Z"/><g class="cls-16"><path class="cls-3" d="M331.78,482.96c4.64-17.07-44.4,26.39-69.91,15.22,1.22,21.45,29.48,33.92,57.68,8.22,1.68-13.74,12.24-23.45,12.24-23.45Z"/></g><path class="cls-5" d="M210.82,601.36l-11.13-2.16c12.29,14.63,31.13,30.19,58.33,36.82,27.8,6.77,128.73,16.08,152.83-83.97,14.14-58.67-15.71-106.53-36.22-131.09,16.7,26.63,31.53,65.1,20.74,109.86-24.1,100.04-125.03,90.74-152.83,83.97-12.21-2.99-22.73-7.74-31.73-13.43Z"/><path class="cls-6" d="M180.24,567.36c.2.54,1.79,4.72,5.12,10.84l1.71.34-6.83-11.18Z"/><path class="cls-6" d="M184.22,577.97c.91,1.08,1.85,2.19,2.85,3.27-.6-1.05-1.17-2.08-1.71-3.04l-1.14-.23Z"/><path class="cls-3" d="M365.62,614.7c6.88-7.23,12.93-14.61,18.02-22.59,5.1-7.96,9.19-16.48,12.57-25.38,6.68-17.99,9.43-37.26,7.6-56.12-.9-9.45-2.95-18.79-5.83-27.91-2.95-9.11-6.88-17.96-11.51-26.46-4.66-8.49-10.08-16.64-16.1-24.31-2.99-3.86-6.12-7.61-9.4-11.2-1.64-1.79-3.3-3.57-5.01-5.27-1.65-1.67-3.53-3.47-5-4.77l1.35.96c-2.21-1.29-4.83-1.79-8.26-1.38-3.4.41-7.27,1.78-11.09,3.7-3.84,1.9-7.65,4.43-11.31,7.21-3.69,2.76-7.23,5.87-10.65,9.17-13.59,13.18-25.51,29.13-33.6,45.96-1.96,4.2-3.62,8.47-4.71,12.59-.55,2.05-.96,4.08-1.1,5.89-.27,1.93-.09,3.31.15,4.86.52,3,2.11,5.55,4.31,7.58,2.28,1.94,5.26,3.34,8.67,3.76,6.83.99,14.86-1.65,21.85-6.51,7.1-4.8,13.31-11.67,18.72-19.21l.02-.02.81-1.03c3.24-4.12,9.21-4.83,13.33-1.59,3.63,2.86,4.61,7.84,2.57,11.8-.39.75-1,2.28-1.43,3.53-.48,1.33-.9,2.7-1.27,4.1-.78,2.78-1.3,5.64-1.72,8.52-.75,5.76-.61,11.61.47,17.28.39,2.89,1.42,5.6,2.28,8.39,1.19,2.64,2.22,5.42,3.89,7.88,1.37,2.64,3.33,4.92,5.17,7.32.85,1.26,2.05,2.23,3.1,3.34l3.25,3.27.43.43c1.86,1.87,1.86,4.9-.01,6.76-1.73,1.72-4.44,1.85-6.31.38l-4.17-3.25c-1.37-1.12-2.87-2.11-4.07-3.44-2.53-2.53-5.17-5-7.27-8-2.37-2.79-4.13-6.01-6-9.2-1.55-3.32-3.23-6.68-4.21-10.25-2.27-7.06-3.34-14.51-3.3-21.9.07-3.69.29-7.39.84-11.06.26-1.84.58-3.68.99-5.52.43-1.92.81-3.54,1.6-5.87l16.71,9.19-.02.03c-6.38,8.87-13.88,17.36-23.58,23.98-4.84,3.28-10.19,6.13-16.16,7.94-5.95,1.78-12.47,2.68-19.14,1.72-6.63-.85-13.33-3.68-18.71-8.37-5.33-4.72-9.22-11.33-10.47-18.33-.65-3.42-.82-7.16-.43-10.26.28-3.23.9-6.18,1.65-9.02,1.51-5.67,3.58-10.85,5.86-15.85,4.64-9.93,10.29-19.01,16.52-27.66,6.31-8.59,13.18-16.74,20.92-24.24,3.86-3.76,7.92-7.37,12.31-10.71,4.39-3.35,8.99-6.54,14.21-9.2,5.19-2.65,10.92-4.95,17.58-5.87,1.62-.29,3.38-.33,5.14-.34,1.72-.1,3.58.21,5.38.45,1.81.19,3.63.89,5.42,1.4,1.76.64,3.45,1.55,5.13,2.39.37.18.7.41,1,.66l.35.3c2.41,2.08,4.24,3.83,6.24,5.79,1.96,1.91,3.83,3.87,5.68,5.85,3.69,3.97,7.2,8.08,10.56,12.32,6.69,8.49,12.72,17.52,17.98,27.04,5.23,9.54,9.71,19.56,13.12,30.01,3.4,10.46,5.62,21.36,6.56,32.4,1.99,22.14-1.84,44.56-9.91,64.93-2.01,5.15-4.5,10.14-7.27,14.96-2.88,4.77-6.1,9.36-9.72,13.61-7.24,8.49-16.13,15.59-26.03,20.27-2.43,1.15-5.34.11-6.49-2.32-.88-1.87-.47-4.02.87-5.43l.09-.09Z"/><path class="cls-3" d="M189.23,564.03c.71,1.37,1.7,3.37,2.66,5.09.93,1.81,1.99,3.57,3.01,5.36,1,1.79,2.18,3.5,3.22,5.28l3.43,5.16c4.66,6.83,9.98,13.18,15.76,19.06,2.81,3.06,6.06,5.58,9.13,8.41l4.98,3.73c1.61,1.35,3.38,2.42,5.15,3.54,6.92,4.77,14.64,8.21,22.6,11.69l.38.16c2.43,1.06,3.54,3.9,2.48,6.33-.89,2.04-3.03,3.14-5.13,2.83-9.27-1.4-18.76-3.51-27.48-7.64-4.53-1.75-8.6-4.34-12.86-6.69-3.99-2.71-8.1-5.36-11.74-8.55-7.52-6.13-14.22-13.27-19.9-21.1l-4.05-6.02c-1.24-2.09-2.5-4.15-3.65-6.29-1.15-2.14-2.23-4.32-3.23-6.56-1.02-2.3-1.86-4.4-2.79-7.21-1.66-5.02,1.07-10.44,6.1-12.1,4.53-1.49,9.38.58,11.5,4.68l.44.85Z"/><path class="cls-6" d="M832.47,637.41l5.33,21.63,20.22,82.24,25.02,101.73s3.37,1.51,9.56,3.72c16.89,6.01,54.81,17.26,102.77,17.3,39.1.02,84.89-7.39,131.37-31.15,103.4-52.85,133.31-210.99,133.31-210.99l-88.02-38.2-63.92-27.76c-15.93,88.8-101.18,103.48-172.73,99.32-55.6-3.23-102.91-17.85-102.91-17.85Z"/><path class="cls-5" d="M968.7,655.62c-21.15,31.14-62.05,56.77-114.03,71.98l-16.87-68.58-5.33-21.62s47.33,14.62,102.92,17.85c10.89.63,22.1.83,33.31.38Z"/><path class="cls-5" d="M892.6,846.72c30.66,10.93,130.65,39.04,234.14-13.85,103.4-52.85,133.31-210.99,133.31-210.99l-88.02-38.2c-33.23,16.53-59.18,29.56-59.18,29.56,0,0,33.28,81.93-7.17,144.44-59.42,91.8-179.49,11.07-179.49,11.07l-33.6,77.97Z"/><path class="cls-3" d="M995.35,873.82c-65.8,0-113.11-20.66-116.24-22.06l-4.28-1.92-55.72-226.6,16.19,4.99c1.4.43,141.05,42.64,217.16-3.73,25.02-15.24,40.56-38.89,46.2-70.28l2.14-11.94,170.09,73.85-1.43,7.54c-1.26,6.64-32,163.39-138.36,217.75-48.24,24.66-95.47,32.41-135.76,32.41ZM891.19,835.94c21.89,8.35,125.35,42.48,231.19-11.62,85.55-43.73,119.21-165.41,126.6-196.78l-134-58.18c-8.23,31.27-25.86,55.31-52.55,71.56-68.15,41.49-176.04,20.29-216.73,10.06l45.48,184.96Z"/><path class="cls-3" d="M1126.76,842.46c-.51,0-1.02-.04-1.54-.12-109.72-17.64-124.85-183.61-125.44-190.67-.44-5.28,3.48-9.92,8.76-10.36,5.26-.47,9.92,3.48,10.37,8.76.13,1.58,14.45,158.07,109.35,173.32,5.23.84,8.79,5.76,7.95,11-.76,4.72-4.83,8.08-9.46,8.08Z"/><path class="cls-6" d="M1077.32,552.06c24.1,100.04,125.03,90.72,152.81,83.96,57.94-14.11,77.82-68.71,77.82-68.71l-46.73-61.77-20.78-33.42-24.82-7.46c-19.5-35.55-61.05-75.86-84.9-61.64,0,0-74.18,62.82-53.39,149.05Z"/><path class="cls-5" d="M1316.56,535.01c0,31.17-40.83,59.45-128.72,49.2-30.96-3.61-56.44-25.27-56.44-56.44s25.27-56.44,56.44-56.44,128.72,32.5,128.72,63.67Z"/><path class="cls-6" d="M1161.71,433.89l43.71,106.76,64.76-66.3s19.78-16.7,42.54-39.49c38.04-38.07,84.48-93.16,60.83-115.5-40.12-37.93-140.28,95.61-140.28,95.61,0,0,41.51-165.23-21.23-169.13-34.51-2.16-45.41,79.81-48.8,136.21-1.79,29.39-1.54,51.84-1.54,51.84Z"/><path class="cls-5" d="M1161.71,433.89l43.71,106.76,64.76-66.3s19.78-16.7,42.54-39.49c-29.42,6.09-68.09,11.04-90.43,1.51-20.54-8.76-33.46-45.75-59.04-54.32-1.79,29.39-1.54,51.84-1.54,51.84Z"/><path class="cls-3" d="M1205.41,550.25c-.61,0-1.23-.06-1.84-.18-3.17-.62-5.82-2.79-7.05-5.78l-43.7-106.76c-.46-1.12-.7-2.32-.72-3.53-.17-15.56-.64-153.09,36.59-188.47,6.96-6.61,15.25-9.79,23.94-9.28,12.03.75,22.21,6.37,29.44,16.24,20.28,27.74,15.06,86.49,8.44,126.12,26.65-30.55,69-72.66,101.98-75.47,10.73-.91,20.29,2.29,27.66,9.25,6.42,6.07,9.68,14.33,9.41,23.88-1.37,49.06-99.83,134.11-112.83,145.13l-64.45,65.97c-1.82,1.87-4.31,2.89-6.87,2.89ZM1171.29,431.97l37.47,91.53,54.56-55.84c.21-.22.44-.43.67-.62,29.27-24.74,105.43-96.56,106.39-131.3.15-5.39-1.87-7.94-3.41-9.39-3.42-3.23-7.49-4.53-12.84-4.07-34.42,2.92-93.37,72.07-113.18,98.47-2.74,3.65-7.68,4.87-11.81,2.9-4.12-1.97-6.29-6.57-5.18-11,7.92-31.56,23.83-119.81,2.62-148.82-3.91-5.34-8.71-8.01-15.13-8.41-2.14-.14-5.43.14-9.53,4.04-26.03,24.74-30.92,131.15-30.63,172.52Z"/><path class="cls-6" d="M1319.8,555.75c-15.37,24.98-80.61,36.65-104.83,17.87-20.6-15.99-.03-36.36,5.83-41.54.91-.83,1.48-1.25,1.48-1.25,0,0-25.07-7.68-29.45-28.8-.28-1.37-.48-2.79-.57-4.3-1.54-24.36,63.51-45.38,93.04-40.63,22.08,3.56,30.5,12.55,32.58,22.17,2.22,10.24-2.76,21.2-6.09,27.06-1.54,2.67-2.7,4.27-2.7,4.27,0,0,23.02,25.15,10.7,45.16Z"/><g class="cls-16"><path class="cls-3" d="M1311.8,506.32c-17.44,8.93-52.41,24.13-91,25.75.91-.83,1.48-1.25,1.48-1.25,0,0-25.07-7.68-29.45-28.8,23.13,5.06,87.04,14.71,125.06-22.76,2.22,10.24-2.76,21.2-6.09,27.06Z"/></g><g class="cls-16"><path class="cls-3" d="M1319.8,555.75c-15.37,24.98-80.61,36.65-104.83,17.87-10.13-7.85-10.3-16.76-7.17-24.41,1.11,1.22,2.42,2.45,3.95,3.64,24.19,18.78,89.43,7.11,104.8-17.84,1.59-2.59,2.62-5.26,3.13-7.97,3.84,8.56,5.95,19.21.11,28.71Z"/></g><path class="cls-3" d="M1250.42,592.52c-17.09,0-31.76-3.9-41.32-11.31-10.46-8.11-12.68-17.29-12.69-23.57-.02-9.37,4.72-17.77,9.61-23.94-10.03-6.14-22.17-17.24-23.32-35.34-.37-5.78,1.32-14.59,11.48-23.82,21.67-19.68,68.41-30.82,92.67-26.92,20.47,3.29,33.52,11.46,38.78,24.29,5.91,14.4-.21,29.63-4.83,38.04,7.23,10.09,19.1,31.49,7.18,50.85-8.53,13.86-28.95,24.92-54.61,29.57-7.95,1.44-15.67,2.15-22.95,2.15ZM1275.84,466c-21,0-54.15,9.48-68.75,22.74-3.46,3.15-5.37,6.2-5.23,8.39,1.11,17.33,23.05,24.45,23.28,24.52,3.4,1.07,5.94,3.95,6.58,7.45.63,3.51-.7,7.08-3.51,9.28-3.26,2.58-12.63,11.7-12.59,19.25,0,1.87.56,4.77,5.26,8.41,9.11,7.06,28.37,9.2,49.07,5.44,19.78-3.59,36.14-11.74,41.69-20.75,8.21-13.34-9.45-33.46-9.63-33.66-3.06-3.38-3.34-8.46-.65-12.14,2.82-3.9,10.11-17.08,6.51-25.77-3.2-7.72-14.85-11.11-24.06-12.59h0c-2.36-.38-5.05-.56-7.96-.56Z"/><path class="cls-3" d="M1230.47,540.66c-2.88,0-5.8-.08-8.75-.26-5.29-.31-9.33-4.85-9.02-10.14s4.88-9.39,10.14-9.02c44.34,2.57,81-18.7,81.36-18.91,4.57-2.7,10.45-1.18,13.14,3.39,2.69,4.57,1.18,10.45-3.39,13.14-1.6.94-37.49,21.79-83.5,21.79Z"/><path class="cls-6" d="M1130.72,403.02c31.67-18.88,94.43,58.25,95.59,92.86.88,26.43-35.51,36.19-66.32,1.42-33.83-38.19-79-64.63-29.27-94.28Z"/><path class="cls-6" d="M1307.95,567.31s-19.89,54.59-77.81,68.7c-27.79,6.77-128.72,16.09-152.83-83.96-20.78-86.22,53.4-149.03,53.4-149.03,31.67-18.88,94.43,58.25,95.59,92.86.88,26.43-38.39,41.41-71.29-5.09,0,0,17.33,42.24-19.67,71.05l87.18,50.22,65.93-12.87,19.49-31.88Z"/><path class="cls-6" d="M1152.58,541.61l-1.74-1c1.31-1.02,2.5-2.02,3.64-3.07-.57,1.34-1.2,2.7-1.91,4.07Z"/><g class="cls-16"><path class="cls-3" d="M1156.39,482.96c-4.64-17.07,44.4,26.39,69.91,15.22-1.22,21.45-29.48,33.92-57.68,8.22-1.68-13.74-12.24-23.45-12.24-23.45Z"/></g><path class="cls-5" d="M1277.35,601.36l11.13-2.16c-12.29,14.63-31.13,30.19-58.33,36.82-27.8,6.77-128.73,16.08-152.83-83.97-14.14-58.67,15.71-106.53,36.22-131.09-16.7,26.63-31.53,65.1-20.74,109.86,24.1,100.04,125.03,90.74,152.83,83.97,12.21-2.99,22.73-7.74,31.73-13.43Z"/><path class="cls-6" d="M1307.93,567.36c-.2.54-1.79,4.72-5.12,10.84l-1.71.34,6.83-11.18Z"/><path class="cls-6" d="M1303.95,577.97c-.91,1.08-1.85,2.19-2.85,3.27.6-1.05,1.17-2.08,1.71-3.04l1.14-.23Z"/><path class="cls-3" d="M1117.02,622.54c-9.9-4.68-18.8-11.77-26.03-20.27-3.62-4.25-6.84-8.83-9.72-13.61-2.77-4.82-5.26-9.81-7.27-14.96-8.07-20.37-11.9-42.78-9.91-64.93.94-11.04,3.16-21.94,6.56-32.4,3.4-10.46,7.89-20.48,13.12-30.01,5.26-9.52,11.29-18.55,17.98-27.04,3.36-4.24,6.87-8.35,10.56-12.32,1.85-1.98,3.73-3.94,5.68-5.85,2-1.96,3.83-3.72,6.24-5.79l.33-.28c.31-.27.67-.5,1.02-.68,1.68-.84,3.37-1.75,5.13-2.39,1.79-.51,3.61-1.21,5.42-1.4,1.8-.23,3.66-.55,5.38-.45,1.76,0,3.52.04,5.14.34,6.66.91,12.39,3.22,17.58,5.87,5.22,2.66,9.82,5.86,14.21,9.2,4.4,3.34,8.46,6.95,12.31,10.71,7.74,7.5,14.62,15.65,20.92,24.24,6.23,8.65,11.88,17.73,16.52,27.66,2.28,5,4.36,10.17,5.86,15.85.75,2.84,1.37,5.79,1.65,9.02.4,3.1.22,6.84-.43,10.26-1.25,7-5.14,13.61-10.47,18.33-5.38,4.69-12.08,7.52-18.71,8.37-6.67.97-13.19.07-19.14-1.72-5.97-1.81-11.32-4.66-16.16-7.94-9.71-6.62-17.2-15.11-23.58-23.98l-.02-.03,16.71-9.19c.79,2.33,1.17,3.95,1.6,5.87.41,1.84.74,3.68.99,5.52.55,3.67.77,7.37.84,11.06.04,7.39-1.03,14.83-3.3,21.89-.98,3.57-2.66,6.93-4.21,10.25-1.88,3.18-3.63,6.41-6,9.2-2.1,3-4.74,5.46-7.27,8-1.2,1.34-2.7,2.32-4.07,3.44l-4.17,3.25c-2.08,1.62-5.09,1.25-6.71-.83-1.5-1.92-1.3-4.63.38-6.31l.43-.43,3.25-3.27c1.05-1.11,2.25-2.08,3.1-3.34,1.84-2.4,3.8-4.67,5.17-7.32,1.66-2.46,2.69-5.23,3.89-7.88.86-2.79,1.89-5.5,2.28-8.39,1.08-5.67,1.21-11.52.47-17.28-.42-2.88-.94-5.74-1.72-8.52-.37-1.4-.79-2.77-1.27-4.1-.44-1.26-1.05-2.79-1.43-3.53-2.4-4.66-.56-10.39,4.1-12.79,4.11-2.12,9.05-.94,11.8,2.57l.81,1.03.02.02c5.41,7.54,11.62,14.41,18.72,19.21,7,4.86,15.02,7.5,21.85,6.51,3.41-.42,6.39-1.82,8.67-3.76,2.2-2.02,3.79-4.57,4.31-7.58.25-1.55.42-2.93.15-4.86-.14-1.81-.55-3.85-1.1-5.89-1.09-4.12-2.76-8.4-4.71-12.59-8.09-16.83-20.01-32.78-33.6-45.96-3.41-3.29-6.96-6.4-10.65-9.17-3.66-2.78-7.47-5.31-11.31-7.21-3.82-1.92-7.69-3.29-11.09-3.7-3.43-.41-6.06.09-8.26,1.38l1.35-.96c-1.47,1.3-3.35,3.1-5,4.77-1.7,1.7-3.36,3.48-5.01,5.27-3.28,3.6-6.41,7.35-9.4,11.2-6.02,7.68-11.43,15.82-16.1,24.31-4.64,8.51-8.57,17.35-11.51,26.46-2.88,9.13-4.92,18.47-5.83,27.91-1.83,18.86.92,38.13,7.6,56.12,3.38,8.89,7.47,17.41,12.57,25.38,5.09,7.98,11.14,15.36,18.02,22.59l.08.08c1.85,1.95,1.78,5.03-.17,6.89-1.5,1.43-3.67,1.71-5.44.88Z"/><path class="cls-3" d="M1316.97,570.6c-.93,2.81-1.76,4.91-2.79,7.21-1,2.24-2.08,4.42-3.23,6.56-1.15,2.14-2.41,4.21-3.65,6.29l-4.05,6.02c-5.68,7.83-12.37,14.97-19.9,21.1-3.64,3.2-7.75,5.85-11.74,8.55-4.25,2.36-8.33,4.94-12.86,6.69-8.72,4.13-18.21,6.23-27.48,7.64-2.63.4-5.08-1.41-5.47-4.04-.33-2.2.88-4.27,2.82-5.12l.38-.17c7.96-3.48,15.68-6.92,22.6-11.69,1.76-1.12,3.54-2.19,5.15-3.54l4.98-3.73c3.06-2.83,6.31-5.35,9.13-8.41,5.79-5.88,11.1-12.23,15.76-19.06l3.43-5.16c1.04-1.78,2.21-3.49,3.22-5.28,1.02-1.79,2.08-3.55,3.01-5.36.96-1.72,1.95-3.72,2.66-5.09l.44-.84c2.44-4.69,8.22-6.52,12.92-4.08,4.23,2.2,6.13,7.12,4.68,11.5Z"/><path class="cls-3" d="M671.93,1394.02c-1.74,0-3.51-.47-5.1-1.47-41-25.76-101.39-14.34-101.99-14.23-5.2,1.04-10.24-2.37-11.26-7.57-1.02-5.2,2.36-10.24,7.56-11.27,2.77-.54,68.38-13.04,115.91,16.81,4.49,2.82,5.84,8.75,3.02,13.23-1.82,2.9-4.95,4.5-8.14,4.5Z"/><path class="cls-6" d="M912.65,720.55c23.89,113.79,60.84,268.24,44.56,421.25-10.44,98.13-32.31,227.11-32.31,227.11,0,0,65.04,21.43,60.38,67.6-.12,1.25,2.75,49.51-126.04,44.68-54.6-2.05-91.73-12.5-105.01-41.22-11.91-25.74-10.2-140.21-10.2-140.21v-161.95h-.17v161.95s1.71,114.47-10.2,140.21c-13.29,28.72-44.35,39.18-98.95,41.22-128.79,4.83-131.99-43.43-132.11-44.68-4.66-46.17,60.38-67.6,60.38-67.6,0,0-21.87-128.98-32.31-227.11-16.67-156.69,21.86-315.4,46.28-429.36,0,0,31.27-154.96,194.36-162.12,163.09-7.16,141.33,170.23,141.33,170.23Z"/><path class="cls-5" d="M913.61,703.33c-43.47,24.38-103.39,39.45-169.52,39.45s-122.31-14.14-165.41-37.19c8.33-30.03,50.23-149.02,192.64-155.28,131.63-5.76,142.84,108.65,142.29,153.02Z"/><path class="cls-3" d="M917.34,719.56c17.87,51.92,27.32,105.91,37.04,159.94,9.21,54.11,15.81,108.91,17.34,164.15.35,13.81.24,27.63-.07,41.46-.43,13.83-1.14,27.65-2.28,41.46-1.2,13.86-2.74,27.48-4.36,41.08-1.62,13.61-3.34,27.19-5.16,40.76-3.58,27.14-7.76,54.17-11.97,81.18-4.23,27.02-8.68,53.96-13.52,80.92l-6.46-10.72h0c3.91,1.35,7.11,2.69,10.54,4.22,3.36,1.51,6.67,3.14,9.92,4.89,6.5,3.51,12.81,7.52,18.76,12.22,5.94,4.71,11.54,10.14,16.29,16.58,4.72,6.43,8.52,13.99,10.36,22.21.92,4.1,1.35,8.32,1.32,12.5-.04,1.04-.04,2.1-.13,3.11l-.12,1.53-.03.33.03-.34c0-.18,0-.16,0-.03l-.04.96c-.15,2.63-.6,4.99-1.27,7.26-2.68,9.1-8.43,16.15-14.69,21.45-6.34,5.29-13.29,9.08-20.32,11.98-7.03,2.91-14.18,5.05-21.32,6.65-14.3,3.26-28.6,4.67-42.8,5.38-14.22.67-28.31.41-42.4-.25-14.11-.77-28.31-2.07-42.58-4.96-14.18-2.95-28.76-7.25-41.98-16.15-6.57-4.41-12.61-10.19-17.24-17.03-1.17-1.7-2.2-3.49-3.2-5.29l-1.38-2.76c-.45-.97-.87-2.06-1.28-3.09-1.45-4.04-2.4-7.78-3.13-11.42-2.9-14.56-3.93-28.48-4.9-42.51-1.73-27.99-2.11-55.75-1.95-83.61l.04-165.83,9.6,9.6h-.17l9.6-9.6.04,165.58c.16,27.82-.21,55.54-1.93,83.48-.95,14.01-2,27.92-4.83,42.43-.74,3.65-1.65,7.37-3.01,11.34l-1.27,3.13-1.32,2.72c-.92,1.77-1.89,3.54-2.98,5.24-4.28,6.85-9.99,12.95-16.44,17.68-13.04,9.51-27.86,13.94-42.07,16.78-14.32,2.79-28.52,3.89-42.59,4.51-14.06.53-28.17.6-42.37-.23-14.18-.81-28.46-2.54-42.67-5.97-14.12-3.57-28.53-8.59-41.26-18.59-6.25-5.05-12.08-11.48-15.56-20.03-.86-2.16-1.56-4.38-1.99-7.09l-.14-1.08-.07-.78-.12-1.53c-.07-1.02-.09-2.08-.12-3.11-.02-4.17.41-8.39,1.35-12.48,1.85-8.21,5.67-15.74,10.39-22.15,4.75-6.42,10.35-11.84,16.28-16.54,5.95-4.69,12.25-8.69,18.74-12.2,3.25-1.75,6.55-3.37,9.91-4.88,3.43-1.53,6.62-2.86,10.53-4.21h0s-6.46,10.72-6.46,10.72c-4.9-27.31-9.41-54.59-13.68-81.95-4.25-27.36-8.47-54.74-12.1-82.22-1.83-13.74-3.56-27.5-5.19-41.28l-2.35-20.7c-.67-6.95-1.45-13.95-1.94-20.94-2.24-27.97-2.77-56-2.1-83.96,1.73-55.93,8.57-111.4,18.05-166.17,4.73-27.4,10.17-54.62,15.92-81.74,5.81-27.1,12.6-53.93,22.13-80.11.91-2.52,3.69-3.81,6.21-2.9,2.09.76,3.33,2.81,3.18,4.91-2.08,27.86-7.24,55-12.66,82.01-5.46,27.01-10.6,54.04-15.03,81.15-8.88,54.2-15.06,108.79-16.27,163.41-.69,27.29-.21,54.59,1.92,81.73.46,6.8,1.21,13.54,1.85,20.34l2.29,20.49c1.6,13.66,3.3,27.33,5.1,40.98,3.61,27.31,7.26,54.65,11.25,81.94l6.1,40.93,6.24,40.88,1.25,8.21-7.71,2.51h0c-2.61.9-5.81,2.21-8.68,3.5-2.94,1.32-5.83,2.75-8.66,4.27-5.65,3.05-11.05,6.49-15.94,10.36-9.78,7.68-17.51,17.31-19.86,27.9-.61,2.64-.88,5.33-.87,8.06.03.69.03,1.36.08,2.06l.08,1.05.04.5.03.2c.11.7.41,1.81.84,2.84,1.72,4.3,5.29,8.62,9.75,12.17,9.05,7.2,21.26,11.81,33.79,14.91,12.64,3.06,25.88,4.7,39.25,5.46,13.37.79,26.9.73,40.43.22,13.49-.58,26.91-1.67,39.7-4.17,12.74-2.49,24.99-6.49,34.35-13.38,4.67-3.44,8.55-7.61,11.6-12.46.78-1.2,1.47-2.47,2.14-3.76l.94-1.94.67-1.67c.87-2.56,1.64-5.55,2.27-8.67,2.48-12.6,3.58-26.3,4.48-39.82,1.67-27.18,2.05-54.71,1.89-82.1l-.04-165.75v-9.6s9.6,0,9.6,0h9.77v9.6s-.04,165.99-.04,165.99c-.15,27.44.23,55.01,1.91,82.22.91,13.53,2.01,27.27,4.54,39.84.61,3.13,1.43,6.1,2.3,8.57.25.56.42,1.09.69,1.7l.94,1.88c.68,1.22,1.38,2.43,2.17,3.58,3.13,4.6,7.22,8.6,12.12,11.9,9.79,6.66,22.24,10.61,35.02,13.22,12.85,2.62,26.26,3.88,39.75,4.6,27.01,1.25,54.43.97,79.91-4.67,6.35-1.41,12.49-3.28,18.23-5.66,5.75-2.35,11.03-5.35,15.32-8.93,4.25-3.57,7.4-7.86,8.63-12.12.32-1.04.49-2.1.54-2.93l.08-1.66.08-1.05c.07-.71.05-1.38.09-2.07.02-2.73-.26-5.43-.85-8.07-2.33-10.61-10.05-20.26-19.84-27.96-4.9-3.87-10.3-7.32-15.96-10.38-2.83-1.52-5.73-2.95-8.67-4.28-2.88-1.29-6.07-2.6-8.7-3.5h0l-6.46-10.72,6.16-40.37,6.02-40.41c3.95-26.95,7.54-53.94,11.14-80.91,1.79-13.49,3.48-26.98,5.06-40.47,1.59-13.5,3.09-27,4.22-40.33,1.09-13.39,1.76-26.83,2.16-40.28.29-13.46.34-26.92.03-40.4-.98-53.92-6.94-107.83-15.55-161.38-4.29-26.79-9.29-53.49-14.58-80.18-2.54-13.37-5.07-26.75-7.15-40.25-2.13-13.49-4-27.05-5.02-40.79v-.04c-.2-2.66,1.8-4.98,4.46-5.18,2.24-.16,4.23,1.22,4.93,3.25Z"/><path class="cls-3" d="M923.04,1378.32c-4-.38-8.64-.88-13.02-1.19-4.44-.35-8.89-.63-13.35-.79-8.91-.4-17.81-.34-26.69.12-8.87.53-17.62,1.8-26.28,3.63-8.65,1.91-16.96,4.83-25.21,8.39l-.29.12c-2.44,1.05-5.27-.07-6.33-2.51-.9-2.07-.21-4.43,1.51-5.74,7.86-5.96,16.59-11.01,25.86-14.59,2.3-.97,4.67-1.64,7.02-2.47,2.35-.83,4.73-1.53,7.13-2.09,2.4-.59,4.8-1.27,7.21-1.77l7.28-1.32c9.73-1.57,19.58-2.22,29.38-2.09,4.9.12,9.79.38,14.67.94,4.94.54,9.59,1.25,14.81,2.51,5.15,1.25,8.32,6.43,7.07,11.59-1.14,4.7-5.56,7.75-10.24,7.3l-.55-.05Z"/><path class="cls-3" d="M562.09,1359.48c5.21-1.27,9.87-1.97,14.8-2.55,4.88-.55,9.77-.88,14.67-.99,9.8-.24,19.65.42,29.41,1.89,9.76,1.51,19.42,4.1,28.7,7.66,9.28,3.62,18.04,8.7,25.78,14.86,2.08,1.66,2.43,4.69.77,6.78-1.36,1.71-3.65,2.25-5.57,1.47l-.3-.12c-8.37-3.37-16.65-6.26-25.3-8.12-8.66-1.75-17.36-3.11-26.22-3.62-8.85-.55-17.74-.61-26.65-.32-4.45.18-8.91.39-13.35.75-4.38.26-9.02.77-13.02,1.14l-.55.05c-5.28.49-9.96-3.39-10.45-8.67-.45-4.8,2.73-9.11,7.28-10.22Z"/><g class="cls-17"><path class="cls-3" d="M970.88,1023.96c-3.77,2.32-8.02,3.88-12.63,4.46-26.71,3.35-64.36,5.72-92.66-2v14.2c0,19.62-15.46,35.67-34.32,35.67h-187.5c-18.88,0-34.32-16.06-34.32-35.67v-11.32c-26,4.11-56.46,1.98-79.11-.87-4.89-.62-9.39-2.32-13.32-4.89.23-19.75.94-39.39,2.09-58.8,4.57-2.5,9.74-3.9,15.16-3.9.51,0,1.01.02,1.52.05,20.83,1.03,49.31,1.65,73.66-.53v-25.45c0-19.62,15.44-35.65,34.32-35.65h187.5c15.07,0,27.98,10.24,32.55,24.37,1.15,3.54,1.77,7.33,1.77,11.28v23.82c26.64,4.02,62.36,3.38,87.21,2.16.51-.02,1.01-.05,1.52-.05,5.17,0,10.06,1.26,14.45,3.51,1.15,19.68,1.91,39.6,2.11,59.63Z"/></g><path class="cls-6" d="M634.14,991.93c-28.8,12.11-73.38,9.58-103.78,5.76-18.23-2.29-31.02-19.76-28.34-38.62h0c2.45-17.21,17.04-29.73,33.78-28.92,28.43,1.38,71.07,2.03,98.07-4.19"/><path class="cls-5" d="M634.15,991.92c-28.8,12.11-73.4,9.59-103.79,5.76-18.22-2.28-31.02-19.75-28.34-38.63.57-4.01,1.79-7.77,3.58-11.17,4.85,9.33,13.83,16.14,24.76,17.52,30.34,3.81,74.86,6.35,103.66-5.72l.13,32.23Z"/><path class="cls-3" d="M576.83,1010.43c-16.76,0-33.41-1.43-47.66-3.22-11.15-1.4-21.11-7.18-28.05-16.27-7.14-9.35-10.27-21.46-8.6-33.23,3.17-22.23,21.99-38.23,43.74-37.15,41.67,2.03,75.57.63,95.45-3.96,4.45-1.03,15.5-1.26,21.94,18.69,7.01,21.72,5.42,56.56-15.79,65.48-17.2,7.23-39.21,9.66-61.03,9.66ZM534.25,939.7c-11.35,0-21.02,8.72-22.73,20.71-.97,6.81.75,13.51,4.85,18.88,3.79,4.96,9.18,8.12,15.18,8.87,43.08,5.41,78.19,3.61,98.86-5.08h0c3.25-1.37,5.81-6.21,7.02-13.28,2.3-13.47-1.15-28.81-4.23-33.87-27.62,5.72-68.21,5.26-97.88,3.81-.36-.02-.72-.02-1.08-.02Z"/><path class="cls-6" d="M854.46,991.93c28.8,12.11,73.38,9.58,103.78,5.76,18.23-2.29,31.02-19.76,28.34-38.62h0c-2.45-17.21-17.04-29.73-33.78-28.92-28.43,1.38-71.07,2.03-98.07-4.19"/><path class="cls-5" d="M958.25,997.68c-30.41,3.83-74.98,6.35-103.79-5.76l.13-32.17c28.8,12.07,73.3,9.53,103.66,5.72,10.92-1.38,19.93-8.23,24.78-17.56,1.75,3.37,2.99,7.14,3.56,11.15,2.68,18.88-10.12,36.35-28.34,38.63Z"/><path class="cls-3" d="M911.77,1010.43c-21.82,0-43.83-2.43-61.03-9.66h0c-21.22-8.92-22.8-43.76-15.79-65.48,6.44-19.95,17.49-19.72,21.93-18.69,19.88,4.58,53.78,5.98,95.45,3.96,21.77-1.1,40.58,14.91,43.75,37.15,1.67,11.77-1.46,23.89-8.6,33.23-6.94,9.09-16.9,14.87-28.05,16.27-14.25,1.79-30.9,3.22-47.66,3.22ZM855.39,935.92c-3.08,5.06-6.53,20.41-4.23,33.88,1.21,7.07,3.77,11.91,7.02,13.28h0c20.67,8.7,55.78,10.5,98.86,5.08,6-.75,11.39-3.9,15.18-8.87,4.1-5.36,5.82-12.07,4.85-18.88-1.76-12.36-11.98-21.24-23.81-20.68-29.66,1.44-70.25,1.91-97.88-3.81Z"/><path class="cls-6" d="M865.59,904.15v105.73c0,19.62-15.46,35.67-34.33,35.67h-187.48c-18.89,0-34.33-16.05-34.33-35.67v-105.73c0-19.6,15.44-35.65,34.33-35.65h187.48c15.08,0,27.98,10.25,32.56,24.37,1.14,3.55,1.77,7.34,1.77,11.28Z"/><path class="cls-5" d="M865.59,904.15v105.73c0,19.62-15.46,35.67-34.33,35.67h-187.48c-18.89,0-34.33-16.05-34.33-35.67v-35.59c32.35,18.59,96.43,46.51,160.74,23.48,31.42-11.26,67.44-49.86,67.44-49.86,0,0,1.39,40.5,7.17,39.86,16.09-1.78,15.97-83.72,19.01-94.9,1.14,3.55,1.77,7.34,1.77,11.28Z"/><path class="cls-3" d="M829.04,1055.14h-183.05c-25.45,0-46.15-20.7-46.15-46.15v-103.94c0-25.44,20.7-46.15,46.15-46.15h183.05c25.45,0,46.15,20.7,46.15,46.15v103.94c0,25.45-20.7,46.15-46.15,46.15ZM645.99,878.1c-14.86,0-26.95,12.09-26.95,26.95v103.94c0,14.86,12.09,26.95,26.95,26.95h183.05c14.86,0,26.95-12.09,26.95-26.95v-103.94c0-14.86-12.09-26.95-26.95-26.95h-183.05Z"/><ellipse class="cls-10" cx="803.94" cy="957.02" rx="29.61" ry="30.75"/><path class="cls-6" d="M833.55,957.03c0,2.1-.19,4.13-.58,6.1-2.73-14.08-14.7-24.68-29.04-24.68s-26.3,10.6-29.02,24.68c-.39-1.97-.58-4.01-.58-6.1,0-16.98,13.25-30.76,29.6-30.76,16.35,0,29.62,13.78,29.62,30.76Z"/><path class="cls-11" d="M833.54,957.01c0,16.99-13.26,30.75-29.61,30.75s-29.61-13.75-29.61-30.75c0-2.85.38-5.63,1.08-8.23,3.48,12.96,14.95,22.49,28.53,22.49s25.05-9.53,28.53-22.49c.7,2.61,1.08,5.39,1.08,8.23Z"/><path class="cls-3" d="M803.93,994.97c-20.29,0-36.8-17.02-36.8-37.95s16.51-37.95,36.8-37.95,36.81,17.02,36.81,37.95-16.51,37.95-36.81,37.95ZM803.93,933.47c-12.35,0-22.41,10.57-22.41,23.55s10.05,23.55,22.41,23.55,22.41-10.57,22.41-23.55-10.05-23.55-22.41-23.55Z"/><path class="cls-3" d="M720.04,1055.14c-5.3,0-9.6-4.3-9.6-9.6v-54.11c0-10.39-4.74-20.3-12.68-26.51l-4.76-3.72c-12.56-9.82-20.06-25.39-20.06-41.64v-51.06c0-5.3,4.3-9.6,9.6-9.6s9.6,4.3,9.6,9.6v51.06c0,10.39,4.74,20.3,12.68,26.51l4.76,3.72c12.56,9.82,20.06,25.39,20.06,41.64v54.11c0,5.3-4.3,9.6-9.6,9.6Z"/><path class="cls-3" d="M640.38,1233.14c-33.86,0-71.72-6.1-107.31-25.2-4.67-2.51-6.43-8.32-3.92-13,2.51-4.67,8.32-6.42,13-3.92,88.55,47.51,197.27,5.62,198.36,5.19,4.93-1.93,10.5.48,12.45,5.41,1.95,4.93-.47,10.5-5.39,12.45-3.01,1.19-49.23,19.07-107.18,19.07Z"/><path class="cls-3" d="M847.54,1233.14c-57.94,0-104.12-17.88-107.13-19.07-4.93-1.95-7.34-7.53-5.39-12.46,1.95-4.92,7.52-7.34,12.45-5.39h0c1.09.43,109.72,42.31,198.28-5.19,4.67-2.5,10.49-.75,12.99,3.92,2.51,4.67.75,10.49-3.92,13-35.59,19.09-73.45,25.2-107.29,25.2Z"/><path class="cls-6" d="M661.44,1133.7s33.46,14.95,82.51,14.95,82.68-14.95,82.68-14.95c0,0-22.22-17.55-82.68-17.55-60.45,0-82.51,17.55-82.51,17.55Z"/><path class="cls-3" d="M651.02,1128.02c7.47,2,15.45,3.87,23.27,5.34,7.85,1.55,15.74,2.8,23.64,3.85,7.93.88,15.82,1.91,23.77,2.28,3.96.27,7.93.44,11.9.62,3.97.16,7.94.11,11.9.17,7.93-.08,15.88-.21,23.8-.87,7.95-.34,15.83-1.42,23.76-2.29,3.96-.5,7.9-1.11,11.84-1.75,3.95-.61,7.89-1.29,11.81-2.09,7.83-1.44,15.8-3.3,23.3-5.26l.3-.08c2.58-.67,5.21.87,5.88,3.45.56,2.15-.43,4.35-2.27,5.4-7.67,4.38-15.41,7.45-23.42,10.35-8.01,2.74-16.16,5.11-24.45,6.87-8.27,1.84-16.67,3.13-25.1,4.07-8.44.89-16.93,1.24-25.42,1.37-16.99-.14-33.97-1.83-50.52-5.49-8.29-1.76-16.44-4.14-24.45-6.87-8.02-2.88-15.75-5.95-23.44-10.31-2.31-1.31-3.13-4.25-1.82-6.56,1.1-1.95,3.36-2.83,5.43-2.28l.3.08Z"/><g class="cls-15"><path class="cls-3" d="M985.26,1436.51c-.12,1.24-3.31,49.49-132.11,44.67-54.6-2.05-85.65-12.51-98.95-41.24-4.66-10.09-7.24-31.7-8.64-54.25l-1.2-86.5-2.05,86.5c-1.4,22.55-3.99,44.17-8.64,54.25-13.3,28.73-44.35,39.18-98.95,41.24-128.8,4.82-131.99-43.43-132.11-44.67-.67-6.69.12-12.87,1.95-18.52,4.66,7.67,18.56,18.71,59.4,24.32,66.27,9.09,137.44,1,149.52-43.07,9.09-33.17,24.06-211.39-26.31-232.9-77.88-33.29-106.47-60.05-84.81-64.36,11-2.2,40,6.93,141.59,6.93s130.59-9.13,141.59-6.93c21.66,4.31-6.93,31.07-84.81,64.36-50.37,21.51-35.4,199.74-26.31,232.9,12.08,44.06,83.25,52.16,149.52,43.07,40.83-5.61,54.74-16.65,59.4-24.32,1.83,5.65,2.62,11.83,1.95,18.52Z"/></g><path class="cls-6" d="M1085.56,490.23l-12.75-.8c-3.3-.21-5.81-3.05-5.6-6.35l12.98-206.26c.21-3.3,3.05-5.81,6.35-5.6l12.75.8c34.62,2.18,60.91,32.01,58.73,66.62l-5.84,92.86c-2.18,34.62-32.01,60.91-66.62,58.73Z"/><path class="cls-3" d="M1089.59,492.29c-1.38,0-2.77-.04-4.16-.13l-12.75-.8c-2.11-.13-4.04-1.08-5.44-2.67-1.4-1.59-2.09-3.62-1.96-5.73l12.98-206.26c.13-2.11,1.08-4.04,2.67-5.44,1.59-1.4,3.6-2.09,5.73-1.96l12.75.8c17.26,1.08,33.06,8.83,44.49,21.79,11.44,12.97,17.13,29.62,16.05,46.87l-5.84,92.86c-1.09,17.26-8.83,33.06-21.8,44.49-11.93,10.51-26.96,16.18-42.72,16.18ZM1085.68,488.31c16.23,1.04,31.88-4.34,44.08-15.09,12.2-10.75,19.47-25.61,20.5-41.84l5.84-92.86c1.02-16.23-4.34-31.88-15.09-44.08-10.75-12.2-25.61-19.48-41.84-20.5l-12.75-.8c-1.09-.07-2.12.29-2.94,1-.81.72-1.3,1.71-1.37,2.79l-12.98,206.26c-.07,1.08.29,2.12,1.01,2.94s1.71,1.3,2.79,1.37l12.75.8Z"/><path class="cls-5" d="M1154.96,387.23l-2.05,32.63c-2.59,41.03-37.95,72.22-79,69.65-3.91-.24-6.88-3.63-6.64-7.54l3.4-54.24c.94,2.54,3.31,4.41,6.18,4.61l4.84.29c32.43,2.05,61.34-17.01,73.27-45.39Z"/><path class="cls-3" d="M1089.6,501.11c-1.57,0-3.14-.05-4.72-.15l-12.75-.8c-4.46-.28-8.54-2.28-11.5-5.63-2.96-3.35-4.43-7.65-4.15-12.11l12.98-206.27c.28-4.46,2.28-8.55,5.63-11.5,3.35-2.95,7.66-4.43,12.12-4.15l12.74.8c19.61,1.23,37.56,10.03,50.55,24.76s19.47,33.65,18.23,53.26l-5.84,92.86c-1.23,19.61-10.03,37.56-24.77,50.55-13.55,11.94-30.63,18.38-48.54,18.38ZM1086.23,479.51c13.89.86,27.26-3.71,37.69-12.91,10.43-9.19,16.66-21.9,17.53-35.78l5.84-92.86c.87-13.88-3.71-27.27-12.9-37.7s-21.9-16.66-35.78-17.53l-8-.5-12.38,196.76,8,.5Z"/><path class="cls-6" d="M402.5,228.18l12.75.8c3.3.21,5.81,3.05,5.6,6.35l-12.98,206.26c-.21,3.3-3.05,5.81-6.35,5.6l-12.75-.8c-34.62-2.18-60.91-32.01-58.73-66.62l5.84-92.86c2.18-34.62,32.01-60.91,66.62-58.73Z"/><path class="cls-3" d="M401.9,449.14c-.17,0-.33,0-.5-.02l-12.75-.8c-35.62-2.24-62.78-33.05-60.54-68.67l5.84-92.86c2.24-35.62,33.06-62.79,68.67-60.54l12.75.8c4.36.28,7.68,4.04,7.4,8.4l-12.98,206.26c-.26,4.19-3.76,7.42-7.9,7.42ZM398.52,229.99c-31.84,0-58.69,24.85-60.71,57.05l-5.84,92.86c-2.11,33.5,23.43,62.46,56.93,64.57l12.75.8c2.26.16,4.16-1.56,4.3-3.79l12.98-206.26c.14-2.23-1.56-4.16-3.79-4.3l-12.75-.8c-1.29-.08-2.58-.12-3.86-.12Z"/><path class="cls-5" d="M411.52,383.89l-3.57,56.61c-.24,3.91-3.63,6.88-7.54,6.64-21.54-1.36-40.39-11.75-53.04-27.27-11.43-14.01-17.81-32.23-16.58-51.71l1.84-29.32c10.03,26.46,34.86,46.01,64.96,47.91l7.45.47c2.72.17,5.12-1.19,6.5-3.32Z"/><path class="cls-3" d="M401.91,457.96c-.35,0-.7-.01-1.06-.03l-12.75-.8c-40.47-2.55-71.33-37.55-68.78-78.02l5.84-92.86c2.55-40.48,37.5-71.35,78.02-68.79l12.75.8c9.21.59,16.23,8.55,15.65,17.75l-12.97,206.26c-.56,8.85-7.94,15.69-16.69,15.69ZM398.53,238.8c-27.23,0-50.19,21.25-51.92,48.79l-5.84,92.86c-1.8,28.65,20.04,53.42,48.69,55.22l8,.5,12.38-196.76-8-.5c-1.1-.07-2.21-.1-3.3-.1Z"/><circle class="cls-6" cx="744.07" cy="359.21" r="348.4"/><path class="cls-3" d="M744.31,709.57c-15.51,0-31.19-1.03-46.98-3.16-92.74-12.48-175.07-60.34-231.81-134.74-56.75-74.41-81.13-166.46-68.64-259.19,12.48-92.74,60.34-175.07,134.74-231.82C606.02,23.91,698.07-.47,790.81,12.02c191.44,25.77,326.23,202.49,300.45,393.94h0c-23.65,175.66-174.38,303.61-346.96,303.61ZM743.35,12.68c-75.43,0-148.4,24.52-209.39,71.04-73.58,56.12-120.91,137.54-133.26,229.26s11.76,182.75,67.88,256.34c56.12,73.59,137.54,120.91,229.26,133.26,189.34,25.5,364.11-107.81,389.59-297.14l1.91.26-1.91-.26c25.49-189.33-107.81-364.1-297.14-389.59-15.69-2.11-31.38-3.16-46.94-3.16Z"/><path class="cls-5" d="M1092.48,357.45c.1,15.91-.94,32.01-3.12,48.25-25.7,190.69-201.09,324.46-391.78,298.81-190.69-25.7-324.46-201.09-298.81-391.78.73-5.48,1.6-10.96,2.59-16.32.65,171.21,127.45,320.04,301.93,343.53,185.21,24.92,355.95-100.54,389.19-282.48Z"/><path class="cls-3" d="M744.32,718.38c-15.9,0-31.98-1.06-48.16-3.24-95.07-12.8-179.47-61.85-237.65-138.13-58.18-76.28-83.17-170.65-70.37-265.72,12.8-95.07,61.86-179.47,138.13-237.65C602.55,15.47,696.91-9.54,791.99,3.28c196.26,26.42,334.43,207.59,308.01,403.85h0c-24.24,180.08-178.77,311.25-355.69,311.25ZM743.37,21.5c-73.51,0-144.62,23.9-204.07,69.24-71.71,54.69-117.83,134.04-129.87,223.43-12.03,89.38,11.46,178.1,66.16,249.82,54.7,71.71,134.04,117.83,223.43,129.87,184.51,24.82,354.84-105.07,379.68-289.58,24.84-184.52-105.07-354.84-289.58-379.68-15.29-2.06-30.58-3.08-45.75-3.08ZM1089.35,405.7h.03-.03Z"/><path class="cls-3" d="M1087.06,414.41c-8.07,67.7-37.55,127.92-81.33,175.44-32.83,35.62-156.79,90.04-299.97,74.26-132.76-14.63-244.98-99.72-268.51-142.07-31.38-56.48-45.86-121.95-37.78-189.65,21.37-179.14,184.14-235.05,374.02-212.4,189.88,22.65,334.94,115.27,313.57,294.41Z"/><path class="cls-3" d="M758.14,677.74c-17.38,0-35.25-.92-53.56-2.94-138.13-15.22-251.87-102.78-276.73-147.53-33.64-60.54-47.14-128.37-39.06-196.14,10.55-88.48,54.18-152.48,129.68-190.21,65.68-32.83,154.3-43.75,256.28-31.59,101.98,12.16,185.55,43.62,241.66,90.98,64.5,54.43,91.86,126.9,81.31,215.38l-10.67-1.27,10.67,1.27c-8.08,67.77-37.16,130.52-84.1,181.45-28.67,31.12-128.21,80.6-255.49,80.6ZM696.46,125.98c-65.78,0-123.1,11.53-168.37,34.16-68.62,34.3-108.31,92.69-117.95,173.53-7.55,63.26,5.08,126.59,36.51,183.16,22.29,40.12,131.33,122.4,260.29,136.61,17.28,1.91,34.24,2.77,50.7,2.78,119.7,0,214.62-45.89,240.18-73.64,43.85-47.59,71.02-106.18,78.56-169.43h0c9.64-80.85-15.2-146.93-73.83-196.41-52.89-44.64-132.55-74.4-230.34-86.06-26.28-3.13-51.59-4.69-75.75-4.69Z"/><g class="cls-14"><ellipse class="cls-6" cx="978.23" cy="376.81" rx="61.65" ry="44.68" transform="translate(330.81 1201.29) rotate(-72.93)"/></g><g class="cls-14"><ellipse class="cls-6" cx="909.48" cy="491.58" rx="28.3" ry="24.29" transform="translate(79.41 1107.85) rotate(-64.98)"/></g><g class="cls-16"><path class="cls-12" d="M1040.12,239.31c37.24,45.12,55.5,103.14,46.93,175.09-8.08,67.71-37.56,127.93-81.32,175.46-32.83,35.62-156.81,90.03-299.98,74.27-50.56-5.56-98.12-21.35-138.96-41.12,176.41,15.62,327.49-51.29,368.2-95.48,55.58-60.31,92.98-136.76,103.21-222.66,2.75-22.96,3.3-44.8,1.92-65.56Z"/></g><path class="cls-3" d="M1076.22,264.54c-2.75,0-5.5-1.05-7.6-3.15-.15-.15-.34-.35-.47-.5l-.81-.91-.58-1.07c-48.24-88.13-154.73-148.07-292.18-164.47-138.19-16.48-255.87,18.25-322.83,95.3l-.74.78c-4.33,4.06-11.15,3.88-15.21-.44-3.91-4.15-3.89-10.57-.05-14.67,71.74-82.34,196.15-119.63,341.39-102.3,144.19,17.2,256.49,80.97,308.22,175,2.59,4.15,2.09,9.69-1.52,13.29-2.1,2.1-4.85,3.15-7.6,3.15Z"/><g class="cls-14"><path class="cls-6" d="M463.97,448.18s-34.41-183.34,69.24-242.41c103.64-59.07,240.64-42.44,236.39-34.03,0,0-156.08,18.63-229.74,131.48-56.8,87.02-75.88,144.96-75.88,144.96Z"/></g><g class="cls-16"><path class="cls-3" d="M337.83,1339.26l-11.01,24.54c-5.7-.83-11.31-1.66-16.88-2.55l9.88-22-30.29-10.94,2.07-5.75,46.24,16.68Z"/></g><path class="cls-2" d="M1044.34,1421.83l-63.41,91.76-13.61,19.69c-8.57,12.41-21.17,21.45-35.66,25.61-123.36,35.42-254.19,35.42-377.55,0-7.24-2.08-14.02-5.38-20.06-9.71-6.02-4.33-11.33-9.69-15.6-15.9l-13.61-19.69-63.41-91.76h602.92Z"/><g class="cls-16"><path class="cls-3" d="M1044.34,1421.83l-63.41,91.76c-156.58,36.53-319.52,36.53-476.1,0l-63.41-91.76h602.92Z"/></g><g class="cls-16"><path class="cls-6" d="M1044.34,1421.83l-63.41,91.76-13.61,19.69c-8.57,12.41-21.17,21.45-35.66,25.61-123.36,35.42-254.19,35.42-377.55,0-7.24-2.08-14.02-5.38-20.06-9.71-6.02-4.33-11.33-9.69-15.6-15.9l-13.61-19.69-63.41-91.76h11.06l52.35,75.75,13.61,19.69c4.27,6.21,9.58,11.57,15.6,15.9,6.04,4.33,12.83,7.63,20.06,9.71,123.36,35.42,254.19,35.42,377.55,0,14.49-4.16,27.09-13.2,35.66-25.61l13.61-19.69,52.35-75.75h11.06Z"/></g><path class="cls-3" d="M742.87,1595.09c-64.4,0-128.8-8.99-191.42-26.97-16.58-4.76-31.11-15.2-40.91-29.38l-77.03-111.46c-2.03-2.94-2.26-6.75-.61-9.91,1.66-3.16,4.93-5.14,8.5-5.14h602.92c3.57,0,6.84,1.98,8.5,5.14,1.66,3.16,1.43,6.98-.61,9.91l-77.03,111.46c-9.8,14.19-24.33,24.62-40.91,29.38-62.61,17.98-127.02,26.97-191.42,26.97ZM459.72,1431.43l66.62,96.4c7.29,10.55,18.09,18.3,30.42,21.84,121.76,34.97,250.48,34.97,372.24,0h0c12.32-3.54,23.13-11.3,30.41-21.84l66.62-96.4H459.72Z"/><path class="cls-4" d="M1032.16,1474.02h0c-189.04,54.28-389.53,54.28-578.57,0h0c-22.2-6.38-41.52-20.25-54.65-39.25l-118.04-170.8h923.96l-118.04,170.8c-13.13,19.01-32.45,32.87-54.65,39.25Z"/><path class="cls-2" d="M1204.85,1263.97l-86.01,124.44-32.04,46.35c-13.13,19.01-32.44,32.89-54.64,39.26-189.04,54.28-389.55,54.28-578.58,0-11.1-3.19-21.47-8.25-30.73-14.89-9.22-6.66-17.34-14.87-23.91-24.37l-32.04-46.35-86.01-124.44h923.96Z"/><g class="cls-16"><path class="cls-6" d="M1204.85,1263.97l-86.01,124.44-32.04,46.35c-13.13,19.01-32.44,32.89-54.64,39.26-189.04,54.28-389.55,54.28-578.58,0-11.1-3.19-21.47-8.25-30.73-14.89-9.22-6.66-17.34-14.87-23.91-24.37l-32.04-46.35-86.01-124.44h12.36l73.65,106.56,32.04,46.35c6.56,9.51,14.68,17.72,23.91,24.37,9.26,6.64,19.63,11.7,30.73,14.89,189.04,54.28,389.55,54.28,578.58,0,22.2-6.37,41.51-20.25,54.64-39.26l32.04-46.35,73.65-106.56h12.36Z"/></g><g class="cls-16"><path class="cls-3" d="M1204.85,1263.97l-86.01,124.44c-11.87,8.51-25.59,14.91-40.44,18.71-219.26,56.31-451.8,56.31-671.06,0-12.88-3.32-24.92-8.57-35.64-15.45-1.63-1.05-3.24-2.14-4.8-3.26l-86.01-124.44h923.96Z"/></g><path class="cls-3" d="M742.87,1524.38c-98.22,0-196.44-13.71-291.93-41.13-24.27-6.97-45.54-22.25-59.9-43.02l-118.04-170.8c-2.03-2.94-2.26-6.75-.6-9.91,1.66-3.16,4.93-5.14,8.5-5.14h923.96c3.57,0,6.84,1.98,8.5,5.14,1.66,3.16,1.42,6.98-.61,9.91l-118.04,170.8c-14.36,20.77-35.63,36.05-59.9,43.02-95.49,27.42-193.71,41.13-291.94,41.13ZM299.2,1273.57l107.64,155.75c11.84,17.13,29.39,29.73,49.4,35.48,187.52,53.85,385.75,53.85,573.27,0h0c20.02-5.75,37.56-18.35,49.4-35.48l107.64-155.75H299.2Z"/><g class="cls-16"><path class="cls-3" d="M768.82,1376.48l-.55,14.41c-5.12.05-10.28.08-15.42.08l.58-14.49h15.4Z"/></g><g class="cls-1"><path class="cls-6" d="M515.95,848.58c.09.1.18.22.27.32l-.33-.37s.04.03.05.04h.01Z"/><path class="cls-6" d="M516.22,848.9l6.4,7.17c-2.21-2.32-4.35-4.7-6.4-7.17Z"/><path class="cls-6" d="M968.93,848.58h0s.03-.03.04-.03"/></g><g class="cls-15"><path class="cls-7" d="M516.02,828.96l6.71,7.52c-2.33-2.43-4.57-4.93-6.71-7.52Z"/><path class="cls-7" d="M962.15,836.48l6.51-7.3c-2.07,2.51-4.26,4.93-6.51,7.3Z"/><path class="cls-7" d="M968.93,828.86s.04-.04.06-.05l-.33.37c.09-.1.18-.22.27-.32Z"/></g><path class="cls-8" d="M1458.18,1279.31s-.04.06-.06.06c-60.92,71.23-358.45,125.3-716.27,125.3-378.55,0-689.6-60.49-724.44-137.84-10.53-17.34-10.53-75.71,0-93.08-2.17,4.78-3.26,9.6-3.26,14.49,0,20.45,19.25,39.96,54.17,57.77,8.55,4.37,18.05,8.64,28.43,12.8,121.57,48.6,364.83,81.78,645.1,81.78s525.65-33.46,646.69-82.45c9.78-3.92,18.74-7.97,26.84-12.13,34.92-17.81,54.17-37.32,54.17-57.77,0-9.2-3.9-18.22-11.36-26.97,31.05,28.44,15.97,102.58,0,118.03Z"/><g class="cls-16"><path class="cls-6" d="M1468.65,1195.87c.6,2.53.9,5.06.9,7.61,0,20.46-19.26,39.96-54.19,57.77-8.1,4.16-17.06,8.21-26.83,12.13-121.03,48.99-365.19,82.46-646.68,82.46s-523.53-33.19-645.11-81.79c-10.37-4.16-19.86-8.42-28.43-12.81-34.91-17.81-54.17-37.31-54.17-57.77,0-2.55.3-5.08.9-7.61,4.16,17.68,22.72,34.56,53.27,50.14,8.57,4.39,18.06,8.64,28.43,12.81,121.57,48.6,364.84,81.79,645.11,81.79s525.65-33.47,646.68-82.44c9.77-3.94,18.73-7.99,26.83-12.15,30.56-15.58,49.13-32.46,53.29-50.14Z"/></g><path class="cls-11" d="M1458.18,1279.31s-.06.06-.07.06c-60.92,71.25-358.44,125.31-716.26,125.31-378.56,0-689.6-60.49-724.44-137.83-6.56-10.82-9.04-37.61-7.41-60.45.99,13.71,3.47,25.99,7.41,32.49,34.84,77.34,345.88,137.85,724.44,137.85,357.82,0,655.35-54.08,716.26-125.31.02,0,.04-.02.07-.06,7.59-7.35,14.98-27.97,17.31-50.64,3.66,31.61-6.62,68.25-17.31,78.58Z"/><path class="cls-8" d="M1470.57,1188.24c0,20.47-19.24,39.95-54.16,57.76-8.14,4.18-17.09,8.23-26.85,12.17-117.39,47.51-350.66,80.41-621.43,82.35-8.37.05-16.8.07-25.27.07s-17.47-.02-26.16-.07c-269.21-1.99-501.18-34.63-618.93-81.71-10.39-4.15-19.87-8.42-28.44-12.81-34.91-17.81-54.18-37.29-54.18-57.76,0-4.87,3.26-14.49,3.26-14.49l308.52-173.25,3.55-1.99,29.73-16.73,9-5.06,17.9-10.03c1.42.65,2.9,1.27,4.44,1.92,57.21,23.85,192.98,40.6,351.33,40.6,166.56,0,308.11-18.52,359.58-44.37l4.54,2.5,14.16,7.78,3.89,2.16,32.63,17.97,8.64,4.75,292.82,161.23s.05.02.07.05c2.16,2.52,4.01,5.06,5.52,7.63.07.1.14.17.19.26,3.74,6.26,5.64,12.62,5.64,19.08Z"/><g class="cls-16"><path class="cls-6" d="M1166.33,999.99c-35.01,45.9-209.7,80.79-419.88,80.79s-383.6-34.63-419.5-80.29l3.55-1.99,29.73-16.73,9-5.06,17.9-10.03c1.42.65,2.9,1.27,4.44,1.92,57.21,23.85,192.98,40.6,351.33,40.6,166.56,0,308.11-18.52,359.58-44.37l4.54,2.5,14.16,7.78,3.89,2.16,32.63,17.97,8.64,4.75Z"/></g><g class="cls-16"><path class="cls-6" d="M1464.93,1169.17c-.06-.09-.11-.19-.19-.28-.17-.26-.32-.52-.51-.79v-.02c-1.41-2.29-3.09-4.56-5.03-6.81-.02-.04-.07-.06-.07-.06l-334.09-183.96-18.04-9.94-4.54-2.49c-51.47,25.84-193.03,44.38-359.59,44.38s-294.13-16.76-351.34-40.61c-1.54-.64-3.02-1.28-4.44-1.93l-26.89,15.11L23.44,1170.94l-5.01,2.81s-3.26,9.62-3.26,14.49c0,.71.02,1.44.07,2.16.04.56.09,1.13.15,1.67.07.64.17,1.28.28,1.91.13.69.26,1.39.45,2.1.24,1.07.56,2.16.94,3.23,5.62,16.43,23.72,32.14,52.27,46.71,8.57,4.39,18.06,8.64,28.44,12.81,117.75,47.08,349.72,79.71,618.93,81.69,8.68.06,17.4.09,26.16.09s16.87-.04,25.26-.09c270.79-1.93,504.03-34.84,621.43-82.35,9.77-3.94,18.73-7.99,26.85-12.15,28.86-14.72,47.02-30.6,52.42-47.21.15-.43.28-.88.41-1.31.21-.66.36-1.29.49-1.93.13-.45.21-.9.28-1.35.04-.13.06-.24.07-.36.09-.54.19-1.09.24-1.63.09-.71.15-1.43.19-2.14.04-.6.06-1.22.06-1.84,0-6.45-1.91-12.83-5.64-19.07ZM1416.41,1205.66c-8.12,4.16-17.08,8.21-26.85,12.15-117.39,47.51-350.64,80.42-621.43,82.35-8.38.06-16.8.09-25.26.09s-17.47-.04-26.16-.09c-269.21-1.99-501.18-34.61-618.93-81.69-10.39-4.16-19.88-8.42-28.44-12.81-.13-.07-.26-.14-.4-.2-15.52-7.95-15.81-30.06-.6-38.59l291.89-163.93,26.89-15.11c1.43.66,2.91,1.29,4.44,1.93,57.21,23.85,192.97,40.61,351.34,40.61,166.56,0,308.12-18.54,359.59-44.38l4.54,2.49,18.04,9.94,299.09,164.68c15.02,8.27,15.25,29.94.27,38.29-2.57,1.43-5.24,2.86-8.01,4.27Z"/></g><path class="cls-3" d="M741.84,1414.27c-182.9,0-357.96-14.24-492.92-40.09-96.39-18.46-216.11-51.29-240.04-102.91-11.95-20.76-11.84-82.44.31-102.5,2.63-4.34,8.19-5.89,12.68-3.52,4.49,2.37,6.36,7.83,4.27,12.45-1.62,3.57-2.4,7.02-2.4,10.53,0,15.87,16.92,32.89,48.93,49.22,8.17,4.18,17.46,8.36,27.64,12.44,125.12,50.02,370.94,81.09,641.53,81.09s518.49-31.32,643.08-81.74c9.48-3.8,18.23-7.76,26.06-11.78,32.04-16.34,48.96-33.36,48.96-49.23,0-6.71-3.05-13.69-9.07-20.74-3.29-3.86-3.01-9.61.64-13.13,3.65-3.52,9.41-3.6,13.15-.17,17.05,15.62,20.92,40.28,21.17,58.22.4,29.37-8.66,61.51-20.69,73.51-40.18,46.48-159.24,75.82-252.15,92.26-131.52,23.27-298.84,36.09-471.14,36.09ZM19.09,1222.4c.17,16.48,2.34,32.57,6.53,39.46.2.34.39.68.55,1.04,15.37,34.13,97.88,67.83,226.38,92.44,133.81,25.63,307.58,39.75,489.31,39.75,344.73,0,649.52-52.42,708.97-121.94.17-.2.35-.39.54-.58.05-.05.1-.09.15-.14,5.97-5.78,13.9-27.63,15.01-52.26-9.87,12.05-25.49,23.55-46.78,34.42-8.33,4.28-17.63,8.48-27.63,12.49-126.7,51.28-375.87,83.14-650.26,83.14s-521.41-31.6-648.66-82.47c-10.73-4.3-20.56-8.73-29.23-13.17-19.96-10.18-34.94-20.93-44.86-32.16Z"/><path class="cls-3" d="M742.88,1350.2c-8.78,0-17.52-.04-26.22-.1-261.68-1.93-500.18-33.5-622.44-82.38-10.75-4.31-20.59-8.74-29.25-13.17-39.41-20.11-59.39-42.42-59.39-66.31,0-5.99,2.89-14.97,3.77-17.58.76-2.24,2.32-4.12,4.39-5.28l368.68-207.07c2.68-1.51,5.92-1.63,8.71-.35,1.32.61,2.69,1.19,4.11,1.78,58.12,24.23,194.58,39.88,347.67,39.88,160.84,0,303.61-17.42,355.28-43.36,2.82-1.42,6.16-1.36,8.93.17l22.58,12.43,334.08,183.96c1.03.57,1.96,1.32,2.73,2.21h0c2.43,2.83,4.55,5.73,6.3,8.63.13.19.25.38.37.58,4.65,7.79,7.01,15.86,7.01,24.01,0,23.89-19.99,46.21-59.4,66.32-8.28,4.24-17.58,8.45-27.62,12.5-121.92,49.34-361.39,81.17-624.95,83.04-8.41.06-16.85.1-25.32.1ZM26.47,1180.25c-.92,3.22-1.69,6.59-1.69,7.99,0,15.87,16.92,32.89,48.93,49.22,8.15,4.17,17.45,8.36,27.65,12.44,120.17,48.05,356,79.09,615.43,81.01,17.01.11,34.26.12,51.28,0,261.3-1.86,498.06-33.15,617.89-81.65,9.52-3.84,18.29-7.8,26.07-11.8,32.03-16.34,48.95-33.36,48.95-49.23,0-4.57-1.4-9.26-4.17-13.96-.11-.16-.21-.32-.3-.48-.98-1.65-2.16-3.33-3.52-5.02l-350.82-193.18c-57.45,25.94-200.16,43.2-359.27,43.2s-294.78-16.23-355.03-41.35c-.07-.03-.14-.06-.2-.08L26.47,1180.25ZM1457.23,1174.86s.01.02.02.03c0,0-.01-.02-.02-.03ZM1457.21,1174.84s0,0,0,0c0,0,0,0,0,0Z"/><path class="cls-2" d="M1125.05,967.67c-.81,8.31-1.84,14.93-1.84,16.58,0,36.41-170.27,65.91-380.32,65.91s-380.3-29.49-380.3-65.91c0-1.78-1.22-6.15-2.36-12.06-2.17-11.19-4.07-27.9,3.19-42.86-.56,1.46-.82,2.93-.82,4.41,0,6.84,6.02,13.46,17.23,19.65,2.21,1.26,4.65,2.49,7.29,3.69,1.43.66,2.91,1.29,4.44,1.93,57.21,23.85,192.97,40.61,351.34,40.61,166.56,0,308.12-18.54,359.59-44.38,13.44-6.73,20.74-13.97,20.74-21.51,0-2.23-.62-4.43-1.86-6.58,5.78,8.01,5.04,26.62,3.69,40.52Z"/><g class="cls-16"><path class="cls-3" d="M1125.05,967.67c-.82,8.3-1.85,14.93-1.85,16.58,0,36.4-170.25,65.89-380.31,65.89s-380.29-29.49-380.29-65.89c0-1.78-1.22-6.14-2.38-12.07-1.54-7.8-2.9-18.31-1.13-29.04.31,2.42.72,4.73,1.13,6.81,1.15,5.93,2.38,10.29,2.38,12.07,0,36.4,170.25,65.89,380.29,65.89s380.31-29.49,380.31-65.89c0-1.66,1.03-8.28,1.85-16.58.17-1.63.31-3.31.43-5.04.98,8.52.38,18.76-.43,27.26Z"/></g><path class="cls-3" d="M742.89,1059.75c-134.67,0-389.19-15.73-389.9-75.25-.09-.71-.51-2.57-.84-4.09-.41-1.85-.88-4-1.35-6.39-3.8-19.55-2.5-35.54,3.97-48.88,2.24-4.63,7.73-6.67,12.46-4.62,4.72,2.05,6.99,7.45,5.14,12.25-.13.34-.19.63-.19.96,0,1.66,2.58,5.9,12.27,11.24,2.08,1.18,4.28,2.29,6.62,3.36,1.37.63,2.74,1.22,4.16,1.81,58.11,24.23,194.57,39.88,347.65,39.88,160.84,0,303.61-17.42,355.28-43.36,12.19-6.11,15.45-11,15.45-12.93,0-.2,0-.79-.58-1.8-2.55-4.43-1.18-10.07,3.12-12.85,4.29-2.77,10-1.69,12.99,2.45,6.03,8.37,7.77,23.32,5.46,47.06h0c-.42,4.33-.9,8.21-1.27,11.2-.23,1.88-.5,4.02-.53,4.61,0,59.56-255.05,75.34-389.92,75.34ZM367.98,957.31c.21,4.06.77,8.41,1.67,13.05.43,2.21.87,4.2,1.25,5.9.78,3.52,1.29,5.85,1.29,7.98,0,5.35,18.58,22.45,103.43,37.15,71.3,12.35,166.22,19.16,267.28,19.16s195.99-6.8,267.29-19.16c84.85-14.7,103.43-31.8,103.43-37.15,0-1.35.19-2.96.67-6.8.35-2.86.81-6.56,1.21-10.7h0c.29-3.01.5-5.76.65-8.27-2.77,1.83-5.89,3.61-9.37,5.35-54.09,27.15-200.32,45.4-363.88,45.4s-294.78-16.23-355.03-41.35c-1.64-.68-3.24-1.37-4.77-2.07-2.82-1.28-5.53-2.65-8.01-4.06-2.59-1.43-4.96-2.9-7.1-4.42ZM352.99,984.25v.08-.08Z"/><path class="cls-2" d="M811.01,1173.16c8.93,43.13-19.14,87.85-65.21,87.85s-74.14-44.72-65.21-87.85c7.01-33.85,35.65-56.38,65.21-56.38,29.56,0,58.19,22.53,65.21,56.38Z"/><g class="cls-16"><path class="cls-3" d="M745.8,1261.01c-45.06,0-72.93-42.82-65.72-85.09,5.43,31.9,30.23,58.45,65.72,58.45s60.29-26.56,65.72-58.45c7.21,42.26-20.66,85.09-65.72,85.09Z"/></g><g class="cls-14"><path class="cls-6" d="M812.05,1201.65c-.25-2.11-.6-4.2-1.04-6.31-7.03-33.87-35.66-56.38-65.22-56.38s-58.19,22.51-65.22,56.38c-.44,2.11-.79,4.2-1.04,6.31-1.04-8.38-.74-17.08,1.04-25.71,7.03-33.85,35.66-56.38,65.22-56.38s58.19,22.53,65.22,56.38c1.78,8.63,2.08,17.33,1.04,25.71Z"/></g><path class="cls-3" d="M745.8,1270.61c-22.84,0-43.34-9.73-57.72-27.4-15.87-19.5-22.19-46.42-16.88-72,7.68-37.1,39.06-64.03,74.61-64.03s66.92,26.93,74.6,64.03h0c5.3,25.59-1.01,52.5-16.88,72-14.38,17.66-34.88,27.4-57.72,27.4ZM745.8,1126.38c-26.49,0-49.96,20.49-55.81,48.73-4.14,19.99.71,40.92,12.97,55.99,10.67,13.1,25.88,20.32,42.84,20.32s32.17-7.21,42.83-20.32c12.27-15.07,17.12-36,12.97-55.99h0c-5.85-28.24-29.32-48.73-55.81-48.73Z"/><path class="cls-2" d="M1239.15,1088.42c43.63,19.56,72.43,65.29,52.15,96.68-20.28,31.39-73.81,23.93-109.57-7.8-28.07-24.91-36.2-57.82-23.18-77.97,13.02-20.15,46.36-26.26,80.6-10.91Z"/><g class="cls-14"><path class="cls-6" d="M1297.16,1156.53c-9.36-19.78-28.82-38.36-52.72-49.07-34.24-15.36-67.59-9.22-80.61,10.91-5.62,8.7-7.29,19.78-5.12,31.56-8.18-17.53-8.32-35.18-.17-47.81,13.03-20.14,46.37-26.27,80.61-10.91,30.41,13.63,53.62,39.97,58.01,65.32Z"/></g><g class="cls-16"><path class="cls-3" d="M1291.31,1185.09c-20.29,31.41-73.82,23.94-109.57-7.8-16.2-14.38-25.76-31.44-28.44-47.16,4.46,6.79,10.16,13.39,17.06,19.52,35.76,31.74,89.29,39.21,109.57,7.8,5.96-9.22,7.69-19.69,6.02-30.36,12.83,19.18,16.5,40.74,5.36,57.99Z"/></g><path class="cls-3" d="M1249.34,1214.83c-24.82,0-52.29-11.1-73.98-30.35-30.66-27.21-41.12-65.21-24.87-90.35,16.25-25.15,55.19-31.22,92.59-14.46,30.27,13.57,53.94,38.42,61.77,64.86,4.96,16.74,3.06,32.57-5.48,45.79-8.54,13.22-22.2,21.46-39.49,23.82-3.44.47-6.96.7-10.54.7ZM1201.13,1089.45c-15.25,0-28.11,5.18-34.52,15.1-10.89,16.85-1.65,45.04,21.49,65.58,20.43,18.13,47.58,27.95,69.18,24.99,11.74-1.6,20.47-6.72,25.96-15.22,5.49-8.49,6.56-18.56,3.2-29.92-6.19-20.9-26.29-41.62-51.21-52.79h0c-11.61-5.21-23.44-7.74-34.1-7.74Z"/><path class="cls-2" d="M253.53,1088.42c-43.63,19.56-72.43,65.29-52.15,96.68,20.28,31.39,73.81,23.93,109.57-7.8,28.07-24.91,36.2-57.82,23.18-77.97-13.02-20.15-46.36-26.26-80.6-10.91Z"/><g class="cls-14"><path class="cls-6" d="M195.53,1156.53c9.36-19.78,28.82-38.36,52.72-49.07,34.24-15.36,67.59-9.22,80.61,10.91,5.62,8.7,7.29,19.78,5.12,31.56,8.18-17.53,8.32-35.18.17-47.81-13.03-20.14-46.37-26.27-80.61-10.91-30.41,13.63-53.62,39.97-58.01,65.32Z"/></g><g class="cls-16"><path class="cls-3" d="M201.38,1185.09c20.29,31.41,73.82,23.94,109.57-7.8,16.2-14.38,25.76-31.44,28.44-47.16-4.46,6.79-10.16,13.39-17.06,19.52-35.76,31.74-89.29,39.21-109.57,7.8-5.96-9.22-7.69-19.69-6.02-30.36-12.82,19.18-16.5,40.74-5.36,57.99Z"/></g><path class="cls-3" d="M243.34,1214.83c-3.58,0-7.1-.23-10.53-.7-17.29-2.36-30.95-10.6-39.49-23.82-8.54-13.22-10.44-29.05-5.48-45.79,7.83-26.44,31.5-51.29,61.77-64.86h0c37.4-16.76,76.35-10.69,92.59,14.46,16.25,25.15,5.78,63.15-24.87,90.35-21.69,19.25-49.16,30.35-73.98,30.35ZM291.56,1089.45c-10.66,0-22.49,2.53-34.1,7.73h0c-24.92,11.17-45.03,31.89-51.21,52.79-3.36,11.36-2.29,21.43,3.2,29.92,5.49,8.49,14.22,13.61,25.96,15.22,21.61,2.94,48.75-6.86,69.18-24.99,23.14-20.53,32.38-48.73,21.49-65.58-6.41-9.92-19.26-15.1-34.52-15.1ZM253.53,1088.42h.03-.03Z"/><g class="cls-16"><path class="cls-6" d="M513.73,1089.29c1.35,5.22,2.01,10.1,2.43,14.86.28,2.42.31,4.71.47,7.06l.09,6.88c-.12,9.06-1.06,17.72-2.6,26.08-3.11,16.72-8.63,32.26-16.01,46.89-7.37,14.64-16.41,28.46-27.72,41.18-5.67,6.35-11.87,12.45-18.88,18.14-3.52,2.84-7.15,5.63-11.12,8.25-3.95,2.63-8.09,5.17-12.87,7.4l-6.12-2.98c-1.2-5.14-1.74-9.97-2.1-14.7-.38-4.74-.42-9.32-.35-13.84.17-9.03,1.16-17.67,2.68-26.04,3.06-16.74,8.39-32.37,15.39-47.19,6.98-14.83,15.83-28.75,27.09-41.49,5.65-6.36,11.89-12.44,18.95-18.11l5.48-4.16c1.96-1.33,3.78-2.72,5.85-3.98,4.02-2.6,8.27-5.08,13.21-7.23l6.12,2.98Z"/></g><g class="cls-16"><path class="cls-6" d="M982.53,1086.3c4.87,2.18,9.07,4.69,13.05,7.31,4.02,2.6,7.67,5.37,11.24,8.19,7.02,5.69,13.29,11.75,18.92,18.12,11.28,12.73,20.23,26.6,27.41,41.33,7.13,14.75,12.56,30.34,15.63,47.08,1.55,8.36,2.48,17.03,2.64,26.06.04,4.54-.02,9.13-.44,13.89-.39,4.75-.98,9.6-2.24,14.77l-6.12,2.98c-4.85-2.19-9.04-4.71-13.02-7.32-4.01-2.6-7.66-5.38-11.22-8.2-7.02-5.69-13.28-11.76-18.91-18.13-11.3-12.72-20.24-26.6-27.47-41.3-7.18-14.73-12.61-30.32-15.69-47.04-1.56-8.36-2.47-17.03-2.63-26.06-.03-4.54.03-9.13.46-13.9.39-4.75,1-9.6,2.28-14.79l6.11-2.98Z"/></g></svg>