<?xml version="1.0" encoding="UTF-8"?>
<svg id="_레이어_1" data-name="레이어 1" xmlns="http://www.w3.org/2000/svg" viewBox="0 0 45 34">
  <defs>
    <style>
      .cls-1 {
        fill: #351c43;
        stroke-width: 0px;
      }
    </style>
  </defs>
  <path class="cls-1" d="M18.27,33.95c-2.52,0-5.04-.21-7.51-.64-.64-.11-1.3-.26-1.84-.73-1.01-.87-1.13-2.34-.34-4.37l.31-.8c-.82-.04-1.65-.14-2.47-.29-.32-.06-1.07-.2-1.47-.82-.28-.44-.32-.95-.12-1.47-.11-.07-.22-.15-.32-.23C1.74,22.6-.63,18.69.7,14.85c.51-1.48,1.54-2.75,2.91-3.69.14-.58.29-1.15.44-1.69.3-1.12.68-2.51,1.68-3.53,1.59-1.61,3.96-1.62,6.29-1.39,1.78.18,3.66.4,5.51.82.41-.77.91-1.52,1.58-2.15,1.26-1.2,2.88-1.79,4.42-2.29C25.02.45,26.62-.01,28.31.05c3.87.15,7.38,3.5,8.26,7.6.88.5,1.73,1.05,2.55,1.64,1.01.74,2.08,1.68,2.34,3.06.32,1.7-.73,3.48-2.82,4.76-.56.34-1.14.64-1.74.89-.01.1-.03.2-.05.29-.15.69-.55,1.33-1.25,2-.07.07-.14.13-.21.19.03.02.07.05.1.07,2.82.1,5.49-.4,7.91-2.37.34-.27.83-.22,1.1.11.27.34.22.83-.11,1.1-2.19,1.78-4.53,2.51-6.95,2.69.02.02.05.05.07.07,1.43,1.43,2.42,3.75,1.4,5.73-.68,1.32-2.01,2.02-3.35,2.59-5.42,2.28-11.37,3.45-17.29,3.45ZM10.46,27.68l-.42,1.09c-.36.93-.66,2.13-.1,2.62.24.21.65.29,1.09.37,1.72.3,3.46.49,5.21.57-1.86-.72-3.51-1.84-4.76-3.28-.38-.43-.72-.9-1.02-1.38ZM12.41,27.73c.08.1.16.2.25.3,1.73,1.99,4.38,3.3,7.26,3.58,3.45.34,7.54-1.3,8.4-4.62.2-.79.21-1.57.08-2.33-1.02,1.93-3.05,3.34-5.06,3.87-3.04.81-6.2.17-8.98-.4-.63-.13-1.29-.26-1.94-.41ZM29.59,23.08c.46,1.34.63,2.8.23,4.31-.47,1.82-1.63,3.21-3.11,4.17,2.83-.56,5.6-1.4,8.23-2.51,1.07-.45,2.12-.99,2.57-1.86.65-1.27-.12-2.92-1.11-3.91-.44-.43-.93-.81-1.45-1.18-.57-.03-1.14-.09-1.72-.16-1.06.53-2.28.9-3.65,1.12ZM15.71,26.82c2.34.46,4.88.84,7.22.21,1.87-.5,3.72-1.93,4.35-3.73-.2,0-.41.01-.62.01-2.34,1.13-4.78,1.91-7.01,2.53-1.25.35-2.57.69-3.94.97ZM11.21,25.75s.03.06.04.09c2.8-.15,5.53-.81,7.98-1.5,1.23-.35,2.53-.74,3.84-1.22-2.01-.21-4.01-.53-5.99-.97-1.52.11-3.04.14-4.54.16l-1.33,3.44ZM7.2,24.4c.7.35,1.43.64,2.17.89-.22-.71-.37-1.44-.43-2.16-.6.38-1.18.8-1.74,1.27ZM3.15,13.68c-.43.51-.76,1.08-.97,1.68-1.02,2.95.86,6.24,3.24,7.97.11.08.23.16.34.24.64-.59,1.32-1.11,2.03-1.58-.59-.16-1.16-.39-1.69-.72-1.75-1.09-2.87-3.23-3.01-5.7-.03-.63,0-1.26.06-1.89ZM10.46,22.32c0,.29.02.59.05.88l.34-.88c-.13,0-.26,0-.39,0ZM22.02,21.43c.65.08,1.31.15,1.96.21.81.07,1.58.11,2.31.11.24-.12.47-.24.7-.37-.12-.19-.25-.37-.38-.54-.61-.1-1.22-.19-1.83-.26,0,0-.02,0-.02,0-.23.09-.46.17-.69.26-.68.24-1.36.43-2.05.6ZM4.99,12.16c-.24,1.1-.39,2.22-.33,3.32.11,1.97.96,3.64,2.27,4.46.62.39,1.35.6,2.11.7.03-.18.07-.37.12-.55.12-.48.27-.94.45-1.39-.8-1.09-1.11-2.4-.8-3.58.57-2.14,2.76-3.08,5.19-3.11-2.26-.8-4.25-1.08-6.05-.85-1.07.14-2.08.49-2.96.99ZM16.89,20.5c.1.02.2.05.3.07.78-.06,1.55-.14,2.32-.26-.86.02-1.74.08-2.62.19ZM10.83,19.91c-.06.18-.11.37-.16.55,0,0,0,0,0,0,.21-.09.42-.17.62-.25-.16-.1-.31-.2-.47-.31ZM31.59,20.13c.22.04.45.07.67.11-.02-.02-.05-.04-.07-.05-.12-.09-.23-.19-.34-.28-.09.08-.17.16-.26.23ZM28.54,19.58c.26.05.51.09.77.14.08.01.16.03.24.04.21-.16.41-.32.62-.48.11-.09.21-.18.32-.27-.75-.05-1.49-.16-2.22-.33-.05.04-.1.07-.15.11.16.26.31.52.43.79ZM33.17,18.97c.28.22.56.43.86.64.17-.13.32-.27.48-.42.2-.19.36-.37.48-.54-.6.15-1.21.26-1.82.33ZM15.7,14.15l-2.07,5.36c3.75-.93,7.66-.89,10.92-.53.11-.04.21-.09.31-.14-.14-.13-.27-.26-.39-.37-1.35-1.25-2.8-2.37-4.33-3.37-1.27-.51-2.57-.92-3.9-1.25-.02,0-.04,0-.06-.01-.16.1-.32.21-.47.31ZM11.48,18.43s0,0,0,0c.21.18.45.34.69.49l1.08-2.79c-.7.7-1.3,1.46-1.77,2.3ZM30.77,16.42c.29.38.58.74.89,1.09.12,0,.25,0,.37,0,.67-.76,1.25-1.58,1.72-2.42-.42-.42-.85-.82-1.31-1.2-.43.9-.99,1.75-1.67,2.54ZM34.83,16.33c-.18.3-.38.59-.58.89.32-.07.63-.15.94-.25-.08-.2-.2-.42-.36-.64ZM13.77,13.6c-1.57.05-3.09.56-3.45,1.93-.14.52-.06,1.05.15,1.54.86-1.34,2.02-2.48,3.31-3.47ZM21.61,10.99c-.06.27-.07.54-.03.8.14.88.71,1.76,1.74,2.69,1.31,1.18,2.9,2.02,4.6,2.51.29-.23.56-.46.82-.71-.34-.49-.67-.98-1-1.47-1.21-1.8-2.35-3.5-3.89-4.82-.75.33-1.5.66-2.24,1ZM35.63,14.81c.47.55.8,1.08,1.01,1.6.4-.18.79-.39,1.17-.62,1.17-.72,2.33-1.92,2.1-3.14-.16-.85-.96-1.53-1.72-2.09-.46-.34-.93-.65-1.41-.96.02,1.75-.38,3.52-1.15,5.21ZM26.48,10.44c.95,1.11,1.76,2.32,2.56,3.51.26.39.53.78.79,1.16.55-.69,1-1.43,1.34-2.21-1.44-1.02-3.03-1.86-4.69-2.46ZM33.03,12.34c.49.39.97.81,1.42,1.24.57-1.44.83-2.92.75-4.38,0-.18-.03-.36-.05-.54-1.03-.55-2.1-1.02-3.2-1.41.14.1.27.22.39.35.99,1.02,1.26,2.68.74,4.54-.02.07-.04.14-.06.21ZM18.66,12.41c.63.34,1.24.69,1.85,1.07-.24-.47-.4-.95-.48-1.45-.02-.09-.03-.19-.03-.29-.44.21-.89.43-1.34.66ZM16.74,11.45c.07.03.14.06.21.1.83-.46,1.66-.88,2.46-1.26.31-.15.63-.3.94-.44.26-.57.66-1.06,1.2-1.4-1-.52-2.06-.92-3.16-1.23-.17.41-.33.81-.48,1.21l-1.17,3.02ZM26.63,8.83c1.78.61,3.48,1.46,5.04,2.52.15-.74.25-1.93-.45-2.66-.79-.82-2.29-.78-4.48.1-.04.01-.07.03-.11.05ZM9.19,9.52c1.86,0,3.88.43,6.1,1.31l1.15-2.97c.13-.33.26-.68.4-1.02-1.67-.36-3.37-.56-4.99-.72-1.94-.19-3.89-.21-5.02.93-.71.72-1.01,1.84-1.28,2.83-.03.1-.05.2-.08.31.71-.27,1.48-.47,2.27-.57.47-.06.95-.09,1.44-.09ZM23.98,8.11c.07.01.13.02.19.04.66-.28,1.32-.55,1.97-.82,1.32-.53,2.47-.8,3.46-.8h.03c-3.06-.79-6.27-1-9.42-.6-.4.06-.76-.2-.86-.58-.09.14-.18.29-.27.43,1.73.52,3.4,1.25,4.89,2.32ZM23.35,4.17c3.89,0,7.77.86,11.3,2.5-1.1-2.81-3.64-4.94-6.4-5.04-1.43-.06-2.88.37-4.24.81-1.37.45-2.8.96-3.82,1.93,1.05-.13,2.1-.19,3.16-.19Z"/>
</svg>