<?xml version="1.0" encoding="utf-8"?>
<!-- Generator: Adobe Illustrator 28.2.0, SVG Export Plug-In . SVG Version: 6.00 Build 0)  -->
<svg version="1.1" id="Layer_1" xmlns="http://www.w3.org/2000/svg" xmlns:xlink="http://www.w3.org/1999/xlink" x="0px" y="0px"
	 viewBox="0 0 116.7 90.4" style="enable-background:new 0 0 116.7 90.4;" xml:space="preserve">
<style type="text/css">
	.st0{fill:#E81818;}
	.st1{fill:#FFB806;}
	.st2{fill:#FFFD01;}
	.st3{fill:#371A45;}
</style>
<g>
	<path class="st0" d="M105.4,12.5c21,30.3-3.3,70.6-3.3,70.6s-8.8,8.4-27,2.6c-18.2-5.8-35.2-33.6-43.4-36.3s-29-6.9-29-6.9
		s21.4,0.8,30.8-4.4c9.4-5.2,23.2-24.2,41.8-32.9C93.8-3.4,105.4,12.5,105.4,12.5L105.4,12.5z"/>
	<path class="st1" d="M102.3,22.1c14.9,21.4-2.4,50-2.4,50s-6.2,5.9-19.1,1.7C67.9,69.7,55.8,50,50,48.1c-5.8-1.9-13.2-3.3-13.2-3.3
		s7.8-1,14.5-4.7C58,36.5,67.7,23,80.9,16.9S102.3,22.1,102.3,22.1L102.3,22.1z"/>
	<path class="st2" d="M102.4,30c10.5,14.1-1.7,32.8-1.7,32.8s-4.4,3.9-13.5,1.2C78,61.3,69.5,48.4,65.4,47.1
		c-4.1-1.3-9.3-2.2-9.3-2.2s5.5-0.7,10.2-3.1c4.8-2.4,11.7-11.2,21-15.2S102.4,30,102.4,30L102.4,30z"/>
	<path class="st3" d="M87.2,90.4c-3.7,0-8-0.6-12.9-2.1c-11.6-3.7-22.4-15.4-31-24.8c-4.8-5.2-9.8-10.6-12.4-11.5
		c-8-2.6-28.5-6.8-28.7-6.8c-1.4-0.3-2.4-1.6-2.2-3s1.4-2.4,2.8-2.4C8.6,40,25,39.7,32.2,35.7c3.4-1.9,7.6-5.9,12.5-10.6
		c7.8-7.5,17.7-16.9,29.4-22.3c20.4-9.5,33.4,7.9,33.5,8.1l0,0c21.8,31.4-2.2,71.8-3.2,73.5c-0.2,0.2-0.3,0.4-0.5,0.6
		C103.6,85.3,98.1,90.4,87.2,90.4L87.2,90.4z M99.9,81.3c2.3-4,21.9-40.1,3.3-67.1c-0.7-0.9-10.7-13.8-26.8-6.4
		c-10.9,5-20.4,14.1-28,21.3c-5.2,4.9-9.6,9.2-13.6,11.4c-3.2,1.8-7.7,2.9-12.2,3.6c3.9,0.9,7.5,1.9,10,2.7c3.9,1.3,8.7,6.5,14.7,13
		c8.2,8.9,18.4,20,28.5,23.3C90.7,87.8,98.4,82.5,99.9,81.3L99.9,81.3z"/>
</g>
</svg>
