<?xml version="1.0" encoding="utf-8"?>
<!-- Generator: Adobe Illustrator 28.2.0, SVG Export Plug-In . SVG Version: 6.00 Build 0)  -->
<svg version="1.1" id="Layer_1" xmlns="http://www.w3.org/2000/svg" xmlns:xlink="http://www.w3.org/1999/xlink" x="0px" y="0px"
	 viewBox="0 0 476.8 485" style="enable-background:new 0 0 476.8 485;" xml:space="preserve">
<style type="text/css">
	.st0{fill:#FFFFFF;}
	.st1{opacity:0.3;}
	.st2{fill:#371A45;}
	.st3{fill:#4DB7FF;}
	.st4{fill:#FFDA22;}
	.st5{fill:#E81818;}
	.st6{opacity:0.5;}
	.st7{fill:#220F2D;}
	.st8{fill:none;}
</style>
<path class="st0" d="M185,205.6c8.1-0.6,3.1,117.4-1.6,121.5c-4.7,4-40.9,10.6-47,2.6s-5.4-103.6,4-113.2
	C149.8,206.8,185,205.6,185,205.6L185,205.6z"/>
<g class="st1">
	<path class="st2" d="M187.9,213c0,0,1.4,35.8,1.1,56.4c-0.5,20.6-2.6,53-4.6,55.5s-7.6,5.8-22.4,7.6s-20.6-0.3-25.5-3
		s-3-15.3-3-15.3s0.9-6.7,1.3-7.4s9.1-4.8,11.2-11.5s1.6-72.4,5.6-75.9S187.9,213,187.9,213L187.9,213z"/>
</g>
<path class="st2" d="M150.7,336.1c-2,0-3.8-0.1-5.4-0.3c-5.5-0.6-9.1-2.1-11-4.6c-4.4-5.7-4.8-39-4.4-57.7c0.4-15.4,1.9-52.1,8.6-59
	c9.8-10.1,42.5-11.6,46.4-11.7c1.1,0,3,0.4,4.2,3.4c4,9.9,2.9,52.3,2.4,65c-0.4,14-1.2,27.4-2.2,37.8c-1.7,18-3.1,19.2-4.1,20.1
	C181.3,332.4,163.7,336.1,150.7,336.1L150.7,336.1z M181.4,325.1c1.6-3.7,3.9-27.7,4.8-58.6c1.1-34.7-0.3-54.1-2.1-58.2
	c-10.2,0.4-34.9,3-41.8,10c-2.8,3-6.2,21.5-7,55.3c-0.7,31.6,1.5,51.8,3.3,54.3c0.4,0.6,1.9,1.9,7.2,2.5
	C158.6,331.8,178,327.3,181.4,325.1L181.4,325.1z M181.3,325.3L181.3,325.3L181.3,325.3z"/>
<path class="st2" d="M140.2,219.1L140.2,219.1c-3.5-0.4-3.1-5.6,0.4-5.4c3.5,0.3,6.8,1.3,10,2.7c2.2,1,4.4,2.1,6.4,3.5
	c1.6,1,3.1,2.4,4,4.3c0.1,0.2,0,0.4-0.2,0.4c-4-0.2-6.8-2.2-10.5-3.1C147,220.5,143.5,219.7,140.2,219.1L140.2,219.1z"/>
<path class="st0" d="M181.4,224.7c56.9,33.5,116.2,5.7,116,5.7c9.4,2.3,28.4,18.3,34.6,37.7c6.2,19.4,7.5,46.7-32.2,63.2
	c-39.7,16.6-127.7,20.9-133.1,1.5s0.4-60,0.4-60s-61.7-36.6-82.1-60s-11.8-39.2-2-48.1c9.8-8.8,20.4,3.7,20.4,3.7s0-9.2,7.6-6.6
	s7.8,13.6,7.8,13.6l2.8,3.2C139,194.4,181.4,224.7,181.4,224.7L181.4,224.7z"/>
<g class="st1">
	<path class="st2" d="M303.9,320.8l2-0.8c0,0-0.2,5.2,0,5.6c0.2,0.4-2.2,4.1-2.2,4.1s-26,14.2-69.1,15.2s-64.2,0.1-68.4-13.8
		s0.9-55.6,0.9-55.6l-1.1-3l-20.9-13.3c0,0-47.2-30.5-62.3-48.9s-8.2-32.2-8.2-32.2S73,190.7,102,217s83.2,53.8,85.8,55.8
		s-3.3,49.2,37.4,58S303.9,320.8,303.9,320.8L303.9,320.8z"/>
</g>
<g class="st1">
	<path class="st2" d="M321.2,318.5c0,0-12.1,8.5-13.1,9s-1.9-4.3-1.9-4.3s-0.8-6.4-3.2-27.5c-2.4-21.2-9.1-42.2-9.1-42.2
		C314.7,264.1,321.2,318.5,321.2,318.5L321.2,318.5z"/>
</g>
<g class="st1">
	<path class="st2" d="M301.6,232l-4.2-1.5c0,0-20.8,9.2-50.9,11.2c-46.6-0.7-73.8-22.9-75.9-23.4c-2.1-0.6,34.7,40.5,77.9,35.2
		C291.7,248.2,301.6,232,301.6,232L301.6,232z"/>
</g>
<path class="st2" d="M214.5,348.3c-17.7,0.1-33.2-1.9-41.9-6.1c-4.7-2.2-7.5-5.1-8.5-8.6c-4.9-17.6-1-51.1,0.1-59.3
	c-9.9-5.9-62.3-37.9-81.2-59.6c-22.7-26-10.9-43.7-1.8-51.9c3.1-2.9,6.6-4.2,10.4-3.9c4.1,0.2,7.7,2.4,10.2,4.3
	c0.6-1.2,1.4-2.4,2.6-3.3c1.4-1,3.8-2,7.5-0.7c7.9,2.7,9.3,12,9.6,15.1l2.1,2.4c16.7,15.2,57.1,44.1,59.3,45.7
	c54.9,32.4,112.9,5.9,113.5,5.6s1.2-0.3,1.8-0.2c10.6,2.6,30.1,19.3,36.5,39.5c9.8,30.7-1.6,53.1-33.8,66.5
	C278.7,343.1,243.5,348.3,214.5,348.3L214.5,348.3z M297.8,233.3c-3.7,1.6-17.4,7.1-36.6,9.5c-20.4,2.6-51.1,2-81.1-15.8
	c-0.1,0-0.1,0-0.2-0.1c-1.7-1.3-42.7-30.6-60-46.3c-0.1-0.1-0.1-0.1-0.2-0.2l-2.8-3.2c-0.5-0.4-0.7-1.1-0.7-1.7
	c0-0.1-0.3-9.2-6-11.1c-0.8-0.3-2-0.6-2.6-0.1c-0.9,0.7-1.4,2.9-1.4,4.1c0,1.2-0.7,2.2-1.8,2.6s-2.3,0.1-3-0.8
	c0-0.1-4.7-5.5-10.1-5.9c-2.3-0.2-4.3,0.6-6.3,2.4c-13.5,12.2-12.8,27.1,2.2,44.3c19.9,22.8,80.9,59,81.5,59.4
	c0.9,0.5,1.5,1.6,1.3,2.7c-0.1,0.4-5.7,40.3-0.5,58.9c0.5,1.9,2.4,3.7,5.6,5.2c21.4,10.5,89.7,5.8,123.8-8.4
	c29.6-12.4,39.6-31.9,30.7-59.9C323.8,250.8,306.3,236.1,297.8,233.3L297.8,233.3z M181.4,224.7L181.4,224.7L181.4,224.7z"/>
<path class="st2" d="M100.8,168L100.8,168c0.7-3.4,5.6-2.7,5.3,0.7c-0.2,2.7-0.7,5.4-1.2,8.1c-0.1,0.9-0.5,1.6-1.4,2
	c-0.4,0.1-0.9,0.4-1.4,0.7c-3.9,2-6.3,5.4-9.7,8.2c-0.1,0.1-0.4,0-0.4-0.2c-0.5-5.1,3.6-9.2,7.3-12.2c0.6-0.4,1.1-0.8,1.9-1.2
	l-1.4,2C100,173.4,100.3,170.7,100.8,168L100.8,168z"/>
<path class="st2" d="M128.8,250.9c0,0-0.1,0-0.3,0c-1.5-0.2-2.6-1.5-2.4-3c3.4-29.9,25.6-45,26.5-45.6c1.3-0.8,3-0.5,3.8,0.8
	c0.8,1.3,0.4,3-0.8,3.8c-0.2,0.1-21,14.2-24.1,41.6C131.3,249.9,130.2,250.9,128.8,250.9L128.8,250.9z"/>
<path class="st2" d="M166,275.2L166,275.2c-2.8-1.7-0.7-6,2.4-4.9c2.8,1.1,5.3,2.8,7.7,4.6c0.8,0.6,1.6,1.4,2,2.8
	c0,0.2,0,0.3-0.2,0.4c-1.4,0.6-2.4,0.5-3.4,0.2C171.5,277.6,168.6,276.7,166,275.2L166,275.2z"/>
<path class="st2" d="M306.2,328.5L306.2,328.5c-2.3-3-3.4-6.2-3.6-9.7c-0.1-1.7,0-3.4-0.2-5l-0.5-4.9c-1.6-13.1-4.2-26.1-6.7-39
	c-1.4-6.6-3-13-2.5-19.9c4.4,5.6,6.5,12.1,8.1,18.6c3.5,13,5.1,26.4,6.5,39.7c0.4,3.3,0.6,6.7,1.2,10
	C308.9,321.9,308.3,325.3,306.2,328.5L306.2,328.5z"/>
<path class="st0" d="M210.8,283.2c3.4-6.9,76.3-7.6,81.8-5.1s4.4,46-0.6,51.2c-31,8.3-78.9,5.2-80.9,0.8S210.8,283.2,210.8,283.2
	L210.8,283.2z"/>
<g class="st1">
	<path class="st2" d="M294.9,319.4c0.1,0,0,5.1-0.8,7.1c-0.8,2-2.1,2.9-9.7,4.6c-7.5,1.8-71.2,8.2-73.3-0.9
		c-2.1-9.1-0.5-40.8-0.5-40.8l13-1.6c-1.8,14.3-1,31.2-1,31.2l0.6,2.1C249.1,326.2,294.9,319.4,294.9,319.4L294.9,319.4z"/>
</g>
<path class="st2" d="M240.6,337.2c-7.9-0.1-15.3-0.7-20.8-1.5c-8.2-1.2-10.4-2.7-11.2-4.5c-2-4.6-0.9-38-0.5-48.1
	c0-0.4,0.1-0.8,0.3-1.1c0.9-1.8,3-6.1,42.4-7.6c15.4-0.6,38.9-0.6,42.9,1.2c2,0.9,3.3,3.3,4.1,7.8c2.2,11.5,1.6,42.3-3.8,47.8
	c-0.4,0.3-0.8,0.6-1.3,0.7c-12.7,3.4-29.9,5.3-47.7,5.3C243.5,337.2,242,337.2,240.6,337.2z M290.3,326.9c1.2-2.2,2.8-10.3,3.1-23.1
	c0.4-13.5-1.1-21.8-2.2-23.4c-2.9-0.7-18.9-1.4-39.2-0.7c-26,1-36.2,3.3-38.6,4.6c-0.7,19.3-0.9,40.3,0,44.3
	C218.8,331.6,260.9,334.4,290.3,326.9L290.3,326.9z M213.2,328.5L213.2,328.5L213.2,328.5z M213.1,284.6L213.1,284.6z"/>
<path class="st2" d="M222.9,336.1c-1.4,0-2.6-1.1-2.8-2.5c-2.3-24.7,1.5-53.7,1.7-54.9c0.2-1.5,1.6-2.5,3.1-2.3s2.5,1.6,2.3,3.1
	c0,0.3-3.9,29.5-1.6,53.6c0.2,1.5-0.9,2.9-2.4,3C223.1,336.1,223,336.1,222.9,336.1L222.9,336.1z"/>
<path class="st2" d="M256.7,336.5c-0.1,0-0.2,0-0.4,0c-1.3-0.1-2.2-1.3-2-2.5l2.6-19.7c0.2-0.8,0.7-1.5,1.4-1.8l15.1-6.5l0.9-29.1
	c0-1.2,1.1-2.2,2.3-2.2c1.3,0,2.2,1.1,2.2,2.3l-0.9,30.5c-0.1,0.9-0.6,1.6-1.4,2l-15.2,6.6l-2.4,18.4
	C258.8,335.7,257.8,336.5,256.7,336.5L256.7,336.5z"/>
<ellipse class="st3" cx="243.6" cy="300.5" rx="9" ry="9"/>
<g class="st1">
	<path class="st2" d="M243.5,303.9c-4-0.2-7.3-2.9-8.4-6.5c-0.3,0.9-0.5,1.8-0.5,2.8c-0.1,5,3.8,9.2,8.8,9.3s9.2-3.8,9.3-8.8
		c0-0.9-0.1-1.9-0.4-2.8C251,301.5,247.5,304,243.5,303.9L243.5,303.9z"/>
</g>
<path class="st2" d="M243.6,311.8c-0.1,0-0.2,0-0.3,0c-3-0.1-5.8-1.4-7.9-3.6s-3.2-5.1-3.1-8.1l0,0c0.1-6.3,5.4-11.2,11.6-11
	c3,0.1,5.8,1.4,7.9,3.6s3.2,5.1,3.1,8.1C254.7,306.9,249.7,311.8,243.6,311.8L243.6,311.8z M243.6,293.7c-3.7,0-6.7,2.9-6.9,6.6l0,0
	c-0.1,3.8,2.9,6.9,6.6,7c3.8,0.1,6.9-2.9,7-6.6c0.1-1.9-0.6-3.6-1.8-4.9c-1.2-1.3-2.9-2-4.7-2.1
	C243.7,293.7,243.7,293.7,243.6,293.7L243.6,293.7z"/>
<path class="st4" d="M315.6,254.5c4.9-10.6,13.6-4.3,13.7-4.3c9.8,24.8,7.7,64-21.9,72.3c-50.3,10.4-51.4-39.2-51.4-39.2
	c2-7.1,6.2-8.6,9.7-8.5c3,0.1,5.4,2.7,5.5,5.7c1.4,32.7,30.5,36.2,42.3,17.5C325.7,278.5,315.6,254.5,315.6,254.5L315.6,254.5z"/>
<path class="st2" d="M294.3,326.7c-9.9,0-18.2-2.7-24.7-7.9c-15.5-12.4-16.2-34.4-16.2-35.3c0-0.3,0-0.5,0.1-0.8
	c3.1-11.4,11.5-10.9,14.9-10.2c3.2,0.7,5.5,3.5,5.6,6.9c0.4,14.1,6.2,24.1,15.7,26.7c8,2.2,16.8-1.6,21.7-9.5c11.3-18,2-40.7,1.9-41
	c-0.3-0.7-0.3-1.5,0-2.2c1.8-4,4.4-6.5,7.7-7.4c5-1.3,9.4,1.7,9.9,2.1c0.4,0.3,0.7,0.7,0.9,1.2c6.1,15.4,8.4,38.7-0.2,56.1
	c-5,10.1-13.1,16.9-23.5,19.8c-0.1,0-0.1,0-0.2,0C303.1,326.2,298.6,326.7,294.3,326.7L294.3,326.7z M306.7,319.9
	c9-2.5,15.7-8.2,20-16.8c7.7-15.6,5.7-36.6,0.3-50.9c-0.9-0.5-2.9-1.4-4.7-0.9c-1.4,0.3-2.7,1.5-3.7,3.4c1.9,5.3,8.6,26.7-2.8,44.8
	c-6.2,9.9-17.3,14.7-27.7,11.8c-11.9-3.3-19.3-15.2-19.7-31.9c0-0.8-0.6-1.6-1.3-1.7c-4.2-0.9-6.9,0.9-8.4,5.9
	c0.1,2.9,1.6,20.8,14.1,30.8C281,321,292.4,322.8,306.7,319.9L306.7,319.9z"/>
<path class="st5" d="M105.8,279.1c-6.8,13.7-70.7,29.8-70.7,29.8s-1.3-56-2.6-69.9c-1.3-13.9,8.2-21.9,25.5-17.9
	S105.8,279.1,105.8,279.1L105.8,279.1z"/>
<g class="st6">
	<path class="st0" d="M98.1,267.7c0,0-23.1-42.4-37.1-46.1S43.7,224,43.7,224s8.6-0.6,21.4,10C77.9,244.6,98.1,267.7,98.1,267.7
		L98.1,267.7z"/>
</g>
<g class="st1">
	<path class="st2" d="M97.5,265.4l8.4,13.8c0,0-1.9,2.5-2.3,2.9s-8.2,6.9-25.8,13.5s-42.1,13.3-42.1,13.3L35,304
		c0,0-2.5-64.9-2.5-70.8s4.7-6.7,4.7-6.7s15.5,46.9,26.9,49.3S97.5,265.4,97.5,265.4L97.5,265.4z"/>
</g>
<path class="st2" d="M35.1,311.6c-0.7,0-1.2-0.2-1.6-0.6c-0.7-0.5-1.1-1.3-1.1-2.1c0-0.6-1.3-56.1-2.6-69.7
	c-0.7-7.3,1.3-13.3,5.8-17.2c3.6-3.2,10.6-6.5,23-3.6c18,4.2,46.4,53.7,49.6,59.3c0.5,0.8,0.5,1.8,0.1,2.6
	c-7.2,14.4-65.8,29.5-72.5,31.2C35.5,311.6,35.3,311.6,35.1,311.6L35.1,311.6z M57.4,223.9c-7.9-1.8-14.4-1-18.2,2.4
	c-3.1,2.7-4.5,7.1-4,12.6c1.1,12,2.2,54.1,2.5,66.6c23.4-6.2,58.1-17.8,64.9-26.4C93.6,263.4,70.2,226.8,57.4,223.9z"/>
<path class="st2" d="M91,292.7c-1,0-2-0.6-2.4-1.6c-0.2-0.4-18.1-40.9-30-54.8c-10.7-12.5-20.1-9.5-20.5-9.4c-1.4,0.5-3-0.2-3.5-1.6
	s0.2-3,1.6-3.5c0.5-0.2,13.2-4.6,26.5,11c12.4,14.4,30,54.4,30.8,56.1c0.6,1.4,0,3-1.4,3.6C91.7,292.6,91.4,292.7,91,292.7L91,292.7
	z"/>
<path class="st5" d="M27.8,429.8l-18.5-2.2c-16.4-58,2.4-108.4,2.4-108.4l20.7-3.2L27.8,429.8z"/>
<g class="st6">
	<path class="st0" d="M17.5,319.2c-1-1.9-5.8,0-5.8,0c-3.6,7.2-8.3,40.9-8.3,40.9s-2.3,31.5,0.3,30.1s4.1-16.2,6.5-36.5
		C12.6,333.5,17.5,319.2,17.5,319.2L17.5,319.2z"/>
</g>
<g class="st1">
	<path class="st2" d="M31.4,322.5c2.4-0.4-3.5,107.3-3.6,107.3l-18.5-2.2l-6.5-34.4c0,0,12.5-1.2,12.5-12.8
		c0.4-28.6,6.1-56.3,6.1-56.3L31.4,322.5L31.4,322.5z"/>
</g>
<path class="st2" d="M27.9,432.5c-0.1,0-0.2,0-0.2-0.1l-18.5-2.2c-1.1-0.2-2-0.9-2.3-2c-16.4-58.2,1.7-108,2.5-110.1
	c0.3-0.9,1.1-1.6,2.1-1.7l20.7-3.2c0.8-0.1,1.6,0.2,2.2,0.7s0.9,1.3,0.9,2.1l-4.6,113.9c-0.1,0.8-0.4,1.5-1,2
	C29.2,432.3,28.5,432.5,27.9,432.5L27.9,432.5z M29.6,319.2l-15.8,2.4c-2.8,8.6-15.9,53.3-2.3,103.5l13.8,1.7L29.6,319.2L29.6,319.2
	z"/>
<path class="st2" d="M3.3,341.4c0-1.5,1.2-2.7,2.7-2.7h25.4c1.5,0,2.7,1.2,2.7,2.7s-1.2,2.7-2.7,2.7H6
	C4.5,344.1,3.3,342.9,3.3,341.4z"/>
<path class="st2" d="M0.1,370c0-1.5,1.2-2.7,2.7-2.7h27.5c1.5,0,2.7,1.2,2.7,2.7s-1.2,2.7-2.7,2.7H2.8C1.3,372.7,0.1,371.5,0.1,370z
	"/>
<path class="st2" d="M1.1,398.9c0-1.5,1.2-2.7,2.7-2.7h25.3c1.5,0,2.7,1.2,2.7,2.7s-1.2,2.7-2.7,2.7H3.8
	C2.3,401.6,1.1,400.4,1.1,398.9z"/>
<path class="st0" d="M354.8,165.3c12.7-32.5,11-70.4-8.1-103.1c-11.1-18.9-26.5-33.7-44.4-43.8c-3.6-2-7.3-3.9-11-5.5
	c-2.5-1.1-5-2.1-7.6-3c-8.1-2.9-16.4-5-24.9-6.1c-8.5-1.2-17.2-1.4-25.8-0.7c-3.8,0.3-7.5,0.8-11.2,1.5c-1.3,0.2-2.7,0.5-4.1,0.8
	c-11.8,2.5-23.3,6.9-34.3,13.2c-56.9,32.7-76.1,105.3-42.9,162.1c22.5,38.6,63.4,60,105.2,59.5c2.3-0.1,4.6-0.2,6.9-0.3
	c6.3-0.4,12.6-1.4,18.8-2.8c5.2-1.2,10.3-2.8,15.3-4.7c5.8-2.2,11.5-4.9,17.1-8.1c1.8-1.1,3.6-2.2,5.4-3.3c3.6-2.3,7-4.8,10.3-7.5
	C335.6,200.4,347.6,183.7,354.8,165.3L354.8,165.3z"/>
<path class="st2" d="M244.4,240.5c-42.8,0-82.6-22.8-104.1-59.5c-16.2-27.6-20.6-59.7-12.4-90.4c8.2-30.7,27.8-56.3,55.4-72.1
	c10.8-6.2,22.4-10.6,34.4-13.2c1.3-0.3,2.7-0.6,4.2-0.8c3.7-0.7,7.5-1.2,11.2-1.5c8.6-0.7,17.2-0.5,25.8,0.7
	c8.4,1.1,16.8,3.2,24.9,6.1c2.6,0.9,5.1,1.9,7.6,3c3.8,1.7,7.5,3.5,11,5.5c18.4,10.4,33.8,25.6,44.5,43.9
	c18.5,31.6,21.5,69.3,8.1,103.3c-7.4,18.9-19.6,35.6-35.3,48.3c-3.4,2.7-6.8,5.2-10.4,7.5c-1.6,1-3.4,2.1-5.4,3.3
	c-5.5,3.1-11.3,5.9-17.2,8.1c-4.9,1.9-10.1,3.5-15.3,4.7c-6.1,1.4-12.4,2.4-18.8,2.8c-2.3,0.2-4.6,0.3-6.9,0.3
	C245.3,240.5,244.8,240.5,244.4,240.5L244.4,240.5z M354.5,165.2c13.3-33.8,10.4-71.3-8.1-102.8c-10.6-18.2-26-33.3-44.3-43.7
	c-3.5-2-7.2-3.8-11-5.5c-2.5-1.1-5-2.1-7.6-3c-8-2.9-16.4-5-24.8-6.1c-8.5-1.2-17.2-1.4-25.7-0.7c-3.7,0.3-7.4,0.8-11.1,1.5
	c-1.4,0.2-2.8,0.5-4.1,0.8c-11.9,2.5-23.4,6.9-34.2,13.1c-27.4,15.7-47,41.2-55.1,71.7c-8.1,30.6-3.8,62.6,12.3,90
	c21.5,36.7,61.1,59.4,103.7,59.4c0.4,0,0.9,0,1.3,0c2.2-0.1,4.5-0.2,6.8-0.3c6.3-0.4,12.6-1.4,18.7-2.8c5.2-1.2,10.3-2.7,15.2-4.6
	c5.9-2.2,11.6-5,17.1-8.1c2-1.2,3.8-2.2,5.4-3.3c3.5-2.3,7-4.8,10.3-7.5C335,200.6,347.1,184,354.5,165.2L354.5,165.2z"/>
<g class="st1">
	<path class="st2" d="M140.5,180.7c-19.7-33.6-21-72.6-7.1-105.7c-2.4,24,2.6,49,15.8,71.5c22.6,38.6,63.5,60,105.3,59.5
		c2.3-0.1,4.6-0.2,6.9-0.3c6.3-0.4,12.6-1.4,18.8-2.8c5.2-1.2,10.3-2.8,15.3-4.7c5.8-2.2,11.5-4.9,17.1-8.1c1.8-1.1,3.6-2.2,5.4-3.3
		c3.6-2.3,7-4.8,10.3-7.5c15.3-12.4,26.9-28.2,34.2-45.6c-1,10.8-3.6,21.5-7.6,31.6c-7.3,18.5-19.2,35.1-35.3,48.2
		c-3.2,2.6-6.7,5.2-10.3,7.5c-1.8,1.1-3.6,2.2-5.4,3.3c-5.5,3.2-11.3,5.9-17.1,8.1c-5.1,2-10.2,3.5-15.3,4.7
		c-6.3,1.4-12.5,2.4-18.8,2.8c-2.3,0.2-4.6,0.3-6.9,0.3C204,240.7,163,219.3,140.5,180.7L140.5,180.7z"/>
</g>
<path class="st2" d="M244.4,242.3c-43.4,0-83.9-23.1-105.7-60.7c-16.3-28-20.8-60.6-12.5-91.8c8.2-31.1,28.2-57.1,56.2-73.2
	c11-6.3,22.7-10.8,34.9-13.4c1.3-0.3,2.7-0.6,4.2-0.8c3.8-0.7,7.6-1.2,11.4-1.5c8.7-0.7,17.5-0.5,26.2,0.7
	c8.6,1.2,17.1,3.3,25.3,6.2c2.6,1,5.2,2,7.7,3.1c3.9,1.7,7.7,3.6,11.2,5.6c18.7,10.6,34.3,26,45.2,44.6c18.8,32.2,21.8,70.4,8.2,105
	c-7.5,19.2-19.9,36.2-35.9,49.1c-3.4,2.7-6.9,5.3-10.5,7.6c-1.6,1.1-3.4,2.2-5.5,3.4c-5.6,3.2-11.4,5.9-17.4,8.2
	c-5,1.9-10.3,3.5-15.6,4.7c-6.2,1.5-12.6,2.5-19.1,2.9c-2.3,0.2-4.7,0.3-7,0.3C245.3,242.3,244.8,242.3,244.4,242.3L244.4,242.3z
	 M352.8,164.5c13-33.3,10.1-70.2-7.9-100.9c-10.5-17.9-25.5-32.8-43.6-43c-3.4-1.9-7-3.7-10.8-5.4c-2.3-1.1-4.9-2.1-7.4-3
	c-7.9-2.9-16.1-4.9-24.4-6c-8.4-1.2-16.9-1.4-25.3-0.7c-3.7,0.3-7.4,0.7-11,1.4c-1.5,0.2-2.8,0.5-4.1,0.8
	c-11.8,2.5-23.1,6.8-33.7,12.9c-27,15.5-46.2,40.6-54.2,70.6c-8,30.1-3.7,61.6,12.1,88.6c21.4,36.5,60.9,58.9,103.4,58.4
	c2.2-0.1,4.5-0.2,6.7-0.3c6.2-0.5,12.4-1.4,18.4-2.8c5.1-1.2,10.2-2.8,15-4.6c5.7-2.2,11.4-4.9,16.8-8c2-1.2,3.7-2.3,5.3-3.3
	c3.4-2.3,6.8-4.8,10.1-7.4C333.6,199.3,345.5,183,352.8,164.5L352.8,164.5z"/>
<path class="st2" d="M244.4,242.9c-43.7,0-84.3-23.2-106.2-60.9c-16.5-28.2-20.9-60.9-12.6-92.3c8.3-31.3,28.4-57.4,56.5-73.6
	C193.2,9.8,205,5.2,217.2,2.6c1.4-0.3,2.8-0.6,4.3-0.8c3.8-0.7,7.6-1.2,11.4-1.5c8.7-0.7,17.6-0.5,26.3,0.7
	c8.6,1.1,17.2,3.2,25.4,6.2c2.7,1,5.3,2,7.8,3.1c3.9,1.7,7.6,3.6,11.2,5.6C322.4,26.5,338.1,42,349,60.7
	c18.9,32.3,22,70.8,8.3,105.5c-7.6,19.2-20.1,36.3-36.1,49.3c-3.4,2.8-7,5.4-10.6,7.7c-1.6,1.1-3.4,2.2-5.5,3.4
	c-5.6,3.2-11.5,6-17.5,8.3c-5,1.9-10.3,3.6-15.6,4.8c-6.3,1.5-12.7,2.5-19.2,2.9c-2.3,0.2-4.7,0.3-7,0.3
	C245.3,242.9,244.8,242.9,244.4,242.9L244.4,242.9z M352.2,164.3c13.1-33.1,10.2-69.8-8-100.7c-10.4-17.8-25.4-32.7-43.4-42.8
	c-3.3-2-7-3.8-10.7-5.4c-2.4-1-4.9-2-7.4-2.9c-7.8-2.8-16-4.8-24.3-5.9c-8.4-1.1-16.8-1.4-25.2-0.7c-3.6,0.3-7.3,0.7-10.9,1.4
	c-1.4,0.2-2.7,0.5-4,0.8c-11.7,2.5-23,6.8-33.5,12.9c-26.9,15.4-46.1,40.3-54,70.2c-8,29.9-3.7,61.2,12,88.1
	c21.1,36,59.9,58.2,101.6,58.2c0.4,0,0.9,0,1.3,0c2.2-0.1,4.5-0.2,6.7-0.3c6.2-0.5,12.3-1.4,18.3-2.8c5.1-1.2,10.1-2.8,14.9-4.6
	c5.7-2.2,11.3-4.8,16.7-7.9c2-1.1,3.7-2.2,5.3-3.2c3.5-2.2,6.9-4.7,10.1-7.3C333.1,198.9,345,182.7,352.2,164.3L352.2,164.3z"/>
<path class="st2" d="M340.1,191.9l7-10.8c0,0,8.6-18.4,14-38.3s-1.3-48-1.3-48C335.3,35,294.2,22,254.2,26.6
	c-54.9,6.3-102.1,59.6-91.6,115.9C178.1,225.2,276.8,248.4,340.1,191.9L340.1,191.9z"/>
<path class="st7" d="M162.6,142.5c-3.3-17.4-1-34.4,5.2-50c17.2,83.4,99,119.8,173.7,97.2l-1.4,2.2
	C276.8,248.4,178.1,225.2,162.6,142.5L162.6,142.5z"/>
<path class="st2" d="M260.8,237.4c-23.9,0-47.1-6.8-66.2-19.5c-24.8-16.6-40.9-41.7-46.7-72.7c-5.3-28.5,2-58,20.5-83.1
	c20.3-27.5,51.9-46.2,84.5-49.9c18.2-2,35.1-0.7,50,4.1l0.4,0.2c18.8,10.6,34.4,26,45.3,44.6c18.8,32.2,21.8,70.5,8.2,105.1
	c-7.5,19.2-19.9,36.1-35.9,49.1c-3.4,2.7-6.9,5.3-10.5,7.6c-1.6,1.1-3.4,2.2-5.5,3.4c-5.6,3.2-11.5,6-17.5,8.3l-0.3,0.1
	C278.3,236.5,269.5,237.4,260.8,237.4L260.8,237.4z M286,230.2c5.7-2.1,11.3-4.8,16.6-7.8c2-1.2,3.7-2.3,5.3-3.3
	c3.4-2.3,6.8-4.8,10.1-7.4c15.4-12.4,27.4-28.8,34.6-47.2c13.1-33.3,10.2-70.1-7.9-101.1c-10.5-17.9-25.5-32.7-43.4-42.9
	c-14.3-4.5-30.4-5.8-47.9-3.8c-31.3,3.6-61.7,21.6-81.3,48.1c-17.8,24.1-24.8,52.3-19.7,79.5c5.6,29.8,21.1,53.9,44.8,69.8
	C222.2,230.8,254.5,236.7,286,230.2L286,230.2z"/>
<path class="st0" d="M109.4,143.6c-0.4-5.4,0-10.5,1.1-15.2c3.4-15.9,14-27.4,27.3-27.5c17.1-0.1,32.2,18.4,33.8,41.6
	c0,0.1,0,0.3,0,0.4c1.5,23.4-11.2,42.5-28.4,42.7S110.9,167,109.4,143.6L109.4,143.6z"/>
<g class="st1">
	<path class="st2" d="M109.4,143.6c-0.4-5.4,0-10.5,1.2-15c18.1,0.9,32,1.8,32,1.8s13.4,14.9,20.5,16.2c4,0.7,6.8-1.7,8.5-4.1
		c0,0.1,0,0.3,0,0.4c1.5,23.4-11.2,42.5-28.4,42.7S110.9,167,109.4,143.6L109.4,143.6z"/>
</g>
<path class="st2" d="M142.9,188.3c-18.4,0-34.7-19.9-36.3-44.5c-0.9-14.4,3.2-27.6,11.3-36.3c5.5-5.9,12.4-9.1,19.8-9.2
	c0.1,0,0.2,0,0.3,0c18.5,0,34.7,19.9,36.3,44.5c0.9,14.4-3.2,27.6-11.3,36.3c-5.5,5.9-12.4,9.1-19.8,9.2
	C143.1,188.3,143,188.3,142.9,188.3L142.9,188.3z M137.8,103.6c-5.9,0.1-11.4,2.7-15.9,7.5c-6.9,7.5-10.6,19.6-9.8,32.3
	c1.4,21.8,15.2,39.4,30.8,39.4c0.1,0,0.1,0,0.2,0c5.9-0.1,11.4-2.7,15.9-7.5c6.9-7.5,10.6-19.6,9.8-32.3
	c-1.4-21.8-15.2-39.4-30.8-39.4C137.9,103.6,137.9,103.6,137.8,103.6z"/>
<ellipse transform="matrix(0.9872 -0.1594 0.1594 0.9872 -21.8094 22.7182)" class="st0" cx="130.7" cy="147.3" rx="25.2" ry="33.7"/>
<path class="st2" d="M133.1,181.2c-2.2,0-4.4-0.4-6.6-1.2c-7.9-2.6-14.6-9.6-18.4-19.2c-6.8-17.1-2.2-37.1,10.2-44.5
	c5.2-3,10.9-3.6,16.7-1.7c7.9,2.6,14.6,9.6,18.4,19.2c6.8,17.1,2.2,37.1-10.2,44.5C140,180.2,136.6,181.2,133.1,181.2L133.1,181.2z
	 M128.3,114.1c-3.4,0-6.7,0.9-9.8,2.8c-12.2,7.3-16.6,27-9.9,43.8c3.7,9.4,10.3,16.3,18,18.9c5.6,1.9,11.2,1.3,16.2-1.7
	c12.2-7.3,16.6-27,9.9-43.8c-3.7-9.4-10.3-16.3-18-18.9C132.6,114.5,130.4,114.1,128.3,114.1L128.3,114.1z"/>
<g class="st1">
	<path class="st2" d="M155.5,160.2c-3,16-15.9,23.6-29.1,17S105,152.4,108,136.4c0.1-1,0.4-1.9,0.6-2.8c3,9.5,9.1,17.8,17.1,21.8
		c12.4,6.2,24.6-0.1,28.5-14.2C156.1,147.3,156.7,153.9,155.5,160.2L155.5,160.2z"/>
</g>
<path class="st2" d="M132.8,183.7c-14.3,0-27.1-16.6-28.6-37.1l0,0c-0.8-12.1,2.6-23.6,9.1-30.6c4.2-4.4,9.3-6.8,14.8-6.8h0.1
	c14.3,0,27.1,16.6,28.5,37c0.8,12.2-2.6,23.6-9.1,30.6C143.4,181.3,138.3,183.7,132.8,183.7L132.8,183.7L132.8,183.7z M128.2,114.7
	c-4,0-7.7,1.8-10.8,5.1c-5.5,6-8.3,15.9-7.6,26.6c1.1,17.6,11.5,31.9,23,31.9l0,0c4,0,7.7-1.8,10.8-5.1c5.5-6,8.3-15.9,7.6-26.6
	C150.1,129,139.7,114.7,128.2,114.7L128.2,114.7z M107,146.5L107,146.5L107,146.5z"/>
<g class="st6">
	<path class="st0" d="M231.3,55.9c-2-2,32.7-21.4,72.9-6.7c21.5,7.9,32.9,28.1,38.8,43.9c1.9,5.2,3.2,9.9,4.1,13.6l0,0
		c0.1,0.4,0.1,0.8,0.2,1.2c0.3,1.8,0.5,3.6,0.7,5.3c1.7,17.6-3.8,30.9-14.7,43.2c0,0,2.9-10.3,0.7-31.4c-0.8-6.9-1.9-14.7-5.8-25.3
		c-2.9-8-7.9-15.1-14.5-20.5l-0.1-0.1C282.3,53.3,231.3,55.9,231.3,55.9L231.3,55.9z"/>
</g>
<g class="st6">
	
		<ellipse transform="matrix(0.1471 -0.9891 0.9891 0.1471 61.4516 295.6788)" class="st0" cx="202.2" cy="112.2" rx="18.5" ry="16"/>
</g>
<g class="st6">
	<ellipse transform="matrix(0.2343 -0.9722 0.9722 0.2343 9.474 302.6564)" class="st0" cx="196.9" cy="145.3" rx="7.6" ry="6.6"/>
</g>
<path class="st0" d="M214.2,301.1c0.8,10.9-1.2,18.7-1.2,18.7c-30.6,2.2-50.8-6.9-50.8-6.9c-4.6-12.2,1.6-19.3,1.6-19.3
	C179,300.6,214.2,301.1,214.2,301.1L214.2,301.1z"/>
<g class="st1">
	<path class="st2" d="M213.2,311.8l-0.1,8c0,0-9.6,0.4-23.5-0.4c-13.9-0.8-22.3-4.7-22.3-4.7c-3.7-8.5,0.7-19.5,0.7-19.5l10.1,2.5
		c0,0-0.7,9.2,6.9,11.8C192.6,312.1,213.2,311.8,213.2,311.8L213.2,311.8z"/>
</g>
<path class="st2" d="M203.4,322.9c-25.3-0.1-41.5-7.2-42.4-7.6c-0.6-0.3-1.1-0.8-1.4-1.5c-5.1-13.5,1.8-21.7,2.1-22
	c0.8-0.9,2.1-1.2,3.2-0.7c14.5,6.7,48.9,7.3,49.3,7.3c1.4,0,2.6,1.1,2.7,2.5c0.8,11.3-1.2,19.3-1.3,19.6c-0.3,1.1-1.2,1.9-2.4,2
	C209.8,322.8,206.5,322.9,203.4,322.9L203.4,322.9z M210.7,317.2c0.5-2.5,1.1-7.4,0.8-13.4c-8-0.3-32.8-1.5-46.7-6.8
	c-1.2,2.3-2.7,7-0.5,13.8C168.7,312.5,186.1,318.6,210.7,317.2L210.7,317.2z"/>
<path class="st0" d="M317.9,269.7c0,0,20.5-13.2,27-4.3s5.8,25.5-11.7,26.8s-13.6-6-13.6-6s-5.1,1.2-7.3,0.8
	c-2.2-0.4-9.3-15.7-2.8-19.8S317.9,269.7,317.9,269.7L317.9,269.7z"/>
<path class="st2" d="M329.4,295.1c-6.2,0-10.1-1.4-12-4.1c-0.3-0.5-0.6-1-0.7-1.5c-1.7,0.3-3.6,0.4-4.9,0.2
	c-3.7-0.7-6.6-8.9-7.3-12.5c-1.2-5.8,0.1-10.1,3.5-12.3c2.8-1.8,5.5-2.2,7.8-1.3c1.4,0.5,2.4,1.4,3.1,2.3c6.3-3.6,21.7-11,28.2-2.1
	c4.5,6.2,5.6,14.7,2.6,21.1c-2.7,5.9-8.5,9.4-16.3,10C332,295.1,330.6,295.1,329.4,295.1L329.4,295.1z M337.8,265
	c-6,0-14.9,4.7-18.4,7.2c-0.7,0.4-1.6,0.5-2.4,0.2c-0.8-0.3-1.5-1-1.7-1.8c-0.1-0.5-0.7-1.5-1.4-1.8c-0.6-0.3-1.7,0-2.9,0.8
	c-0.3,0.1-1.2,0.7-1.4,3c-0.3,4.4,2.5,10.3,3.7,11.8c1.3,0,3.8-0.3,5.7-0.8c1-0.2,2.2,0.1,2.8,1c0.6,0.8,0.7,1.9,0.2,2.9
	c0,0-0.1,0.4,0,0.6c0.1,0,1.6,2.1,11,1.4c5.9-0.5,9.9-2.8,11.8-6.9c2.1-4.6,1.3-11-2.1-15.6C341.6,265.6,339.9,265,337.8,265
	L337.8,265z M313.5,284.6L313.5,284.6z"/>
<path class="st2" d="M319.6,288.9c-0.1,0-0.3-0.1-0.5-0.1c-1.5-0.2-2.5-1.6-2.3-3.1c1.4-8.9-1.3-14.7-1.4-14.8
	c-0.7-1.3-0.2-2.9,1.2-3.6s3-0.1,3.7,1.2c0.2,0.3,3.7,7.3,2,18.1C322.1,287.9,320.9,288.9,319.6,288.9L319.6,288.9z"/>
<path class="st0" d="M347.9,273.7c-52.8,15.7-96.3,53.9-96.3,53.9s-17.6,2.8-60.8,2.8S131.5,298,131.5,298v-21.1
	c-73,2.7-96.5,32-96.5,32C13.2,362.7,28.1,431,28.1,431c55.4,33.6,204.1,65.1,302.7,44.8s175.3-74.2,129.5-131.2
	S347.9,273.7,347.9,273.7L347.9,273.7z"/>
<path class="st5" d="M392.3,290.4c-20.7-10-44.2-16.7-44.2-16.7s-13.3,2.4-40.5,16.7c-27.2,14.3-55.9,37.2-55.9,37.2
	c37.9,4,63.2,12.4,78.7,4.4S392.3,290.4,392.3,290.4L392.3,290.4z"/>
<g class="st6">
	<path class="st0" d="M390.2,291.8c0,0-1.3-3-12.7-8.2s-29.7-9.9-29.7-9.9c-54.9,18.6-91.9,50.5-91.9,50.5v3.9l3.3,0.4
		c38.1-29.5,86.9-46.7,89.5-47.1s36.6,14,36.6,14L390.2,291.8z"/>
</g>
<g class="st1">
	<path class="st2" d="M28.1,378.4c0,0-2.6-12.2-4-30.3c-3.4,39.1,4.1,73.4,4.1,73.4c55.4,33.6,204.1,65.1,302.7,44.8
		c91.2-18.7,163.8-66.3,137.7-118.5c-17.1,34-72.6,62-137.8,75.4C232.2,443.5,83.5,412,28.1,378.4L28.1,378.4z"/>
</g>
<path class="st2" d="M260.2,485c-30.3,0-63.3-2.9-97.4-8.7c-55.8-9.5-108-25.9-136.1-43c-0.6-0.4-1-1.1-1.2-1.8
	c-0.6-2.8-14.8-69.7,7.1-123.7c0.1-0.3,0.2-0.5,0.4-0.7c1-1.2,25.1-30.3,98.5-33c0.8,0,1.5,0.3,2,0.8s0.8,1.3,0.8,2v20.4
	c2.4,4.3,19,30.4,56.6,30.4s55.8-2.2,59.6-2.7c5.5-4.7,47.4-39.2,96.7-53.9c0.4-0.2,0.9-0.2,1.3-0.1c0.6,0.1,68.1,14.7,114,71.9
	c13.8,17.2,17.5,34.9,11.2,52.5c-6.5,18.1-23.9,35.6-50.5,50.6c-24.9,14-56.7,25.3-91.8,32.5C310.4,482.9,286.3,485,260.2,485
	L260.2,485z M348,276.5c-51.3,15.5-94.2,52.7-94.6,53.2c-0.4,0.3-0.9,0.5-1.4,0.6c-0.7,0.1-16.9,2.8-61.2,2.8s-61-32.5-61.7-33.9
	c-0.2-0.4-0.3-0.8-0.3-1.2v-18.2c-64.8,3.1-88.9,27.8-91.4,30.6c-19.6,48.7-8.7,109.9-6.9,119c27.8,16.5,78.7,32.4,133.2,41.6
	c62.8,10.6,122,11.4,166.6,2.2c71.9-14.8,126.2-46,138.3-79.6c5.6-15.8,2.2-31.6-10.4-47.3C416,293.7,355,278.1,348,276.5L348,276.5
	z"/>
<path class="st2" d="M313.5,338c-8.8,0-19.2-1.6-31.6-3.4c-9.1-1.4-19.4-3-30.7-4.2c-1.5-0.2-2.6-1.5-2.4-3s1.5-2.6,3-2.4
	c11.5,1.2,21.9,2.8,31,4.2c20.9,3.2,36.1,5.6,46.2,0.4c15.2-7.8,61.1-41.1,61.6-41.4c1.2-0.9,2.9-0.6,3.8,0.6
	c0.9,1.2,0.6,2.9-0.6,3.8c-1.9,1.4-46.7,33.8-62.3,41.8C326.4,337,320.4,338,313.5,338L313.5,338z"/>
<path class="st8" d="M113.3,416.7c0.3-0.4,0.6-0.7,1-1.1C113.9,415.9,113.6,416.3,113.3,416.7z"/>
<path class="st0" d="M106.2,433.7L106.2,433.7L106.2,433.7z"/>
<path class="st0" d="M113.2,416.6c-9.6,10.4-7.5,16.8-7.1,17.1c0.1,0,0.1,0,0.1,0S103.1,427.5,113.2,416.6L113.2,416.6z"/>
<path class="st0" d="M113.2,416.6c-10.1,11-7,17.1-7,17.1c46.8,4.9,118.8,2.5,132.7-9.4c18.2-15.6,0-41.2,0-41.2
	c-18.1-3.8-40.3-6.2-59.3-7.7c-7.2,3.9-54.9,29.4-65.4,40.1C113.9,415.9,113.5,416.2,113.2,416.6L113.2,416.6z"/>
<path class="st5" d="M78.2,407.8c-3.4,2.7-13.3,9.4-5.7,19.4c7.2,2.8,19.3,5,33.7,6.5c-0.6-0.4-2.7-6.7,7-17.1
	c0.3-0.4,0.6-0.7,1-1.1c10.5-10.7,58.2-36.3,65.4-40.1c-23.2-1.8-41.6-2.3-41.6-2.3S81.7,405.1,78.2,407.8L78.2,407.8z"/>
<g class="st6">
	<polygon class="st0" points="165.7,384.1 129.6,378 123.8,381.2 159.8,388.1 148.7,393.7 111.7,385.7 104.6,390.8 140.6,398.9 	"/>
</g>
<g class="st1">
	<path class="st2" d="M247.1,405.8c1.7,4-0.5,14-8.1,18.6s-26.6,12.2-85.2,11.8c-58.5-0.5-81.3-9-81.3-9s-3.2-3.9-2.6-9
		c0.6-5,7.1-9.4,7.1-9.4s72.4,15.4,112.1,13S247.1,405.8,247.1,405.8L247.1,405.8z"/>
</g>
<path class="st2" d="M156.8,438.9c-31.4-0.1-69-2.8-85.3-9.2c-0.5-0.2-0.9-0.5-1.2-0.9c-2.6-3.5-3.7-7-3.2-10.5
	c0.9-6.1,6.2-10.1,9-12.2l0.5-0.4c3.5-2.7,54.3-31.6,60.1-34.9c0.4-0.3,0.9-0.4,1.4-0.4c0.6,0.1,61.5,1.7,101.4,10.1
	c0.7,0.1,1.3,0.5,1.7,1.1c6.8,9.6,15.5,31.3-0.4,44.9c-12.9,11.1-64.7,12.3-80.3,12.4C159.3,438.9,158,438.9,156.8,438.9
	L156.8,438.9z M237.3,385.6c-37-7.6-91.5-9.5-98.6-9.7c-22.6,12.9-56.4,32.2-58.8,34.1l-0.6,0.4c-2.3,1.6-6.4,4.8-6.9,8.6
	c-0.2,1.9,0.4,3.8,1.8,5.9c31.2,11.4,145.9,12.1,163-2.6C251.7,409.8,240.2,390,237.3,385.6L237.3,385.6z"/>
<path class="st2" d="M103.8,435c-0.4-0.9-3.9-8.7,8.4-21.2c11.5-11.8,64.2-39.4,66.4-40.6c1.4-0.8,3-0.2,3.7,1.1
	c0.8,1.4,0.2,3-1.1,3.7c-0.6,0.2-54.1,28.3-65.1,39.5c-9.6,9.7-7.5,15.1-7.5,15.1v-0.1L103.8,435L103.8,435z"/>
<path class="st2" d="M88,433.9c-1.4,0-2.6-1.1-2.8-2.5c0-0.4-0.6-10.5,13.2-23.1c13.1-11.9,54.3-35.7,56.1-36.7
	c1.3-0.8,2.9-0.3,3.7,1c0.8,1.3,0.3,2.9-1,3.7c-0.4,0.2-42.5,24.5-55.1,36C90.5,423,90.7,431,90.7,431c0.1,1.5-1,2.8-2.5,2.9
	C88.1,433.9,88.1,433.9,88,433.9L88,433.9z"/>
</svg>
