<?xml version="1.0" encoding="UTF-8"?><svg id="Layer_1" xmlns="http://www.w3.org/2000/svg" viewBox="0 0 1000 1229.07"><defs><style>.cls-1{opacity:.7;}.cls-2{fill:#ffde52;}.cls-2,.cls-3,.cls-4,.cls-5,.cls-6,.cls-7,.cls-8,.cls-9,.cls-10,.cls-11,.cls-12,.cls-13,.cls-14{stroke-width:0px;}.cls-15{opacity:.5;}.cls-3{fill:#febc04;}.cls-16{opacity:.35;}.cls-4{fill:#ff0068;}.cls-5{fill:#371a45;}.cls-6{fill:#db2c2c;}.cls-7{fill:#fff;}.cls-17{opacity:.3;}.cls-8{fill:#e2e2e2;}.cls-9{fill:#2e83ff;}.cls-10{fill:#22a7f0;}.cls-11{fill:#111a28;}.cls-12{fill:#99a4c4;}.cls-13{fill:#d8d8d8;}.cls-14{fill:#f2a83d;}</style></defs><rect class="cls-7" x="304.75" y="476.36" width="543.71" height="466.41" rx="107.25" ry="107.25"/><path class="cls-5" d="M804.04,952.94h-454.86c-30.11,0-54.6-24.5-54.6-54.6v-377.56c0-30.11,24.49-54.6,54.6-54.6h454.86c30.11,0,54.6,24.49,54.6,54.6v377.56c0,30.11-24.49,54.6-54.6,54.6ZM349.17,486.53c-18.88,0-34.25,15.36-34.25,34.25v377.56c0,18.88,15.36,34.25,34.25,34.25h454.86c18.88,0,34.25-15.36,34.25-34.25v-377.56c0-18.88-15.36-34.25-34.25-34.25h-454.86Z"/><path class="cls-7" d="M839.43,1191.61c-63.39,20.35-203.47-32.87-203.47-32.87,0,0-12.11,38.34-50.66,54-38.55,15.66-97.24,7.82-108.98-54.77,0,0-172.93,49.3-214.41-57.92-14.53-37.54-7.84-74.42,7.02-106.49,17.98-38.97,47.99-70.83,66.56-88.18,10.52-9.81,16.41-23.57,16.41-37.94v-35.61l450.05,46.39s33.71,38.1,65.08,84.07v.02c16.11,23.57,31.58,49.18,41.55,72.78,29.46,69.66-5.75,136.17-69.14,156.52Z"/><path class="cls-5" d="M549.78,1229.07c-15.27,0-30.09-3.44-42.57-10.25-18.55-10.13-31.5-27.1-37.84-49.42-15.67,3.64-48.67,10.03-84.91,9.2-67.46-1.5-112.87-27.49-131.31-75.16-34.36-88.82,41.66-172.9,75.93-204.93,8.54-7.97,13.43-19.3,13.43-31.06v-35.62c0-5.19,4.2-9.39,9.39-9.39s9.39,4.2,9.39,9.39v35.62c0,16.95-7.07,33.28-19.39,44.79-31.49,29.42-101.46,106.29-71.24,184.42,37.95,98.08,201.44,52.74,203.09,52.27,2.54-.72,5.27-.35,7.51,1.04,2.25,1.39,3.8,3.66,4.29,6.26,4.07,21.7,14.38,37.21,30.65,46.1,21.93,11.98,48.25,8.74,65.55,1.71,33.78-13.72,45.15-47.82,45.26-48.16.79-2.45,2.56-4.48,4.88-5.59,2.32-1.11,5-1.24,7.4-.33,1.15.44,98.27,36.96,164.39,36.97,12.31,0,23.53-1.26,32.87-4.26,29.2-9.37,51.96-29.08,64.07-55.49,12.31-26.84,12.06-58.24-.71-88.42-28.52-67.41-104.25-153.46-105.01-154.32-3.44-3.89-3.07-9.82.81-13.26,3.88-3.43,9.82-3.07,13.25.81,3.19,3.61,78.52,89.2,108.24,159.45,14.85,35.09,15.02,71.87.49,103.56-14.34,31.26-41.12,54.54-75.4,65.55-57.19,18.35-169.07-18.52-201.1-29.9-6.41,13.47-21.85,38.4-52.37,50.79-12.54,5.09-25.96,7.62-39.06,7.62Z"/><path class="cls-5" d="M709.43,1191.05c-2.02,0-4.05-.65-5.77-1.99-4.09-3.19-4.82-9.09-1.63-13.18,36.5-46.8,44.89-110,46.73-131.19-78.49-22.06-130.75-36.01-147.78-40.51l-27.75,36.5c-3.14,4.13-9.03,4.93-13.16,1.79-4.13-3.14-4.93-9.03-1.79-13.16l31.55-41.5c2.29-3.02,6.17-4.37,9.85-3.4.59.15,60.46,15.8,161.51,44.26,4.15,1.17,6.97,5.01,6.84,9.32-.11,3.56-3.18,87.88-51.18,149.44-1.85,2.37-4.62,3.62-7.41,3.62Z"/><path class="cls-5" d="M762.07,1028.98l47.62,28.82-54.5-11.34c-5.15-1.07-8.46-6.12-7.39-11.27,1.07-5.15,6.12-8.46,11.27-7.39,1.07.22,2.1.64,2.99,1.18Z"/><path class="cls-7" d="M990.46,702.52c-1.03,18.71-5.07,35.38-11.13,50.1-2.16,5.24-4.55,10.24-7.18,15l-684.86-38.03-83.98-31.18c-4.67-17.54-6.15-37.61-2.44-60.34,18.01-110.6,174.9-136.19,174.9-136.19l341.54,20.8c50.64-5.54,130.79,15.38,191.22,54.37t.05.02c48.76,31.48,84.68,74.75,81.89,125.44Z"/><path class="cls-5" d="M972.77,768.76l-.69-.04-685.03-38.04-.15-.06-84.51-31.37-.15-.55c-5.1-19.13-5.93-39.59-2.46-60.79,9.38-57.6,56.73-91.81,94.8-110.38,41.14-20.06,80.61-26.65,81-26.72l.12-.02h.12s341.54,20.81,341.54,20.81c52.95-5.81,133.53,17.06,191.51,54.39h0l.27.17c55.64,35.92,84.9,80.82,82.39,126.42-.98,17.79-4.75,34.77-11.21,50.45-2.16,5.25-4.6,10.33-7.24,15.12l-.33.6ZM287.51,728.51l684.01,37.99c2.47-4.54,4.76-9.34,6.8-14.29,6.36-15.46,10.08-32.2,11.05-49.74l1.09.06-1.09-.06c2.46-44.7-26.34-88.83-81.12-124.28h-.13l-.27-.25c-57.61-37.15-137.68-59.93-190.42-54.15l-341.6-20.79c-2.42.41-40.58,7.14-80.32,26.53-37.59,18.34-84.33,52.09-93.56,108.74-3.38,20.7-2.61,40.66,2.28,59.33l83.29,30.92Z"/><g class="cls-17"><path class="cls-5" d="M471.51,581.85s190.94,142.22,347.52-45.81l-38.28-14.23"/></g><path class="cls-5" d="M363.02,674.14c2.45-8.35,5.06-16.34,7.8-24.41,2.75-8.04,5.64-16.01,8.68-23.92,3.06-7.91,6.31-15.73,9.72-23.46,3.48-7.71,7.18-15.31,11.19-22.7-5.17,16.01-8.84,32.32-11.88,48.72-1.49,8.21-2.84,16.43-4.02,24.67-1.17,8.21-2.25,16.55-3.05,24.63v.06c-.52,5.18-5.14,8.97-10.32,8.46-5.19-.51-8.97-5.13-8.46-10.32.06-.58.18-1.19.34-1.73Z"/><path class="cls-5" d="M785.6,677.67c-.8-8.08-1.87-16.42-3.05-24.63-1.19-8.24-2.53-16.46-4.02-24.67-3.04-16.4-6.71-32.71-11.88-48.72,4.01,7.39,7.72,14.98,11.19,22.7,3.42,7.73,6.67,15.56,9.72,23.46,3.04,7.91,5.93,15.89,8.68,23.92,2.75,8.07,5.35,16.06,7.8,24.41,1.47,5-1.4,10.24-6.4,11.71-5,1.47-10.24-1.4-11.71-6.4-.16-.56-.27-1.12-.33-1.67v-.11Z"/><path class="cls-5" d="M732.54,694.48c-.27,0-.54-.01-.81-.03-5.17-.44-9-4.99-8.55-10.16,2.39-27.88-13.84-32.65-18.27-33.42h-230.51c-19.56,1.9-19.97,29.37-19.98,30.55-.03,5.16-4.23,9.34-9.39,9.34h-.03c-5.17-.02-9.36-4.2-9.36-9.37,0-15.99,7.86-46.86,37.59-49.27.25-.02.51-.03.76-.03h231.64c.36,0,.72.02,1.07.06,13.63,1.57,38.54,14.83,35.2,53.75-.42,4.89-4.52,8.59-9.35,8.59Z"/><path class="cls-5" d="M972.14,777.02c-1.53,0-3.08-.37-4.52-1.16-4.54-2.5-6.2-8.21-3.7-12.75,10.17-18.49,15.94-39.05,17.16-61.1,1.73-31.24-12.45-61.35-42.13-89.48-59.2-56.1-161.88-86.91-220.63-80.5-5.18.56-9.79-3.16-10.36-8.31-.56-5.16,3.16-9.79,8.31-10.36,62.94-6.88,172.61,25.85,235.59,85.54,33.39,31.65,49.98,67.66,47.96,104.15-1.38,24.89-7.93,48.13-19.46,69.11-1.71,3.11-4.92,4.87-8.24,4.87Z"/><path class="cls-9" d="M794.83,641.48v284.07s-98.74,27.77-166.78,70.29l-1.48.92c-2.07,2.18-4.3,4.04-6.64,5.61-15.4,10.4-35.68,8.17-45.78-5.61-59.68-33.1-121.05-57.12-184.29-70.83l-2.02-39.56-.23-4.67-2.28-44.86-9.56-187.53s117.31,17.3,184.86,53.97c2.84,1.53,5.59,3.12,8.24,4.72h53.41s71.91-46.25,154.41-63.27c6.01-1.24,12.07-2.35,18.15-3.24Z"/><g class="cls-15"><path class="cls-7" d="M776.68,646.79c-82.5,17.02-154.41,63.27-154.41,63.27h-53.41c-2.65-1.6-5.4-3.19-8.24-4.72-67.54-36.67-184.86-53.97-184.86-53.97l.86,16.94c14.01,2.18,120.3,19.53,183.3,53.74,2.84,1.53,5.59,3.12,8.24,4.72h53.41s71.91-46.25,154.41-63.27c6.01-1.24,12.07-2.35,18.15-3.24v267.57c.45-.13.69-.2.69-.2v-284.07c-6.08.89-12.14,2-18.15,3.24Z"/></g><path class="cls-12" d="M756.58,812.67c-.19,1.78-.5,3.56-.91,5.32-.94,4.06-2.46,8.05-4.58,11.88-12.26,22.06-40.08,30.01-62.14,17.75-17.57-9.76-26.18-29.39-22.78-48.12.87-4.79,2.53-9.53,5.03-14.02,1.17-2.09,2.47-4.06,3.9-5.9,3.35-4.31,7.37-7.89,11.83-10.67,1.02-.64,2.07-1.24,3.14-1.79,5.74-2.98,12.07-4.72,18.54-5.08.06,0,.12,0,.17,0,.4-.02.79-.04,1.19-.05.79-.02,1.58-.02,2.37,0,5.37.14,10.76,1.22,15.95,3.33,1.71.69,3.4,1.5,5.06,2.42.36.2.71.4,1.06.61.21.12.42.25.63.38,2.52,1.54,4.84,3.29,6.96,5.22,10.85,9.89,16.17,24.39,14.6,38.72Z"/><path class="cls-2" d="M756.58,812.67c-.19,1.78-.5,3.56-.91,5.32-.94,4.06-2.46,8.05-4.58,11.88-12.26,22.06-40.08,30.01-62.14,17.75-17.57-9.76-26.18-29.39-22.78-48.12.87-4.79,2.53-9.53,5.03-14.02,1.17-2.09,2.47-4.06,3.9-5.9,3.35-4.31,7.37-7.89,11.83-10.67,1.02-.64,2.07-1.24,3.14-1.79,5.74-2.98,12.07-4.72,18.54-5.08.06,0,.12,0,.17,0,.4-.02.79-.04,1.19-.05.79-.02,1.58-.02,2.37,0,5.37.14,10.76,1.22,15.95,3.33,1.71.69,3.4,1.5,5.06,2.42.36.2.71.4,1.06.61.21.12.42.25.63.38,2.52,1.54,4.84,3.29,6.96,5.22,10.85,9.89,16.17,24.39,14.6,38.72Z"/><path class="cls-14" d="M752.42,819.7c-.86,2.75-2.02,5.46-3.48,8.09-11.6,20.87-37.92,28.39-58.8,16.79-10.09-5.6-17.05-14.65-20.25-24.85,4.04,4.58,8.91,8.56,14.55,11.69,23.03,12.8,51.27,7.3,67.97-11.72Z"/><path class="cls-14" d="M696.58,772.01c-3.07.13-5.49,2.35-5.41,4.97s2.64,4.64,5.71,4.52c3.07-.13,5.49-2.35,5.41-4.97-.08-2.62-2.64-4.64-5.71-4.52Z"/><path class="cls-2" d="M696.51,775.3c-2.11.93-3.18,3.04-2.38,4.73.8,1.69,3.16,2.3,5.28,1.38,2.11-.93,3.18-3.04,2.38-4.73-.8-1.69-3.16-2.3-5.28-1.38Z"/><g class="cls-1"><path class="cls-7" d="M667.43,802.14c.87-4.79,2.53-9.53,5.03-14.02,1.17-2.09,2.47-4.06,3.9-5.9,3.35-4.31,7.37-7.89,11.83-10.67,1.02-.64,2.07-1.24,3.14-1.79,5.74-2.98,12.07-4.72,18.54-5.08.06,0,.12,0,.17,0,.4-.02.79-.04,1.19-.05.79-.02,1.58-.02,2.37,0,5.37.14,10.76,1.22,15.95,3.33,1.71.69,3.4,1.5,5.06,2.42.36.2.71.4,1.06.61.21.12.42.25.63.38,2.52,1.54,4.84,3.29,6.96,5.22,4.07,3.71,7.35,8.06,9.79,12.81-2.52-5.78-6.24-11.07-11.05-15.45-2.11-1.93-4.43-3.68-6.96-5.22-.21-.13-.41-.26-.63-.38-.35-.21-.7-.41-1.06-.61-1.65-.92-3.35-1.73-5.06-2.42-5.18-2.11-10.58-3.19-15.95-3.33-.79-.02-1.58-.02-2.37,0-.4,0-.79.03-1.19.05-.06,0-.11,0-.17,0-6.47.36-12.79,2.1-18.54,5.08-1.07.55-2.11,1.15-3.14,1.79-4.46,2.78-8.48,6.36-11.83,10.67-1.43,1.84-2.73,3.8-3.9,5.9-2.5,4.5-4.15,9.23-5.03,14.02-1.81,9.98-.22,20.21,4.33,29.08-3.58-8.22-4.72-17.43-3.08-26.43Z"/></g><path class="cls-5" d="M696.9,782.03c-2.41.36-5.28-.78-6.4-3.37-.56-1.27-.48-2.78.08-4.04.59-1.26,1.62-2.23,2.79-2.84,2.36-1.21,5.35-1.07,7.47.53,1.05.78,1.86,1.95,2.09,3.25.23,1.3-.12,2.65-.9,3.62-.08.11-.24.14-.36.05-.1-.07-.12-.22-.07-.32,1.08-2.02.23-4.43-1.56-5.46-1.74-1.09-4.11-1.13-5.89-.17-1.82.91-2.92,2.97-2.27,4.85.62,1.89,2.77,3.16,4.98,3.28.17,0,.31.16.3.33,0,.15-.13.28-.27.3Z"/><path class="cls-5" d="M704.63,772.77c.86,1,1.4,2.31,1.56,3.67.14,1.37-.17,2.78-.78,4.02-1.25,2.51-3.77,4.16-6.41,4.77-2.64.6-5.54.25-7.86-1.21-1.15-.72-2.17-1.67-2.86-2.83-.67-1.17-1.05-2.52-.97-3.83,0-.14.13-.25.27-.24.12,0,.22.1.24.22.31,2.44,1.94,4.43,4.02,5.48,2.07,1.06,4.54,1.31,6.79.76,2.24-.54,4.33-1.88,5.48-3.84,1.19-1.93,1.23-4.52.01-6.62-.09-.15-.04-.34.11-.43.13-.08.3-.04.4.07Z"/><path class="cls-5" d="M678.13,790.66c2.77.19,5.4,1.98,6.82,4.49,1.43,2.51,1.7,5.55,1.05,8.3-.7,2.74-2.22,5.27-4.41,7.03-2.16,1.77-4.98,2.79-7.7,2.51-.17-.02-.3-.17-.28-.35.02-.15.14-.27.28-.28,2.52-.3,4.82-1.48,6.56-3.17,1.72-1.71,3.03-3.86,3.51-6.22.56-2.32.38-4.82-.65-6.95-.99-2.13-2.92-3.84-5.32-4.58-.21-.06-.33-.29-.26-.5.06-.18.23-.29.41-.28Z"/><path class="cls-14" d="M668.66,800.36c-.81,4.02,1.39,7.88,4.92,8.62,3.53.74,7.05-1.92,7.86-5.95.81-4.02-1.39-7.88-4.92-8.62s-7.05,1.92-7.86,5.95Z"/><path class="cls-2" d="M674.93,808.5c2.32.03,4.69-1.55,5.9-4.21,1.61-3.54.58-7.65-2.31-9.18-.41-.22-.83-.37-1.26-.46-1.71.7-3.23,2.15-4.16,4.18-1.64,3.59-.8,7.72,1.84,9.67Z"/><path class="cls-5" d="M668.73,798.84c.56-1.45,1.58-2.73,2.89-3.67,1.33-.9,2.99-1.44,4.7-1.3.84.08,1.69.37,2.46.74.76.41,1.44.98,1.99,1.66,1.07,1.36,1.61,3.08,1.57,4.76-.11,3.35-2.13,6.52-5.18,7.84-1.51.64-3.26.84-4.83.33-1.56-.52-2.88-1.67-3.51-3.09-.08-.16,0-.35.15-.42.14-.07.31-.02.4.11,1.64,2.36,4.81,2.81,7.06,1.52,2.27-1.23,3.86-3.76,3.82-6.31,0-1.25-.33-2.51-1.07-3.48-.37-.48-.83-.88-1.35-1.18-.25-.18-.56-.23-.84-.34-.29-.1-.56-.24-.87-.27-2.48-.41-5.18,1.13-6.68,3.48-.12.18-.36.24-.55.12-.16-.1-.22-.3-.16-.48Z"/><path class="cls-5" d="M729.35,799.64c.7,3.54-.26,7.43-2.57,10.37-2.31,2.94-5.92,4.79-9.63,5.14-3.72.31-7.51-.76-10.48-2.94-1.47-1.1-2.75-2.44-3.77-3.94-.97-1.53-1.71-3.21-2.05-4.96-.03-.17.08-.34.25-.37.15-.03.31.06.36.2,1.21,3.19,3.42,5.88,6.19,7.65,2.78,1.73,6.08,2.66,9.3,2.27,3.21-.28,6.28-1.8,8.4-4.24,1.08-1.2,1.91-2.63,2.43-4.18.56-1.55.83-3.22.79-4.91,0-.22.17-.4.39-.4.19,0,.36.13.4.32Z"/><ellipse class="cls-14" cx="714.48" cy="800.02" rx="8.92" ry="9.16" transform="translate(-190.01 223.47) rotate(-15.72)"/><path class="cls-2" d="M706.62,802.85c.85,3.13,3.67,5.64,7.35,6.14,4.9.67,9.49-2.45,10.24-6.98.11-.64.13-1.27.08-1.89-1.49-2-3.84-3.43-6.65-3.82-4.98-.68-9.67,2.19-11.02,6.55Z"/><path class="cls-5" d="M715.95,790.61c2.05.21,4.03,1.16,5.61,2.57,1.55,1.45,2.68,3.39,3.09,5.53.13.53.12,1.08.12,1.63-.02.55.05,1.1-.09,1.64-.18,1.08-.54,2.15-1.11,3.1-1.12,1.91-2.93,3.43-5.05,4.11-4.23,1.4-9.12-.27-11.61-3.8-1.26-1.73-2-3.86-1.96-5.99.07-2.11.85-4.21,2.29-5.7.12-.13.32-.13.45-.01.12.11.13.29.04.42-2.25,3.13-1.82,7.5.54,10.22,2.27,2.79,6.26,4.08,9.57,2.87,1.64-.56,3.08-1.68,3.98-3.16.46-.73.75-1.56.92-2.42.12-.42.05-.87.08-1.3,0-.44.07-.88-.01-1.32-.45-3.54-3.34-6.68-7.01-7.63-.21-.05-.34-.27-.28-.48.05-.19.23-.31.42-.29Z"/><path class="cls-2" d="M705.39,825.93c5.57,2.27,9.68,6.05,11.2,10.29.9,2.51.92,5.11-.12,7.46-2.82,6.33-12.3,8.54-21.18,4.94-3.52-1.43-6.42-3.55-8.46-5.99-3.11-3.72-4.31-7.94-2.61-11.76.94-2.11,2.62-3.76,4.77-4.89,0,0,6.46-4.11,16.41-.05Z"/><path class="cls-5" d="M684.57,831.03c-1.56,4.16.51,8.55,3.46,11.56,2.96,3.1,6.95,5.18,11.14,6.15,4.16,1.01,8.72.81,12.47-1.12,1.86-.97,3.42-2.48,4.31-4.39.88-1.9,1.11-4.16.55-6.25-.05-.17.05-.34.22-.39.15-.04.32.04.38.18.91,2.18.86,4.69.06,6.97-.85,2.27-2.61,4.15-4.66,5.38-4.19,2.49-9.25,2.64-13.8,1.68-4.56-1.08-8.89-3.4-12.04-6.94-1.53-1.78-2.81-3.84-3.46-6.16-.61-2.31-.47-4.89.66-6.98.1-.19.34-.27.53-.17.18.09.25.31.19.49Z"/><ellipse class="cls-14" cx="700.34" cy="837.2" rx="9.58" ry="13.18" transform="translate(-288.13 1300.12) rotate(-75.18)"/><ellipse class="cls-2" cx="700.97" cy="840.06" rx="7.05" ry="11.17" transform="translate(-249.53 1381.91) rotate(-79.84)"/><path class="cls-5" d="M708.81,845.5c2.04-1.21,3.49-3.24,3.62-5.47.22-2.22-.79-4.43-2.24-6.16-2.95-3.51-7.63-5.58-12.21-5.68-2.28-.04-4.63.39-6.47,1.6-1.86,1.17-3.06,3.17-3.1,5.35-.07,2.2,1.04,4.39,2.53,6.17,1.5,1.82,3.51,3.21,5.68,4.28.16.07.23.26.15.42-.07.15-.24.21-.39.17-2.37-.82-4.6-2.15-6.42-3.97-1.76-1.84-3.19-4.26-3.28-7.04-.16-2.79,1.45-5.54,3.74-7.01,2.28-1.54,4.99-2.07,7.6-2.07,2.63.05,5.2.72,7.54,1.83,2.33,1.12,4.52,2.68,6.1,4.8,1.57,2.08,2.66,4.76,2.25,7.49-.41,2.72-2.36,4.99-4.72,5.99h-.01c-.2.09-.43,0-.52-.2-.08-.18,0-.39.16-.49Z"/><path class="cls-5" d="M711.19,761.97c.39,0,.77,0,1.15.01,5.36.14,10.77,1.22,15.95,3.33,1.71.69,3.4,1.5,5.06,2.42.36.2.71.4,1.06.61.21.12.42.25.62.38,15.47,9.46,23.43,26.83,21.56,43.95-.19,1.78-.5,3.56-.91,5.32-.94,4.06-2.46,8.06-4.58,11.88-8.35,15.03-23.93,23.51-39.99,23.51-7.51,0-15.12-1.85-22.15-5.76-17.56-9.76-26.18-29.39-22.77-48.12.87-4.79,2.53-9.53,5.03-14.02,3.9-7.02,9.37-12.6,15.73-16.57,1.02-.64,2.07-1.24,3.14-1.79,5.75-2.98,12.07-4.72,18.54-5.08.06,0,.11,0,.17-.01.4-.02.79-.04,1.19-.05.4-.01.81-.02,1.21-.02M711.19,756.43c-.45,0-.91,0-1.36.02-.44.01-.89.03-1.34.05h-.02s-.11,0-.11,0c-7.24.41-14.43,2.37-20.83,5.69-1.21.63-2.39,1.3-3.53,2.01-7.31,4.55-13.41,10.98-17.63,18.57-2.74,4.93-4.63,10.22-5.63,15.72-3.93,21.6,6.33,43.28,25.53,53.95,7.6,4.22,16.2,6.46,24.85,6.46,18.62,0,35.79-10.1,44.83-26.36,2.33-4.19,4.06-8.67,5.14-13.32.46-1.98.8-3.99,1.02-5.97,2.15-19.64-7.34-38.98-24.17-49.28-.21-.13-.46-.28-.71-.43-.36-.21-.75-.44-1.15-.66-1.84-1.03-3.75-1.94-5.69-2.72-5.7-2.32-11.72-3.57-17.88-3.73-.43-.01-.86-.02-1.29-.02h0Z"/><ellipse class="cls-14" cx="732.54" cy="778.97" rx="7.57" ry="10.42" transform="translate(-316.21 987.62) rotate(-58.01)"/><ellipse class="cls-2" cx="732.82" cy="776.8" rx="5.64" ry="8.94" transform="translate(-293.7 1071.24) rotate(-62.67)"/><path class="cls-5" d="M728.1,770.81c-1.8.47-3.31,1.65-3.88,3.26-.65,1.58-.4,3.43.3,5.04,1.39,3.26,4.4,5.88,7.78,7,1.68.56,3.51.78,5.13.31,1.62-.43,2.93-1.6,3.47-3.17.56-1.59.26-3.46-.42-5.14-.68-1.71-1.85-3.23-3.21-4.56-.13-.12-.13-.32-.01-.45.11-.12.29-.13.41-.04,1.63,1.15,3.02,2.68,4,4.49.92,1.82,1.47,4.01.88,6.2-.52,2.21-2.45,3.97-4.58,4.56-2.13.65-4.34.42-6.34-.2-2.01-.66-3.81-1.79-5.34-3.19-1.51-1.41-2.82-3.13-3.52-5.14-.7-1.97-.89-4.3.09-6.32.99-2,3.05-3.27,5.09-3.44h.01c.22-.02.41.14.43.36.02.19-.11.37-.29.41Z"/><path class="cls-2" d="M734.41,824.91c.67,1.71,1.92,3.02,3.46,3.83,2.8,1.46,6.04.75,8.99-1.41,1.94-1.42,3.68-3.51,4.92-6.09,3.14-6.53,1.92-13.79-2.72-16.21-1.73-.9-3.68-1.01-5.62-.45-3.27.94-6.32,3.86-8.29,7.96,0,0-3.32,5.8-.74,12.38Z"/><path class="cls-5" d="M738.06,828.39c2.64,1.1,5.5.2,7.71-1.41,2.24-1.62,4.03-3.87,5.16-6.43,1.24-2.51,1.8-5.34,1.64-8.1-.17-2.74-1.27-5.54-3.65-7.14-.15-.1-.19-.29-.09-.44.08-.13.25-.17.38-.12,1.45.59,2.66,1.74,3.52,3.06.84,1.35,1.33,2.9,1.57,4.45.45,3.14-.2,6.33-1.45,9.18-1.33,2.81-3.36,5.4-6.07,7.06-1.35.81-2.86,1.44-4.47,1.63-1.6.16-3.29-.16-4.61-1.04-.18-.12-.24-.36-.12-.55.1-.16.31-.22.48-.15Z"/><ellipse class="cls-14" cx="743.41" cy="816.88" rx="9.96" ry="7.24" transform="translate(-266.49 1264.15) rotate(-71.58)"/><ellipse class="cls-2" cx="745.49" cy="816.64" rx="8.55" ry="5.39" transform="translate(-224.98 1346.6) rotate(-76.25)"/><path class="cls-5" d="M749.98,810.92c-.84-1.56-2.28-2.68-3.9-2.85-1.6-.24-3.26.4-4.59,1.41-2.71,2.02-4.46,5.4-4.74,8.77-.14,1.68.06,3.42.85,4.82.76,1.4,2.12,2.34,3.69,2.5,1.59.17,3.26-.52,4.66-1.53,1.44-1.01,2.59-2.43,3.53-3.99.09-.15.28-.21.43-.12.14.08.19.25.14.39-.7,1.77-1.8,3.42-3.27,4.74-1.49,1.27-3.41,2.28-5.58,2.23-2.18.01-4.27-1.4-5.3-3.25-1.09-1.84-1.37-3.96-1.25-5.97.16-2.02.81-3.96,1.78-5.7.98-1.73,2.28-3.34,4-4.44,1.68-1.09,3.82-1.8,5.92-1.33,2.09.48,3.74,2.12,4.35,3.98h0c.07.22-.05.44-.25.51-.18.06-.38-.02-.47-.19Z"/><path class="cls-7" d="M459.9,875.02c-3.69,0-6.52-2.89-6.73-6.88-.25-4.57-.47-9.16-.69-13.75l-.15-2.99c-.06,0-.12,0-.19,0-2.97,0-4.74-1.8-5.96-3.37-.74-.95-1.47-1.91-2.22-2.89-.65.49-1.29.98-1.95,1.45-1.19.86-2.56,1.31-3.95,1.31-1.25,0-2.46-.35-3.62-1.05-2.62-1.55-3.87-4.6-3.02-7.41.39-1.37,1.28-2.78,2.43-3.83.56-.51,1.14-.98,1.72-1.43-.36-.47-.72-.94-1.07-1.4l-.2-.27c-.06-.08-.12-.17-.19-.25-2.17-2.3-3.01-4.88-2.47-7.41l-15.41-4.99c-2.53-.85-4.32-2.61-4.94-4.82-.62-2.2-.02-4.6,1.65-6.6,4.01-4.82,9.54-10.93,16.65-15.41,6.49-4.07,12.79-6.05,19.27-6.05.47,0,.95,0,1.43.03,2.9.15,5.44.66,7.74,1.57l1.05-.99c2.12-2.01,4.31-4.1,6.67-6,7.93-6.39,17.32-9.97,28.68-10.95,1.88-.16,3.8-.24,5.69-.24,5.87,0,11.9.79,17.93,2.35.89.22,1.7.55,2.42.84.3.12.61.25.91.36.6.21,1.12.59,1.52,1.09.17.22.76,1,.89,1.16.34.43.57.93.67,1.47.75,3.88.33,7.52-.08,11.05l-.06.52c-1.13,9.96-4.16,18.97-9.02,26.77-3.88,6.26-8.86,11.39-14.78,15.25-1.31.85-2.64,1.67-3.97,2.49-.8.49-1.59.98-2.39,1.48.84,7.97-1.63,15.36-7.52,22.59-3.98,4.86-9.15,8.97-15.79,12.58-2.36,1.28-4.83,2.53-7.56,3.82-1.12.53-2.28.81-3.42.81h0ZM466.38,857.12c3.07-1.89,5.5-3.76,7.59-5.8,3.05-3.01,4.96-5.9,5.98-9.07l-14.05,5.46c.16,3.1.32,6.24.48,9.41ZM469.88,809.81c1.55,0,3.02.53,4.25,1.54,1.66,1.35,2.6,3.32,2.56,5.4-.04,2.14-1.09,4.15-2.89,5.52-3.81,2.93-7.65,5.87-11.49,8.8-2.4,1.84-4.8,3.68-7.21,5.52,13.35-4.09,23.37-8.2,32.27-13.23,4.4-2.49,7.77-4.88,10.59-7.55,3.43-3.26,6.23-7.36,8.54-12.52-.59-.75-1.17-1.52-1.76-2.28l-1.12-1.46c-3.77-4.94-7.52-9.85-11.31-14.76-3.15.45-6.25,1.28-9.31,2.47-4.58,1.77-8.84,4.72-13.83,9.53-4.61,4.42-8.75,9.21-12.32,14.25-3.19,4.49-6.31,9.15-9.32,13.67l-.52.77,6.1-4.67c4.11-3.16,8.22-6.3,12.35-9.45,1.35-1.01,2.87-1.54,4.41-1.54ZM438.64,812.68c2.95-4,5.86-7.97,8.76-11.93-.97.08-1.92.25-2.81.5-5.67,1.56-10.28,4.89-14.34,8.7l8.39,2.73ZM510.59,788.21c.13-1,.24-1.99.31-2.97l-2.85-.34,2.54,3.32Z"/><path class="cls-5" d="M520.96,788.85c.4-3.48.86-7,.17-10.54-.3-.38-.58-.78-.89-1.16-1.01-.36-1.99-.84-3.04-1.1-7.38-1.91-14.87-2.66-22.48-2.01-9.92.86-19.02,3.92-26.84,10.22-2.83,2.27-5.42,4.84-8.06,7.33-.71.68-1.26.96-2.25.5-2.34-1.07-4.87-1.54-7.43-1.67-6.88-.31-13.01,1.91-18.73,5.5-6.2,3.91-11.2,9.13-15.85,14.72-1.98,2.37-1.21,5.01,1.74,6,1.86.61,3.72,1.2,5.59,1.81,4.46,1.44,8.91,2.87,13.36,4.32,0,.14,0,.21-.02.28-.04.09-.08.19-.13.27-1.86,2.39-1.41,4.59.55,6.67.21.23.39.5.58.75,1.02,1.35,2.07,2.71,3.16,4.11-1.48,1.14-2.94,2.12-4.23,3.29-.65.59-1.22,1.45-1.47,2.3-.42,1.38.29,2.78,1.52,3.5,1.3.78,2.64.75,3.84-.12,1.53-1.09,3-2.27,4.56-3.46,1.47,1.94,2.87,3.78,4.27,5.59,1.61,2.07,2.71,2.42,5.2,1.73.45-.14.9-.24,1.44-.37.04.53.08.96.1,1.36.32,6.43.61,12.87.96,19.29.16,3.04,2.56,4.48,5.31,3.17,2.48-1.17,4.96-2.41,7.39-3.73,5.6-3.05,10.7-6.78,14.77-11.75,5.09-6.25,7.91-13.23,6.59-21.47-.06-.32.21-.88.5-1.05,2.5-1.61,5.07-3.12,7.57-4.74,5.65-3.68,10.2-8.47,13.75-14.19,4.83-7.77,7.5-16.3,8.52-25.36ZM439.92,816.68c-5.15-1.68-10.49-3.42-15.97-5.2,5.67-6.02,11.66-11.28,19.74-13.5,3.49-.96,7.52-.88,9.9.09-4.52,6.17-9.05,12.34-13.67,18.61ZM483.23,843.14c-1.31,4.18-3.81,7.58-6.88,10.61-3.82,3.73-8.28,6.5-13.09,9.04-.29-5.91-.59-11.7-.88-17.37,7.28-2.83,14.4-5.59,21.55-8.37.28,1.97-.06,4.06-.7,6.09ZM510.11,803.54c-2.34,5.53-5.42,10.56-9.8,14.73-3.38,3.2-7.22,5.76-11.26,8.04-10.95,6.18-22.69,10.45-34.7,14.05-.59.17-.94.14-1.33-.4-.84-1.19-1.78-2.34-2.66-3.51-.06-.07-.08-.18-.16-.39.31-.25.63-.49.97-.74,6.85-5.26,13.73-10.5,20.58-15.77,1.98-1.5,2.07-4.09.23-5.58-1.28-1.05-2.97-1.03-4.44.08-4.12,3.14-8.23,6.29-12.35,9.45-3.07,2.34-6.11,4.68-9.29,7.12-1.09-1.43-2.15-2.73-3.1-4.1-.16-.25,0-.87.22-1.17,3.65-5.45,7.27-10.92,11.07-16.28,3.76-5.32,8.03-10.23,12.73-14.73,4.41-4.26,9.18-8.02,14.96-10.26,3.7-1.44,7.52-2.42,11.47-2.84.36-.05.88.31,1.13.64,4.01,5.19,7.98,10.38,11.95,15.59,1.19,1.55,2.37,3.13,3.6,4.66.36.46.41.86.17,1.42ZM512.49,796.29c-3.96-5.19-7.83-10.24-11.71-15.32,0-.12.04-.25.06-.38,4.51.54,9.04,1.09,13.61,1.64-.09,4.92-.81,9.43-1.95,14.05Z"/><path class="cls-7" d="M509.94,802.13c-1.23-1.53-2.41-3.11-3.6-4.66-3.97-5.21-7.94-10.4-11.95-15.59-.25-.33-.77-.69-1.13-.64-3.95.42-7.77,1.4-11.47,2.84-5.78,2.24-10.55,6-14.96,10.26-4.7,4.51-8.97,9.42-12.73,14.73-3.8,5.36-7.42,10.83-11.07,16.28-.22.31-.38.92-.22,1.17.95,1.37,2.01,2.68,3.1,4.1,3.19-2.44,6.23-4.78,9.29-7.12,4.11-3.16,8.22-6.3,12.35-9.45,1.48-1.11,3.16-1.13,4.44-.08,1.83,1.49,1.75,4.08-.23,5.58-6.85,5.27-13.73,10.51-20.58,15.77-.33.25-.66.5-.97.74.08.21.1.32.16.39.89,1.17,1.83,2.32,2.66,3.51.39.54.74.57,1.33.4,12-3.6,23.74-7.87,34.7-14.05,4.04-2.28,7.88-4.85,11.26-8.04,4.38-4.17,7.46-9.2,9.8-14.73.24-.56.19-.95-.17-1.42ZM497.91,810.06c-5.24,3.95-12.65,2.98-16.58-2.18-3.96-5.16-2.96-12.56,2.23-16.56,5.09-3.92,12.51-2.91,16.48,2.25,3.93,5.13,2.97,12.64-2.12,16.49Z"/><path class="cls-6" d="M512.49,796.29c-3.97-5.19-7.84-10.24-11.71-15.32.01-.12.04-.25.06-.38,4.51.55,9.04,1.1,13.62,1.64-.09,4.92-.82,9.43-1.96,14.05Z"/><path class="cls-6" d="M453.59,798.07c-4.53,6.16-9.06,12.34-13.67,18.62-5.16-1.69-10.5-3.42-15.98-5.2,5.67-6.03,11.66-11.29,19.74-13.5,3.49-.97,7.52-.88,9.9.09Z"/><path class="cls-6" d="M476.34,853.75c-3.82,3.73-8.27,6.51-13.09,9.04-.29-5.91-.59-11.7-.88-17.37,7.28-2.83,14.39-5.59,21.56-8.38.27,1.98-.07,4.06-.7,6.1-1.31,4.18-3.81,7.57-6.89,10.6Z"/><path class="cls-5" d="M500.04,793.56c-3.97-5.16-11.38-6.17-16.48-2.25-5.19,4-6.19,11.4-2.23,16.56,3.93,5.17,11.34,6.13,16.58,2.18,5.09-3.85,6.05-11.37,2.12-16.49ZM494.38,805.7c-2.65,2.01-6.55,1.48-8.62-1.17-2.14-2.73-1.56-6.75,1.28-8.85,2.65-1.99,6.62-1.41,8.62,1.25,2.08,2.77,1.51,6.66-1.27,8.76Z"/><path class="cls-10" d="M494.38,805.7c-2.65,2.01-6.55,1.48-8.62-1.17-2.13-2.73-1.55-6.74,1.28-8.84,2.65-1.98,6.62-1.41,8.62,1.25,2.08,2.77,1.52,6.67-1.27,8.77Z"/><polygon class="cls-3" points="571.21 707.99 618.09 710.19 623.41 1000.56 605.6 1006.79 586.91 1002.34 574.15 996.76 571.21 707.99"/><g class="cls-17"><path class="cls-5" d="M794.83,643.62v281.93s-100.18,28.17-168.26,71.21c-2.07,2.18-4.3,4.04-6.64,5.61v-43.95c113.09-31.46,155.2-148.21,156.75-313.7l18.15-1.1Z"/></g><path class="cls-5" d="M599.16,1018.27c-.96,0-1.92-.03-2.88-.09-11.28-.73-21.49-5.84-28.35-14.13-59.31-32.71-119.88-55.9-180.06-68.93-4.15-.9-7.18-4.46-7.39-8.7l-14.09-276.63c-.14-2.81.98-5.53,3.06-7.43,2.08-1.89,4.89-2.75,7.69-2.34,5.22.77,127.2,19.1,194.32,58.59h48.11c14.51-8.99,90.53-54.07,173.88-66.42,2.7-.4,5.44.4,7.51,2.18,2.07,1.78,3.26,4.38,3.26,7.11v284.07c0,4.21-2.8,7.9-6.85,9.04-.98.28-98.76,28.06-164.85,69.53-9.09,9.1-21.06,14.16-33.36,14.16ZM398.87,918.33c60.22,13.8,120.69,37.41,179.83,70.22,1.19.66,2.22,1.57,3.02,2.66,3.58,4.88,9.17,7.8,15.76,8.23,8.12.54,16.26-2.81,22.3-9.15.53-.56,1.13-1.05,1.78-1.46,58.94-37.26,139.87-63.1,163.88-70.31v-265.95c-82.63,15.27-157.31,62.83-158.09,63.33-1.51.97-3.28,1.49-5.08,1.49h-53.41c-1.72,0-3.4-.47-4.87-1.36-52.08-31.62-145.88-49.95-178.25-55.56l13.13,257.87Z"/><path class="cls-5" d="M619.93,1006.15s-.04,0-.07,0c-4.54-.04-8.19-3.74-8.15-8.28l2.35-289.94c.04-4.51,3.71-8.15,8.22-8.15.02,0,.04,0,.07,0,4.54.04,8.19,3.74,8.15,8.28l-2.35,289.94c-.04,4.51-3.71,8.15-8.22,8.15Z"/><path class="cls-5" d="M577.66,1006.15c-4.45,0-8.11-3.56-8.21-8.04l-6.46-289.94c-.1-4.54,3.49-8.3,8.03-8.4.06,0,.12,0,.19,0,4.45,0,8.11,3.56,8.21,8.04l6.46,289.94c.1,4.54-3.49,8.3-8.03,8.4-.06,0-.12,0-.19,0Z"/><path class="cls-7" d="M972.15,767.62c-34.51,63.06-105.13,85.34-105.13,85.34,0,0-3.52,14.67-50.78,24.06-39.46,7.84-76.68-22.8-80.64-66.3-.02,0-.02-.02-.02-.02-.8-8.57-.28-17.63,1.74-27,12.33-56.93,57.52-46.37,57.52-46.37v-49.3l42.85,19.96c25.24-25.82,57.52-48.13,57.52-48.13,21.41.02,49.61,21.41,65.57,50.24,9.7,17.47,14.91,37.68,11.39,57.52Z"/><path class="cls-5" d="M803.81,879.35c-13.95,0-27.57-4.57-39.31-13.34-16.77-12.54-27.63-32.24-29.9-54.18h-.1l-.02-1.12c-.82-8.78-.23-17.98,1.76-27.23,4.19-19.34,12.57-33.11,24.93-40.92,13.8-8.73,28.16-7.27,32.57-6.54v-49.7l43.7,20.35c24.94-25.37,56.81-47.49,57.14-47.71l.28-.2h.34c21.9.02,50.5,21.86,66.53,50.81,7.55,13.6,15.68,34.75,11.51,58.24l-.12.33c-32.76,59.86-98.67,83.46-105.23,85.68-1.22,2.99-8.86,15.81-51.42,24.27-4.22.84-8.45,1.25-12.64,1.25ZM736.58,809.63h.02l.09,1c1.98,21.72,12.6,41.27,29.12,53.62,14.77,11.04,32.61,15.2,50.21,11.7,45.63-9.07,49.89-23.12,49.93-23.26l.16-.58.58-.2c.7-.22,70.48-22.85,104.41-84.66,3.99-22.79-3.94-43.36-11.3-56.62-15.58-28.15-43.15-49.42-64.27-49.67-3.23,2.26-33.45,23.62-57.08,47.8l-.54.55-41.99-19.56v48.96l-1.34-.31c-.16-.04-16.84-3.76-32.27,6.02-11.82,7.49-19.87,20.79-23.93,39.51-1.87,8.69-2.48,17.33-1.8,25.69Z"/><path class="cls-5" d="M804.07,887.61c-19.75,0-39.1-8.12-53.7-22.98-20.62-20.98-28.94-51.97-22.24-82.92,4.68-21.59,14.3-37.13,28.6-46.17,10.31-6.52,20.95-8.21,28.71-8.34v-39.17c0-3.21,1.64-6.2,4.34-7.92,2.71-1.72,6.1-1.95,9.01-.59l36.89,17.18c24.62-24.07,52.9-43.69,54.17-44.57,2.45-1.69,5.56-2.12,8.38-1.16,58.5,20.07,87.3,60.64,83.28,117.31-.1,1.35-.48,2.66-1.13,3.84-31.72,57.96-91.29,82.84-106.85,88.51-4.93,7.12-18.44,18.24-55.47,25.59-4.65.92-9.34,1.38-14,1.38ZM786.5,745.97c-5.15,0-12.77.97-19.94,5.58-9.78,6.28-16.53,17.77-20.08,34.14-5.36,24.74,1.1,49.33,17.27,65.78,13.81,14.04,32.27,20,50.65,16.35,35.88-7.13,43.05-16.88,43.77-18,.98-2.75,3.2-4.91,6.02-5.8.65-.21,66.15-21.6,98.72-79.1,2.58-46.01-19.12-76.99-66.26-94.55-9.2,6.66-33.01,24.51-52.26,44.2-2.79,2.85-7.07,3.63-10.68,1.95l-29.49-13.74v34.57c0,2.87-1.31,5.58-3.55,7.36-2.25,1.78-5.19,2.44-7.97,1.79-.03,0-2.46-.52-6.19-.52ZM857.89,850.75s0,.01,0,.02c0,0,0-.01,0-.02ZM857.9,850.74s0,.01,0,.01c0,0,0-.01,0-.01ZM857.9,850.72s0,0,0,.01c0,0,0,0,0-.01ZM972.15,767.62h.02-.02Z"/><path class="cls-5" d="M889.25,652.59l32.6-14.52-20.71,29.06c-3.12,4.38-9.2,5.4-13.58,2.28-4.38-3.12-5.4-9.2-2.28-13.58,1.04-1.46,2.44-2.56,3.97-3.24Z"/><path class="cls-5" d="M841.98,699.65c1.13.73,1.24.97,1.71,1.4.38.39.69.75,1.02,1.13.59.73,1.13,1.45,1.59,2.16.95,1.43,1.71,2.84,2.38,4.25,1.34,2.82,2.27,5.61,2.99,8.38.75,2.76,1.21,5.51,1.61,8.21l.43,4.05.24,4.01-2.42-3.14-2.53-2.99c-1.76-1.91-3.51-3.74-5.4-5.34-1.85-1.61-3.79-3.05-5.72-4.13-.96-.54-1.92-1-2.83-1.31-.46-.16-.88-.27-1.28-.34-.18-.01-.37-.04-.51-.02-.05.07-.47-.05.1.38-4.61-2.38-6.42-8.04-4.04-12.65s8.04-6.42,12.65-4.04Z"/><path class="cls-5" d="M858.21,849.7c.84-1.18,1.78-2.81,2.64-4.28.87-1.52,1.73-3.07,2.55-4.64,1.66-3.14,3.25-6.35,4.72-9.64,2.98-6.56,5.55-13.37,7.69-20.44.98,7.31,1.5,14.8,1.5,22.36.02,3.78-.09,7.58-.32,11.41-.11,1.91-.26,3.83-.44,5.76-.21,1.97-.37,3.78-.75,6l-.13.75c-.91,5.28-5.93,8.83-11.22,7.92-5.28-.91-8.83-5.93-7.92-11.22.25-1.47.85-2.84,1.66-3.98Z"/><path class="cls-7" d="M424.29,777.65c0,36.76-38.92,60.26-38.92,60.26-65.52,19.18-98.09-41.48-98.09-41.48,0,0-41.69-19.06-67.85-60.99-6.74-10.8-12.44-23.12-16.13-37.02,30.85-61.09,80.1-77.12,96.72-80.9,19.23,23.34,40.12,54.26,40.12,54.26,25.05-9.23,36.41-6.81,36.41-6.81l2.82,55.55s17.94,8.12,31.15,23.41c7.68,8.9,13.76,20.21,13.76,33.74Z"/><path class="cls-5" d="M360.45,851.05c-46.36,0-73.08-36.85-79.77-47.4-13.2-6.72-69.38-38.66-86.45-102.82-.59-2.23-.35-4.59.69-6.65,32.13-63.63,82.75-81.22,103.02-85.83,3.46-.78,7.07.45,9.33,3.19,14.41,17.49,29.5,38.82,36.57,49.02,21.63-6.92,32.54-5.24,34.67-4.79,4.16.89,7.21,4.46,7.42,8.71l2.54,50.14c12.96,7.16,45.2,28.44,45.2,63.02,0,41.59-41.69,67.23-43.46,68.3-.69.42-1.44.74-2.21.97-9.85,2.88-19.04,4.13-27.56,4.13ZM385.37,837.91h.02-.02ZM213.35,699.44c18,60.47,77.23,88.17,77.84,88.45,1.86.85,3.4,2.29,4.37,4.1,1.18,2.16,29.52,52.89,85.9,37.27,5.53-3.68,33.44-23.64,33.44-51.61,0-30.2-39.02-48.42-39.41-48.6-3.18-1.46-5.31-4.57-5.49-8.07l-2.36-46.61c-5.17.57-13.18,2.14-24.24,6.21-4.05,1.49-8.61.03-11.03-3.55-.19-.29-18.21-26.89-35.82-48.9-17.84,5.25-57,21.97-83.2,71.31Z"/><path class="cls-5" d="M290.73,618.81c.97-4.22.89-9.27-.15-14.36-.52-2.55-1.26-5.12-2.24-7.65-.98-2.53-2.17-5.01-3.74-7.37,2.59,1.16,5.08,2.73,7.45,4.49,2.37,1.77,4.62,3.76,6.74,5.97,4.22,4.43,7.99,9.75,10.54,16.32l-18.6,2.6Z"/><path class="cls-5" d="M203.3,708.59c-4.5,0-8.62-3.01-9.83-7.56-5.43-20.38-6.32-42.11-2.65-64.59,7.92-48.62,42.42-89.11,99.79-117.08,42.33-20.64,81.86-27.24,83.52-27.52,5.55-.91,10.78,2.86,11.68,8.41.91,5.55-2.86,10.78-8.41,11.68-1.49.25-149.89,25.78-166.5,127.78-3.2,19.63-2.45,38.5,2.23,56.08,1.45,5.43-1.78,11.01-7.21,12.45-.88.23-1.76.35-2.63.35Z"/><path class="cls-5" d="M343.53,680.53c-.55.01-1.5.2-2.3.36-.84.16-1.68.36-2.53.56-1.7.4-3.4.88-5.11,1.39-3.41,1.04-6.78,2.3-10.1,3.76-3.34,1.44-6.56,3.16-9.71,5.1-3.19,1.92-6.12,4.22-9.03,6.72,1.64-3.42,3.49-6.89,5.76-10.09,2.23-3.23,4.7-6.37,7.43-9.3,2.71-2.95,5.61-5.77,8.69-8.43,1.55-1.32,3.13-2.62,4.78-3.87.82-.62,1.66-1.25,2.53-1.85.9-.63,1.67-1.18,2.85-1.86l6.76,17.52Z"/><path class="cls-5" d="M375.38,729c-2.16-1.86-4.76-3.79-7.24-5.6-2.53-1.83-5.11-3.59-7.76-5.28-5.31-3.35-10.8-6.44-16.89-8.66,6.43-.91,13.16-.77,19.8-.27,3.33.26,6.65.64,9.98,1.09,3.37.48,6.57.96,10.12,1.73l.42.09c5.26,1.14,8.59,6.33,7.44,11.59-1.15,5.26-6.33,8.59-11.59,7.44-1.62-.35-3.1-1.12-4.28-2.13Z"/><path class="cls-5" d="M278.07,798.23c.01-4.15.17-8.03.35-12.02.2-3.96.46-7.91.79-11.84.67-7.86,1.63-15.71,3.16-23.34,1.6,7.61,3.76,14.98,6.17,22.26,1.21,3.64,2.48,7.24,3.81,10.82,1.33,3.55,2.72,7.18,4.15,10.52l-18.43,3.6Z"/><path class="cls-7" d="M867.4,228.98s65.6,24.38,72.41,36.45c12.62,22.38,11.18,154.4-23.09,189.05-13.42,13.57-112.56,26.82-112.56,26.82l63.24-252.31Z"/><path class="cls-8" d="M804.16,481.3s99.14-13.26,112.55-26.83c13.37-13.51,21.76-41.9,26.23-72.79-1.09,1-35.94,31.48-106.26-29.55-.04-.04-.09-.07-.13-.11l-32.39,129.27Z"/><polygon class="cls-13" points="584.63 368.64 584.64 369.77 583.92 369.22 584.63 368.64"/><polygon class="cls-13" points="583.92 369.22 583.21 369.78 583.2 368.65 583.92 369.22"/><path class="cls-7" d="M368.54,484.18s-99.31-11.94-112.9-25.33c-13.55-13.34-22.31-41.6-27.19-72.43l-.02-.02c-7.63-48.12-5.89-102.52,1.62-116.26,6.64-12.16,71.92-37.41,71.92-37.41l32.46,122.63,34.1,128.82Z"/><path class="cls-13" d="M368.54,484.18s-99.31-11.94-112.9-25.33c-13.55-13.34-22.31-41.6-27.19-72.43,1.1.98,36.35,31,105.86-30.95.04-.04.09-.07.13-.11l34.1,128.82Z"/><path class="cls-5" d="M804.16,491.47c-2.88,0-5.64-1.22-7.59-3.4-2.25-2.52-3.1-5.98-2.28-9.25l63.24-252.31c.7-2.81,2.57-5.18,5.13-6.53,2.56-1.35,5.57-1.54,8.29-.54,25.8,9.59,70.22,27.66,77.73,40.99,8.85,15.7,10,60.61,7.32,95.7-2.26,29.59-9.43,82.64-32.03,105.5-14.31,14.48-87.6,25.63-118.45,29.75-.45.06-.9.09-1.35.09ZM874.48,242.6l-56.76,226.49c41.65-6.26,85.17-15.59,91.79-21.78,12.96-13.11,22.76-47.78,26.19-92.72,3.3-43.2-.57-76.34-4.67-83.98-4.23-5.31-30.75-17.81-56.55-28Z"/><path class="cls-5" d="M368.55,494.35c-.4,0-.81-.02-1.22-.07-30.9-3.71-104.33-13.89-118.83-28.18-22.91-22.56-30.78-75.51-33.43-105.07-3.15-35.05-2.59-79.97,6.05-95.78,7.34-13.42,51.51-32.08,77.18-42.01,2.7-1.04,5.72-.89,8.29.42,2.58,1.31,4.47,3.66,5.22,6.46l66.57,251.45c.86,3.26.06,6.74-2.16,9.28-1.95,2.24-4.75,3.5-7.68,3.5ZM238.9,275.18c-3.99,7.69-7.42,40.89-3.55,84.04,4.03,44.9,14.29,79.44,27.44,92.39,6.69,6.1,50.33,14.84,92.05,20.55l-59.76-225.72c-25.67,10.52-52.02,23.38-56.18,28.74Z"/><circle class="cls-7" cx="585.21" cy="313.59" r="303.41"/><path class="cls-13" d="M888.63,311.57c1.11,167.57-133.83,304.31-301.4,305.42-167.57,1.11-304.33-133.83-305.44-301.4-.12-17.69,1.28-35.05,4.09-51.92,25.56,142.68,150.78,250.51,300.65,249.52,149.88-.99,273.63-110.48,297.3-253.48,3.04,16.83,4.66,34.17,4.78,51.86Z"/><path class="cls-5" d="M585.18,624.29c-170.38,0-309.53-138.02-310.66-308.64C273.38,144.33,411.84,4.03,583.15,2.89c.7,0,1.41,0,2.12,0,82.2,0,159.61,31.75,218.18,89.55,59.07,58.29,91.91,136.1,92.46,219.09,1.13,171.32-137.32,311.62-308.64,312.75-.69,0-1.4,0-2.09,0ZM585.24,17.46c-.67,0-1.33,0-1.99,0-163.28,1.08-295.24,134.8-294.16,298.08.52,79.1,31.82,153.25,88.12,208.81,56.3,55.56,130.96,85.84,209.96,85.34,79.1-.52,153.25-31.82,208.81-88.12,55.56-56.3,85.87-130.87,85.35-209.96-1.08-162.61-133.72-294.17-296.09-294.17Z"/><path class="cls-5" d="M585.18,624.29c-170.38,0-309.53-138.02-310.66-308.64C273.38,144.33,411.84,4.03,583.15,2.89c.7,0,1.41,0,2.12,0,82.2,0,159.61,31.75,218.18,89.55,59.07,58.29,91.91,136.1,92.46,219.09,1.13,171.32-137.32,311.62-308.64,312.75-.69,0-1.4,0-2.09,0ZM585.24,17.46c-.67,0-1.33,0-1.99,0-163.28,1.08-295.24,134.8-294.16,298.08.52,79.1,31.82,153.25,88.12,208.81,56.3,55.56,130.96,85.84,209.96,85.34,79.1-.52,153.25-31.82,208.81-88.12,55.56-56.3,85.87-130.87,85.35-209.96-1.08-162.61-133.72-294.17-296.09-294.17Z"/><path class="cls-5" d="M585.18,624.29c-170.38,0-309.53-138.02-310.66-308.64C273.38,144.33,411.84,4.03,583.15,2.89c.7,0,1.41,0,2.12,0,82.2,0,159.61,31.75,218.18,89.55,59.07,58.29,91.91,136.1,92.46,219.09,1.13,171.32-137.32,311.62-308.64,312.75-.69,0-1.4,0-2.09,0ZM585.24,17.46c-.67,0-1.33,0-1.99,0-163.28,1.08-295.24,134.8-294.16,298.08.52,79.1,31.82,153.25,88.12,208.81,56.3,55.56,130.96,85.84,209.96,85.34,79.1-.52,153.25-31.82,208.81-88.12,55.56-56.3,85.87-130.87,85.35-209.96-1.08-162.61-133.72-294.17-296.09-294.17Z"/><path class="cls-5" d="M585.18,627.17c-141.98,0-266.27-95.25-302.91-232.36-.07-.2-.13-.4-.18-.6-6.77-25.43-10.29-51.86-10.47-78.55-.08-11.83.51-23.65,1.75-35.14C289.98,121.68,423.14,1.07,583.13,0c.7,0,1.42,0,2.12,0,159.11,0,292.76,118.52,311.35,276.51,1.37,11.5,2.1,23.27,2.18,35,.18,26.65-2.98,53.12-9.4,78.67-.05.22-.11.43-.18.64-35.03,138.24-159.09,235.4-301.92,236.35-.7,0-1.41,0-2.1,0ZM301.83,389.16c34.29,129.04,151.7,218.51,285.32,217.65,133.71-.89,249.83-91.93,282.44-221.41.06-.26.13-.52.21-.77,5.89-23.7,8.8-48.25,8.64-72.98-.07-10.97-.76-21.98-2.04-32.74-17.39-147.73-142.38-258.55-291.14-258.55-.67,0-1.32,0-1.98,0-149.6.99-274.12,113.76-289.65,262.31-1.16,10.76-1.71,21.8-1.63,32.86.16,24.77,3.4,49.29,9.63,72.88.08.25.16.5.22.76Z"/><path class="cls-5" d="M291.9,243.08c-.78,0-1.58-.13-2.36-.39-3.62-1.24-5.66-5.06-4.69-8.76C320.55,98.82,443.21,3.81,583.15,2.88c.68,0,1.38,0,2.07,0,139.18,0,262.08,93.18,299.32,227.25,1.02,3.68-.97,7.53-4.58,8.82-3.6,1.29-7.58-.44-9.12-3.94-48.66-110.95-161.53-182.15-287.36-181.27-125.82.83-237.64,73.41-284.88,184.9-1.17,2.76-3.86,4.45-6.71,4.45ZM585.22,17.45c-.66,0-1.31,0-1.97,0-98.14.65-187.37,49.85-241.22,127.1,59.88-65.4,146.86-104.78,241.36-105.4.76,0,1.53,0,2.29,0,93.67,0,180.26,38.14,240.5,102.26-54.49-76.05-143.55-123.95-240.96-123.95Z"/><path class="cls-5" d="M888.6,311.58c.17,26.26-2.98,51.8-9.09,76.13,0,0-.03,0-.03.03-51.96,102.04-163.16,190.27-292.53,191.13-129.36.86-241.7-85.9-295.01-187.24,0-.03-.03-.03-.03-.03-6.46-24.25-9.95-49.74-10.13-76-.08-11.48.49-22.83,1.69-33.98,40.18-113.52,159.13-196.26,300.2-197.19,141.09-.93,261.16,80.27,302.81,193.28,1.32,11.11,2.03,22.42,2.11,33.87Z"/><g class="cls-16"><path class="cls-11" d="M888.61,311.59c.17,26.26-2.98,51.8-9.09,76.13,0,0-.03,0-.03.03-51.96,102.04-163.16,190.27-292.53,191.13-129.36.86-241.7-85.89-295.01-187.23,0-.03-.03-.03-.03-.03-3.84-14.45-6.63-29.32-8.31-44.57,68.53,75.98,167.81,130.92,277.93,130.19,140.29-.93,261.87-91.97,324.38-200.99.2.5.39.97.56,1.47,1.32,11.11,2.03,22.42,2.11,33.87Z"/></g><g class="cls-15"><ellipse class="cls-7" cx="805.21" cy="304.34" rx="54.22" ry="39.29" transform="translate(382.16 1054.02) rotate(-81.27)"/></g><g class="cls-15"><ellipse class="cls-7" cx="759.98" cy="413.01" rx="24.89" ry="21.36" transform="translate(146.28 1022.54) rotate(-73.33)"/></g><g class="cls-15"><path class="cls-7" d="M351.46,423.54s-56.13-163.3,30.86-231.31c86.99-68.01,214.7-71.18,211.93-62.91,0,0-140.45,38.02-192.76,151.27-40.34,87.33-50.03,142.96-50.03,142.96Z"/></g><path class="cls-5" d="M552.23,702.51c-3.89,0-7.04-3.15-7.04-7.04v-54c0-3.89,3.15-7.04,7.04-7.04s7.04,3.15,7.04,7.04v54c0,3.89-3.15,7.04-7.04,7.04Z"/><g class="cls-17"><path class="cls-5" d="M971.58,762.55c-34.51,63.06-105.13,85.34-105.13,85.34,0,0-3.52,14.67-50.78,24.06-39.46,7.84-76.68-22.8-80.64-66.3,37.33,57.61,118.25,35,128.49-29.18,63.79-39.91,84.12-82.17,84.12-82.17l12.56,10.73c9.7,17.47,14.91,37.68,11.39,57.52Z"/></g><g class="cls-17"><path class="cls-5" d="M628.05,990.98c-.49.31-.99.61-1.48.92-2.07,2.18-4.3,4.04-6.64,5.61-15.4,10.4-35.68,8.17-45.78-5.61-59.68-33.1-121.05-57.12-184.29-70.83l-2.02-39.56c182.27,68.83,164.41-176.92,164.41-176.92l8.38-6.17c2.84,1.53,5.59,3.12,8.24,4.72h3.08c1.36,23.64,4.6,79.94,9.25,161.21,6.27,109.54,38.74-4.7,38.74-4.7l8.12,131.33Z"/></g><g class="cls-17"><path class="cls-5" d="M426.9,774.52c0,36.76-38.92,60.26-38.92,60.26-65.52,19.18-98.09-41.48-98.09-41.48,0,0-41.69-19.06-67.85-60.99,55.24,45.31,67.82,4.84,67.82,4.84,35.24,78.25,126.07,84.89,123.28,3.64,7.68,8.9,13.76,20.21,13.76,33.74Z"/></g><g class="cls-17"><path class="cls-5" d="M387.6,881.7l-2.28-44.86c8.64-6.08,14.53-10.28,15.1-10.82,2.35-2.21,20.42-29.58,20.42-29.58l3.45-18.78s33.1,64.47-36.69,104.05Z"/></g><g class="cls-17"><path class="cls-5" d="M342.12,675.91c23.51,12.01,28.17,24.01,13.97,36.02h19.68l-6.97-43.45"/></g><g class="cls-17"><path class="cls-5" d="M990.46,702.52c-1.03,18.71-5.07,35.38-11.13,50.1l-10.4-23.03-20.73-30.21s28.2-67.73-39.63-122.29c48.76,31.48,84.68,74.75,81.89,125.44Z"/></g><g class="cls-17"><path class="cls-5" d="M775.63,603.12s67.28,95.42,122.47,54.37l-52.28,45.79-50.99-15.24,7.04-32.87"/></g><g class="cls-17"><path class="cls-5" d="M392.46,600.15s-50.15,6.19-74.22,33.25l16.05,29.88,30.9-3.42,17.07-26.47"/></g><path class="cls-5" d="M596.14,1216.78c-.3,0-.6-.01-.91-.04-5.16-.49-8.95-5.08-8.45-10.24,6.69-69.94-17.51-167.91-45.87-188.2-15.44.18-92.61,1.52-156.73,10.94-1.69,17.31-3.56,68.11,21.2,136.8,1.76,4.88-.77,10.26-5.65,12.02-4.88,1.76-10.26-.77-12.02-5.65-32.55-90.3-21.64-150.61-21.16-153.14.74-3.89,3.84-6.9,7.75-7.52,73.81-11.71,168.35-12.25,169.29-12.25h.04c1.66,0,3.28.44,4.72,1.27,39.27,22.82,64.24,133.18,57.13,207.52-.47,4.86-4.55,8.5-9.34,8.5Z"/><path class="cls-5" d="M376.21,1030.4l-42.31-7.42,41.43-11.34c5.13-1.4,10.42,1.62,11.82,6.74,1.4,5.13-1.62,10.42-6.74,11.82-1.4.38-2.86.43-4.2.2Z"/><path class="cls-5" d="M468.1,1153.44c2.31-2.62,4.7-5.51,7.01-8.32,2.33-2.84,4.63-5.71,6.92-8.61,4.57-5.8,9.06-11.69,13.47-17.67-1.56,7.27-3.23,14.53-5.03,21.79-.9,3.63-1.84,7.26-2.81,10.89-.99,3.65-1.95,7.22-3.1,10.98l-.04.14c-1.56,5.08-6.94,7.94-12.02,6.38-5.08-1.56-7.94-6.94-6.38-12.02.41-1.34,1.12-2.56,1.99-3.55Z"/><path class="cls-5" d="M441.22,1021.45c-2.5-1.8-4.57-3.47-6.75-5.26-2.15-1.76-4.23-3.57-6.3-5.4-4.11-3.67-8.06-7.48-11.85-11.42-3.8-3.92-7.37-8.06-10.76-12.28-3.39-4.22-6.44-8.7-9.26-13.21,4.03,3.52,8.14,6.83,12.49,9.8,4.34,2.97,8.75,5.77,13.31,8.3,4.55,2.55,9.17,4.91,13.86,7.09,2.35,1.08,4.7,2.13,7.07,3.11,2.32.97,4.82,1.96,6.96,2.68l-8.77,16.61Z"/><path class="cls-5" d="M626.79,1156.78c1.57-3.72,3.1-7.79,4.56-11.76,1.46-4,2.87-8.04,4.21-12.11,2.7-8.13,5.12-16.39,7.26-24.78.98,8.6,1.66,17.31,2.04,26.05.2,4.37.33,8.76.38,13.16.05,4.43.07,8.75-.09,13.37l-18.37-3.93Z"/><path class="cls-5" d="M707.1,1013.72c-.23.01.11.1.25.16.15.07.43.12.65.18.45.13.97.21,1.49.3,1.03.18,2.15.29,3.27.33,1.13.05,2.28.07,3.45-.03,1.18-.02,2.35-.19,3.53-.36,4.75-.69,9.55-2.32,14.19-4.6l3.44-1.86c1.14-.66,2.2-1.44,3.32-2.16,2.29-1.39,4.27-3.21,6.42-4.89,2.08-1.76,3.97-3.74,5.99-5.63l5.53-6.25-3.63,7.62c-1.44,2.42-2.77,4.96-4.36,7.35-1.68,2.32-3.22,4.82-5.19,6.98-.96,1.11-1.87,2.28-2.9,3.35l-3.2,3.14c-4.43,4.05-9.52,7.68-15.33,10.36-1.46.66-2.93,1.33-4.48,1.83-1.52.58-3.11,1.03-4.72,1.44-1.62.41-3.27.74-5.01.97-.87.11-1.73.23-2.67.27-.47.02-.89.07-1.43.06-.55,0-.91.03-1.82-.07l3.2-18.51Z"/><g class="cls-17"><path class="cls-5" d="M254.09,1048.49c.79,11.51,3.25,23.22,7.81,34.99,41.48,107.22,214.41,57.92,214.41,57.92,11.74,62.59,70.43,70.43,108.98,54.77,38.55-15.66,50.66-54,50.66-54,0,0,140.09,53.22,203.47,32.87,45.16-14.5,75.99-52.43,79.35-98.23-.95-13.54-4.23-27.56-10.21-41.72-9.98-23.59-25.45-49.21-41.55-72.78,51.86,140.46-12.61,195.65-131.42,156.52l-86.91-18.19s-37.56,85.1-62.21-21.72l-12.04-25.12c19.67,141.92-52.12,141.59-85.71,79.63l10.31-22.82c-108.37,1.76-247.73,43.46-230.1-117.06-9.65,20.82-15.84,43.67-15.03,67.41-.14-4.19-.07-8.35.2-12.48Z"/></g><g class="cls-17"><path class="cls-5" d="M834.74,926.91c-79.23,25.24-86.84,84.46-37.88,125.83l-126.64-39.6c45.19-4.14,84.23-13.15,65.38-67.9l59.23-19.7,4.11-39.13,12.33,4.11"/></g><g class="cls-17"><path class="cls-5" d="M345.25,1023.19c23.38-7.7,43.16-20.35,42.59-60.87,0,0,40.17,42.14,111.77,40.05l-103.3,15.73"/></g><path class="cls-4" d="M175.14,155.57c9.98-16.32,14.89-35.91,12.79-56.41-5.11-49.75-49.58-85.94-99.33-80.83C38.85,23.44,2.66,67.91,7.77,117.66c5.11,49.75,49.58,85.94,99.33,80.83,13.84-1.42,26.62-5.89,37.76-12.67l41.91,9.4-11.63-39.64Z"/><g class="cls-15"><path class="cls-7" d="M90.38,35.65c46.47-4.77,88.33,26.5,97.81,71.19.01-3.19-.13-6.41-.46-9.66-5.11-49.75-49.58-85.94-99.33-80.83C38.65,21.46,2.46,65.93,7.57,115.68c.33,3.26.85,6.46,1.51,9.6.18-45.71,34.81-84.85,81.3-89.62Z"/></g><path class="cls-5" d="M97.67,206.26c-22.41,0-43.96-7.63-61.57-21.96C15.83,167.8,3.19,144.4.52,118.4c-2.67-26,4.95-51.48,21.44-71.75C38.46,26.38,61.86,13.75,87.86,11.08c26.01-2.67,51.48,4.95,71.75,21.44,20.27,16.5,32.9,39.9,35.57,65.9,2.09,20.39-2.11,40.41-12.16,58.13l10.74,36.62c.73,2.48.09,5.15-1.68,7.03-1.76,1.88-4.4,2.69-6.91,2.13l-39.1-8.77c-11.78,6.69-24.63,10.79-38.23,12.18-3.4.35-6.8.52-10.18.52ZM98.01,25.13c-2.87,0-5.76.15-8.66.44-22.12,2.27-42.04,13.02-56.08,30.27-14.04,17.25-20.52,38.94-18.25,61.06,2.27,22.12,13.02,42.04,30.27,56.08,17.25,14.04,38.93,20.52,61.06,18.25,12.43-1.28,24.11-5.2,34.72-11.65,1.61-.98,3.54-1.3,5.38-.88l29.84,6.69-8.15-27.77c-.58-1.97-.3-4.1.77-5.85,9.57-15.66,13.64-33.59,11.76-51.87-2.27-22.12-13.02-42.04-30.27-56.08-14.99-12.2-33.33-18.69-52.4-18.69Z"/><g class="cls-17"><path class="cls-5" d="M175.65,154.7c-24.8,20.98-58.97,30.17-92.9,21.72-37.63-9.37-65.36-38.02-75.33-72.8-.24,4.61-.13,9.3.35,14.03,5.11,49.75,49.58,85.94,99.33,80.83,13.84-1.42,26.62-5.89,37.76-12.67l41.91,9.4-11.63-39.64c.17-.29.34-.58.51-.87Z"/></g><path class="cls-7" d="M126.81,82.98h0c-7.84-7.84-20.54-6.43-28.38,1.4l-1.22,1.22-1.22-1.22c-7.84-7.84-20.54-9.24-28.38-1.4h0c-7.84,7.84-7.84,20.54,0,28.38l1.22,1.22,24.64,24.64c2.07,2.07,5.42,2.07,7.48,0l24.64-24.64,1.22-1.22c7.84-7.84,7.84-20.54,0-28.38Z"/></svg>