<?xml version="1.0" encoding="UTF-8"?>
<svg id="_레이어_1" data-name="레이어 1" xmlns="http://www.w3.org/2000/svg" xmlns:xlink="http://www.w3.org/1999/xlink" viewBox="0 0 409 370">
  <defs>
    <style>
      .cls-1 {
        opacity: .5;
      }

      .cls-2 {
        opacity: .2;
      }

      .cls-3 {
        fill: #604a9b;
      }

      .cls-3, .cls-4, .cls-5, .cls-6, .cls-7, .cls-8, .cls-9, .cls-10, .cls-11 {
        stroke-width: 0px;
      }

      .cls-12 {
        opacity: .35;
      }

      .cls-4 {
        fill: none;
      }

      .cls-5 {
        fill: #351c43;
      }

      .cls-6 {
        fill: #339cd8;
      }

      .cls-13 {
        clip-path: url(#clippath);
      }

      .cls-7 {
        fill: #3070b8;
      }

      .cls-8 {
        fill: #fff;
      }

      .cls-9 {
        fill: #351c42;
      }

      .cls-10 {
        fill: #d8d8d8;
      }

      .cls-11 {
        fill: #101a28;
      }

      .cls-14 {
        opacity: .25;
      }
    </style>
    <clipPath id="clippath">
      <path class="cls-4" d="M63.4,192.32c0,29.21,14.88,54.58,28.62,78.1,27.58,47.19,78.77,78.9,137.38,78.9,87.81,0,159-71.19,159-159l7-145-53-101-81-23s-28-7-64-2-68-25-79-14-26.63,10.08-57,18C-123.89-28.36,6.22,147.9,67.4,96.32c23.9-20.15-3.84,60.29-3.84,60.29,0,0-5.71,8.08-1.16,23.71l1,12Z"/>
    </clipPath>
  </defs>
  <path class="cls-3" d="M229.4,31.32c87.81,0,159,71.19,159,159s-71.19,159-159,159-159-71.19-159-159S141.59,31.32,229.4,31.32M229.4,11.32c-24.16,0-47.6,4.74-69.68,14.07-21.32,9.02-40.46,21.92-56.89,38.35-16.43,16.43-29.34,35.57-38.35,56.89-9.34,22.08-14.07,45.52-14.07,69.68s4.74,47.6,14.07,69.68c9.02,21.32,21.92,40.46,38.35,56.89,16.43,16.43,35.57,29.34,56.89,38.35,22.08,9.34,45.52,14.07,69.68,14.07s47.6-4.74,69.68-14.07c21.32-9.02,40.46-21.92,56.89-38.35,16.43-16.43,29.34-35.57,38.35-56.89,9.34-22.08,14.07-45.52,14.07-69.68s-4.74-47.6-14.07-69.68c-9.02-21.32-21.92-40.46-38.35-56.89-16.43-16.43-35.57-29.34-56.89-38.35-22.08-9.34-45.52-14.07-69.68-14.07h0Z"/>
  <g class="cls-13">
    <g>
      <g>
        <g>
          <rect class="cls-8" x="141.02" y="207.03" width="174.18" height="171.36" rx="85.68" ry="85.68"/>
          <path class="cls-5" d="M284.04,381.5h-111.87c-18.9,0-34.27-15.37-34.27-34.27v-109.05c0-18.9,15.37-34.27,34.27-34.27h111.87c18.9,0,34.27,15.37,34.27,34.27v109.05c0,18.9-15.37,34.27-34.27,34.27ZM172.17,210.14c-15.46,0-28.04,12.58-28.04,28.04v109.05c0,15.46,12.58,28.04,28.04,28.04h111.87c15.46,0,28.04-12.58,28.04-28.04v-109.05c0-15.46-12.58-28.04-28.04-28.04h-111.87Z"/>
        </g>
        <g>
          <path class="cls-8" d="M328.51,314.25s7.17,22.36-16.4,27.16c-4.25.87-8.3.52-11.93-.81-15.64-5.77-23.21-29.88-2.66-54.01,1.08-1.28,2.25-2.55,3.49-3.83.06-.05.11-.1.16-.16,0,0-1.09-1.8-4.58-4.35-2.19-1.59-5.33-3.48-9.73-5.4l-8.45-25.85v-.04s-1.51-4.58-1.51-4.58l-9.13-27.91s8.37,2.84,19.07,7.69c3.53,1.6,7.33,3.43,11.16,5.44,1.05.55,2.12,1.13,3.18,1.71,0,0,2.32,1.25,5.96,3.51,18.6,11.58,71.44,49.59,21.39,81.44Z"/>
          <g class="cls-2">
            <path class="cls-5" d="M297.47,227.59c-4.77,5.77-12.04,10.83-21.1,14.78l-9.13-27.91s8.37,2.84,19.07,7.69c3.53,1.6,7.33,3.43,11.16,5.44Z"/>
          </g>
          <g class="cls-2">
            <path class="cls-5" d="M283.81,251.82l2.52,21.03c11.42,4.96,14.32,9.75,14.32,9.75-.05.05-.11.11-.16.16,3.06-2.53,7.17-5.41,11.48-7.03,0,0-8.13-4.23-10.61-7.49-7.95-10.45-8.12-14.22-11.16-18.52-.98-1.39-7.52-.21-6.4,2.11Z"/>
          </g>
          <g class="cls-2">
            <path class="cls-5" d="M311.6,341.41c23.29-4.75,16.56-26.64,16.41-27.16h0s-4.04,21.67-25.1,15.72c-13.46-3.81-12.33-22.79-9.75-35.97-.23-.52-.41-1.06-.56-1.61h0c-18.58,27.65-2.06,53.32,19.03,49.02Z"/>
          </g>
          <path class="cls-5" d="M307.05,344.79c-9.01,0-17.22-4.89-21.79-13.3-6.11-11.27-6.15-29.87,11.44-48.96-1.53-1.43-4.44-3.67-9.47-6.06-1.45-.69-2.07-2.43-1.38-3.88.69-1.45,2.43-2.07,3.88-1.38,10.13,4.82,13.1,9.38,13.4,9.88l1.17,1.94-1.59,1.61c-17.24,17.51-17.68,34.25-12.35,44.07,4.24,7.81,12.15,11.59,20.64,9.86,6.19-1.26,10.53-3.94,12.9-7.96,3.98-6.76,1.34-15.39,1.31-15.47l-.67-2.13,1.88-1.21c13.39-8.52,19.99-18.07,19.61-28.38-.98-26.62-46.31-51.3-46.76-51.55-16.06-8.86-32.8-14.58-32.97-14.64-1.52-.52-2.34-2.17-1.82-3.69.52-1.52,2.16-2.34,3.69-1.82.7.24,17.38,5.93,33.88,15.04,1.96,1.05,48.69,26.52,49.79,56.44.44,12.03-6.47,22.91-20.54,32.36.74,3.66,1.56,11.26-2.36,17.95-3.24,5.53-8.88,9.15-16.78,10.76-1.72.35-3.44.52-5.12.52Z"/>
          <path class="cls-5" d="M328.43,316.56c-1.07.43-2.12.76-3.2,1.07-1.07.32-2.17.57-3.27.8-1.1.23-2.22.41-3.35.54-1.13.11-2.27.19-3.42.14.94-.66,1.87-1.27,2.78-1.89l2.73-1.83c.91-.6,1.81-1.21,2.72-1.78.9-.58,1.82-1.17,2.71-1.69l2.3,4.64Z"/>
          <path class="cls-5" d="M343.73,302.23h0c-1.21,0-2.18-.98-2.18-2.19.01-5.13-4.64-10.63-11.84-14.01-8.66-4.06-21.82-5.15-32.75,3.98-.92.77-2.3.65-3.07-.28-.77-.92-.65-2.3.28-3.07,12.51-10.45,27.52-9.22,37.4-4.58,8.74,4.1,14.37,11.15,14.35,17.97,0,1.2-.98,2.18-2.18,2.18Z"/>
          <path class="cls-5" d="M298.38,280.55c1.14-.6,2.22-1.1,3.33-1.61,1.11-.5,2.23-.97,3.36-1.41,2.26-.87,4.57-1.64,6.91-2.08-2.02,1.25-3.83,2.73-5.56,4.29-.86.78-1.7,1.59-2.52,2.41-.81.81-1.63,1.67-2.35,2.49l-3.18-4.08Z"/>
        </g>
        <g>
          <path class="cls-10" d="M285.02,237.94c-13.72,8.26-33.79,13.47-56.16,13.47-24.04,0-45.44-6.01-59.14-15.37.4-.85.8-1.69,1.21-2.55,0,0-7.65-43.98,30.63-58.93,8.46-1.75,17.66-2.72,27.29-2.72s19.45,1.03,28.14,2.91c32.92,15.1,25.92,58.75,25.92,58.75.72,1.48,1.43,2.97,2.1,4.44Z"/>
          <g class="cls-2">
            <path class="cls-5" d="M205.3,210.22l-27.75,30.38c-8.3-4.15-14.83-9.29-18.89-15.07,12.86-7.81,28.43-13.69,46.64-15.32Z"/>
          </g>
          <path class="cls-8" d="M224.71,368.6c-.45,7.27-.74,14.52-.93,21.6-.04,1.79-.09,3.57-.12,5.33-.6,31.04.57,57.52-1.75,64.21-3.17,9.1-11.4,9.9-11.4,9.9h-28.16s-19.45.97-24.62-3.78c-5.17-4.75-4.66-11.51-.89-16.19,3.23-4.01,9.02-5.7,9.02-5.7,0,0-3.91-28.96-7.91-67.51-.16-1.56-.33-3.14-.49-4.73-1.22-11.91-2.43-24.62-3.53-37.61l70.79,34.49Z"/>
          <g class="cls-2">
            <path class="cls-5" d="M224.71,368.6c-.45,7.27-.74,14.52-.93,21.6-.04,1.79-.09,3.57-.12,5.33-31.94,1.88-53.39-9.38-65.72-19.08-.16-1.56-.33-3.14-.49-4.73-1.22-11.91-2.43-24.62-3.53-37.61l70.79,34.49Z"/>
          </g>
          <path class="cls-5" d="M177.83,472.65c-6.64,0-17.71-.64-22.08-4.66-5.8-5.33-6.3-13.81-1.19-20.15,2.38-2.95,5.82-4.8,8.1-5.79-1.41-10.73-7.39-57.47-11.64-107.7-.14-1.6,1.05-3.01,2.65-3.14,1.61-.15,3.01,1.05,3.14,2.65,4.81,56.83,11.85,109.19,11.92,109.71.19,1.43-.69,2.78-2.07,3.18-.04.01-4.97,1.5-7.57,4.73-2.69,3.34-3.55,8.41.59,12.22,2.95,2.71,14.94,3.39,22.51,3.02.05,0,.1,0,.15,0h27.97c.84-.13,6.5-1.22,8.84-7.95,1.38-3.97,1.38-17.87,1.39-33.97,0-16.15,0-36.25,1.27-56.39.1-1.6,1.5-2.82,3.09-2.72,1.6.1,2.82,1.48,2.72,3.09-1.25,19.96-1.26,39.96-1.26,56.03,0,18.66,0,30.98-1.71,35.88-3.74,10.75-13.46,11.8-13.88,11.84-.09,0-.18.01-.28.01h-28.08c-.86.04-2.51.11-4.59.11Z"/>
          <g>
            <path class="cls-8" d="M229.13,368.6c.45,7.27.74,14.52.93,21.6.04,1.79.09,3.57.12,5.33.6,31.04-.57,57.52,1.75,64.21,3.17,9.1,11.4,9.9,11.4,9.9h28.16s19.45.97,24.62-3.78c5.17-4.75,4.66-11.51.89-16.19-3.23-4.01-9.02-5.7-9.02-5.7,0,0,3.91-28.96,7.91-67.51.16-1.56.33-3.14.49-4.73,1.22-11.91,2.43-24.62,3.53-37.61l-70.79,34.49Z"/>
            <g class="cls-2">
              <path class="cls-5" d="M229.13,368.6c.45,7.27.74,14.52.93,21.6.04,1.79.09,3.57.12,5.33,31.94,1.88,53.39-9.38,65.72-19.08.16-1.56.33-3.14.49-4.73,1.22-11.91,2.43-24.62,3.53-37.61l-70.79,34.49Z"/>
            </g>
            <path class="cls-5" d="M276.02,472.65c-2.08,0-3.72-.06-4.59-.11h-28.08c-.09,0-.19,0-.28-.01-.41-.04-10.14-1.09-13.88-11.84-1.7-4.9-1.7-17.22-1.71-35.88,0-16.07,0-36.07-1.26-56.03-.1-1.6,1.12-2.98,2.72-3.09,1.58-.1,2.98,1.12,3.09,2.72,1.26,20.14,1.27,40.24,1.27,56.39,0,16.1,0,30,1.39,33.97,2.33,6.7,7.94,7.81,8.85,7.95h27.97s.1,0,.14,0c7.58.37,19.57-.31,22.51-3.02,4.14-3.81,3.28-8.88.59-12.22-2.6-3.23-7.53-4.72-7.58-4.74-1.37-.41-2.25-1.76-2.06-3.18.07-.52,7.1-52.88,11.92-109.71.14-1.6,1.54-2.8,3.14-2.65,1.6.14,2.79,1.54,2.65,3.14-4.25,50.23-10.24,96.97-11.64,107.7,2.28.98,5.72,2.84,8.1,5.79,5.11,6.34,4.61,14.82-1.19,20.15-4.36,4.01-15.44,4.66-22.08,4.66Z"/>
          </g>
          <path class="cls-5" d="M276.02,472.65c-2.08,0-3.72-.06-4.59-.11h-28.08c-.09,0-.19,0-.28-.01-.41-.04-10.14-1.09-13.88-11.84-1.7-4.9-1.7-17.22-1.71-35.88,0-16.07,0-36.07-1.26-56.03-.1-1.6,1.12-2.98,2.72-3.09,1.58-.1,2.98,1.12,3.09,2.72,1.26,20.14,1.27,40.24,1.27,56.39,0,16.1,0,30,1.39,33.97,2.33,6.7,7.94,7.81,8.85,7.95h27.97s.1,0,.14,0c7.57.37,19.57-.31,22.51-3.02,4.14-3.81,3.28-8.88.59-12.22-2.6-3.23-7.53-4.72-7.58-4.74-1.37-.41-2.25-1.76-2.06-3.18.07-.52,7.1-52.88,11.92-109.71.14-1.6,1.54-2.8,3.14-2.65,1.6.14,2.79,1.54,2.65,3.14-4.25,50.23-10.24,96.97-11.64,107.7,2.28.98,5.72,2.84,8.1,5.79,5.11,6.34,4.61,14.82-1.19,20.15-4.36,4.01-15.44,4.66-22.08,4.66Z"/>
          <path class="cls-8" d="M282.92,233.49c18.3,37.86,26.53,72.51,20.95,99.45-1.99,9.61-5.31,17.52-9.57,24.02-9.19,14.01-22.77,21.47-36.92,25.27-10.34,2.78-20.99,3.6-30.45,3.6-7.29,0-15.28-.49-23.28-1.98-2.25-.42-4.49-.92-6.73-1.5-12.61-3.32-24.8-9.51-33.87-20.62-5.95-7.29-10.55-16.69-13.06-28.78-5.59-26.94,2.65-61.59,20.95-99.45"/>
          <path class="cls-8" d="M305.58,314.25c.07,6.57-.49,12.81-1.72,18.7-.28,1.35-.58,2.65-.92,3.93-2.02,7.86-4.99,14.49-8.66,20.09-9.18,14.01-22.76,21.46-36.91,25.26-10.34,2.78-20.99,3.6-30.45,3.6-7.29,0-15.28-.49-23.29-1.98-2.25-.42-4.49-.92-6.73-1.51-12.62-3.32-24.8-9.51-33.87-20.62-5.32-6.52-9.57-14.75-12.21-25.07-.31-1.21-.59-2.44-.85-3.7-1.22-5.88-1.78-12.13-1.72-18.7.2-23.52,8.36-51.16,22.67-80.75,0,0-10.64-61.19,56-63.76,66.63-2.57,55.99,63.76,55.99,63.76,14.31,29.59,22.46,57.23,22.67,80.75Z"/>
          <g class="cls-2">
            <path class="cls-5" d="M303.86,332.94c-1.99,9.61-5.31,17.52-9.58,24.02-9.18,14.01-22.76,21.46-36.91,25.26-10.34,2.78-20.99,3.6-30.45,3.6-7.29,0-15.28-.49-23.29-1.98-2.25-.42-4.49-.92-6.73-1.51-12.62-3.32-24.8-9.51-33.87-20.62-5.94-7.29-10.55-16.69-13.06-28.78-1.54-7.43-2.03-15.45-1.54-23.97.24,4.12.75,8.09,1.54,11.9,2.51,12.09,7.12,21.49,13.06,28.78,9.08,11.11,21.26,17.31,33.87,20.62,2.23.59,4.48,1.08,6.73,1.51,8.01,1.49,16,1.98,23.29,1.98,9.46,0,20.11-.82,30.45-3.6,14.15-3.8,27.73-11.26,36.91-25.26,4.27-6.5,7.59-14.41,9.58-24.02.79-3.82,1.3-7.79,1.54-11.9.49,8.52,0,16.54-1.54,23.97Z"/>
          </g>
          <path class="cls-5" d="M161.91,362.64c-2.79-2.26-5.08-5.07-7.01-8.09-1.94-3.02-3.36-6.32-4.66-9.64-1.28-3.33-2.28-6.75-3.09-10.2-.79-3.47-1.36-6.99-1.71-10.52-.37-3.53-.46-7.07-.42-10.6.04-3.53.28-7.04.66-10.53.79-6.97,2.13-13.84,3.94-20.56.42-1.55,2.01-2.47,3.57-2.05,1.49.4,2.4,1.9,2.09,3.39v.04c-.69,3.3-1.35,6.59-1.9,9.9-.53,3.31-.94,6.63-1.29,9.95-.61,6.64-.82,13.3-.23,19.87.28,3.29.75,6.54,1.43,9.76.68,3.23,1.51,6.42,2.59,9.51,1.07,3.1,2.41,6.08,3.82,9.03,1.38,2.97,2.95,5.85,4.47,8.91v.02c.38.73.08,1.63-.66,1.99-.54.27-1.16.18-1.6-.18Z"/>
          <path class="cls-5" d="M291.56,249.15c4.39,8.83,8.08,18.04,10.97,27.53.38,1.18.68,2.39,1.02,3.58.32,1.2.68,2.39.97,3.6.58,2.42,1.18,4.84,1.64,7.29.53,2.44.91,4.91,1.32,7.38.22,1.23.33,2.48.48,3.72.15,1.24.3,2.49.38,3.74.49,5,.53,10.06.22,15.1-.1,1.26-.15,2.53-.3,3.79l-.48,3.78c-.45,2.5-.9,5.01-1.53,7.46-1.25,4.91-2.9,9.77-5.27,14.29-2.36,4.52-5.34,8.75-9.04,12.22-.59.55-1.52.53-2.07-.07-.46-.49-.52-1.22-.18-1.77,5.03-8.17,8.6-16.85,10.69-26.07,2.05-9.2,2.36-18.72,1.69-28.23-.69-9.51-2.46-19-4.83-28.35-2.38-9.36-5.27-18.62-8.36-27.88h0c-.25-.77.16-1.59.92-1.85.7-.23,1.45.09,1.77.73Z"/>
          <g class="cls-2">
            <path class="cls-5" d="M273.22,314.25v-17.4c0-5.18-4.24-9.42-9.42-9.42h-74.35c-5.18,0-9.42,4.24-9.42,9.42v17.4h-31.78l2.57,22.4c9.05-1.22,19.16-2.53,29.21-3.72v11.35c0,5.18,4.24,9.42,9.42,9.42h74.35c5.18,0,9.42-4.24,9.42-9.42v-11.51c10.32,1.3,20.68,2.76,29.73,4.1.33-1.28.64-2.59.92-3.93,1.22-5.88,1.78-12.13,1.72-18.7h-32.36Z"/>
          </g>
        </g>
        <g class="cls-2">
          <path class="cls-5" d="M285.02,237.94c-13.72,8.26-33.79,13.47-56.16,13.47-24.04,0-45.44-6.01-59.14-15.37.4-.85.8-1.69,1.21-2.55,0,0-7.65-43.98,30.63-58.93,8.46-1.75,17.66-2.72,27.29-2.72s19.45,1.03,28.14,2.91c32.92,15.1,25.92,58.75,25.92,58.75.72,1.48,1.43,2.97,2.1,4.44Z"/>
        </g>
        <g>
          <path class="cls-8" d="M268.33,306.49s24.89-1.9,35.36,5.64c11.13,8.02-.08,17.29-.08,17.29,0,0-20.04-4.38-36.88-3.75l1.6-19.18Z"/>
          <g class="cls-2">
            <path class="cls-5" d="M303.61,329.42s-20.05-4.38-36.88-3.75l.6-7.29c11.7-.36,24.81,1.64,31.61,2.86,3.62.65,7.28-1.17,8.78-4.52.01-.03.03-.06.04-.1,3.29,6.63-4.17,12.8-4.17,12.8Z"/>
          </g>
          <path class="cls-8" d="M187.58,306.49s-24.89-1.9-35.36,5.64c-11.13,8.02.08,17.29.08,17.29,0,0,20.04-4.38,36.88-3.75l-1.6-19.18Z"/>
          <path class="cls-9" d="M304.37,332.56l-1.38-.3c-.2-.04-19.9-4.29-36.15-3.69l-3.28.12,2.07-24.92,2.47-.19c1.06-.08,26.07-1.89,37.28,6.18,3.94,2.84,6,6.2,6.13,10.01.22,6.61-5.8,11.67-6.06,11.88l-1.09.9ZM270.16,322.7c13.56,0,27.9,2.63,32.55,3.56,1.32-1.41,3.09-3.88,3-6.31-.07-1.9-1.32-3.74-3.71-5.46-7.05-5.07-22.96-5.56-30.97-5.24l-1.12,13.45h.26Z"/>
          <path class="cls-9" d="M151.54,332.57l-1.09-.9c-.26-.21-6.28-5.27-6.06-11.88.13-3.8,2.19-7.17,6.13-10.01,11.21-8.07,36.23-6.27,37.28-6.18l2.47.19,2.07,24.92-3.28-.12c-16.27-.6-35.95,3.64-36.15,3.69l-1.38.3ZM180.92,309.18c-8.51,0-20.98.99-27,5.32-2.4,1.73-3.65,3.57-3.71,5.48-.08,2.42,1.7,4.89,3,6.29,4.65-.93,18.99-3.56,32.55-3.56h.26l-1.12-13.45c-1.17-.05-2.51-.07-3.97-.07Z"/>
          <path class="cls-8" d="M269.94,299.07v35.44c0,6.58-5.18,11.96-11.51,11.96h-62.84c-6.33,0-11.51-5.38-11.51-11.96v-35.44c0-6.57,5.17-11.95,11.51-11.95h62.84c5.05,0,9.38,3.44,10.91,8.17.38,1.19.59,2.46.59,3.78Z"/>
          <g class="cls-2">
            <path class="cls-5" d="M269.94,299.07v35.44c0,6.58-5.18,11.96-11.51,11.96h-62.84c-6.33,0-11.51-5.38-11.51-11.96v-11.93c10.84,6.23,32.32,15.59,53.88,7.87,10.53-3.78,22.6-16.71,22.6-16.71,0,0,.47,13.57,2.4,13.36,5.39-.6,5.35-28.06,6.37-31.81.38,1.19.59,2.46.59,3.78Z"/>
          </g>
          <path class="cls-9" d="M258.86,349.37h-63.7c-7.71,0-13.99-6.27-13.99-13.99v-37.19c0-7.71,6.27-13.98,13.99-13.98h63.7c7.71,0,13.99,6.27,13.99,13.98v37.19c0,7.71-6.27,13.99-13.99,13.99ZM195.16,290.03c-4.5,0-8.17,3.66-8.17,8.17v37.19c0,4.5,3.66,8.17,8.17,8.17h63.7c4.5,0,8.17-3.66,8.17-8.17v-37.19c0-4.5-3.66-8.17-8.17-8.17h-63.7Z"/>
          <ellipse class="cls-6" cx="249.27" cy="316.79" rx="9.92" ry="10.31"/>
          <path class="cls-8" d="M259.2,316.8c0,.7-.07,1.38-.2,2.05-.92-4.72-4.93-8.27-9.73-8.27s-8.82,3.55-9.73,8.27c-.13-.66-.2-1.34-.2-2.05,0-5.69,4.44-10.31,9.92-10.31s9.93,4.62,9.93,10.31Z"/>
          <path class="cls-7" d="M259.19,316.79c0,5.7-4.45,10.31-9.92,10.31s-9.92-4.61-9.92-10.31c0-.95.13-1.89.36-2.76,1.17,4.35,5.01,7.54,9.56,7.54s8.4-3.19,9.56-7.54c.23.87.36,1.81.36,2.76Z"/>
          <path class="cls-9" d="M249.27,329.28c-6.67,0-12.11-5.6-12.11-12.49s5.43-12.49,12.11-12.49,12.11,5.6,12.11,12.49-5.43,12.49-12.11,12.49ZM249.27,308.67c-4.27,0-7.74,3.64-7.74,8.12s3.47,8.12,7.74,8.12,7.74-3.64,7.74-8.12-3.47-8.12-7.74-8.12Z"/>
          <path class="cls-9" d="M217.86,349.37c-1.61,0-2.91-1.3-2.91-2.91v-18.14c0-3.58-1.63-6.99-4.37-9.13l-1.6-1.25c-4.13-3.23-6.6-8.36-6.6-13.71v-17.11c0-1.61,1.3-2.91,2.91-2.91s2.91,1.3,2.91,2.91v17.11c0,3.58,1.63,6.99,4.37,9.13l1.6,1.25c4.13,3.23,6.6,8.36,6.6,13.71v18.14c0,1.61-1.3,2.91-2.91,2.91Z"/>
        </g>
        <g>
          <path class="cls-8" d="M333.27,81.71s25.4,8.14,28.2,12.61c5.19,8.3,6.95,58.59-5.49,72.37-4.87,5.4-42.38,12.17-42.38,12.17l19.67-97.16Z"/>
          <g class="cls-2">
            <path class="cls-5" d="M313.6,178.87s37.51-6.78,42.38-12.18c4.86-5.38,7.55-16.33,8.71-28.17-.4.4-13.13,12.61-40.97-9.39-.01-.01-.04-.03-.05-.04l-10.08,49.78Z"/>
          </g>
          <polygon class="cls-10" points="228.05 139.81 228.08 140.24 227.79 140.04 228.05 139.81"/>
          <polygon class="cls-10" points="227.79 140.04 227.53 140.27 227.51 139.84 227.79 140.04"/>
          <path class="cls-8" d="M147.81,187.57s-38.02-2.81-43.42-7.67c-5.39-4.84-9.22-15.45-11.61-27.1h0c-3.75-18.19-4.03-38.93-1.41-44.3,2.32-4.74,26.73-15.5,26.73-15.5l14.5,46.12,15.23,48.45Z"/>
          <g class="cls-2">
            <path class="cls-5" d="M147.81,187.57s-38.02-2.81-43.42-7.67c-5.39-4.84-9.22-15.45-11.61-27.1.44.35,14.38,11.17,39.76-13.63.01-.01.03-.03.05-.04l15.23,48.45Z"/>
          </g>
          <path class="cls-5" d="M310.11,182.28l21.08-104.11,2.91.93c7.92,2.54,26.68,8.96,29.69,13.77,5.76,9.2,7.79,60.63-5.78,75.66-5.23,5.8-37.51,11.88-43.93,13.03l-3.97.72ZM335.34,85.27l-18.25,90.16c16.87-3.25,34.4-7.84,36.86-10.57,11.49-12.73,9.85-61.65,5.2-69.08-1.39-2.03-12.89-6.83-23.81-10.5Z"/>
          <path class="cls-5" d="M151.63,190.6l-4.03-.3c-6.5-.48-39.24-3.14-45.05-8.36-15.06-13.53-18.43-64.89-13.67-74.64,2.49-5.1,20.47-13.45,28.09-16.8l2.8-1.23,31.86,101.34ZM116.39,96.76c-10.47,4.79-21.41,10.77-22.58,12.94-3.85,7.88-.35,56.69,12.41,68.15,2.73,2.46,20.64,5.19,37.76,6.65l-27.59-87.75Z"/>
          <circle class="cls-8" cx="227.31" cy="118.84" r="115.63"/>
          <g class="cls-2">
            <path class="cls-5" d="M342.79,112.78c3.35,63.77-45.64,118.19-109.41,121.53-63.77,3.35-118.19-45.64-121.54-109.41-.35-6.73-.12-13.37.65-19.84,12.22,53.87,61.77,92.74,118.81,89.75,57.04-2.99,102.25-46.83,108.76-101.69,1.45,6.35,2.37,12.93,2.73,19.66Z"/>
          </g>
          <path class="cls-5" d="M227.17,237.22c-29.28,0-57.14-10.67-79.06-30.4-23.5-21.16-37.35-50.19-39.01-81.77-1.66-31.58,9.08-61.91,30.24-85.4C160.5,16.14,189.54,2.29,221.11.63c31.58-1.65,61.91,9.08,85.4,30.24,23.5,21.16,37.35,50.19,39.01,81.77,1.66,31.58-9.08,61.91-30.24,85.4-21.16,23.5-50.2,37.35-81.77,39.01-2.12.11-4.24.17-6.35.17ZM227.38,5.95c-1.99,0-3.98.05-5.98.16-62.16,3.26-110.08,56.49-106.82,118.65,3.16,60.16,53.11,106.97,112.67,106.98,1.99,0,3.98-.05,5.98-.16,30.11-1.58,57.81-14.79,77.98-37.2,20.18-22.41,30.42-51.34,28.84-81.45-3.16-60.16-53.11-106.98-112.67-106.98Z"/>
          <path class="cls-5" d="M227.17,237.22c-29.28,0-57.14-10.67-79.06-30.4-23.5-21.16-37.35-50.19-39.01-81.77-1.66-31.58,9.08-61.91,30.24-85.4C160.5,16.14,189.54,2.29,221.11.63c31.58-1.65,61.91,9.08,85.4,30.24,23.5,21.16,37.35,50.19,39.01,81.77,1.66,31.58-9.08,61.91-30.24,85.4-21.16,23.5-50.2,37.35-81.77,39.01-2.12.11-4.24.17-6.35.17ZM227.38,5.95c-1.99,0-3.98.05-5.98.16-62.16,3.26-110.08,56.49-106.82,118.65,3.16,60.16,53.11,106.97,112.67,106.98,1.99,0,3.98-.05,5.98-.16,30.11-1.58,57.81-14.79,77.98-37.2,20.18-22.41,30.42-51.34,28.84-81.45-3.16-60.16-53.11-106.98-112.67-106.98Z"/>
          <path class="cls-5" d="M227.17,237.22c-29.28,0-57.14-10.67-79.06-30.4-23.5-21.16-37.35-50.19-39.01-81.77-1.66-31.58,9.08-61.91,30.24-85.4C160.5,16.14,189.54,2.29,221.11.63c31.58-1.65,61.91,9.08,85.4,30.24,23.5,21.16,37.35,50.19,39.01,81.77,1.66,31.58-9.08,61.91-30.24,85.4-21.16,23.5-50.2,37.35-81.77,39.01-2.12.11-4.24.17-6.35.17ZM227.38,5.95c-1.99,0-3.98.05-5.98.16-62.16,3.26-110.08,56.49-106.82,118.65,3.16,60.16,53.11,106.97,112.67,106.98,1.99,0,3.98-.05,5.98-.16,30.11-1.58,57.81-14.79,77.98-37.2,20.18-22.41,30.42-51.34,28.84-81.45-3.16-60.16-53.11-106.98-112.67-106.98Z"/>
          <path class="cls-5" d="M227.25,237.21c-51.36,0-97.15-33.2-112.77-82.54-.02-.06-.05-.12-.07-.19-2.99-9.47-4.78-19.37-5.31-29.44-.23-4.46-.22-8.93.05-13.28C112.67,51.58,160.8,3.8,221.11.63c60.32-3.16,113.2,39.33,122.98,98.84.71,4.31,1.2,8.74,1.43,13.16h0c.53,10.05-.21,20.09-2.18,29.83-.01.07-.03.13-.05.2-10.8,52.76-55.91,91.55-109.77,94.38-2.09.11-4.19.16-6.27.16ZM119.65,152.85c15.44,49.05,62.16,81.45,113.58,78.73,51.42-2.7,94.48-39.78,104.72-90.16.01-.07.03-.15.05-.22,1.86-9.23,2.54-18.74,2.05-28.27-.22-4.21-.68-8.44-1.36-12.55-9.33-56.76-59.76-97.29-117.29-94.26-57.52,3.02-103.42,48.58-106.77,105.99-.26,4.15-.27,8.41-.05,12.66.5,9.54,2.18,18.93,5,27.9.02.06.05.12.07.19h0Z"/>
          <path class="cls-5" d="M114.29,97.08c-.25,0-.51-.04-.77-.11-1.38-.4-2.21-1.8-1.91-3.21C122.84,41.72,167.87,3.42,221.11.63c53.28-2.77,102.07,30.61,118.67,81.23.45,1.37-.24,2.85-1.57,3.39-1.33.54-2.86-.03-3.49-1.32-20.47-41.4-64.68-66.55-112.6-64.02-47.9,2.51-89.22,32.11-105.26,75.39-.41,1.1-1.45,1.79-2.57,1.79ZM227.32,5.95c-1.97,0-3.94.05-5.93.16-37.56,1.97-70.83,22.47-89.95,53.09,21.65-26.19,54.23-42.86,90.38-44.76,36.17-1.9,70.33,11.29,94.59,35.08-21.04-26.97-53.77-43.56-89.1-43.56Z"/>
          <path class="cls-5" d="M342.78,112.78c.52,9.99-.23,19.77-2.13,29.14,0,0-.01,0-.01.01-18,39.75-58.8,75.29-108.03,77.87-49.23,2.58-93.51-28.48-115.58-66.13,0-.01-.01-.01-.01-.01-2.88-9.12-4.66-18.76-5.18-28.76-.23-4.37-.21-8.7.05-12.97,13.32-43.92,57.16-77.49,110.84-80.31,53.7-2.82,100.82,26,118.65,68.3.7,4.21,1.17,8.5,1.39,12.86Z"/>
          <g class="cls-12">
            <path class="cls-11" d="M342.79,112.79c.52,9.99-.23,19.77-2.13,29.14,0,0-.01,0-.01.01-18,39.75-58.8,75.28-108.03,77.87-49.23,2.58-93.51-28.48-115.58-66.13,0-.01-.01-.01-.01-.01-1.71-5.43-3.04-11.05-3.94-16.82,27.42,27.73,66.17,46.91,108.08,44.71,53.39-2.8,98.09-39.58,119.99-82.18.08.19.17.36.24.55.7,4.21,1.17,8.5,1.39,12.86Z"/>
          </g>
          <g class="cls-1">
            <ellipse class="cls-8" cx="307.14" cy="115.31" rx="19.26" ry="13.95" transform="translate(159.81 408.44) rotate(-83.89)"/>
          </g>
          <g class="cls-1">
            <ellipse class="cls-8" cx="292.86" cy="154.6" rx="8.84" ry="7.59" transform="translate(71.8 401.17) rotate(-75.95)"/>
          </g>
          <g class="cls-1">
            <path class="cls-8" d="M146,158.11s-19.92-50.32,6.34-72.86c26.26-22.54,66.19-25.37,65.44-22.74,0,0-43.42,13.92-58.17,50.12-11.37,27.92-13.61,45.47-13.61,45.47Z"/>
          </g>
        </g>
        <g>
          <path class="cls-8" d="M240.47,240.14s-9.94,52.22-53.15,67.83c-43.21,15.62-63.83-3.55-63.27-27.14.13-5.43,1.41-10.89,3.54-16.24,7.16-17.96,23.99-34.81,39.66-45.54l2.51,2.23s1.89,4.14,4.68,8.86c1.93,6.94,5.41,13.19,8.23,13.4-1.5,3.76-5.87,11.86-15.88,12.86-12.07,1.2-20.13-1.79-21.31-2.26,24.8,11.79,35.75-4.83,38.73-10.74.61-1.2.88-1.96.88-1.96,0,0-7.19-6.19-11.07-12.93v-.02c-2.47-4.29-3.58-8.8-.63-12.06.11-.13.23-.25.36-.38.39-.38.81-.7,1.25-.99,9.12-5.86,27.56,8.52,27.56,8.52,0,0,36.23-10.96,54.82-11.33,3.86-.08,6.46.67,7.95,2,5.69,5.07-4.97,18.5-24.86,25.87Z"/>
          <g class="cls-2">
            <path class="cls-5" d="M173.61,227.76s-13.6,9.67-22.15,29.36c0,0,8.73,1.54,21.37-2.39,12.64-3.93,12.64-14.11,12.64-14.11,0,0-10.11-4.39-11.86-12.85Z"/>
          </g>
          <g class="cls-2">
            <path class="cls-5" d="M191.19,232.51c2.16,1.12,2.6,4.01.87,5.71-2.2,2.16-5.15,4.58-7.84,5.18-.52.13-1.04.17-1.53.14h0c.47-1.17.66-1.92.66-1.92-3.21-2.58-6.4-7.26-8.88-11.49-.15-.54-.29-1.08-.42-1.62v-.02c-1.03-4.32-1.42-8.76-.63-12.06.27-1.17.7-2.18,1.29-3.01,0,0,.05.61.32,1.65.91,3.37,4.23,11.24,16.18,17.42Z"/>
          </g>
          <g class="cls-2">
            <path class="cls-5" d="M240.47,240.14s-9.94,52.22-53.15,67.83c-43.21,15.62-63.83-3.55-63.27-27.14.13-5.43,1.41-10.89,3.54-16.24.36-.45.56-.7.56-.7,0,0-5.77,42.64,44.68,34,42.29-7.24,52.45-49.35,54.63-62.78.4-2.48,2.22-4.49,4.65-5.13,8.23-2.17,26.53-7.72,33.22-15.72,5.69,5.07-4.97,18.5-24.86,25.87Z"/>
          </g>
          <path class="cls-5" d="M187.32,310.88c-.48,0-.96-.12-1.41-.36-17.52-9.7-21.91-24.05-22.5-34.38-.63-11.04,2.81-19.74,2.96-20.11.6-1.49,2.3-2.21,3.78-1.61,1.49.6,2.21,2.29,1.61,3.78h0c-.5,1.27-12.03,31.18,16.96,47.23,1.41.78,1.91,2.55,1.14,3.95-.53.96-1.52,1.5-2.55,1.5Z"/>
          <path class="cls-5" d="M173.19,245.46c-.68.97-1.34,2.01-1.91,3.05-.58,1.04-1.13,2.09-1.63,3.15-.48,1.08-.91,2.16-1.31,3.25-.39,1.09-.73,2.2-1.07,3.29v.04c-.5,1.54-2.13,2.39-3.67,1.91-1.54-.48-2.39-2.12-1.91-3.66.04-.14.1-.29.16-.41.59-1.2,1.24-2.37,1.98-3.48.72-1.13,1.56-2.17,2.42-3.18.88-1,1.81-1.95,2.84-2.79,1.04-.83,2.11-1.59,3.37-2.16.31-.14.68,0,.82.31.09.21.06.44-.06.61l-.04.06Z"/>
          <path class="cls-5" d="M168.9,221.45c-8.41,5.79-16.2,12.58-23.01,20.18-3.4,3.8-6.54,7.82-9.29,12.06-1.37,2.12-2.65,4.3-3.81,6.52-1.14,2.23-2.16,4.52-3.02,6.84-1.74,4.65-2.75,9.51-2.81,14.34-.07,4.84.89,9.65,2.97,13.89,2.06,4.24,5.28,7.84,9.27,10.37,1.98,1.29,4.17,2.27,6.44,3.04,2.28.77,4.65,1.32,7.08,1.61,1.2.2,2.44.23,3.67.35,1.24,0,2.47.1,3.72.03l1.86-.05,1.87-.15c1.25-.07,2.49-.27,3.73-.42,4.98-.69,9.92-1.91,14.77-3.47l3.62-1.23c1.19-.43,2.33-.92,3.5-1.37,2.3-.98,4.56-2.07,6.74-3.3,4.37-2.45,8.45-5.41,12.2-8.76,3.75-3.35,7.17-7.09,10.25-11.11,3.07-4.02,5.8-8.33,8.23-12.8,2.44-4.47,4.53-9.13,6.35-13.9.9-2.39,1.73-4.8,2.47-7.24.38-1.22.72-2.44,1.05-3.67.32-1.21.63-2.49.86-3.62v-.02c.21-1.02.94-1.82,1.85-2.17,3.91-1.48,7.72-3.23,11.26-5.39,3.54-2.13,6.87-4.65,9.54-7.56,1.31-1.45,2.49-3.03,3.14-4.56.35-.76.53-1.5.53-2.06,0-.57-.11-.87-.34-1.17-.24-.29-.69-.65-1.4-.9-.7-.25-1.54-.44-2.45-.51-.46-.04-.91-.09-1.4-.08-.48,0-.95-.02-1.48.02l-3.11.17c-8.39.75-16.88,2.48-25.28,4.39-8.4,1.96-16.8,4.17-25.05,6.62-.93.27-1.88.07-2.6-.47l-.03-.02c-1.9-1.44-4.05-2.87-6.18-4.13-2.14-1.27-4.35-2.41-6.58-3.33-2.23-.91-4.52-1.61-6.66-1.79-2.17-.21-4,.21-5.25,1.26-1.33,1.11-1.75,2.36-1.47,4.28.29,1.9,1.36,4.03,2.61,6.02,1.29,2,2.83,3.94,4.49,5.79,1.64,1.83,3.47,3.66,5.26,5.24l.05.04c.92.81,1.19,2.08.79,3.16h0c-.24.66-.44,1.1-.68,1.62-.23.5-.47.99-.73,1.47-.52.96-1.08,1.89-1.68,2.79-1.21,1.8-2.59,3.5-4.17,5.02-3.14,3.05-7.11,5.43-11.42,6.52-4.3,1.15-8.78,1.04-12.91.14-4.14-.92-7.99-2.65-11.31-5.06-.44-.32-.53-.93-.22-1.36.24-.33.66-.47,1.04-.37h0c3.84,1.02,7.54,1.98,11.23,2.39,1.84.25,3.67.28,5.46.17l1.34-.14c.44-.06.88-.16,1.31-.23.44-.06.87-.18,1.29-.29.43-.1.86-.21,1.27-.36,3.35-1.06,6.33-3.03,8.82-5.56,1.25-1.26,2.36-2.67,3.38-4.16.5-.74.97-1.52,1.4-2.31.21-.39.42-.79.62-1.18.19-.37.4-.84.51-1.11l.83,3.2c-2.11-1.87-3.96-3.73-5.8-5.77-1.82-2.02-3.53-4.17-5.06-6.54-.76-1.19-1.46-2.45-2.07-3.8-.61-1.35-1.13-2.81-1.38-4.45-.26-1.62-.24-3.47.38-5.26.61-1.8,1.79-3.33,3.14-4.43,1.36-1.13,3.02-1.9,4.67-2.28,1.65-.38,3.27-.43,4.79-.29,3.05.28,5.79,1.16,8.37,2.21,2.58,1.07,5,2.33,7.34,3.71,2.35,1.4,4.54,2.85,6.79,4.55l-2.63-.49c8.44-2.5,16.87-4.72,25.43-6.72,8.56-1.95,17.17-3.72,26.13-4.52,1.13-.08,2.27-.12,3.41-.18.55-.04,1.17-.03,1.78-.02.6,0,1.23.05,1.86.11,1.25.11,2.56.37,3.91.85,1.33.48,2.8,1.33,3.92,2.72.14.18.28.35.41.53l.33.6c.11.2.21.4.31.61l.21.64.19.65c.04.21.06.42.09.64.06.43.1.85.07,1.24-.04,1.62-.46,3.02-1,4.24-1.07,2.48-2.59,4.4-4.18,6.17-3.22,3.51-6.93,6.27-10.83,8.63-3.9,2.37-8.02,4.27-12.25,5.87l1.85-2.18c-.29,1.43-.61,2.69-.95,4.01-.35,1.3-.71,2.6-1.11,3.88-.78,2.57-1.65,5.1-2.59,7.6-1.91,5-4.11,9.9-6.68,14.61-2.56,4.72-5.45,9.27-8.72,13.56-3.28,4.28-6.94,8.3-10.99,11.91-4.05,3.62-8.48,6.82-13.23,9.49-2.37,1.34-4.83,2.52-7.34,3.59-1.27.49-2.53,1.03-3.8,1.48l-3.8,1.3c-5.1,1.64-10.35,2.94-15.74,3.7-1.35.17-2.69.37-4.06.46l-2.04.16-2.06.06c-1.37.07-2.75-.03-4.13-.04-1.38-.12-2.76-.16-4.14-.39-2.76-.33-5.51-.97-8.18-1.87-2.67-.91-5.29-2.08-7.7-3.65-4.85-3.07-8.86-7.55-11.37-12.72-2.53-5.17-3.64-10.9-3.56-16.5.07-5.63,1.25-11.16,3.17-16.29.95-2.58,2.07-5.08,3.31-7.5,1.26-2.41,2.63-4.75,4.1-7.02,2.95-4.53,6.26-8.78,9.84-12.77,7.16-7.98,15.25-15.03,24.06-21.1,1.32-.91,3.13-.58,4.05.74.91,1.32.58,3.13-.74,4.05h0s-.01,0-.01,0Z"/>
        </g>
      </g>
      <path class="cls-8" d="M22.87,27.91c16.09-6.39,34.55,1.45,41.13,17.47,3.07,7.48,3.08,15.46.59,22.55-1.11,3.16-.01,6.67,2.66,8.68l8.8,6.62-16.4-2.16h0c-1.98-.26-3.99.27-5.56,1.49-2.08,1.62-4.4,3-6.93,4.08-15.96,6.86-34.69-.51-41.66-16.42-7.23-16.49.64-35.67,17.38-42.32Z"/>
      <path class="cls-5" d="M34.68,91.57c-13.16,0-25.74-7.64-31.34-20.4-3.76-8.56-3.87-18.04-.32-26.68,3.55-8.64,10.29-15.3,18.98-18.76h0c17.28-6.87,37.09,1.55,44.16,18.76,3.17,7.73,3.4,16.33.64,24.22-.77,2.19-.02,4.62,1.86,6.03l8.8,6.62c.85.64,1.17,1.78.76,2.76-.4.99-1.42,1.57-2.48,1.44l-16.4-2.16c-1.36-.18-2.75.19-3.82,1.02-2.28,1.77-4.78,3.24-7.44,4.39-4.36,1.88-8.92,2.76-13.4,2.77ZM34.51,28.02c-3.6,0-7.24.66-10.77,2.06h0c-7.5,2.98-13.31,8.73-16.37,16.18-3.06,7.46-2.96,15.63.28,23.02,6.47,14.75,23.78,21.58,38.59,15.21,2.3-.99,4.46-2.26,6.42-3.78,2.05-1.59,4.71-2.3,7.31-1.96l7.55.99-1.66-1.25c-3.52-2.65-4.91-7.2-3.47-11.33,2.38-6.8,2.19-14.22-.55-20.89-4.65-11.33-15.72-18.25-27.32-18.25ZM22.87,27.91h0,0Z"/>
      <g class="cls-14">
        <path class="cls-5" d="M4.75,68.37c-.12-.33-.24-.66-.34-.99-.06-.17-.11-.34-.16-.51-.1-.34-.2-.67-.29-1.01-.04-.15-.08-.29-.12-.44-.12-.45-.22-.9-.32-1.35-.04-.2-.08-.39-.12-.59-.05-.27-.1-.54-.15-.81-.04-.24-.08-.48-.11-.72-.03-.22-.06-.45-.09-.67-.03-.26-.06-.52-.09-.78-.02-.16-.02-.31-.04-.47-.05-.61-.08-1.22-.1-1.83,0-.09,0-.17,0-.26,0-.34,0-.68,0-1.02,0-.1,0-.2,0-.31,0-.35.02-.71.04-1.06,0-.03,0-.05,0-.08.1-1.6.32-3.19.66-4.75.05,4.14.91,8.35,2.68,12.39,5.96,13.59,20.5,20.94,34.56,18.52,14.85-2.7,21.7-8.56,24.52-15.33.01-.04,2.29-5.74,2.3-5.78.43-1.23-1.5-2.2-1.22-3.48,0,0,0,0,0,0,0,.32,0,.63,0,.94,0,0,0,0,0,0-.06,3.41-.67,6.76-1.78,9.93-1.11,3.16-.01,6.67,2.66,8.68l8.8,6.62-16.4-2.16c-1.98-.26-3.99.27-5.56,1.49-2.08,1.62-4.4,3-6.93,4.08-.46.2-.92.38-1.38.55-.43.16-.86.31-1.3.45-.07.02-.13.05-.2.07-.4.13-.8.24-1.2.35-.1.03-.2.06-.3.09-.38.1-.76.19-1.14.27-.12.03-.25.06-.37.09-.36.08-.73.14-1.09.21-.14.03-.28.05-.43.08-.35.06-.7.1-1.06.15-.15.02-.31.04-.46.06-.34.04-.69.07-1.03.09-.16.01-.33.03-.49.04-.33.02-.67.03-1,.04-.17,0-.35.01-.52.02-.33,0-.65,0-.98,0-.18,0-.36,0-.54,0-.32-.01-.63-.03-.95-.05-.19-.01-.37-.02-.56-.04-.31-.02-.62-.06-.93-.09-.19-.02-.38-.04-.57-.07-.3-.04-.6-.08-.9-.13-.2-.03-.39-.06-.59-.1-.29-.05-.59-.11-.88-.17-.2-.04-.4-.08-.6-.13-.29-.06-.57-.13-.85-.21-.2-.05-.4-.1-.61-.16-.28-.08-.55-.16-.83-.24-.2-.06-.41-.13-.61-.19-.27-.09-.54-.18-.8-.27-.21-.07-.41-.15-.62-.23-.26-.1-.52-.2-.78-.31-.21-.08-.41-.17-.62-.26-.25-.11-.5-.22-.75-.34-.21-.1-.41-.19-.62-.29-.24-.12-.49-.24-.73-.36-.21-.11-.41-.22-.61-.33-.23-.13-.47-.26-.7-.39-.2-.12-.41-.24-.61-.37-.22-.14-.45-.27-.67-.42-.2-.13-.4-.27-.6-.4-.21-.15-.43-.29-.64-.44-.2-.14-.4-.29-.59-.44-.2-.15-.41-.31-.61-.46-.2-.16-.39-.32-.58-.48-.19-.16-.39-.32-.58-.49-.19-.17-.38-.34-.57-.51-.18-.17-.37-.33-.55-.51-.19-.18-.37-.37-.56-.55-.17-.17-.35-.35-.52-.52-.18-.19-.36-.39-.54-.59-.16-.18-.33-.36-.49-.54-.18-.21-.35-.42-.52-.63-.15-.19-.31-.37-.45-.56-.17-.22-.34-.45-.5-.68-.14-.19-.28-.37-.42-.56-.17-.24-.33-.48-.49-.73-.12-.19-.25-.37-.37-.56-.16-.26-.32-.53-.48-.8-.11-.18-.22-.36-.33-.55-.17-.3-.33-.61-.49-.92-.08-.16-.17-.31-.25-.47-.24-.47-.46-.96-.68-1.45-.2-.47-.39-.94-.57-1.41-.06-.15-.11-.3-.16-.45Z"/>
      </g>
    </g>
  </g>
</svg>