<?xml version="1.0" encoding="utf-8"?>
<!-- Generator: Adobe Illustrator 28.2.0, SVG Export Plug-In . SVG Version: 6.00 Build 0)  -->
<svg version="1.1" id="Layer_1" xmlns="http://www.w3.org/2000/svg" xmlns:xlink="http://www.w3.org/1999/xlink" x="0px" y="0px"
	 viewBox="0 0 1000 1283" style="enable-background:new 0 0 1000 1283;" xml:space="preserve">
<style type="text/css">
	.st0{fill:#FFB200;}
	.st1{fill:#D66B09;}
	.st2{fill:#371A45;}
	.st3{fill:#FFC536;}
	.st4{fill:#FF9100;}
	.st5{fill:#FFEC90;}
	.st6{opacity:0.41;}
	.st7{fill:#FFFFFF;}
	.st8{opacity:0.3;}
	.st9{fill:#6B184E;}
	.st10{opacity:0.35;}
	.st11{fill:#22A7F0;}
	.st12{opacity:0.7;}
	.st13{opacity:0.5;}
	.st14{fill:#111A28;}
</style>
<path class="st0" d="M796.2,827.7c4.8,13.2,8.8,26.4,11.9,39.8c-57.2,39.7-168.3,93.1-299.9,141.4
	c-131.6,48.3-250.8,79.6-320.1,86.3c-6.3-12.2-11.8-24.8-16.7-38c-0.2-0.6-0.5-1.2-0.7-1.8c-2.1-5.8-4-11.6-5.8-17.5
	c-4.1-13.7-7.3-27.5-9.6-41.2c-0.1-0.6-0.2-1.1-0.3-1.7c-3.3-20.5-4.6-41-4.1-61.3c1-38.6,8.8-76.4,22.6-111.8
	C207,735.9,275.7,664.3,369.1,630c92.6-34,190.5-24.3,271.2,18.7c33.1,17.6,63.3,40.9,89.1,69c13.8,15,26.3,31.5,37.2,49.2
	c0.9,1.4,1.8,2.9,2.6,4.3c7.2,12,13.7,24.6,19.4,37.7c2.1,4.9,4.1,9.8,6.1,14.8C795.2,825,795.7,826.3,796.2,827.7L796.2,827.7z"/>
<path class="st0" d="M812.2,996.6c-2.2,13.4-5.3,26.7-9.1,39.7c-5.4,18.3-12.3,36.1-20.7,53.1c-36.4,74-100.3,134.7-183.8,165.4
	c-83.7,30.7-171.9,25.7-247.7-7.3c-16.6-7.3-32.7-15.9-47.9-25.7c-12-7.7-23.5-16.3-34.4-25.5c82.9-14.5,179.4-40.7,280-77.6
	C649.1,1081.7,739.6,1039.2,812.2,996.6z"/>
<path class="st1" d="M548.5,1118.6c100.6-36.9,191.1-79.4,263.7-122c-2.2,13.4-5.3,26.7-9.1,39.7c-56,34.8-144.5,76.3-246.8,113.8
	c-98,36-188.6,61-253.4,71.6c-12-7.7-23.5-16.3-34.4-25.5C351.4,1181.7,447.9,1155.6,548.5,1118.6L548.5,1118.6z"/>
<path class="st1" d="M794.6,823.6c0.5,1.4,1,2.7,1.6,4.1c4.8,13.2,8.8,26.4,11.9,39.8c-57.2,39.7-168.3,93.1-299.9,141.4
	c-131.6,48.3-250.8,79.6-320.1,86.3c-6.3-12.2-11.8-24.8-16.7-38c-0.2-0.6-0.5-1.2-0.7-1.8c65.4-2.4,186.7-32.2,320.8-81.5
	C631,922.6,746.2,864.4,794.6,823.6L794.6,823.6z"/>
<path class="st1" d="M149.6,944.7l2.8-22.3c45.1,5.6,166.1-23.3,294.4-70.4c153-56.2,253.4-113.5,273.5-141l18.1,13.2
	c-26.5,36.4-140.6,96.2-283.9,148.8C321.1,922.1,198.6,950.9,149.6,944.7L149.6,944.7z"/>
<path class="st1" d="M174.4,833l-1.7-22.4c51.4-3.8,141.9-27.7,236-62.3c98.6-36.2,184.7-77.8,224.7-108.6l13.7,17.8
	c-41.6,32-130,74.9-230.6,111.9C320.5,804.7,227.8,829,174.4,833L174.4,833z"/>
<path class="st1" d="M154.2,1006l1.7-22.4c51.9,4,177-26.4,311.4-75.7C608.3,856.2,727.8,795.2,758,759.6l17.1,14.5
	C742.1,813,621.5,875.2,475.1,929C335.8,980.1,209.8,1010.4,154.2,1006L154.2,1006z"/>
<path class="st1" d="M350.8,1253.1v-5.6l-2.2-5.2l1.1-0.5h1.2c45.1,0,132.7-21.4,223.2-54.6c91-33.4,169.4-72.5,204.7-102.1l7.2,8.6
	c-36.2,30.4-115.9,70.3-208,104.1C484.9,1232,397.9,1253.2,350.8,1253.1L350.8,1253.1z"/>
<path class="st2" d="M484.1,1283c-79.6,0-158.2-27.8-220.7-80.7l-12.9-10.9l16.6-2.9c85.4-15,181.8-41.7,278.7-77.3
	c96.9-35.6,187.6-77.6,262.4-121.4l14.6-8.5l-2.8,16.6c-20.1,120.8-103.9,222.1-218.8,264.3C563.1,1276.2,523.5,1283,484.1,1283
	L484.1,1283z M286.9,1200.9c87.9,66.8,204.6,84.7,308.8,46.5c104.2-38.3,181.6-127.5,205.4-235.3c-72.6,41.2-158.6,80.4-249.9,113.9
	C459.8,1159.6,368.9,1185.4,286.9,1200.9L286.9,1200.9z"/>
<path class="st3" d="M989.7,806.9c16.8,45.8-54.9,117.9-177.5,189.8c-72.6,42.6-163.1,85.1-263.7,122
	c-100.6,36.9-197.1,63.1-280,77.6c-140,24.6-241.3,16-258.1-29.8c-15.3-41.6,42.4-104.8,145-169.9c2.3,13.8,5.5,27.6,9.6,41.2
	c-28.5,20-43,36.5-39.2,47c3.9,10.7,26.4,13.8,62.3,10.3c69.3-6.7,188.5-37.9,320.1-86.3c131.6-48.3,242.7-101.7,299.9-141.4
	c29.6-20.6,44.7-37.5,40.8-48.2c-3.9-10.5-25.6-13.7-60.3-10.5c-5.7-13.1-12.2-25.7-19.4-37.7C889.5,754.4,974.4,765.3,989.7,806.9
	L989.7,806.9z"/>
<path class="st4" d="M155.7,1015.4l2.5,3.8c-25.5,16.8-45.4,32.1-60.5,45.7C109.3,1050.3,128.6,1033.9,155.7,1015.4L155.7,1015.4z"
	/>
<path class="st4" d="M160.8,1022.9l-2.6-3.7c0.4-0.3,0.9-0.6,1.4-0.9L160.8,1022.9L160.8,1022.9z"/>
<path class="st5" d="M892.2,808.8c-4.2-11.4-15.6-19-34.6-22.8c-18.3-3.6-43.8-3.7-76.5-0.2l0.5,4.5l1.4,13.6
	c62.5-6.7,88.5,1.4,92.1,11.2c6,16.4-37.6,60.3-147.5,118c-61.5,32.2-135.2,64.4-213.2,93.1c-45.9,16.8-91.5,31.8-135,44.3
	c-30.5,8.8-59.9,16.4-87.8,22.7c-121.1,27.2-182.8,21.9-188.8,5.5c-3.5-9.6,10.6-32,60.3-66.4c0.9-0.6,1.8-1.2,2.6-1.8l-5.1-7.5
	l-2.6-3.7l-2.5-3.8c-27.1,18.4-46.4,34.9-58,49.5c-12.2,15.2-16,28.4-11.8,39.9c4.1,11.2,15.3,18.2,31.2,22
	c41.6,9.9,115.3-1.8,178.6-16c28.6-6.4,58.9-14.3,90.3-23.4c43.5-12.6,89-27.5,134.8-44.3c78.7-28.9,153.2-61.4,215.4-94
	C815.5,907.5,907.1,849.3,892.2,808.8L892.2,808.8z"/>
<path class="st5" d="M947.6,804.5C932,762,844.7,763.9,774.2,772.9l2.3,18c1.7-0.2,3.4-0.4,5.1-0.6c30.5-3.7,55.6-4.9,76-4.3
	c46.4,1.4,68.3,12.3,72.9,24.7c8.2,22.5-29.1,75-161.7,148.9c-68.5,38.2-151.2,75.5-239.2,107.7c-40.2,14.8-80.3,28-119.2,39.5
	c-46.3,13.7-91.1,24.9-132.8,33.1c-148.9,29.5-211.4,13.6-219.7-8.9c-4.6-12.5,5.2-35,39.8-66.2c15.1-13.6,35-28.9,60.5-45.7
	c0.4-0.3,0.9-0.6,1.4-0.9c0.9-0.6,1.9-1.2,2.9-1.9l-4.9-7.6l-5-7.7c-59.6,38.7-127.4,93.8-111.8,136.2c6,16.4,22.6,26.3,45,31.7
	c52.8,12.6,138.3,0,195.2-11.2c49.9-9.9,104-23.8,159.8-41.2c31.3-9.7,63.1-20.5,95-32.2c88.8-32.6,172.4-70.3,241.7-108.9
	C849.8,935.3,967.8,859.6,947.6,804.5L947.6,804.5z"/>
<path class="st2" d="M133.9,1217.7c-73.2,0-119.2-16.5-130.9-48.5c-16.4-44.6,36.2-108.3,148.2-179.3l10.1-6.4l2,11.8
	c2.3,13.5,5.4,27.1,9.4,40.3l1.6,5.5l-4.7,3.3c-39.4,27.7-36.3,37.7-36.3,37.8c0,0.1,4.3,10,54.1,5.2
	c70.7-6.9,192.7-39.7,318.2-85.8C631,955.4,745.2,901.5,803.6,861c41.1-28.6,37.9-38.9,37.9-39c0-0.1-4.2-9.7-52.1-5.4l-5.7,0.5
	l-2.3-5.2c-5.5-12.6-11.9-25-18.9-36.8l-6.1-10.2l11.8-1.6c131.3-18.2,212.6-3.7,229,40.9l0,0c17.9,48.8-48,121.4-180.9,199.3
	c-75.6,44.3-167.2,86.7-265,122.6c-97.7,35.9-195,62.9-281.4,78C217.8,1213.2,172.1,1217.7,133.9,1217.7L133.9,1217.7z
	 M149.7,1009.6c-95.5,62.3-144.6,119.6-131.9,154.2c14.6,39.7,110.1,49.2,249.3,24.7c85.4-15,181.8-41.7,278.7-77.3
	c96.9-35.6,187.6-77.6,262.4-121.4c121.9-71.5,188.7-140.5,174.1-180.2c-12.7-34.6-87.3-46.5-200.4-32.2c4.1,7.5,8,15.2,11.6,23
	c37.7-2.8,57.7,2.3,62.8,16.1c5.4,14.7-8.5,32.9-43.7,57.4c-60.3,41.9-173.1,95.1-301.7,142.3c-128.6,47.2-249,79.6-322.1,86.7
	c-42.7,4.1-65.1-0.8-70.5-15.5c-5.1-13.8,6.8-30.7,37.4-52.9C153.4,1026.3,151.4,1018,149.7,1009.6L149.7,1009.6z"/>
<g class="st6">
	<path class="st7" d="M808.1,868.6c-6.7,4.6-14,9.4-22.1,14.4c-2.5-9-5.3-17.9-8.6-26.8c-0.5-1.4-1-2.7-1.6-4.1
		c-1.9-5-3.9-10-6.1-14.8c-5.7-13.1-12.2-25.7-19.4-37.7c-0.9-1.4-1.7-2.9-2.6-4.3c-11-17.7-23.5-34.2-37.2-49.2
		c-25.7-28.1-56-51.4-89.1-69c-80.7-43-178.6-52.7-271.2-18.7c-61.8,22.7-112.8,61.8-149.9,110.6c37.8-61.5,95.7-111.2,168.7-138
		c92.6-34,190.5-24.3,271.2,18.7c33.1,17.6,63.4,40.9,89.1,69c13.8,15,26.3,31.4,37.2,49.2c0.9,1.4,1.8,2.9,2.6,4.3
		c7.2,12,13.7,24.5,19.4,37.6c2.1,4.9,4.2,9.8,6.1,14.8c0.5,1.4,1.1,2.7,1.5,4.1C801,842,805,855.3,808.1,868.6L808.1,868.6z"/>
</g>
<path class="st2" d="M183.5,1103.5l-2.5-4.8c-6.4-12.5-12.2-25.6-17.1-38.9c-2.4-6.6-4.6-13.2-6.6-19.8c-4.2-13.8-7.5-28-9.8-42.2
	c-26.7-161.1,65.3-318.9,218.8-375.2C519.8,566.2,692.1,627,776,767.1c7.4,12.4,14.1,25.3,19.8,38.6c2.8,6.3,5.4,12.8,7.8,19.4l0,0
	c4.9,13.3,9,27,12.2,40.7l1.2,5.2l-4.4,3.1c-60.3,41.9-173.1,95.1-301.7,142.3c-128.6,47.2-249,79.6-322.1,86.7L183.5,1103.5
	L183.5,1103.5z M483.7,617.5c-37.4,0-75.2,6.5-111.9,19.9c-146.4,53.8-234.1,204.2-208.7,357.8c2.2,13.5,5.4,27.1,9.4,40.3
	c1.9,6.3,4,12.6,6.3,18.9c4,11,8.7,21.9,13.9,32.3c71.4-7.9,190.4-40.3,312.8-85.3c122.4-44.9,234.1-97.2,293.7-137.4
	c-2.8-11.3-6.3-22.6-10.3-33.6l0,0c-2.3-6.2-4.8-12.5-7.4-18.5c-5.5-12.6-11.9-25-18.9-36.8C702.5,675.1,595.3,617.5,483.7,617.5
	L483.7,617.5z"/>
<g class="st8">
	<path class="st2" d="M398.7,1046.1L398.7,1046.1c-86.5,27-161.3,44.2-210.6,49c-35.9,3.5-58.4,0.4-62.3-10.3
		c-3.9-10.5,10.7-27,39.2-47c-2.4-7.9-4.4-15.7-6.1-23.6c0,0,0,0,0,0c-92.5,61.4-143.5,120.2-129,159.6
		c4.2,11.4,13.6,20.5,27.6,27.3c-1.3-0.4-2.6-0.8-3.9-1.2c45.3,14.4,121.5,12.8,215-3.6c82.9-14.5,179.4-40.7,280-77.6
		c7.8-2.9,15.5-5.8,23.2-8.7C289.3,1170.6,398.7,1046.1,398.7,1046.1L398.7,1046.1z"/>
</g>
<g class="st8">
	<path class="st2" d="M406.6,1000.2c99.8-1.3,308.2-88.7,394.4-128c2.4-1.6,4.8-3.2,7-4.8c-2.1-9.1,4.8-1.8,1.9-10.9
		c-54.4,26.5-309,139.7-422.7,141.2c-5,0.1-9.9-0.1-14.9-0.4C383.5,999.4,395,1000.4,406.6,1000.2L406.6,1000.2z"/>
</g>
<g class="st8">
	<path class="st2" d="M809.9,856.6c-54.4,26.5-309,139.7-422.7,141.2c-59.6,0.8-119.2-27.8-131.7-86.1c-0.2-1.1-0.4-2-0.5-2.7
		c-0.1-0.6-0.2-1.1-0.3-1.7c-3.3-20.5-4.6-41-4.1-61.2c1-38.6,8.8-76.4,22.6-111.8c7.1-18.2,15.7-35.7,25.8-52.3
		c-48.2,37.4-84.5,86.9-106.1,142.3c-13.8,35.4-21.5,73.2-22.6,111.8c-0.5,20.3,0.8,40.8,4.1,61.3c0.1,0.6,0.2,1.1,0.3,1.7
		c2.3,13.8,5.5,27.6,9.6,41.3c1.7,5.8,3.7,11.7,5.8,17.5c0.2,0.6,0.4,1.2,0.7,1.8c4.3,11.6,9.1,22.8,14.5,33.6
		c-2.8,0.4-5.6,0.7-8.3,1.1c70.3-8.4,185.1-39,311.3-85.3c131.6-48.3,242.7-101.7,299.9-141.4C805.9,858.4,812.8,865.6,809.9,856.6
		L809.9,856.6z"/>
</g>
<g class="st8">
	<path class="st2" d="M300.4,1200c15.3,9.9,31.3,18.5,47.9,25.7c75.8,33,163.9,38,247.7,7.3c83.6-30.7,147.4-91.3,183.8-165.4
		c8.4-17.1,15.4-34.8,20.7-53.1c1.7-5.9,3.3-11.8,4.7-17.8c-71.9,41.7-160.7,83.3-259.3,119.5c-92.6,34-181.7,58.8-259.9,73.9
		C290.8,1193.5,295.6,1196.8,300.4,1200L300.4,1200z"/>
</g>
<path class="st7" d="M578.2,621.4H385c-33.9,0-61.5-27.5-61.5-61.5V386.7c0-33.9,27.5-61.5,61.5-61.5h193.2
	c33.9,0,61.5,27.5,61.5,61.5v173.2C639.6,593.8,612.1,621.4,578.2,621.4z"/>
<path class="st7" d="M639.6,385.7V561c0,33.2-28.1,60.4-62.5,60.4H386c-34.4,0-62.5-27.2-62.5-60.4V385.7c0-9.6,2.3-18.7,6.5-26.7
	c3.1-6,7.1-11.4,12-16.1c10.6-10.2,25-16.8,40.9-17.6c1.1-0.1,2.1-0.1,3.2-0.1h191.1c25.2,0,46.9,14.6,56.8,35.4
	c1.1,2.3,2.1,4.7,2.9,7.2C638.6,373.5,639.6,379.5,639.6,385.7L639.6,385.7z"/>
<path class="st2" d="M578.2,325.2c33.8,0,61.5,27.7,61.5,61.5v173.2c0,33.8-27.7,61.5-61.5,61.5H385c-33.8,0-61.5-27.7-61.5-61.5
	V386.7c0-33.8,27.7-61.5,61.5-61.5H578.2 M578.2,312.6H385c-40.9,0-74.1,33.2-74.1,74.1v173.2c0,40.9,33.2,74.1,74.1,74.1h193.2
	c40.9,0,74.1-33.2,74.1-74.1V386.7C652.3,345.8,619,312.6,578.2,312.6L578.2,312.6L578.2,312.6z"/>
<g class="st8">
	<path class="st9" d="M632.8,394.6c-0.3,0.1-0.6,0.3-0.8,0.4c0-0.4,0-0.8,0-1.2c0-0.5,0.1-1.1,0.2-1.6c0-0.1,0.1-0.3,0.1-0.4
		c0-0.1,0-0.1,0-0.2c0-0.2,0.1-0.3,0.1-0.5c0-0.1,0.1-0.3,0.1-0.4c0-0.1,0-0.1,0.1-0.2c0.1-0.1,0.1-0.3,0.2-0.4
		c0.1-0.2,0.1-0.3,0.2-0.5c0,0.2-0.1,0.4-0.1,0.5c-0.1,0.4-0.1,0.8-0.2,1.2C632.6,392.5,632.6,393.5,632.8,394.6L632.8,394.6z"/>
</g>
<path class="st7" d="M394.9,336.1l-5.2,13.6l-4.4,11.5l-3.8,10l-22.5,59c-3.6,1-7.4,1.9-11.2,2.7c-48,9.9-111.4-0.6-197.9-97.6
	c-13.5-15.2-46.2-24.4-32-58.9c14.6-35.3,35.1-30.9,35.1-30.9s-5.4-17.5,6.2-26.3c16.3-12.5,35.7,6,54.5,19.2
	c2.7,1.9,1.5-23.5,19.2-22.7c25.3,1.1,23.9,58.8,23.9,58.8s34.1,37.5,87.1,53.9c13.4,4.2,28.1,7,43.7,7.5
	C390,336.2,392.4,336.2,394.9,336.1L394.9,336.1z"/>
<g class="st10">
	<path class="st2" d="M359,430.2L359,430.2c-49.2,13.7-115.7,9.9-209.1-94.9c-13.5-15.2-46.2-24.4-32-58.9
		c8.7-21.2,19.6-28.1,26.9-30.2c-2.5,3.8-4.2,8.7-7.2,13.9c-16.7,29.3,29,57.8,41.5,52.6c7.7-3.2,10.4-6.3,14.9-21
		c4.7-15.7,12.1-23.1,13-22.2c3.9,4.4,4,59,13.1,78.2c23.1,49,85.4,73.1,130.6,71C356.8,418.5,361.2,424.6,359,430.2L359,430.2z"/>
</g>
<path class="st2" d="M319.5,442.2c-43,0-100.7-20.1-174.3-102.7c-3-3.3-7.3-6.6-11.9-10c-14.2-10.6-33.7-25.1-21.2-55.4
	c10.6-25.6,24.6-32.6,33.5-34.4c-0.6-7.3,0.4-18.3,9.7-25.4c17.7-13.5,36.9,0.7,53.8,13.2c0.5,0.4,1.1,0.8,1.6,1.2
	c2.4-7.9,7.9-19.8,22.4-19.1c27.9,1.2,29.9,49.5,29.9,62.5c9.8,9.8,61.9,58.8,131.7,57.8h0.1c3.4,0,6.2,2.7,6.2,6.1
	c0,3.4-2.7,6.3-6.1,6.3c-82.9,1-140.3-61-142.7-63.6c-1.1-1.2-1.7-2.7-1.6-4.3c0.4-16.8-3.5-51.8-18-52.5
	c-6.2-0.3-8.6,4.7-10.9,13.9c-1,3.8-1.8,7.1-5.4,8.5c-2,0.8-4.3,0.5-6.2-0.8c-2.8-2-5.6-4-8.4-6.1c-17.8-13.2-29.3-20.6-38.8-13.3
	c-7.9,6.1-4.1,19.5-4,19.6c0.6,2.1,0.1,4.4-1.4,6c-1.5,1.6-3.7,2.3-5.9,1.9c-0.5-0.1-15.8-2.3-28,27.2c-8.8,21.4,3.2,30.3,17.1,40.7
	c4.9,3.6,9.9,7.4,13.7,11.7c95.7,107.3,161.6,104.5,202.8,93c3.3-0.9,6.7,1,7.7,4.3c0.9,3.3-1,6.7-4.3,7.7
	C348.9,439.5,335.2,442.2,319.5,442.2L319.5,442.2z"/>
<path class="st2" d="M221.3,237.1l-1.4,19.8c-0.1,1.2-0.5,2.3-1.1,3.3l-0.2,0.2l0,0c-0.3,0.3-0.9,1-1.3,1.6c-0.5,0.6-0.9,1.3-1.3,2
	c-0.9,1.3-1.6,2.8-2.3,4.2c-1.3,2.9-2.2,6-2.6,9.1c-0.3,1.6-0.2,3.1-0.2,4.7c0.2,1.6,0.3,3.2,0.8,4.7c0.7,3.2,2.3,6.1,4,9.1l0.2,0.3
	c0.9,1.5,0.4,3.4-1.1,4.2c-1.3,0.8-3,0.4-4-0.7c-2.5-3.1-4.9-6.4-6.4-10.4c-0.9-1.9-1.3-4-1.9-6c-0.3-2.1-0.7-4.2-0.7-6.3
	c-0.1-4.2,0.5-8.5,1.7-12.5c0.6-2,1.3-4,2.2-5.9c0.4-1,0.9-1.9,1.4-2.9c0.5-1,1-1.8,1.8-3l0,0l-1.3,3.5l1.4-20.3
	c0.2-3.4,3.2-6,6.6-5.8c3.4,0.2,6,3.2,5.8,6.6L221.3,237.1L221.3,237.1z"/>
<path class="st2" d="M263,429c-1.3,0-2.6-0.5-3.6-1.5c-1.9-2-1.8-5.1,0.1-7c33.5-32.1,38.6-109.6,38.6-110.4
	c0.2-2.7,2.5-4.8,5.2-4.6c2.7,0.2,4.8,2.5,4.6,5.2c-0.2,3.3-5.4,82.1-41.6,116.9C265.5,428.6,264.3,429,263,429L263,429z"/>
<path class="st7" d="M695.1,591.3c-2.7,58.8-20.6,82.7-42.9,90.2c-4.6,1.6-10,2.5-14.8,2.3c-15.7-0.5-27.1-7.2-27.1-7.2
	s-5.8,2.4-11.1,1.9c-41.1-4-31.7-28.3-23.4-67.4c2.4-11.2,4.7-23.7,5.7-37.2c4.7-63.9-13.1-124.3-13.1-124.3l6.9-57.3l7.7-63.9
	c0,0,4,3.6,10.5,10.6c5.7,6.1,13.3,14.6,21.8,25.4C650.1,408.6,699.7,490,695.1,591.3L695.1,591.3z"/>
<path class="st2" d="M638.5,690.1c-0.4,0-0.9,0-1.3,0c-12.7-0.4-22.8-4.5-27.4-6.6c-2.7,0.8-7,1.8-11.2,1.4
	c-15.5-1.5-25.3-5.8-31-13.6c-8.8-12.2-4.9-29.6,0-51.7c3-13.5,6.4-28.9,7.7-46c4.6-61.9-12.7-121.4-12.9-122
	c-1-3.3,0.9-6.8,4.2-7.7c3.3-1,6.8,0.9,7.7,4.2c0.7,2.5,18.1,62.2,13.3,126.5c-1.3,18-4.9,33.8-8,47.8c-4.2,19-7.6,34-2.1,41.6
	c3.3,4.6,10.6,7.4,22.1,8.5c3,0.3,6.9-1,8.1-1.5l2.8-1.2l2.7,1.5c0.1,0,10.4,5.9,24.2,6.3c3.9,0.1,8.5-0.6,12.6-2
	c23.5-8,36.5-36.4,38.6-84.6c3.5-78.1-26.5-144-52.3-185.4c-28.1-45.2-57.5-72.2-57.8-72.4c-2.5-2.3-2.7-6.2-0.4-8.8
	c2.3-2.5,6.2-2.7,8.8-0.4c1.2,1.1,30.8,28.2,59.8,74.7c26.8,43.1,58.1,111.5,54.4,192.9c-2.5,54.6-17.9,85.9-47.1,95.8
	C649.2,689.1,643.6,690.1,638.5,690.1L638.5,690.1z"/>
<path class="st2" d="M580.4,519.5c-2,0-3.9-1.2-4.6-3.3c-0.9-2.6,0.4-5.4,3-6.3c3.4-1.2,83.1-29.7,112-3.7c2,1.8,2.2,4.9,0.4,7
	c-1.8,2-4.9,2.2-7,0.4c-20.4-18.3-80.6-2.2-102.1,5.6C581.5,519.4,581,519.5,580.4,519.5L580.4,519.5z"/>
<path class="st7" d="M625.6,611.2H336.1c-0.8-23.5-0.6-46.1,0.3-67.7c0.8-20,2.3-39.2,4.2-57.4c1.7-16.6,3.8-32.5,6.2-47.4
	c0.3-2,0.7-3.9,1.1-5.8c5.9-26.5,21.6-44.9,32.5-62.7c1.8-3,3.5-6,5-9c1.7-3.5,3.1-7,4.2-10.6c0.1-0.3,0.2-0.6,0.2-0.9
	c0.7-3.9-0.3-8.7-2.1-13.6c-3.9-11-11-23-9-29c3.3-9.8,6.2-17.5,8.4-23c2.4-6.2,3.9-9.5,3.9-9.5h180c0,0,1.5,3.2,4,9.4
	c2.6,6.4,6.3,16,10.5,28.5c2.6,7.7,5.4,16.6,8.3,26.6c2.1,7.3,4.2,15.1,6.4,23.5c1,4,2,8.1,3,12.4c4.7,19.8,9.2,42.3,13,67.2
	c2.1,14,4,28.7,5.6,44.2c1.9,18.3,3.2,37.5,4,57.7C626.2,565.5,626.3,587.9,625.6,611.2L625.6,611.2z"/>
<path class="st2" d="M360,388.5c0.3,4.9,0,9.6-0.3,14.3c-0.2,4.7-0.7,9.3-1.1,14c-0.4,4.6-1.1,9.2-1.7,13.8
	c-0.7,4.6-1.7,9.1-2.5,13.7l-1.2,6.8c-0.4,2.3-0.7,4.6-1,6.9c-0.6,4.6-1.2,9.2-1.7,13.8c-0.6,4.6-1.1,9.2-1.5,13.9
	c-0.5,4.6-0.9,9.3-1.3,13.9c-1.7,18.5-2.2,37.2-2.9,55.8c-0.4,9.3-0.8,18.6-1.5,27.9c-0.5,9.3-1.1,18.6-6.2,27.9
	c-0.3,0.5-0.9,0.7-1.5,0.4c-0.2-0.1-0.3-0.3-0.4-0.5c-4.8-9.5-4.9-18.9-4.9-28.2c-0.1-9.4,0.1-18.8,0.6-28.2
	c1-18.8,2.8-37.5,4.4-56.3c0.4-4.7,0.8-9.4,1.3-14.1c0.5-4.7,1-9.4,1.5-14c0.5-4.7,1.1-9.4,1.8-14l1.8-14c0.5-4.7,1.2-9.4,2.1-14
	c0.9-4.6,2.1-9.2,3.4-13.8c2.7-9.1,6.2-18,11-26.5c0.3-0.5,0.9-0.6,1.4-0.4C359.8,387.9,360,388.2,360,388.5L360,388.5L360,388.5z"
	/>
<path class="st2" d="M624.6,611.2c-5.1-8.4-5.6-16.8-6.1-25.2c-0.6-8.4-0.9-16.8-1.3-25.2c-0.5-16.8-0.9-33.6-2.7-50.2
	c-0.8-8.3-1.8-16.6-3-24.9c-1.2-8.3-2.3-16.6-4.1-24.8c-0.8-4.1-1.7-8.2-2.4-12.3c-0.6-4.1-1.1-8.3-1.6-12.5
	c-0.4-4.2-0.6-8.5-0.7-12.7c-0.1-4.3-0.1-8.6,0.4-13v0c0.1-0.5,0.6-0.9,1.1-0.9c0.3,0,0.6,0.2,0.8,0.5c4.4,7.7,7.5,15.7,10,23.9
	c2.6,8.1,4.2,16.5,5.2,25c1.1,8.4,2.5,16.8,3.7,25.3c1.2,8.4,2.2,16.9,3.1,25.4c1.7,17,3.4,33.9,4.2,50.9c0.3,8.5,0.5,17,0.3,25.5
	c0,8.5-0.2,16.9-5,25.5c-0.3,0.5-1,0.7-1.5,0.4C624.8,611.5,624.7,611.4,624.6,611.2L624.6,611.2z"/>
<g class="st10">
	<path class="st2" d="M625.4,557.8c-17.8,1.7-39.9,2.4-57.1-2.1v9.5c0,13.2-10.8,24-24.1,24H413c-13.2,0-24-10.8-24-24v-7.6
		c-17.2,2.6-37.1,1.5-52.6-0.3c0.8-15.9,2.3-31.2,4.2-45.7c14.2,0.6,32.6,0.9,48.4-0.5v-17.1c0-13.2,10.8-24,24-24h131.2
		c7.8,0,14.7,3.7,19.1,9.5c3.1,4,4.9,9.1,4.9,14.5V510c16,2.3,36.6,2.3,53.2,1.8C623.3,526.3,624.7,541.7,625.4,557.8L625.4,557.8z"
		/>
</g>
<path class="st7" d="M414.4,532.6c-18,7.3-46,5.8-65,3.5c-11.4-1.4-19.4-11.9-17.8-23.3l0,0c1.5-10.4,10.7-17.9,21.2-17.4
	c17.8,0.8,44.5,1.2,61.4-2.5"/>
<g class="st10">
	<path class="st2" d="M414.4,532.6c-18,7.3-46,5.8-65,3.5c-11.4-1.4-19.4-11.9-17.7-23.3c0.3-2.3,1.1-4.5,2.1-6.5
		c3,5.7,8.7,10,15.6,10.8c19,2.3,46.9,3.8,64.9-3.4L414.4,532.6L414.4,532.6z"/>
</g>
<path class="st2" d="M378.5,544.2c-10.5,0-20.9-0.9-29.9-1.9c-7.2-0.9-13.6-4.5-18-10.3c-4.4-5.8-6.2-12.9-5.2-20.1
	c2-13.6,13.9-23.4,27.6-22.7c26.1,1.2,47.3,0.4,59.8-2.4c2.3-0.5,10-1.1,14.2,12.3c3.9,12.6,3.3,33.8-10.3,39.3l0,0
	C405.9,542.8,392.1,544.2,378.5,544.2L378.5,544.2z M414.4,532.6L414.4,532.6L414.4,532.6z M351.8,501.6c-7,0-13,5.1-14,12.1
	c-0.6,3.8,0.4,7.6,2.8,10.7c2.3,3.1,5.7,5,9.6,5.5c27,3.3,49,2.2,61.9-3.1c2.7-1.1,3.8-5.7,4.2-7.7c1.4-7.8-0.6-16.8-2.5-19.9
	c-17.3,3.4-42.7,3.2-61.3,2.3C352.3,501.6,352,501.6,351.8,501.6L351.8,501.6z"/>
<path class="st7" d="M552.4,532.6c18,7.3,46,5.8,65,3.5c11.4-1.4,19.4-11.9,17.8-23.3l0,0c-1.5-10.4-10.7-17.9-21.2-17.4
	c-17.8,0.8-44.5,1.2-61.4-2.5"/>
<g class="st10">
	<path class="st2" d="M617.4,536.1c-19,2.3-47,3.8-65-3.5l0.1-19.1c18,7.3,45.9,5.7,64.9,3.4c6.9-0.8,12.6-5,15.6-10.7
		c1.1,2,1.8,4.2,2.2,6.6C636.8,524.2,628.8,534.7,617.4,536.1L617.4,536.1z"/>
</g>
<path class="st2" d="M588.3,544.2c-13.7,0-27.5-1.5-38.2-5.8l0,0c-13.7-5.5-14.2-26.7-10.3-39.3c4.2-13.4,11.9-12.8,14.2-12.3
	c12.4,2.8,33.7,3.6,59.8,2.4c13.7-0.7,25.6,9.1,27.6,22.7c1.1,7.2-0.8,14.3-5.2,20.1c-4.4,5.8-10.8,9.4-18,10.3
	C609.2,543.3,598.8,544.2,588.3,544.2L588.3,544.2z M554.7,526.8c12.9,5.2,34.9,6.3,61.9,3.1c3.8-0.5,7.2-2.4,9.6-5.5
	c2.4-3.1,3.3-6.9,2.8-10.7c-1.1-7.3-7.4-12.5-14.7-12.1c-18.6,0.9-44,1.1-61.3-2.3c-1.8,3.1-3.9,12.1-2.5,19.9
	C550.9,521.1,552,525.7,554.7,526.8L554.7,526.8L554.7,526.8z"/>
<path class="st7" d="M559.4,479.7v63.8c0,11.8-9.7,21.5-21.5,21.5H420.4c-11.8,0-21.5-9.7-21.5-21.5v-63.8
	c0-11.8,9.7-21.5,21.5-21.5h117.4c7,0,13.2,3.4,17.1,8.5C557.7,470.3,559.4,474.8,559.4,479.7L559.4,479.7z"/>
<g class="st10">
	<path class="st2" d="M559.4,479.7v63.8c0,11.8-9.7,21.5-21.5,21.5H420.4c-11.8,0-21.5-9.7-21.5-21.5v-23.9
		c17.6,18,52.3,29.3,84.1,29.4c10.2,0.1,18.5-8,19.2-18.2c0-0.1,0-0.2,0-0.3c0.8-8.9,8.2-16.2,17.1-16.8
		c10.2-0.7,18.8,6.8,19.8,16.6c15.4-19,10.9-52,15.8-63.6C557.7,470.3,559.3,474.8,559.4,479.7L559.4,479.7z"/>
</g>
<path class="st2" d="M537.8,571.2H420.4c-15.3,0-27.7-12.4-27.7-27.7v-63.8c0-15.3,12.4-27.7,27.7-27.7h117.4
	c15.3,0,27.7,12.4,27.7,27.7v63.8C565.6,558.7,553.1,571.2,537.8,571.2z M420.4,464.4c-8.4,0-15.3,6.9-15.3,15.3v63.8
	c0,8.4,6.9,15.3,15.3,15.3h117.4c8.4,0,15.3-6.9,15.3-15.3v-63.8c0-8.4-6.9-15.3-15.3-15.3H420.4z"/>
<circle class="st11" cx="520.7" cy="511.6" r="18.5"/>
<g class="st12">
	<path class="st7" d="M539.3,511.6c0,1.3-0.1,2.5-0.4,3.7c-1.7-8.5-9.2-14.9-18.2-14.9c-9,0-16.5,6.4-18.2,14.9
		c-0.2-1.2-0.4-2.4-0.4-3.7c0-10.2,8.3-18.5,18.6-18.5C531,493,539.3,501.3,539.3,511.6L539.3,511.6z"/>
</g>
<g class="st10">
	<path class="st2" d="M539.3,511.6c0,10.2-8.3,18.5-18.5,18.5c-10.2,0-18.5-8.3-18.5-18.5c0-2.4,0.4-4.6,1.3-6.7
		c2.7,6.9,9.4,11.8,17.3,11.8c7.9,0,14.6-4.9,17.3-11.8C538.8,506.9,539.3,509.2,539.3,511.6L539.3,511.6z"/>
</g>
<path class="st2" d="M520.7,534.8c-12.8,0-23.2-10.4-23.2-23.2c0-12.8,10.4-23.2,23.2-23.2c12.8,0,23.2,10.4,23.2,23.2
	C543.9,524.4,533.5,534.8,520.7,534.8z M520.7,497.7c-7.7,0-13.9,6.2-13.9,13.9s6.2,13.9,13.9,13.9s13.9-6.2,13.9-13.9
	S528.4,497.7,520.7,497.7z"/>
<path class="st2" d="M468.2,569.6c-2.6,0-4.7-2.1-4.7-4.7v-33.9c0-5.8-2.8-11.3-7.4-14.8l-5-3.7c-7-5.2-11.1-13.6-11.1-22.3v-32
	c0-2.6,2.1-4.7,4.7-4.7s4.7,2.1,4.7,4.7v32c0,5.8,2.8,11.3,7.4,14.8l5,3.7c7,5.2,11.1,13.6,11.1,22.3V565
	C472.8,567.5,470.8,569.6,468.2,569.6z"/>
<g class="st10">
	<path class="st2" d="M621.5,370.7c-4.3,4-8.7,7.7-13.3,11.2c-9.2,7.1-19.1,13.3-29.5,18.6c-33.7,17.2-72.7,24.5-113,18.8
		c-35.9-5.1-68-19.9-94.1-41.4c-0.4-0.3-0.9-0.7-1.3-1.1c-15.2-12.8-28.4-27.8-38.9-44.6c14.3,4.5,30,7.5,46.7,8.1
		c-4.2-11.7-11.8-24.6-9.7-31c3.6-10.5,6.6-18.7,8.9-24.5c2.6-6.6,4.2-10.1,4.2-10.1h192.3c0,0,1.6,3.4,4.3,10
		c2.8,6.8,6.7,17.1,11.2,30.5c2.8,8.3,5.8,17.8,8.8,28.4C604.2,350,612.4,359.1,621.5,370.7L621.5,370.7z"/>
</g>
<path class="st7" d="M674.1,285.9L674.1,285.9c-2.2-0.3-3.7-2.3-3.3-4.4l15.8-112.2c0.3-2.2,2.3-3.7,4.4-3.3l0,0
	c22.6,3.2,38.3,24.1,35.1,46.6l-5.4,38.3C717.6,273.4,696.7,289.1,674.1,285.9z"/>
<path class="st2" d="M679.9,287.6c-2,0-4-0.1-6-0.4c-1.4-0.2-2.6-0.9-3.4-2s-1.2-2.5-1-3.8l15.8-112.2c0.2-1.4,0.9-2.6,2-3.4
	c1.1-0.8,2.5-1.2,3.8-1c11.2,1.6,21.2,7.4,28,16.5c6.8,9.1,9.7,20.2,8.1,31.5l-5.4,38.3C719,272.2,700.7,287.6,679.9,287.6
	L679.9,287.6z M690.5,167.1c-0.6,0-1.2,0.2-1.6,0.5c-0.6,0.4-1,1.1-1.1,1.8L672,281.7c-0.1,0.7,0.1,1.4,0.5,2c0.4,0.6,1.1,1,1.8,1.1
	c21.9,3.1,42.2-12.2,45.3-34.1l5.4-38.3c3.1-21.9-12.2-42.2-34.1-45.3C690.7,167.1,690.6,167.1,690.5,167.1L690.5,167.1z"/>
<g class="st10">
	<path class="st2" d="M723.3,232.9l-2.5,17.9c-3.2,22.6-24.1,38.3-46.6,35.1c-2.1-0.3-3.6-2.3-3.3-4.5l4.2-29.8
		c0.4,1.4,1.6,2.6,3.2,2.8l2.7,0.4C698.7,257.4,715.5,248.1,723.3,232.9L723.3,232.9z"/>
</g>
<path class="st2" d="M679.9,293.1c-2.2,0-4.5-0.2-6.7-0.5c-2.8-0.4-5.3-1.9-7-4.2c-1.7-2.3-2.4-5.1-2-7.9l15.8-112.2
	c0.4-2.8,1.9-5.3,4.2-7c2.3-1.7,5.1-2.4,7.9-2c12.7,1.8,23.9,8.4,31.7,18.7s11,22.9,9.2,35.6l-5.4,38.3
	C724.1,275.7,703.4,293.1,679.9,293.1L679.9,293.1z M677.9,279.5c17.7,1.1,33.7-11.7,36.2-29.7l5.4-38.3
	c2.5-17.9-9.2-34.6-26.6-38.5L677.9,279.5L677.9,279.5z"/>
<path class="st7" d="M320.6,113.8L320.6,113.8c2.2,0.3,3.7,2.3,3.3,4.4l-15.8,112.2c-0.3,2.2-2.3,3.7-4.4,3.3l0,0
	c-22.6-3.2-38.3-24.1-35.1-46.6l5.4-38.3C277.2,126.3,298.1,110.6,320.6,113.8L320.6,113.8z"/>
<path class="st2" d="M304.3,235c-0.2,0-0.5,0-0.7-0.1c-11.2-1.6-21.2-7.4-28-16.5c-6.8-9.1-9.7-20.2-8.1-31.5l5.4-38.3
	c1.6-11.2,7.4-21.2,16.5-28c9.1-6.8,20.2-9.7,31.5-8.1l0,0c1.4,0.2,2.6,0.9,3.4,2s1.2,2.5,1,3.8l-15.8,112.2
	C309,233.2,306.8,235,304.3,235L304.3,235z M314.8,114.6c-8.6,0-17,2.8-24,8.1c-8.5,6.4-14.1,15.8-15.6,26.4l-5.4,38.3
	c-1.5,10.6,1.2,21.1,7.7,29.7c6.4,8.5,15.8,14.1,26.4,15.6c1.5,0.2,2.9-0.8,3.1-2.3l15.8-112.2c0.1-0.7-0.1-1.4-0.5-2
	c-0.4-0.6-1.1-1-1.8-1.1l0,0C318.6,114.7,316.7,114.6,314.8,114.6L314.8,114.6z"/>
<g class="st10">
	<path class="st2" d="M312.6,199.3l-4.4,31.1c-0.3,2.1-2.3,3.6-4.5,3.3c-11.8-1.7-21.8-8.2-28.2-17.3c-5.7-8.2-8.5-18.6-7-29.3
		l2.3-16.1c4.4,15,17.3,26.9,33.9,29.2l4.1,0.6C310.3,201.1,311.7,200.4,312.6,199.3L312.6,199.3z"/>
</g>
<path class="st2" d="M304.3,240.6c-0.5,0-1,0-1.5-0.1c-12.7-1.8-23.9-8.4-31.7-18.7c-7.7-10.2-11-22.9-9.2-35.6l5.4-38.3
	c1.8-12.7,8.4-23.9,18.7-31.7c10.2-7.7,22.9-11,35.6-9.2l0,0c2.8,0.4,5.3,1.9,7,4.2s2.4,5.1,2,7.9l-15.8,112.2
	C314.1,236.7,309.5,240.6,304.3,240.6L304.3,240.6z M314.8,120.1c-7.4,0-14.6,2.4-20.7,7c-7.4,5.5-12.1,13.6-13.4,22.8l-5.4,38.3
	c-1.3,9.1,1.1,18.2,6.6,25.6c5,6.6,12,11.1,20,12.9l15-106.4C316.2,120.2,315.5,120.1,314.8,120.1L314.8,120.1z M319.7,120.5
	L319.7,120.5L319.7,120.5z"/>
<circle class="st7" cx="497.4" cy="199.9" r="193.1"/>
<path class="st2" d="M497.4,394.2c-13.4,0-27.1-1.4-40.7-4.3C352,367.5,285,264,307.4,159.2C329.8,54.4,433.3-12.6,538.1,9.9
	c104.8,22.4,171.8,125.9,149.3,230.7l0,0C667.9,331.7,587.1,394.2,497.4,394.2L497.4,394.2z M497.4,8C408.8,8,329,69.7,309.8,159.7
	c-22.1,103.5,44,205.7,147.5,227.8c103.5,22.1,205.7-44,227.8-147.5c22.1-103.5-44-205.7-147.5-227.8C524.1,9.3,510.6,8,497.4,8
	L497.4,8z"/>
<g class="st10">
	<path class="st2" d="M690,213.8c-0.6,8.8-1.9,17.6-3.8,26.5C663.9,344.6,561.3,411,457,388.7c-104.3-22.3-170.7-125-148.4-229.3
		c0.6-3,1.4-6,2.1-8.9c-6.9,94.6,56.8,182.3,152.2,202.7C564.2,374.9,663.9,312.9,690,213.8L690,213.8z"/>
</g>
<path class="st2" d="M497.4,399.7c-13.8,0-27.8-1.4-41.9-4.4C347.8,372.2,278.9,265.8,302,158S431.5-18.6,539.2,4.4
	C647,27.5,715.9,133.9,692.8,241.7l0,0C672.8,335.4,589.6,399.7,497.4,399.7z M497.4,13.5c-86,0-163.5,60-182.2,147.4
	c-21.5,100.5,42.7,199.7,143.2,221.2c100.5,21.5,199.7-42.7,221.2-143.2c21.5-100.5-42.7-199.7-143.2-221.2
	C523.3,14.8,510.2,13.5,497.4,13.5L497.4,13.5z M686.2,240.3L686.2,240.3L686.2,240.3z"/>
<path class="st2" d="M684.6,245c-7.3,37.1-26.2,69.1-52.4,93.5c-19.7,18.3-90.5,43.1-168.9,28.2c-72.7-13.7-131.1-65.6-142.3-90
	c-14.9-32.6-20.1-69.3-12.8-106.4c19.5-98.1,111.8-122,215.8-101.4S704,146.9,684.6,245L684.6,245z"/>
<g class="st13">
	
		<ellipse transform="matrix(0.3663 -0.9305 0.9305 0.3663 192.4056 721.6803)" class="st7" cx="626.1" cy="219.6" rx="34.2" ry="24.8"/>
</g>
<g class="st13">
	
		<ellipse transform="matrix(0.4914 -0.871 0.871 0.4914 52.6827 650.3307)" class="st7" cx="583.1" cy="280.1" rx="15.7" ry="13.5"/>
</g>
<g class="st10">
	<path class="st14" d="M666.1,146.2c18.7,26.5,26.3,59.4,18.5,98.8c-7.4,37.1-26.2,69.1-52.4,93.5c-19.7,18.3-90.5,43.1-168.9,28.2
		c-27.7-5.2-53.3-16-75-28.7c96.8,16.2,183.2-14.4,207.5-37c33.3-31,57.2-71.6,66.5-118.6C664.8,169.8,666,157.8,666.1,146.2
		L666.1,146.2z"/>
</g>
<path class="st2" d="M685.5,161.8c-1.7,0-3.4-0.7-4.6-2.2l-0.5-0.6l-0.4-0.8c-22.9-50.7-79.2-88.4-154.4-103.3
	c-75.7-15-142.1-0.8-182.4,38.9l-0.5,0.4c-2.5,2-6.2,1.7-8.3-0.8c-2.1-2.5-1.9-6.1,0.5-8.3c43.2-42.5,113.5-57.8,193.1-42
	c79,15.7,138.3,55.7,162.9,109.9c1.3,2.5,0.7,5.7-1.6,7.5C688.1,161.4,686.8,161.8,685.5,161.8L685.5,161.8z"/>
<g class="st13">
	<path class="st7" d="M338.8,237.1c0,0-11.2-102.8,48.6-131s134.8-13.2,132.1-8.7c0,0-87,3.6-132.6,62.9
		C351.8,205.9,338.8,237.1,338.8,237.1L338.8,237.1z"/>
</g>
<circle class="st2" cx="637.9" cy="825.8" r="4.8"/>
<g class="st8">
	<path class="st2" d="M532.6,607c0,0,66.4-23.2,121.4,32.7c50.5,51.3-8.5,102-8.5,102s18.2,70-29,78.9
		c-40.1,7.6-76.3-31.1-71.7-79.1c3.8-39.4,12.5-35.7,9.3-57.4c-3.6-24.5-55.8-30-55.8-30h-19.6c0,0-52.2,5.5-55.8,30
		c-3.2,21.6,5.5,17.9,9.3,57.4c4.6,47.9-31.6,86.7-71.7,79.1c-47.2-9-29-78.9-29-78.9s-59-50.7-8.5-102
		c55-55.9,121.4-32.7,121.4-32.7H532.6L532.6,607z"/>
</g>
<path class="st7" d="M542,586.8c0,0,80.5-46.9,147.1,20.8c61.2,62.2-10.3,123.6-10.3,123.6s22,84.8-35.2,95.6
	c-48.6,9.2-92.5-37.7-86.9-95.8c4.6-47.8,15.1-43.3,11.2-69.5c-4.4-29.7-67.6-36.3-67.6-36.3h-23.8c0,0-63.2,6.7-67.6,36.3
	c-3.9,26.2,6.6,21.8,11.2,69.5c5.6,58.1-38.3,105-86.9,95.8c-57.2-10.9-35.2-95.6-35.2-95.6s-71.5-61.4-10.3-123.6
	c66.6-67.7,147.1-20.8,147.1-20.8"/>
<g class="st10">
	<path class="st2" d="M674.4,807.9c-5.9,8.9-15.6,16-30.9,18.9c-48.6,9.2-92.5-37.7-86.9-95.8c4.6-47.8,15.1-43.3,11.2-69.5
		c-4.4-29.7-67.6-36.3-67.6-36.3h-23.8c0,0-63.2,6.7-67.6,36.3c-3.9,26.2,6.6,21.7,11.2,69.5c5.6,58.1-38.3,105.1-86.9,95.8
		c-15.3-2.9-25-10-30.9-18.9c0.4,0.1,0.8,0.2,1.3,0.2c57.9,10,110.1-39.6,103.5-102.5c-5.5-51.7-18-46.9-13.4-75.3
		c5.2-32.1,80.5-39.4,80.5-39.4h28.3c0,0,75.3,7.2,80.5,39.4c4.6,28.4-7.9,23.6-13.4,75.3c-6.7,62.9,45.6,112.5,103.5,102.5
		C673.6,808,674,808,674.4,807.9L674.4,807.9z"/>
</g>
<path class="st2" d="M540.9,585c10.7-7.4,22.7-12.4,35.2-15.8c6.3-1.7,12.7-2.9,19.2-3.6c6.5-0.6,13.1-0.8,19.7-0.4
	c6.6,0.4,13.2,1.5,19.6,3c6.5,1.5,12.7,3.8,18.9,6.3c12.1,5.4,23.3,12.9,33.1,21.6c9.7,8.7,18.5,19,24.8,31c3.1,6.1,5.5,12.5,7,19.2
	c1.4,6.7,1.8,13.7,1.3,20.5c-1,13.7-5.7,26.7-12.3,38.1c-3.3,5.8-7,11.2-11.1,16.3c-2.1,2.6-4.2,5.1-6.4,7.5
	c-1.1,1.2-2.3,2.4-3.4,3.6c-1.2,1.2-2.3,2.3-3.7,3.5l2-6.3c1.1,4.7,1.9,8.9,2.6,13.4c0.7,4.5,1.1,8.9,1.4,13.4
	c0.6,9,0.4,18.2-0.9,27.3c-0.7,4.6-1.8,9.2-3.3,13.7c-1.6,4.5-3.6,8.9-6.1,13.1c-2.7,4.1-5.9,8-9.7,11.2c-3.8,3.2-8.2,5.8-12.7,7.7
	c-4.6,1.8-9.3,3.1-14,3.8c-2.3,0.4-4.7,0.5-7.1,0.8c-2.4,0-4.8,0.2-7.1,0c-4.8-0.2-9.5-0.9-14.1-2.1c-4.6-1.1-9.1-2.8-13.3-4.8
	c-17.1-8.1-30.6-22.4-39.1-38.9c-8.5-16.5-12.2-35.3-11.1-53.6c0.3-4.7,0.8-8.9,1.3-13.4l0.9-6.6l1.2-6.6c0.9-4.4,1.9-8.8,3.2-13.2
	c1.2-4.3,2.8-8.6,4-12.4c1.2-3.8,1.7-7.2,1.7-11c0-0.9,0-1.9-0.1-2.9c-0.1-1-0.1-1.9-0.3-3l-0.4-3c-0.2-0.8-0.3-1.5-0.5-2.3
	c-1.8-6-7.5-11.2-14.4-15.1c-6.9-3.9-14.7-6.7-22.7-9c-8-2.2-16.4-3.9-24.5-4.9l0.7,0h-23.8l0.7,0c-8.1,1-16.5,2.7-24.5,4.9
	c-8,2.2-15.9,5.1-22.7,9c-6.9,3.8-12.6,9.1-14.4,15.1c-0.2,0.8-0.3,1.5-0.5,2.3l-0.4,3c-0.2,1-0.2,2-0.3,3c-0.1,1-0.1,2-0.1,2.9
	c0,3.8,0.5,7.2,1.7,11c1.2,3.8,2.7,8.1,4,12.4c1.3,4.4,2.3,8.8,3.2,13.2l1.2,6.6l0.9,6.6c0.5,4.4,1.1,8.7,1.3,13.4
	c1.1,18.4-2.6,37.1-11.1,53.6c-8.5,16.4-22,30.7-39.1,38.9c-4.3,2-8.7,3.7-13.3,4.8c-4.6,1.2-9.3,1.9-14.1,2.1
	c-2.4,0.2-4.8,0.1-7.1,0c-2.4-0.2-4.7-0.3-7.1-0.8c-4.7-0.6-9.4-2-14-3.8c-4.5-2-8.9-4.5-12.7-7.7c-3.8-3.3-7-7.1-9.7-11.2
	c-2.6-4.2-4.6-8.6-6.1-13.1c-1.5-4.5-2.5-9.1-3.3-13.7c-1.4-9.2-1.5-18.3-0.9-27.3c0.3-4.5,0.8-9,1.4-13.4c0.7-4.5,1.4-8.8,2.6-13.4
	l2,6.3c-1.4-1.3-2.5-2.3-3.7-3.5c-1.2-1.2-2.3-2.4-3.4-3.6c-2.3-2.4-4.4-4.9-6.4-7.5c-4.1-5.1-7.9-10.6-11.1-16.3
	c-6.6-11.5-11.3-24.4-12.2-38.1c-0.5-6.8,0-13.7,1.4-20.5c1.5-6.7,4-13.1,7-19.2c6.4-11.9,15.2-22.2,25-30.8
	c9.8-8.7,20.8-16.3,32.9-21.7c12-5.5,25.1-9.1,38.3-10c6.6-0.5,13.2-0.3,19.8,0.2c6.5,0.7,13,1.9,19.3,3.5
	c6.3,1.7,12.4,3.9,18.3,6.7c5.9,2.7,11.5,5.9,16.8,9.9c0.9,0.7,1.1,2,0.4,2.9c-0.6,0.7-1.5,1-2.3,0.7l-0.1,0c-11.6-4-23.6-7-35.4-9
	c-5.9-1-11.9-1.5-17.9-1.9c-3,0-6-0.2-8.9-0.1c-1.5,0-3,0-4.4,0.1l-4.4,0.3c-11.8,1-23.4,3.7-34.2,8.4c-5.4,2.3-10.7,5.1-15.6,8.4
	c-5,3.2-9.8,6.8-14.2,10.9c-9.1,7.9-16.8,17.1-22.2,27.2c-2.6,5.1-4.7,10.5-5.9,16c-1.2,5.6-1.6,11.3-1.1,16.9
	c0.8,11.4,4.8,22.6,10.6,32.8c2.9,5.1,6.3,10,10,14.7c1.9,2.3,3.8,4.6,5.8,6.8c1,1.1,2,2.2,3.1,3.2c1,1,2.2,2.1,3.1,2.9l2.9,2.5
	l-0.9,3.8c-0.9,3.8-1.7,8-2.3,12.1c-0.6,4.1-1.1,8.3-1.3,12.4c-0.6,8.3-0.4,16.6,0.8,24.6c0.7,4,1.5,7.9,2.8,11.6
	c1.3,3.7,2.9,7.2,4.9,10.4c2.1,3.2,4.5,6,7.2,8.4c2.8,2.4,6,4.2,9.5,5.7c3.5,1.3,7.2,2.4,11.1,3c1.9,0.4,3.9,0.4,5.9,0.6
	c2,0,3.9,0.1,5.9,0c3.9-0.1,7.8-0.8,11.6-1.8c3.8-0.9,7.5-2.3,11.1-4c14.3-6.8,26-19,33.4-33.3c7.4-14.4,10.7-30.9,9.7-47.2
	c-0.2-4-0.8-8.3-1.3-12.5l-0.9-6.3l-1.1-6.2c-0.9-4.1-1.7-8.1-2.9-12.1c-1.1-4-2.6-7.9-3.9-12.4c-1.4-4.5-2.3-9.7-2.2-14.6
	c0-1.2,0.1-2.4,0.1-3.6c0.1-1.2,0.1-2.4,0.3-3.5l0.4-3.5c0.3-1.3,0.5-2.7,0.9-4.1c1.6-5.4,4.8-9.9,8.4-13.5
	c3.6-3.6,7.6-6.4,11.7-8.8c8.3-4.7,16.9-7.7,25.6-10.1c8.8-2.4,17.4-4.1,26.5-5.2l0.3,0h24.5l0.3,0c9.2,1.1,17.8,2.9,26.5,5.2
	c8.7,2.4,17.3,5.5,25.6,10.1c4.1,2.4,8.1,5.1,11.7,8.8c3.6,3.6,6.7,8.2,8.4,13.5c0.4,1.3,0.6,2.7,0.9,4.1l0.4,3.5
	c0.2,1.1,0.2,2.3,0.3,3.5c0.1,1.2,0.2,2.4,0.1,3.6c0.1,4.9-0.8,10.2-2.2,14.6c-1.4,4.5-2.8,8.4-3.9,12.4c-1.2,4-2.1,8-2.9,12.1
	l-1.1,6.2l-0.9,6.3c-0.5,4.2-1,8.5-1.3,12.5c-1,16.3,2.3,32.8,9.7,47.2c7.4,14.3,19.1,26.5,33.4,33.3c3.6,1.7,7.3,3.1,11.1,4
	c3.8,1,7.7,1.6,11.6,1.8c2,0.2,3.9,0,5.9,0c2-0.2,3.9-0.3,5.9-0.6c3.9-0.5,7.6-1.6,11.1-3c3.4-1.5,6.6-3.4,9.5-5.7
	c2.8-2.4,5.2-5.2,7.2-8.4c2-3.2,3.6-6.7,4.9-10.4c1.2-3.7,2.1-7.6,2.8-11.6c1.2-8,1.4-16.3,0.8-24.6c-0.3-4.2-0.7-8.3-1.3-12.4
	c-0.6-4.1-1.4-8.3-2.3-12.1l-0.9-3.8l2.9-2.5c0.9-0.8,2.1-1.9,3.1-2.9c1-1,2.1-2.1,3.1-3.2c2-2.2,4-4.5,5.8-6.8
	c3.7-4.7,7.1-9.6,10-14.7c5.9-10.2,9.9-21.5,10.6-32.8c0.4-5.7,0-11.4-1.2-16.9c-1.3-5.5-3.4-10.9-6-16c-5.5-10.1-13.3-19.1-22.4-27
	c-8.9-7.9-18.9-14.5-29.6-19.4c-10.8-4.8-22.3-7.9-34.1-9.1c-11.8-1.2-23.9-0.7-35.8,1.3c-11.9,2-23.9,5.2-35.3,9.7l-0.1,0.1
	c-1.1,0.4-2.3-0.1-2.7-1.2C539.8,586.5,540.1,585.5,540.9,585L540.9,585z"/>
<path class="st2" d="M681.1,736.9l-4.3,1.4c-1.6,0.4-3.2,0.9-4.8,1.2c-3.2,0.6-6.4,1-9.6,1.1c-6.4,0.2-12.6-0.5-18.5-1.8
	c-6-1.4-11.7-3.3-17.2-5.6c-2.8-1.1-5.4-2.5-8.1-3.7c-2.6-1.4-5.2-2.8-7.8-4.2c2.8,0.9,5.6,1.9,8.4,2.8c2.8,0.7,5.6,1.6,8.5,2.2
	c5.7,1.3,11.4,2.1,17.1,2.4c5.7,0.2,11.3-0.2,16.6-1.3c2.7-0.6,5.2-1.3,7.7-2.3c1.2-0.5,2.4-1,3.6-1.6l3.9-2
	c3.1-1.6,6.8-0.4,8.5,2.6c1.6,3.1,0.4,6.8-2.6,8.5c-0.3,0.2-0.7,0.3-1,0.4L681.1,736.9L681.1,736.9z"/>
<path class="st2" d="M300.9,725.3l3.9,2c1.2,0.6,2.4,1.1,3.6,1.6c2.4,1,5,1.7,7.7,2.3c5.3,1.1,10.9,1.5,16.6,1.3
	c5.7-0.3,11.4-1.1,17.1-2.4c2.9-0.6,5.6-1.5,8.5-2.2c2.8-0.9,5.6-1.8,8.4-2.8c-2.6,1.4-5.2,2.8-7.8,4.2c-2.7,1.2-5.3,2.6-8.1,3.7
	c-5.5,2.3-11.3,4.2-17.2,5.6c-6,1.3-12.2,2-18.5,1.8c-3.2-0.1-6.4-0.5-9.6-1.1c-1.6-0.3-3.2-0.7-4.8-1.2l-4.3-1.4l-0.2-0.1
	c-3.3-1-5.1-4.6-4.1-7.9c1-3.3,4.6-5.1,7.9-4.1C300.2,725,300.6,725.2,300.9,725.3L300.9,725.3z"/>
<path class="st2" d="M711,685.8c-0.3,0-0.7,0-1-0.1c-2.5-0.5-4.1-3-3.6-5.5c2.1-10,0.6-17.2-4.8-21.8
	c-22.3-19.1-102.3,5.3-131.3,16.3c-2.4,0.9-5.1-0.3-6-2.7c-0.9-2.4,0.3-5.1,2.7-6c11.2-4.3,110.2-40.8,140.7-14.7
	c8.1,6.9,10.7,17.3,7.8,30.8C715.1,684.3,713.2,685.8,711,685.8L711,685.8z"/>
<path class="st2" d="M267.6,685.8c-2.2,0-4.1-1.5-4.6-3.7c-2.9-13.5-0.3-23.9,7.8-30.8c30.5-26.2,129.5,10.4,140.7,14.7
	c2.4,0.9,3.6,3.6,2.7,6c-0.9,2.4-3.6,3.6-6,2.7c-29-11-109-35.4-131.3-16.3c-5.4,4.6-6.9,11.7-4.8,21.8c0.5,2.5-1.1,5-3.6,5.5
	C268.3,685.8,268,685.8,267.6,685.8L267.6,685.8z"/>
</svg>
