<?xml version="1.0" encoding="UTF-8"?>
<svg id="_레이어_2" data-name="레이어 2" xmlns="http://www.w3.org/2000/svg" xmlns:xlink="http://www.w3.org/1999/xlink" viewBox="0 0 65.73 65.73">
  <defs>
    <style>
      .cls-1 {
        fill: url(#_무제_그라디언트_479-5);
      }

      .cls-1, .cls-2, .cls-3, .cls-4, .cls-5, .cls-6, .cls-7, .cls-8, .cls-9, .cls-10, .cls-11, .cls-12, .cls-13 {
        stroke-width: 0px;
      }

      .cls-1, .cls-2, .cls-3, .cls-4, .cls-5, .cls-8, .cls-9, .cls-10, .cls-11, .cls-12, .cls-13 {
        isolation: isolate;
        opacity: .41;
      }

      .cls-2 {
        fill: url(#_무제_그라디언트_479-11);
      }

      .cls-3 {
        fill: url(#_무제_그라디언트_479-4);
      }

      .cls-4 {
        fill: url(#_무제_그라디언트_479-3);
      }

      .cls-5 {
        fill: url(#_무제_그라디언트_479-9);
      }

      .cls-6 {
        fill: url(#_무제_그라디언트_479);
      }

      .cls-7 {
        fill: none;
      }

      .cls-8 {
        fill: url(#_무제_그라디언트_479-10);
      }

      .cls-9 {
        fill: url(#_무제_그라디언트_479-6);
      }

      .cls-14 {
        clip-path: url(#clippath);
      }

      .cls-10 {
        fill: url(#_무제_그라디언트_479-8);
      }

      .cls-11 {
        fill: url(#_무제_그라디언트_479-2);
      }

      .cls-12 {
        fill: url(#_무제_그라디언트_679);
      }

      .cls-13 {
        fill: url(#_무제_그라디언트_479-7);
      }
    </style>
    <clipPath id="clippath">
      <circle class="cls-7" cx="32.86" cy="32.86" r="32.86" transform="translate(-.27 .27) rotate(-.47)"/>
    </clipPath>
    <linearGradient id="_무제_그라디언트_479" data-name="무제 그라디언트 479" x1="249.43" y1="-157.05" x2="249.43" y2="-90.89" gradientTransform="translate(-144.59 -181.13) rotate(24.13) scale(1 -1)" gradientUnits="userSpaceOnUse">
      <stop offset=".03" stop-color="#2faf5b"/>
      <stop offset=".26" stop-color="#7ab554"/>
      <stop offset=".48" stop-color="#add37a"/>
      <stop offset=".77" stop-color="#add37a"/>
      <stop offset=".97" stop-color="#d7e26c"/>
    </linearGradient>
    <linearGradient id="_무제_그라디언트_479-2" data-name="무제 그라디언트 479" x1="-3.76" y1="35.66" x2="76.7" y2="35.66" gradientTransform="matrix(1,0,0,1,0,0)" xlink:href="#_무제_그라디언트_479"/>
    <linearGradient id="_무제_그라디언트_479-3" data-name="무제 그라디언트 479" x1="34.62" y1="20.45" x2="29.36" y2="30.12" gradientTransform="matrix(1,0,0,1,0,0)" xlink:href="#_무제_그라디언트_479"/>
    <linearGradient id="_무제_그라디언트_479-4" data-name="무제 그라디언트 479" x1="15.86" y1="22.5" x2="21.08" y2="22.5" gradientTransform="matrix(1,0,0,1,0,0)" xlink:href="#_무제_그라디언트_479"/>
    <linearGradient id="_무제_그라디언트_479-5" data-name="무제 그라디언트 479" x1="31.86" y1="31.54" x2="44.41" y2="43.5" gradientTransform="matrix(1,0,0,1,0,0)" xlink:href="#_무제_그라디언트_479"/>
    <linearGradient id="_무제_그라디언트_479-6" data-name="무제 그라디언트 479" x1="30.62" y1="7.46" x2="77.37" y2="7.46" gradientTransform="matrix(1,0,0,1,0,0)" xlink:href="#_무제_그라디언트_479"/>
    <linearGradient id="_무제_그라디언트_479-7" data-name="무제 그라디언트 479" x1="-7.27" y1="58.24" x2="55.72" y2="58.24" gradientTransform="matrix(1,0,0,1,0,0)" xlink:href="#_무제_그라디언트_479"/>
    <linearGradient id="_무제_그라디언트_479-8" data-name="무제 그라디언트 479" x1="45.04" y1="16" x2="71.31" y2="16" gradientTransform="matrix(1,0,0,1,0,0)" xlink:href="#_무제_그라디언트_479"/>
    <linearGradient id="_무제_그라디언트_679" data-name="무제 그라디언트 679" x1="71.92" y1="53.7" x2="55.35" y2="31.87" gradientUnits="userSpaceOnUse">
      <stop offset=".03" stop-color="#2faf5b"/>
      <stop offset=".17" stop-color="#7ab554"/>
      <stop offset=".39" stop-color="#add37a"/>
      <stop offset=".65" stop-color="#add37a"/>
      <stop offset=".84" stop-color="#d7e26c"/>
    </linearGradient>
    <linearGradient id="_무제_그라디언트_479-9" data-name="무제 그라디언트 479" x1="-10.64" y1="31.65" x2="14.58" y2="31.65" gradientTransform="matrix(1,0,0,1,0,0)" xlink:href="#_무제_그라디언트_479"/>
    <linearGradient id="_무제_그라디언트_479-10" data-name="무제 그라디언트 479" x1="4.18" y1="10.37" x2="34.61" y2="10.37" gradientTransform="matrix(1,0,0,1,0,0)" xlink:href="#_무제_그라디언트_479"/>
    <linearGradient id="_무제_그라디언트_479-11" data-name="무제 그라디언트 479" x1="51.14" y1="54.13" x2="23.69" y2="44.94" gradientTransform="matrix(1,0,0,1,0,0)" xlink:href="#_무제_그라디언트_479"/>
  </defs>
  <g id="_레이어_2-2" data-name=" 레이어 2">
    <g class="cls-14">
      <g>
        <circle class="cls-6" cx="32.86" cy="32.86" r="32.86"/>
        <path class="cls-11" d="M1.22,20.41s9.95,4.46,13.99,6.27c7.05,3.16,3.05,4.04,9.67,7.15,2.65,1.24,2.87.51,4.72,2.78s3.7,4.79,6.45,5.78c2.63.95,5.57.3,8.18-.7s8.28-2.43,10.91-1.49c8.18,2.92,21.49,9.61,21.49,9.61.71,1.57-4.42.64-6.14.64-2.23-2.07-5.57-2.86-8.5-2.02-.99.28-1.93.74-2.94.93-1.56.28-3.15-.09-4.69-.47-2.3-.56-4.59-1.12-6.89-1.68-2.42-.59-5.35-1.04-7.08.75-.81.84-1.18,2.05-2.09,2.78-1.72,1.38-4.24.4-6.19-.63-6.34-3.34-12.49-7.1-19.03-10.03l-16.84-7.54c.64-1.4,1.29-2.81,1.93-4.21,6.28,3.4,12.71,6.51,19.28,9.31.83.35,1.68.7,2.58.73s1.86-.34,2.3-1.12c-1.57-1.77-4.8-1.74-5.76-3.9-.31-.69-.31-1.51-.67-2.18-.49-.91-1.53-1.37-2.49-1.75-4.92-1.97-9.85-3.95-14.77-5.92.45-1.2.91-2.4,1.36-3.61.48.16.72.35,1.2.51h.02Z"/>
        <path class="cls-4" d="M8.68,18.23c1.67.48,3.35-.54,4.96-1.2,1.97-.81,4.29-1.26,6.23-.39,8.77,3.93,1.67,4.02,10.94,8.17,1.02.46,1.23,1.83,1.89,2.73,1.16,1.58,3.49,1.87,5.34,1.24,1.85-.64,3.34-2,4.81-3.3.97-.86,2.06-1.75,3.36-1.83,1.02-.06,1.99.39,2.91.83,8.66,4.16,17.41,8.12,26.07,12.28l1.78-3.98c-6.28-2.78-11.6-7.31-17.87-10.11-7.9-3.54-4.39-4.3-7.14-5.57s-6.5-1.09-8.28,1.36c-.54.74-.9,1.67-1.69,2.13-1.36.78-3.15-.43-3.63-1.93-.48-1.49-.1-3.11.1-4.66.2-1.56.17-3.32-.92-4.45-1.14-1.19-2.99-1.25-4.47-1.95-1.8-.86-2.97-2.61-4.3-4.1C24.07-1.76,16.73-3.53,10.3-6.41l-1.18,2.64c3.88,1.74,8.14,3.16,10.64,6.59.97,1.33,1.75,2.84,2.98,3.94,1.5,1.34,3.51,1.95,5.15,3.12s4.12,3.16,1.93,5.16c0,0-6.9-2.82-10.34-4.22-1.8-.73-3.63-1.49-5.1-2.75-1.18-1.01-2.08-2.3-3.2-3.38C7.48,1.14,1.9.4-2.34-2.49c-.56,1.06-1.12,2.12-1.69,3.18C-1.22,2.36,6.25,5.08,7.4,8.29c1.03,2.88-3.96,8.42,1.28,9.94Z"/>
        <path class="cls-3" d="M20.85,23.56c-.59,1.32-2.13,1.9-3.45,1.32-1.32-.59-1.9-2.13-1.32-3.45.59-1.32,2.13-1.9,3.45-1.32,1.32.59,1.9,2.13,1.32,3.45Z"/>
        <path class="cls-1" d="M41.64,35.64c.82,2.16-.26,4.58-2.42,5.4s-4.58-.26-5.4-2.42c-.82-2.16.26-4.58,2.42-5.4s4.58.26,5.4,2.42Z"/>
        <path class="cls-9" d="M34.76,1.92c2.07.78,4.45,1.41,5.56,3.32,1.05,1.82.72,4.48,2.44,5.68,1.25.87,2.94.48,4.46.3,5.99-.73,11.92,2.11,17.15,5.13l10.14,4.54c.95-2.5,1.91-4.98,2.86-7.48L34.09-5.98c-.49,1-.97,2.01-1.46,3.01-.12.25-2.61-1.36-1.88,1.58.41,1.66,2.56,2.76,4.01,3.3h0Z"/>
        <path class="cls-13" d="M52.25,58.53c-2.57-1.71-6.21-1.62-8.69.22-1.7,1.26-3.53,3.37-5.45,2.48-1.35-.62-1.74-2.44-3.02-3.19-1.67-.98-3.69.35-5.58.78-4.02.92-7.11-3.36-10.87-5.05l-25.54-11.44c-.09.64-.29,1.26-.37,1.9,6.26,2.93,12.51,5.87,18.77,8.8,2.08.98,4.28,2.06,5.47,4.02.93,1.54,1.2,3.57,2.65,4.63,1.31.97,3.31.88,4.33,2.14,1.14,1.41.5,3.84,1.9,4.99,1.2.98,2.96.33,4.5.23,3.13-.2,5.79,2.06,8.58,3.48,2.83,1.44,6.15,2.06,9.22,1.26,6.65-1.73,10.93-10.73,4.12-15.26h-.02Z"/>
        <path class="cls-10" d="M48.81,7.83c-1.17-.52-2.79-.94-3.52.11-.44.63-.27,1.54.19,2.16s1.16,1.01,1.83,1.39c7.83,4.4,15.66,8.8,23.49,13.2-1.18-.66.94-5.74.42-6.71-.69-1.29-4.99-2.34-6.28-2.92-5.38-2.41-10.76-4.82-16.13-7.22h0Z"/>
        <path class="cls-12" d="M49.35,33.12c-.82-.35-1.68-.71-2.56-.61s-1.76.84-1.67,1.72c.07.75.76,1.28,1.43,1.63,2.7,1.43,6.27,1.89,7.72,4.58.42.78.61,1.67,1.06,2.42.75,1.24,2.11,1.95,3.4,2.6,4.55,2.29,9.1,4.57,13.64,6.86,1.56-2.69,3.11-5.37,4.67-8.06-.23.39-11.43-4.18-12.16-4.49-5.18-2.22-10.35-4.43-15.53-6.65Z"/>
        <path class="cls-5" d="M11.23,38.97c.64.28,1.33.56,2.02.48.7-.08,1.39-.66,1.32-1.36-.06-.59-.6-1.01-1.13-1.29-2.13-1.13-4.95-1.49-6.09-3.61-.33-.61-.48-1.32-.84-1.91-.59-.98-1.66-1.54-2.69-2.05l-10.77-5.41c-1.23,2.12-2.46,4.24-3.69,6.36.18-.31,9.02,3.3,9.6,3.54,4.09,1.75,8.17,3.5,12.26,5.25h.01Z"/>
        <path class="cls-8" d="M18.55,14.23c3.15,1,15.19,8.3,16.02,5.1.51-1.96-5.09-6.23-7.04-6.78-1.95-.55-4-.87-5.74-1.9-1.31-.78-2.35-1.91-3.52-2.88C14.44,4.49,9.84,1.84,5.07.6.94,6.09,12.09,12.17,18.55,14.23Z"/>
        <path class="cls-2" d="M86.23,64.31c-12.9-4.77-25.79-9.55-38.69-14.32-.82-.3-1.82-.59-2.52-.06-.73.54-.69,1.72-.16,2.46.53.74,1.39,1.15,2.22,1.54,11.12,5.17,22.24,10.34,33.37,15.5,3.42,1.59,7.03,3.21,10.78,2.91,3.72-.3,9-3.88,6.05-7.75-1.06-1.39-3.68-2.29-5.33-2.41-1.2-.09-5.63,2.17-5.71,2.14h0Z"/>
      </g>
    </g>
  </g>
</svg>