<?xml version="1.0" encoding="UTF-8"?>
<svg id="_레이어_2" data-name="레이어 2" xmlns="http://www.w3.org/2000/svg" viewBox="0 0 141.77 91.05">
  <defs>
    <style>
      .cls-1 {
        fill: #53e047;
      }

      .cls-1, .cls-2 {
        stroke-width: 0px;
      }

      .cls-2 {
        fill: #fff;
      }
    </style>
  </defs>
  <g id="BACKGROUND_2" data-name="BACKGROUND 2">
    <g>
      <g>
        <path class="cls-1" d="M47.46,39.71c-1.61,0-2.98-.39-4.07-1.15-1.8-1.26-2.07-2.84-2.07-3.67v-5.65c-.06-.69-.05-1.41,0-2.13.07-.79.32-1.5.72-2.12-.23-.08-.46-.18-.67-.29-.74-.37-1.35-.91-1.8-1.59-.42-.6-.72-1.37-.88-2.24-.11-.6-.19-1.19-.23-1.76-.05-.6-.06-1.12-.05-1.58.01-.29.02-.48.02-.54l.08-7.21v-.41c0-.29.02-.62.05-.97.03-.32.08-.66.15-1.01.12-.58.32-1.1.61-1.53.39-.61.83-1.09,1.34-1.47.58-.43,1.29-.7,2.1-.82.69-.13,1.58-.19,2.72-.19h.72c.42,0,.91,0,1.48.02l3.56.08s2,.06,2.09.06c.37,0,.76,0,1.16.02.53.02,1.05.09,1.55.2.59.14,1.14.35,1.66.64.67.38,1.24.93,1.67,1.64.08.13.16.26.23.39.1-.48.25-.92.45-1.31.38-.76,1.02-1.38,1.85-1.77.56-.27,1.17-.45,1.79-.54.31-.04.56-.05.8-.05.49,0,.99.06,1.48.17.97.23,1.75.67,2.3,1.3l.07.08.06.08c.32.43.56.87.71,1.32.08.25.16.5.22.76.13.44.2.91.22,1.38.02.36.01.73-.02,1.1v1.97c.16,0,.32.02.48.03.47.04.8.08.99.12,1.02.21,1.78.56,2.34,1.09.58.54.96,1.23,1.13,2,.12.48.18,1.01.18,1.58,0,.84-.2,1.61-.6,2.27-.31.52-.65.92-1.03,1.24-.4.34-.88.6-1.41.76-.42.13-.87.21-1.34.23-.2.01-.45.02-.74.02v2.13c-.04.36-.09.72-.16,1.09-.1.58-.3,1.14-.59,1.67-.3.6-.79,1.17-1.4,1.62l-.14.1c-.44.28-.95.48-1.49.61-.47.11-.9.17-1.32.17-.35,0-.71-.03-1.09-.09-.56-.09-1.07-.29-1.52-.57-.57-.35-1.03-.79-1.39-1.33-.25-.38-.46-.75-.61-1.13-.14-.34-.25-.72-.33-1.16-.17.18-.35.35-.56.5-.69.52-1.5.9-2.43,1.14-.77.2-1.58.33-2.43.38-.74.04-1.38.06-1.93.06h-1.33c.07.14.13.28.19.43.19.49.31,1.01.35,1.55l.09,1s0,.43.02.77l.03.89c.09,0,.19,0,.29,0,.99,0,1.24-.02,1.28-.02.36-.05.59-.06.64-.06h13.06l.36.11c.52.16.96.34,1.33.55.44.25.84.57,1.2.96.51.54.84,1.19.98,1.91l.03.17c.29,2.17-.44,3.54-1.1,4.31-.67.78-1.5,1.3-2.41,1.5-.62.13-.83.17-1.12.17h-18.6ZM49.05,15.42c.45.01.92.02,1.41.02h3.92c.53,0,1.07.04,1.62.13.71.11,1.38.34,2,.67.55.3,1.04.68,1.44,1.13v-5.92c-.07.11-.14.22-.22.33-.44.59-.95,1.01-1.57,1.32-.45.23-.95.4-1.49.51-.44.09-.89.15-1.34.17-.35.02-.65.02-.89.02l-4.91-.03.02,1.65Z"/>
        <path class="cls-2" d="M64.51,5.27c.3,0,.61.04.91.11.45.11.79.28,1,.52.16.21.27.42.34.62.07.2.13.41.18.62.08.27.13.55.14.84.01.29,0,.59-.02.88v4.48c.11,0,.33,0,.66.02.33.01.69.03,1.06.04.37.01.73.03,1.06.06.33.03.57.05.7.08.53.11.91.26,1.12.46.21.2.35.45.4.74.08.29.12.63.12,1.02s-.08.71-.24.98-.32.47-.48.6c-.16.13-.35.23-.56.3-.21.07-.45.11-.72.12-.27.01-.6.02-1,.02h-2.12v4.4c-.03.29-.07.59-.12.9-.05.31-.16.61-.32.9-.16.32-.39.59-.68.8-.21.13-.46.23-.74.3-.28.07-.53.1-.74.1s-.44-.02-.68-.06-.44-.11-.6-.22c-.27-.16-.48-.36-.64-.6-.16-.24-.29-.47-.38-.7s-.17-.51-.22-.86v-14.4c-.03-.11-.01-.4.04-.88.05-.48.16-.88.32-1.2.13-.27.37-.48.7-.64.33-.16.69-.27,1.06-.32.15-.02.3-.03.45-.03M46.22,5.89c.4,0,.87,0,1.42.02.55.01,1.14.03,1.78.04.64.01,1.23.03,1.78.04.55.01,1.02.03,1.42.04.4.01.64.02.72.02.35,0,.71,0,1.08.02.37.01.73.06,1.08.14.35.08.67.21.98.38s.57.43.78.78c.29.45.43.95.42,1.48-.01.53-.18,1.03-.5,1.48-.16.21-.37.39-.64.52-.27.13-.56.23-.88.3-.32.07-.63.11-.94.12-.31.01-.57.02-.78.02l-7.44-.04.08,6.56c.35.03.88.05,1.6.08.72.03,1.48.04,2.28.04h3.92c.4,0,.81.03,1.24.1.43.07.83.2,1.2.4.37.2.68.47.92.8.24.33.36.78.36,1.34s-.21,1-.64,1.32c-.43.32-.95.56-1.56.72s-1.26.26-1.94.3c-.68.04-1.27.06-1.78.06h-7.1c-.49,0-.96-.04-1.4-.12-.44-.08-.83-.21-1.18-.38s-.63-.42-.84-.74c-.24-.35-.41-.78-.5-1.3-.09-.52-.16-1.03-.2-1.52-.04-.49-.05-.92-.04-1.28.01-.36.02-.57.02-.62l.08-7.2v-.44c0-.21.01-.45.04-.7.03-.25.07-.51.12-.78.05-.27.13-.48.24-.64.24-.37.49-.65.74-.84.25-.19.59-.31,1.02-.36.53-.11,1.31-.16,2.32-.16h.72M45.98,25.45c.13,0,.37,0,.72.02s.59.05.72.1c.35.11.62.27.82.48s.35.46.46.74c.11.28.17.57.2.88.03.31.05.61.08.9,0,.11,0,.35.02.74s.03.8.04,1.24c.01.44.03.85.04,1.22.01.37.03.6.06.68.08.03.3.06.66.1.36.04,1.03.06,2.02.06.85,0,1.38-.01,1.58-.04.2-.03.31-.04.34-.04h12.68c.35.11.63.22.84.34.21.12.41.28.6.48s.31.43.36.7c.13,1.01-.04,1.8-.52,2.36-.32.37-.67.6-1.04.68s-.57.12-.6.12h-18.6c-1.09,0-1.97-.23-2.64-.7-.67-.47-1-1.01-1-1.62v-5.76c-.05-.59-.05-1.19,0-1.8.05-.56.27-1.01.66-1.36.39-.35.89-.52,1.5-.52M64.51.27c-.34,0-.69.02-1.03.06h-.07s-.07.02-.07.02c-.88.13-1.72.38-2.51.76-.67.32-1.26.73-1.76,1.22-.04-.03-.09-.05-.13-.08-.72-.41-1.51-.71-2.32-.9-.66-.15-1.34-.24-2.02-.26-.44-.02-.86-.02-1.26-.02-.06,0-.25,0-.55-.02-.42-.01-.91-.03-1.47-.04l-1.8-.04c-.64-.01-1.22-.03-1.76-.04-.6-.01-1.11-.02-1.55-.02h-.72c-1.29,0-2.29.07-3.13.22-1.2.18-2.27.6-3.17,1.26-.75.55-1.41,1.27-1.97,2.14-.46.7-.78,1.51-.95,2.4-.08.4-.15.82-.19,1.23-.04.4-.07.82-.07,1.22v.41l-.08,7.17c0,.08,0,.24-.02.49-.02.56,0,1.17.05,1.87.05.65.14,1.33.26,2,.22,1.21.65,2.3,1.28,3.22.4.59.88,1.11,1.43,1.56-.05.25-.09.5-.11.76-.07.85-.08,1.67-.02,2.47v5.56c0,2.27,1.11,4.3,3.13,5.72,1.52,1.06,3.37,1.6,5.51,1.6h18.6c.58,0,1-.09,1.65-.23,1.45-.31,2.76-1.11,3.79-2.32.99-1.15,2.08-3.17,1.68-6.26l-.02-.17-.03-.17c-.23-1.17-.79-2.25-1.6-3.12-.54-.57-1.14-1.05-1.8-1.43-.09-.05-.18-.1-.28-.15.66-.59,1.2-1.28,1.61-2.07.4-.75.67-1.54.82-2.36.08-.44.13-.88.17-1.3v-.13c.12-.03.23-.06.34-.09.86-.27,1.63-.69,2.29-1.25.58-.48,1.09-1.09,1.55-1.85.63-1.05.95-2.25.95-3.56,0-.76-.08-1.48-.25-2.15-.28-1.25-.91-2.37-1.85-3.25-.8-.75-1.79-1.27-3.01-1.59.01-.34.01-.68,0-1.02-.03-.66-.13-1.3-.31-1.92-.07-.29-.16-.58-.25-.87-.25-.74-.61-1.42-1.09-2.06l-.12-.16-.14-.15c-.91-1.02-2.11-1.72-3.59-2.07-.69-.16-1.38-.24-2.06-.24h0ZM56.83,27.53c.11-.03.22-.05.33-.08.42-.11.82-.24,1.21-.4,0,0,0,0,0,0,.11.16.22.32.34.47h-1.89Z"/>
      </g>
      <g>
        <path class="cls-1" d="M100.93,39.98c-1.37,0-2.54-.52-3.4-1.49-.62-.66-1.04-1.46-1.21-2.32-.09-.46-.17-.95-.23-1.48l-.02-.15v-.07c-.02-.12-.03-.26-.04-.42-.06-.48-.08-.99-.08-1.54,0-.43-.01-.87-.04-1.3-.03-.28-.04-.64-.04-1v-2.84c0-.42,0-.85-.02-1.31,0-.36-.02-.7-.02-1.03-.29-.02-.56-.04-.79-.08-.29-.02-.56-.06-.83-.12-.02.24-.05.47-.07.71-.14,1.32-.35,2.67-.61,3.99-.31,1.58-.9,3.03-1.74,4.3-.74,1.13-1.68,2.08-2.79,2.81-1.09.72-2.26,1.21-3.47,1.46-.68.13-1.34.2-2.01.2-.44,0-.88-.03-1.33-.08-1.19-.15-2.33-.54-3.39-1.16-1-.59-1.85-1.34-2.54-2.23-.62-.8-1.16-1.73-1.61-2.76-.66-1.57-1.03-3.18-1.12-4.81-.1-1.07-.18-2.25-.22-3.42-.04-1.15-.06-2.3-.06-3.45,0-.79,0-1.56.02-2.31.01-.8.07-1.62.15-2.44.05-.6.12-1.25.21-1.88.08-.64.18-1.27.3-1.9.12-.54.21-.97.28-1.37.12-.63.33-1.28.64-1.92.26-.54.54-1.07.85-1.55.37-.58.81-1.11,1.31-1.58.73-.74,1.65-1.37,2.64-1.81.93-.41,1.91-.69,2.91-.83.23-.04.54-.06.84-.06l.21-.04h.29c.42,0,.81.01,1.2.04.4.03.79.08,1.17.15,1.52.24,2.89.95,4.04,2.1l.07.07c.81.88,1.49,1.9,2.01,3.03.48,1.04.86,2.14,1.14,3.28.27,1.09.46,2.22.58,3.35,0,.05.01.1.02.15.15-.05.3-.09.46-.12l.11-.02h.11c.32-.05.67-.08,1.05-.08v-.05c0-.68,0-1.35-.02-2.01-.01-.71,0-1.42.02-2.12v-.51c0-.37,0-.78.02-1.22.02-.49.06-.99.12-1.48.08-.6.22-1.17.42-1.71.26-.7.64-1.3,1.14-1.8l.13-.12c.85-.74,1.86-1.13,2.92-1.13h.18c1.23.05,2.32.48,3.14,1.25.66.61,1.17,1.36,1.5,2.21.28.72.47,1.47.54,2.25.06.64.09,1.2.09,1.7v24.38c0,.36-.04.76-.11,1.23-.08.45-.19.9-.33,1.34-.24.72-.64,1.34-1.18,1.84-.47.45-1.07.79-1.78,1-.58.18-1.15.27-1.69.27ZM83.07,20.22c.03.62.02,1.23-.03,1.82-.03.36-.02.73.01,1.11.06.72.13,1.44.22,2.2.08.65.2,1.27.37,1.83.07.23.15.42.24.58.13-.44.25-.91.36-1.43.17-1.01.28-2.2.31-3.46.03-1.32.01-2.62-.04-3.85v-.1c0-.47-.01-.97-.04-1.5-.02-.51-.07-1.02-.12-1.52-.05-.45-.13-.89-.24-1.3-.05-.21-.12-.4-.2-.56l-.27.62c-.1.35-.18.71-.24,1.08-.07.51-.14,1.01-.19,1.51-.05.49-.09.99-.11,1.51-.02.5-.04.99-.04,1.46Z"/>
        <path class="cls-2" d="M100.65,5c.64.03,1.15.22,1.54.58.39.36.68.79.88,1.3.2.51.33,1.03.38,1.58.05.55.08,1.03.08,1.46v24.38c0,.23-.03.5-.08.82-.05.32-.13.64-.24.96-.11.32-.28.59-.52.8-.19.19-.45.33-.8.44s-.67.16-.96.16c-.64,0-1.15-.21-1.52-.64-.35-.37-.56-.76-.64-1.16s-.15-.83-.2-1.28c0-.08,0-.16-.02-.24-.01-.08-.02-.17-.02-.28-.05-.43-.08-.88-.08-1.36s-.01-.96-.04-1.44c-.03-.29-.04-.58-.04-.86v-2.84c0-.44,0-.9-.02-1.38-.01-.48-.02-.93-.02-1.36v-1.52c0-.16-.03-.31-.08-.44-.37-.05-.87-.09-1.48-.1s-1.11-.05-1.48-.1c-.93-.05-1.6-.4-2-1.04-.4-.64-.45-1.47-.16-2.48.05-.21.17-.44.34-.68.17-.24.34-.43.5-.56.37-.27.75-.44,1.12-.52.29-.04.61-.05.97-.05.18,0,.37,0,.57.01.2,0,.4.01.59.01.36,0,.69-.02.99-.05h.12v-.16c0-.32,0-.56.02-.72.01-.16.02-.31.02-.44s0-.28-.02-.44-.02-.41-.02-.76c0-.69,0-1.38-.02-2.06-.01-.68,0-1.35.02-2.02v-.56c0-.35,0-.73.02-1.14.01-.41.05-.83.1-1.24.05-.41.15-.8.28-1.16.13-.36.32-.66.56-.9.4-.35.83-.52,1.28-.52h.08M83.89,5.2c.35,0,.68.01,1,.04.32.03.64.07.96.12,1.01.16,1.91.63,2.68,1.4.64.69,1.17,1.49,1.58,2.38s.74,1.83.98,2.82.41,1.99.52,3.02c.11,1.03.19,2.02.24,2.98.05,1.23.07,2.45.04,3.68s-.11,2.44-.24,3.64c-.13,1.25-.33,2.51-.58,3.78-.25,1.27-.71,2.41-1.38,3.42-.56.85-1.25,1.55-2.08,2.1-.83.55-1.69.91-2.6,1.1-.5.1-1,.14-1.5.14-.34,0-.68-.02-1.02-.06-.85-.11-1.67-.39-2.44-.84-.72-.43-1.33-.96-1.82-1.6-.49-.64-.93-1.39-1.3-2.24-.53-1.28-.84-2.6-.92-3.96-.11-1.12-.18-2.24-.22-3.36s-.06-2.24-.06-3.36c0-.77,0-1.53.02-2.26.01-.73.06-1.47.14-2.22.05-.61.12-1.22.2-1.82s.17-1.19.28-1.78c.11-.48.2-.93.28-1.36s.23-.87.44-1.32c.21-.45.45-.88.7-1.28.25-.4.55-.76.9-1.08.59-.59,1.24-1.04,1.96-1.36.72-.32,1.47-.53,2.24-.64.16-.03.33-.04.5-.04s.34-.01.5-.04M83.77,30.36c.51,0,1-.16,1.48-.48.45-.32.77-.75.96-1.28.19-.53.35-1.12.48-1.76.21-1.23.33-2.53.36-3.92.03-1.39.01-2.72-.04-4,0-.51-.01-1.05-.04-1.62s-.07-1.14-.14-1.7c-.07-.56-.17-1.1-.3-1.62-.13-.52-.32-.98-.56-1.38-.27-.45-.59-.8-.96-1.04-.31-.2-.63-.29-.97-.29-.08,0-.15,0-.23.01-.45.05-.87.21-1.24.48-.37.27-.68.67-.92,1.2l-.36.84c-.16.51-.28,1.03-.36,1.58s-.15,1.09-.2,1.62-.09,1.08-.12,1.64-.04,1.11-.04,1.64c.03.53.02,1.05-.02,1.56s-.03,1.03.02,1.56c.05.69.13,1.44.22,2.24.09.8.25,1.55.46,2.26.21.71.52,1.29.92,1.76.4.47.93.7,1.6.7M100.75,0h-.18c-1.66,0-3.24.6-4.55,1.74l-.14.12-.13.13c-.75.75-1.33,1.66-1.71,2.7-.09.25-.18.51-.25.77-.47-.75-1-1.44-1.59-2.08l-.07-.08-.07-.07c-1.51-1.51-3.39-2.48-5.43-2.8-.41-.07-.87-.12-1.32-.16-.5-.04-.97-.06-1.43-.06h-.42l-.24.04c-.36,0-.72.04-1.07.09-1.22.17-2.4.52-3.53,1.02-1.25.55-2.39,1.34-3.4,2.32-.63.6-1.19,1.27-1.66,2.01-.36.57-.7,1.19-1,1.83-.39.83-.67,1.68-.83,2.52-.07.38-.15.78-.25,1.21l-.02.09-.02.09c-.12.65-.23,1.33-.32,2.02-.09.65-.16,1.32-.22,2-.09.88-.15,1.76-.16,2.62-.01.76-.02,1.54-.02,2.35,0,1.17.02,2.36.06,3.54.04,1.19.12,2.39.23,3.57.12,1.88.56,3.73,1.29,5.49l.02.04.02.04c.53,1.22,1.18,2.33,1.92,3.29.88,1.14,1.96,2.1,3.23,2.85,1.38.81,2.84,1.31,4.37,1.5.55.07,1.1.1,1.64.1.82,0,1.65-.08,2.45-.24h.03s.03-.01.03-.01c1.53-.31,2.99-.93,4.35-1.83,1.3-.86,2.41-1.95,3.31-3.24.06.4.12.78.19,1.15.26,1.3.88,2.49,1.84,3.53,1.32,1.47,3.17,2.28,5.23,2.28.79,0,1.61-.13,2.43-.38,1.08-.33,2-.86,2.75-1.57.84-.77,1.47-1.76,1.84-2.85.19-.58.34-1.15.43-1.72.1-.62.15-1.15.15-1.65V9.92c0-.59-.03-1.22-.1-1.94-.1-1.02-.34-2-.71-2.94-.47-1.2-1.19-2.25-2.13-3.13-1.26-1.17-2.9-1.84-4.74-1.91h-.1Z"/>
      </g>
      <g>
        <path class="cls-1" d="M12.32,87.66c-1.53,0-2.76-.26-3.75-.8-1.41-.77-2.22-2.08-2.22-3.62v-5.56c0-.12,0-.27-.02-.46-.02-.28-.02-.59-.02-.92s0-.64.02-.92c.01-.18.02-.34.02-.46v-.23c.11-1.03.55-1.96,1.27-2.68-.24-.14-.48-.29-.72-.45-1.71-1.12-2.9-2.64-3.55-4.5-.56-1.59-.84-3.26-.84-4.95s.32-3.39.95-4.93c.67-1.65,1.77-3.07,3.27-4.22,1.14-.91,2.48-1.61,3.95-2.05,1.12-.33,2.26-.5,3.39-.5.35,0,.7.02,1.05.05l1.41.14c.49.05.96.13,1.4.23.45.1.92.25,1.37.42.38.15.84.34,1.36.57l.08.04.08.04c1.64.87,2.93,2.03,3.84,3.45.26-.1.55-.19.86-.26.27-.08.58-.12,1.01-.14l.5-.02c.01-.05.07-.29.07-.29l.05-.13c.04-.12.08-.24.11-.36.15-.61.46-1.18.91-1.69.57-.63,1.29-1.08,2.16-1.33.51-.15,1.05-.22,1.6-.22.23,0,.46.01.7.04l.11.02c2.11.33,3.08,1.46,3.53,2.35l.06.14c.17.39.28.84.37,1.46.06.45.11.89.14,1.34.03.44.05.85.05,1.22v14.36c0,.06,0,.29-.07.69-.05.33-.16.71-.32,1.14-.17.44-.41.87-.7,1.28-.36.5-.83.94-1.39,1.28-.73.47-1.57.72-2.45.72-1.04,0-2.01-.32-2.82-.92-.65-.42-1.17-1-1.52-1.7-.31-.55-.51-1.13-.61-1.71-.05-.3-.09-.61-.12-.9-.21-.02-.42-.04-.62-.06-.66-.08-1.29-.24-1.85-.48-.35-.15-.67-.33-.95-.55-.05.05-.1.1-.15.15-1.75,1.69-4.26,2.59-7.48,2.66.05.11.09.23.13.35.17.52.28,1.06.32,1.63.03.35.05.66.08.94v.12s.01,1.62.01,1.62h.18c.82,0,1.54-.01,2.18-.04.73-.03,1.11-.04,1.14-.04h14.02l.36.11c.53.16.96.34,1.33.55.43.24.83.56,1.2.95.51.55.84,1.19.98,1.91l.03.18c.28,2.17-.44,3.54-1.1,4.31-.69.8-1.5,1.3-2.42,1.5-.66.14-.84.17-1.12.17H12.32ZM14.52,60.5c-.41,0-.77.07-1.12.21-.29.11-.54.29-.76.53-.14.15-.24.39-.29.72-.04.27-.03.58.02.9.04.23.11.42.22.59.09.14.25.28.46.4.13.07.43.21,1.04.27.17.02.34.02.51.02.21,0,.42-.01.64-.04.27-.03.51-.1.74-.21.15-.07.27-.18.39-.33.08-.11.16-.26.22-.44,0-.38-.03-.74-.06-1.08-.03-.29-.09-.56-.18-.78-.05-.12-.12-.23-.23-.34-.04-.04-.18-.15-.48-.27-.28-.09-.67-.15-1.11-.15Z"/>
        <path class="cls-2" d="M14.05,52.92c.28,0,.55.01.83.04.53.05.99.1,1.38.14.39.04.75.1,1.1.18s.69.19,1.04.32c.35.13.76.31,1.24.52,1.6.85,2.74,2.03,3.42,3.52.68,1.49.94,3.28.78,5.36-.16,2.67-.91,4.65-2.26,5.96s-3.41,1.96-6.18,1.96c-.72,0-1.38,0-1.98.02-.09,0-.17,0-.26,0-.5,0-.98-.03-1.44-.1-.53-.08-1.08-.22-1.64-.42-.56-.2-1.16-.51-1.8-.94-1.25-.83-2.11-1.91-2.58-3.24-.47-1.33-.7-2.71-.7-4.12s.25-2.74.76-3.98c.51-1.24,1.33-2.3,2.48-3.18.93-.75,1.98-1.29,3.14-1.64.89-.26,1.78-.4,2.67-.4M14.59,66.64c.31,0,.62-.02.93-.06.56-.07,1.08-.22,1.56-.46.48-.24.89-.58,1.24-1.02s.6-.99.76-1.66c0-.59-.03-1.14-.08-1.66-.05-.52-.17-1-.34-1.44-.17-.44-.43-.83-.78-1.18-.35-.35-.8-.63-1.36-.84-.61-.21-1.28-.32-2-.32s-1.4.13-2.04.38c-.64.25-1.2.64-1.68,1.16-.48.52-.79,1.19-.92,2.02-.08.56-.07,1.13.02,1.7.09.57.29,1.09.6,1.56.31.47.73.86,1.28,1.18.55.32,1.23.52,2.06.6.25.02.5.04.75.04M31.93,53.42c.14,0,.28,0,.43.02.85.13,1.41.47,1.68,1,.08.19.14.47.2.84.05.37.09.75.12,1.14.03.39.04.74.04,1.06v14.36s-.01.13-.04.3c-.03.17-.09.38-.18.62s-.23.48-.4.72c-.17.24-.39.44-.66.6-.38.24-.76.36-1.16.36-.54,0-1-.16-1.4-.48-.32-.19-.56-.45-.72-.8-.19-.32-.31-.64-.36-.96-.05-.32-.09-.63-.12-.92v-1.96h-.12c-.4-.03-.83-.05-1.3-.06-.47-.01-.92-.05-1.36-.1-.44-.05-.83-.15-1.18-.3-.35-.15-.6-.35-.76-.62-.19-.29-.27-.65-.26-1.06.01-.41.05-.77.1-1.06.08-.32.24-.59.48-.8.24-.21.64-.39,1.2-.52.11-.03.31-.05.62-.06.31-.01.63-.03.96-.06.33-.03.65-.05.96-.06.31-.01.53-.02.66-.02v-2.6c-.4,0-.85,0-1.34.02-.12,0-.25,0-.37,0-.36,0-.7-.02-1.03-.05-.44-.04-.84-.11-1.2-.22-.36-.11-.62-.29-.78-.56-.08-.13-.14-.31-.18-.52-.04-.21-.07-.43-.08-.66-.01-.23,0-.45.02-.66.03-.21.05-.4.08-.56.08-.29.24-.55.48-.76.24-.21.64-.39,1.2-.52.08-.03.25-.05.5-.06s.54-.03.86-.04.65-.03.98-.04c.33-.01.62-.02.86-.02-.03-.24-.03-.57,0-1,.03-.43.07-.75.12-.96.08-.21.15-.43.2-.64.05-.21.17-.43.36-.64.24-.27.57-.46.98-.58.29-.08.59-.12.91-.12M11.28,73.04c.13,0,.3,0,.5.02.2.01.37.05.5.1.35.11.63.29.84.54.21.25.37.54.48.86.11.32.17.66.2,1.02.03.36.05.69.08.98v3.84c.08.03.3.06.66.1.36.04,1.03.06,2.02.06.85,0,1.61-.01,2.28-.04.67-.03,1.01-.04,1.04-.04h13.64c.35.11.63.22.84.34.21.12.41.28.6.48.19.2.3.43.36.7.13,1.01-.04,1.8-.52,2.36-.32.37-.67.6-1.04.68s-.57.12-.6.12H12.32c-1.09,0-1.95-.17-2.56-.5-.61-.33-.92-.81-.92-1.42v-5.56c0-.16,0-.36-.02-.6-.01-.24-.02-.5-.02-.78s0-.54.02-.78.02-.44.02-.6c.05-.56.32-1.01.8-1.36.48-.35,1.03-.52,1.64-.52M14.05,47.92c-1.38,0-2.76.2-4.1.61-1.76.53-3.37,1.37-4.79,2.5-1.84,1.42-3.19,3.18-4.03,5.23-.75,1.84-1.13,3.81-1.13,5.87s.33,3.91.98,5.77c.66,1.89,1.76,3.5,3.28,4.81-.21.56-.34,1.14-.4,1.75l-.02.23v.23c0,.08,0,.19-.01.32-.02.33-.03.68-.03,1.06s0,.74.03,1.06c0,.13.01.23.01.32v5.56c0,2.44,1.32,4.61,3.54,5.82,1.36.74,2.98,1.1,4.94,1.1h20.84c.58,0,1-.09,1.65-.23,1.44-.31,2.75-1.11,3.78-2.31.99-1.16,2.09-3.19,1.68-6.27l-.02-.18-.04-.17c-.24-1.16-.79-2.23-1.59-3.1-.37-.39-.75-.73-1.16-1.02.13-.16.26-.32.38-.49.41-.56.74-1.18.99-1.81.23-.59.38-1.14.46-1.68.05-.35.1-.67.1-1.06v-14.36c0-.44-.02-.9-.05-1.41-.03-.47-.08-.97-.16-1.49-.12-.85-.3-1.51-.55-2.11l-.06-.14-.07-.14c-.58-1.16-2.05-3.18-5.38-3.7l-.11-.02h-.11c-.33-.05-.66-.07-.98-.07h0c-.79,0-1.56.11-2.3.32-1.31.38-2.45,1.09-3.31,2.05-.4.45-.72.92-.98,1.42-.94-.97-2.05-1.81-3.34-2.5l-.16-.08-.16-.07c-.55-.24-1.04-.45-1.47-.62-.58-.22-1.15-.4-1.71-.53-.54-.13-1.12-.22-1.71-.28l-1.05-.11-.35-.03c-.47-.04-.9-.06-1.33-.06h0ZM19.44,75.49c1.65-.38,3.11-1.01,4.35-1.89.3.11.62.21.95.3.16.53.38,1.07.66,1.58h-5.53s-.17,0-.44.01h0Z"/>
      </g>
      <g>
        <path class="cls-1" d="M47.04,87.66c-.55,0-1.12,0-1.72-.02s-1.19-.04-1.79-.06c-1.19-.06-2.25-.52-3.06-1.33s-1.26-1.83-1.36-3.03c-.05-.46-.09-.96-.11-1.44-.01-.44-.02-.86-.02-1.26v-.26c-.03-.39-.03-.82,0-1.3.05-.83.33-1.6.81-2.23-.03-.04-.05-.08-.08-.12-.75-1.12-.95-2.49-.54-3.8l.04-.12c.25-.66.66-1.22,1.2-1.62.35-.26.75-.48,1.18-.64.34-.13.68-.22,1.01-.29.23-.05.43-.08.61-.11l.12-.02c.26-.03.51-.06.76-.07.25-.02.52-.03.79-.03h.97l.2.04h3.3c-.16-.38-.29-.79-.39-1.21-.14-.61-.22-1.27-.24-1.94-.01-.55-.01-1.1,0-1.66.01-.48.02-.94.02-1.37v-1.9c0-.26,0-.54-.02-.83-.15,0-.31,0-.48,0h-5.62c-.37,0-.71-.02-1.02-.06-.21-.03-.48-.06-.78-.1-.26-.04-.62-.08-1.06-.13-1.32-.15-2.41-.95-2.99-2.18-.37-.78-.56-1.69-.56-2.7v-.12c.06-1.32.65-2.44,1.66-3.17.61-.44,1.29-.78,2.02-.99.63-.19,1.19-.28,1.71-.28.25,0,.48.02.69.06.02,0,.23.04.79.04.18,0,.34.01.51.04h.93c.64,0,1.64,0,3.02-.02,1.39-.01,3.38-.02,5.94-.02h.18l.18.03c1.75.26,3.05.93,3.89,1.99.19.25.36.51.5.79.51-.28,1.17-.49,2.01-.53.12,0,.27-.02.45-.03.06-.17.12-.34.2-.51l.06-.13c.45-.85,1.41-1.93,3.45-2.27l.11-.02c.25-.03.49-.04.73-.04.51,0,1.01.07,1.48.2.86.25,1.58.71,2.11,1.36.61.7,1,1.4,1.21,2.13l.03.1.02.1c.04.19.08.5.12.93.03.38.05.78.05,1.21v6.7c0,.64,0,1.08.02,1.34.01.27.02.49.04.67.02.28.02.62,0,1.03-.01.33-.05.9-.1,1.72-.03.39-.07.72-.12,1.05-.08.59-.28,1.17-.58,1.73-.06.11-.12.21-.19.32,1.15.89,1.77,2.22,1.77,3.81v2.72c0,.75-.17,1.48-.51,2.18-.12.24-.25.46-.41.68.3.36.57.83.76,1.43.73,2.2-.25,4.22-2.51,5.11-.51.21-1.09.36-1.67.41-.4.03-.78.05-1.13.05h-18.6ZM59.9,69.94c-.28-.09-.54-.19-.79-.3-.22-.1-.43-.21-.62-.33-.07.22-.15.43-.24.64h1.66Z"/>
        <path class="cls-2" d="M65.24,53.17c.29,0,.55.04.8.11.37.11.67.29.88.56.37.43.61.83.72,1.2.03.13.05.35.08.66.03.31.04.64.04,1v6.7c0,.69,0,1.18.02,1.46.01.28.03.52.04.72.01.2.01.45,0,.76-.01.31-.05.86-.1,1.66-.03.29-.06.59-.1.88-.04.29-.14.59-.3.88-.16.29-.37.56-.64.8-.45.27-.89.4-1.32.4-.4,0-.77-.11-1.12-.32-.27-.16-.48-.35-.64-.58-.16-.23-.29-.45-.38-.68s-.15-.42-.18-.58c-.03-.16-.04-.25-.04-.28v-.64c-.45,0-.94-.04-1.46-.12-.52-.08-.99-.21-1.4-.4-.41-.19-.75-.45-1-.78-.25-.33-.34-.77-.26-1.3.08-.59.25-1.03.5-1.34.25-.31.67-.47,1.26-.5.35-.03.72-.05,1.12-.06.4-.01.81-.02,1.24-.02v-2.84c-.48-.03-.99-.07-1.54-.12-.55-.05-1.05-.17-1.5-.34-.45-.17-.81-.42-1.08-.74-.27-.32-.36-.76-.28-1.32.08-.59.25-1.03.5-1.34.25-.31.67-.47,1.26-.5.32-.03.72-.05,1.2-.06.48-.01.95-.02,1.4-.02v-.9c0-.39.07-.73.2-1.02.27-.51.81-.83,1.64-.96.15-.02.3-.03.44-.03M41.6,53.78c.09,0,.17,0,.24.02.29.05.71.08,1.24.08.08,0,.13,0,.14.02.01.01,0,.02-.02.02h1.32c.64,0,1.65,0,3.04-.02,1.39-.01,3.36-.02,5.92-.02,1.09.16,1.85.51,2.28,1.06.43.55.64,1.41.64,2.58s.02,2.29.06,3.44.03,2.29-.02,3.44c-.03.37-.04.77-.04,1.18s0,.83-.02,1.24c-.01.41-.06.81-.14,1.2-.08.39-.2.74-.36,1.06-.21.37-.49.67-.84.88-.35.21-.71.35-1.1.4-.11.02-.22.02-.33.02-.27,0-.54-.05-.81-.14-.37-.13-.67-.39-.88-.76-.24-.4-.41-.83-.52-1.3-.11-.47-.17-.95-.18-1.46-.01-.51-.01-1.01,0-1.52.01-.51.02-.99.02-1.44v-1.9c0-.65-.04-1.39-.12-2.22-.05-.56-.36-.89-.92-.98-.56-.09-1.21-.14-1.96-.14h-5.62c-.25,0-.49-.01-.7-.04-.21-.03-.46-.06-.74-.1-.28-.04-.66-.09-1.14-.14-.45-.05-.79-.31-1-.76-.21-.45-.32-1-.32-1.64.03-.56.23-.98.62-1.26.39-.28.81-.49,1.26-.62.4-.12.73-.18,1-.18M45.6,72.4c.13.03.25.04.36.04h18.44c1.36,0,2.4.21,3.12.62.72.41,1.08,1.09,1.08,2.02v2.72c0,.37-.09.74-.26,1.1-.17.36-.47.66-.9.9-.35.21-.69.33-1.04.34-.35.01-.69.02-1.04.02h-18.96v1.48h20.36c.43.03.8.13,1.12.3.32.17.55.47.68.9.32.96-.03,1.64-1.04,2.04-.32.13-.64.21-.96.24-.32.03-.63.04-.92.04h-18.6c-.53,0-1.09,0-1.66-.02-.57-.01-1.15-.03-1.74-.06-.56-.03-1.03-.23-1.4-.6s-.59-.87-.64-1.48c-.05-.45-.09-.89-.1-1.3-.01-.41-.02-.81-.02-1.18v-.36c-.03-.29-.03-.64,0-1.04.03-.4.16-.73.4-1,.37-.4.87-.65,1.5-.76.63-.11,1.23-.16,1.82-.16h.8c.13.03.24.04.32.04h17.68v-1.32h-17.84c-.13,0-.27,0-.42-.02-.05,0-.1,0-.15,0-.1,0-.21,0-.31.03h-1.68c-.21,0-.43-.03-.64-.08-.24-.05-.45-.11-.64-.16-.19-.05-.35-.19-.48-.4-.37-.56-.47-1.13-.28-1.72.08-.21.2-.38.36-.5s.35-.22.56-.3c.21-.08.42-.14.62-.18.2-.04.38-.07.54-.1.21-.03.42-.05.62-.06s.41-.02.62-.02h.72M65.24,48.17c-.33,0-.67.02-1.01.06h-.11s-.11.03-.11.03c-2.67.43-4.13,1.84-4.89,2.94-1.21-1.21-2.86-1.97-4.91-2.27l-.36-.05h-.36c-2.58,0-4.57,0-5.97.02-1.37.01-2.36.02-2.99.02h-.76c-.22-.03-.44-.04-.68-.04s-.37,0-.41-.01c-.35-.06-.71-.09-1.07-.09-.76,0-1.56.13-2.44.39-.98.29-1.91.75-2.76,1.36-1.63,1.18-2.58,2.98-2.68,5.07v.12s0,.12,0,.12c0,1.38.27,2.65.8,3.77.95,2.02,2.75,3.34,4.94,3.59.44.05.77.09,1.01.12.32.05.6.08.84.11.4.05.84.08,1.31.08h3.62v.24c0,.41,0,.85-.02,1.3-.02.59-.02,1.2,0,1.79,0,.19.01.38.03.57l-.14-.03h-1.23c-.33,0-.65.01-.96.03-.29.02-.58.05-.89.09h-.12s-.11.03-.11.03c-.2.03-.43.08-.68.13-.47.09-.93.23-1.39.4-.66.25-1.27.58-1.81.98-.92.69-1.63,1.64-2.04,2.74l-.05.12-.04.12c-.49,1.56-.43,3.17.17,4.65-.26.66-.42,1.36-.47,2.09-.04.56-.04,1.07-.01,1.55v.18c0,.43,0,.87.02,1.35.02.52.06,1.09.12,1.66.17,1.75.89,3.3,2.08,4.49,1.26,1.26,2.88,1.97,4.69,2.06.65.03,1.26.05,1.87.06.62.01,1.21.02,1.78.02h18.6c.42,0,.86-.02,1.32-.05.85-.07,1.66-.27,2.44-.59,3.45-1.38,5.05-4.75,3.92-8.21-.08-.24-.17-.47-.27-.7.36-.9.55-1.84.55-2.8v-2.72c0-1.62-.46-3.09-1.31-4.29.13-.41.22-.82.28-1.24.05-.37.09-.74.13-1.11v-.06s0-.06,0-.06c.06-.85.09-1.44.11-1.77.02-.5.02-.92,0-1.3-.01-.19-.02-.39-.04-.63,0-.09-.02-.38-.02-1.23v-6.7c0-.5-.02-.98-.06-1.43-.04-.49-.09-.87-.16-1.2l-.04-.2-.06-.2c-.3-1.06-.88-2.09-1.71-3.06-.85-1.02-2-1.76-3.32-2.14-.72-.2-1.45-.3-2.19-.3h0Z"/>
      </g>
      <g>
        <path class="cls-1" d="M99.33,88.02l-.2-.1c-.96-.14-1.82-.53-2.5-1.14-.68-.61-1.19-1.36-1.54-2.22-.29-.72-.47-1.48-.54-2.26-.06-.62-.09-1.19-.09-1.7v-2.26c-.38,1.42-.89,2.71-1.51,3.83-.83,1.48-2.01,2.61-3.49,3.38-1.36.7-2.83,1.11-4.37,1.21-.25.02-.51.03-.76.03-1.27,0-2.53-.21-3.75-.64-1.54-.53-2.87-1.38-3.95-2.53-.93-1-1.6-2.08-2.01-3.2-.35-.97-.61-2.05-.76-3.21-.14-1.01-.25-2.01-.33-2.98-.09-1.04-.11-2.08-.05-3.1.06-1.09.25-2.17.55-3.23.31-1.08.8-2.18,1.44-3.24.23-.39.51-.77.84-1.13-.62-.14-1.16-.35-1.62-.62-1.23-.73-2.03-1.95-2.24-3.44-.22-1.58.26-3.01,1.35-4.05l.1-.09c.65-.55,1.22-.9,1.81-1.08.5-.16,1.07-.24,1.73-.24.21,0,.43.01.64.04,0,0,1.18,0,1.28,0,.1-.83.38-1.6.82-2.29l.08-.11c.99-1.37,2.39-2.12,3.95-2.12.11,0,.21,0,.32,0h.1s.1.02.1.02c.4.06.8.12,1.2.19,1,.18,1.86.71,2.48,1.54l.06.08c.51.74.79,1.63.85,2.67.24,0,.43,0,.57,0h.72c.77,0,1.55.12,2.32.35.62.19,1.17.49,1.65.9,0-.03,0-.05.01-.08.08-.44.2-.91.37-1.38.25-.68.61-1.27,1.08-1.74.5-.5,1.16-.87,1.96-1.07.56-.15,1.1-.22,1.61-.22,1.25,0,2.38.46,3.25,1.33.75.75,1.21,1.61,1.36,2.54.07.42.13.85.18,1.3.04.22.06.45.07.72.05.48.09.98.1,1.48.01.46.03.91.06,1.37v.14c0,.25,0,.5.02.74.02.32.02.65.02.98v.21l-.02.13c.01.19.02.37.02.54v1.14h.06l.24.05s.1.02.15.02c.24.02.46.05.69.09.57.1,1.09.28,1.59.53.75.38,1.34.96,1.72,1.7.39.67.58,1.42.58,2.24,0,.29,0,.54-.03.78-.02.31-.08.63-.17.98-.06.24-.12.48-.19.74-.23.81-.69,1.47-1.34,1.94-.64.46-1.3.77-1.96.92l-.13.03-.13.02c-.34.04-.71.07-1.11.07.01.88.02,1.67.02,2.37.05,1.35.05,2.79,0,4.18v.46c0,.37,0,.78-.02,1.22-.02.49-.06.99-.12,1.46-.08.59-.22,1.15-.42,1.68-.25.67-.61,1.25-1.07,1.73-.79.88-1.89,1.36-3.11,1.36h-.59ZM83.88,77.35c.21.02.41.04.6.05h.02c.11-.01.14-.04.18-.08.19-.18.35-.39.48-.65.16-.31.27-.65.33-1.03.08-.47.12-.91.12-1.29s-.02-.86-.05-1.37c-.03-.47-.09-.93-.18-1.38-.06-.31-.16-.6-.29-.86-.05-.1-.1-.16-.15-.21-.05-.02-.12-.04-.24-.06-.08-.01-.17-.02-.25-.02-.15,0-.3.02-.45.05-.23.05-.42.12-.6.21-.35.79-.52,1.5-.53,2.21-.01.91.08,1.85.29,2.82.1.43.25.93.45,1.44.02.05.04.09.06.12.07,0,.14.02.21.02ZM92.04,63.65c.42.47.8.98,1.13,1.53.54.9.97,1.89,1.28,2.94v-5.49c-.55.44-1.2.74-1.96.92-.15.04-.3.07-.46.1Z"/>
        <path class="cls-2" d="M84.2,52.03c.05,0,.11,0,.16,0,.37.05.75.11,1.12.18.37.07.68.26.92.58.29.43.43,1.01.42,1.74-.01.73,0,1.39.06,1.98h1.16c.21,0,.52,0,.92.02s.71.02.92.02h.72c.53,0,1.07.08,1.6.24.53.16.95.51,1.24,1.04.19.35.25.78.2,1.3s-.21.95-.48,1.3c-.27.32-.68.55-1.24.68-.56.13-1.15.22-1.76.26-.37.02-.72.04-1.05.04-.22,0-.44,0-.65-.02-.52-.03-.87-.04-1.06-.04-.21.03-.42.04-.62.04h-1.94c-.21-.03-.42-.04-.62-.04h-.62l-4.72-.08c-1.36,0-2.33-.17-2.92-.52-.59-.35-.93-.89-1.04-1.64-.11-.77.09-1.4.6-1.88.37-.32.69-.52.94-.6.25-.08.58-.12.98-.12.11,0,.21,0,.32.02s.21.02.32.02h1c.37,0,.81,0,1.32-.02.51-.01.95-.03,1.32-.06,0-.11,0-.26.02-.46.01-.2.03-.41.04-.62.01-.21.03-.42.04-.62.01-.2.02-.34.02-.42.05-.45.2-.87.44-1.24.52-.72,1.16-1.09,1.92-1.09M99.6,53.32c.59,0,1.08.2,1.48.6.37.37.59.77.66,1.18.07.41.13.85.18,1.3.03.11.04.27.04.48.05.45.09.92.1,1.4.01.48.03.96.06,1.44,0,.29,0,.58.02.86.01.28.02.57.02.86-.03.16-.03.31-.02.46.01.15.02.29.02.42v3.04c0,.16.03.31.08.44,0,.03.13.04.4.04h.44c.16.04.3.05.41.05.06,0,.11,0,.15-.01h.08c.13,0,.26.01.38.04s.25.04.38.04c.13.03.28.05.44.06.16.01.32.03.48.06.29.05.59.15.88.3.29.15.51.37.64.66.19.29.28.64.28,1.04,0,.21,0,.41-.02.58-.01.17-.05.37-.1.58-.05.21-.11.44-.18.68-.07.24-.19.43-.38.56-.37.27-.73.44-1.08.52-.28.04-.61.05-.98.05-.18,0-.38,0-.58-.01-.31-.01-.59-.02-.85-.02s-.5,0-.71.02c-.03,0-.05.01-.08.04h-.04l-.04.04v.12c-.03.67-.03,1.44-.02,2.32s.02,1.67.02,2.36c.05,1.39.05,2.75,0,4.08v.56c0,.35,0,.73-.02,1.14s-.05.82-.1,1.22c-.05.4-.15.78-.28,1.14s-.32.66-.56.9c-.32.37-.75.56-1.28.56l-.08-.04c-.64-.03-1.15-.21-1.54-.56-.39-.35-.68-.77-.88-1.28-.2-.51-.33-1.03-.38-1.58-.05-.55-.08-1.03-.08-1.46v-24.14c0-.23.03-.49.08-.8.05-.31.14-.63.26-.96.12-.33.29-.61.5-.82.19-.19.46-.33.82-.42.36-.09.69-.14.98-.14M84.61,62.95c.13,0,.26,0,.39,0,1.44.05,2.65.4,3.64,1.04.99.64,1.79,1.47,2.4,2.48.61,1.01,1.04,2.16,1.28,3.44.24,1.28.34,2.57.3,3.88s-.23,2.59-.56,3.84c-.33,1.25-.77,2.36-1.3,3.32-.59,1.04-1.41,1.83-2.46,2.38-1.05.55-2.18.86-3.38.94-.2.01-.4.02-.6.02-.99,0-1.97-.17-2.94-.5-1.16-.4-2.14-1.03-2.94-1.88-.69-.75-1.19-1.53-1.48-2.34-.29-.81-.51-1.71-.64-2.7-.13-.99-.24-1.94-.32-2.86s-.09-1.83-.04-2.74c.05-.91.21-1.8.46-2.68.25-.88.65-1.76,1.18-2.64.29-.51.71-.95,1.24-1.34s1.13-.71,1.8-.96c.67-.25,1.38-.44,2.14-.56.62-.1,1.23-.15,1.82-.15M84.55,79.91c.12,0,.22,0,.29-.03.59-.08,1.09-.31,1.52-.7.43-.39.77-.85,1.04-1.38.27-.53.45-1.11.56-1.72s.16-1.19.16-1.72c0-.45-.02-.97-.06-1.54-.04-.57-.11-1.13-.22-1.68-.11-.55-.28-1.05-.52-1.52-.24-.47-.56-.85-.96-1.14-.37-.24-.81-.39-1.32-.46-.19-.03-.39-.04-.59-.04-.32,0-.63.03-.95.1-.52.11-.99.29-1.42.54-.43.25-.73.59-.92,1.02-.51,1.09-.77,2.19-.78,3.28s.1,2.21.34,3.36c.13.59.32,1.19.56,1.82.24.63.61,1.11,1.12,1.46.11.08.27.14.5.18.23.04.47.07.72.1.25.03.49.05.72.06.08,0,.15,0,.21,0M84.2,47.03c-2.38,0-4.5,1.12-5.97,3.15l-.08.11-.07.11c-.23.36-.43.72-.59,1.11-.01,0-.03,0-.04,0-.92,0-1.74.12-2.49.35-.9.28-1.78.8-2.68,1.56l-.1.08-.09.09c-1.67,1.58-2.44,3.84-2.11,6.19.28,1.96,1.23,3.62,2.7,4.75-.44.88-.79,1.77-1.05,2.66-.35,1.23-.57,2.5-.65,3.77-.07,1.14-.05,2.3.05,3.46.09,1,.2,2.05.35,3.1.18,1.33.48,2.59.89,3.73.52,1.44,1.37,2.8,2.52,4.04,1.37,1.46,3.04,2.54,4.97,3.2,1.49.51,3.03.77,4.57.77.31,0,.62-.01.93-.03,1.88-.13,3.68-.63,5.35-1.49.9-.47,1.71-1.04,2.43-1.71.48.98,1.12,1.85,1.93,2.57.95.85,2.1,1.42,3.38,1.68l.4.2h1.18c1.93,0,3.68-.76,4.94-2.16.69-.72,1.22-1.59,1.58-2.56.26-.7.45-1.45.55-2.21.08-.57.12-1.15.14-1.72.02-.47.02-.91.02-1.31v-.46c.05-1.39.05-2.83,0-4.27,0-.04,0-.08,0-.12.78-.25,1.54-.64,2.27-1.16,1.11-.79,1.91-1.93,2.29-3.27.09-.32.16-.57.22-.82.12-.49.2-.96.23-1.41.02-.3.04-.63.04-.97,0-1.22-.3-2.4-.88-3.43-.62-1.19-1.58-2.14-2.8-2.75-.44-.22-.9-.4-1.36-.54,0-.35,0-.7-.03-1.03,0-.2-.01-.41-.01-.62v-.28c-.03-.43-.05-.87-.06-1.3-.02-.53-.05-1.06-.1-1.58-.01-.33-.04-.64-.09-.93-.06-.46-.12-.9-.19-1.32-.24-1.46-.95-2.81-2.06-3.92-1.33-1.33-3.11-2.07-5.02-2.07-.72,0-1.47.1-2.24.3-1.23.32-2.27.9-3.09,1.72-.45.45-.84.96-1.15,1.52-.58-.14-1.17-.24-1.76-.28-.21-.58-.48-1.12-.83-1.62l-.06-.09-.06-.08c-1-1.33-2.43-2.22-4.05-2.5-.43-.08-.85-.14-1.28-.21l-.19-.03h-.2c-.16-.02-.32-.03-.48-.03h0Z"/>
      </g>
      <g>
        <path class="cls-1" d="M134.12,88.55c-.41,0-.84-.05-1.26-.15-.85-.17-1.59-.53-2.18-1.07-.54-.48-.95-1.1-1.22-1.83-.16-.44-.29-.89-.38-1.32-.1-.49-.15-.93-.15-1.35v-26.16c0-.49.04-.99.11-1.48.07-.51.19-1.01.34-1.47.23-.69.58-1.28,1.04-1.74.64-.64,1.38-1.05,2.18-1.22.49-.1,1.01-.15,1.55-.15.95,0,1.83.27,2.63.79.81.53,1.43,1.3,1.78,2.23.34.81.53,1.68.57,2.56l.08,1.95v.2c.05,1.99.07,4.15.04,6.35-.03,2.15-.04,4.18-.04,6.09v10.12c0,.19,0,.38.02.58.02.38,0,.76-.03,1.13l-.02.14c-.04.25-.07.49-.09.73-.05.52-.15,1.02-.32,1.52l-.06.17-.08.16c-.04.13-.12.32-.23.54-.37.75-.87,1.35-1.49,1.8l-.08.06-.09.05c-.8.49-1.68.74-2.61.74ZM120.24,86.42c-.68,0-1.36-.14-2.01-.42-.93-.39-1.63-1.06-2.02-1.93-.56-1.12-.86-2.45-.86-3.87v-1.66c-.03-.35-.04-.71-.04-1.06v-14.89s-.08,0-.12,0h-1.67c-.25.01-.5.02-.75.02-.28,0-.55,0-.83-.02-.18-.01-.36-.02-.54-.02-.16,0-.31,0-.47.01-.21.02-.42.03-.61.03-.13,0-.26,0-.38-.01-.1,0-.24-.01-.38-.01-.36,0-.74-.02-1.13-.05-.76-.06-1.47-.32-2.11-.76-.82-.58-1.4-1.36-1.7-2.26-.21-.63-.32-1.3-.33-1.97-.04-.88.15-1.75.54-2.6.29-.68.71-1.23,1.25-1.63.35-.3.78-.54,1.27-.72.33-.12.6-.21.84-.28l.12-.03c.73-.17,1.5-.27,2.28-.29.63-.01,1.25-.02,1.86-.02h7.15l.19.03c.31.05.63.09.97.12.62.06,1.22.21,1.77.44.31.11.68.31,1.04.54.46.31.84.68,1.15,1.11l.08.11c.45.7.72,1.44.8,2.2.04.37.15,1.33.15,1.33.06.81.09,1.62.09,2.4v15.34l.02.53c.01.41.02.89.02,1.45v1.64c0,.63-.02,1.18-.04,1.65v.1c-.04.33-.09.67-.15,1.03-.09.5-.24.98-.44,1.43-.24.54-.58,1.03-1.01,1.46-.47.46-1.04.83-1.71,1.09-.71.29-1.49.45-2.26.45Z"/>
        <path class="cls-2" d="M134.16,53.12c.45,0,.87.13,1.26.38.39.25.66.61.82,1.06.24.56.37,1.15.4,1.76.03.61.05,1.23.08,1.84v.2c.05,2.05.07,4.16.04,6.32s-.04,4.2-.04,6.12v10.12c0,.24,0,.48.02.72.01.24,0,.48-.02.72-.05.32-.09.63-.12.94-.03.31-.09.62-.2.94-.05.11-.09.2-.12.28-.03.08-.07.17-.12.28-.19.37-.43.67-.72.88-.41.25-.85.37-1.32.37-.23,0-.47-.03-.72-.09-.43-.08-.77-.24-1.04-.48-.24-.21-.42-.49-.54-.82-.12-.33-.21-.66-.28-.98s-.1-.6-.1-.84v-26.16c0-.37.03-.75.08-1.12.05-.37.13-.72.24-1.04s.25-.57.44-.76c.29-.29.6-.47.92-.54s.67-.1,1.04-.1M119.4,54.48c.35.05.71.1,1.1.14.39.04.74.13,1.06.26.21.08.42.19.62.32.2.13.37.29.5.48.24.37.38.75.42,1.12.04.37.09.79.14,1.24.05.75.08,1.49.08,2.22v15.34s0,.23.02.62.02.84.02,1.36v1.64c0,.57-.01,1.07-.04,1.5-.03.27-.07.55-.12.84-.05.29-.14.57-.26.84s-.29.51-.5.72c-.21.21-.49.39-.84.52-.45.19-.91.28-1.36.28-.35,0-.69-.07-1.04-.22s-.59-.37-.72-.66c-.43-.85-.64-1.8-.64-2.84v-1.76c-.03-.32-.04-.64-.04-.96v-14.96c0-.43-.03-.87-.08-1.32-.03-.13-.06-.32-.1-.56s-.13-.39-.26-.44c-.12-.07-.25-.1-.39-.1-.02,0-.05,0-.07,0-.06,0-.12,0-.17,0-.11,0-.22,0-.33-.03-.09-.01-.19-.02-.28-.02s-.18,0-.26.02c-.09.01-.18.02-.27.02s-.18,0-.27-.02h-1.88c-.23.01-.45.02-.68.02s-.45,0-.68-.02c-.23-.01-.45-.02-.68-.02s-.45,0-.68.02c-.14.02-.27.03-.4.03-.06,0-.12,0-.18,0-.17-.01-.37-.02-.58-.02-.29,0-.6-.01-.92-.04-.32-.03-.61-.13-.88-.32-.37-.27-.63-.6-.76-1s-.2-.81-.2-1.24c-.03-.51.08-1.01.32-1.52.13-.32.31-.55.52-.68.13-.13.33-.25.58-.34.25-.09.47-.17.66-.22.56-.13,1.15-.21,1.76-.22.61-.01,1.21-.02,1.8-.02h6.96M134.16,48.12c-.71,0-1.4.07-2.06.2-1.27.26-2.46.92-3.44,1.9-.74.74-1.3,1.66-1.65,2.72-.02.05-.03.1-.05.16-.02-.04-.05-.08-.07-.11l-.07-.11-.08-.11c-.48-.67-1.08-1.25-1.77-1.72-.51-.34-1.03-.61-1.56-.82-.75-.3-1.56-.5-2.4-.59-.29-.03-.57-.07-.83-.11l-.38-.06h-7.35c-.62,0-1.26,0-1.91.02-.96.02-1.9.14-2.8.35l-.12.03-.11.03c-.3.09-.62.19-.99.33-.76.28-1.42.66-1.98,1.12-.84.65-1.51,1.52-1.97,2.56-.54,1.19-.8,2.43-.75,3.68.01.92.17,1.83.46,2.7.47,1.4,1.37,2.6,2.59,3.48h.02s.02.03.02.03c.99.69,2.14,1.11,3.34,1.21.46.04.9.06,1.33.06.08,0,.15,0,.22,0,.15.01.35.02.55.02.26,0,.53-.01.8-.04.09,0,.19,0,.28,0,.13,0,.26,0,.39.01.32.02.65.03.97.03.01,0,.03,0,.04,0v12.38c0,.38.01.76.04,1.15v1.57c0,1.79.38,3.48,1.14,5.01.66,1.38,1.82,2.48,3.28,3.09.97.41,1.97.61,2.99.61,1.09,0,2.17-.21,3.21-.64.97-.38,1.82-.93,2.51-1.62.34-.34.64-.7.9-1.08.07.26.16.52.25.77.4,1.12,1.05,2.08,1.92,2.86.88.8,2.03,1.37,3.3,1.63.6.14,1.2.21,1.79.21,1.38,0,2.73-.38,3.91-1.1l.18-.11.17-.13c.94-.69,1.7-1.59,2.24-2.68.12-.25.22-.46.3-.67l.1-.2.12-.35c.23-.68.37-1.38.44-2.08.02-.2.04-.37.07-.56l.02-.14.02-.14c.06-.51.07-1.02.04-1.53,0-.17-.01-.31-.01-.46v-10.12c0-1.86.01-3.9.04-6.06.03-2.21.01-4.38-.04-6.45v-.35s-.03-.59-.03-.59l-.05-1.24c-.05-1.18-.3-2.32-.74-3.39-.54-1.41-1.48-2.59-2.74-3.41-1.19-.78-2.57-1.2-4-1.2h0Z"/>
      </g>
    </g>
  </g>
</svg>