<?xml version="1.0" encoding="UTF-8"?>
<svg id="_레이어_2" data-name=" 레이어 2" xmlns="http://www.w3.org/2000/svg" version="1.1" viewBox="0 0 184.3 91.3">
  <defs>
    <style>
      .cls-1 {
        fill: #f99a21;
      }

      .cls-1, .cls-2 {
        stroke-width: 0px;
      }

      .cls-2 {
        fill: #fff;
      }
    </style>
  </defs>
  <g id="BACKGROUND_2" data-name="BACKGROUND 2">
    <g>
      <g>
        <path class="cls-1" d="M48.7,39.8h-.2c-1-.2-1.8-.6-2.5-1.2s-1.2-1.3-1.5-2.2c-.3-.7-.5-1.5-.5-2.3,0-.6,0-1.2,0-1.7V8.3c0-.4,0-.8.1-1.2,0-.4.2-.9.4-1.4.2-.7.6-1.3,1.1-1.7.5-.5,1.2-.9,2-1.1.6-.2,1.1-.2,1.6-.2,1.2,0,2.4.5,3.2,1.3.8.8,1.2,1.6,1.4,2.5,0,.4.1.8.2,1.3,0,.2,0,.4,0,.7,0,.5,0,1,0,1.5,0,.5,0,.9,0,1.4v.7c0,.1,0,.3,0,.5,0,.3,0,.8,0,1.4v1c.2,0,.4,0,.7,0h.6c1,.3,1.9.8,2.6,1.4.6.6,1.2,1.6,1.2,3.1s0,1-.1,1.6c-.2,1.1-.7,2.1-1.6,2.8-.2.2-.6.4-.9.6-.3.2-.7.3-1.1.4h-.1s-.2,0-.2,0c-.3,0-.7,0-1.1,0v2.7c0,1.4,0,2.8,0,4.2v.5c0,.4,0,.8,0,1.2,0,.5,0,1-.1,1.5,0,.6-.2,1.1-.4,1.7-.2.7-.6,1.2-1.1,1.7-.8.9-1.9,1.4-3.1,1.4h-.6ZM37,38.2c-.7,0-1.4-.1-2-.4-.9-.4-1.6-1.1-2-1.9-.6-1.1-.9-2.5-.9-3.9v-1.7c0-.4,0-.7,0-1.1v-14.9h-1.8c-.2,0-.5,0-.8,0s-.5,0-.8,0c-.2,0-.4,0-.5,0s-.3,0-.5,0c-.2,0-.4,0-.6,0s-.3,0-.4,0c-.1,0-.2,0-.4,0-.4,0-.7,0-1.1,0-.8,0-1.5-.3-2.1-.8-.8-.6-1.4-1.4-1.7-2.3-.2-.6-.3-1.3-.3-2,0-.9.1-1.8.5-2.6.3-.7.7-1.2,1.2-1.6.4-.3.8-.5,1.3-.7.3-.1.6-.2.8-.3h.1c.7-.2,1.5-.3,2.3-.3.6,0,1.2,0,1.9,0h7.3c.3,0,.6.1,1,.1.6,0,1.2.2,1.8.4.3.1.7.3,1,.5.5.3.8.7,1.2,1.1h0c.5.8.7,1.6.8,2.3,0,.4.2,1.3.2,1.3,0,.8,0,1.6,0,2.4v15.9c0,.4,0,.9,0,1.5v1.6c0,.6,0,1.2,0,1.6,0,.4,0,.8-.2,1.1,0,.5-.2,1-.4,1.4-.2.5-.6,1-1,1.5-.5.5-1,.8-1.7,1.1-.7.3-1.5.5-2.3.5h0Z"/>
        <path class="cls-2" d="M49,5.1c.6,0,1.1.2,1.5.6.4.4.6.8.7,1.2s.1.8.2,1.3c0,.1,0,.3,0,.5,0,.4,0,.9,0,1.4s0,1,0,1.4v.5c0,.1,0,.3,0,.6,0,.3,0,.7,0,1.3v3.4c.4,0,.8,0,1.2,0s.8,0,1.2,0c.1,0,.3,0,.4,0s.3,0,.5,0c.5.1,1,.3,1.3.7.3.3.5.8.5,1.3s0,.8,0,1.3c0,.5-.3.9-.6,1.1-.2.1-.3.2-.5.3s-.3.1-.6.2c-.3,0-.6,0-1,0s-.4,0-.6,0c-.3,0-.6,0-.8,0s-.5,0-.7,0c-.1,0-.2,0-.2.2v5c0,1.4,0,2.8,0,4.1v.6c0,.3,0,.7,0,1.1,0,.4,0,.8,0,1.2s-.2.8-.3,1.1c-.1.4-.3.7-.6.9-.3.4-.8.6-1.3.6h0c-.6,0-1.2-.2-1.5-.6-.4-.3-.7-.8-.9-1.3s-.3-1-.4-1.6c0-.5,0-1,0-1.5V8.3c0-.2,0-.5,0-.8,0-.3.1-.6.3-1s.3-.6.5-.8c.2-.2.5-.3.8-.4s.7-.1,1-.1M36.2,6.3c.3,0,.7,0,1.1.1s.7.1,1.1.3c.2,0,.4.2.6.3s.4.3.5.5c.2.4.4.8.4,1.1,0,.4,0,.8.1,1.2,0,.8,0,1.5,0,2.2v15.3s0,.2,0,.6c0,.4,0,.8,0,1.4v1.6c0,.6,0,1.1,0,1.5,0,.3,0,.5-.1.8s-.1.6-.3.8-.3.5-.5.7c-.2.2-.5.4-.8.5-.5.2-.9.3-1.4.3s-.7,0-1-.2c-.3-.2-.6-.4-.7-.7-.4-.8-.6-1.8-.6-2.8v-1.8c0-.3,0-.6,0-1v-15c0-.4,0-.9,0-1.3,0-.1,0-.3,0-.6s-.1-.4-.3-.4c-.1,0-.2-.1-.4-.1h-.2c-.1,0-.2,0-.3,0,0,0-.2,0-.3,0s-.2,0-.3,0c0,0-.2,0-.3,0s-.2,0-.3,0h-1.9c-.2,0-.5,0-.7,0s-.5,0-.7,0c-.2,0-.5,0-.7,0s-.5,0-.7,0c-.1,0-.3,0-.4,0h-.2c-.2,0-.4,0-.6,0s-.6,0-.9,0-.6-.1-.9-.3c-.4-.3-.6-.6-.8-1-.1-.4-.2-.8-.2-1.2,0-.5,0-1,.3-1.5.1-.3.3-.6.5-.7.1-.1.3-.2.6-.3s.5-.2.7-.2c.6-.1,1.1-.2,1.8-.2.6,0,1.2,0,1.8,0h7M49,.1c-.7,0-1.5.1-2.2.3-1.2.3-2.3.9-3.1,1.7-.4.4-.8.9-1,1.4-.3-.2-.5-.5-.8-.7-.5-.3-1-.6-1.5-.8-.8-.3-1.6-.5-2.4-.6-.3,0-.6,0-.8-.1h-.4c0,0-7.4,0-7.4,0-.6,0-1.3,0-1.9,0-1,0-1.9.1-2.8.4h-.1s-.1,0-.1,0c-.3,0-.6.2-1,.3-.8.3-1.4.7-2,1.1-.8.7-1.5,1.5-2,2.6-.5,1.2-.8,2.4-.8,3.7,0,.9.2,1.8.5,2.7.5,1.4,1.4,2.6,2.6,3.5,1,.7,2.2,1.1,3.4,1.2.5,0,.9,0,1.3,0h.2c.2,0,.4,0,.5,0s.5,0,.8,0h.3c.1,0,.3,0,.4,0,.3,0,.6,0,1,0h0v12.4c0,.4,0,.8,0,1.1v1.6c0,1.8.4,3.5,1.1,5,.7,1.4,1.8,2.5,3.3,3.1,1,.4,2,.6,3,.6s2.2-.2,3.2-.6c1-.4,1.8-.9,2.5-1.6.4.7,1,1.4,1.6,2,.9.8,2.1,1.4,3.4,1.7l.4.2h1.2c1.9,0,3.7-.8,5-2.2.7-.7,1.2-1.6,1.6-2.6.3-.7.5-1.5.5-2.2,0-.6.1-1.1.1-1.7,0-.5,0-.9,0-1.3v-.5c0-1.4,0-2.8,0-4.3v-.5c.4-.1.7-.3,1.1-.4.5-.2.9-.5,1.4-.9,1.3-1.1,2.2-2.6,2.4-4.3,0-.7.2-1.4.2-2,0-1.9-.7-3.6-2-4.9-.9-.9-1.9-1.5-3.1-1.8,0-.1,0-.3,0-.4,0-.2,0-.3,0-.4v-.8c0-.4,0-.9,0-1.3,0-.5,0-1.1,0-1.6,0-.3,0-.6,0-.9,0-.5-.1-.9-.2-1.3-.2-1.5-1-2.8-2.1-3.9-1.3-1.3-3.1-2.1-5-2.1h0Z"/>
      </g>
      <g>
        <path class="cls-1" d="M62.1,37.3c-.4,0-.8,0-1.3,0-1.2,0-2.2-.5-3.1-1.2h0c-1.4-1.3-1.7-2.7-1.7-3.7s.2-1.7.7-2.5c.5-.9,1.3-1.6,2.2-2,.7-.3,1.3-.4,2-.5-.2-.2-.5-.5-.7-.7-.7-.9-1-1.9-1.1-3.1,0-.2,0-.7,0-1.3v-1.7c0-.6,0-1.2,0-1.7v-2c0-.4,0-.9,0-1.4,0-.8.4-1.6,1-2.3.3-.4.7-.7,1.1-1-.5-.3-1-.8-1.4-1.5-.7-1.2-.8-2.5-.5-3.8h0c.3-1.3,1.1-2.2,2.2-2.8.7-.3,1.2-.5,1.8-.7.4,0,.8-.1,1.1-.1h2.1c.4,0,1,0,1.6,0,.6,0,1.2,0,1.9,0s1.4,0,2.1,0c.7,0,1.4,0,2,0h8.1c.5,0,1,0,1.5,0,.7,0,1.3.2,1.9.3,1.4.4,2.5,1.4,2.9,2.9.3.9.4,1.7.4,2.5v5.3c0,.3,0,.7,0,1.1,0,.4-.1.9-.2,1.3-.1.5-.3,1-.5,1.5-.3.6-.7,1.1-1.1,1.5.6.4,1.4,1.1,1.8,2.4h0c.2,1.1.2,2.1-.1,3.1-.3.8-.7,1.4-1.3,1.9.4,0,.8.2,1.2.3.7.2,1.4.6,2,1.1h0c0,0,0,.1,0,.1.8.9,1.3,1.9,1.3,3.2s0,1.1-.2,1.6c-.2.7-.5,1.3-.9,1.7h0c0,0,0,.1,0,.1-.5.5-1.1.9-1.8,1.1-.5.2-.9.3-1.4.3-.4,0-.8,0-1.1,0h-22.9c-.2,0-.4,0-.6,0-.2,0-.5,0-.8,0h0Z"/>
        <path class="cls-2" d="M82.1,6.1c.4,0,.9,0,1.4,0,.4,0,.9.1,1.3.2.6.2,1.1.6,1.2,1.2.2.6.3,1.2.3,1.8v5.3c0,.2,0,.5,0,.8s0,.7-.2,1.1-.2.7-.3,1.1c-.2.3-.3.6-.5.7-.4.2-.7.3-1.1.4-.2,0-.4,0-.6,0s-.3,0-.4,0h-15.8v3.2h16.5c.2,0,.4,0,.7,0,.4,0,.8.1,1.1.3s.6.5.7,1c.1.5.1,1,0,1.5-.2.5-.5.8-1,1-.3.1-.7.2-1,.3s-.7,0-.9,0h-6.9v3.8c.7,0,1.3,0,1.8,0,.6,0,1.1,0,1.6,0s1.1,0,1.6,0c.6,0,1.1,0,1.7,0,.2,0,.4,0,.6,0,.3,0,.6,0,.8,0,.2,0,.4,0,.6,0s.5,0,.7,0c0,0,.1,0,.2,0h0c0,0,.2,0,.2,0,.4,0,.9.1,1.3.3s.8.3,1.1.7c.4.4.6.8.6,1.4s0,.6-.1.9c0,.3-.2.6-.4.8-.2.2-.5.4-.8.5s-.6.2-.9.2-.6,0-.8,0h-22.8c-.1,0-.3,0-.4,0-.1,0-.3,0-.4,0-.2,0-.5,0-.7,0-.4,0-.7,0-1.1,0-.6,0-1.2-.2-1.6-.6-.6-.5-.8-1.1-.8-1.7s.1-.8.4-1.2.6-.7,1-.9c.5-.2,1.1-.3,1.7-.3s1.2,0,1.7,0h.2c1.3,0,2.6,0,3.9,0s2.6,0,4,0v-3.8h-5.9c-.6,0-1.2,0-1.7,0-.6,0-1-.3-1.4-.8-.4-.5-.6-1.1-.6-1.8,0-.2,0-.6,0-1.2,0-.5,0-1.1,0-1.7,0-.6,0-1.1,0-1.6v-2c0-.3,0-.7,0-1s.2-.7.4-1c.3-.4.8-.7,1.5-.9s1.2-.2,1.8-.2.3,0,.7,0c.2,0,.3,0,.4,0s.2,0,.3,0h14.2v-3.4h-14.6c-.1,0-.3,0-.4,0-.2,0-.3,0-.4,0s-.3,0-.5,0c-.2,0-.3,0-.5,0-.6,0-1,0-1.4-.2-.5-.1-.8-.4-1.1-.9-.3-.6-.4-1.3-.3-2,.1-.5.4-.8.9-1.1s.9-.4,1.2-.4c.2,0,.4,0,.6,0h2.1c.4,0,.9,0,1.6,0,.6,0,1.3,0,2,0s1.4,0,2.1,0,1.3,0,1.9,0h8.1M82.1,1.1h-8.1c-.6,0-1.3,0-2,0-.7,0-1.3,0-2,0s-1.3,0-1.9,0c-.7,0-1.2,0-1.7,0h-2.1c-.5,0-1.1,0-1.7.2-.7.1-1.5.4-2.3.9-1.8.9-3,2.4-3.5,4.2h0c0,.1,0,.2,0,.2-.4,1.9-.2,3.8.8,5.6,0,0,.1.2.2.3-.6.9-1,2-1.1,3.1,0,.6,0,1.2,0,1.7v1.9c0,.5,0,1.1,0,1.8,0,.6,0,1.1,0,1.7,0,.6,0,1.1,0,1.5,0,.7.2,1.5.4,2.1-1.1.6-2,1.5-2.6,2.6-.7,1.2-1,2.4-1,3.7,0,2,.9,4,2.5,5.4h0c0,0,0,.2,0,.2,1.3,1,2.8,1.6,4.5,1.8.5,0,1,0,1.4,0s.5,0,.8,0c.2,0,.5,0,.7,0h22.7c.4,0,.9,0,1.5-.1.6,0,1.2-.2,1.8-.4,1.1-.3,2-.9,2.8-1.7h.1c0-.1.1-.3.1-.3.6-.7,1.1-1.6,1.4-2.7.2-.8.3-1.5.3-2.3,0-1.9-.7-3.6-2-4.9h-.1c0-.1-.2-.3-.2-.3-.4-.3-.7-.6-1.1-.8.4-1.3.5-2.8.1-4.2h0c0-.1,0-.2,0-.2-.2-.7-.5-1.4-.9-2v-.3c.4-.6.6-1.3.8-2,.1-.5.2-1,.3-1.5,0-.5,0-1,0-1.4v-5.3c0-1.1-.2-2.2-.5-3.2-.7-2.2-2.3-3.9-4.6-4.6-.8-.2-1.6-.4-2.5-.5-.6,0-1.1,0-1.7,0h0Z"/>
      </g>
      <g>
        <path class="cls-1" d="M127.5,39.1c-.4,0-.8,0-1.1-.1-.9-.2-1.6-.6-2.2-1.2,0,0,0,0-.1-.2-.1.2-.3.3-.4.4-.8.7-1.8,1-3,1s-.6,0-1,0c-.6,0-1.2-.3-1.6-.6-.5-.3-.9-.8-1.2-1.3-.7.4-1.3.5-1.8.5h-.2c-1.1,0-2.1-.4-2.9-1.2-.4-.4-.8-.8-1.2-1.3-.4-.5-.9-1.1-1.3-1.8-.3-.5-.6-.9-.8-1.2,0,0,0,0,0,.1l-.6.8c-.2.3-.4.6-.7.9-.1.2-.2.4-.4.5-.4.5-.8.9-1.2,1.4-.6.7-1.4,1.2-2.2,1.5-.5.2-1.1.4-1.7.4s-1.6-.2-2.2-.7c-.3-.2-.5-.4-.8-.7h0c-.8-1-1.3-2.2-1.3-3.5h0c0-.9.2-1.7.6-2.4.2-.5.5-1,.7-1.4l.2-.3h.1c0-.2.1-.3.2-.5.2-.4.5-.9.9-1.4.3-.6.7-1.2,1.1-1.9.4-.7.8-1.4,1.2-2,.4-.6.7-1.1.9-1.6.2-.4.4-.7.6-1,0-.1,0-.2.1-.3,0,0,0-.1,0-.2,0-.4,0-.7,0-1v-9.2c0-.3,0-.6,0-.9,0-.4,0-.8.1-1.2,0-.3.1-.6.2-.9h0c0-.1,0-.2,0-.2,0-.3.2-.6.4-.8l.3-.6h0c.4-.7.9-1.2,1.6-1.5.3-.2.6-.3,1-.3h.3c.4-.2.7-.2,1-.2h.3c.3,0,.7.2,1.1.3.6.2,1,.5,1.4.9.3.3.6.7.8,1.2,0,.2.2.5.3.7.2.4.3.8.4,1.3,0,.4.2.9.2,1.4.1,1.1.2,2.5.2,3.9,0,.5,0,1,0,1.5.4-.2.9-.3,1.4-.3.2,0,.3,0,.5,0v-5.8c0-.6,0-1.1.2-1.6v-.2s.5-1.1.5-1.1v-.2c.7-.9,1.6-1.7,2.6-2,.3-.1.7-.2,1.1-.2.2,0,.4,0,.7,0,1.3,0,2.4.5,3.3,1.3,0,0,.2-.2.2-.2.6-.5,1.2-.9,1.9-1.1.5-.1,1-.2,1.6-.2,1.1,0,2,.3,2.8,1,.6.5,1.1,1.2,1.4,2,.3.8.5,1.7.6,2.5v1.9c0,0,0,.2,0,.2,0,2,0,4,0,5.9,0,1.9,0,3.7,0,5.6v10c0,.7,0,1.5,0,2.2,0,1-.3,1.9-.7,2.7-.3.7-.9,1.4-1.6,1.9-.8.5-1.7.8-2.6.8h0ZM115.8,24.5v-.5h-.2c0,.1.2.5.2.5h0Z"/>
        <path class="cls-2" d="M127.7,5c.5,0,.8.1,1.1.4.3.2.5.6.7,1,.2.6.4,1.1.4,1.7,0,.6,0,1.2,0,1.8v.2c0,2,0,4,0,5.8,0,1.9,0,3.7,0,5.6v10c0,.7,0,1.4,0,2s-.2,1.2-.5,1.8c-.2.3-.4.6-.8.9-.4.2-.8.4-1.2.4s-.4,0-.6,0c-.4,0-.7-.2-1-.5s-.4-.5-.5-.9-.2-.7-.2-1c0-.4,0-.7,0-1.1V8.5c0-.4,0-.8,0-1.1,0-.4.1-.7.2-1,0-.3.2-.6.4-.8.3-.3.6-.4.8-.5s.6,0,1,0M120.8,5.1c.9,0,1.6.4,2,1.2.1.2.2.4.2.7s0,.6,0,.9c0,.3,0,.6,0,.8v23.3c0,.7,0,1.2,0,1.6,0,.4-.2.9-.4,1.5-.1.4-.4.7-.7,1s-.8.4-1.4.4-.4,0-.6,0-.5-.1-.6-.2c-.3-.2-.5-.4-.6-.8s-.3-.7-.3-1.1c0-.4-.1-.8-.1-1.2s0-.7,0-.9v-10.7h-2.6c-.2-.1-.5-.2-.7-.2s-.5-.2-.7-.3-.4-.4-.6-.6c-.2-.3-.2-.6-.3-1,0-.5,0-1,0-1.5.1-.5.5-1,1.1-1.3.2-.1.5-.2.9-.2.2,0,.3,0,.5,0s.3,0,.4,0h1.9v-8.3c0-.4,0-.7.1-1.1,0-.1,0-.2.1-.4s0-.2.1-.4c.3-.5.7-.8,1.2-1,.1,0,.3,0,.4,0,.2,0,.3,0,.4,0M109,5.4h0c.1,0,.3,0,.5.1s.4.2.6.4c.1.1.2.2.3.4s.2.4.2.6c.1.3.2.6.3.9,0,.3.1.7.1,1.1.1,1.1.2,2.4.2,3.8s0,2.7,0,3.8c0,.7,0,1.4,0,2.1s0,1.4,0,2c0,.6.2,1.1.4,1.6s.5,1,.8,1.5c.3.6.6,1.2.8,1.8s.6,1.2.9,1.8c0,0,.1.3.3.6.2.3.3.6.5.9s.3.6.5.9.2.5.3.5v.3c0,0,.2.2.2.2.2.3.3.6.4.9,0,.3.1.6.2,1,0,.3,0,.7-.2,1.1-.4.8-.9,1.3-1.6,1.3h0c-.4,0-.8-.2-1.1-.5s-.7-.7-1-1.2c-.4-.4-.7-.9-1.1-1.5-.3-.6-.7-1-.9-1.4-.6-1-1.1-1.7-1.4-2.1s-.5-.6-.5-.7c0,0-.2.2-.4.5-.2.3-.5.6-.7,1s-.5.7-.7,1c-.2.3-.3.5-.4.5-.2.3-.4.6-.6.9-.2.3-.4.6-.6.8,0,0,0,.1-.1.2s0,.2-.1.2c-.4.5-.8.9-1.2,1.3s-.9.8-1.4,1c-.2.1-.4.2-.7.2s-.5,0-.7-.2-.4-.3-.6-.5c-.4-.5-.6-1-.6-1.7,0-.5.1-.9.3-1.4s.4-.8.6-1.2c0,0,.2-.3.5-.7s.6-.9.9-1.5.7-1.2,1.1-1.9.8-1.3,1.1-1.9.7-1.1.9-1.6c.3-.5.4-.7.6-.8.2-.3.3-.6.4-.8s.2-.5.2-.8c0-.4,0-.9,0-1.3v-9.2c0-.2,0-.5,0-.8,0-.3,0-.6,0-.9s.1-.6.2-.8c0-.2.1-.3.2-.5,0-.2.2-.4.3-.5.1-.2.3-.4.5-.5s.5-.2.7-.2h0c.2,0,.3,0,.4,0M127.7,0c-.8,0-1.5,0-2.2.2-.5.1-1.1.3-1.6.6-1-.5-2.1-.7-3.2-.7s-.6,0-.9,0c-.6,0-1.2.2-1.7.4-1.5.5-2.8,1.5-3.6,2.9-.2-.4-.5-.7-.8-1-.7-.7-1.4-1.2-2.3-1.5-.6-.2-1.2-.4-1.8-.4-.2,0-.4,0-.6,0-.5,0-1.1,0-1.6.2h-.5c0,.1-.1.2-.1.2-.4.1-.8.3-1.1.4-1.1.5-2,1.3-2.7,2.3v.2c-.1,0-.2.2-.2.2l-.3.5c-.2.4-.4.8-.5,1.2v.2c0,0-.1.2-.1.2,0,.3-.1.6-.2,1,0,.5-.1,1-.2,1.5,0,.4,0,.7,0,1v9.2c0,.1,0,.3,0,.5-.2.2-.3.5-.5.8-.3.4-.6,1-.9,1.5-.4.6-.8,1.3-1.2,2-.4.6-.7,1.3-1.1,1.8-.3.5-.6,1-.8,1.4,0,0,0,0,0,.1l-.2.2-.3.6c-.3.5-.5,1-.8,1.5-.5,1-.8,2.1-.8,3.2h0v.3c0,1.9.7,3.6,1.9,5h0c0,.1,0,.2,0,.2.4.4.7.7,1.1.9,1.1.8,2.3,1.2,3.7,1.2s1.9-.2,2.7-.6c1.2-.5,2.2-1.2,3-2.1.4-.4.7-.8,1.1-1.2,0,.1.2.2.3.3.4.5.9,1,1.3,1.5,1.3,1.3,2.9,2,4.7,2h.4c.3,0,.6,0,.8-.1.2.2.4.3.6.4.8.5,1.7.9,2.7,1,.5,0,.9.1,1.4.1,1.4,0,2.5-.3,3.4-.8.6.3,1.2.5,1.9.7.6.1,1.1.2,1.7.2,1.4,0,2.7-.4,3.9-1.2h0s0,0,0,0c1.1-.7,1.9-1.7,2.4-2.9s.9-2.3.9-3.6c0-.7,0-1.5,0-2.3v-10c0-1.9,0-3.8,0-5.6,0-1.9,0-3.9,0-6v-.7s0-1.4,0-1.4c0-1.2-.3-2.3-.8-3.4-.5-1.2-1.1-2.2-2.1-2.9-1.2-1-2.7-1.6-4.4-1.6h0Z"/>
      </g>
      <g>
        <path class="cls-1" d="M137.8,37.3c-.4,0-.8,0-1.3,0-1.2,0-2.2-.5-3.1-1.2h0c-1.4-1.3-1.7-2.7-1.7-3.7s.2-1.7.7-2.5c.5-.9,1.3-1.6,2.2-2,.6-.3,1.3-.4,2-.5-.2-.2-.4-.5-.6-.7-.6-.9-1-1.9-1.1-3.1,0-.2,0-.7,0-1.3v-1.7c0-.6,0-1.2,0-1.7v-2c0-.4,0-.9,0-1.4,0-.8.4-1.6,1-2.3.3-.4.7-.7,1.1-1-.5-.3-1-.8-1.4-1.5-.7-1.2-.9-2.5-.6-3.8h0c.3-1.3,1.1-2.2,2.2-2.8.7-.3,1.2-.5,1.8-.7.4,0,.8-.1,1.1-.1h2.1c.4,0,1,0,1.6,0,.6,0,1.2,0,1.9,0s1.4,0,2.1,0c.7,0,1.4,0,2,0h8.1c.5,0,1,0,1.5,0,.7,0,1.3.2,1.9.3,1.4.4,2.5,1.4,2.9,2.9.3.9.4,1.7.4,2.5v5.3c0,.3,0,.7,0,1.1,0,.4-.1.9-.2,1.3-.1.5-.3,1-.5,1.5-.3.6-.6,1.1-1.1,1.5.6.4,1.4,1.1,1.8,2.4h0c.2,1.1.2,2.1-.1,3.1-.3.8-.7,1.4-1.3,1.9.4,0,.8.2,1.2.3.7.2,1.4.6,2,1.1h0c0,0,0,.1,0,.1.9.9,1.3,1.9,1.3,3.2s0,1.1-.2,1.6c-.2.7-.5,1.3-.9,1.7h0c0,0,0,.1,0,.1-.5.5-1.1.9-1.8,1.1-.5.2-.9.3-1.4.3-.4,0-.8,0-1.1,0h-22.9c-.2,0-.4,0-.6,0-.2,0-.5,0-.8,0h0Z"/>
        <path class="cls-2" d="M157.7,6.1c.4,0,.9,0,1.4,0,.4,0,.9.1,1.3.2.6.2,1.1.6,1.2,1.2s.3,1.2.3,1.8v5.3c0,.2,0,.5,0,.8s-.1.7-.2,1.1c0,.4-.2.7-.3,1.1s-.3.6-.5.7c-.4.2-.7.3-1.1.4-.2,0-.4,0-.6,0s-.3,0-.4,0h-15.8v3.2h16.5c.2,0,.4,0,.7,0,.4,0,.8.1,1.1.3s.6.5.7,1c.1.5.1,1,0,1.5-.2.5-.5.8-1,1-.3.1-.6.2-1,.3s-.6,0-.9,0h-6.9v3.8c.7,0,1.3,0,1.8,0,.6,0,1.1,0,1.6,0s1.1,0,1.6,0c.6,0,1.1,0,1.7,0,.2,0,.4,0,.6,0,.3,0,.6,0,.8,0,.2,0,.4,0,.6,0s.5,0,.7,0c0,0,.1,0,.2,0h0c0,0,.2,0,.2,0,.4,0,.9.1,1.3.3s.8.3,1.1.7c.4.4.6.8.6,1.4s0,.6-.1.9c0,.3-.2.6-.4.8-.2.2-.5.4-.8.5s-.6.2-.9.2-.6,0-.8,0h-22.8c-.1,0-.3,0-.4,0-.1,0-.3,0-.4,0-.2,0-.4,0-.7,0-.4,0-.7,0-1.1,0-.6,0-1.2-.2-1.6-.6-.6-.5-.8-1.1-.8-1.7s.1-.8.4-1.2.6-.7,1-.9c.5-.2,1.1-.3,1.7-.3s1.1,0,1.7,0h.2c1.3,0,2.6,0,3.9,0s2.6,0,4,0v-3.8h-5.9c-.6,0-1.1,0-1.7,0-.6,0-1-.3-1.4-.8s-.6-1.1-.6-1.8c0-.2,0-.6,0-1.2s0-1.1,0-1.7,0-1.1,0-1.6v-2c0-.3,0-.7,0-1s.2-.7.4-1c.4-.4.8-.7,1.5-.9s1.2-.2,1.8-.2.4,0,.7,0c.1,0,.3,0,.4,0s.2,0,.3,0h14.2v-3.4h-14.6c-.1,0-.3,0-.4,0-.2,0-.3,0-.4,0s-.3,0-.5,0c-.2,0-.3,0-.5,0-.6,0-1,0-1.4-.2-.4-.1-.8-.4-1.1-.9-.4-.6-.4-1.3-.3-2,.1-.5.4-.8.9-1.1s.9-.4,1.2-.4c.2,0,.4,0,.6,0h2.1c.4,0,.9,0,1.6,0,.6,0,1.3,0,2,0s1.4,0,2.1,0,1.4,0,1.9,0h8.1M157.7,1.1h-8.1c-.6,0-1.3,0-2,0-.7,0-1.3,0-2,0s-1.3,0-1.9,0c-.7,0-1.2,0-1.7,0h-2.1c-.6,0-1.1,0-1.7.2-.7.1-1.5.4-2.3.9-1.8.9-3,2.4-3.5,4.2h0c0,.1,0,.2,0,.2-.4,1.9-.2,3.8.8,5.6,0,0,.1.2.2.3-.6.9-1,2-1.1,3.1,0,.6,0,1.2,0,1.7v1.9c0,.5,0,1.1,0,1.8,0,.6,0,1.1,0,1.7,0,.6,0,1.1,0,1.5,0,.7.2,1.5.4,2.1-1.1.6-1.9,1.5-2.6,2.6-.7,1.2-1,2.4-1,3.7,0,2,.9,4,2.5,5.4h0c0,0,0,.2,0,.2,1.3,1,2.8,1.6,4.5,1.8.5,0,1,0,1.4,0s.6,0,.8,0c.2,0,.5,0,.7,0h22.7c.4,0,.9,0,1.5-.1.6,0,1.2-.2,1.8-.4,1.1-.3,2-.9,2.8-1.7h.1c0-.1.1-.3.1-.3.6-.7,1.1-1.6,1.4-2.7.2-.8.3-1.5.3-2.3,0-1.9-.7-3.6-2-4.9h-.1c0-.1-.1-.3-.1-.3-.4-.3-.7-.6-1.1-.8.4-1.3.5-2.8.1-4.2h0c0-.1,0-.2,0-.2-.2-.7-.5-1.4-.9-2,0,0,0-.2.1-.3.3-.6.5-1.3.6-2,.1-.5.2-1,.3-1.5,0-.5,0-1,0-1.4v-5.3c0-1.1-.2-2.2-.5-3.2-.7-2.2-2.3-3.9-4.6-4.6-.8-.2-1.6-.4-2.5-.5-.6,0-1.1,0-1.7,0h0Z"/>
      </g>
      <g>
        <path class="cls-1" d="M30,88c-.4,0-.7,0-1,0H11.9c-.6,0-1.1,0-1.7,0-.5,0-1.1,0-1.8,0h-.1c-1.4-.1-2.5-.8-3.2-2-.4-.7-.7-1.4-.9-2.2-.2-.9-.3-1.8-.2-2.7,0-.7,0-1.3,0-2s0-.9,0-1.3c0-.6,0-1.2,0-1.8,0-.5,0-1,.1-1.5.1-.9.5-1.8,1-2.5h.1c.3-.5.7-.8,1.2-1.1-1-.3-1.8-1-2.5-1.9-.8-1.1-1.3-2.4-1.3-3.7s0-2.2,0-3.2c0-1.1,0-2.2,0-3.4,0-.6,0-1.3,0-2,0-1.2.3-2.3.8-3.3.4-.7.9-1.3,1.7-1.7.7-.4,1.4-.7,2.1-.8.2,0,.4,0,.7,0,.6,0,1.2.1,1.8.3.9.3,1.6,1,2,1.7.7,1.2,1.1,2.5,1.1,3.9,0,.9,0,1.8,0,2.7s0,1.2,0,1.8c0,.2,0,.3,0,.5l8.2.2c.9,0,1.8.3,2.4.9.5.4.8.9,1.1,1.4v-8c0-.4,0-.8,0-1.3,0-.8.3-1.5.6-2,.4-.8,1.3-2.1,3.6-2.3.2,0,.5,0,.8,0,1.8,0,2.9.8,3.5,1.5h0c0,0,0,.2,0,.2.3.4.6.9.7,1.3,0,.2.2.5.2.7.1.5.2,1,.2,1.7,0,.5,0,.9,0,1.3v.8c0,0,.1,0,.2,0,.4,0,.7,0,.9.1,1,.2,1.8.6,2.3,1.1.6.5,1,1.2,1.1,2,.1.5.2,1,.2,1.6,0,.8-.2,1.6-.6,2.3-.7,1.2-1.9,2-3.3,2.1-.2,0-.5,0-.8,0v.8c0,1-.3,2-.8,2.8.5.4,1,.8,1.3,1.4.6,1.2.7,2.4.1,3.6,0,.2-.2.3-.2.5.4.5.8,1.3.9,2.3.2,1.5-.3,2.4-.8,3,.5.7.7,1.6.6,2.6,0,1.4-.8,2.3-1.4,2.8-.6.5-1.2.8-2,.9-.5.1-1,.2-1.5.2h-.3ZM24.8,69.8s0,0,0,0c-.1-.4-.2-.8-.3-1.1-.2.4-.5.8-.8,1.1h1.1Z"/>
        <path class="cls-2" d="M29.5,53c.7,0,1.3.2,1.6.6.2.2.3.4.3.6s.1.4.2.6c0,.2.1.6.1,1s0,.8,0,1.1v3.2c.1,0,.3,0,.6,0s.6,0,.9,0c.3,0,.6,0,.9,0,.3,0,.5,0,.6,0,.5.1.9.3,1.1.5s.3.5.4.7c0,.3.1.6.1,1s0,.7-.2,1c-.3.5-.8.8-1.4.9s-1.3.1-2.1.1h-.9v3.2c0,.7-.2,1.3-.6,1.8s-1,.8-1.8.8-.8,0-1.1-.3c-.5-.3-.9-.7-1-1.2s-.2-.8-.2-1v-12c0-.1,0-.4,0-.9,0-.5.2-.9.3-1.2.3-.6.8-.9,1.6-1,.2,0,.4,0,.6,0M7.8,53.2c.3,0,.5,0,.8.2.4.2.6.4.9.7.5.8.7,1.7.7,2.5s0,1.8,0,2.7,0,1.2,0,1.8c0,.6,0,1.2.1,1.9,0,.3.1.5.2.7s.3.2.5.3.4,0,.6,0h.7l8.4.2c.4,0,.6,0,.9.3.2.2.4.4.5.7s.2.6.2.9,0,.6,0,.8c0,.6-.4,1-.9,1.3s-1.2.3-1.9.3h-10.4c-.8,0-1.4,0-2-.3-.5-.2-1-.5-1.4-1.1-.5-.7-.8-1.4-.8-2.2s0-2.2,0-3.2c0-1,0-2.1,0-3.2,0-.7,0-1.4,0-2.2,0-.8.2-1.5.5-2.1.2-.3.5-.6.8-.9s.7-.4,1.1-.4c0,0,.2,0,.3,0M29.3,72.2c.3,0,.6,0,1,0,.5,0,.9.2,1.3.3.4.2.7.4.9.7.2.4.2.9,0,1.4-.2.5-.5.7-1,.8-.7.1-1.3.2-2,.2h-.2c-.7,0-1.4,0-2.2,0h-14.4c-.2,0-.4,0-.6,0,0,0-.2,0-.3,0s-.2,0-.3,0c-.2,0-.4,0-.4,0s0,.2,0,.4v1c0,.1.2.2.4.2s0,0,.1,0c.2,0,.4,0,.6,0,.3,0,.6,0,.9,0h.2c.3,0,.7,0,1.2,0,.8,0,1.6,0,2.3,0,.8,0,1.5,0,2.3,0h11.2c.3,0,.6,0,1,0,.4,0,.7.1,1,.3.3.3.5.7.5,1.2s0,.9-.3,1.2c-.2.2-.3.3-.6.4-.2,0-.5.1-.8.1-.5,0-1,0-1.6,0h-.5c-.7,0-1.3,0-1.9,0h-15.6c-.1,0-.3,0-.4,0v1.3c0,0,.2,0,.4,0s.3,0,.4,0c.2,0,.4,0,.4,0h17.9c.6,0,1.1.1,1.6.4.5.3.7.8.7,1.4,0,.4-.2.8-.4,1s-.6.4-1,.4c-.3,0-.7,0-1,0h-.2c-.4,0-.8,0-1.1,0H11.9c-.6,0-1.1,0-1.6,0-.5,0-1.1,0-1.7,0-.6,0-1-.3-1.3-.8s-.5-.9-.6-1.4c-.1-.7-.2-1.4-.2-2.1s0-1.4,0-2.1,0-1,0-1.5,0-1,0-1.5c0-.4,0-.9.1-1.4,0-.4.2-.9.5-1.2.7-.8,1.7-1.2,2.9-1.2h.9c.1,0,.2,0,.3,0h8.2c1.4,0,2.8,0,4.2,0h.8c1.1,0,2.2,0,3.4,0,.3,0,.7,0,1.2,0,.2,0,.3,0,.5,0M29.5,48c-.4,0-.8,0-1.1,0-2.5.3-4.5,1.6-5.5,3.7-.4.8-.7,1.8-.8,2.8,0,.6-.1,1.2,0,1.7v3.2c-.3,0-.6,0-1,0l-5.8-.2c0-.9,0-1.7,0-2.5,0-1.8-.4-3.6-1.4-5.2h0s0,0,0,0c-.8-1.2-1.9-2.2-3.2-2.7-.9-.3-1.8-.5-2.7-.5s-.7,0-1,0c-1.1.2-2.1.5-3.1,1.1-1.1.7-1.9,1.6-2.5,2.7-.8,1.4-1.1,2.9-1.1,4.6,0,.7,0,1.3,0,1.9,0,1.2,0,2.4,0,3.5,0,1,0,2,0,3.1,0,1.9.6,3.7,1.8,5.3.2.3.4.6.7.8-.5.9-.9,1.9-1,2.9,0,.5-.1,1.1-.1,1.7,0,.8,0,1.5,0,2.2,0,.4,0,.7,0,1.1,0,.7,0,1.3,0,2,0,1,0,2.1.3,3.1h0c0,0,0,.1,0,.1.2,1,.6,2,1.2,2.9,1.1,1.8,3,3,5.1,3.2h.2c.7,0,1.3,0,1.8,0,.6,0,1.1,0,1.8,0h17.2c.3,0,.6,0,1,0h.3c.7,0,1.4,0,2.1-.2,1.1-.2,2.2-.7,3-1.4,1.4-1.1,2.2-2.7,2.3-4.6,0-.9,0-1.8-.3-2.6.5-1,.6-2.2.5-3.4,0-.8-.3-1.6-.5-2.2.5-1.7.4-3.5-.4-5.1h0s0,0,0,0c-.2-.3-.3-.5-.5-.8,0-.3.2-.6.2-.9,1.6-.5,3-1.6,3.9-3,.6-1.1,1-2.2,1-3.6s0-1.5-.2-2.2c-.3-1.3-.9-2.4-1.8-3.3-.7-.7-1.6-1.2-2.6-1.5h0c0-.9-.1-1.6-.3-2.3,0-.3-.2-.6-.2-.8-.2-.7-.6-1.4-1.1-2v-.2c-.1,0-.3-.2-.3-.2-1.3-1.5-3.2-2.3-5.4-2.3h0Z"/>
      </g>
      <g>
        <path class="cls-1" d="M46.6,88c-.6,0-1.2,0-1.8,0-1.2,0-2.2-.5-3-1.3-.8-.8-1.3-1.8-1.4-3,0-.4,0-1-.1-1.7,0-.6,0-1.1,0-1.4v-.3c0-.4,0-.9,0-1.4,0-.9.4-1.7.9-2.3,0,0-.2-.2-.2-.3-.7-1.1-.9-2.4-.6-3.7h0c0-.1,0-.2,0-.2.2-.5.4-.9.8-1.2-.6-.3-1-.8-1.4-1.4-.4-.6-.7-1.4-.9-2.3-.1-.6-.2-1.2-.2-1.8,0-.6,0-1.1,0-1.6v-.5s0-1.8,0-1.8c0-.4,0-.8,0-1.3,0-.5,0-.9,0-1.3,0-.3,0-.6,0-.9v-1.3c0-.3,0-.6,0-1,0-.3,0-.7.2-1,.1-.6.3-1.1.6-1.5.4-.6.9-1.1,1.4-1.5.5-.4,1.2-.6,1.9-.8.3,0,.5,0,1-.1.2,0,.4,0,.6,0,.4,0,.8,0,1.2,0h9c.7,0,1.4,0,2.2.2,1,.1,1.9.5,2.7,1,.8.5,1.4,1.2,1.8,2,.2.6.4,1.2.5,1.9h0c0-.2,0-.6,0-1,0-.8.3-1.5.6-2,.3-.8,1.3-2.1,3.6-2.3.2,0,.5,0,.8,0,1.8,0,2.9.8,3.5,1.5h0c0,0,0,.2,0,.2.3.4.6.9.7,1.3,0,.2.2.5.2.7.1.5.2,1,.2,1.7,0,.5,0,.9,0,1.3v.3c0,0,0,0,.2,0,.4,0,.7,0,.9.1,1,.2,1.8.6,2.4,1.1.6.5,1,1.2,1.1,2,.1.5.2,1,.2,1.6,0,.8-.2,1.6-.6,2.3-.7,1.2-1.9,1.9-3.3,2.1-.3,0-.5,0-.8,0v1.2c0,1.2-.4,2.4-1.1,3.3h0c.9.9,1.3,2,1.3,3.4v3.1c0,.7-.2,1.4-.5,2.1-.2.3-.3.6-.6.9.4.4.7.9.9,1.6.7,2.2-.3,4.2-2.5,5.1-.5.2-1.1.3-1.7.4-.4,0-.8,0-1.2,0h-19.9,0ZM62,65.7c0,.4,0,.8,0,1.2,0,.5-.2,1-.4,1.6-.1.4-.3.7-.5,1h1.2c-.2-.6-.2-1.1-.2-1.5v-2.3h0ZM61.9,64c0,.2,0,.3,0,.4,0,.4,0,.8,0,1.3v-1.9.2s0,0,0,0ZM61.9,63.1c0,.2,0,.4,0,.6v-.7h0ZM48.9,62.5c.5,0,.9,0,1.3,0h.5c.4,0,.8,0,1.4,0v-.4c0-.5,0-.9,0-1.1h0s-3.6,0-3.6,0v.3c0,0,0,.2,0,.3v1h.4ZM62,58.8c0,.5,0,.9,0,1.1,0,0,0,.2,0,.5h0c0,0,0-1.6,0-1.6h0Z"/>
        <path class="cls-2" d="M67,53c.7,0,1.3.2,1.6.6.2.2.3.4.3.6s.1.4.2.6c0,.2.1.6.1,1s0,.8,0,1.1v2.8c.1,0,.3,0,.6,0,.3,0,.6,0,.9,0,.3,0,.6,0,.9,0,.3,0,.5,0,.6,0,.5.1.9.3,1.1.5s.3.5.4.7c0,.3.1.6.1,1s0,.7-.2,1c-.3.5-.8.8-1.4.9s-1.3.1-2.1.1h-.9v3.6c0,.7-.2,1.3-.6,1.8s-1,.8-1.8.8-.8,0-1.1-.3c-.5-.3-.9-.7-1-1.2-.2-.5-.2-.8-.2-1v-12c0-.1,0-.4,0-.9s.2-.9.3-1.2c.3-.6.8-.9,1.6-1,.2,0,.4,0,.6,0M54.7,53.4c.6,0,1.2,0,1.9.1s1.2.3,1.7.6c.4.2.7.5.8.9s.3.8.3,1.2,0,.9,0,1.3,0,.8,0,1.2,0,.7,0,.9c0,.2,0,.4,0,.9v2.2c0,.1,0,.3,0,.4s0,.3,0,.5c0,.3,0,.7,0,1,0,.3,0,.7,0,1.1s0,.6,0,.9-.1.7-.2,1c-.1.3-.3.6-.5.9-.2.3-.5.4-.8.6-.7.3-1.4.4-2.1.4h0c-.8,0-1.5,0-2.2,0-.2,0-.6,0-1.3,0s-1.3,0-2.1,0c-.8,0-1.5,0-2.1,0h-1.4c-.5,0-1,0-1.4,0-.5,0-.9,0-1.3-.1s-.8-.2-1.2-.3c-.3-.2-.6-.4-.8-.7-.2-.3-.4-.8-.5-1.3s-.2-1.1-.2-1.5,0-.9,0-1.3c0-.4,0-.6,0-.6v-1.9c0-.4,0-.8,0-1.2,0-.5,0-.9,0-1.3,0-.4,0-.7,0-1v-1.3c0-.2,0-.5,0-.7,0-.2,0-.5.1-.8s.1-.5.2-.6c.2-.4.5-.7.7-.8s.6-.3,1-.4c.1,0,.3,0,.6,0,.3,0,.5,0,.8,0,.3,0,.6,0,.9,0h9M48.9,65h0c.5,0,.9,0,1.2,0h.5c.5,0,1,0,1.8,0s.4,0,.7,0h.1c.2,0,.3,0,.5,0,.2,0,.4,0,.4-.2s.2-.2.2-.4c0-.2,0-.4,0-.5.1-.5.2-1.1.2-1.7s0-.7,0-.9c0-.2,0-.5,0-.9,0-.2,0-.4,0-.6s0-.4,0-.6c-.1-.3-.3-.5-.5-.5s-.5,0-.7,0h-4.9c0,0-.7,0-.7,0-.2,0-.4,0-.5,0-.4,0-.7.2-.9.5-.1.1-.2.3-.2.6,0,.3,0,.4,0,.5v.9c0,.2,0,.4,0,.6v.9c0,.3,0,.6,0,.8,0,.2,0,.4,0,.6,0,.2.2.4.3.6.2.3.6.4,1,.5s1,0,1.4,0M46.9,72c.1,0,.2,0,.4,0,.1,0,.2,0,.4,0h17.7c1.4,0,2.4.2,3.1.6s1.1,1.1,1.1,2v3.1c0,.4,0,.7-.2,1.1s-.4.7-.9.9c-.4.2-.7.3-1.1.3-.3,0-.7,0-1,0h-18.6v1.9h20c.4,0,.8.1,1.1.3.3.2.6.5.7.9.3,1,0,1.6-1,2-.3.1-.7.2-1,.2s-.7,0-.9,0h-19.9c-.6,0-1.2,0-1.7,0-.6,0-1-.2-1.4-.6-.4-.4-.6-.9-.6-1.5,0-.4,0-.9,0-1.5s0-1,0-1.4v-.4c0-.3,0-.6,0-1s.2-.8.4-1c.3-.4.8-.6,1.5-.7.6-.1,1.2-.2,1.8-.2h.8c.1,0,.2,0,.3,0,0,0,.2,0,.3,0h17v-1.7h-17.4c-.1,0-.3,0-.4,0h-.2c0,0-.2,0-.3,0h-1.7c-.2,0-.4,0-.6,0s-.4-.1-.6-.2-.4-.2-.5-.4c-.3-.5-.4-1.1-.3-1.7,0-.2.2-.4.4-.5s.3-.2.6-.3c.2,0,.4-.1.6-.2s.4,0,.5,0c.2,0,.4,0,.6,0,.2,0,.4,0,.7,0h.7M67,48c-.4,0-.8,0-1.2,0-1.8.2-3.3,1-4.4,2.2-.2-.1-.3-.2-.5-.3-1.1-.7-2.3-1.1-3.7-1.3-.9-.1-1.8-.2-2.6-.2h-9c-.5,0-.9,0-1.4,0h-.1c-.1,0-.3,0-.4,0-.6,0-1,0-1.3.2-1.1.2-2,.6-2.8,1.2-.8.5-1.5,1.3-2.1,2.2-.5.7-.8,1.5-1,2.3,0,.4-.2.8-.2,1.3,0,.4,0,.8,0,1.2v1.3c0,.2,0,.5,0,.8,0,.4,0,.8,0,1.3,0,.5,0,1,0,1.4v2.3c0,.6,0,1.2,0,1.9,0,.7.1,1.3.3,2,.2,1.2.7,2.3,1.3,3.3,0,.2.2.3.3.4h0c0,0,0,.3,0,.3-.4,1.6-.3,3.2.3,4.6-.3.7-.5,1.4-.5,2.1,0,.6,0,1.2,0,1.7v.2c0,.4,0,.9,0,1.5,0,.7,0,1.3.1,1.9.2,1.8.9,3.3,2.1,4.5,1.3,1.3,2.9,2,4.7,2.1.7,0,1.3,0,2,0h19.9c.4,0,.9,0,1.3,0,.8,0,1.7-.3,2.4-.6,3.4-1.3,5-4.7,4-8.1-.1-.3-.2-.7-.4-1,.4-.9.6-1.9.6-3v-3.1c0-1.3-.3-2.5-.9-3.6.3-.7.5-1.5.6-2.3,1.6-.5,2.9-1.6,3.8-3,.6-1,.9-2.2.9-3.5s0-1.5-.2-2.2c-.3-1.2-.9-2.4-1.8-3.2-.7-.7-1.6-1.2-2.6-1.5,0-.7-.1-1.3-.3-1.8,0-.3-.2-.6-.2-.8-.2-.7-.6-1.4-1.1-2v-.2c-.1,0-.3-.2-.3-.2-1.3-1.5-3.2-2.3-5.4-2.3h0Z"/>
      </g>
      <g>
        <path class="cls-1" d="M89.9,88.1c-.5,0-1,0-1.5-.2-.6-.1-1.2-.4-1.8-.9-.8-.6-1.3-1.3-1.5-2.2-.1-.5-.2-1,0-1.5,0-.3.1-.6.2-.8.3-.9.8-1.7,1.6-2.3.4-.3.9-.6,1.4-.9.2,0,.3-.2.5-.3-.5-.2-.9-.4-1.3-.7-.9-.6-1.5-1.4-1.7-2.5h0v-.3c-.1-1,0-2,.6-3,0,0,0,0,0-.1-.5-.1-.9-.3-1.3-.4-.8-.4-1.4-.9-1.9-1.6-.4-.6-.7-1.4-.9-2.3-.1-.6-.2-1.2-.2-1.8,0-.6,0-1.1,0-1.6v-.6s0-1.8,0-1.8c0-.4,0-.8,0-1.3,0-.5,0-1,0-1.4,0-.4,0-.8,0-1.2v-1.7c0-.3,0-.6,0-1,0-.3,0-.7.2-1,.1-.6.3-1.1.6-1.5.4-.6.9-1.1,1.4-1.5.5-.4,1.2-.6,1.9-.8.3,0,.6,0,.9-.1.2,0,.4,0,.6,0,.4,0,.8,0,1.2,0h9c.7,0,1.4,0,2.2.2,1,.1,1.9.5,2.7,1,.8.5,1.4,1.2,1.8,2,.2.6.4,1.2.5,1.9,0,.6,0,1.2,0,1.8,0,.4,0,.8,0,1.1s0,.9,0,1.3c0,.3,0,.7,0,1v2.6h0c0,.3,0,.5,0,.7v.4c0,.2,0,.3,0,.4,0,.4,0,.8,0,1.3s0,.8,0,1.2c0,.5-.2,1-.4,1.6-.1.4-.3.7-.5,1.1h1.5c-.1-.3-.2-.8-.3-1.2v-.2s0-12.8,0-12.8c0-.4,0-.8,0-1.3,0-.8.3-1.5.6-2,.4-.8,1.3-2.1,3.6-2.3.2,0,.5,0,.8,0,1.8,0,2.9.8,3.5,1.5h0c0,0,0,.2,0,.2.3.4.6.9.7,1.3,0,.2.2.5.2.8.1.4.2.9.2,1.4,0,.4,0,.7,0,1.1v1.5c0,0,.1,0,.2,0,.4,0,.7,0,.9.1,1,.2,1.8.6,2.3,1.1.6.5,1,1.2,1.1,2,.1.5.2,1,.2,1.6,0,.8-.2,1.6-.6,2.3-.7,1.2-1.9,1.9-3.3,2.1-.3,0-.5,0-.8,0v1c0,.4,0,.7-.2,1.1,0,.6-.3,1.1-.6,1.7,0,.2-.2.3-.3.4,0,0,.1,0,.2.2.7.7,1.1,1.5,1.3,2.5v.3c0,0,0,.3,0,.3,0,1.1-.5,2-1.1,2.7-.4.5-1,1-1.6,1.3.2.1.4.2.6.3.6.3,1.1.7,1.7,1.2.6.6,1.1,1.2,1.2,2,.2.7.2,1.4,0,2.1-.2.7-.5,1.3-.9,1.8-.6.7-1.3,1.1-2.2,1.3-.6.1-1.2.2-1.8.2s-1.3,0-2-.2c-1.1-.2-2.1-.6-3-1.1-.2,0-.5-.2-.9-.5-.4-.2-.8-.4-1.3-.7-.5-.3-2.5-1.4-3-1.7-.3-.2-.6-.3-.9-.5-.5.3-1.1.6-1.7,1-.7.4-1.3.7-1.8,1.1-.5.3-1,.6-1,.6h-.1c-.5.3-1,.6-1.4.8-.5.3-1.1.5-1.6.7-.6.2-1.3.4-2,.6-.4,0-.7,0-1.1,0h0ZM92.1,63.3c.4,0,.9,0,1.3,0h.6c.4,0,.8,0,1.4,0v-.4c0-.5,0-.9,0-1.4v-.6h-3.6c0,0,0,.9,0,.9v.2c0,0,0,.2,0,.3v1h.4Z"/>
        <path class="cls-2" d="M110.4,53c.7,0,1.3.2,1.6.6.2.2.3.4.3.6s.1.4.2.6c0,.3.1.5.1.8s0,.6,0,.9h0v4c.1,0,.3,0,.6,0,.3,0,.6,0,.9,0,.3,0,.6,0,.9,0,.3,0,.5,0,.6,0,.5.1.9.3,1.1.5s.3.5.4.7c0,.3.1.6.1,1s0,.7-.2,1c-.3.5-.8.8-1.4.9s-1.3.1-2.1.1h-.9v3.2c0,.3,0,.6-.1.9,0,.3-.2.6-.3.9-.2.3-.4.6-.7.8-.4.3-.8.4-1.3.4s-.8,0-1.1-.3c-.3-.2-.5-.4-.6-.6s-.3-.5-.4-.7c0-.2-.2-.5-.2-.9v-12.7c0-.1,0-.4,0-.9s.2-.9.3-1.2c.3-.6.8-.9,1.6-1,.2,0,.4,0,.6,0M97.9,53.4c.6,0,1.2,0,1.9.1s1.2.3,1.7.6c.4.2.7.5.8.9.2.4.3.8.3,1.2s0,.9,0,1.3,0,.8,0,1.2,0,.8,0,1.3c0,.4,0,.8,0,1.3v2.2c0,.1,0,.3,0,.4s0,.3,0,.5c0,.3,0,.7,0,1,0,.3,0,.7,0,1.1s0,.6,0,.9-.1.7-.2,1c-.1.3-.3.6-.5.9-.2.3-.5.4-.8.6-.7.3-1.4.4-2.1.4h0c-.8,0-1.5,0-2.2,0-.2,0-.6,0-1.3,0s-1.3,0-2.1,0-1.4,0-2.1,0h-1.4c-.5,0-.9,0-1.4,0-.5,0-.9,0-1.3-.1-.4,0-.8-.2-1.2-.3-.3-.2-.6-.4-.8-.7-.2-.3-.4-.8-.5-1.3s-.2-1.1-.2-1.5,0-.9,0-1.3,0-.6,0-.6v-1.9c0-.4,0-.8,0-1.2,0-.5,0-1,0-1.4,0-.5,0-.9,0-1.3v-1.7c0-.2,0-.5,0-.7s0-.5.1-.8.1-.5.2-.6c.2-.4.5-.7.7-.8s.6-.3,1-.4c.1,0,.3,0,.6,0,.3,0,.5,0,.8,0,.3,0,.6,0,.9,0h9M92.1,65.8h0c.5,0,.9,0,1.2,0h.5c.4,0,1,0,1.8,0s.4,0,.7,0h.1c.2,0,.3,0,.5,0,.2,0,.4,0,.4-.2s.2-.2.2-.4c0-.2,0-.4,0-.5.1-.5.2-1.1.2-1.7s0-.8,0-1.3c0-.4,0-.8,0-1.3,0-.2,0-.4,0-.6s0-.4,0-.6c-.1-.3-.3-.5-.5-.5s-.5,0-.7,0h-4.9c0,0-.7,0-.7,0-.2,0-.4,0-.5,0-.4,0-.7.2-.9.5-.1.1-.2.3-.2.6,0,.3,0,.4,0,.5v1.7c0,.2,0,.4,0,.6v.9c0,.3,0,.6,0,.8,0,.2,0,.4,0,.6,0,.2.2.4.3.6.2.3.6.4,1,.5s1,0,1.4,0M108.9,72.9c.5,0,1,0,1.4,0,.5,0,.9,0,1.3.2s.7.3,1,.6.5.6.5,1.1c0,.6-.2,1-.5,1.4-.3.3-.6.6-1,.7-.4.2-.8.2-1.3.3-.2,0-.5,0-.7,0s-.4,0-.7,0h-5.3c0,0,.3.1.6.3s.8.4,1.3.7,1,.6,1.6.8c.6.3,1.1.6,1.6.8s.9.5,1.3.7.6.3.7.3c.5.2,1,.5,1.4.7s.8.6,1.3.9c.2.2.4.5.5.8s0,.6,0,.9-.2.6-.4.8c-.2.2-.5.4-.8.5-.4,0-.8.1-1.2.1s-1,0-1.4-.2c-.9-.2-1.8-.5-2.5-.9-.2,0-.4-.2-.8-.4s-.8-.4-1.3-.7-1-.6-1.5-.8c-.5-.3-1-.6-1.5-.8s-.9-.5-1.3-.7-.7-.3-.9-.4c-.1,0-.4.2-1,.6s-1.2.7-1.8,1.1-1.3.8-1.8,1.1-.9.5-1,.6c-.4.2-.9.5-1.4.7-.5.2-.9.4-1.4.6s-1,.3-1.5.4c-.2,0-.4,0-.7,0-.3,0-.6,0-.9-.1-.3,0-.7-.2-1-.5-.3-.2-.5-.5-.5-.8,0-.2,0-.3,0-.5s0-.3.1-.5c.1-.4.3-.8.7-1,.4-.3.7-.5,1.1-.7.4-.3.9-.5,1.4-.8.5-.2,1-.5,1.4-.7.5-.3,1-.5,1.5-.8s1-.5,1.4-.8c0,0,.2-.1.4-.2.3-.1.6-.3.9-.4s.6-.3.9-.5.4-.2.4-.3h-6.4c-.5,0-1-.2-1.4-.3-.4-.1-.7-.3-1.1-.5-.3-.2-.5-.5-.6-.9,0-.5,0-1.1.3-1.6s.7-.8,1.4-.9c.2,0,.4,0,.6,0h18.5M110.4,48c-.4,0-.8,0-1.2,0-1.8.2-3.4,1-4.5,2.3-.2-.2-.4-.3-.6-.4-1.1-.7-2.3-1.1-3.7-1.3-.9-.1-1.8-.2-2.6-.2h-9c-.5,0-.9,0-1.4,0h-.1c-.1,0-.3,0-.4,0-.6,0-1,0-1.3.2-1.1.2-2,.6-2.8,1.2-.8.5-1.5,1.3-2.1,2.2-.4.7-.8,1.5-.9,2.3,0,.4-.2.8-.2,1.3,0,.4,0,.8,0,1.2v1.7c0,.3,0,.7,0,1.1,0,.5,0,.9,0,1.4,0,.5,0,1,0,1.4v2.3c0,.6,0,1.2,0,1.9,0,.7.1,1.3.3,2,.2,1.2.7,2.3,1.3,3.3.6.8,1.3,1.6,2.2,2.1,0,.6-.1,1.2,0,1.9v.3s0,.3,0,.3c.2.9.6,1.8,1.2,2.5-.8.8-1.3,1.7-1.6,2.8-.1.4-.2.8-.3,1.2-.1.8,0,1.7.1,2.4.3,1.4,1.2,2.7,2.4,3.7.8.6,1.8,1.1,2.8,1.3.7.2,1.4.3,2.1.3s1,0,1.5-.1c.9-.2,1.7-.4,2.5-.7.6-.2,1.2-.5,1.8-.8.5-.2,1-.5,1.5-.8h.2c0-.1.2-.2.2-.2.1,0,.4-.2.8-.5.6-.3,1.1-.7,1.8-1.1.2,0,.3-.2.5-.3.3.2.7.4,1.1.6.5.3,1,.6,1.5.9.5.3.9.5,1.3.7.4.2.7.4.9.5h0s0,0,0,0c1.1.5,2.3.9,3.5,1.2.9.2,1.7.3,2.6.3s1.5,0,2.3-.2h0c1.4-.3,2.6-1.1,3.5-2.2.7-.8,1.2-1.8,1.4-2.9.2-1.1.2-2.2,0-3.3-.3-1.2-1-2.3-1.9-3.2.7-1,1-2.2,1.2-3.5v-.6c0,0,0-.6,0-.6-.2-.9-.5-1.8-1-2.6.2-.4.3-.9.4-1.3,0-.1,0-.2,0-.3,1.6-.5,3-1.6,3.9-3,.6-1.1.9-2.2.9-3.5s0-1.5-.2-2.2c-.3-1.3-.9-2.4-1.9-3.3-.7-.7-1.6-1.1-2.6-1.5,0-.2,0-.5,0-.7,0-.7-.1-1.3-.3-1.9,0-.3-.2-.6-.3-.9-.2-.7-.6-1.4-1.1-2v-.2c-.1,0-.3-.2-.3-.2-1.3-1.5-3.2-2.3-5.4-2.3h0Z"/>
      </g>
      <g>
        <path class="cls-1" d="M132.4,88.8c-.5,0-1.1,0-1.6-.2-.4-.1-.8-.3-1.1-.5-.6-.2-1-.6-1.4-1.2-.2-.3-.4-.6-.5-1-.1-.2-.2-.5-.3-.7,0-.3-.2-.6-.3-.9v-.3c0,0,0-3.5,0-3.5h-6c-.4,0-.7,0-1.1,0-.4,0-.9-.1-1.2-.3-.6-.1-1.2-.4-1.7-.8-.4-.3-.8-.7-1.2-1.2h0c-.2-.4-.4-.8-.6-1.2-.2-.6-.3-1.2-.2-1.9,0-.4.1-.9.3-1.3.2-.6.6-1.1,1-1.5.3-.4.7-.6,1-.8-.2-.3-.3-.7-.4-1.2v-.3c0,0,0-.8,0-.8,0-.3,0-.7.1-1.2v-.2s0-.2,0-.2c0-.2.2-.5.3-.7.2-.4.4-.8.8-1.2.2-.3.5-.5.8-.7.1,0,.2-.2.4-.3h.2c0-.1,3-1.9,3-1.9h0c.2-.1.4-.2.5-.3-.1,0-.2,0-.4,0h-.3s-.1,0-.1,0h-.2c-.9,0-1.7-.2-2.4-.7-.5-.4-1-.8-1.4-1.5l-.2-.2v-.3c-.2-.2-.3-.5-.4-.8-.1-.4-.2-.8-.2-1.2s0-.5,0-.8c0-.5.2-1,.4-1.4h0c.5-1,1.2-1.7,2.1-2.2.3-.2.7-.3,1.1-.5.5-.2,1-.2,1.5-.2h1.2s.3,0,.4,0c.2,0,.5,0,.8,0h2.2s0-.3.1-.3c0-.3.1-.5.2-.8,0,0,0-.2.1-.3l.2-.6.5-.4c.1,0,.2-.2.4-.4l.2-.2.2-.2c.4-.3.9-.5,1.4-.7.2,0,.5-.1.8-.2h.2s.2,0,.2,0c.6,0,1.3.1,2.1.3h.3c0,0,.2.2.2.2.2.2.5.3.8.5.3.2.5.4.7.6.5.5.9,1,1.1,1.7,0,.2.1.5.1.7h4.4c.4,0,.9,0,1.3.1h.3s.2.2.2.2c.2,0,.4.2.6.2.5.2.9.4,1.3.7.5.3.8.7,1.1,1.2.3.4.5.9.6,1.5h0c.3,1.7,0,3.1-1,4.2h0c0,0-.1.2-.1.2-.3.2-.6.5-1,.7-.4.2-.8.4-1.2.6h-.1s-.1,0-.1,0c-.8.2-1.6.3-2.4.3,0,0,.4.2.4.2l.2.2c.1,0,.2.2.3.2.3.2.6.3.9.5.2.1.5.3.7.4.3.2.6.4.9.6.4.3.8.6,1.1.9.1.1.2.2.4.4.5.3.9.8,1.1,1.3,0,.2.2.3.2.5v.4c.1,0,.2.4.2.4,0,.5,0,.9,0,1.4h0c0,.1,0,.3,0,.3,0,.4-.2.8-.4,1.2h0c0,.1.2.2.3.2.5.2.9.6,1.2,1h.1c0,.1.1.3.1.3.5.8.7,1.6.7,2.6,0,1.5-.6,2.7-1.7,3.5-.4.3-.8.6-1.3.8-.4.2-.9.3-1.3.4h-.1c-.4,0-.7.1-1.1.2-.4,0-.7,0-1.2.1h-5.5c0,.4,0,.6,0,.8v.9c0,.4,0,.9-.1,1.3h0c0,.5-.1.8-.2,1.1,0,.3-.2.7-.4,1-.2.6-.5,1.1-.9,1.5-.2.2-.5.5-.8.7-.4.3-.8.6-1.4.7-.5.2-1,.2-1.5.2h0ZM134.6,70.7c-.3-.1-.6-.3-.9-.5l-.3-.2h0c0,0-.6-.3-.6-.3l-.3-.3c0,0-.1-.1-.2-.2h0c-.3.2-.5.3-.8.4-.1,0-.3.1-.4.2h0s-.2.1-.2.1v.2c-.1,0-1.3.6-1.3.6h5.2,0Z"/>
        <path class="cls-2" d="M132.1,51.2c.4,0,.9,0,1.4.2.2.1.4.2.6.4s.4.3.5.4c.2.2.3.3.4.6,0,.2.1.5.1.7v1.8h6.8c.3,0,.5,0,.8,0,.2.1.5.2.7.3s.5.2.7.4c.2.1.4.3.5.5s.3.5.3.8c.2.8,0,1.3-.4,1.8-.2.2-.4.3-.6.5-.2.2-.5.3-.8.4-.6.2-1.3.2-2,.2h-1.6c-.2,0-.4,0-.6,0-.2,0-.5,0-.7,0h-2.8v2.1c.4.2.7.4,1.1.6,0,0,.1,0,.2.1s.2,0,.2.1.2,0,.2.1.2,0,.2.1c.1,0,.3.2.4.2.1,0,.2.2.4.2.2.1.5.3.8.4.3.2.5.3.7.5s.5.3.7.4c.2.2.5.3.8.5.3.1.5.3.8.4.3.1.5.3.8.4.2.1.5.3.7.5.3.2.5.4.7.6.2.2.4.4.7.6.1,0,.2.2.3.3s.1.3.2.4c0,.3,0,.7,0,1,0,.3-.2.6-.4.8-.1.2-.4.4-.8.5-.4.1-.9.2-1.3.2s-.9,0-1.3-.2c-.9-.2-1.8-.5-2.6-1-.4-.2-.7-.4-1-.5s-.6-.3-1-.5c-.3-.2-.6-.4-.9-.5-.3-.2-.6-.3-1-.6-.1-.1-.4-.3-.8-.4-.1-.1-.3-.2-.4-.3s-.2-.2-.4-.2c-.2-.1-.4-.2-.6-.4s-.4-.2-.6-.4c-.2.1-.4.3-.7.4s-.4.2-.6.4c-.2.1-.4.2-.6.3s-.4.2-.5.2c-.4.2-.8.4-.9.5-.4.2-.7.3-1,.5-.3.2-.6.3-.9.5-.3.2-.6.3-.9.5s-.7.3-1.1.5c-.3.1-.5.3-.8.4-.3.1-.6.3-.8.4-.4.3-.8.5-1.3.5s-.2,0-.3,0c-.2,0-.5,0-.7-.2-.2,0-.5-.2-.7-.3-.4-.2-.7-.6-.9-1.3v-.5c0-.2,0-.4,0-.6,0-.2.2-.4.2-.6s.2-.3.3-.5c.1-.2.3-.3.4-.4.2-.1.3-.2.5-.4l2.7-1.6c.3-.1.5-.2.7-.3s.4-.1.6-.2c.2-.2.4-.3.6-.4s.4-.2.7-.3c.2-.2.4-.3.7-.5s.6-.3.9-.5c.3-.2.6-.3.8-.4.3-.1.5-.2.8-.4v-2h-5.9c-.2,0-.3,0-.5,0-.1,0-.3,0-.5,0s-.3,0-.5,0c-.4,0-.8,0-1-.3-.2-.2-.5-.4-.8-.8,0-.1-.1-.3-.2-.5s0-.4,0-.5,0-.4,0-.6c0-.2,0-.3.1-.5.3-.5.6-.8,1.1-1.1.2-.1.5-.2.7-.3.2,0,.5-.1.7-.1h.9c.2,0,.4,0,.6,0h.4c0,0,.2,0,.4,0h4.7v-1.5c-.1-.1,0-.3,0-.4s0-.2.1-.4c0-.1,0-.3,0-.4,0-.1.1-.2.2-.4.2-.1.4-.3.6-.6.2-.1.4-.2.6-.3s.4-.1.7-.2M143.7,73.2c0,0,.1,0,.2,0,.2,0,.4,0,.6,0,.3,0,.5,0,.7,0,.2,0,.4.1.7.2.2.1.4.2.5.3s.3.2.5.4c.2.3.3.8.3,1.3s-.2,1.2-.7,1.6c-.2.2-.4.3-.7.4s-.6.2-.8.3c-.4,0-.7,0-1,.1s-.6,0-1,0h-7.8c0,.2,0,.5,0,.8,0,.3,0,.6,0,1s0,.6,0,.9c0,.3,0,.5,0,.7v.9c0,.3,0,.6,0,1,0,.3-.1.5-.2.8,0,.2-.1.5-.3.7,0,.3-.2.5-.4.7-.2.2-.4.3-.6.5-.2.1-.4.2-.6.3s-.5.1-.7.1-.6,0-.8-.1-.5-.2-.7-.3c-.2,0-.3-.2-.5-.3-.1-.2-.2-.4-.3-.6-.1-.2-.2-.4-.3-.6,0-.2-.1-.4-.2-.6v-5.7h-8.5c-.3,0-.6,0-.9,0-.3,0-.6,0-.8-.2-.3,0-.6-.1-.8-.3-.2-.2-.4-.4-.6-.7-.1-.2-.2-.4-.3-.7s-.1-.5,0-.7c0-.2,0-.5.1-.7s.3-.5.5-.7c.1-.2.3-.3.7-.5.2,0,.3-.1.5-.2.1,0,.3,0,.4,0,.2,0,.3,0,.5,0h22.8c.2,0,.3,0,.5,0M132.1,46.2h-1c-.4.2-.7.2-1,.3-.8.2-1.6.6-2.3,1l-.4.3-.4.4c0,0-.1.2-.2.2l-.9.8-.4,1h-.4c-.2,0-.5,0-.7,0h-.2s-.6,0-.6,0h-.9c-.8,0-1.6.1-2.3.4-.5.2-1,.4-1.5.7-1.3.7-2.3,1.7-3.1,3h0c0,0,0,.2,0,.2-.4.7-.6,1.5-.7,2.4,0,.3,0,.6,0,1,0,.6,0,1.2.2,1.8.1.4.2.8.3,1.1l.2.5.3.5c.4.5.8,1,1.2,1.3-.4.3-.8.7-1.1,1-.5.5-.9,1.2-1.2,1.9-.1.3-.2.5-.3.8v.3c-.1,0-.2.3-.2.3-.1.6-.2,1.2-.2,1.7v1.4c-.6.7-1,1.4-1.4,2.3-.2.6-.4,1.3-.4,2-.1,1,0,2.1.4,3,.2.5.5,1,.8,1.5h0c0,0,0,.2,0,.2.5.7,1.1,1.3,1.7,1.8.7.6,1.6,1,2.5,1.2.5.2,1.1.3,1.7.3.4,0,.9,0,1.3,0h3.5v1.3l.2.6c0,.4.2.8.4,1.2,0,.3.2.5.4.8.2.5.5,1,.8,1.4.6.9,1.4,1.5,2.3,2,.5.3,1,.5,1.5.7.7.2,1.5.3,2.3.3s1.6-.1,2.3-.4c.8-.3,1.5-.6,2.1-1.1.4-.3.7-.6,1-.9.7-.7,1.2-1.4,1.5-2.3.2-.4.3-.8.4-1.2.1-.4.2-.7.3-1.1h0c0-.1,0-.3,0-.3,0-.3,0-.6.1-.9h3.1c.5,0,.9,0,1.3-.1.3,0,.7,0,1.1-.2h.1s.1,0,.1,0c.6-.1,1.2-.3,1.8-.6.7-.3,1.3-.7,1.8-1.1,1.7-1.3,2.6-3.3,2.6-5.5s-.4-2.8-1.1-3.9l-.2-.3-.2-.3c-.2-.2-.4-.4-.6-.6v-.2c0-.6,0-1.2,0-1.8v-.8c0,0-.3-.7-.3-.7,0-.2-.2-.4-.3-.6-.4-.9-1-1.7-1.8-2.2,0,0-.1-.1-.2-.2-.2-.2-.3-.3-.5-.5.2-.2.4-.3.6-.5l.2-.2.2-.2c1.6-1.7,2.1-3.9,1.6-6.3h0c0-.1,0-.3,0-.3-.2-.8-.5-1.5-1-2.2-.5-.7-1.1-1.4-1.8-1.8-.6-.4-1.2-.8-1.9-1-.2,0-.3-.1-.4-.2l-.5-.2h-.5c-.6-.2-1.2-.3-1.8-.3h-2.6c-.3-.7-.8-1.2-1.3-1.7-.3-.3-.6-.5-1-.8-.3-.2-.7-.5-1-.6l-.5-.3-.6-.2c-1-.3-1.9-.5-2.8-.5h0Z"/>
      </g>
      <g>
        <path class="cls-1" d="M176.6,88.3c-.4,0-.8,0-1.3-.2-.9-.2-1.6-.5-2.2-1.1-.5-.5-1-1.1-1.2-1.8-.2-.4-.3-.9-.4-1.3-.1-.5-.1-.9-.1-1.3v-26.2c0-.5,0-1,.1-1.5,0-.5.2-1,.4-1.5.2-.7.6-1.3,1-1.7.6-.7,1.4-1.1,2.2-1.2.5,0,1-.2,1.6-.2.9,0,1.8.3,2.6.8.8.5,1.4,1.3,1.8,2.2.3.8.5,1.7.6,2.6v2c0,0,0,.2,0,.2,0,2,0,4.1,0,6.3,0,2.2,0,4.2,0,6.1v10.1c0,.2,0,.4,0,.6,0,.4,0,.8,0,1.2h0c0,.4,0,.6,0,.9,0,.5-.1,1-.3,1.5v.2c0,0-.1.2-.1.2,0,.1-.1.3-.2.5-.4.8-.9,1.3-1.5,1.8h0c0,0,0,.1,0,.1-.8.5-1.7.7-2.6.7h0ZM162.7,86.2c-.7,0-1.4-.1-2-.4-.9-.4-1.6-1.1-2-1.9-.6-1.1-.9-2.4-.9-3.9v-1.7c0-.3,0-.7,0-1.1v-14.9h-1.8c-.2,0-.5,0-.8,0s-.6,0-.8,0c-.2,0-.4,0-.5,0s-.3,0-.5,0c-.2,0-.4,0-.6,0s-.3,0-.4,0c-.1,0-.2,0-.4,0-.4,0-.7,0-1.1,0-.8,0-1.5-.3-2.1-.8-.8-.6-1.4-1.4-1.7-2.3-.2-.6-.3-1.3-.3-2,0-.9.1-1.8.5-2.6.3-.7.7-1.2,1.2-1.6.4-.3.8-.5,1.3-.7.3-.1.6-.2.8-.3h.1c.7-.2,1.5-.3,2.3-.3.6,0,1.2,0,1.9,0h7.3c.3,0,.6.1,1,.1.6,0,1.2.2,1.8.4.3.1.7.3,1,.5.5.3.8.7,1.1,1.1h0c.4.8.7,1.5.8,2.3,0,.4.1,1.3.1,1.3,0,.8,0,1.6,0,2.4v15.9c0,.4,0,.9,0,1.4v1.6c0,.6,0,1.2,0,1.7,0,.4,0,.8-.2,1.1,0,.5-.2,1-.4,1.4-.2.5-.6,1-1,1.5-.5.5-1,.8-1.7,1.1-.7.3-1.5.4-2.3.4h0Z"/>
        <path class="cls-2" d="M176.6,52.9c.4,0,.9.1,1.3.4s.7.6.8,1.1c.2.6.4,1.2.4,1.8,0,.6,0,1.2,0,1.8v.2c0,2,0,4.2,0,6.3,0,2.2,0,4.2,0,6.1v10.1c0,.2,0,.5,0,.7,0,.2,0,.5,0,.7,0,.3,0,.6-.1.9,0,.3,0,.6-.2.9,0,.1,0,.2-.1.3s0,.2-.1.3c-.2.4-.4.7-.7.9-.4.2-.9.4-1.3.4s-.5,0-.7,0c-.4,0-.8-.2-1-.5-.2-.2-.4-.5-.5-.8s-.2-.7-.3-1-.1-.6-.1-.8v-26.2c0-.4,0-.8,0-1.1s.1-.7.2-1,.2-.6.4-.8c.3-.3.6-.5.9-.5s.7,0,1,0M161.9,54.3c.4,0,.7,0,1.1.1s.7.1,1.1.3c.2,0,.4.2.6.3s.4.3.5.5c.2.4.4.8.4,1.1s0,.8.1,1.2c0,.8,0,1.5,0,2.2v15.3s0,.2,0,.6c0,.4,0,.8,0,1.4v1.6c0,.6,0,1.1,0,1.5,0,.3,0,.6-.1.8,0,.3-.1.6-.3.8s-.3.5-.5.7-.5.4-.8.5c-.4.2-.9.3-1.4.3s-.7,0-1-.2c-.4-.2-.6-.4-.7-.7-.4-.8-.6-1.8-.6-2.8v-1.8c0-.3,0-.6,0-1v-15c0-.4,0-.9,0-1.3,0-.1,0-.3-.1-.6s-.1-.4-.3-.4c-.1,0-.2,0-.4,0h-.2c-.1,0-.2,0-.3,0,0,0-.2,0-.3,0s-.2,0-.3,0c0,0-.2,0-.3,0s-.2,0-.3,0h-1.9c-.2,0-.4,0-.7,0s-.4,0-.7,0c-.2,0-.4,0-.7,0s-.4,0-.7,0c-.1,0-.3,0-.4,0h-.2c-.2,0-.4,0-.6,0s-.6,0-.9,0-.6-.1-.9-.3c-.4-.3-.6-.6-.8-1-.1-.4-.2-.8-.2-1.2,0-.5,0-1,.3-1.5.1-.3.3-.5.5-.7.1-.1.3-.2.6-.3s.5-.2.7-.2c.6-.1,1.1-.2,1.8-.2.6,0,1.2,0,1.8,0h7M176.6,47.9c-.7,0-1.4,0-2.1.2-1.3.3-2.5.9-3.4,1.9-.8.8-1.3,1.7-1.6,2.7,0,0,0,0,0,.1,0,0,0,0,0-.1h0c0-.1,0-.2,0-.2-.5-.7-1.1-1.3-1.8-1.7-.5-.3-1-.6-1.6-.8-.8-.3-1.6-.5-2.4-.6-.3,0-.6,0-.8-.1h-.4c0,0-7.4,0-7.4,0-.6,0-1.3,0-1.9,0-1,0-1.9.1-2.8.3h-.1s-.1,0-.1,0c-.3,0-.6.2-1,.3-.8.3-1.4.7-2,1.1-.8.7-1.5,1.5-2,2.6-.6,1.2-.8,2.4-.8,3.7,0,.9.2,1.8.5,2.7.5,1.4,1.4,2.6,2.6,3.5,1,.7,2.2,1.1,3.4,1.2.5,0,.9,0,1.3,0h.2c.2,0,.4,0,.6,0s.5,0,.8,0h.3c.1,0,.3,0,.4,0,.3,0,.6,0,1,0h0v12.4c0,.4,0,.8,0,1.2v1.6c0,1.8.4,3.5,1.1,5,.7,1.4,1.8,2.5,3.3,3.1,1,.4,2,.6,3,.6s2.2-.2,3.2-.6c1-.4,1.8-.9,2.5-1.6.3-.3.6-.7.9-1.1,0,.3.2.5.3.8.4,1.1,1,2.1,1.9,2.8.9.8,2,1.4,3.3,1.6.6.1,1.2.2,1.8.2,1.4,0,2.7-.4,3.9-1.1h.2c0-.1.2-.2.2-.2.9-.7,1.7-1.6,2.2-2.7.1-.2.2-.5.3-.7v-.2c.1,0,.2-.4.2-.4.2-.7.4-1.4.4-2.1,0-.2,0-.4,0-.6h0v-.2c0-.5,0-1,0-1.5,0-.2,0-.3,0-.5v-10.1c0-1.9,0-3.9,0-6.1,0-2.2,0-4.4,0-6.5v-1.2s0-.9,0-.9c0-1.2-.3-2.3-.7-3.4-.5-1.4-1.5-2.6-2.7-3.4-1.2-.8-2.6-1.2-4-1.2h0Z"/>
      </g>
    </g>
  </g>
</svg>