<?xml version="1.0" encoding="UTF-8"?>
<svg id="_레이어_2" data-name="레이어 2" xmlns="http://www.w3.org/2000/svg" xmlns:xlink="http://www.w3.org/1999/xlink" viewBox="0 0 65.75 65.75">
  <defs>
    <style>
      .cls-1 {
        fill: url(#linear-gradient);
      }

      .cls-1, .cls-2, .cls-3 {
        stroke-width: 0px;
      }

      .cls-2 {
        fill: none;
      }

      .cls-3 {
        fill: #ff67de;
        opacity: .41;
      }

      .cls-4 {
        clip-path: url(#clippath);
      }
    </style>
    <clipPath id="clippath">
      <circle class="cls-2" cx="32.87" cy="32.87" r="32.86" transform="translate(-12.93 40.83) rotate(-54.85)"/>
    </clipPath>
    <linearGradient id="linear-gradient" x1="113.87" y1="364.75" x2="113.87" y2="298.59" gradientTransform="translate(335.46 -142.08) rotate(78.98)" gradientUnits="userSpaceOnUse">
      <stop offset="0" stop-color="#f89bcf"/>
      <stop offset=".35" stop-color="#fa98a3"/>
      <stop offset=".99" stop-color="#ff934d"/>
    </linearGradient>
  </defs>
  <g id="BACKGROUND_2" data-name="BACKGROUND 2">
    <g class="cls-4">
      <circle class="cls-1" cx="32.87" cy="32.87" r="32.86" transform="translate(-12.93 40.83) rotate(-54.85)"/>
      <path class="cls-3" d="M-.95,20.93s9.95,4.46,13.99,6.27c7.05,3.16,3.05,4.04,9.67,7.15,2.65,1.24,2.87.51,4.72,2.78,1.85,2.27,3.7,4.79,6.45,5.78,2.63.95,5.57.3,8.18-.7,2.61-1,8.28-2.43,10.91-1.49,8.18,2.92,21.49,9.61,21.49,9.61.71,1.57-4.42.64-6.14.64-2.23-2.07-5.57-2.86-8.5-2.02-.99.28-1.93.74-2.94.93-1.56.28-3.15-.09-4.69-.47-2.3-.56-4.59-1.12-6.89-1.68-2.42-.59-5.35-1.04-7.08.75-.81.84-1.18,2.05-2.09,2.78-1.72,1.38-4.24.4-6.19-.63-6.34-3.34-12.49-7.1-19.03-10.03l-16.84-7.54c.64-1.4,1.29-2.81,1.93-4.21,6.28,3.4,12.71,6.51,19.28,9.31.83.35,1.68.7,2.58.73.9.03,1.86-.34,2.3-1.12-1.57-1.77-4.8-1.74-5.76-3.9-.31-.69-.31-1.51-.67-2.18-.49-.91-1.53-1.37-2.49-1.75-4.92-1.97-9.85-3.95-14.77-5.92.45-1.2.91-2.4,1.36-3.61.48.16.72.35,1.2.51Z"/>
      <path class="cls-3" d="M8.69,18.25c1.67.48,3.35-.54,4.96-1.2,1.97-.81,4.29-1.26,6.23-.39,8.77,3.93,1.67,4.02,10.94,8.17,1.02.46,1.23,1.83,1.89,2.73,1.16,1.58,3.49,1.87,5.34,1.24,1.85-.64,3.34-2,4.81-3.3.97-.86,2.06-1.75,3.36-1.83,1.02-.06,1.99.39,2.91.83,8.66,4.16,17.41,8.12,26.07,12.28l1.78-3.98c-6.28-2.78-11.6-7.31-17.87-10.11-7.9-3.54-4.39-4.3-7.14-5.57s-6.5-1.09-8.28,1.36c-.54.74-.9,1.67-1.69,2.13-1.36.78-3.15-.43-3.63-1.93-.48-1.49-.1-3.11.1-4.66.2-1.56.17-3.32-.92-4.45-1.14-1.19-2.99-1.25-4.47-1.95-1.8-.86-2.97-2.61-4.3-4.1C24.08-1.74,16.74-3.51,10.31-6.39l-1.18,2.64c3.88,1.74,8.14,3.16,10.64,6.59.97,1.33,1.75,2.84,2.98,3.94,1.5,1.34,3.51,1.95,5.15,3.12,1.64,1.17,4.12,3.16,1.93,5.16,0,0-6.9-2.82-10.34-4.22-1.8-.73-3.63-1.49-5.1-2.75-1.18-1.01-2.08-2.3-3.2-3.38C7.49,1.16,1.91.42-2.33-2.47c-.56,1.06-1.12,2.12-1.69,3.18C-1.21,2.38,6.26,5.1,7.41,8.31c1.03,2.88-3.96,8.42,1.28,9.94Z"/>
      <path class="cls-3" d="M20.86,23.58c-.59,1.32-2.13,1.9-3.45,1.32-1.32-.59-1.9-2.13-1.32-3.45.59-1.32,2.13-1.9,3.45-1.32,1.32.59,1.9,2.13,1.32,3.45Z"/>
      <path class="cls-3" d="M41.65,35.66c.82,2.16-.26,4.58-2.42,5.4s-4.58-.26-5.4-2.42c-.82-2.16.26-4.58,2.42-5.4,2.16-.82,4.58.26,5.4,2.42Z"/>
      <path class="cls-3" d="M34.77,1.94c2.07.78,4.45,1.41,5.56,3.32,1.05,1.82.72,4.48,2.44,5.68,1.25.87,2.94.48,4.46.3,5.99-.73,11.92,2.11,17.15,5.13l10.14,4.54c.95-2.5,1.91-4.98,2.86-7.48L34.1-5.96c-.49,1-.97,2.01-1.46,3.01-.12.25-2.61-1.36-1.88,1.58.41,1.66,2.56,2.76,4.01,3.3Z"/>
      <path class="cls-3" d="M52.26,58.55c-2.57-1.71-6.21-1.62-8.69.22-1.7,1.26-3.53,3.37-5.45,2.48-1.35-.62-1.74-2.44-3.02-3.19-1.67-.98-3.69.35-5.58.78-4.02.92-7.11-3.36-10.87-5.05l-25.54-11.44c-.09.64-.29,1.26-.37,1.9,6.26,2.93,12.51,5.87,18.77,8.8,2.08.98,4.28,2.06,5.47,4.02.93,1.54,1.2,3.57,2.65,4.63,1.31.97,3.31.88,4.33,2.14,1.14,1.41.5,3.84,1.9,4.99,1.2.98,2.96.33,4.5.23,3.13-.2,5.79,2.06,8.58,3.48,2.83,1.44,6.15,2.06,9.22,1.26,6.65-1.73,10.93-10.73,4.12-15.26Z"/>
      <path class="cls-3" d="M48.82,7.85c-1.17-.52-2.79-.94-3.52.11-.44.63-.27,1.54.19,2.16.46.62,1.16,1.01,1.83,1.39,7.83,4.4,15.66,8.8,23.49,13.2-1.18-.66.94-5.74.42-6.71-.69-1.29-4.99-2.34-6.28-2.92-5.38-2.41-10.76-4.82-16.13-7.22Z"/>
      <path class="cls-3" d="M49.36,33.14c-.82-.35-1.68-.71-2.56-.61s-1.76.84-1.67,1.72c.07.75.76,1.28,1.43,1.63,2.7,1.43,6.27,1.89,7.72,4.58.42.78.61,1.67,1.06,2.42.75,1.24,2.11,1.95,3.4,2.6,4.55,2.29,9.1,4.57,13.64,6.86,1.56-2.69,3.11-5.37,4.67-8.06-.23.39-11.43-4.18-12.16-4.49-5.18-2.22-10.35-4.43-15.53-6.65Z"/>
      <path class="cls-3" d="M11.24,38.99c.64.28,1.33.56,2.02.48.7-.08,1.39-.66,1.32-1.36-.06-.59-.6-1.01-1.13-1.29-2.13-1.13-4.95-1.49-6.09-3.61-.33-.61-.48-1.32-.84-1.91-.59-.98-1.66-1.54-2.69-2.05l-10.77-5.41c-1.23,2.12-2.46,4.24-3.69,6.36.18-.31,9.02,3.3,9.6,3.54,4.09,1.75,8.17,3.5,12.26,5.25Z"/>
      <path class="cls-3" d="M18.56,14.25c3.15,1,15.19,8.3,16.02,5.1.51-1.96-5.09-6.23-7.04-6.78-1.95-.55-4-.87-5.74-1.9-1.31-.78-2.35-1.91-3.52-2.88C14.45,4.51,9.85,1.86,5.08.62.95,6.11,12.1,12.19,18.56,14.25Z"/>
      <path class="cls-3" d="M52.49,60.29c-12.9-4.77-25.79-9.55-38.69-14.32-.82-.3-1.82-.59-2.52-.06-.73.54-.69,1.72-.16,2.46.53.74,1.39,1.15,2.22,1.54,11.12,5.17,22.24,10.34,33.37,15.5,3.42,1.59,7.03,3.21,10.78,2.91,3.72-.3,9-3.88,6.05-7.75-1.06-1.39-3.68-2.29-5.33-2.41-1.2-.09-5.63,2.17-5.71,2.14Z"/>
    </g>
  </g>
</svg>