<?xml version="1.0" encoding="UTF-8"?>
<svg xmlns="http://www.w3.org/2000/svg" xmlns:xlink="http://www.w3.org/1999/xlink" viewBox="0 0 96 96">
  <defs>
    <style>
      .cls-1 {
        fill: url(#linear-gradient);
      }

      .cls-1, .cls-2, .cls-3, .cls-4, .cls-5 {
        stroke-width: 0px;
      }

      .cls-6 {
        isolation: isolate;
      }

      .cls-2 {
        fill: url(#linear-gradient-2);
        mix-blend-mode: screen;
      }

      .cls-3 {
        fill: none;
      }

      .cls-7 {
        clip-path: url(#clippath);
      }

      .cls-4 {
        fill: url(#linear-gradient-3);
        mix-blend-mode: multiply;
      }

      .cls-5 {
        fill: url(#linear-gradient-4);
      }
    </style>
    <clipPath id="clippath">
      <circle class="cls-3" cx="48" cy="48" r="48"/>
    </clipPath>
    <linearGradient id="linear-gradient" x1="23.69" y1="11.03" x2="72.35" y2="85.03" gradientUnits="userSpaceOnUse">
      <stop offset=".05" stop-color="#bee1f4"/>
      <stop offset="1" stop-color="#b1b2f3"/>
    </linearGradient>
    <linearGradient id="linear-gradient-2" x1="45.02" y1="1.77" x2="45.02" y2="31.1" gradientUnits="userSpaceOnUse">
      <stop offset=".05" stop-color="#bee1f4" stop-opacity="0"/>
      <stop offset="1" stop-color="#b1b2f3"/>
    </linearGradient>
    <linearGradient id="linear-gradient-3" x1="41.98" y1="69.65" x2="104.35" y2="69.65" xlink:href="#linear-gradient"/>
    <linearGradient id="linear-gradient-4" x1="-2.72" y1="29.67" x2="29.78" y2="99.67" gradientUnits="userSpaceOnUse">
      <stop offset="0" stop-color="#ebf3fe"/>
      <stop offset="1" stop-color="#6a8ae9"/>
    </linearGradient>
  </defs>
  <g class="cls-6">
    <g id="_레이어_2" data-name="레이어 2">
      <g id="OBJECTS">
        <g class="cls-7">
          <circle class="cls-1" cx="48" cy="48" r="48"/>
          <path class="cls-2" d="M15.33-4.24c2.34,5.8,7.32,10.78,7.41,17.03.07,5.15-3.23,9.64-5.37,14.33-2.14,4.69-2.74,11.14,1.43,14.18,1.08.79,2.41,1.25,3.75,1.3,3.8.15,6.97-2.83,9.23-5.89,2.25-3.07,4.22-6.57,7.54-8.42,4.83-2.69,10.97-1,15.73,1.81,4.76,2.81,8.94,6.68,14.1,8.68,2.15.83,4.54,1.32,6.77.72,2.23-.6,4.22-2.5,4.35-4.8.06-1.17-.33-2.31-.83-3.37-3.66-7.74-12.75-12.48-14.51-20.86-.83-3.94.16-8.06-.36-12.05-.82-6.25-5.4-11.58-11-14.47s-12.1-3.6-18.39-3.31c-2.03.09-4.14.31-5.88,1.37-3.56,2.16-4.48,7.05-7.68,9.71-3.47,2.88-9.07,2.69-11.83,6.26"/>
          <path class="cls-4" d="M61.04,42.55c12.47-.68,20.74,7.32,30.94,5.82,2.44-.36,5.04-.57,7.26.51,3.72,1.81,4.98,6.5,5.1,10.63.29,9.93-3.72,19.92-10.81,26.89s-17.13,10.82-27.06,10.36c-2.43-.11-4.9-.49-7.04-1.63-2.14-1.15-3.92-3.18-4.26-5.58-.33-2.27.63-4.53,1.74-6.54s2.42-3.97,2.91-6.21c.49-2.24-.09-4.92-2.04-6.13-2.18-1.35-5-.39-7.54-.71-3.97-.51-6.9-4.23-7.83-8.12-.95-3.97-.23-8.32,1.97-11.77,3.77-5.91,10.16-7.17,16.68-7.53Z"/>
          <path class="cls-5" d="M6.98,38.91c-.33,1.76-.95,3.45-1.34,5.2-.49,2.22-.59,4.57.1,6.73s2.26,4.11,4.38,4.91c2.35.89,4.99.31,7.35-.57,2.35-.88,4.64-2.06,7.13-2.37.6-.08,1.24-.09,1.78.19.57.31.92.9,1.19,1.49,2.04,4.53,1.06,10.41,4.47,14.01,2.53,2.68,6.94,3.36,8.73,6.58.84,1.5.93,3.28,1.01,5,.23,5.38.15,11.51-3.8,15.16-1.25,1.15-2.78,1.95-4.3,2.72-2.09,1.07-4.22,2.16-6.55,2.5-5.64.84-10.93-2.79-15.16-6.62-7.77-7.03-14.36-15.43-18.84-24.9-4.48-9.47-6.79-20.03-6.13-30.48.18-2.84.63-5.8,2.26-8.13,1.57-2.25,4.12-3.7,6.79-4.38,2.97-.76,6.87-1.55,8.77,1.32,2.19,3.31,2.9,7.76,2.17,11.62Z"/>
        </g>
      </g>
    </g>
  </g>
</svg>