<?xml version="1.0" encoding="UTF-8"?>
<svg xmlns="http://www.w3.org/2000/svg" xmlns:xlink="http://www.w3.org/1999/xlink" viewBox="0 0 96 96">
  <defs>
    <style>
      .cls-1 {
        fill: url(#linear-gradient);
      }

      .cls-1, .cls-2, .cls-3, .cls-4, .cls-5, .cls-6 {
        stroke-width: 0px;
      }

      .cls-2 {
        fill: url(#linear-gradient-2);
      }

      .cls-2, .cls-5 {
        mix-blend-mode: multiply;
        opacity: .3;
      }

      .cls-7 {
        isolation: isolate;
      }

      .cls-3 {
        fill: none;
      }

      .cls-4 {
        fill: #ef9f2b;
      }

      .cls-5 {
        fill: url(#linear-gradient-3);
      }

      .cls-8 {
        clip-path: url(#clippath);
      }

      .cls-6 {
        fill: #cc7e17;
      }
    </style>
    <clipPath id="clippath">
      <circle class="cls-3" cx="48" cy="48" r="48"/>
    </clipPath>
    <linearGradient id="linear-gradient" x1="23.69" y1="11.03" x2="72.35" y2="85.03" gradientUnits="userSpaceOnUse">
      <stop offset=".05" stop-color="#fbd15b"/>
      <stop offset="1" stop-color="#faa224"/>
    </linearGradient>
    <linearGradient id="linear-gradient-2" x1="41.98" y1="69.65" x2="104.35" y2="69.65" xlink:href="#linear-gradient"/>
    <linearGradient id="linear-gradient-3" x1="-2.72" y1="29.67" x2="29.78" y2="99.67" xlink:href="#linear-gradient"/>
  </defs>
  <g class="cls-7">
    <g id="_레이어_2" data-name="레이어 2">
      <g id="OBJECTS">
        <g>
          <g class="cls-8">
            <circle class="cls-1" cx="48" cy="48" r="48"/>
            <path class="cls-2" d="M61.04,42.55c12.47-.68,20.74,7.32,30.94,5.82,2.44-.36,5.04-.57,7.26.51,3.72,1.81,4.98,6.5,5.1,10.63.29,9.93-3.72,19.92-10.81,26.89-7.08,6.97-17.13,10.82-27.06,10.36-2.43-.11-4.9-.49-7.04-1.63-2.14-1.15-3.92-3.18-4.26-5.58-.33-2.27.63-4.53,1.74-6.54s2.42-3.97,2.91-6.21-.09-4.92-2.04-6.13c-2.18-1.35-5-.39-7.54-.71-3.97-.51-6.9-4.23-7.83-8.12-.95-3.97-.23-8.32,1.97-11.77,3.77-5.91,10.16-7.17,16.68-7.53Z"/>
            <path class="cls-5" d="M6.98,38.91c-.33,1.76-.96,3.45-1.34,5.2-.49,2.22-.59,4.57.1,6.73.69,2.16,2.26,4.11,4.38,4.91,2.35.89,4.99.31,7.35-.57,2.35-.88,4.64-2.06,7.13-2.37.6-.08,1.24-.09,1.78.19.57.31.92.9,1.19,1.49,2.04,4.53,1.06,10.41,4.47,14.01,2.53,2.68,6.94,3.36,8.73,6.58.84,1.5.93,3.28,1.01,5,.23,5.38.16,11.51-3.8,15.16-1.25,1.15-2.78,1.95-4.3,2.72-2.09,1.07-4.22,2.16-6.55,2.5-5.64.84-10.93-2.79-15.16-6.62-7.77-7.03-14.36-15.43-18.84-24.9-4.48-9.47-6.79-20.03-6.13-30.48.18-2.84.63-5.8,2.26-8.13,1.57-2.25,4.12-3.7,6.79-4.38,2.97-.76,6.87-1.55,8.77,1.32,2.19,3.31,2.9,7.76,2.17,11.62Z"/>
          </g>
          <g>
            <path class="cls-6" d="M27.01,18.1c.74,1.91-1.15,4.42-4.2,5.59-3.06,1.18-6.13.58-6.87-1.33s1.15-4.42,4.2-5.59c3.06-1.18,6.13-.58,6.87,1.33Z"/>
            <ellipse class="cls-4" cx="22.03" cy="20.34" rx="5.45" ry="3.41" transform="translate(-5.84 9.28) rotate(-21.07)"/>
          </g>
          <g>
            <path class="cls-6" d="M62.53,35.73c0,1.77-2.29,3.2-5.12,3.2s-5.12-1.43-5.12-3.2,2.29-3.2,5.12-3.2,5.12,1.43,5.12,3.2Z"/>
            <path class="cls-4" d="M62.53,35.99c0,1.62-2.11,2.94-4.71,2.94s-4.71-1.32-4.71-2.94,2.11-2.94,4.71-2.94,4.71,1.32,4.71,2.94Z"/>
          </g>
          <g>
            <path class="cls-6" d="M37.28,36.11c0,1.19-1.54,2.15-3.43,2.15s-3.43-.96-3.43-2.15,1.54-2.15,3.43-2.15,3.43.96,3.43,2.15Z"/>
            <path class="cls-4" d="M37.28,36.28c0,1.09-1.41,1.97-3.15,1.97s-3.15-.88-3.15-1.97,1.41-1.97,3.15-1.97,3.15.88,3.15,1.97Z"/>
          </g>
          <g>
            <path class="cls-6" d="M47.03,4.36c0,.64-.83,1.16-1.86,1.16s-1.86-.52-1.86-1.16.83-1.16,1.86-1.16,1.86.52,1.86,1.16Z"/>
            <path class="cls-4" d="M47.03,4.45c0,.59-.76,1.07-1.71,1.07s-1.71-.48-1.71-1.07.76-1.07,1.71-1.07,1.71.48,1.71,1.07Z"/>
          </g>
          <g>
            <path class="cls-6" d="M49.31,22.01c0,1.19-1.54,2.15-3.43,2.15s-3.43-.96-3.43-2.15,1.54-2.15,3.43-2.15,3.43.96,3.43,2.15Z"/>
            <path class="cls-4" d="M49.31,22.18c0,1.09-1.41,1.97-3.15,1.97s-3.15-.88-3.15-1.97,1.41-1.97,3.15-1.97,3.15.88,3.15,1.97Z"/>
          </g>
          <g>
            <path class="cls-6" d="M69.78,12.48c0,.93-1.2,1.68-2.68,1.68s-2.68-.75-2.68-1.68,1.2-1.68,2.68-1.68,2.68.75,2.68,1.68Z"/>
            <path class="cls-4" d="M69.78,12.62c0,.85-1.1,1.54-2.47,1.54s-2.47-.69-2.47-1.54,1.1-1.54,2.47-1.54,2.47.69,2.47,1.54Z"/>
          </g>
          <g>
            <path class="cls-6" d="M70.71,53.82c0,1.62-2.1,2.93-4.68,2.93s-4.68-1.31-4.68-2.93,2.1-2.93,4.68-2.93,4.68,1.31,4.68,2.93Z"/>
            <ellipse class="cls-4" cx="66.41" cy="54.06" rx="4.3" ry="2.69"/>
          </g>
          <g>
            <path class="cls-6" d="M84.63,29.4c-.68,1.3-2.91,1.48-5,.39-2.08-1.08-3.22-3.02-2.54-4.32s2.91-1.48,5-.39c2.08,1.08,3.22,3.02,2.54,4.32Z"/>
            <path class="cls-4" d="M84.53,29.59c-.62,1.2-2.68,1.36-4.59.36-1.91-1-2.96-2.77-2.34-3.97.62-1.2,2.68-1.36,4.59-.36,1.91,1,2.96,2.77,2.34,3.97Z"/>
          </g>
          <g>
            <path class="cls-6" d="M14.89,45.44c-.55,1.05-2.35,1.19-4.04.32-1.68-.88-2.6-2.44-2.06-3.49.55-1.05,2.35-1.19,4.04-.32,1.68.88,2.6,2.44,2.06,3.49Z"/>
            <path class="cls-4" d="M14.81,45.6c-.5.97-2.16,1.1-3.71.29-1.55-.8-2.39-2.24-1.89-3.21.5-.97,2.16-1.1,3.71-.29,1.55.8,2.39,2.24,1.89,3.21Z"/>
          </g>
          <g>
            <path class="cls-6" d="M27.41,58.98c0,1.19-1.54,2.15-3.43,2.15s-3.43-.96-3.43-2.15,1.54-2.15,3.43-2.15,3.43.96,3.43,2.15Z"/>
            <path class="cls-4" d="M27.41,59.16c0,1.09-1.41,1.97-3.15,1.97s-3.15-.88-3.15-1.97,1.41-1.97,3.15-1.97,3.15.88,3.15,1.97Z"/>
          </g>
        </g>
      </g>
    </g>
  </g>
</svg>