<?xml version="1.0" encoding="UTF-8"?>
<svg id="_레이어_2" data-name="레이어 2" xmlns="http://www.w3.org/2000/svg" viewBox="0 0 150.5 90.85">
  <defs>
    <style>
      .cls-1 {
        fill: #8093e8;
      }

      .cls-1, .cls-2 {
        stroke-width: 0px;
      }

      .cls-2 {
        fill: #fff;
      }
    </style>
  </defs>
  <g id="OBJECTS">
    <g>
      <g>
        <path class="cls-1" d="M67.49,40c-.4-.01-.74-.02-1.04-.02h-17.16c-.58,0-1.14,0-1.69-.02-.53-.01-1.12-.03-1.78-.06h-.13c-1.38-.13-2.52-.84-3.21-1.99-.42-.7-.71-1.43-.88-2.17-.18-.93-.26-1.8-.24-2.65.01-.66.02-1.33.02-2.01,0-.44-.02-.87-.05-1.3-.05-.6-.06-1.22-.02-1.84.03-.51.07-1.01.13-1.52.11-.92.46-1.75,1.04-2.49l.11-.13c.35-.39.74-.72,1.16-1-.96-.34-1.81-.98-2.5-1.91-.83-1.09-1.26-2.36-1.26-3.74,0-1.12-.01-2.17-.04-3.15-.03-1.05-.01-2.2.04-3.4.02-.63.03-1.31.02-2.02-.02-1.21.26-2.33.82-3.33.37-.68.93-1.28,1.66-1.74.67-.42,1.38-.68,2.11-.78.22-.03.44-.04.65-.04.6,0,1.19.12,1.76.34.85.35,1.56.95,2.05,1.75.74,1.23,1.09,2.53,1.07,3.89-.01.88-.02,1.78-.02,2.7,0,.62,0,1.21.02,1.78,0,.17.01.35.02.53,0,0,8.21.23,8.21.23.88,0,1.75.32,2.44.92.46.41.82.89,1.07,1.43v-8.01c-.03-.33-.01-.73.06-1.32.08-.77.28-1.46.57-2.04.35-.74,1.32-2.1,3.59-2.33.23-.03.53-.05.81-.05,1.8,0,2.89.8,3.5,1.47l.08.08.07.09c.32.43.56.88.71,1.33.08.23.15.47.21.72.14.46.21.99.23,1.65.01.5,0,.92-.02,1.26v.75c.05,0,.11,0,.16.01.42.04.71.08.9.12,1.01.2,1.78.56,2.34,1.09.58.54.96,1.23,1.13,2,.12.48.18,1.01.18,1.58,0,.84-.2,1.61-.6,2.27-.73,1.21-1.91,1.95-3.33,2.1-.25.03-.52.05-.79.07v.82c0,1.01-.26,1.98-.76,2.81.53.36.95.83,1.26,1.4.61,1.16.65,2.44.11,3.61-.07.16-.15.31-.24.45.38.52.75,1.27.86,2.31.15,1.47-.35,2.45-.84,3.04.47.72.69,1.61.61,2.6-.08,1.43-.79,2.29-1.37,2.76-.57.46-1.25.77-2,.93-.49.11-1.01.16-1.54.16h-.26ZM62.22,21.84v-.04c-.14-.42-.23-.78-.29-1.1-.2.43-.47.81-.8,1.14,0,0,.92,0,1.09,0Z"/>
        <path class="cls-2" d="M66.89,5c.71,0,1.26.21,1.64.64.16.21.27.42.34.62.07.2.13.41.18.62.08.24.13.59.14,1.04.01.45,0,.81-.02,1.08v3.24c.11,0,.31,0,.6.02.29.01.6.03.92.04.32.01.63.03.92.06.29.03.51.05.64.08.53.11.91.26,1.12.46.21.2.35.45.4.74.08.29.12.63.12,1.02s-.08.71-.24.98c-.32.53-.8.83-1.44.9-.64.07-1.35.11-2.12.14h-.92v3.24c0,.69-.2,1.3-.6,1.82-.4.52-1.01.78-1.84.78-.45,0-.83-.09-1.12-.28-.53-.32-.87-.71-1.02-1.18s-.22-.81-.22-1.02v-11.96c-.03-.11-.01-.4.04-.88.05-.48.16-.88.32-1.2.27-.56.8-.88,1.6-.96.2-.03.38-.04.56-.04M45.25,5.18c.28,0,.55.05.82.16.36.15.65.39.86.74.48.8.71,1.65.7,2.54-.01.89-.02,1.81-.02,2.74,0,.64,0,1.25.02,1.84.01.59.06,1.21.14,1.88.03.32.11.55.24.7.13.15.29.25.48.3.19.05.4.08.64.08h.72l8.44.24c.35,0,.63.1.86.3.23.2.39.44.5.72.11.28.17.57.2.88.03.31.01.58-.04.82-.08.61-.39,1.03-.92,1.26-.53.23-1.16.34-1.88.34h-10.44c-.8,0-1.45-.09-1.96-.26-.51-.17-.96-.53-1.36-1.06-.51-.67-.76-1.41-.76-2.24,0-1.15-.01-2.22-.04-3.22-.03-1-.01-2.07.04-3.22.03-.69.03-1.42.02-2.18-.01-.76.15-1.45.5-2.06.19-.35.46-.63.82-.86.36-.23.73-.37,1.12-.42.1-.01.2-.02.3-.02M66.77,24.23c.32,0,.64.02.96.05.48.05.93.15,1.34.3.41.15.71.39.9.74.24.45.25.91.04,1.38-.21.47-.53.73-.96.78-.68.12-1.33.18-1.96.18-.07,0-.13,0-.19,0-.69-.01-1.41-.02-2.16-.02h-14.4c-.21,0-.41-.01-.6-.04-.09-.01-.19-.02-.29-.02s-.2,0-.31.02c-.24.03-.38.06-.42.1s-.06.17-.06.38v.96c.09.13.21.19.37.19.04,0,.08,0,.13-.01.23-.04.43-.06.62-.06.34-.04.65-.06.93-.06.07,0,.14,0,.21,0,.33.01.73.02,1.18.02.77,0,1.55,0,2.32.02s1.55.02,2.32.02h11.2c.29,0,.63,0,1,.02.37.01.69.13.96.34.29.29.47.71.52,1.24.05.53-.05.95-.32,1.24-.16.19-.35.31-.58.38-.23.07-.49.11-.78.14-.52.06-1.05.09-1.57.09-.18,0-.35,0-.53,0-.71-.03-1.34-.04-1.9-.04h-15.56c-.13,0-.27.03-.4.08l-.08,1.28c.13.05.28.09.44.1.16.01.31.03.44.06.21.03.35.04.42.04h17.94c.56,0,1.09.13,1.58.4s.71.75.66,1.44c-.03.45-.17.79-.44,1-.27.21-.59.36-.96.44-.32.07-.66.1-1.02.1-.06,0-.12,0-.18,0-.43-.01-.8-.02-1.12-.02h-17.16c-.56,0-1.1,0-1.62-.02-.52-.01-1.1-.03-1.74-.06-.59-.05-1.02-.31-1.3-.78-.28-.47-.47-.94-.58-1.42-.13-.69-.19-1.38-.18-2.06.01-.68.02-1.37.02-2.06,0-.51-.02-1.01-.06-1.5-.04-.49-.05-.99-.02-1.5.03-.45.07-.91.12-1.36s.23-.87.52-1.24c.72-.8,1.68-1.2,2.88-1.2h.88c.13.03.24.04.32.04h8.2c1.39,0,2.77,0,4.16.02.28,0,.56,0,.84,0,1.11,0,2.23-.02,3.36-.06.32,0,.72-.01,1.2-.04.16,0,.32-.01.48-.01M66.89,0c-.37,0-.76.02-1.15.07-2.49.28-4.49,1.63-5.51,3.74-.41.84-.68,1.8-.8,2.84-.07.61-.1,1.15-.07,1.68v3.15c-.32-.05-.65-.08-.99-.09l-5.77-.16c0-.86,0-1.71.02-2.54.03-1.83-.45-3.58-1.41-5.19v-.02s-.03-.02-.03-.02c-.77-1.25-1.89-2.2-3.23-2.75-.87-.35-1.78-.53-2.7-.53-.33,0-.66.02-.98.07-1.1.15-2.13.53-3.1,1.14-1.1.69-1.95,1.59-2.54,2.68-.78,1.39-1.15,2.92-1.12,4.57.01.66,0,1.3-.02,1.9-.06,1.22-.07,2.43-.04,3.55.03.96.04,2,.04,3.08,0,1.92.62,3.74,1.78,5.27.21.28.44.55.68.8-.53.89-.86,1.88-.98,2.9-.07.56-.12,1.12-.15,1.67-.04.74-.03,1.47.03,2.18.03.36.04.73.04,1.1,0,.66,0,1.32-.02,1.97-.02,1.02.07,2.07.27,3.1v.07s.03.07.03.07c.22,1,.62,1.98,1.17,2.91,1.1,1.83,2.97,2.99,5.13,3.19h.13s.13.02.13.02c.67.03,1.27.05,1.81.06.56.01,1.15.02,1.75.02h17.16c.27,0,.59,0,.96.02.12,0,.23,0,.34,0,.71,0,1.4-.07,2.06-.21,1.14-.24,2.16-.72,3.03-1.42,1.37-1.1,2.19-2.72,2.31-4.56.07-.92-.04-1.79-.29-2.6.46-1.04.64-2.21.52-3.44-.09-.85-.29-1.57-.55-2.19.55-1.68.4-3.5-.44-5.09-.16-.29-.33-.57-.53-.83.08-.3.15-.6.2-.91,1.61-.49,2.98-1.55,3.87-3.03.63-1.05.95-2.25.95-3.56,0-.76-.08-1.48-.25-2.15-.28-1.25-.91-2.37-1.85-3.25-.71-.67-1.57-1.16-2.61-1.48-.03-.88-.13-1.6-.33-2.26-.08-.29-.16-.57-.25-.84-.23-.7-.6-1.39-1.08-2.04l-.14-.18-.15-.17c-1.33-1.48-3.23-2.29-5.35-2.29h0Z"/>
      </g>
      <g>
        <path class="cls-1" d="M83.51,40.02c-.61,0-1.23-.01-1.85-.04-1.19-.06-2.24-.52-3.06-1.33-.79-.79-1.26-1.84-1.36-3.03-.05-.45-.09-1.03-.11-1.65-.01-.57-.02-1.05-.02-1.44v-.26c-.03-.41-.02-.87.03-1.38.09-.87.41-1.68.94-2.34-.08-.1-.16-.22-.23-.33-.71-1.09-.92-2.37-.58-3.67l.03-.13.05-.12c.17-.46.43-.87.75-1.21-.56-.34-1.04-.8-1.41-1.36-.42-.6-.73-1.38-.88-2.28-.11-.6-.18-1.19-.23-1.77-.05-.6-.06-1.12-.05-1.59l.02-.55v-1.84c0-.4.01-.83.04-1.31,0-.48,0-.92.02-1.3.01-.34.02-.64.02-.91v-1.32c0-.29.02-.61.05-.96.04-.34.09-.68.16-1.02.12-.56.32-1.06.6-1.48.41-.63.88-1.13,1.41-1.5.53-.36,1.17-.62,1.9-.77.22-.04.53-.08.96-.11.23-.01.42-.03.61-.05.42-.04.8-.06,1.2-.06h9.04c.7,0,1.44.06,2.21.16,1,.14,1.92.47,2.72.98.8.48,1.44,1.2,1.8,2.05.25.59.42,1.22.5,1.87,0,.02,0,.04,0,.06,0-.29.01-.64.07-1.11.09-.78.27-1.45.57-2.04.36-.75,1.32-2.1,3.59-2.33.23-.03.53-.05.81-.05,1.8,0,2.9.8,3.5,1.47l.07.08.07.09c.32.43.56.88.71,1.33.08.23.15.47.21.72.14.46.21.98.23,1.65.01.5,0,.92-.02,1.26v.35c.05,0,.1,0,.16.01.42.04.71.08.89.12,1.03.21,1.79.56,2.36,1.09.58.54.97,1.23,1.13,2.01.12.48.18,1.01.18,1.58,0,.85-.2,1.61-.6,2.27-.72,1.2-1.9,1.95-3.32,2.1-.26.03-.52.05-.8.07v1.22c0,1.24-.39,2.4-1.12,3.35,0,0,0,0,0,0,.86.87,1.32,2.04,1.32,3.41v3.12c0,.73-.16,1.45-.47,2.12-.15.33-.35.65-.59.94.37.39.72.92.95,1.63.69,2.25-.31,4.24-2.54,5.09-.48.2-1.06.34-1.66.39-.41.03-.79.05-1.15.05h-19.86ZM98.83,17.72c0,.39-.03.81-.08,1.24-.06.52-.19,1.04-.37,1.55-.13.36-.29.71-.48,1.03h1.19c-.17-.6-.25-1.07-.25-1.5v-2.32ZM98.8,16.02c-.02.15-.03.3-.02.44.03.4.05.82.05,1.26v-1.89l-.03.19ZM98.81,15.06c.01.2.02.39.02.58v-.68l-.02.1ZM85.77,14.46c.45-.02.89-.03,1.28-.03.2,0,.38,0,.55,0,.37.01.83.02,1.38.02,0-.12,0-.25,0-.38,0-.53.01-.89.03-1.09v-.03l-3.59-.06v.18l-.02.16c-.01.1-.02.18-.02.26v.96c.13,0,.25,0,.38,0ZM98.83,10.8c0,.53-.01.89-.03,1.08,0,.07,0,.25.02.49v.08s0-1.64,0-1.64Z"/>
        <path class="cls-2" d="M103.85,5c.71,0,1.26.21,1.64.64.16.21.27.42.34.62.07.2.13.41.18.62.08.24.13.59.14,1.04.01.45,0,.81-.02,1.08v2.84c.11,0,.31,0,.6.02.29.01.6.03.92.04.32.01.63.03.92.06.29.03.51.05.64.08.53.11.91.26,1.12.46.21.2.35.45.4.74.08.29.12.63.12,1.02s-.08.71-.24.98c-.32.53-.8.83-1.44.9-.64.07-1.35.11-2.12.14h-.92v3.64c0,.69-.2,1.3-.6,1.82-.4.52-1.01.78-1.84.78-.45,0-.83-.09-1.12-.28-.53-.32-.87-.71-1.02-1.18-.15-.47-.22-.81-.22-1.02v-11.96c-.03-.11-.01-.4.04-.88.05-.48.16-.88.32-1.2.27-.56.8-.88,1.6-.96.2-.03.38-.04.56-.04M91.57,5.4c.59,0,1.21.05,1.86.14.65.09,1.23.3,1.74.62.4.24.68.55.84.92.16.37.27.77.32,1.2.05.43.07.86.04,1.3-.03.44-.04.85-.04,1.22,0,.43,0,.71-.02.86-.01.15,0,.43.02.86v2.2c-.03.13-.03.28-.02.44.01.16.02.32.02.48-.05.35-.07.69-.04,1.02.03.33.04.69.04,1.06,0,.29-.02.61-.06.94-.04.33-.12.67-.24,1-.12.33-.28.63-.48.9-.2.27-.46.45-.78.56-.66.28-1.36.42-2.08.42-.03,0-.07,0-.1,0-.76-.01-1.5-.02-2.22-.02-.19.03-.61.04-1.26.04s-1.35,0-2.1-.02c-.75-.01-1.45-.02-2.12-.02h-1.36c-.48,0-.95,0-1.42-.02-.47-.01-.91-.05-1.34-.12-.43-.07-.81-.18-1.16-.34-.35-.16-.63-.4-.84-.72-.24-.35-.41-.79-.5-1.32-.09-.53-.16-1.05-.2-1.54-.04-.49-.05-.93-.04-1.3.01-.37.02-.57.02-.6v-1.88c0-.37.01-.79.04-1.24,0-.48,0-.91.02-1.28.01-.37.02-.71.02-1v-1.32c0-.21.01-.45.04-.7.03-.25.07-.51.12-.76.05-.25.13-.46.24-.62.24-.37.49-.65.74-.82.25-.17.58-.3.98-.38.13-.03.33-.05.6-.06.27-.01.52-.03.76-.06.29-.03.6-.04.92-.04h9.04M85.77,16.96h.04c.47-.02.88-.03,1.24-.03.17,0,.34,0,.48,0,.45.01,1.04.02,1.76.02.21,0,.43,0,.66.02.05,0,.09,0,.14,0,.18,0,.35-.02.52-.06.21-.03.36-.09.44-.2.08-.11.15-.24.2-.4.05-.21.08-.39.08-.52.11-.51.16-1.08.16-1.72,0-.43,0-.72.02-.88.01-.16,0-.45-.02-.88-.03-.21-.03-.43-.02-.64.01-.21,0-.43-.06-.64-.11-.29-.28-.46-.52-.5-.24-.04-.48-.06-.72-.06l-4.92-.08h-.66c-.2,0-.38.03-.54.08-.37.03-.68.19-.92.48-.11.13-.17.33-.18.6s-.02.43-.02.48v.88c-.03.21-.04.41-.04.58v.94c0,.32,0,.59.02.8.01.21.05.43.1.64.05.21.15.4.28.56.21.27.56.42,1.04.46.48.04.96.06,1.44.06M83.73,24c.13,0,.25,0,.36.02.11.01.23.02.36.02h17.68c1.36,0,2.4.21,3.12.62.72.41,1.08,1.09,1.08,2.02v3.12c0,.37-.08.73-.24,1.08-.16.35-.45.65-.88.92-.37.21-.73.33-1.08.34s-.68.02-1,.02h-18.6v1.88h20c.4.03.77.13,1.1.3.33.17.57.47.7.9.29.96-.05,1.63-1.04,2-.32.13-.65.21-.98.24-.33.03-.65.04-.94.04h-19.86c-.57,0-1.15-.01-1.74-.04-.56-.03-1.03-.23-1.4-.6-.37-.37-.59-.87-.64-1.48-.05-.45-.09-.95-.1-1.5-.01-.55-.02-1.01-.02-1.38v-.36c-.03-.29-.02-.64.02-1.04.04-.4.18-.75.42-1.04.35-.37.83-.61,1.46-.72.63-.11,1.23-.16,1.82-.16h.84c.11,0,.21,0,.3.02.09.01.18.02.26.02h17v-1.72h-17.4c-.13,0-.28,0-.44-.02-.05,0-.1,0-.15,0-.1,0-.2,0-.29.03h-1.72c-.21,0-.43-.03-.64-.08-.21-.05-.42-.11-.62-.16-.2-.05-.37-.19-.5-.4-.35-.53-.44-1.11-.28-1.72.08-.21.2-.38.36-.5.16-.12.35-.22.56-.3.21-.08.42-.14.62-.18s.38-.07.54-.1c.21-.03.42-.05.62-.06s.42-.02.66-.02h.68M103.85,0c-.37,0-.76.02-1.15.07-1.79.2-3.33.96-4.43,2.15-.16-.11-.32-.22-.48-.32-1.09-.68-2.32-1.12-3.65-1.31-.89-.13-1.76-.19-2.57-.19h-9.04c-.46,0-.92.02-1.37.06h-.06s-.06.01-.06.01c-.14.02-.28.03-.43.03-.56.03-.96.08-1.33.15-1.08.22-2.02.6-2.83,1.16-.8.55-1.51,1.29-2.11,2.22-.45.68-.76,1.46-.94,2.32-.09.42-.16.85-.2,1.28-.05.43-.07.83-.07,1.22v1.32c0,.24,0,.52-.02.83-.01.38-.02.81-.02,1.3-.03.49-.04.95-.04,1.39v1.81c0,.08,0,.25-.02.48-.02.57,0,1.19.05,1.89.05.65.14,1.32.26,2,.21,1.22.65,2.33,1.29,3.26.1.15.2.29.31.43l-.03.08-.07.25c-.41,1.57-.28,3.18.35,4.63-.29.66-.47,1.36-.54,2.09-.06.63-.08,1.19-.04,1.72v.18c0,.41,0,.91.02,1.5.02.67.06,1.31.13,1.89.17,1.75.89,3.3,2.07,4.49,1.26,1.26,2.89,1.97,4.7,2.06.68.03,1.34.05,1.98.05h19.86c.42,0,.87-.02,1.33-.06.85-.07,1.66-.26,2.44-.58,3.39-1.33,5.02-4.65,3.97-8.1-.11-.35-.24-.68-.4-1,.41-.96.61-1.96.61-2.98v-3.12c0-1.3-.3-2.51-.85-3.56.31-.72.52-1.5.61-2.3,1.59-.5,2.94-1.55,3.82-3.02.63-1.04.95-2.24.95-3.55,0-.76-.08-1.48-.25-2.15-.28-1.26-.92-2.38-1.86-3.26-.72-.67-1.58-1.15-2.62-1.48-.04-.7-.14-1.3-.31-1.85-.07-.28-.16-.57-.25-.84-.23-.7-.6-1.39-1.08-2.04l-.13-.18-.15-.17c-1.33-1.48-3.23-2.3-5.36-2.3h0Z"/>
      </g>
      <g>
        <path class="cls-1" d="M9.36,88.14c-.52,0-1.04-.07-1.54-.2-.61-.14-1.25-.44-1.83-.87-.78-.58-1.29-1.34-1.48-2.23-.13-.48-.16-.97-.08-1.48.05-.3.12-.58.21-.85.27-.92.82-1.71,1.59-2.28.44-.33.91-.63,1.4-.89.17-.1.35-.2.53-.3-.48-.19-.89-.41-1.27-.66-.9-.57-1.49-1.43-1.71-2.46l-.03-.14v-.14c-.1-.81.01-1.61.31-2.4-1.31-.43-1.98-1.24-2.32-1.87-.41-.75-.56-1.63-.43-2.54.09-.66.3-1.28.6-1.84.29-.5.59-.92.91-1.3.22-.25.44-.52.67-.8l.07-.09c.65-.72,1.29-1.49,1.91-2.29.15-.19.3-.39.46-.58-.26-.01-.52-.04-.78-.07-.68-.1-1.31-.32-1.89-.66-.52-.31-1.24-.91-1.7-2.03-.24-.55-.39-1.16-.44-1.81-.05-.63,0-1.24.15-1.82.23-1.07.98-2,2.04-2.46.51-.22,1.01-.38,1.49-.47.4-.08.79-.12,1.17-.12.19,0,.37.01.56.04h1.16s.02-.07.04-.1c.45-1.23,1.4-2.17,2.67-2.63.59-.21,1.16-.31,1.72-.31.31,0,.61.03.9.09.78.16,1.49.5,2.1.99.57.47,1.03,1.05,1.37,1.74.04.07.07.14.1.22h.38c1.12,0,2.02.08,2.76.24,1.18.25,2.19.94,2.92,1.99.33.5.53,1.01.65,1.62.11.56.12,1.12.04,1.67-.07.5-.21.99-.41,1.44-.3.69-.75,1.22-1.31,1.59l-.24.15-.97.36c-.49.18-.97.28-1.44.29-.13,0-.25.02-.37.02.03.03.59.63.85.92.23.23.42.45.59.64.08.1.16.19.24.27l.08.08.07.08c.48.56.95,1.15,1.43,1.77.65.85,1.11,1.73,1.36,2.63l.02.09.02.09c.11.57.12,1.17,0,1.77,0,.05-.02.09-.03.14h1.62c-.07-.14-.13-.28-.19-.41-.17-.41-.29-.88-.38-1.43l-.03-.19v-12.11c-.03-.37,0-.78.06-1.31.08-.76.27-1.45.56-2.04.36-.75,1.33-2.11,3.59-2.33.23-.03.53-.05.81-.05,1.8,0,2.89.8,3.5,1.47l.08.08.07.09c.32.42.56.87.71,1.32.08.25.16.5.22.76.13.44.2.9.23,1.37.02.38,0,.75-.02,1.11v1.55c.05,0,.11,0,.16.01.41.04.71.08.9.12,1.01.2,1.78.56,2.34,1.09.58.54.96,1.23,1.13,2,.12.48.18,1.01.18,1.58,0,.84-.2,1.61-.59,2.26-.72,1.21-1.91,1.95-3.33,2.1-.26.03-.52.05-.8.07v.33c-.04.36-.09.73-.16,1.11-.1.57-.3,1.14-.59,1.67-.21.42-.51.83-.89,1.19.01.01.03.03.04.04.68.64,1.11,1.49,1.28,2.52l.05.32-.03.32c-.1,1.1-.45,2.02-1.05,2.73-.45.54-.98.96-1.59,1.26.2.11.4.22.58.33.56.33,1.12.74,1.65,1.21.62.55,1.05,1.25,1.25,2.03.18.7.2,1.4.04,2.08-.16.69-.47,1.31-.92,1.85-.55.66-1.3,1.11-2.18,1.31-.62.13-1.22.2-1.81.2-.67,0-1.34-.08-2.01-.24-1.08-.26-2.11-.61-3.04-1.06-.2-.1-.49-.25-.9-.47-.38-.21-.82-.44-1.31-.72-.48-.27-2.52-1.42-3-1.68-.31-.17-.59-.33-.86-.47-.52.31-1.08.63-1.68.98-.66.38-1.26.74-1.81,1.06-.48.28-.77.46-.87.52l-.09.06-.12.07c-.48.25-.96.5-1.45.74-.54.26-1.08.5-1.61.7-.63.24-1.3.43-1.99.55-.36.06-.73.1-1.08.1ZM14.84,70.38s-.03-.03-.04-.05c-.36-.4-.72-.8-1.09-1.19l-.02-.02-1.14,1.26h2.29Z"/>
        <path class="cls-2" d="M13.51,52c.14,0,.27.01.4.04.39.08.73.24,1.02.48.29.24.53.55.72.92.19.37.31.76.36,1.16.03.08.05.15.06.22.01.07.02.14.02.22h2.28c.93,0,1.68.06,2.24.18.56.12,1.03.45,1.4.98.11.16.19.38.24.66.05.28.06.56.02.84-.04.28-.11.54-.22.78s-.24.41-.4.52c-.21.08-.45.17-.7.26-.25.09-.49.14-.7.14-.21.02-.41.03-.6.03-.09,0-.18,0-.26,0-.25-.01-.54-.02-.86-.02-.48,0-.85,0-1.12.02-.09,0-.18,0-.28,0-.2,0-.43,0-.68-.03v2.2c.13.11.31.32.52.64.21.32.43.59.64.8s.44.45.68.7c.24.25.49.53.76.82.19.19.35.36.48.52.13.16.27.31.4.44.45.53.91,1.09,1.36,1.68.45.59.76,1.17.92,1.76.05.27.05.55,0,.84-.05.29-.2.55-.44.76-.4.27-.83.4-1.28.4-.51,0-.99-.12-1.46-.36s-.85-.48-1.14-.72c-.45-.4-.87-.81-1.24-1.22-.37-.41-.75-.82-1.12-1.22-.29-.32-.61-.64-.96-.96s-.65-.67-.92-1.04l-3.96,4.36c-.43.45-.88.77-1.36.94-.48.17-.93.26-1.36.26-.13,0-.33-.03-.6-.08-.51-.13-.85-.37-1.04-.72-.16-.29-.21-.63-.16-1,.05-.37.16-.71.32-1,.19-.32.39-.61.62-.88s.46-.55.7-.84c.69-.77,1.37-1.58,2.02-2.42.65-.84,1.37-1.66,2.14-2.46v-2.2c-.14.02-.31.03-.5.03-.09,0-.2,0-.3,0-.32-.01-.71-.02-1.16-.02-.29,0-.63.01-1,.04-.13,0-.25.01-.37.01-.25,0-.49-.02-.73-.05-.36-.05-.69-.17-.98-.34-.29-.17-.52-.46-.68-.86-.13-.29-.21-.63-.24-1-.03-.37,0-.72.08-1.04.08-.37.29-.63.62-.78.33-.15.65-.25.94-.3.27-.05.51-.08.72-.08.08,0,.16,0,.24.02s.16.02.24.02h3.24c.05-.61.18-1.19.38-1.74s.59-.93,1.18-1.14c.3-.11.59-.16.86-.16M30.69,53c.71,0,1.26.21,1.64.64.16.21.27.42.34.62.07.2.13.41.18.62.08.27.13.55.14.84.01.29,0,.59-.02.88v3.12c0,.13,0,.27-.02.42-.01.15,0,.31.02.5.11,0,.31,0,.6.02.29.01.6.03.92.04.32.01.63.03.92.06.29.03.51.05.64.08.53.11.91.26,1.12.46.21.2.35.45.4.74.08.29.12.63.12,1.02s-.08.71-.24.98c-.32.53-.8.83-1.44.9s-1.35.11-2.12.14h-.92v2.52c-.03.29-.07.59-.12.9-.05.31-.16.61-.32.9-.16.32-.39.59-.68.8-.37.27-.81.4-1.32.4-.45,0-.83-.09-1.12-.28-.27-.16-.48-.36-.64-.6-.16-.24-.29-.47-.38-.7-.09-.23-.17-.51-.22-.86v-12.08c-.03-.11-.01-.4.04-.88.05-.48.16-.88.32-1.2.27-.56.8-.88,1.6-.96.2-.03.38-.04.56-.04M28.37,72.88c.48,0,.96,0,1.44.02.48.01.92.07,1.32.18.4.11.74.29,1.02.56.28.27.46.64.54,1.12-.05.59-.21,1.04-.48,1.36-.27.32-.59.55-.96.7-.37.15-.79.23-1.26.26-.23.01-.46.02-.69.02s-.44,0-.66-.02h-5.32c.05.03.26.14.62.34.36.2.79.43,1.28.7.49.27,1.03.55,1.6.84.57.29,1.11.57,1.6.82.49.25.93.47,1.3.66s.6.28.68.28c.53.24,1.01.49,1.44.74.43.25.85.57,1.28.94.24.21.4.47.48.78.08.31.09.61.02.9-.07.29-.2.56-.4.8-.2.24-.47.4-.82.48-.41.09-.82.13-1.24.13-.48,0-.96-.06-1.44-.17-.91-.21-1.75-.51-2.52-.88-.16-.08-.43-.22-.8-.42-.37-.2-.8-.43-1.28-.7-.48-.27-.98-.55-1.5-.84-.52-.29-1.02-.57-1.5-.84-.48-.27-.91-.5-1.3-.7-.39-.2-.67-.34-.86-.42-.11.05-.44.25-1,.58-.56.33-1.17.69-1.84,1.08-.67.39-1.28.75-1.84,1.08-.56.33-.88.53-.96.58-.45.24-.91.47-1.38.7-.47.23-.94.43-1.42.62-.48.19-.99.33-1.52.42-.22.04-.44.06-.65.06-.31,0-.61-.04-.91-.12-.35-.08-.67-.23-.98-.46s-.49-.5-.54-.82c-.05-.16-.07-.33-.04-.5.03-.17.07-.33.12-.46.11-.43.34-.77.7-1.04.36-.27.74-.51,1.14-.72.45-.27.92-.52,1.4-.76.48-.24.96-.48,1.44-.72.51-.27,1-.52,1.48-.76.48-.24.96-.49,1.44-.76.03-.03.17-.11.44-.24.27-.13.55-.28.86-.44.31-.16.59-.31.86-.46s.4-.25.4-.3h-6.44c-.53-.05-1.01-.15-1.44-.28-.37-.13-.73-.31-1.06-.52-.33-.21-.54-.51-.62-.88-.05-.53.05-1.07.32-1.6s.72-.83,1.36-.88c.19-.03.38-.04.58-.04h18.5M13.51,47c-.84,0-1.69.15-2.53.45-1.43.52-2.58,1.4-3.39,2.56-.07,0-.15,0-.22,0-.53,0-1.08.06-1.66.17-.66.12-1.34.34-2.01.63-1.77.78-3.04,2.31-3.47,4.21-.2.82-.26,1.67-.2,2.55.06.91.28,1.79.63,2.6.52,1.25,1.35,2.28,2.42,3l-.06.06-.07.09c-.22.27-.43.52-.64.77-.42.49-.8,1.03-1.13,1.61l-.03.06-.03.06c-.45.82-.74,1.73-.88,2.69-.21,1.43.04,2.85.72,4.1.41.76.98,1.43,1.68,1.96-.03.45-.03.9.02,1.34l.03.28.06.27c.2.93.6,1.79,1.16,2.52-.76.78-1.31,1.73-1.63,2.78-.13.39-.23.81-.3,1.24-.12.81-.08,1.65.12,2.44.33,1.45,1.18,2.73,2.43,3.65.84.62,1.76,1.05,2.75,1.29.69.17,1.4.26,2.11.26.5,0,1.01-.04,1.52-.13.86-.15,1.69-.38,2.47-.68.59-.23,1.19-.49,1.79-.78.52-.25,1.03-.51,1.53-.78l.23-.12.18-.12c.12-.08.38-.23.77-.46.55-.33,1.14-.68,1.79-1.05.16-.09.32-.18.47-.27.35.19.7.39,1.07.6.53.3,1.04.59,1.53.86.5.28.95.53,1.35.74.43.23.74.39.92.48l.03.02.03.02c1.09.53,2.29.95,3.55,1.24.86.2,1.73.3,2.59.3.76,0,1.53-.08,2.28-.24h.05s.05-.02.05-.02c1.41-.33,2.63-1.07,3.53-2.14.71-.86,1.19-1.83,1.44-2.89.25-1.09.23-2.2-.06-3.28-.32-1.24-.99-2.34-1.94-3.2.65-.99,1.04-2.17,1.16-3.49l.06-.64-.11-.64c-.13-.77-.36-1.49-.7-2.14.01-.03.03-.05.04-.08.34-.65.6-1.33.75-2.03,1.68-.47,3.11-1.55,4.03-3.08.63-1.05.95-2.25.95-3.55,0-.76-.08-1.48-.25-2.15-.28-1.26-.92-2.38-1.86-3.26-.71-.66-1.56-1.15-2.59-1.47,0-.23,0-.45,0-.68-.03-.69-.14-1.33-.31-1.94-.08-.31-.17-.6-.26-.89-.24-.72-.6-1.4-1.08-2.04l-.14-.18-.15-.17c-1.33-1.48-3.23-2.29-5.35-2.29-.37,0-.76.02-1.15.07-2.34.26-4.25,1.48-5.32,3.37-.77-.53-1.63-.91-2.57-1.11-.65-.14-1.39-.23-2.23-.27-.38-.53-.83-1-1.33-1.41-.93-.76-1.99-1.26-3.17-1.51-.47-.1-.94-.14-1.41-.14h0Z"/>
      </g>
      <g>
        <path class="cls-1" d="M65.38,87.82l-.2-.1c-.97-.14-1.82-.53-2.5-1.14-.67-.61-1.19-1.35-1.54-2.22-.29-.72-.47-1.48-.54-2.26-.06-.62-.09-1.19-.09-1.7v-24.14c0-.38.04-.78.12-1.23.08-.44.2-.91.37-1.38.25-.68.61-1.27,1.08-1.74.5-.5,1.16-.87,1.96-1.07.56-.15,1.1-.22,1.61-.22,1.25,0,2.38.46,3.25,1.33.75.75,1.21,1.61,1.36,2.54.07.42.13.85.18,1.3.04.22.06.46.07.72.05.48.09.98.1,1.48.01.46.03.91.06,1.37v.14c0,.25,0,.5.02.74.02.32.02.65.02.98v.21l-.02.13c.01.19.02.37.02.54v.74h.07l.25.05s.1.01.15.02c.23.02.45.05.67.08.57.1,1.09.28,1.59.53.75.38,1.34.96,1.72,1.7.39.67.58,1.42.58,2.24,0,.29,0,.55-.03.78-.02.31-.08.63-.17.98-.06.24-.13.48-.2.75-.22.79-.68,1.46-1.33,1.93-.64.46-1.31.77-1.97.92l-.12.03-.13.02c-.33.04-.7.07-1.09.07v2.77c.05,1.35.05,2.79,0,4.18v.46c0,.37,0,.78-.02,1.22-.02.49-.06.99-.12,1.46-.08.58-.22,1.15-.41,1.68-.25.67-.61,1.25-1.07,1.74-.79.88-1.89,1.36-3.11,1.36h-.59ZM49.39,86.12c-.44,0-.89-.03-1.33-.08-1.19-.15-2.33-.54-3.39-1.16-1.04-.62-1.89-1.4-2.54-2.34-.53-.77-1.02-1.66-1.45-2.65-.66-1.57-1.03-3.18-1.12-4.81-.1-1.07-.18-2.25-.22-3.42-.04-1.15-.06-2.3-.06-3.45,0-1.58.09-3.17.25-4.75l.16-1.78c.06-.67.15-1.34.27-2,.12-.55.21-.97.28-1.37.12-.63.33-1.28.64-1.92.25-.54.54-1.06.85-1.55.37-.59.81-1.12,1.32-1.58,1.44-1.44,3.28-2.35,5.4-2.64.23-.04.53-.06.84-.06l.21-.04h.29c.42,0,.81.01,1.2.04.4.03.78.08,1.17.15,1.52.24,2.89.95,4.04,2.1.89.96,1.56,1.99,2.07,3.12.46,1.04.83,2.14,1.09,3.28.25,1.11.43,2.25.52,3.39.08,1.04.15,2.06.2,3.03.06,1.28.08,2.57.06,3.84-.01,1.31-.09,2.62-.24,3.89-.14,1.32-.35,2.67-.61,3.99-.31,1.58-.9,3.03-1.74,4.3-.73,1.11-1.63,2.05-2.68,2.78-1.07.74-2.23,1.24-3.46,1.5-.68.13-1.34.2-2.01.2ZM48.91,68.02c.03.62.02,1.23-.03,1.82-.03.36-.02.73.01,1.11.06.72.13,1.44.22,2.2.07.64.2,1.24.38,1.79.08.24.17.45.27.62.13-.44.26-.92.37-1.43.17-1.01.28-2.2.31-3.46.03-1.32.01-2.62-.04-3.85v-.1c0-.47-.01-.97-.04-1.5-.02-.51-.07-1.02-.13-1.53-.05-.44-.13-.88-.24-1.29-.06-.23-.13-.44-.22-.61l-.29.67c-.1.35-.18.71-.24,1.08-.07.51-.14,1.01-.19,1.51-.05.49-.09.99-.11,1.51-.02.5-.04.99-.04,1.46Z"/>
        <path class="cls-2" d="M49.77,53c.35,0,.68.01,1,.04.32.03.64.07.96.12,1.01.16,1.91.63,2.68,1.4.64.69,1.16,1.49,1.56,2.38.4.89.71,1.83.94,2.82s.38,1.99.46,3.02c.08,1.03.15,2.02.2,2.98.05,1.23.07,2.45.06,3.68-.01,1.23-.09,2.44-.22,3.64-.13,1.25-.33,2.51-.58,3.78-.25,1.27-.71,2.41-1.38,3.42-.56.85-1.23,1.55-2.02,2.1-.79.55-1.63.91-2.54,1.1-.5.1-1,.14-1.5.14-.34,0-.68-.02-1.02-.06-.85-.11-1.67-.39-2.44-.84-.72-.43-1.3-.96-1.74-1.6-.44-.64-.85-1.39-1.22-2.24-.53-1.28-.84-2.6-.92-3.96-.11-1.12-.18-2.24-.22-3.36-.04-1.12-.06-2.24-.06-3.36,0-1.49.08-2.99.24-4.48.05-.61.11-1.22.16-1.82.05-.6.13-1.19.24-1.78.11-.48.2-.93.28-1.36s.23-.87.44-1.32c.21-.45.45-.88.7-1.28.25-.4.55-.76.9-1.08,1.12-1.12,2.47-1.79,4.04-2,.16-.03.33-.04.5-.04s.34-.01.5-.04M49.65,78.16c.51,0,1-.16,1.48-.48.45-.32.77-.75.96-1.28.19-.53.35-1.12.48-1.76.21-1.23.33-2.53.36-3.92.03-1.39.01-2.72-.04-4,0-.51-.01-1.05-.04-1.62-.03-.57-.07-1.14-.14-1.7-.07-.56-.17-1.1-.3-1.62-.13-.52-.32-.98-.56-1.38-.27-.45-.59-.8-.96-1.04-.31-.2-.63-.29-.97-.29-.08,0-.15,0-.23.01-.45.05-.87.21-1.26.48-.39.27-.7.67-.94,1.2l-.36.84c-.16.51-.28,1.03-.36,1.58s-.15,1.09-.2,1.62-.09,1.08-.12,1.64-.04,1.11-.04,1.64c.03.53.02,1.05-.02,1.56s-.03,1.03.02,1.56c.05.69.13,1.44.22,2.24.09.8.25,1.55.48,2.26.23.71.54,1.29.94,1.76.4.47.93.7,1.6.7M65.65,53.12c.59,0,1.08.2,1.48.6.37.37.59.77.66,1.18.07.41.13.85.18,1.3.03.11.04.27.04.48.05.45.09.92.1,1.4.01.48.03.96.06,1.44,0,.29,0,.58.02.86.01.28.02.57.02.86-.03.16-.03.31-.02.46.01.15.02.29.02.42v2.64c0,.16.03.31.08.44,0,.03.13.04.4.04h.44c.16.04.3.05.41.05.06,0,.11,0,.15-.01h.08c.13,0,.26.01.38.04.12.03.25.04.38.04.13.03.28.05.44.06s.32.03.48.06c.29.05.59.15.88.3.29.15.51.37.64.66.19.29.28.64.28,1.04,0,.21,0,.41-.02.58-.01.17-.05.37-.1.58-.05.21-.11.44-.18.68s-.19.43-.38.56c-.37.27-.73.44-1.08.52-.28.04-.61.05-.98.05-.18,0-.38,0-.58-.01-.31-.01-.59-.02-.85-.02s-.5,0-.71.02c-.03,0-.05.01-.08.04h-.04l-.04.04v5.2c.05,1.39.05,2.75,0,4.08v.56c0,.35,0,.73-.02,1.14s-.05.82-.1,1.22c-.05.4-.15.78-.28,1.14-.13.36-.32.66-.56.9-.32.37-.75.56-1.28.56l-.08-.04c-.64-.03-1.15-.21-1.54-.56-.39-.35-.68-.77-.88-1.28-.2-.51-.33-1.03-.38-1.58-.05-.55-.08-1.03-.08-1.46v-24.14c0-.23.03-.49.08-.8.05-.31.14-.63.26-.96.12-.33.29-.61.5-.82.19-.19.46-.33.82-.42.36-.09.69-.14.98-.14M49.77,48h-.42l-.24.04c-.36,0-.72.04-1.07.09-2.62.37-4.9,1.49-6.78,3.34-.63.59-1.18,1.27-1.65,2-.37.59-.71,1.2-1.01,1.84-.39.83-.67,1.68-.83,2.52-.07.38-.15.78-.25,1.2l-.02.1-.02.1c-.13.74-.23,1.49-.3,2.23-.05.58-.1,1.18-.16,1.78-.17,1.65-.26,3.31-.26,4.96,0,1.15.02,2.34.06,3.53.04,1.2.12,2.4.23,3.58.12,1.88.56,3.73,1.29,5.49l.02.04.02.04c.5,1.14,1.06,2.17,1.68,3.07.85,1.24,1.97,2.27,3.31,3.07,1.38.81,2.84,1.31,4.37,1.5.55.07,1.1.1,1.64.1.82,0,1.65-.08,2.45-.24h.03s.03-.01.03-.01c1.57-.32,3.04-.96,4.38-1.89.83-.58,1.58-1.25,2.26-2.02.08.27.18.54.28.81.49,1.24,1.23,2.3,2.19,3.17.95.85,2.1,1.42,3.38,1.68l.4.2h1.18c1.93,0,3.68-.77,4.95-2.16.69-.72,1.22-1.58,1.58-2.56.26-.71.45-1.46.55-2.21.08-.57.12-1.15.14-1.72.02-.47.02-.91.02-1.3v-.46c.05-1.39.05-2.83,0-4.27v-.52c.78-.25,1.54-.64,2.27-1.16,1.13-.81,1.92-1.95,2.29-3.3.08-.28.15-.54.21-.79.12-.49.2-.96.23-1.41.02-.31.04-.62.04-.97,0-1.22-.3-2.4-.88-3.43-.62-1.19-1.58-2.13-2.8-2.74-.45-.22-.9-.4-1.37-.54,0-.21-.01-.42-.02-.63,0-.2-.01-.41-.01-.62v-.28c-.03-.43-.05-.87-.06-1.3-.02-.53-.05-1.06-.1-1.58-.01-.33-.04-.64-.09-.93-.06-.45-.12-.89-.18-1.31-.24-1.47-.95-2.82-2.06-3.93-1.33-1.33-3.11-2.07-5.02-2.07-.72,0-1.47.1-2.24.3-1.23.32-2.27.9-3.09,1.72-.58.58-1.05,1.25-1.4,2.01-.26-.34-.54-.67-.83-.99l-.07-.07-.07-.07c-1.51-1.51-3.39-2.48-5.43-2.8-.42-.07-.87-.13-1.31-.16-.5-.04-.97-.06-1.43-.06h0Z"/>
      </g>
      <g>
        <path class="cls-1" d="M97.85,88.22c-1.71,0-3.35-.06-4.88-.19-1.63-.13-3.1-.39-4.36-.78-1.47-.45-2.68-1.12-3.6-2.01-1.13-1.09-1.73-2.54-1.73-4.21,0-.52.07-1.02.19-1.49-.98-.62-1.6-1.62-1.74-2.82-.12-.98.09-1.97.6-2.84.63-1.09,1.69-1.77,2.99-1.92.2-.03.39-.05.59-.06-.41-.07-.8-.16-1.15-.28-.99-.34-1.85-.99-2.55-1.93-.83-1.09-1.26-2.35-1.26-3.74,0-1.13-.01-2.32-.04-3.57-.03-1.31-.01-2.58.04-3.79.02-.62.03-1.31.02-2.02-.02-1.21.26-2.33.82-3.33.37-.68.93-1.28,1.66-1.74.67-.42,1.38-.68,2.11-.78.22-.03.43-.04.65-.04.6,0,1.2.12,1.76.35.84.34,1.55.95,2.04,1.74.74,1.23,1.09,2.53,1.07,3.89-.01.88-.02,1.79-.02,2.71,0,.63,0,1.36.02,2.2,0,.32.01.62.03.91l5.76.16c-.15-.59-.17-1.23-.05-1.91.14-.82.4-1.48.78-2.04.42-.62.97-1.1,1.63-1.41.53-.25,1.11-.4,1.74-.45.4-.03.83-.05,1.31-.05.27,0,.62,0,1.06-.01v-.78c-.03-.25-.04-.54-.04-.85,0-.38.03-.77.09-1.15.08-.51.22-.95.41-1.35l.05-.09c.33-.6.81-1.11,1.42-1.5.58-.37,1.24-.62,1.97-.72.31-.04.56-.05.8-.05.51,0,1.01.07,1.48.2.86.24,1.57.66,2.1,1.27.61.66,1.05,1.42,1.27,2.24.13.48.21,1.04.23,1.75.01.55,0,1-.02,1.37v6.72c0,1.52-.01,3-.04,4.43v.18c-.04.33-.08.66-.12,1-.08.61-.28,1.21-.58,1.78-.22.41-.49.78-.8,1.09.11.05.21.1.31.15.67.36,1.56,1.11,1.95,2.6l.02.1c.31,1.39-.04,2.38-.39,2.96-.32.55-.75,1-1.27,1.36.13.5.2,1.03.2,1.57,0,1.66-.58,3.1-1.69,4.19-.91.89-2.12,1.57-3.6,2.02-1.27.39-2.74.65-4.37.78-1.53.12-3.17.19-4.88.19ZM104.49,71.9c-.22-.29-.41-.61-.58-.96-.37-.78-.56-1.56-.56-2.3v-2.42h-.15c.04.22.08.44.1.67.04.52.02,1.01-.07,1.47-.15.95-.58,1.76-1.23,2.37.09.12.17.25.24.38.15.26.28.53.39.8h1.85Z"/>
        <path class="cls-2" d="M108.05,52.77c.29,0,.56.04.82.11.39.11.69.28.9.52.37.4.61.81.72,1.24.08.27.13.65.14,1.16.01.51,0,.91-.02,1.2v6.82c0,1.51-.01,2.97-.04,4.38-.03.29-.06.59-.1.9s-.14.61-.3.9c-.19.35-.41.6-.68.76-.37.29-.81.44-1.32.44-.4,0-.77-.11-1.12-.32-.37-.21-.67-.55-.88-1-.21-.45-.32-.87-.32-1.24v-4.84l-3.68-.12c-.37,0-.75-.05-1.12-.16-.37-.11-.7-.26-.98-.46-.28-.2-.5-.45-.66-.76-.16-.31-.2-.69-.12-1.14.08-.45.21-.81.38-1.06.17-.25.39-.44.64-.56.25-.12.55-.19.88-.22.33-.03.7-.04,1.1-.04.37,0,.9,0,1.58-.02.68-.01,1.34-.03,1.98-.06v-2.96c0-.05,0-.19-.02-.4-.01-.21-.02-.45-.02-.7s.02-.51.06-.76c.04-.25.1-.46.18-.62.13-.24.33-.45.6-.62.27-.17.59-.29.96-.34.15-.02.3-.03.44-.03M86.21,53.18c.28,0,.55.05.82.16.36.15.65.39.86.74.48.8.71,1.65.7,2.54-.01.89-.02,1.81-.02,2.74,0,.64,0,1.39.02,2.24.01.85.06,1.61.14,2.28.03.32.11.55.24.7.13.15.29.25.48.3.19.05.4.08.64.08h.72l8.44.24c.35,0,.63.1.86.3.23.2.39.44.5.72.11.28.17.57.2.88s.01.58-.04.82c-.08.61-.39,1.03-.92,1.26s-1.16.34-1.88.34h-10.44c-.8,0-1.45-.09-1.96-.26s-.96-.53-1.36-1.06c-.51-.67-.76-1.41-.76-2.24,0-1.15-.01-2.35-.04-3.62-.03-1.27-.01-2.47.04-3.62.03-.69.03-1.42.02-2.18-.01-.76.15-1.45.5-2.06.19-.35.46-.63.82-.86.36-.23.73-.37,1.12-.42.1-.01.2-.02.3-.02M98,71.12c.13,0,.26.01.39.04.39.08.72.22,1,.42.28.2.51.46.7.78s.31.64.36.96c.08.4.09.76.04,1.08h6.24c.4,0,.84-.03,1.32-.08.27-.03.55-.05.82-.05.2,0,.4,0,.6.03.47.04.87.15,1.22.34s.59.53.72,1.04c.11.48.07.87-.1,1.16-.17.29-.43.53-.76.7-.33.17-.72.29-1.16.36-.44.07-.86.1-1.26.1,1.17.72,1.76,1.73,1.76,3.04,0,.99-.31,1.79-.94,2.4-.63.61-1.49,1.09-2.58,1.42-1.09.33-2.37.56-3.84.68-1.47.12-3.03.18-4.68.18s-3.21-.06-4.68-.18c-1.47-.12-2.75-.35-3.84-.68-1.09-.33-1.96-.81-2.6-1.42-.64-.61-.96-1.41-.96-2.4,0-1.31.69-2.33,2.08-3.08h-.44c-.19.02-.37.03-.55.03-.35,0-.67-.04-.97-.11-.37-.08-.73-.23-1.08-.44-.35-.21-.55-.55-.6-1-.05-.45.04-.89.28-1.3.24-.41.63-.65,1.16-.7.16-.03.32-.04.48-.04h9.52c0-.32.01-.64.04-.96s.09-.62.2-.9c.11-.28.26-.53.46-.76s.47-.39.82-.5c.28-.11.56-.16.83-.16M100.77,82.38c.69,0,1.32-.03,1.88-.08.67-.07,1.21-.19,1.64-.38.43-.19.64-.48.64-.88,0-.35-.21-.61-.64-.8-.43-.19-.97-.32-1.64-.4s-1.43-.13-2.28-.14c-.85-.01-1.69-.02-2.52-.02s-1.69,0-2.5.02c-.81.01-1.54.06-2.18.14-.64.08-1.16.21-1.56.4-.4.19-.6.45-.6.8,0,.29.2.53.6.7.4.17.92.31,1.56.4.64.09,1.37.15,2.18.18s1.65.04,2.5.04,1.67,0,2.52.02c.14,0,.27,0,.4,0M108.05,47.77c-.34,0-.69.02-1.03.06h-.06s-.06.02-.06.02c-1.09.16-2.09.53-2.97,1.09-.97.63-1.72,1.44-2.26,2.4l-.05.09-.05.09c-.31.63-.53,1.31-.65,2.08-.04.24-.07.49-.09.73-.02,0-.03,0-.05,0-.95.08-1.82.31-2.62.68-1.06.5-1.97,1.28-2.64,2.26-.54.8-.92,1.71-1.13,2.78l-.84-.02c0-.24,0-.46,0-.68,0-.91,0-1.79.02-2.66.03-1.84-.45-3.58-1.41-5.19l-.02-.03-.02-.03c-.77-1.25-1.89-2.2-3.23-2.74-.86-.35-1.77-.53-2.7-.53-.33,0-.66.02-.98.07-1.1.15-2.14.53-3.1,1.14-1.09.69-1.94,1.59-2.54,2.68-.77,1.39-1.15,2.92-1.12,4.57.01.65,0,1.28-.02,1.88-.06,1.25-.07,2.57-.04,3.93.03,1.3.04,2.45.04,3.51,0,1.92.62,3.74,1.78,5.27.16.21.32.41.49.6-.2.25-.39.52-.56.81-.78,1.34-1.1,2.86-.92,4.39.15,1.32.7,2.53,1.54,3.49-.01.17-.02.35-.02.52,0,2.36.86,4.44,2.5,6.01,1.21,1.16,2.76,2.03,4.6,2.59,1.44.44,3.08.73,4.9.88,1.59.13,3.31.2,5.08.2s3.49-.07,5.09-.2c1.81-.15,3.45-.44,4.89-.88,1.87-.57,3.42-1.45,4.62-2.63,1.6-1.57,2.44-3.63,2.44-5.97,0-.21,0-.42-.02-.63.28-.31.53-.66.74-1.02.58-.99,1.16-2.61.68-4.79l-.02-.1-.03-.1c-.27-1.02-.73-1.92-1.36-2.68.27-.63.45-1.3.54-1.98.05-.37.09-.74.12-1.1l.02-.18v-.18c.03-1.45.04-2.96.04-4.47v-6.64c.03-.43.03-.93.02-1.51-.03-.93-.13-1.68-.32-2.35-.32-1.2-.94-2.31-1.85-3.29-.85-.93-1.97-1.61-3.26-1.96-.7-.19-1.42-.29-2.15-.29h0Z"/>
      </g>
      <g>
        <path class="cls-1" d="M142.85,88.35c-.41,0-.84-.05-1.26-.15-.85-.17-1.59-.53-2.18-1.07-.54-.48-.95-1.1-1.22-1.83-.16-.44-.29-.89-.38-1.32-.1-.49-.15-.93-.15-1.35v-26.16c0-.49.04-.99.11-1.48.07-.51.19-1.01.34-1.47.23-.69.58-1.28,1.04-1.74.64-.64,1.38-1.05,2.18-1.22.49-.1,1.01-.15,1.55-.15.95,0,1.83.27,2.63.79.81.53,1.43,1.3,1.78,2.23.34.81.53,1.68.57,2.56l.08,1.95v.2c.05,1.99.07,4.15.04,6.35-.03,2.15-.04,4.18-.04,6.09v10.12c0,.19,0,.38.02.58.02.38,0,.76-.03,1.13l-.02.14c-.04.25-.07.49-.09.73-.05.52-.15,1.02-.32,1.52l-.06.17-.08.16c-.04.13-.12.32-.23.54-.37.75-.87,1.35-1.49,1.8l-.08.06-.09.05c-.8.49-1.68.74-2.61.74ZM128.97,86.22c-.68,0-1.36-.14-2.01-.42-.93-.39-1.63-1.06-2.02-1.93-.56-1.12-.86-2.45-.86-3.87v-1.66c-.03-.35-.04-.71-.04-1.06v-14.89s-.08,0-.12,0h-1.67c-.25.01-.5.02-.75.02-.28,0-.55,0-.83-.02-.18-.01-.36-.02-.54-.02-.16,0-.31,0-.47.01-.21.02-.42.03-.61.03-.13,0-.26,0-.38-.01-.1,0-.24-.01-.38-.01-.36,0-.74-.02-1.13-.05-.76-.06-1.47-.32-2.11-.76-.82-.58-1.4-1.36-1.7-2.26-.21-.63-.32-1.3-.33-1.97-.04-.88.15-1.75.54-2.6.29-.68.71-1.23,1.25-1.63.35-.3.78-.54,1.27-.72.33-.12.6-.21.84-.28l.12-.03c.73-.17,1.5-.27,2.28-.29.63-.01,1.25-.02,1.86-.02h7.15l.19.03c.31.05.63.09.97.12.62.06,1.22.21,1.77.44.3.11.68.31,1.04.54.46.31.84.68,1.15,1.11l.08.11c.45.7.72,1.44.8,2.2.04.37.15,1.33.15,1.33.06.81.09,1.62.09,2.4v15.34l.02.53c.01.41.02.89.02,1.45v1.64c0,.63-.02,1.18-.04,1.65v.1c-.04.33-.09.67-.15,1.03-.09.5-.24.98-.44,1.43-.24.54-.58,1.03-1.01,1.46-.47.46-1.04.83-1.71,1.09-.71.29-1.49.45-2.26.45Z"/>
        <path class="cls-2" d="M142.89,52.92c.45,0,.87.13,1.26.38.39.25.66.61.82,1.06.24.56.37,1.15.4,1.76.03.61.05,1.23.08,1.84v.2c.05,2.05.07,4.16.04,6.32s-.04,4.2-.04,6.12v10.12c0,.24,0,.48.02.72.01.24,0,.48-.02.72-.05.32-.09.63-.12.94-.03.31-.09.62-.2.94-.05.11-.09.2-.12.28-.03.08-.07.17-.12.28-.19.37-.43.67-.72.88-.41.25-.85.37-1.32.37-.23,0-.47-.03-.72-.09-.43-.08-.77-.24-1.04-.48-.24-.21-.42-.49-.54-.82-.12-.33-.21-.66-.28-.98s-.1-.6-.1-.84v-26.16c0-.37.03-.75.08-1.12.05-.37.13-.72.24-1.04s.25-.57.44-.76c.29-.29.6-.47.92-.54s.67-.1,1.04-.1M128.13,54.28c.35.05.71.1,1.1.14.39.04.74.13,1.06.26.21.08.42.19.62.32.2.13.37.29.5.48.24.37.38.75.42,1.12.04.37.09.79.14,1.24.05.75.08,1.49.08,2.22v15.34s0,.23.02.62.02.84.02,1.36v1.64c0,.57-.01,1.07-.04,1.5-.03.27-.07.55-.12.84-.05.29-.14.57-.26.84s-.29.51-.5.72c-.21.21-.49.39-.84.52-.45.19-.91.28-1.36.28-.35,0-.69-.07-1.04-.22s-.59-.37-.72-.66c-.43-.85-.64-1.8-.64-2.84v-1.76c-.03-.32-.04-.64-.04-.96v-14.96c0-.43-.03-.87-.08-1.32-.03-.13-.06-.32-.1-.56s-.13-.39-.26-.44c-.12-.07-.25-.1-.39-.1-.02,0-.05,0-.07,0-.06,0-.12,0-.17,0-.11,0-.22,0-.33-.03-.09-.01-.19-.02-.28-.02s-.18,0-.26.02c-.09.01-.18.02-.27.02s-.18,0-.27-.02h-1.88c-.23.01-.45.02-.68.02s-.45,0-.68-.02c-.23-.01-.45-.02-.68-.02s-.45,0-.68.02c-.14.02-.27.03-.4.03-.06,0-.12,0-.18,0-.17-.01-.37-.02-.58-.02-.29,0-.6-.01-.92-.04-.32-.03-.61-.13-.88-.32-.37-.27-.63-.6-.76-1s-.2-.81-.2-1.24c-.03-.51.08-1.01.32-1.52.13-.32.31-.55.52-.68.13-.13.33-.25.58-.34.25-.09.47-.17.66-.22.56-.13,1.15-.21,1.76-.22.61-.01,1.21-.02,1.8-.02h6.96M142.89,47.92c-.71,0-1.4.07-2.06.2-1.27.26-2.46.92-3.44,1.9-.74.74-1.3,1.66-1.65,2.72-.02.05-.03.1-.05.16-.02-.04-.05-.08-.07-.11l-.07-.11-.08-.11c-.48-.67-1.08-1.25-1.77-1.72-.51-.34-1.03-.61-1.56-.82-.75-.3-1.56-.5-2.4-.59-.29-.03-.57-.07-.83-.11l-.38-.06h-7.35c-.62,0-1.26,0-1.91.02-.96.02-1.9.14-2.8.35l-.12.03-.11.03c-.3.09-.62.19-.99.33-.76.28-1.42.66-1.98,1.12-.84.65-1.51,1.52-1.97,2.56-.54,1.19-.8,2.43-.75,3.68.01.92.17,1.83.46,2.7.47,1.4,1.37,2.6,2.59,3.48h.02s.02.03.02.03c.99.69,2.14,1.11,3.34,1.21.46.04.9.06,1.33.06.08,0,.15,0,.22,0,.15.01.35.02.55.02.26,0,.53-.01.8-.04.09,0,.19,0,.28,0,.13,0,.26,0,.39.01.32.02.65.03.97.03h.04v12.38c0,.38.01.76.04,1.15v1.57c0,1.79.38,3.48,1.14,5.01.66,1.38,1.82,2.48,3.28,3.09.97.41,1.97.61,2.99.61,1.09,0,2.17-.21,3.21-.64.97-.38,1.82-.93,2.51-1.62.34-.34.64-.7.9-1.08.07.26.16.52.25.77.4,1.12,1.05,2.08,1.92,2.86.88.8,2.03,1.37,3.3,1.63.6.14,1.2.21,1.79.21,1.38,0,2.73-.38,3.91-1.1l.18-.11.17-.12c.94-.69,1.7-1.59,2.24-2.68.12-.25.22-.46.3-.67l.1-.2.12-.35c.23-.68.37-1.38.44-2.07.02-.2.04-.37.07-.56l.02-.14.02-.14c.06-.51.07-1.02.04-1.53,0-.17-.01-.31-.01-.46v-10.12c0-1.86.01-3.9.04-6.06.03-2.21.01-4.38-.04-6.45v-.35s-.03-.59-.03-.59l-.05-1.24c-.05-1.18-.3-2.32-.74-3.39-.54-1.41-1.48-2.59-2.74-3.41-1.19-.78-2.57-1.2-4-1.2h0Z"/>
      </g>
    </g>
  </g>
</svg>