<?xml version="1.0" encoding="UTF-8"?>
<svg xmlns="http://www.w3.org/2000/svg" xmlns:xlink="http://www.w3.org/1999/xlink" viewBox="0 0 96 96">
  <defs>
    <style>
      .cls-1 {
        fill: #ff7465;
      }

      .cls-1, .cls-2, .cls-3, .cls-4, .cls-5, .cls-6, .cls-7, .cls-8 {
        stroke-width: 0px;
      }

      .cls-2 {
        fill: url(#linear-gradient);
      }

      .cls-9 {
        isolation: isolate;
      }

      .cls-3 {
        fill: url(#linear-gradient-2);
      }

      .cls-3, .cls-7 {
        mix-blend-mode: screen;
      }

      .cls-4 {
        fill: none;
      }

      .cls-5 {
        fill: #ed5551;
      }

      .cls-10 {
        clip-path: url(#clippath);
      }

      .cls-6 {
        fill: #f7746b;
      }

      .cls-7 {
        opacity: .3;
      }

      .cls-7, .cls-8 {
        fill: #fc958d;
      }
    </style>
    <clipPath id="clippath">
      <path class="cls-4" d="M96,48c0,10.06-3.09,19.4-8.39,27.11-8.64,12.61-23.16,20.89-39.61,20.89C21.49,96,0,74.51,0,48S21.49,0,48,0c24.84,0,45.27,18.86,47.74,43.04.17,1.63.26,3.29.26,4.96Z"/>
    </clipPath>
    <linearGradient id="linear-gradient" x1="32.85" y1="2.44" x2="63.6" y2="94.94" gradientUnits="userSpaceOnUse">
      <stop offset=".05" stop-color="#ff8578"/>
      <stop offset="1" stop-color="#ff7162"/>
    </linearGradient>
    <linearGradient id="linear-gradient-2" x1="20.78" y1="8.09" x2="32.78" y2="28.76" xlink:href="#linear-gradient"/>
  </defs>
  <g class="cls-9">
    <g id="_레이어_2" data-name="레이어 2">
      <g id="OBJECTS">
        <g class="cls-10">
          <path class="cls-2" d="M96,48c0,10.06-3.09,19.4-8.39,27.11-8.64,12.61-23.16,20.89-39.61,20.89C21.49,96,0,74.51,0,48S21.49,0,48,0c24.84,0,45.27,18.86,47.74,43.04.17,1.63.26,3.29.26,4.96Z"/>
          <path class="cls-5" d="M-12.25,54.96c.32-12.69,9.57-24.65,21.78-28.15,7.95-2.28,16.42-1.2,24.68-.84,8.27.36,17.13-.21,23.77-5.15,2.3-1.71,4.23-3.88,5.98-6.16,5.36-6.97,9.19-15.1,11.15-23.67,1.49-6.53-9.03-9.53-15.6-10.88-20.66-4.24-42.33-3.46-62.62,2.26C-13.93-14.57-25.06-9.56-30.92.04c-4.49,7.35-5.23,16.56-3.45,24.99,1.78,8.43,5.88,16.19,10.55,23.43,1.59,2.47,3.57,5.09,6.46,5.6,1.73.3,4.94-.84,5.11.91Z"/>
          <path class="cls-3" d="M-12.25,52.96c.32-12.69,9.57-24.65,21.78-28.15,7.95-2.28,16.42-1.2,24.68-.84,8.27.36,17.13-.21,23.77-5.15,2.3-1.71,4.23-3.88,5.98-6.16,5.36-6.97,9.19-15.1,11.15-23.67,1.49-6.53-9.03-9.53-15.6-10.88-20.66-4.24-42.33-3.46-62.62,2.26C-13.93-16.57-25.06-11.56-30.92-1.96c-4.49,7.35-5.23,16.56-3.45,24.99,1.78,8.43,5.88,16.19,10.55,23.43,1.59,2.47,3.57,5.09,6.46,5.6,1.73.3,4.94-.84,5.11.91Z"/>
          <path class="cls-5" d="M20.07,41.51c6.86.33,13.42,2.96,20.37,3.16,11.76.34,23.19-4.42,32.08-11.96,4.47-3.78,8.34-8.28,11.4-13.27,2.51-4.09,5.06-11.39,10.57-12.14.97-.13,2.05.03,2.73.74.45.46.66,1.1.84,1.72.77,2.69,1.09,5.51.92,8.3-.62,10.17-7.61,19.09-16.2,24.57-13.28,8.47-33.21,14.18-48.55,9.15-2.99-.98-5.94-2.32-9.09-2.41-6.62-.17-12.03,5.18-15.76,10.64-3.73,5.47-6.93,11.7-12.62,15.1-4.94-6.63-4.26-16.46.59-23.15,4.31-5.95,11.18-9.48,18.4-10.33,1.46-.17,2.9-.2,4.32-.13Z"/>
          <path class="cls-8" d="M20.07,39.51c6.86.33,13.42,2.96,20.37,3.16,11.76.34,23.19-4.42,32.08-11.96,4.47-3.78,8.34-8.28,11.4-13.27,2.51-4.09,5.06-11.39,10.57-12.14.97-.13,2.05.03,2.73.74.45.46.66,1.1.84,1.72.77,2.69,1.09,5.51.92,8.3-.62,10.17-7.61,19.09-16.2,24.57-13.28,8.47-33.21,14.18-48.55,9.15-2.99-.98-5.94-2.32-9.09-2.41-6.62-.17-12.03,5.18-15.76,10.64-3.73,5.47-6.93,11.7-12.62,15.1-4.94-6.63-4.26-16.46.59-23.15,4.31-5.95,11.18-9.48,18.4-10.33,1.46-.17,2.9-.2,4.32-.13Z"/>
          <path class="cls-6" d="M.15,90.58c1.43-5.82,3.77-11.34,6.86-16.2,4.66-7.33,11.4-9.42,18.95-9.06,7.1.34,13.98,2.72,21.11,2.59,23.47-.43,40.8-21.46,58.12-37.18.63-.57,1.35-1.18,2.15-1.09,1.27.14,1.88,1.88,2.13,3.34,2.11,12.45-3.31,26.14-12.78,32.3-8.72,5.67-19.5,7.94-29.18,10.39-6.5,1.65-13.12,2.73-19.76,3.22-5.7.43-11.42-.56-17.1.13-4.58.56-9.27,2.12-11.98,6.8-2.19,3.78-2.81,8.45-4.98,12.24-1.24,2.17-3.22,4.06-5.44,3.87-2.34-.2-4.06-2.59-5.35-4.88-1.84-3.27-3.4-7.63-1.6-10.93"/>
          <path class="cls-5" d="M.15,88.96c1.43-4.97,3.77-9.68,6.86-13.83,4.66-6.25,11.4-8.04,18.95-7.73,7.1.29,13.98,2.32,21.11,2.21,23.47-.37,40.8-18.32,58.12-31.74.63-.49,1.35-1.01,2.15-.93,1.27.12,1.88,1.6,2.13,2.85,2.11,10.63-3.31,22.32-12.78,27.58-8.72,4.84-19.5,6.78-29.18,8.87-6.5,1.41-13.12,2.33-19.76,2.75-5.7.36-11.42-.48-17.1.12-4.58.48-9.27,1.81-11.98,5.81-2.19,3.23-2.81,7.21-4.98,10.45-1.24,1.85-3.22,3.47-5.44,3.3-2.34-.17-4.06-2.21-5.35-4.17-1.84-2.79-3.4-6.51-1.6-9.34"/>
          <path class="cls-8" d="M.15,86.96c1.43-4.97,3.77-9.68,6.86-13.83,4.66-6.25,11.4-8.04,18.95-7.73,7.1.29,13.98,2.32,21.11,2.21,23.47-.37,40.8-18.32,58.12-31.74.63-.49,1.35-1.01,2.15-.93,1.27.12,1.88,1.6,2.13,2.85,2.11,10.63-3.31,22.32-12.78,27.58-8.72,4.84-19.5,6.78-29.18,8.87-6.5,1.41-13.12,2.33-19.76,2.75-5.7.36-11.42-.48-17.1.12-4.58.48-9.27,1.81-11.98,5.81-2.19,3.23-2.81,7.21-4.98,10.45-1.24,1.85-3.22,3.47-5.44,3.3-2.34-.17-4.06-2.21-5.35-4.17-1.84-2.79-3.4-6.51-1.6-9.34"/>
          <path class="cls-1" d="M34.34,86.38c1.32-.95,2.72-1.72,4.16-2.29,4.64-1.83,9.61-2.11,14.51-2.32,13.49-.59,26.18-1.72,38.35-8.97,1.74,9.38-1.46,19.4-7.15,26.43s-13.6,11.3-21.73,13.52c-8.14,2.22-16.57,2.54-24.93,2.69-5.12.09-12.16-3-12.6-10.04-.49-7.74,3.73-14.97,9.39-19.02Z"/>
          <path class="cls-8" d="M34.34,87.37c1.32-.83,2.72-1.5,4.16-2,4.64-1.6,9.61-1.84,14.51-2.03,13.49-.51,26.18-1.5,38.35-7.83,1.74,8.18-1.46,16.93-7.15,23.06-5.69,6.13-13.6,9.86-21.73,11.8s-16.57,2.22-24.93,2.35c-5.12.08-12.16-2.62-12.6-8.76-.49-6.76,3.73-13.06,9.39-16.6Z"/>
          <path class="cls-8" d="M35.22,88.49c1.32-.83,2.72-1.5,4.16-2,4.64-1.6,9.61-1.84,14.51-2.03,13.49-.51,26.18-1.5,38.35-7.83,1.74,8.18-1.46,16.93-7.15,23.06-5.69,6.13-13.6,9.86-21.73,11.8s-16.57,2.22-24.93,2.35c-5.12.08-12.16-2.62-12.6-8.76-.49-6.76,3.73-13.06,9.39-16.6Z"/>
          <path class="cls-7" d="M98.42,6.99c-.68-.52-1.62-.63-2.48-.51-5.51.75-8.06,8.05-10.57,12.14-3.06,4.99-7.41,9.39-11.88,13.18-8.89,7.53-19.84,12.38-31.6,12.04-6.95-.2-13.51-2.82-20.37-3.16-1.43-.07-2.87-.04-4.32.13-7.22.85-14.1,4.38-18.4,10.33-4.57,6.3-5.44,15.4-1.4,21.97,0,0-.02,0-.03.02-4.93-6.63-4.25-16.47.59-23.16,4.31-5.95,11.18-9.48,18.4-10.32,1.46-.17,2.9-.2,4.32-.13,6.86.33,13.43,2.96,20.38,3.16,11.76.33,22.7-4.52,31.6-12.05,4.46-3.78,8.69-8.84,11.75-13.83,2.51-4.09,5.19-10.74,10.7-11.49.96-.13,2.05.03,2.72.74.26.27.44.59.59.94Z"/>
          <path class="cls-7" d="M110.15,43.54c-.04-1.26-.18-2.52-.43-3.76-.25-1.25-.86-2.73-2.13-2.85-.8-.08-1.51.44-2.15.93-17.32,13.41-34.65,31.37-58.12,31.74-7.14.11-14.02-1.92-21.11-2.21-7.55-.31-14.3,1.48-18.95,7.74-2.76,3.71-4.93,7.87-6.37,12.26,0,0,0,0,0-.02-.02-.1-.03-.2-.05-.3-.06-.42-.09-.85-.07-1.27-.03.06-.05.12-.06.17l.06-.19c1.45-4.54,3.66-8.83,6.5-12.65,4.65-6.26,11.4-8.05,18.95-7.74,7.09.29,13.97,2.32,21.11,2.21,23.47-.37,40.8-18.33,58.12-31.74.64-.49,1.35-1.01,2.15-.93,1.27.12,1.88,1.6,2.13,2.85.38,1.9.51,3.83.43,5.76Z"/>
          <path class="cls-7" d="M91.55,76.9c-11.99,6.04-24.46,7.01-37.73,7.51-4.9.19-9.87.43-14.51,2.03-1.43.49-2.83,1.17-4.15,1.99-5.66,3.54-9.88,9.84-9.39,16.6.1,1.41.55,2.64,1.25,3.69-1.19-1.27-1.99-2.87-2.13-4.81-.48-6.76,3.73-13.06,9.39-16.6,1.32-.83,2.72-1.5,4.16-2,4.63-1.59,9.61-1.84,14.51-2.03,13.49-.51,26.18-1.5,38.35-7.82.1.48.19.96.25,1.44Z"/>
        </g>
      </g>
    </g>
  </g>
</svg>